<svg xmlns="http://www.w3.org/2000/svg" width="934" height="667" viewBox="0 0 934 667">
  <g id="Grupo_883809" data-name="Grupo 883809" transform="translate(-333 -4134)">
    <g id="Grupo_879085" data-name="Grupo 879085" transform="translate(-57 76)">
      <rect id="Rectángulo_75126" data-name="Rectángulo 75126" width="230" height="75" rx="10" transform="translate(423 4450)" fill="#d1bbf9"/>
      <rect id="Rectángulo_75127" data-name="Rectángulo 75127" width="230" height="75" rx="10" transform="translate(948 4450)" fill="#d1bbf9"/>
      <rect id="Rectángulo_75128" data-name="Rectángulo 75128" width="158" height="57" rx="10" transform="translate(800 4668)" fill="#b8ddf7"/>
      <rect id="Rectángulo_75131" data-name="Rectángulo 75131" width="158" height="57" rx="10" transform="translate(983 4668)" fill="#b8ddf7"/>
      <rect id="Rectángulo_75132" data-name="Rectángulo 75132" width="158" height="57" rx="10" transform="translate(1166 4668)" fill="#b8ddf7"/>
      <rect id="Rectángulo_75122" data-name="Rectángulo 75122" width="230" height="75" rx="10" transform="translate(685 4058)" fill="#febdc3"/>
      <rect id="Rectángulo_75134" data-name="Rectángulo 75134" width="230" height="75" rx="10" transform="translate(390 4058)" fill="#febdc3"/>
      <rect id="Rectángulo_75133" data-name="Rectángulo 75133" width="230" height="75" rx="10" transform="translate(980 4058)" fill="#febdc3"/>
      <rect id="Rectángulo_75125" data-name="Rectángulo 75125" width="458" height="57" rx="10" transform="translate(571 4240)" fill="#d1bbf9"/>
      <path id="Trazado_272540" data-name="Trazado 272540" d="M-53.086-2.109h4.773V0h-7.516V-11.375h2.742Zm9.9,2.266A4.345,4.345,0,0,1-46.336-1a4.006,4.006,0,0,1-1.2-3.02v-.219a5.191,5.191,0,0,1,.48-2.289,3.516,3.516,0,0,1,1.4-1.535,4.233,4.233,0,0,1,2.188-.543A3.659,3.659,0,0,1-40.656-7.5a4.344,4.344,0,0,1,1.031,3.082V-3.4h-5.234a1.9,1.9,0,0,0,.617,1.117,1.836,1.836,0,0,0,1.234.406,2.366,2.366,0,0,0,1.953-.875l1.2,1.422A3.363,3.363,0,0,1-41.246-.246,4.713,4.713,0,0,1-43.187.156Zm-.3-6.734q-1.156,0-1.375,1.531H-42.2v-.2a1.3,1.3,0,0,0-.32-.98A1.275,1.275,0,0,0-43.484-6.578Zm8.3,2.891,1.406-4.766h2.82l-3.445,9.867-.148.359a2.617,2.617,0,0,1-2.594,1.641,4.111,4.111,0,0,1-1.086-.156V1.375h.344a1.8,1.8,0,0,0,.848-.16.972.972,0,0,0,.434-.574L-36.4.078l-2.937-8.531h2.813Zm9,3.844A4.345,4.345,0,0,1-29.336-1a4.006,4.006,0,0,1-1.2-3.02v-.219a5.191,5.191,0,0,1,.48-2.289,3.516,3.516,0,0,1,1.4-1.535,4.233,4.233,0,0,1,2.188-.543A3.659,3.659,0,0,1-23.656-7.5a4.344,4.344,0,0,1,1.031,3.082V-3.4h-5.234a1.9,1.9,0,0,0,.617,1.117,1.836,1.836,0,0,0,1.234.406,2.366,2.366,0,0,0,1.953-.875l1.2,1.422A3.363,3.363,0,0,1-24.246-.246,4.713,4.713,0,0,1-26.187.156Zm-.3-6.734q-1.156,0-1.375,1.531H-25.2v-.2a1.3,1.3,0,0,0-.32-.98A1.275,1.275,0,0,0-26.484-6.578Zm9.344,4.2a.608.608,0,0,0-.352-.539,5.348,5.348,0,0,0-1.336-.422,6.092,6.092,0,0,1-1.625-.574,2.722,2.722,0,0,1-.977-.863,2.061,2.061,0,0,1-.336-1.164A2.336,2.336,0,0,1-20.8-7.855a3.958,3.958,0,0,1,2.516-.754,4.386,4.386,0,0,1,2.688.758,2.37,2.37,0,0,1,1.016,1.992h-2.641q0-1.016-1.07-1.016a1.061,1.061,0,0,0-.7.23.714.714,0,0,0-.281.574.655.655,0,0,0,.344.57,3.248,3.248,0,0,0,1.1.359,9.486,9.486,0,0,1,1.324.336A2.406,2.406,0,0,1-14.6-2.453,2.214,2.214,0,0,1-15.629-.57a4.505,4.505,0,0,1-2.66.727,4.6,4.6,0,0,1-1.937-.391A3.24,3.24,0,0,1-21.555-1.3a2.406,2.406,0,0,1-.477-1.414h2.461a1.017,1.017,0,0,0,.391.855,1.607,1.607,0,0,0,.961.27A1.264,1.264,0,0,0-17.41-1.8.7.7,0,0,0-17.141-2.375ZM-6.008-3.687-4.6-8.453h2.82L-5.227,1.414l-.148.359A2.617,2.617,0,0,1-7.969,3.414a4.111,4.111,0,0,1-1.086-.156V1.375h.344a1.8,1.8,0,0,0,.848-.16A.972.972,0,0,0-7.43.641l.211-.562-2.937-8.531h2.813ZM5.3-8.453l.086.992A2.867,2.867,0,0,1,7.8-8.609a2.412,2.412,0,0,1,1.973.789,3.757,3.757,0,0,1,.676,2.375V0H7.813V-5.336a1.426,1.426,0,0,0-.258-.941,1.193,1.193,0,0,0-.937-.3,1.256,1.256,0,0,0-1.148.609V0H2.836V-8.453ZM11.578-4.3a4.989,4.989,0,0,1,.492-2.254,3.52,3.52,0,0,1,1.414-1.52,4.259,4.259,0,0,1,2.164-.531,3.887,3.887,0,0,1,2.992,1.176,4.512,4.512,0,0,1,1.094,3.2v.094A4.378,4.378,0,0,1,18.637-1,3.9,3.9,0,0,1,15.664.156a3.942,3.942,0,0,1-2.9-1.082,4.232,4.232,0,0,1-1.18-2.934Zm2.633.164a3.145,3.145,0,0,0,.367,1.719,1.223,1.223,0,0,0,1.086.547q1.406,0,1.438-2.164V-4.3q0-2.273-1.453-2.273-1.32,0-1.43,1.961Zm11.8-1.93-.867-.062a1.558,1.558,0,0,0-1.594.781V0H20.914V-8.453h2.469l.086,1.086A2.039,2.039,0,0,1,25.32-8.609a2.567,2.567,0,0,1,.734.094Zm3.438-2.383.086.992a2.906,2.906,0,0,1,2.414-1.148,2.14,2.14,0,0,1,2.164,1.273,2.813,2.813,0,0,1,2.484-1.273q2.57,0,2.641,3.109V0H36.594V-5.336a1.611,1.611,0,0,0-.219-.945.931.931,0,0,0-.8-.3,1.247,1.247,0,0,0-1.164.7l.008.109V0H31.781V-5.32a1.694,1.694,0,0,0-.211-.961.929.929,0,0,0-.8-.3,1.263,1.263,0,0,0-1.156.7V0H26.977V-8.453ZM45.5,0a2.973,2.973,0,0,1-.25-.758,2.448,2.448,0,0,1-2.031.914,3,3,0,0,1-2.031-.723,2.3,2.3,0,0,1-.836-1.816,2.364,2.364,0,0,1,1.016-2.078,5.174,5.174,0,0,1,2.953-.7h.813v-.445q0-1.164-1.008-1.164a.822.822,0,0,0-.937.922H40.555A2.364,2.364,0,0,1,41.6-7.844a4.379,4.379,0,0,1,2.66-.766,3.843,3.843,0,0,1,2.555.789,2.743,2.743,0,0,1,.961,2.164v3.742a3.832,3.832,0,0,0,.359,1.781V0ZM43.852-1.719a1.469,1.469,0,0,0,.816-.211,1.322,1.322,0,0,0,.465-.477V-3.758h-.766q-1.375,0-1.375,1.234a.754.754,0,0,0,.242.582A.876.876,0,0,0,43.852-1.719Zm9.8-.656a.608.608,0,0,0-.352-.539,5.348,5.348,0,0,0-1.336-.422,6.092,6.092,0,0,1-1.625-.574,2.722,2.722,0,0,1-.977-.863,2.061,2.061,0,0,1-.336-1.164,2.336,2.336,0,0,1,.961-1.918,3.958,3.958,0,0,1,2.516-.754,4.386,4.386,0,0,1,2.688.758,2.37,2.37,0,0,1,1.016,1.992H53.57q0-1.016-1.07-1.016a1.061,1.061,0,0,0-.7.23.714.714,0,0,0-.281.574.655.655,0,0,0,.344.57,3.248,3.248,0,0,0,1.1.359,9.485,9.485,0,0,1,1.324.336A2.406,2.406,0,0,1,56.2-2.453,2.214,2.214,0,0,1,55.168-.57a4.505,4.505,0,0,1-2.66.727A4.6,4.6,0,0,1,50.57-.234,3.24,3.24,0,0,1,49.242-1.3a2.406,2.406,0,0,1-.477-1.414h2.461a1.017,1.017,0,0,0,.391.855,1.607,1.607,0,0,0,.961.27,1.264,1.264,0,0,0,.809-.219A.7.7,0,0,0,53.656-2.375Z" transform="translate(505 4101)" fill="#12263f"/>
      <path id="Trazado_272546" data-name="Trazado 272546" d="M8.316,13.141V17H5.574V5.625h4.539a5.287,5.287,0,0,1,2.309.48,3.621,3.621,0,0,1,1.555,1.367,3.734,3.734,0,0,1,.551,2.012,3.291,3.291,0,0,1-1.191,2.66,4.943,4.943,0,0,1-3.27,1Zm0-2.117h1.8a1.7,1.7,0,0,0,1.215-.4A1.48,1.48,0,0,0,11.746,9.5a1.83,1.83,0,0,0-.43-1.273,1.522,1.522,0,0,0-1.172-.484H8.316ZM15.434,12.7a4.989,4.989,0,0,1,.492-2.254,3.52,3.52,0,0,1,1.414-1.52A4.259,4.259,0,0,1,19.5,8.391,3.887,3.887,0,0,1,22.5,9.566a4.512,4.512,0,0,1,1.094,3.2v.094A4.378,4.378,0,0,1,22.492,16a3.9,3.9,0,0,1-2.973,1.16,3.942,3.942,0,0,1-2.9-1.082,4.232,4.232,0,0,1-1.18-2.934Zm2.633.164a3.145,3.145,0,0,0,.367,1.719,1.223,1.223,0,0,0,1.086.547q1.406,0,1.438-2.164V12.7q0-2.273-1.453-2.273-1.32,0-1.43,1.961ZM27.527,17H24.887V5h2.641Zm4.492,0H29.371V8.547H32.02ZM31.035,5.156h2.781L31.645,7.609H29.5Zm5.742,1.289v2.1h1.391v1.828H36.777v3.867a.987.987,0,0,0,.172.664.922.922,0,0,0,.68.188,3.862,3.862,0,0,0,.656-.047V16.93a4.859,4.859,0,0,1-1.484.227,2.758,2.758,0,0,1-2.008-.641,2.626,2.626,0,0,1-.648-1.945v-4.2H33.066V8.547h1.078v-2.1ZM41.98,17H39.34V8.547H41.98Zm-2.8-10.633a1.175,1.175,0,0,1,.406-.922,1.727,1.727,0,0,1,2.109,0,1.175,1.175,0,0,1,.406.922,1.175,1.175,0,0,1-.406.922,1.727,1.727,0,0,1-2.109,0A1.175,1.175,0,0,1,39.184,6.367Zm7.992,8.758a1.171,1.171,0,0,0,.859-.3,1.1,1.1,0,0,0,.3-.84H50.8a2.922,2.922,0,0,1-1,2.281,3.705,3.705,0,0,1-2.566.891A3.751,3.751,0,0,1,44.332,16a4.556,4.556,0,0,1-1.062-3.2v-.109a5.149,5.149,0,0,1,.473-2.262,3.441,3.441,0,0,1,1.363-1.508,4.065,4.065,0,0,1,2.109-.527,3.658,3.658,0,0,1,2.617.914,3.242,3.242,0,0,1,.969,2.477H48.332a1.445,1.445,0,0,0-.32-1.008,1.106,1.106,0,0,0-.859-.352q-1.023,0-1.2,1.3a9.206,9.206,0,0,0-.055,1.141,3.616,3.616,0,0,0,.3,1.766A1.055,1.055,0,0,0,47.176,15.125ZM56.676,17a2.973,2.973,0,0,1-.25-.758,2.448,2.448,0,0,1-2.031.914,3,3,0,0,1-2.031-.723,2.3,2.3,0,0,1-.836-1.816,2.364,2.364,0,0,1,1.016-2.078,5.174,5.174,0,0,1,2.953-.7h.813v-.445q0-1.164-1.008-1.164a.822.822,0,0,0-.937.922H51.73a2.364,2.364,0,0,1,1.043-1.992,4.379,4.379,0,0,1,2.66-.766,3.843,3.843,0,0,1,2.555.789,2.743,2.743,0,0,1,.961,2.164v3.742a3.832,3.832,0,0,0,.359,1.781V17Zm-1.648-1.719a1.469,1.469,0,0,0,.816-.211,1.322,1.322,0,0,0,.465-.477V13.242h-.766q-1.375,0-1.375,1.234a.754.754,0,0,0,.242.582A.876.876,0,0,0,55.027,15.281ZM67.168,17H64.527V8.547h2.641Zm-2.8-10.633a1.175,1.175,0,0,1,.406-.922,1.727,1.727,0,0,1,2.109,0,1.175,1.175,0,0,1,.406.922,1.175,1.175,0,0,1-.406.922,1.727,1.727,0,0,1-2.109,0A1.175,1.175,0,0,1,64.371,6.367Zm6.836,2.18.086.992a2.867,2.867,0,0,1,2.414-1.148,2.412,2.412,0,0,1,1.973.789,3.757,3.757,0,0,1,.676,2.375V17H73.715V11.664a1.426,1.426,0,0,0-.258-.941,1.193,1.193,0,0,0-.937-.3,1.256,1.256,0,0,0-1.148.609V17H68.738V8.547Zm11.031,6.078a.608.608,0,0,0-.352-.539,5.348,5.348,0,0,0-1.336-.422,6.092,6.092,0,0,1-1.625-.574,2.722,2.722,0,0,1-.977-.863,2.061,2.061,0,0,1-.336-1.164,2.336,2.336,0,0,1,.961-1.918,3.958,3.958,0,0,1,2.516-.754,4.386,4.386,0,0,1,2.688.758,2.37,2.37,0,0,1,1.016,1.992H82.152q0-1.016-1.07-1.016a1.061,1.061,0,0,0-.7.23.714.714,0,0,0-.281.574.655.655,0,0,0,.344.57,3.248,3.248,0,0,0,1.1.359,9.486,9.486,0,0,1,1.324.336,2.406,2.406,0,0,1,1.906,2.352A2.214,2.214,0,0,1,83.75,16.43a4.505,4.505,0,0,1-2.66.727,4.6,4.6,0,0,1-1.937-.391A3.24,3.24,0,0,1,77.824,15.7a2.406,2.406,0,0,1-.477-1.414h2.461a1.017,1.017,0,0,0,.391.855,1.607,1.607,0,0,0,.961.27,1.264,1.264,0,0,0,.809-.219A.7.7,0,0,0,82.238,14.625Zm6.836-8.18v2.1h1.391v1.828H89.074v3.867a.987.987,0,0,0,.172.664.922.922,0,0,0,.68.188,3.862,3.862,0,0,0,.656-.047V16.93a4.859,4.859,0,0,1-1.484.227,2.758,2.758,0,0,1-2.008-.641,2.626,2.626,0,0,1-.648-1.945v-4.2H85.363V8.547h1.078v-2.1ZM94.277,17H91.637V8.547h2.641ZM91.48,6.367a1.175,1.175,0,0,1,.406-.922,1.727,1.727,0,0,1,2.109,0,1.175,1.175,0,0,1,.406.922A1.175,1.175,0,0,1,94,7.289a1.727,1.727,0,0,1-2.109,0A1.175,1.175,0,0,1,91.48,6.367Zm7.484.078v2.1h1.391v1.828H98.965v3.867a.987.987,0,0,0,.172.664.922.922,0,0,0,.68.188,3.862,3.862,0,0,0,.656-.047V16.93a4.859,4.859,0,0,1-1.484.227,2.758,2.758,0,0,1-2.008-.641,2.626,2.626,0,0,1-.648-1.945v-4.2H95.254V8.547h1.078v-2.1Zm7.461,9.641a2.714,2.714,0,0,1-2.258,1.07,2.662,2.662,0,0,1-2.105-.809,3.4,3.4,0,0,1-.715-2.324V8.547h2.633v5.492a.946.946,0,0,0,1.055,1.086,1.376,1.376,0,0,0,1.289-.648V8.547h2.648V17H106.5Zm7.563-.961a1.171,1.171,0,0,0,.859-.3,1.1,1.1,0,0,0,.3-.84h2.469a2.922,2.922,0,0,1-1,2.281,3.705,3.705,0,0,1-2.566.891A3.751,3.751,0,0,1,111.145,16a4.556,4.556,0,0,1-1.062-3.2v-.109a5.149,5.149,0,0,1,.473-2.262,3.441,3.441,0,0,1,1.363-1.508,4.065,4.065,0,0,1,2.109-.527,3.658,3.658,0,0,1,2.617.914,3.242,3.242,0,0,1,.969,2.477h-2.469a1.445,1.445,0,0,0-.32-1.008,1.106,1.106,0,0,0-.859-.352q-1.023,0-1.2,1.3a9.206,9.206,0,0,0-.055,1.141,3.616,3.616,0,0,0,.3,1.766A1.055,1.055,0,0,0,113.988,15.125ZM121.5,17h-2.641V8.547H121.5Zm-2.8-10.633a1.175,1.175,0,0,1,.406-.922,1.727,1.727,0,0,1,2.109,0,1.175,1.175,0,0,1,.406.922,1.175,1.175,0,0,1-.406.922,1.727,1.727,0,0,1-2.109,0A1.175,1.175,0,0,1,118.707,6.367Zm4.086,6.328a4.989,4.989,0,0,1,.492-2.254,3.52,3.52,0,0,1,1.414-1.52,4.259,4.259,0,0,1,2.164-.531,3.887,3.887,0,0,1,2.992,1.176,4.512,4.512,0,0,1,1.094,3.2v.094a4.378,4.378,0,0,1-1.1,3.137,3.9,3.9,0,0,1-2.973,1.16,3.942,3.942,0,0,1-2.9-1.082,4.232,4.232,0,0,1-1.18-2.934Zm2.633.164a3.145,3.145,0,0,0,.367,1.719,1.223,1.223,0,0,0,1.086.547q1.406,0,1.438-2.164V12.7q0-2.273-1.453-2.273-1.32,0-1.43,1.961Zm9.1-4.312.086.992a2.867,2.867,0,0,1,2.414-1.148A2.412,2.412,0,0,1,139,9.18a3.757,3.757,0,0,1,.676,2.375V17h-2.641V11.664a1.426,1.426,0,0,0-.258-.941,1.193,1.193,0,0,0-.937-.3,1.256,1.256,0,0,0-1.148.609V17h-2.633V8.547ZM145.895,17a2.973,2.973,0,0,1-.25-.758,2.448,2.448,0,0,1-2.031.914,3,3,0,0,1-2.031-.723,2.3,2.3,0,0,1-.836-1.816,2.364,2.364,0,0,1,1.016-2.078,5.174,5.174,0,0,1,2.953-.7h.813v-.445q0-1.164-1.008-1.164a.822.822,0,0,0-.937.922h-2.633a2.364,2.364,0,0,1,1.043-1.992,4.379,4.379,0,0,1,2.66-.766,3.843,3.843,0,0,1,2.555.789,2.743,2.743,0,0,1,.961,2.164v3.742a3.832,3.832,0,0,0,.359,1.781V17Zm-1.648-1.719a1.469,1.469,0,0,0,.816-.211,1.322,1.322,0,0,0,.465-.477V13.242h-.766q-1.375,0-1.375,1.234a.754.754,0,0,0,.242.582A.876.876,0,0,0,144.246,15.281ZM152.4,17h-2.641V5H152.4ZM32.516,36.711a5.164,5.164,0,0,1,.867-3.164A2.854,2.854,0,0,1,35.8,32.391a2.428,2.428,0,0,1,1.906.891V29h2.641V41H37.984l-.133-.906a2.493,2.493,0,0,1-2.062,1.063A2.849,2.849,0,0,1,33.4,40,5.327,5.327,0,0,1,32.516,36.711Zm2.633.164q0,2.25,1.313,2.25a1.3,1.3,0,0,0,1.25-.734V35.172a1.261,1.261,0,0,0-1.234-.75q-1.219,0-1.32,1.969Zm10.789,4.281A4.345,4.345,0,0,1,42.789,40a4.006,4.006,0,0,1-1.2-3.02v-.219a5.191,5.191,0,0,1,.48-2.289,3.516,3.516,0,0,1,1.4-1.535,4.233,4.233,0,0,1,2.188-.543A3.659,3.659,0,0,1,48.469,33.5,4.344,4.344,0,0,1,49.5,36.578V37.6H44.266a1.9,1.9,0,0,0,.617,1.117,1.836,1.836,0,0,0,1.234.406,2.366,2.366,0,0,0,1.953-.875l1.2,1.422a3.363,3.363,0,0,1-1.395,1.082A4.713,4.713,0,0,1,45.938,41.156Zm-.3-6.734q-1.156,0-1.375,1.531h2.656v-.2a1.3,1.3,0,0,0-.32-.98A1.275,1.275,0,0,0,45.641,34.422Zm13.328,4.2a.608.608,0,0,0-.352-.539,5.347,5.347,0,0,0-1.336-.422,6.092,6.092,0,0,1-1.625-.574,2.722,2.722,0,0,1-.977-.863,2.061,2.061,0,0,1-.336-1.164,2.336,2.336,0,0,1,.961-1.918,3.958,3.958,0,0,1,2.516-.754,4.386,4.386,0,0,1,2.688.758,2.37,2.37,0,0,1,1.016,1.992H58.883q0-1.016-1.07-1.016a1.061,1.061,0,0,0-.7.23.714.714,0,0,0-.281.574.655.655,0,0,0,.344.57,3.248,3.248,0,0,0,1.1.359A9.486,9.486,0,0,1,59.6,36.2a2.406,2.406,0,0,1,1.906,2.352A2.214,2.214,0,0,1,60.48,40.43a4.505,4.505,0,0,1-2.66.727,4.6,4.6,0,0,1-1.937-.391A3.24,3.24,0,0,1,54.555,39.7a2.406,2.406,0,0,1-.477-1.414h2.461a1.017,1.017,0,0,0,.391.855,1.607,1.607,0,0,0,.961.27A1.264,1.264,0,0,0,58.7,39.2.7.7,0,0,0,58.969,38.625Zm7.859,2.531A4.345,4.345,0,0,1,63.68,40a4.006,4.006,0,0,1-1.2-3.02v-.219a5.191,5.191,0,0,1,.48-2.289,3.516,3.516,0,0,1,1.4-1.535,4.233,4.233,0,0,1,2.188-.543A3.659,3.659,0,0,1,69.359,33.5a4.344,4.344,0,0,1,1.031,3.082V37.6H65.156a1.9,1.9,0,0,0,.617,1.117,1.836,1.836,0,0,0,1.234.406,2.366,2.366,0,0,0,1.953-.875l1.2,1.422a3.363,3.363,0,0,1-1.395,1.082A4.713,4.713,0,0,1,66.828,41.156Zm-.3-6.734q-1.156,0-1.375,1.531h2.656v-.2a1.3,1.3,0,0,0-.32-.98A1.275,1.275,0,0,0,66.531,34.422Zm4.609,2.289a5.708,5.708,0,0,1,.422-2.266,3.4,3.4,0,0,1,1.211-1.52,3.192,3.192,0,0,1,1.836-.535,2.538,2.538,0,0,1,2.063.891l.094-.734h2.391V40.68a3.564,3.564,0,0,1-.52,1.941,3.334,3.334,0,0,1-1.5,1.266,5.528,5.528,0,0,1-2.281.441,4.769,4.769,0,0,1-1.8-.352,3.251,3.251,0,0,1-1.332-.914l1.1-1.547a2.414,2.414,0,0,0,1.938.867,1.568,1.568,0,0,0,1.75-1.8V40.32a2.472,2.472,0,0,1-1.914.836,3.055,3.055,0,0,1-2.5-1.184,4.9,4.9,0,0,1-.953-3.168Zm2.641.164a3.007,3.007,0,0,0,.391,1.645,1.232,1.232,0,0,0,1.094.605,1.4,1.4,0,0,0,1.242-.57V35a1.363,1.363,0,0,0-1.227-.578,1.241,1.241,0,0,0-1.1.629A3.429,3.429,0,0,0,73.781,36.875Zm11.906,3.211a2.714,2.714,0,0,1-2.258,1.07,2.662,2.662,0,0,1-2.105-.809,3.4,3.4,0,0,1-.715-2.324V32.547h2.633v5.492A.946.946,0,0,0,84.3,39.125a1.376,1.376,0,0,0,1.289-.648v-5.93h2.648V41H85.766Zm9.1-5.156-.867-.062a1.558,1.558,0,0,0-1.594.781V41H89.7V32.547h2.469l.086,1.086A2.039,2.039,0,0,1,94.1,32.391a2.567,2.567,0,0,1,.734.094ZM98.516,41H95.875V32.547h2.641Zm-2.8-10.633a1.175,1.175,0,0,1,.406-.922,1.727,1.727,0,0,1,2.109,0,1.249,1.249,0,0,1,0,1.844,1.727,1.727,0,0,1-2.109,0A1.175,1.175,0,0,1,95.719,30.367ZM99.8,36.711a5.164,5.164,0,0,1,.867-3.164,2.854,2.854,0,0,1,2.422-1.156,2.428,2.428,0,0,1,1.906.891V29h2.641V41h-2.367l-.133-.906a2.493,2.493,0,0,1-2.062,1.063A2.849,2.849,0,0,1,100.688,40,5.327,5.327,0,0,1,99.8,36.711Zm2.633.164q0,2.25,1.313,2.25a1.3,1.3,0,0,0,1.25-.734V35.172a1.261,1.261,0,0,0-1.234-.75q-1.219,0-1.32,1.969ZM113.9,41a2.973,2.973,0,0,1-.25-.758,2.448,2.448,0,0,1-2.031.914,3,3,0,0,1-2.031-.723,2.3,2.3,0,0,1-.836-1.816,2.364,2.364,0,0,1,1.016-2.078,5.174,5.174,0,0,1,2.953-.7h.813v-.445q0-1.164-1.008-1.164a.822.822,0,0,0-.937.922h-2.633A2.364,2.364,0,0,1,110,33.156a4.379,4.379,0,0,1,2.66-.766,3.843,3.843,0,0,1,2.555.789,2.743,2.743,0,0,1,.961,2.164v3.742a3.832,3.832,0,0,0,.359,1.781V41Zm-1.648-1.719a1.469,1.469,0,0,0,.816-.211,1.322,1.322,0,0,0,.465-.477V37.242h-.766q-1.375,0-1.375,1.234a.754.754,0,0,0,.242.582A.876.876,0,0,0,112.25,39.281Zm5.047-2.57a5.164,5.164,0,0,1,.867-3.164,2.854,2.854,0,0,1,2.422-1.156,2.428,2.428,0,0,1,1.906.891V29h2.641V41h-2.367l-.133-.906a2.493,2.493,0,0,1-2.062,1.063A2.849,2.849,0,0,1,118.18,40,5.327,5.327,0,0,1,117.3,36.711Zm2.633.164q0,2.25,1.313,2.25a1.3,1.3,0,0,0,1.25-.734V35.172a1.261,1.261,0,0,0-1.234-.75q-1.219,0-1.32,1.969Z" transform="translate(459 4466)" fill="#12263f"/>
      <path id="Trazado_272548" data-name="Trazado 272548" d="M7.7,13.141V17H4.957V5.625H9.5a5.287,5.287,0,0,1,2.309.48,3.621,3.621,0,0,1,1.555,1.367,3.734,3.734,0,0,1,.551,2.012,3.291,3.291,0,0,1-1.191,2.66,4.943,4.943,0,0,1-3.27,1Zm0-2.117H9.5a1.7,1.7,0,0,0,1.215-.4A1.48,1.48,0,0,0,11.129,9.5a1.83,1.83,0,0,0-.43-1.273,1.522,1.522,0,0,0-1.172-.484H7.7ZM14.816,12.7a4.989,4.989,0,0,1,.492-2.254,3.52,3.52,0,0,1,1.414-1.52,4.259,4.259,0,0,1,2.164-.531,3.887,3.887,0,0,1,2.992,1.176,4.512,4.512,0,0,1,1.094,3.2v.094A4.378,4.378,0,0,1,21.875,16a3.9,3.9,0,0,1-2.973,1.16A3.942,3.942,0,0,1,16,16.074a4.232,4.232,0,0,1-1.18-2.934Zm2.633.164a3.145,3.145,0,0,0,.367,1.719,1.223,1.223,0,0,0,1.086.547q1.406,0,1.438-2.164V12.7q0-2.273-1.453-2.273-1.32,0-1.43,1.961ZM26.91,17H24.27V5H26.91ZM31.4,17H28.754V8.547H31.4ZM30.418,5.156H33.2L31.027,7.609H28.879ZM36.16,6.445v2.1h1.391v1.828H36.16v3.867a.987.987,0,0,0,.172.664.922.922,0,0,0,.68.188,3.862,3.862,0,0,0,.656-.047V16.93a4.859,4.859,0,0,1-1.484.227,2.758,2.758,0,0,1-2.008-.641,2.626,2.626,0,0,1-.648-1.945v-4.2H32.449V8.547h1.078v-2.1ZM41.363,17H38.723V8.547h2.641Zm-2.8-10.633a1.175,1.175,0,0,1,.406-.922,1.727,1.727,0,0,1,2.109,0,1.175,1.175,0,0,1,.406.922,1.175,1.175,0,0,1-.406.922,1.727,1.727,0,0,1-2.109,0A1.175,1.175,0,0,1,38.566,6.367Zm7.992,8.758a1.171,1.171,0,0,0,.859-.3,1.1,1.1,0,0,0,.3-.84h2.469a2.922,2.922,0,0,1-1,2.281,3.705,3.705,0,0,1-2.566.891A3.751,3.751,0,0,1,43.715,16a4.556,4.556,0,0,1-1.062-3.2v-.109a5.149,5.149,0,0,1,.473-2.262,3.441,3.441,0,0,1,1.363-1.508A4.065,4.065,0,0,1,46.6,8.391a3.658,3.658,0,0,1,2.617.914,3.242,3.242,0,0,1,.969,2.477H47.715a1.445,1.445,0,0,0-.32-1.008,1.106,1.106,0,0,0-.859-.352q-1.023,0-1.2,1.3a9.206,9.206,0,0,0-.055,1.141,3.616,3.616,0,0,0,.3,1.766A1.055,1.055,0,0,0,46.559,15.125ZM56.059,17a2.973,2.973,0,0,1-.25-.758,2.448,2.448,0,0,1-2.031.914,3,3,0,0,1-2.031-.723,2.3,2.3,0,0,1-.836-1.816,2.364,2.364,0,0,1,1.016-2.078,5.174,5.174,0,0,1,2.953-.7h.813v-.445q0-1.164-1.008-1.164a.822.822,0,0,0-.937.922H51.113a2.364,2.364,0,0,1,1.043-1.992,4.379,4.379,0,0,1,2.66-.766,3.843,3.843,0,0,1,2.555.789,2.743,2.743,0,0,1,.961,2.164v3.742a3.832,3.832,0,0,0,.359,1.781V17ZM54.41,15.281a1.469,1.469,0,0,0,.816-.211,1.322,1.322,0,0,0,.465-.477V13.242h-.766q-1.375,0-1.375,1.234a.754.754,0,0,0,.242.582A.876.876,0,0,0,54.41,15.281Zm9.8-.656a.608.608,0,0,0-.352-.539,5.348,5.348,0,0,0-1.336-.422A6.092,6.092,0,0,1,60.9,13.09a2.722,2.722,0,0,1-.977-.863,2.061,2.061,0,0,1-.336-1.164,2.336,2.336,0,0,1,.961-1.918,3.958,3.958,0,0,1,2.516-.754,4.386,4.386,0,0,1,2.688.758,2.37,2.37,0,0,1,1.016,1.992H64.129q0-1.016-1.07-1.016a1.061,1.061,0,0,0-.7.23.714.714,0,0,0-.281.574.655.655,0,0,0,.344.57,3.248,3.248,0,0,0,1.1.359,9.486,9.486,0,0,1,1.324.336,2.406,2.406,0,0,1,1.906,2.352,2.214,2.214,0,0,1-1.027,1.883,4.505,4.505,0,0,1-2.66.727,4.6,4.6,0,0,1-1.937-.391A3.24,3.24,0,0,1,59.8,15.7a2.406,2.406,0,0,1-.477-1.414h2.461a1.017,1.017,0,0,0,.391.855,1.607,1.607,0,0,0,.961.27,1.264,1.264,0,0,0,.809-.219A.7.7,0,0,0,64.215,14.625Zm11.844,2.531A4.345,4.345,0,0,1,72.91,16a4.006,4.006,0,0,1-1.2-3.02v-.219a5.191,5.191,0,0,1,.48-2.289,3.516,3.516,0,0,1,1.4-1.535,4.233,4.233,0,0,1,2.188-.543A3.659,3.659,0,0,1,78.59,9.5a4.344,4.344,0,0,1,1.031,3.082V13.6H74.387A1.9,1.9,0,0,0,75,14.719a1.836,1.836,0,0,0,1.234.406,2.366,2.366,0,0,0,1.953-.875l1.2,1.422A3.363,3.363,0,0,1,78,16.754,4.713,4.713,0,0,1,76.059,17.156Zm-.3-6.734q-1.156,0-1.375,1.531h2.656v-.2a1.3,1.3,0,0,0-.32-.98A1.275,1.275,0,0,0,75.762,10.422Zm9.344,4.2a.608.608,0,0,0-.352-.539,5.348,5.348,0,0,0-1.336-.422,6.092,6.092,0,0,1-1.625-.574,2.722,2.722,0,0,1-.977-.863,2.061,2.061,0,0,1-.336-1.164,2.336,2.336,0,0,1,.961-1.918,3.958,3.958,0,0,1,2.516-.754,4.386,4.386,0,0,1,2.688.758,2.37,2.37,0,0,1,1.016,1.992H85.02q0-1.016-1.07-1.016a1.061,1.061,0,0,0-.7.23.714.714,0,0,0-.281.574.655.655,0,0,0,.344.57,3.248,3.248,0,0,0,1.1.359,9.486,9.486,0,0,1,1.324.336,2.406,2.406,0,0,1,1.906,2.352,2.214,2.214,0,0,1-1.027,1.883,4.505,4.505,0,0,1-2.66.727,4.6,4.6,0,0,1-1.937-.391A3.24,3.24,0,0,1,80.691,15.7a2.406,2.406,0,0,1-.477-1.414h2.461a1.017,1.017,0,0,0,.391.855,1.607,1.607,0,0,0,.961.27,1.264,1.264,0,0,0,.809-.219A.7.7,0,0,0,85.105,14.625Zm11.617-1.789a5.1,5.1,0,0,1-.887,3.145,2.843,2.843,0,0,1-2.395,1.176,2.437,2.437,0,0,1-1.914-.852V20.25H88.895V8.547h2.461l.078.781a2.437,2.437,0,0,1,1.992-.937,2.866,2.866,0,0,1,2.43,1.152,5.16,5.16,0,0,1,.867,3.168Zm-2.633-.164q0-2.25-1.312-2.25a1.239,1.239,0,0,0-1.25.672v3.328a1.279,1.279,0,0,0,1.266.7q1.258,0,1.3-2.172Zm7.883,4.484A4.345,4.345,0,0,1,98.824,16a4.006,4.006,0,0,1-1.2-3.02v-.219a5.191,5.191,0,0,1,.48-2.289,3.516,3.516,0,0,1,1.4-1.535,4.233,4.233,0,0,1,2.188-.543A3.659,3.659,0,0,1,104.5,9.5a4.344,4.344,0,0,1,1.031,3.082V13.6H100.3a1.9,1.9,0,0,0,.617,1.117,1.836,1.836,0,0,0,1.234.406,2.366,2.366,0,0,0,1.953-.875l1.2,1.422a3.363,3.363,0,0,1-1.395,1.082A4.713,4.713,0,0,1,101.973,17.156Zm-.3-6.734q-1.156,0-1.375,1.531h2.656v-.2a1.3,1.3,0,0,0-.32-.98A1.275,1.275,0,0,0,101.676,10.422Zm8.492,4.7a1.171,1.171,0,0,0,.859-.3,1.1,1.1,0,0,0,.3-.84h2.469a2.922,2.922,0,0,1-1,2.281,3.705,3.705,0,0,1-2.566.891A3.751,3.751,0,0,1,107.324,16a4.556,4.556,0,0,1-1.062-3.2v-.109a5.149,5.149,0,0,1,.473-2.262A3.441,3.441,0,0,1,108.1,8.918a4.065,4.065,0,0,1,2.109-.527,3.658,3.658,0,0,1,2.617.914,3.242,3.242,0,0,1,.969,2.477h-2.469a1.445,1.445,0,0,0-.32-1.008,1.106,1.106,0,0,0-.859-.352q-1.023,0-1.2,1.3a9.206,9.206,0,0,0-.055,1.141,3.616,3.616,0,0,0,.3,1.766A1.055,1.055,0,0,0,110.168,15.125ZM117.777,17h-2.648V8.547h2.648Zm-.984-11.844h2.781L117.4,7.609h-2.148ZM120.082,17V10.375h-1.227V8.547h1.227V8.266a3.228,3.228,0,0,1,1.109-2.586,4.433,4.433,0,0,1,2.883-.844,10.23,10.23,0,0,1,2.75.453l-.359,2.078-.437-.117a6.962,6.962,0,0,0-1.8-.227q-1.508,0-1.508,1.375v.148h1.656v1.828h-1.656V17Zm7.953,0h-2.648V8.547h2.648Zm5.18-1.875a1.171,1.171,0,0,0,.859-.3,1.1,1.1,0,0,0,.3-.84h2.469a2.922,2.922,0,0,1-1,2.281,3.705,3.705,0,0,1-2.566.891A3.751,3.751,0,0,1,130.371,16a4.556,4.556,0,0,1-1.062-3.2v-.109a5.149,5.149,0,0,1,.473-2.262,3.441,3.441,0,0,1,1.363-1.508,4.065,4.065,0,0,1,2.109-.527,3.658,3.658,0,0,1,2.617.914,3.242,3.242,0,0,1,.969,2.477h-2.469a1.445,1.445,0,0,0-.32-1.008,1.106,1.106,0,0,0-.859-.352q-1.023,0-1.2,1.3a9.207,9.207,0,0,0-.055,1.141,3.616,3.616,0,0,0,.3,1.766A1.055,1.055,0,0,0,133.215,15.125Zm9.5,1.875a2.973,2.973,0,0,1-.25-.758,2.448,2.448,0,0,1-2.031.914,3,3,0,0,1-2.031-.723,2.3,2.3,0,0,1-.836-1.816,2.364,2.364,0,0,1,1.016-2.078,5.174,5.174,0,0,1,2.953-.7h.813v-.445q0-1.164-1.008-1.164a.822.822,0,0,0-.937.922H137.77a2.364,2.364,0,0,1,1.043-1.992,4.379,4.379,0,0,1,2.66-.766,3.843,3.843,0,0,1,2.555.789,2.743,2.743,0,0,1,.961,2.164v3.742a3.832,3.832,0,0,0,.359,1.781V17Zm-1.648-1.719a1.469,1.469,0,0,0,.816-.211,1.322,1.322,0,0,0,.465-.477V13.242h-.766q-1.375,0-1.375,1.234a.754.754,0,0,0,.242.582A.876.876,0,0,0,141.066,15.281Zm9.8-.656a.608.608,0,0,0-.352-.539,5.348,5.348,0,0,0-1.336-.422,6.092,6.092,0,0,1-1.625-.574,2.722,2.722,0,0,1-.977-.863,2.061,2.061,0,0,1-.336-1.164,2.336,2.336,0,0,1,.961-1.918,3.958,3.958,0,0,1,2.516-.754,4.386,4.386,0,0,1,2.688.758,2.37,2.37,0,0,1,1.016,1.992h-2.641q0-1.016-1.07-1.016a1.061,1.061,0,0,0-.7.23.714.714,0,0,0-.281.574.655.655,0,0,0,.344.57,3.248,3.248,0,0,0,1.1.359,9.485,9.485,0,0,1,1.324.336,2.406,2.406,0,0,1,1.906,2.352,2.214,2.214,0,0,1-1.027,1.883,4.505,4.505,0,0,1-2.66.727,4.6,4.6,0,0,1-1.937-.391,3.24,3.24,0,0,1-1.328-1.062,2.406,2.406,0,0,1-.477-1.414h2.461a1.017,1.017,0,0,0,.391.855,1.607,1.607,0,0,0,.961.27,1.264,1.264,0,0,0,.809-.219A.7.7,0,0,0,150.871,14.625Z" transform="translate(983 4478)" fill="#12263f"/>
      <path id="Trazado_272550" data-name="Trazado 272550" d="M-53.375-3.859V0h-2.742V-11.375h4.539a5.287,5.287,0,0,1,2.309.48,3.621,3.621,0,0,1,1.555,1.367,3.734,3.734,0,0,1,.551,2.012,3.291,3.291,0,0,1-1.191,2.66,4.943,4.943,0,0,1-3.27,1Zm0-2.117h1.8a1.7,1.7,0,0,0,1.215-.4A1.48,1.48,0,0,0-49.945-7.5a1.83,1.83,0,0,0-.43-1.273,1.522,1.522,0,0,0-1.172-.484h-1.828Zm12.664-.094-.867-.062a1.558,1.558,0,0,0-1.594.781V0H-45.8V-8.453h2.469l.086,1.086A2.039,2.039,0,0,1-41.4-8.609a2.567,2.567,0,0,1,.734.094Zm.336,1.766a4.989,4.989,0,0,1,.492-2.254,3.52,3.52,0,0,1,1.414-1.52A4.259,4.259,0,0,1-36.3-8.609a3.887,3.887,0,0,1,2.992,1.176,4.512,4.512,0,0,1,1.094,3.2v.094A4.378,4.378,0,0,1-33.316-1,3.9,3.9,0,0,1-36.289.156a3.942,3.942,0,0,1-2.9-1.082,4.232,4.232,0,0,1-1.18-2.934Zm2.633.164a3.145,3.145,0,0,0,.367,1.719,1.223,1.223,0,0,0,1.086.547q1.406,0,1.438-2.164V-4.3q0-2.273-1.453-2.273-1.32,0-1.43,1.961Zm10.258,2.266a1.171,1.171,0,0,0,.859-.3,1.1,1.1,0,0,0,.3-.84h2.469a2.922,2.922,0,0,1-1,2.281,3.705,3.705,0,0,1-2.566.891A3.751,3.751,0,0,1-30.328-1a4.556,4.556,0,0,1-1.062-3.2v-.109a5.149,5.149,0,0,1,.473-2.262,3.441,3.441,0,0,1,1.363-1.508,4.065,4.065,0,0,1,2.109-.527,3.658,3.658,0,0,1,2.617.914,3.242,3.242,0,0,1,.969,2.477h-2.469a1.445,1.445,0,0,0-.32-1.008,1.106,1.106,0,0,0-.859-.352q-1.023,0-1.2,1.3a9.206,9.206,0,0,0-.055,1.141,3.616,3.616,0,0,0,.3,1.766A1.055,1.055,0,0,0-27.484-1.875ZM-18.656.156A4.345,4.345,0,0,1-21.8-1a4.006,4.006,0,0,1-1.2-3.02v-.219a5.191,5.191,0,0,1,.48-2.289,3.516,3.516,0,0,1,1.4-1.535,4.233,4.233,0,0,1,2.188-.543A3.659,3.659,0,0,1-16.125-7.5a4.344,4.344,0,0,1,1.031,3.082V-3.4h-5.234a1.9,1.9,0,0,0,.617,1.117,1.836,1.836,0,0,0,1.234.406,2.366,2.366,0,0,0,1.953-.875l1.2,1.422A3.363,3.363,0,0,1-16.715-.246,4.713,4.713,0,0,1-18.656.156Zm-.3-6.734q-1.156,0-1.375,1.531h2.656v-.2a1.3,1.3,0,0,0-.32-.98A1.275,1.275,0,0,0-18.953-6.578Zm4.586,2.289A5.164,5.164,0,0,1-13.5-7.453a2.854,2.854,0,0,1,2.422-1.156,2.428,2.428,0,0,1,1.906.891V-12h2.641V0H-8.9l-.133-.906A2.493,2.493,0,0,1-11.094.156,2.849,2.849,0,0,1-13.484-1,5.327,5.327,0,0,1-14.367-4.289Zm2.633.164q0,2.25,1.313,2.25a1.3,1.3,0,0,0,1.25-.734V-5.828a1.261,1.261,0,0,0-1.234-.75q-1.219,0-1.32,1.969ZM-2.258,0H-4.9V-8.453h2.641Zm-2.8-10.633a1.175,1.175,0,0,1,.406-.922,1.533,1.533,0,0,1,1.055-.359,1.533,1.533,0,0,1,1.055.359,1.175,1.175,0,0,1,.406.922,1.175,1.175,0,0,1-.406.922,1.533,1.533,0,0,1-1.055.359,1.533,1.533,0,0,1-1.055-.359A1.175,1.175,0,0,1-5.055-10.633Zm6.906,2.18.086.992A2.906,2.906,0,0,1,4.352-8.609,2.14,2.14,0,0,1,6.516-7.336,2.813,2.813,0,0,1,9-8.609q2.57,0,2.641,3.109V0H9V-5.336a1.611,1.611,0,0,0-.219-.945.931.931,0,0,0-.8-.3,1.247,1.247,0,0,0-1.164.7l.008.109V0H4.188V-5.32a1.694,1.694,0,0,0-.211-.961.929.929,0,0,0-.8-.3,1.263,1.263,0,0,0-1.156.7V0H-.617V-8.453ZM15.922,0H13.281V-8.453h2.641Zm-2.8-10.633a1.175,1.175,0,0,1,.406-.922,1.533,1.533,0,0,1,1.055-.359,1.533,1.533,0,0,1,1.055.359,1.175,1.175,0,0,1,.406.922,1.175,1.175,0,0,1-.406.922,1.533,1.533,0,0,1-1.055.359,1.533,1.533,0,0,1-1.055-.359A1.175,1.175,0,0,1,13.125-10.633ZM21.633.156A4.345,4.345,0,0,1,18.484-1a4.006,4.006,0,0,1-1.2-3.02v-.219a5.191,5.191,0,0,1,.48-2.289,3.516,3.516,0,0,1,1.4-1.535,4.233,4.233,0,0,1,2.188-.543A3.659,3.659,0,0,1,24.164-7.5,4.344,4.344,0,0,1,25.2-4.422V-3.4H19.961a1.9,1.9,0,0,0,.617,1.117,1.836,1.836,0,0,0,1.234.406,2.366,2.366,0,0,0,1.953-.875l1.2,1.422A3.363,3.363,0,0,1,23.574-.246,4.713,4.713,0,0,1,21.633.156Zm-.3-6.734q-1.156,0-1.375,1.531h2.656v-.2a1.3,1.3,0,0,0-.32-.98A1.275,1.275,0,0,0,21.336-6.578Zm7.336-1.875.086.992a2.867,2.867,0,0,1,2.414-1.148,2.412,2.412,0,0,1,1.973.789,3.757,3.757,0,0,1,.676,2.375V0H31.18V-5.336a1.426,1.426,0,0,0-.258-.941,1.193,1.193,0,0,0-.937-.3,1.256,1.256,0,0,0-1.148.609V0H26.2V-8.453Zm9.672-2.1v2.1h1.391v1.828H38.344v3.867a.987.987,0,0,0,.172.664.922.922,0,0,0,.68.188,3.862,3.862,0,0,0,.656-.047V-.07a4.859,4.859,0,0,1-1.484.227,2.758,2.758,0,0,1-2.008-.641,2.626,2.626,0,0,1-.648-1.945v-4.2H34.633V-8.453h1.078v-2.1ZM40.2-4.3A4.989,4.989,0,0,1,40.7-6.559a3.52,3.52,0,0,1,1.414-1.52,4.259,4.259,0,0,1,2.164-.531,3.887,3.887,0,0,1,2.992,1.176,4.512,4.512,0,0,1,1.094,3.2v.094A4.378,4.378,0,0,1,47.262-1,3.9,3.9,0,0,1,44.289.156a3.942,3.942,0,0,1-2.9-1.082,4.232,4.232,0,0,1-1.18-2.934Zm2.633.164A3.145,3.145,0,0,0,43.2-2.422a1.223,1.223,0,0,0,1.086.547q1.406,0,1.438-2.164V-4.3q0-2.273-1.453-2.273-1.32,0-1.43,1.961ZM53.945-2.375a.608.608,0,0,0-.352-.539,5.348,5.348,0,0,0-1.336-.422,6.092,6.092,0,0,1-1.625-.574,2.722,2.722,0,0,1-.977-.863,2.061,2.061,0,0,1-.336-1.164,2.336,2.336,0,0,1,.961-1.918A3.958,3.958,0,0,1,52.8-8.609a4.386,4.386,0,0,1,2.688.758A2.37,2.37,0,0,1,56.5-5.859H53.859q0-1.016-1.07-1.016a1.061,1.061,0,0,0-.7.23.714.714,0,0,0-.281.574.655.655,0,0,0,.344.57,3.248,3.248,0,0,0,1.1.359,9.485,9.485,0,0,1,1.324.336,2.406,2.406,0,0,1,1.906,2.352A2.214,2.214,0,0,1,55.457-.57,4.505,4.505,0,0,1,52.8.156a4.6,4.6,0,0,1-1.937-.391A3.24,3.24,0,0,1,49.531-1.3a2.406,2.406,0,0,1-.477-1.414h2.461a1.017,1.017,0,0,0,.391.855,1.607,1.607,0,0,0,.961.27,1.264,1.264,0,0,0,.809-.219A.7.7,0,0,0,53.945-2.375Z" transform="translate(879 4702)" fill="#12263f"/>
      <path id="Trazado_272551" data-name="Trazado 272551" d="M-32.395-4.82h-4.312v2.711h5.094V0h-7.836V-11.375H-31.6v2.117h-5.109v2.4h4.313Zm6.2,2.445a.608.608,0,0,0-.352-.539,5.348,5.348,0,0,0-1.336-.422A6.092,6.092,0,0,1-29.5-3.91a2.722,2.722,0,0,1-.977-.863,2.061,2.061,0,0,1-.336-1.164,2.336,2.336,0,0,1,.961-1.918,3.958,3.958,0,0,1,2.516-.754,4.386,4.386,0,0,1,2.688.758,2.37,2.37,0,0,1,1.016,1.992h-2.641q0-1.016-1.07-1.016a1.061,1.061,0,0,0-.7.23.714.714,0,0,0-.281.574.655.655,0,0,0,.344.57,3.248,3.248,0,0,0,1.1.359,9.486,9.486,0,0,1,1.324.336,2.406,2.406,0,0,1,1.906,2.352A2.214,2.214,0,0,1-24.68-.57a4.505,4.505,0,0,1-2.66.727,4.6,4.6,0,0,1-1.937-.391A3.24,3.24,0,0,1-30.605-1.3a2.406,2.406,0,0,1-.477-1.414h2.461a1.017,1.017,0,0,0,.391.855,1.607,1.607,0,0,0,.961.27,1.264,1.264,0,0,0,.809-.219A.7.7,0,0,0-26.191-2.375Zm6.836-8.18v2.1h1.391v1.828h-1.391v3.867a.987.987,0,0,0,.172.664.922.922,0,0,0,.68.188,3.862,3.862,0,0,0,.656-.047V-.07a4.859,4.859,0,0,1-1.484.227A2.758,2.758,0,0,1-21.34-.484a2.626,2.626,0,0,1-.648-1.945v-4.2h-1.078V-8.453h1.078v-2.1ZM-12.168,0a2.973,2.973,0,0,1-.25-.758,2.448,2.448,0,0,1-2.031.914A3,3,0,0,1-16.48-.566a2.3,2.3,0,0,1-.836-1.816A2.364,2.364,0,0,1-16.3-4.461a5.174,5.174,0,0,1,2.953-.7h.813v-.445q0-1.164-1.008-1.164a.822.822,0,0,0-.937.922h-2.633A2.364,2.364,0,0,1-16.07-7.844a4.379,4.379,0,0,1,2.66-.766,3.843,3.843,0,0,1,2.555.789,2.743,2.743,0,0,1,.961,2.164v3.742A3.832,3.832,0,0,0-9.535-.133V0Zm-1.648-1.719A1.469,1.469,0,0,0-13-1.93a1.322,1.322,0,0,0,.465-.477V-3.758H-13.3q-1.375,0-1.375,1.234a.754.754,0,0,0,.242.582A.876.876,0,0,0-13.816-1.719ZM-13.16-12h2.781l-2.172,2.453H-14.7ZM-6.02-8.453l.086.992A2.867,2.867,0,0,1-3.52-8.609a2.412,2.412,0,0,1,1.973.789A3.757,3.757,0,0,1-.871-5.445V0H-3.512V-5.336a1.426,1.426,0,0,0-.258-.941,1.193,1.193,0,0,0-.937-.3,1.256,1.256,0,0,0-1.148.609V0H-8.488V-8.453ZM.254-4.289a5.164,5.164,0,0,1,.867-3.164A2.854,2.854,0,0,1,3.543-8.609a2.428,2.428,0,0,1,1.906.891V-12H8.09V0H5.723L5.59-.906A2.493,2.493,0,0,1,3.527.156,2.849,2.849,0,0,1,1.137-1,5.327,5.327,0,0,1,.254-4.289Zm2.633.164q0,2.25,1.313,2.25a1.3,1.3,0,0,0,1.25-.734V-5.828a1.261,1.261,0,0,0-1.234-.75Q3-6.578,2.895-4.609ZM14.348,0a2.973,2.973,0,0,1-.25-.758,2.448,2.448,0,0,1-2.031.914,3,3,0,0,1-2.031-.723A2.3,2.3,0,0,1,9.2-2.383a2.364,2.364,0,0,1,1.016-2.078,5.174,5.174,0,0,1,2.953-.7h.813v-.445q0-1.164-1.008-1.164a.822.822,0,0,0-.937.922H9.4a2.364,2.364,0,0,1,1.043-1.992,4.379,4.379,0,0,1,2.66-.766,3.843,3.843,0,0,1,2.555.789,2.743,2.743,0,0,1,.961,2.164v3.742A3.832,3.832,0,0,0,16.98-.133V0ZM12.7-1.719a1.469,1.469,0,0,0,.816-.211,1.322,1.322,0,0,0,.465-.477V-3.758h-.766q-1.375,0-1.375,1.234a.754.754,0,0,0,.242.582A.876.876,0,0,0,12.7-1.719ZM23.191-6.07l-.867-.062a1.558,1.558,0,0,0-1.594.781V0H18.1V-8.453h2.469l.086,1.086A2.039,2.039,0,0,1,22.5-8.609a2.567,2.567,0,0,1,.734.094ZM28.23.156A4.345,4.345,0,0,1,25.082-1a4.006,4.006,0,0,1-1.2-3.02v-.219a5.191,5.191,0,0,1,.48-2.289,3.516,3.516,0,0,1,1.4-1.535,4.233,4.233,0,0,1,2.188-.543A3.659,3.659,0,0,1,30.762-7.5a4.344,4.344,0,0,1,1.031,3.082V-3.4H26.559a1.9,1.9,0,0,0,.617,1.117,1.836,1.836,0,0,0,1.234.406,2.366,2.366,0,0,0,1.953-.875l1.2,1.422A3.363,3.363,0,0,1,30.172-.246,4.713,4.713,0,0,1,28.23.156Zm-.3-6.734q-1.156,0-1.375,1.531h2.656v-.2a1.3,1.3,0,0,0-.32-.98A1.275,1.275,0,0,0,27.934-6.578Zm9.344,4.2a.608.608,0,0,0-.352-.539,5.348,5.348,0,0,0-1.336-.422,6.092,6.092,0,0,1-1.625-.574,2.722,2.722,0,0,1-.977-.863,2.061,2.061,0,0,1-.336-1.164,2.336,2.336,0,0,1,.961-1.918,3.958,3.958,0,0,1,2.516-.754,4.386,4.386,0,0,1,2.688.758,2.37,2.37,0,0,1,1.016,1.992H37.191q0-1.016-1.07-1.016a1.061,1.061,0,0,0-.7.23.714.714,0,0,0-.281.574.655.655,0,0,0,.344.57,3.248,3.248,0,0,0,1.1.359A9.485,9.485,0,0,1,37.91-4.8a2.406,2.406,0,0,1,1.906,2.352A2.214,2.214,0,0,1,38.789-.57a4.505,4.505,0,0,1-2.66.727,4.6,4.6,0,0,1-1.937-.391A3.24,3.24,0,0,1,32.863-1.3a2.406,2.406,0,0,1-.477-1.414h2.461a1.017,1.017,0,0,0,.391.855,1.607,1.607,0,0,0,.961.27,1.264,1.264,0,0,0,.809-.219A.7.7,0,0,0,37.277-2.375Z" transform="translate(1062 4702)" fill="#12263f"/>
      <path id="Trazado_272552" data-name="Trazado 272552" d="M-24.973-3.852a4.154,4.154,0,0,1-.641,2.1,3.866,3.866,0,0,1-1.645,1.41,5.6,5.6,0,0,1-2.418.5A4.467,4.467,0,0,1-33.207-1.3,6.032,6.032,0,0,1-34.5-5.43v-.562a6.885,6.885,0,0,1,.582-2.926,4.41,4.41,0,0,1,1.676-1.937,4.676,4.676,0,0,1,2.531-.684,4.9,4.9,0,0,1,3.328,1.09,4.306,4.306,0,0,1,1.43,3h-2.734a2.037,2.037,0,0,0-.523-1.492,2.153,2.153,0,0,0-1.5-.453,1.638,1.638,0,0,0-1.5.766,4.921,4.921,0,0,0-.5,2.445v.8a5.445,5.445,0,0,0,.457,2.6,1.672,1.672,0,0,0,1.574.781,2.106,2.106,0,0,0,1.445-.445A1.89,1.89,0,0,0-27.7-3.852Zm.844-.453a4.989,4.989,0,0,1,.492-2.254,3.52,3.52,0,0,1,1.414-1.52,4.259,4.259,0,0,1,2.164-.531,3.887,3.887,0,0,1,2.992,1.176,4.512,4.512,0,0,1,1.094,3.2v.094A4.378,4.378,0,0,1-17.07-1,3.9,3.9,0,0,1-20.043.156a3.942,3.942,0,0,1-2.9-1.082,4.232,4.232,0,0,1-1.18-2.934Zm2.633.164a3.145,3.145,0,0,0,.367,1.719,1.223,1.223,0,0,0,1.086.547q1.406,0,1.438-2.164V-4.3q0-2.273-1.453-2.273-1.32,0-1.43,1.961Zm9.1-4.312.086.992A2.867,2.867,0,0,1-9.895-8.609a2.412,2.412,0,0,1,1.973.789,3.757,3.757,0,0,1,.676,2.375V0H-9.887V-5.336a1.426,1.426,0,0,0-.258-.941,1.193,1.193,0,0,0-.937-.3,1.256,1.256,0,0,0-1.148.609V0h-2.633V-8.453Zm9.672-2.1v2.1h1.391v1.828H-2.723v3.867a.987.987,0,0,0,.172.664.922.922,0,0,0,.68.188,3.862,3.862,0,0,0,.656-.047V-.07A4.859,4.859,0,0,1-2.7.156,2.758,2.758,0,0,1-4.707-.484,2.626,2.626,0,0,1-5.355-2.43v-4.2H-6.434V-8.453h1.078v-2.1ZM4.816-6.07l-.867-.062a1.558,1.558,0,0,0-1.594.781V0H-.277V-8.453H2.191l.086,1.086A2.039,2.039,0,0,1,4.129-8.609a2.567,2.567,0,0,1,.734.094ZM5.152-4.3a4.989,4.989,0,0,1,.492-2.254,3.52,3.52,0,0,1,1.414-1.52,4.259,4.259,0,0,1,2.164-.531,3.887,3.887,0,0,1,2.992,1.176,4.512,4.512,0,0,1,1.094,3.2v.094A4.378,4.378,0,0,1,12.211-1,3.9,3.9,0,0,1,9.238.156,3.942,3.942,0,0,1,6.34-.926,4.232,4.232,0,0,1,5.16-3.859Zm2.633.164a3.145,3.145,0,0,0,.367,1.719,1.223,1.223,0,0,0,1.086.547q1.406,0,1.438-2.164V-4.3q0-2.273-1.453-2.273-1.32,0-1.43,1.961ZM17.246,0H14.605V-12h2.641Zm5.711.156A4.345,4.345,0,0,1,19.809-1a4.006,4.006,0,0,1-1.2-3.02v-.219a5.191,5.191,0,0,1,.48-2.289,3.516,3.516,0,0,1,1.4-1.535,4.233,4.233,0,0,1,2.188-.543A3.659,3.659,0,0,1,25.488-7.5,4.344,4.344,0,0,1,26.52-4.422V-3.4H21.285A1.9,1.9,0,0,0,21.9-2.281a1.836,1.836,0,0,0,1.234.406A2.366,2.366,0,0,0,25.09-2.75l1.2,1.422A3.363,3.363,0,0,1,24.9-.246,4.713,4.713,0,0,1,22.957.156Zm-.3-6.734q-1.156,0-1.375,1.531h2.656v-.2a1.3,1.3,0,0,0-.32-.98A1.275,1.275,0,0,0,22.66-6.578ZM32-2.375a.608.608,0,0,0-.352-.539,5.348,5.348,0,0,0-1.336-.422,6.092,6.092,0,0,1-1.625-.574,2.722,2.722,0,0,1-.977-.863,2.061,2.061,0,0,1-.336-1.164,2.336,2.336,0,0,1,.961-1.918,3.958,3.958,0,0,1,2.516-.754,4.386,4.386,0,0,1,2.688.758,2.37,2.37,0,0,1,1.016,1.992H31.918q0-1.016-1.07-1.016a1.061,1.061,0,0,0-.7.23.714.714,0,0,0-.281.574.655.655,0,0,0,.344.57,3.248,3.248,0,0,0,1.1.359,9.485,9.485,0,0,1,1.324.336,2.406,2.406,0,0,1,1.906,2.352A2.214,2.214,0,0,1,33.516-.57a4.505,4.505,0,0,1-2.66.727,4.6,4.6,0,0,1-1.937-.391A3.24,3.24,0,0,1,27.59-1.3a2.406,2.406,0,0,1-.477-1.414h2.461a1.017,1.017,0,0,0,.391.855,1.607,1.607,0,0,0,.961.27,1.264,1.264,0,0,0,.809-.219A.7.7,0,0,0,32-2.375Z" transform="translate(1245 4702)" fill="#12263f"/>
      <path id="Trazado_272541" data-name="Trazado 272541" d="M-82.094-4.016h-1.484V0H-86.32V-11.375h4.477a4.993,4.993,0,0,1,3.164.9,3.046,3.046,0,0,1,1.141,2.539,3.7,3.7,0,0,1-.48,1.969,3.411,3.411,0,0,1-1.5,1.266l2.375,4.586V0h-2.937Zm-1.484-2.117h1.734a1.559,1.559,0,0,0,1.176-.41,1.583,1.583,0,0,0,.395-1.145,1.6,1.6,0,0,0-.4-1.152,1.544,1.544,0,0,0-1.172-.418h-1.734ZM-71.914.156A4.345,4.345,0,0,1-75.062-1a4.006,4.006,0,0,1-1.2-3.02v-.219a5.191,5.191,0,0,1,.48-2.289,3.516,3.516,0,0,1,1.4-1.535A4.233,4.233,0,0,1-72.2-8.609,3.659,3.659,0,0,1-69.383-7.5a4.344,4.344,0,0,1,1.031,3.082V-3.4h-5.234a1.9,1.9,0,0,0,.617,1.117,1.836,1.836,0,0,0,1.234.406,2.366,2.366,0,0,0,1.953-.875l1.2,1.422A3.363,3.363,0,0,1-69.973-.246,4.713,4.713,0,0,1-71.914.156Zm-.3-6.734q-1.156,0-1.375,1.531h2.656v-.2a1.3,1.3,0,0,0-.32-.98A1.275,1.275,0,0,0-72.211-6.578Zm4.586,2.266a5.074,5.074,0,0,1,.875-3.156,2.874,2.874,0,0,1,2.414-1.141,2.454,2.454,0,0,1,2.078,1.063l.188-.906h2.281V3.25H-62.43V-.7a2.451,2.451,0,0,1-1.922.859A2.849,2.849,0,0,1-66.738-1,5.357,5.357,0,0,1-67.625-4.312Zm2.633.164q0,2.273,1.313,2.273a1.271,1.271,0,0,0,1.25-.687V-5.906a1.244,1.244,0,0,0-1.234-.672q-1.227,0-1.32,1.961ZM-53.266-.914A2.714,2.714,0,0,1-55.523.156a2.662,2.662,0,0,1-2.105-.809,3.4,3.4,0,0,1-.715-2.324V-8.453h2.633v5.492a.946.946,0,0,0,1.055,1.086,1.376,1.376,0,0,0,1.289-.648v-5.93h2.648V0h-2.469ZM-46.5,0h-2.641V-8.453H-46.5Zm-2.8-10.633a1.175,1.175,0,0,1,.406-.922,1.533,1.533,0,0,1,1.055-.359,1.533,1.533,0,0,1,1.055.359,1.175,1.175,0,0,1,.406.922,1.175,1.175,0,0,1-.406.922,1.533,1.533,0,0,1-1.055.359,1.533,1.533,0,0,1-1.055-.359A1.175,1.175,0,0,1-49.3-10.633Zm8.844,8.258a.608.608,0,0,0-.352-.539,5.348,5.348,0,0,0-1.336-.422,6.092,6.092,0,0,1-1.625-.574,2.722,2.722,0,0,1-.977-.863,2.061,2.061,0,0,1-.336-1.164,2.336,2.336,0,0,1,.961-1.918A3.958,3.958,0,0,1-41.6-8.609a4.386,4.386,0,0,1,2.688.758A2.37,2.37,0,0,1-37.9-5.859h-2.641q0-1.016-1.07-1.016a1.061,1.061,0,0,0-.7.23.714.714,0,0,0-.281.574.655.655,0,0,0,.344.57,3.248,3.248,0,0,0,1.1.359A9.485,9.485,0,0,1-39.82-4.8a2.406,2.406,0,0,1,1.906,2.352A2.214,2.214,0,0,1-38.941-.57,4.505,4.505,0,0,1-41.6.156a4.6,4.6,0,0,1-1.937-.391A3.24,3.24,0,0,1-44.867-1.3a2.406,2.406,0,0,1-.477-1.414h2.461a1.017,1.017,0,0,0,.391.855,1.607,1.607,0,0,0,.961.27,1.264,1.264,0,0,0,.809-.219A.7.7,0,0,0-40.453-2.375ZM-33.906,0h-2.641V-8.453h2.641Zm-2.8-10.633a1.175,1.175,0,0,1,.406-.922,1.533,1.533,0,0,1,1.055-.359,1.533,1.533,0,0,1,1.055.359,1.175,1.175,0,0,1,.406.922,1.175,1.175,0,0,1-.406.922,1.533,1.533,0,0,1-1.055.359A1.533,1.533,0,0,1-36.3-9.711,1.175,1.175,0,0,1-36.7-10.633Zm7.484.078v2.1h1.391v1.828h-1.391v3.867a.987.987,0,0,0,.172.664.922.922,0,0,0,.68.188,3.862,3.862,0,0,0,.656-.047V-.07A4.859,4.859,0,0,1-29.2.156,2.758,2.758,0,0,1-31.2-.484a2.626,2.626,0,0,1-.648-1.945v-4.2H-32.93V-8.453h1.078v-2.1Zm1.859,6.25a4.989,4.989,0,0,1,.492-2.254,3.52,3.52,0,0,1,1.414-1.52,4.259,4.259,0,0,1,2.164-.531A3.887,3.887,0,0,1-20.3-7.434a4.512,4.512,0,0,1,1.094,3.2v.094A4.378,4.378,0,0,1-20.3-1,3.9,3.9,0,0,1-23.273.156a3.942,3.942,0,0,1-2.9-1.082,4.232,4.232,0,0,1-1.18-2.934Zm2.633.164a3.145,3.145,0,0,0,.367,1.719,1.223,1.223,0,0,0,1.086.547q1.406,0,1.438-2.164V-4.3q0-2.273-1.453-2.273-1.32,0-1.43,1.961Zm11.109,1.766a.608.608,0,0,0-.352-.539A5.348,5.348,0,0,0-15.3-3.336,6.092,6.092,0,0,1-16.93-3.91a2.722,2.722,0,0,1-.977-.863,2.061,2.061,0,0,1-.336-1.164,2.336,2.336,0,0,1,.961-1.918,3.958,3.958,0,0,1,2.516-.754,4.386,4.386,0,0,1,2.688.758,2.37,2.37,0,0,1,1.016,1.992H-13.7q0-1.016-1.07-1.016a1.061,1.061,0,0,0-.7.23.714.714,0,0,0-.281.574.655.655,0,0,0,.344.57,3.248,3.248,0,0,0,1.1.359,9.485,9.485,0,0,1,1.324.336,2.406,2.406,0,0,1,1.906,2.352A2.214,2.214,0,0,1-12.105-.57a4.505,4.505,0,0,1-2.66.727A4.6,4.6,0,0,1-16.7-.234,3.24,3.24,0,0,1-18.031-1.3a2.406,2.406,0,0,1-.477-1.414h2.461a1.017,1.017,0,0,0,.391.855,1.607,1.607,0,0,0,.961.27,1.264,1.264,0,0,0,.809-.219A.7.7,0,0,0-13.617-2.375ZM-6.2-4.289a5.164,5.164,0,0,1,.867-3.164A2.854,2.854,0,0,1-2.906-8.609,2.428,2.428,0,0,1-1-7.719V-12H1.641V0H-.727L-.859-.906A2.493,2.493,0,0,1-2.922.156,2.849,2.849,0,0,1-5.312-1,5.327,5.327,0,0,1-6.2-4.289Zm2.633.164q0,2.25,1.313,2.25A1.3,1.3,0,0,0-1-2.609V-5.828a1.261,1.261,0,0,0-1.234-.75q-1.219,0-1.32,1.969ZM7.227.156A4.345,4.345,0,0,1,4.078-1a4.006,4.006,0,0,1-1.2-3.02v-.219a5.191,5.191,0,0,1,.48-2.289,3.516,3.516,0,0,1,1.4-1.535,4.233,4.233,0,0,1,2.188-.543A3.659,3.659,0,0,1,9.758-7.5a4.344,4.344,0,0,1,1.031,3.082V-3.4H5.555a1.9,1.9,0,0,0,.617,1.117,1.836,1.836,0,0,0,1.234.406A2.366,2.366,0,0,0,9.359-2.75l1.2,1.422A3.363,3.363,0,0,1,9.168-.246,4.713,4.713,0,0,1,7.227.156Zm-.3-6.734q-1.156,0-1.375,1.531H8.211v-.2a1.3,1.3,0,0,0-.32-.98A1.275,1.275,0,0,0,6.93-6.578Zm13.328,4.2a.608.608,0,0,0-.352-.539,5.348,5.348,0,0,0-1.336-.422,6.092,6.092,0,0,1-1.625-.574,2.722,2.722,0,0,1-.977-.863,2.061,2.061,0,0,1-.336-1.164,2.336,2.336,0,0,1,.961-1.918,3.958,3.958,0,0,1,2.516-.754,4.386,4.386,0,0,1,2.688.758,2.37,2.37,0,0,1,1.016,1.992H20.172q0-1.016-1.07-1.016a1.061,1.061,0,0,0-.7.23.714.714,0,0,0-.281.574.655.655,0,0,0,.344.57,3.248,3.248,0,0,0,1.1.359,9.486,9.486,0,0,1,1.324.336A2.406,2.406,0,0,1,22.8-2.453,2.214,2.214,0,0,1,21.77-.57a4.505,4.505,0,0,1-2.66.727,4.6,4.6,0,0,1-1.937-.391A3.24,3.24,0,0,1,15.844-1.3a2.406,2.406,0,0,1-.477-1.414h2.461a1.017,1.017,0,0,0,.391.855,1.607,1.607,0,0,0,.961.27,1.264,1.264,0,0,0,.809-.219A.7.7,0,0,0,20.258-2.375ZM28.117.156A4.345,4.345,0,0,1,24.969-1a4.006,4.006,0,0,1-1.2-3.02v-.219a5.191,5.191,0,0,1,.48-2.289,3.516,3.516,0,0,1,1.4-1.535,4.233,4.233,0,0,1,2.188-.543A3.659,3.659,0,0,1,30.648-7.5,4.344,4.344,0,0,1,31.68-4.422V-3.4H26.445a1.9,1.9,0,0,0,.617,1.117,1.836,1.836,0,0,0,1.234.406A2.366,2.366,0,0,0,30.25-2.75l1.2,1.422A3.363,3.363,0,0,1,30.059-.246,4.713,4.713,0,0,1,28.117.156Zm-.3-6.734q-1.156,0-1.375,1.531H29.1v-.2a1.3,1.3,0,0,0-.32-.98A1.275,1.275,0,0,0,27.82-6.578ZM32.43-4.289a5.708,5.708,0,0,1,.422-2.266,3.4,3.4,0,0,1,1.211-1.52A3.192,3.192,0,0,1,35.9-8.609a2.538,2.538,0,0,1,2.063.891l.094-.734h2.391V-.32a3.564,3.564,0,0,1-.52,1.941,3.334,3.334,0,0,1-1.5,1.266,5.528,5.528,0,0,1-2.281.441,4.769,4.769,0,0,1-1.8-.352,3.251,3.251,0,0,1-1.332-.914l1.1-1.547a2.414,2.414,0,0,0,1.938.867,1.568,1.568,0,0,0,1.75-1.8V-.68a2.472,2.472,0,0,1-1.914.836,3.055,3.055,0,0,1-2.5-1.184A4.9,4.9,0,0,1,32.43-4.2Zm2.641.164a3.007,3.007,0,0,0,.391,1.645,1.232,1.232,0,0,0,1.094.605,1.4,1.4,0,0,0,1.242-.57V-6a1.363,1.363,0,0,0-1.227-.578,1.241,1.241,0,0,0-1.1.629A3.429,3.429,0,0,0,35.07-4.125ZM46.977-.914A2.714,2.714,0,0,1,44.719.156a2.662,2.662,0,0,1-2.105-.809A3.4,3.4,0,0,1,41.9-2.977V-8.453h2.633v5.492a.946.946,0,0,0,1.055,1.086,1.376,1.376,0,0,0,1.289-.648v-5.93h2.648V0H47.055Zm9.1-5.156-.867-.062a1.558,1.558,0,0,0-1.594.781V0H50.984V-8.453h2.469l.086,1.086a2.039,2.039,0,0,1,1.852-1.242,2.567,2.567,0,0,1,.734.094ZM59.8,0H57.164V-8.453H59.8Zm-2.8-10.633a1.175,1.175,0,0,1,.406-.922,1.533,1.533,0,0,1,1.055-.359,1.533,1.533,0,0,1,1.055.359,1.175,1.175,0,0,1,.406.922,1.175,1.175,0,0,1-.406.922,1.533,1.533,0,0,1-1.055.359,1.533,1.533,0,0,1-1.055-.359A1.175,1.175,0,0,1,57.008-10.633Zm4.086,6.344a5.164,5.164,0,0,1,.867-3.164,2.854,2.854,0,0,1,2.422-1.156,2.428,2.428,0,0,1,1.906.891V-12H68.93V0H66.563L66.43-.906A2.493,2.493,0,0,1,64.367.156,2.849,2.849,0,0,1,61.977-1,5.327,5.327,0,0,1,61.094-4.289Zm2.633.164q0,2.25,1.313,2.25a1.3,1.3,0,0,0,1.25-.734V-5.828a1.261,1.261,0,0,0-1.234-.75q-1.219,0-1.32,1.969ZM75.188,0a2.973,2.973,0,0,1-.25-.758,2.448,2.448,0,0,1-2.031.914,3,3,0,0,1-2.031-.723,2.3,2.3,0,0,1-.836-1.816,2.364,2.364,0,0,1,1.016-2.078,5.174,5.174,0,0,1,2.953-.7h.813v-.445q0-1.164-1.008-1.164a.822.822,0,0,0-.937.922H70.242a2.364,2.364,0,0,1,1.043-1.992,4.379,4.379,0,0,1,2.66-.766A3.843,3.843,0,0,1,76.5-7.82a2.743,2.743,0,0,1,.961,2.164v3.742A3.832,3.832,0,0,0,77.82-.133V0ZM73.539-1.719a1.469,1.469,0,0,0,.816-.211,1.322,1.322,0,0,0,.465-.477V-3.758h-.766q-1.375,0-1.375,1.234a.754.754,0,0,0,.242.582A.876.876,0,0,0,73.539-1.719Zm5.047-2.57a5.164,5.164,0,0,1,.867-3.164,2.854,2.854,0,0,1,2.422-1.156,2.428,2.428,0,0,1,1.906.891V-12h2.641V0H84.055l-.133-.906A2.493,2.493,0,0,1,81.859.156,2.849,2.849,0,0,1,79.469-1,5.327,5.327,0,0,1,78.586-4.289Zm2.633.164q0,2.25,1.313,2.25a1.3,1.3,0,0,0,1.25-.734V-5.828a1.261,1.261,0,0,0-1.234-.75q-1.219,0-1.32,1.969Z" transform="translate(797 4101)" fill="#12263f"/>
      <path id="Trazado_272544" data-name="Trazado 272544" d="M-141.762-3.859V0H-144.5V-11.375h4.539a5.287,5.287,0,0,1,2.309.48A3.621,3.621,0,0,1-136.1-9.527a3.734,3.734,0,0,1,.551,2.012,3.291,3.291,0,0,1-1.191,2.66,4.943,4.943,0,0,1-3.27,1Zm0-2.117h1.8a1.7,1.7,0,0,0,1.215-.4,1.48,1.48,0,0,0,.418-1.125,1.83,1.83,0,0,0-.43-1.273,1.522,1.522,0,0,0-1.172-.484h-1.828Zm7.117,1.672a4.989,4.989,0,0,1,.492-2.254,3.52,3.52,0,0,1,1.414-1.52,4.259,4.259,0,0,1,2.164-.531,3.887,3.887,0,0,1,2.992,1.176,4.512,4.512,0,0,1,1.094,3.2v.094A4.378,4.378,0,0,1-127.586-1a3.9,3.9,0,0,1-2.973,1.16,3.942,3.942,0,0,1-2.9-1.082,4.232,4.232,0,0,1-1.18-2.934Zm2.633.164a3.145,3.145,0,0,0,.367,1.719,1.223,1.223,0,0,0,1.086.547q1.406,0,1.438-2.164V-4.3q0-2.273-1.453-2.273-1.32,0-1.43,1.961ZM-122.551,0h-2.641V-12h2.641Zm4.492,0h-2.648V-8.453h2.648Zm-.984-11.844h2.781l-2.172,2.453h-2.148Zm5.742,1.289v2.1h1.391v1.828H-113.3v3.867a.987.987,0,0,0,.172.664.922.922,0,0,0,.68.188,3.862,3.862,0,0,0,.656-.047V-.07a4.859,4.859,0,0,1-1.484.227,2.758,2.758,0,0,1-2.008-.641,2.626,2.626,0,0,1-.648-1.945v-4.2h-1.078V-8.453h1.078v-2.1ZM-108.1,0h-2.641V-8.453h2.641Zm-2.8-10.633a1.175,1.175,0,0,1,.406-.922,1.533,1.533,0,0,1,1.055-.359,1.533,1.533,0,0,1,1.055.359,1.175,1.175,0,0,1,.406.922,1.175,1.175,0,0,1-.406.922,1.533,1.533,0,0,1-1.055.359,1.533,1.533,0,0,1-1.055-.359A1.175,1.175,0,0,1-110.895-10.633Zm7.992,8.758a1.171,1.171,0,0,0,.859-.3,1.1,1.1,0,0,0,.3-.84h2.469a2.922,2.922,0,0,1-1,2.281,3.705,3.705,0,0,1-2.566.891A3.751,3.751,0,0,1-105.746-1a4.556,4.556,0,0,1-1.062-3.2v-.109a5.149,5.149,0,0,1,.473-2.262,3.441,3.441,0,0,1,1.363-1.508,4.065,4.065,0,0,1,2.109-.527,3.658,3.658,0,0,1,2.617.914,3.242,3.242,0,0,1,.969,2.477h-2.469a1.445,1.445,0,0,0-.32-1.008,1.106,1.106,0,0,0-.859-.352q-1.023,0-1.2,1.3a9.206,9.206,0,0,0-.055,1.141,3.616,3.616,0,0,0,.3,1.766A1.055,1.055,0,0,0-102.9-1.875ZM-93.4,0a2.973,2.973,0,0,1-.25-.758,2.448,2.448,0,0,1-2.031.914,3,3,0,0,1-2.031-.723,2.3,2.3,0,0,1-.836-1.816,2.364,2.364,0,0,1,1.016-2.078,5.174,5.174,0,0,1,2.953-.7h.813v-.445q0-1.164-1.008-1.164a.822.822,0,0,0-.937.922h-2.633A2.364,2.364,0,0,1-97.3-7.844a4.379,4.379,0,0,1,2.66-.766,3.843,3.843,0,0,1,2.555.789,2.743,2.743,0,0,1,.961,2.164v3.742A3.832,3.832,0,0,0-90.77-.133V0Zm-1.648-1.719a1.469,1.469,0,0,0,.816-.211,1.322,1.322,0,0,0,.465-.477V-3.758h-.766q-1.375,0-1.375,1.234a.754.754,0,0,0,.242.582A.876.876,0,0,0-95.051-1.719Zm9.8-.656a.608.608,0,0,0-.352-.539,5.348,5.348,0,0,0-1.336-.422,6.092,6.092,0,0,1-1.625-.574,2.722,2.722,0,0,1-.977-.863,2.061,2.061,0,0,1-.336-1.164,2.336,2.336,0,0,1,.961-1.918,3.958,3.958,0,0,1,2.516-.754,4.386,4.386,0,0,1,2.688.758,2.37,2.37,0,0,1,1.016,1.992h-2.641q0-1.016-1.07-1.016a1.061,1.061,0,0,0-.7.23.714.714,0,0,0-.281.574.655.655,0,0,0,.344.57,3.248,3.248,0,0,0,1.1.359,9.486,9.486,0,0,1,1.324.336,2.406,2.406,0,0,1,1.906,2.352A2.214,2.214,0,0,1-83.734-.57a4.505,4.505,0,0,1-2.66.727,4.6,4.6,0,0,1-1.937-.391A3.24,3.24,0,0,1-89.66-1.3a2.406,2.406,0,0,1-.477-1.414h2.461a1.017,1.017,0,0,0,.391.855,1.607,1.607,0,0,0,.961.27,1.264,1.264,0,0,0,.809-.219A.7.7,0,0,0-85.246-2.375Zm7.422-1.914a5.164,5.164,0,0,1,.867-3.164,2.854,2.854,0,0,1,2.422-1.156,2.428,2.428,0,0,1,1.906.891V-12h2.641V0h-2.367l-.133-.906A2.493,2.493,0,0,1-74.551.156,2.849,2.849,0,0,1-76.941-1,5.327,5.327,0,0,1-77.824-4.289Zm2.633.164q0,2.25,1.313,2.25a1.3,1.3,0,0,0,1.25-.734V-5.828a1.261,1.261,0,0,0-1.234-.75q-1.219,0-1.32,1.969ZM-64.4.156A4.345,4.345,0,0,1-67.551-1a4.006,4.006,0,0,1-1.2-3.02v-.219a5.191,5.191,0,0,1,.48-2.289,3.516,3.516,0,0,1,1.4-1.535,4.233,4.233,0,0,1,2.188-.543A3.659,3.659,0,0,1-61.871-7.5,4.344,4.344,0,0,1-60.84-4.422V-3.4h-5.234a1.9,1.9,0,0,0,.617,1.117,1.836,1.836,0,0,0,1.234.406A2.366,2.366,0,0,0-62.27-2.75l1.2,1.422A3.363,3.363,0,0,1-62.461-.246,4.713,4.713,0,0,1-64.4.156Zm-.3-6.734q-1.156,0-1.375,1.531h2.656v-.2a1.3,1.3,0,0,0-.32-.98A1.275,1.275,0,0,0-64.7-6.578Zm13.328,4.2a.608.608,0,0,0-.352-.539,5.348,5.348,0,0,0-1.336-.422,6.092,6.092,0,0,1-1.625-.574,2.722,2.722,0,0,1-.977-.863A2.061,2.061,0,0,1-56-5.937a2.336,2.336,0,0,1,.961-1.918,3.958,3.958,0,0,1,2.516-.754,4.386,4.386,0,0,1,2.688.758,2.37,2.37,0,0,1,1.016,1.992h-2.641q0-1.016-1.07-1.016a1.061,1.061,0,0,0-.7.23.714.714,0,0,0-.281.574.655.655,0,0,0,.344.57,3.248,3.248,0,0,0,1.1.359,9.485,9.485,0,0,1,1.324.336,2.406,2.406,0,0,1,1.906,2.352A2.214,2.214,0,0,1-49.859-.57a4.505,4.505,0,0,1-2.66.727,4.6,4.6,0,0,1-1.937-.391A3.24,3.24,0,0,1-55.785-1.3a2.406,2.406,0,0,1-.477-1.414H-53.8a1.017,1.017,0,0,0,.391.855,1.607,1.607,0,0,0,.961.27,1.264,1.264,0,0,0,.809-.219A.7.7,0,0,0-51.371-2.375ZM-43.512.156A4.345,4.345,0,0,1-46.66-1a4.006,4.006,0,0,1-1.2-3.02v-.219a5.191,5.191,0,0,1,.48-2.289,3.516,3.516,0,0,1,1.4-1.535,4.233,4.233,0,0,1,2.188-.543A3.659,3.659,0,0,1-40.98-7.5a4.344,4.344,0,0,1,1.031,3.082V-3.4h-5.234a1.9,1.9,0,0,0,.617,1.117,1.836,1.836,0,0,0,1.234.406,2.366,2.366,0,0,0,1.953-.875l1.2,1.422A3.363,3.363,0,0,1-41.57-.246,4.713,4.713,0,0,1-43.512.156Zm-.3-6.734q-1.156,0-1.375,1.531h2.656v-.2a1.3,1.3,0,0,0-.32-.98A1.275,1.275,0,0,0-43.809-6.578ZM-39.2-4.289a5.708,5.708,0,0,1,.422-2.266,3.4,3.4,0,0,1,1.211-1.52,3.192,3.192,0,0,1,1.836-.535,2.538,2.538,0,0,1,2.063.891l.094-.734h2.391V-.32a3.564,3.564,0,0,1-.52,1.941,3.334,3.334,0,0,1-1.5,1.266,5.528,5.528,0,0,1-2.281.441,4.769,4.769,0,0,1-1.8-.352,3.251,3.251,0,0,1-1.332-.914l1.1-1.547a2.414,2.414,0,0,0,1.938.867,1.568,1.568,0,0,0,1.75-1.8V-.68a2.472,2.472,0,0,1-1.914.836,3.055,3.055,0,0,1-2.5-1.184A4.9,4.9,0,0,1-39.2-4.2Zm2.641.164a3.007,3.007,0,0,0,.391,1.645,1.232,1.232,0,0,0,1.094.605,1.4,1.4,0,0,0,1.242-.57V-6a1.363,1.363,0,0,0-1.227-.578,1.241,1.241,0,0,0-1.1.629A3.429,3.429,0,0,0-36.559-4.125ZM-24.652-.914A2.714,2.714,0,0,1-26.91.156a2.662,2.662,0,0,1-2.105-.809,3.4,3.4,0,0,1-.715-2.324V-8.453H-27.1v5.492a.946.946,0,0,0,1.055,1.086,1.376,1.376,0,0,0,1.289-.648v-5.93h2.648V0h-2.469Zm9.1-5.156-.867-.062a1.558,1.558,0,0,0-1.594.781V0h-2.633V-8.453h2.469l.086,1.086a2.039,2.039,0,0,1,1.852-1.242,2.567,2.567,0,0,1,.734.094ZM-11.824,0h-2.641V-8.453h2.641Zm-2.8-10.633a1.175,1.175,0,0,1,.406-.922,1.533,1.533,0,0,1,1.055-.359,1.533,1.533,0,0,1,1.055.359,1.175,1.175,0,0,1,.406.922,1.175,1.175,0,0,1-.406.922,1.533,1.533,0,0,1-1.055.359,1.533,1.533,0,0,1-1.055-.359A1.175,1.175,0,0,1-14.621-10.633Zm4.086,6.344a5.164,5.164,0,0,1,.867-3.164A2.854,2.854,0,0,1-7.246-8.609a2.428,2.428,0,0,1,1.906.891V-12H-2.7V0H-5.066L-5.2-.906A2.493,2.493,0,0,1-7.262.156,2.849,2.849,0,0,1-9.652-1,5.327,5.327,0,0,1-10.535-4.289Zm2.633.164q0,2.25,1.313,2.25a1.3,1.3,0,0,0,1.25-.734V-5.828a1.261,1.261,0,0,0-1.234-.75q-1.219,0-1.32,1.969ZM3.559,0a2.973,2.973,0,0,1-.25-.758A2.448,2.448,0,0,1,1.277.156,3,3,0,0,1-.754-.566,2.3,2.3,0,0,1-1.59-2.383,2.364,2.364,0,0,1-.574-4.461a5.174,5.174,0,0,1,2.953-.7h.813v-.445q0-1.164-1.008-1.164a.822.822,0,0,0-.937.922H-1.387A2.364,2.364,0,0,1-.344-7.844a4.379,4.379,0,0,1,2.66-.766,3.843,3.843,0,0,1,2.555.789,2.743,2.743,0,0,1,.961,2.164v3.742A3.832,3.832,0,0,0,6.191-.133V0ZM1.91-1.719a1.469,1.469,0,0,0,.816-.211,1.322,1.322,0,0,0,.465-.477V-3.758H2.426q-1.375,0-1.375,1.234a.754.754,0,0,0,.242.582A.876.876,0,0,0,1.91-1.719Zm5.047-2.57a5.164,5.164,0,0,1,.867-3.164,2.854,2.854,0,0,1,2.422-1.156,2.428,2.428,0,0,1,1.906.891V-12h2.641V0H12.426l-.133-.906A2.493,2.493,0,0,1,10.23.156,2.849,2.849,0,0,1,7.84-1,5.327,5.327,0,0,1,6.957-4.289Zm2.633.164q0,2.25,1.313,2.25a1.3,1.3,0,0,0,1.25-.734V-5.828a1.261,1.261,0,0,0-1.234-.75Q9.7-6.578,9.6-4.609Zm10.352-.164a5.164,5.164,0,0,1,.867-3.164A2.854,2.854,0,0,1,23.23-8.609a2.428,2.428,0,0,1,1.906.891V-12h2.641V0H25.41l-.133-.906A2.493,2.493,0,0,1,23.215.156,2.849,2.849,0,0,1,20.824-1,5.327,5.327,0,0,1,19.941-4.289Zm2.633.164q0,2.25,1.313,2.25a1.3,1.3,0,0,0,1.25-.734V-5.828a1.261,1.261,0,0,0-1.234-.75q-1.219,0-1.32,1.969ZM33.363.156A4.345,4.345,0,0,1,30.215-1a4.006,4.006,0,0,1-1.2-3.02v-.219a5.191,5.191,0,0,1,.48-2.289,3.516,3.516,0,0,1,1.4-1.535,4.233,4.233,0,0,1,2.188-.543A3.659,3.659,0,0,1,35.895-7.5a4.344,4.344,0,0,1,1.031,3.082V-3.4H31.691a1.9,1.9,0,0,0,.617,1.117,1.836,1.836,0,0,0,1.234.406A2.366,2.366,0,0,0,35.5-2.75l1.2,1.422A3.363,3.363,0,0,1,35.3-.246,4.713,4.713,0,0,1,33.363.156Zm-.3-6.734q-1.156,0-1.375,1.531h2.656v-.2a1.3,1.3,0,0,0-.32-.98A1.275,1.275,0,0,0,33.066-6.578ZM44.746,0H42.105V-12h2.641Zm6.383,0a2.973,2.973,0,0,1-.25-.758,2.448,2.448,0,0,1-2.031.914,3,3,0,0,1-2.031-.723,2.3,2.3,0,0,1-.836-1.816A2.364,2.364,0,0,1,47-4.461a5.174,5.174,0,0,1,2.953-.7h.813v-.445q0-1.164-1.008-1.164a.822.822,0,0,0-.937.922H46.184a2.364,2.364,0,0,1,1.043-1.992,4.379,4.379,0,0,1,2.66-.766,3.843,3.843,0,0,1,2.555.789A2.743,2.743,0,0,1,53.4-5.656v3.742a3.832,3.832,0,0,0,.359,1.781V0ZM49.48-1.719A1.469,1.469,0,0,0,50.3-1.93a1.322,1.322,0,0,0,.465-.477V-3.758H50q-1.375,0-1.375,1.234a.754.754,0,0,0,.242.582A.876.876,0,0,0,49.48-1.719ZM61.621,0H58.98V-8.453h2.641Zm-2.8-10.633a1.175,1.175,0,0,1,.406-.922,1.533,1.533,0,0,1,1.055-.359,1.533,1.533,0,0,1,1.055.359,1.175,1.175,0,0,1,.406.922,1.175,1.175,0,0,1-.406.922,1.533,1.533,0,0,1-1.055.359,1.533,1.533,0,0,1-1.055-.359A1.175,1.175,0,0,1,58.824-10.633Zm6.836,2.18.086.992A2.867,2.867,0,0,1,68.16-8.609a2.412,2.412,0,0,1,1.973.789,3.757,3.757,0,0,1,.676,2.375V0H68.168V-5.336a1.426,1.426,0,0,0-.258-.941,1.193,1.193,0,0,0-.937-.3,1.256,1.256,0,0,0-1.148.609V0H63.191V-8.453ZM72.848,0V-6.625H71.621V-8.453h1.227v-.672a2.921,2.921,0,0,1,.852-2.242,3.364,3.364,0,0,1,2.391-.8A5.235,5.235,0,0,1,77.324-12l.008,1.938a2.4,2.4,0,0,0-.648-.07q-1.2,0-1.2,1.031v.648h1.648v1.828H75.488V0ZM77.73-4.3a4.989,4.989,0,0,1,.492-2.254,3.52,3.52,0,0,1,1.414-1.52A4.259,4.259,0,0,1,81.8-8.609a3.887,3.887,0,0,1,2.992,1.176,4.512,4.512,0,0,1,1.094,3.2v.094A4.378,4.378,0,0,1,84.789-1,3.9,3.9,0,0,1,81.816.156a3.942,3.942,0,0,1-2.9-1.082,4.232,4.232,0,0,1-1.18-2.934Zm2.633.164a3.145,3.145,0,0,0,.367,1.719,1.223,1.223,0,0,0,1.086.547q1.406,0,1.438-2.164V-4.3q0-2.273-1.453-2.273-1.32,0-1.43,1.961Zm11.8-1.93-.867-.062a1.558,1.558,0,0,0-1.594.781V0H87.066V-8.453h2.469l.086,1.086a2.039,2.039,0,0,1,1.852-1.242,2.567,2.567,0,0,1,.734.094ZM95.6-8.453l.086.992A2.906,2.906,0,0,1,98.1-8.609a2.14,2.14,0,0,1,2.164,1.273,2.813,2.813,0,0,1,2.484-1.273q2.57,0,2.641,3.109V0h-2.641V-5.336a1.611,1.611,0,0,0-.219-.945.931.931,0,0,0-.8-.3,1.247,1.247,0,0,0-1.164.7l.008.109V0H97.934V-5.32a1.694,1.694,0,0,0-.211-.961.929.929,0,0,0-.8-.3,1.263,1.263,0,0,0-1.156.7V0H93.129V-8.453ZM111.652,0a2.973,2.973,0,0,1-.25-.758,2.448,2.448,0,0,1-2.031.914,3,3,0,0,1-2.031-.723,2.3,2.3,0,0,1-.836-1.816,2.364,2.364,0,0,1,1.016-2.078,5.174,5.174,0,0,1,2.953-.7h.813v-.445q0-1.164-1.008-1.164a.822.822,0,0,0-.937.922h-2.633a2.364,2.364,0,0,1,1.043-1.992,4.379,4.379,0,0,1,2.66-.766,3.843,3.843,0,0,1,2.555.789,2.743,2.743,0,0,1,.961,2.164v3.742a3.832,3.832,0,0,0,.359,1.781V0ZM110-1.719a1.469,1.469,0,0,0,.816-.211,1.322,1.322,0,0,0,.465-.477V-3.758h-.766q-1.375,0-1.375,1.234a.754.754,0,0,0,.242.582A.876.876,0,0,0,110-1.719Zm8.953-.156a1.171,1.171,0,0,0,.859-.3,1.1,1.1,0,0,0,.3-.84h2.469a2.922,2.922,0,0,1-1,2.281,3.705,3.705,0,0,1-2.566.891A3.751,3.751,0,0,1,116.113-1a4.556,4.556,0,0,1-1.062-3.2v-.109a5.149,5.149,0,0,1,.473-2.262,3.441,3.441,0,0,1,1.363-1.508A4.065,4.065,0,0,1,119-8.609a3.658,3.658,0,0,1,2.617.914,3.242,3.242,0,0,1,.969,2.477h-2.469a1.445,1.445,0,0,0-.32-1.008,1.106,1.106,0,0,0-.859-.352q-1.023,0-1.2,1.3a9.206,9.206,0,0,0-.055,1.141,3.616,3.616,0,0,0,.3,1.766A1.055,1.055,0,0,0,118.957-1.875ZM126.473,0h-2.641V-8.453h2.641Zm-2.8-10.633a1.175,1.175,0,0,1,.406-.922,1.533,1.533,0,0,1,1.055-.359,1.533,1.533,0,0,1,1.055.359,1.175,1.175,0,0,1,.406.922,1.175,1.175,0,0,1-.406.922,1.533,1.533,0,0,1-1.055.359,1.533,1.533,0,0,1-1.055-.359A1.175,1.175,0,0,1,123.676-10.633ZM127.762-4.3a4.989,4.989,0,0,1,.492-2.254,3.52,3.52,0,0,1,1.414-1.52,4.259,4.259,0,0,1,2.164-.531,3.887,3.887,0,0,1,2.992,1.176,4.512,4.512,0,0,1,1.094,3.2v.094A4.378,4.378,0,0,1,134.82-1a3.9,3.9,0,0,1-2.973,1.16,3.942,3.942,0,0,1-2.9-1.082,4.232,4.232,0,0,1-1.18-2.934Zm2.633.164a3.145,3.145,0,0,0,.367,1.719,1.223,1.223,0,0,0,1.086.547q1.406,0,1.438-2.164V-4.3q0-2.273-1.453-2.273-1.32,0-1.43,1.961Zm1.8-7.859h2.781L132.8-9.547h-2.148Zm7.3,3.547.086.992A2.867,2.867,0,0,1,142-8.609a2.412,2.412,0,0,1,1.973.789,3.757,3.757,0,0,1,.676,2.375V0H142V-5.336a1.426,1.426,0,0,0-.258-.941,1.193,1.193,0,0,0-.937-.3,1.256,1.256,0,0,0-1.148.609V0h-2.633V-8.453Z" transform="translate(800 4274)" fill="#12263f"/>
      <path id="Trazado_272542" data-name="Trazado 272542" d="M9.754,5.625l2.539,7.914,2.531-7.914h3.609V17h-2.75V14.344l.266-5.437L13.2,17H11.387L8.629,8.9l.266,5.445V17H6.152V5.625ZM24.145,17.156A4.345,4.345,0,0,1,21,16a4.006,4.006,0,0,1-1.2-3.02v-.219a5.191,5.191,0,0,1,.48-2.289,3.516,3.516,0,0,1,1.4-1.535,4.233,4.233,0,0,1,2.188-.543A3.659,3.659,0,0,1,26.676,9.5a4.344,4.344,0,0,1,1.031,3.082V13.6H22.473a1.9,1.9,0,0,0,.617,1.117,1.836,1.836,0,0,0,1.234.406,2.366,2.366,0,0,0,1.953-.875l1.2,1.422a3.363,3.363,0,0,1-1.395,1.082A4.713,4.713,0,0,1,24.145,17.156Zm-.3-6.734q-1.156,0-1.375,1.531h2.656v-.2a1.3,1.3,0,0,0-.32-.98A1.275,1.275,0,0,0,23.848,10.422Zm7.984-3.977v2.1h1.391v1.828H31.832v3.867a.987.987,0,0,0,.172.664.922.922,0,0,0,.68.188,3.862,3.862,0,0,0,.656-.047V16.93a4.859,4.859,0,0,1-1.484.227,2.758,2.758,0,0,1-2.008-.641A2.626,2.626,0,0,1,29.2,14.57v-4.2H28.121V8.547H29.2v-2.1ZM39.02,17a2.973,2.973,0,0,1-.25-.758,2.448,2.448,0,0,1-2.031.914,3,3,0,0,1-2.031-.723,2.3,2.3,0,0,1-.836-1.816,2.364,2.364,0,0,1,1.016-2.078,5.174,5.174,0,0,1,2.953-.7h.813v-.445q0-1.164-1.008-1.164a.822.822,0,0,0-.937.922H34.074a2.364,2.364,0,0,1,1.043-1.992,4.379,4.379,0,0,1,2.66-.766,3.843,3.843,0,0,1,2.555.789,2.743,2.743,0,0,1,.961,2.164v3.742a3.832,3.832,0,0,0,.359,1.781V17Zm-1.648-1.719a1.469,1.469,0,0,0,.816-.211,1.322,1.322,0,0,0,.465-.477V13.242h-.766q-1.375,0-1.375,1.234a.754.754,0,0,0,.242.582A.876.876,0,0,0,37.371,15.281Zm9.8-.656a.608.608,0,0,0-.352-.539,5.348,5.348,0,0,0-1.336-.422,6.092,6.092,0,0,1-1.625-.574,2.722,2.722,0,0,1-.977-.863,2.061,2.061,0,0,1-.336-1.164,2.336,2.336,0,0,1,.961-1.918,3.958,3.958,0,0,1,2.516-.754,4.386,4.386,0,0,1,2.688.758,2.37,2.37,0,0,1,1.016,1.992H47.09q0-1.016-1.07-1.016a1.061,1.061,0,0,0-.7.23.714.714,0,0,0-.281.574.655.655,0,0,0,.344.57,3.248,3.248,0,0,0,1.1.359,9.485,9.485,0,0,1,1.324.336,2.406,2.406,0,0,1,1.906,2.352,2.214,2.214,0,0,1-1.027,1.883,4.505,4.505,0,0,1-2.66.727,4.6,4.6,0,0,1-1.937-.391A3.24,3.24,0,0,1,42.762,15.7a2.406,2.406,0,0,1-.477-1.414h2.461a1.017,1.017,0,0,0,.391.855,1.607,1.607,0,0,0,.961.27,1.264,1.264,0,0,0,.809-.219A.7.7,0,0,0,47.176,14.625Zm11.133-1.312,1.406-4.766h2.82L59.09,18.414l-.148.359a2.617,2.617,0,0,1-2.594,1.641,4.111,4.111,0,0,1-1.086-.156V18.375h.344a1.8,1.8,0,0,0,.848-.16.972.972,0,0,0,.434-.574l.211-.562L54.16,8.547h2.813Zm8.563-.617a4.989,4.989,0,0,1,.492-2.254,3.52,3.52,0,0,1,1.414-1.52,4.259,4.259,0,0,1,2.164-.531,3.887,3.887,0,0,1,2.992,1.176,4.512,4.512,0,0,1,1.094,3.2v.094A4.378,4.378,0,0,1,73.93,16a3.9,3.9,0,0,1-2.973,1.16,3.942,3.942,0,0,1-2.9-1.082,4.232,4.232,0,0,1-1.18-2.934Zm2.633.164a3.145,3.145,0,0,0,.367,1.719,1.223,1.223,0,0,0,1.086.547q1.406,0,1.438-2.164V12.7q0-2.273-1.453-2.273-1.32,0-1.43,1.961Zm14.531-.016a5.152,5.152,0,0,1-.859,3.2,2.878,2.878,0,0,1-2.422,1.117,2.5,2.5,0,0,1-2.078-1.023L78.566,17H76.207V5H78.84V9.227a2.41,2.41,0,0,1,1.9-.836,2.879,2.879,0,0,1,2.438,1.133,5.179,5.179,0,0,1,.859,3.188Zm-2.641-.164a3.447,3.447,0,0,0-.324-1.738,1.092,1.092,0,0,0-1-.52,1.26,1.26,0,0,0-1.234.68v3.359a1.267,1.267,0,0,0,1.25.672,1.118,1.118,0,0,0,1.18-.906A6.518,6.518,0,0,0,81.395,12.68Zm6.633-4.133v8.742a3.068,3.068,0,0,1-.859,2.313,3.3,3.3,0,0,1-2.375.813,5.607,5.607,0,0,1-1.242-.133V18.289a5.037,5.037,0,0,0,.742.07.963.963,0,0,0,1.094-1.086V8.547Zm-2.836-2.18a1.175,1.175,0,0,1,.406-.922,1.727,1.727,0,0,1,2.109,0,1.175,1.175,0,0,1,.406.922,1.175,1.175,0,0,1-.406.922,1.727,1.727,0,0,1-2.109,0A1.175,1.175,0,0,1,85.191,6.367Zm8.414,10.789A4.345,4.345,0,0,1,90.457,16a4.006,4.006,0,0,1-1.2-3.02v-.219a5.191,5.191,0,0,1,.48-2.289,3.516,3.516,0,0,1,1.4-1.535,4.233,4.233,0,0,1,2.188-.543A3.659,3.659,0,0,1,96.137,9.5a4.344,4.344,0,0,1,1.031,3.082V13.6H91.934a1.9,1.9,0,0,0,.617,1.117,1.836,1.836,0,0,0,1.234.406,2.366,2.366,0,0,0,1.953-.875l1.2,1.422a3.363,3.363,0,0,1-1.395,1.082A4.713,4.713,0,0,1,93.605,17.156Zm-.3-6.734q-1.156,0-1.375,1.531H94.59v-.2a1.3,1.3,0,0,0-.32-.98A1.275,1.275,0,0,0,93.309,10.422Zm7.984-3.977v2.1h1.391v1.828h-1.391v3.867a.987.987,0,0,0,.172.664.922.922,0,0,0,.68.188,3.862,3.862,0,0,0,.656-.047V16.93a4.859,4.859,0,0,1-1.484.227,2.758,2.758,0,0,1-2.008-.641,2.626,2.626,0,0,1-.648-1.945v-4.2H97.582V8.547H98.66v-2.1ZM106.5,17h-2.641V8.547H106.5ZM103.7,6.367a1.175,1.175,0,0,1,.406-.922,1.727,1.727,0,0,1,2.109,0,1.175,1.175,0,0,1,.406.922,1.175,1.175,0,0,1-.406.922,1.727,1.727,0,0,1-2.109,0A1.175,1.175,0,0,1,103.7,6.367Zm7.789,7.5,1.336-5.32H115.6L112.84,17h-2.687l-2.758-8.453h2.781Zm4.445-1.172a4.989,4.989,0,0,1,.492-2.254,3.52,3.52,0,0,1,1.414-1.52A4.259,4.259,0,0,1,120,8.391,3.887,3.887,0,0,1,123,9.566a4.512,4.512,0,0,1,1.094,3.2v.094a4.378,4.378,0,0,1-1.1,3.137,3.9,3.9,0,0,1-2.973,1.16,3.942,3.942,0,0,1-2.9-1.082,4.232,4.232,0,0,1-1.18-2.934Zm2.633.164a3.145,3.145,0,0,0,.367,1.719,1.223,1.223,0,0,0,1.086.547q1.406,0,1.438-2.164V12.7q0-2.273-1.453-2.273-1.32,0-1.43,1.961Zm11.109,1.766a.608.608,0,0,0-.352-.539,5.348,5.348,0,0,0-1.336-.422,6.092,6.092,0,0,1-1.625-.574,2.722,2.722,0,0,1-.977-.863,2.061,2.061,0,0,1-.336-1.164,2.336,2.336,0,0,1,.961-1.918,3.958,3.958,0,0,1,2.516-.754,4.386,4.386,0,0,1,2.688.758,2.37,2.37,0,0,1,1.016,1.992H129.59q0-1.016-1.07-1.016a1.061,1.061,0,0,0-.7.23.714.714,0,0,0-.281.574.655.655,0,0,0,.344.57,3.248,3.248,0,0,0,1.1.359,9.485,9.485,0,0,1,1.324.336,2.406,2.406,0,0,1,1.906,2.352,2.214,2.214,0,0,1-1.027,1.883,4.505,4.505,0,0,1-2.66.727,4.6,4.6,0,0,1-1.937-.391,3.24,3.24,0,0,1-1.328-1.062,2.406,2.406,0,0,1-.477-1.414h2.461a1.017,1.017,0,0,0,.391.855,1.607,1.607,0,0,0,.961.27,1.264,1.264,0,0,0,.809-.219A.7.7,0,0,0,129.676,14.625ZM14.078,36.711a5.164,5.164,0,0,1,.867-3.164,2.854,2.854,0,0,1,2.422-1.156,2.428,2.428,0,0,1,1.906.891V29h2.641V41H19.547l-.133-.906a2.493,2.493,0,0,1-2.062,1.063A2.849,2.849,0,0,1,14.961,40,5.327,5.327,0,0,1,14.078,36.711Zm2.633.164q0,2.25,1.313,2.25a1.3,1.3,0,0,0,1.25-.734V35.172a1.261,1.261,0,0,0-1.234-.75q-1.219,0-1.32,1.969ZM27.5,41.156A4.345,4.345,0,0,1,24.352,40a4.006,4.006,0,0,1-1.2-3.02v-.219a5.191,5.191,0,0,1,.48-2.289,3.516,3.516,0,0,1,1.4-1.535,4.233,4.233,0,0,1,2.188-.543A3.659,3.659,0,0,1,30.031,33.5a4.344,4.344,0,0,1,1.031,3.082V37.6H25.828a1.9,1.9,0,0,0,.617,1.117,1.836,1.836,0,0,0,1.234.406,2.366,2.366,0,0,0,1.953-.875l1.2,1.422a3.363,3.363,0,0,1-1.395,1.082A4.713,4.713,0,0,1,27.5,41.156Zm-.3-6.734q-1.156,0-1.375,1.531h2.656v-.2a1.3,1.3,0,0,0-.32-.98A1.275,1.275,0,0,0,27.2,34.422ZM38.883,41H36.242V29h2.641Zm6.383,0a2.973,2.973,0,0,1-.25-.758,2.448,2.448,0,0,1-2.031.914,3,3,0,0,1-2.031-.723,2.3,2.3,0,0,1-.836-1.816,2.364,2.364,0,0,1,1.016-2.078,5.174,5.174,0,0,1,2.953-.7H44.9v-.445q0-1.164-1.008-1.164a.822.822,0,0,0-.937.922H40.32a2.364,2.364,0,0,1,1.043-1.992,4.379,4.379,0,0,1,2.66-.766,3.843,3.843,0,0,1,2.555.789,2.743,2.743,0,0,1,.961,2.164v3.742a3.832,3.832,0,0,0,.359,1.781V41Zm-1.648-1.719a1.469,1.469,0,0,0,.816-.211,1.322,1.322,0,0,0,.465-.477V37.242h-.766q-1.375,0-1.375,1.234a.754.754,0,0,0,.242.582A.876.876,0,0,0,43.617,39.281Zm13.789-.656a.608.608,0,0,0-.352-.539,5.347,5.347,0,0,0-1.336-.422,6.092,6.092,0,0,1-1.625-.574,2.722,2.722,0,0,1-.977-.863,2.061,2.061,0,0,1-.336-1.164,2.336,2.336,0,0,1,.961-1.918,3.958,3.958,0,0,1,2.516-.754,4.386,4.386,0,0,1,2.688.758,2.37,2.37,0,0,1,1.016,1.992H57.32q0-1.016-1.07-1.016a1.061,1.061,0,0,0-.7.23.714.714,0,0,0-.281.574.655.655,0,0,0,.344.57,3.248,3.248,0,0,0,1.1.359,9.486,9.486,0,0,1,1.324.336,2.406,2.406,0,0,1,1.906,2.352,2.214,2.214,0,0,1-1.027,1.883,4.505,4.505,0,0,1-2.66.727,4.6,4.6,0,0,1-1.937-.391A3.24,3.24,0,0,1,52.992,39.7a2.406,2.406,0,0,1-.477-1.414h2.461a1.017,1.017,0,0,0,.391.855,1.607,1.607,0,0,0,.961.27,1.264,1.264,0,0,0,.809-.219A.7.7,0,0,0,57.406,38.625Zm7.859,2.531A4.345,4.345,0,0,1,62.117,40a4.006,4.006,0,0,1-1.2-3.02v-.219a5.191,5.191,0,0,1,.48-2.289,3.516,3.516,0,0,1,1.4-1.535,4.233,4.233,0,0,1,2.188-.543A3.659,3.659,0,0,1,67.8,33.5a4.344,4.344,0,0,1,1.031,3.082V37.6H63.594a1.9,1.9,0,0,0,.617,1.117,1.836,1.836,0,0,0,1.234.406A2.366,2.366,0,0,0,67.4,38.25l1.2,1.422a3.363,3.363,0,0,1-1.395,1.082A4.713,4.713,0,0,1,65.266,41.156Zm-.3-6.734q-1.156,0-1.375,1.531H66.25v-.2a1.3,1.3,0,0,0-.32-.98A1.275,1.275,0,0,0,64.969,34.422Zm4.609,2.289A5.708,5.708,0,0,1,70,34.445a3.4,3.4,0,0,1,1.211-1.52,3.192,3.192,0,0,1,1.836-.535,2.538,2.538,0,0,1,2.063.891l.094-.734h2.391V40.68a3.564,3.564,0,0,1-.52,1.941,3.334,3.334,0,0,1-1.5,1.266,5.528,5.528,0,0,1-2.281.441,4.769,4.769,0,0,1-1.8-.352,3.251,3.251,0,0,1-1.332-.914l1.1-1.547a2.414,2.414,0,0,0,1.938.867,1.568,1.568,0,0,0,1.75-1.8V40.32a2.472,2.472,0,0,1-1.914.836,3.055,3.055,0,0,1-2.5-1.184,4.9,4.9,0,0,1-.953-3.168Zm2.641.164a3.007,3.007,0,0,0,.391,1.645,1.232,1.232,0,0,0,1.094.605,1.4,1.4,0,0,0,1.242-.57V35a1.363,1.363,0,0,0-1.227-.578,1.241,1.241,0,0,0-1.1.629A3.429,3.429,0,0,0,72.219,36.875Zm11.906,3.211a2.714,2.714,0,0,1-2.258,1.07,2.662,2.662,0,0,1-2.105-.809,3.4,3.4,0,0,1-.715-2.324V32.547H81.68v5.492a.946.946,0,0,0,1.055,1.086,1.376,1.376,0,0,0,1.289-.648v-5.93h2.648V41H84.2Zm9.1-5.156-.867-.062a1.558,1.558,0,0,0-1.594.781V41H88.133V32.547H90.6l.086,1.086a2.039,2.039,0,0,1,1.852-1.242,2.567,2.567,0,0,1,.734.094ZM96.953,41H94.313V32.547h2.641Zm-2.8-10.633a1.175,1.175,0,0,1,.406-.922,1.727,1.727,0,0,1,2.109,0,1.249,1.249,0,0,1,0,1.844,1.727,1.727,0,0,1-2.109,0A1.175,1.175,0,0,1,94.156,30.367Zm4.086,6.344a5.164,5.164,0,0,1,.867-3.164,2.854,2.854,0,0,1,2.422-1.156,2.428,2.428,0,0,1,1.906.891V29h2.641V41h-2.367l-.133-.906a2.493,2.493,0,0,1-2.062,1.063A2.849,2.849,0,0,1,99.125,40,5.327,5.327,0,0,1,98.242,36.711Zm2.633.164q0,2.25,1.313,2.25a1.3,1.3,0,0,0,1.25-.734V35.172a1.261,1.261,0,0,0-1.234-.75q-1.219,0-1.32,1.969ZM112.336,41a2.973,2.973,0,0,1-.25-.758,2.448,2.448,0,0,1-2.031.914,3,3,0,0,1-2.031-.723,2.3,2.3,0,0,1-.836-1.816,2.364,2.364,0,0,1,1.016-2.078,5.174,5.174,0,0,1,2.953-.7h.813v-.445q0-1.164-1.008-1.164a.822.822,0,0,0-.937.922h-2.633a2.364,2.364,0,0,1,1.043-1.992,4.379,4.379,0,0,1,2.66-.766,3.843,3.843,0,0,1,2.555.789,2.743,2.743,0,0,1,.961,2.164v3.742a3.832,3.832,0,0,0,.359,1.781V41Zm-1.648-1.719a1.469,1.469,0,0,0,.816-.211,1.322,1.322,0,0,0,.465-.477V37.242H111.2q-1.375,0-1.375,1.234a.754.754,0,0,0,.242.582A.876.876,0,0,0,110.688,39.281Zm5.047-2.57a5.164,5.164,0,0,1,.867-3.164,2.854,2.854,0,0,1,2.422-1.156,2.428,2.428,0,0,1,1.906.891V29h2.641V41H121.2l-.133-.906a2.493,2.493,0,0,1-2.062,1.063A2.849,2.849,0,0,1,116.617,40,5.327,5.327,0,0,1,115.734,36.711Zm2.633.164q0,2.25,1.313,2.25a1.3,1.3,0,0,0,1.25-.734V35.172a1.261,1.261,0,0,0-1.234-.75q-1.219,0-1.32,1.969Z" transform="translate(1026 4074)" fill="#12263f"/>
      <path id="Trazado_266923" data-name="Trazado 266923" d="M-4494-7567v135.5h71" transform="translate(4989 11700)" fill="none" stroke="#005ca8" stroke-width="3"/>
      <path id="Trazado_266924" data-name="Trazado 266924" d="M-3895.8-7567v135.5H-3955" transform="translate(4990.8 11700)" fill="none" stroke="#005ca8" stroke-width="3"/>
      <line id="Línea_175" data-name="Línea 175" y2="99" transform="translate(800.5 4133.5)" fill="none" stroke="#005ca8" stroke-width="3"/>
      <line id="Línea_176" data-name="Línea 176" y2="107" transform="translate(800.5 4297)" fill="none" stroke="#005ca8" stroke-width="3"/>
      <line id="Línea_178" data-name="Línea 178" y2="135" transform="translate(1063.5 4525)" fill="none" stroke="#005ca8" stroke-width="3"/>
      <g id="Grupo_879081" data-name="Grupo 879081" transform="translate(59 -105)">
        <rect id="Rectángulo_75124" data-name="Rectángulo 75124" width="230" height="41" transform="translate(626 4268)" fill="#faf8ff"/>
        <path id="Trazado_272543" data-name="Trazado 272543" d="M-80.5,0V-11.375h3.211a5.169,5.169,0,0,1,2.625.656A4.438,4.438,0,0,1-72.9-8.852,6.078,6.078,0,0,1-72.27-6.07v.727a6.1,6.1,0,0,1-.621,2.82A4.369,4.369,0,0,1-74.664-.664,5.5,5.5,0,0,1-77.348,0ZM-79-10.141v8.914h1.578a3.435,3.435,0,0,0,2.7-1.078,4.452,4.452,0,0,0,.965-3.07v-.664a4.522,4.522,0,0,0-.91-3.012,3.24,3.24,0,0,0-2.582-1.09ZM-66.723.156a3.693,3.693,0,0,1-2.8-1.129A4.19,4.19,0,0,1-70.6-3.992v-.266a5.073,5.073,0,0,1,.48-2.246,3.748,3.748,0,0,1,1.344-1.547A3.378,3.378,0,0,1-66.9-8.609,3.166,3.166,0,0,1-64.34-7.523a4.7,4.7,0,0,1,.914,3.109v.6h-5.727a3,3,0,0,0,.73,2.02,2.3,2.3,0,0,0,1.777.77,2.517,2.517,0,0,0,1.3-.312,3.259,3.259,0,0,0,.93-.828l.883.688A3.55,3.55,0,0,1-66.723.156Zm-.18-7.578a1.928,1.928,0,0,0-1.469.637A3.1,3.1,0,0,0-69.105-5h4.234v-.109a2.753,2.753,0,0,0-.594-1.707A1.815,1.815,0,0,0-66.9-7.422ZM-61.27,0V-7.336h-1.336V-8.453h1.336v-.719a2.937,2.937,0,0,1,.809-2.2,3.136,3.136,0,0,1,2.285-.789,6.881,6.881,0,0,1,2.211.477l-.242,1.219a5.008,5.008,0,0,0-1.859-.391,1.819,1.819,0,0,0-1.34.418,1.723,1.723,0,0,0-.41,1.254v.734h1.727v1.117h-1.727V0Zm6.023,0H-56.7V-8.453h1.453Zm3.719-8.453.047,1.063a3.08,3.08,0,0,1,2.531-1.219q2.68,0,2.7,3.023V0h-1.445V-5.594a1.946,1.946,0,0,0-.418-1.352,1.675,1.675,0,0,0-1.277-.437,2.086,2.086,0,0,0-1.234.375,2.546,2.546,0,0,0-.828.984V0h-1.445V-8.453ZM-40.559.156a3.693,3.693,0,0,1-2.8-1.129,4.19,4.19,0,0,1-1.078-3.02v-.266a5.073,5.073,0,0,1,.48-2.246,3.748,3.748,0,0,1,1.344-1.547,3.378,3.378,0,0,1,1.871-.559,3.166,3.166,0,0,1,2.563,1.086,4.7,4.7,0,0,1,.914,3.109v.6h-5.727a3,3,0,0,0,.73,2.02,2.3,2.3,0,0,0,1.777.77,2.517,2.517,0,0,0,1.3-.312,3.259,3.259,0,0,0,.93-.828l.883.688A3.55,3.55,0,0,1-40.559.156Zm-.18-7.578a1.928,1.928,0,0,0-1.469.637A3.1,3.1,0,0,0-42.941-5h4.234v-.109A2.753,2.753,0,0,0-39.3-6.816,1.815,1.815,0,0,0-40.738-7.422Zm6.516-1.031.047,1.063a3.08,3.08,0,0,1,2.531-1.219q2.68,0,2.7,3.023V0h-1.445V-5.594A1.946,1.946,0,0,0-30.8-6.945a1.675,1.675,0,0,0-1.277-.437,2.086,2.086,0,0,0-1.234.375,2.546,2.546,0,0,0-.828.984V0H-35.59V-8.453Zm15.508,1.3a4.331,4.331,0,0,0-.711-.055A1.9,1.9,0,0,0-21.355-6V0H-22.8V-8.453h1.406l.023.977a2.251,2.251,0,0,1,2.016-1.133,1.477,1.477,0,0,1,.641.109ZM-13.879.156a3.693,3.693,0,0,1-2.8-1.129,4.19,4.19,0,0,1-1.078-3.02v-.266a5.073,5.073,0,0,1,.48-2.246A3.748,3.748,0,0,1-15.93-8.051a3.378,3.378,0,0,1,1.871-.559A3.166,3.166,0,0,1-11.5-7.523a4.7,4.7,0,0,1,.914,3.109v.6h-5.727a3,3,0,0,0,.73,2.02,2.3,2.3,0,0,0,1.777.77,2.517,2.517,0,0,0,1.3-.312,3.259,3.259,0,0,0,.93-.828l.883.688A3.55,3.55,0,0,1-13.879.156Zm-.18-7.578a1.928,1.928,0,0,0-1.469.637A3.1,3.1,0,0,0-16.262-5h4.234v-.109a2.753,2.753,0,0,0-.594-1.707A1.815,1.815,0,0,0-14.059-7.422Zm4.8,3.125a4.961,4.961,0,0,1,.914-3.152,2.962,2.962,0,0,1,2.453-1.16A2.96,2.96,0,0,1-3.527-7.6l.063-.852h1.328V3.25H-3.582V-.781A3.033,3.033,0,0,1-5.91.156,2.915,2.915,0,0,1-8.352-1.035a5.072,5.072,0,0,1-.91-3.16Zm1.445.164A3.761,3.761,0,0,0-7.2-1.852a1.951,1.951,0,0,0,1.652.828A2.164,2.164,0,0,0-3.582-2.164V-6.3A2.171,2.171,0,0,0-5.535-7.422,1.965,1.965,0,0,0-7.2-6.59,4.094,4.094,0,0,0-7.816-4.133ZM5.4-.836A3.07,3.07,0,0,1,2.926.156,2.628,2.628,0,0,1,.867-.629,3.4,3.4,0,0,1,.152-2.953v-5.5H1.6v5.461Q1.6-1.07,3.16-1.07A2.163,2.163,0,0,0,5.363-2.3V-8.453H6.809V0H5.434ZM10.574,0H9.129V-8.453h1.445ZM9.012-10.7a.863.863,0,0,1,.215-.594.807.807,0,0,1,.637-.242.819.819,0,0,1,.641.242.854.854,0,0,1,.219.594.826.826,0,0,1-.219.586.834.834,0,0,1-.641.234.821.821,0,0,1-.637-.234A.834.834,0,0,1,9.012-10.7Zm8.8,8.453a1.064,1.064,0,0,0-.441-.91,4.249,4.249,0,0,0-1.539-.559,7.277,7.277,0,0,1-1.742-.562,2.479,2.479,0,0,1-.953-.781,1.869,1.869,0,0,1-.309-1.078A2.193,2.193,0,0,1,13.7-7.891a3.432,3.432,0,0,1,2.246-.719,3.532,3.532,0,0,1,2.332.742,2.357,2.357,0,0,1,.895,1.9H17.723a1.3,1.3,0,0,0-.5-1.023,1.888,1.888,0,0,0-1.27-.43,1.976,1.976,0,0,0-1.234.344,1.082,1.082,0,0,0-.445.9.877.877,0,0,0,.414.789,5.1,5.1,0,0,0,1.5.508,7.8,7.8,0,0,1,1.754.578,2.558,2.558,0,0,1,1,.809,1.988,1.988,0,0,1,.324,1.152,2.163,2.163,0,0,1-.906,1.816A3.8,3.8,0,0,1,16,.156,4.257,4.257,0,0,1,14.2-.2a2.922,2.922,0,0,1-1.223-1A2.42,2.42,0,0,1,12.535-2.6H13.98a1.5,1.5,0,0,0,.582,1.152A2.258,2.258,0,0,0,16-1.023a2.331,2.331,0,0,0,1.316-.332A1.02,1.02,0,0,0,17.809-2.242ZM22.707,0H21.262V-8.453h1.445ZM21.145-10.7a.863.863,0,0,1,.215-.594A.807.807,0,0,1,22-11.531a.819.819,0,0,1,.641.242.854.854,0,0,1,.219.594.826.826,0,0,1-.219.586A.834.834,0,0,1,22-9.875a.821.821,0,0,1-.637-.234A.834.834,0,0,1,21.145-10.7Zm5.836.2v2.047h1.578v1.117H26.98v5.242a1.171,1.171,0,0,0,.211.762.888.888,0,0,0,.719.254,3.5,3.5,0,0,0,.688-.094V0a4.19,4.19,0,0,1-1.109.156A1.8,1.8,0,0,1,26.027-.43a2.517,2.517,0,0,1-.492-1.664V-7.336H24V-8.453h1.539V-10.5Zm2.727,6.2A4.993,4.993,0,0,1,30.2-6.539,3.643,3.643,0,0,1,31.555-8.07a3.7,3.7,0,0,1,1.988-.539,3.565,3.565,0,0,1,2.793,1.2A4.6,4.6,0,0,1,37.4-4.234v.1a5.036,5.036,0,0,1-.473,2.215A3.589,3.589,0,0,1,35.578-.391a3.743,3.743,0,0,1-2.02.547,3.556,3.556,0,0,1-2.785-1.2A4.575,4.575,0,0,1,29.707-4.2Zm1.453.172a3.616,3.616,0,0,0,.652,2.258,2.088,2.088,0,0,0,1.746.852,2.075,2.075,0,0,0,1.75-.863A3.955,3.955,0,0,0,35.957-4.3a3.61,3.61,0,0,0-.66-2.254,2.1,2.1,0,0,0-1.754-.863,2.075,2.075,0,0,0-1.727.852A3.925,3.925,0,0,0,31.16-4.133ZM44.137-2.242a1.064,1.064,0,0,0-.441-.91,4.249,4.249,0,0,0-1.539-.559,7.277,7.277,0,0,1-1.742-.562,2.479,2.479,0,0,1-.953-.781,1.869,1.869,0,0,1-.309-1.078,2.193,2.193,0,0,1,.879-1.758,3.432,3.432,0,0,1,2.246-.719,3.532,3.532,0,0,1,2.332.742,2.357,2.357,0,0,1,.895,1.9H44.051a1.3,1.3,0,0,0-.5-1.023,1.888,1.888,0,0,0-1.27-.43,1.976,1.976,0,0,0-1.234.344,1.082,1.082,0,0,0-.445.9.877.877,0,0,0,.414.789,5.1,5.1,0,0,0,1.5.508,7.8,7.8,0,0,1,1.754.578,2.558,2.558,0,0,1,1,.809,1.988,1.988,0,0,1,.324,1.152,2.163,2.163,0,0,1-.906,1.816,3.8,3.8,0,0,1-2.352.684,4.257,4.257,0,0,1-1.8-.359,2.922,2.922,0,0,1-1.223-1A2.42,2.42,0,0,1,38.863-2.6h1.445a1.5,1.5,0,0,0,.582,1.152,2.258,2.258,0,0,0,1.434.426,2.331,2.331,0,0,0,1.316-.332A1.02,1.02,0,0,0,44.137-2.242Zm14.43-1.891a5.062,5.062,0,0,1-.883,3.109A2.829,2.829,0,0,1,55.293.156,3.1,3.1,0,0,1,52.871-.82V3.25H51.426v-11.7h1.32l.07.938A2.977,2.977,0,0,1,55.27-8.609a2.882,2.882,0,0,1,2.41,1.148,5.117,5.117,0,0,1,.887,3.2ZM57.121-4.3a3.735,3.735,0,0,0-.609-2.258,1.963,1.963,0,0,0-1.672-.828,2.125,2.125,0,0,0-1.969,1.164V-2.18a2.129,2.129,0,0,0,1.984,1.156,1.954,1.954,0,0,0,1.652-.824A4.077,4.077,0,0,0,57.121-4.3Zm8.5,4.3a3.036,3.036,0,0,1-.2-.891A3.225,3.225,0,0,1,63.012.156a2.984,2.984,0,0,1-2.051-.707,2.287,2.287,0,0,1-.8-1.793,2.39,2.39,0,0,1,1-2.051,4.733,4.733,0,0,1,2.824-.73h1.406v-.664A1.623,1.623,0,0,0,64.941-7a1.821,1.821,0,0,0-1.336-.449,2.107,2.107,0,0,0-1.3.391,1.151,1.151,0,0,0-.523.945H60.332a2,2,0,0,1,.449-1.223A3.066,3.066,0,0,1,62-8.266a4.1,4.1,0,0,1,1.691-.344,3.342,3.342,0,0,1,2.289.73,2.635,2.635,0,0,1,.859,2.012v3.891a4.757,4.757,0,0,0,.3,1.852V0Zm-2.4-1.1a2.54,2.54,0,0,0,1.289-.352,2.127,2.127,0,0,0,.883-.914V-4.1H64.262q-2.656,0-2.656,1.555a1.316,1.316,0,0,0,.453,1.063A1.742,1.742,0,0,0,63.223-1.1Zm9.969-6.055a4.331,4.331,0,0,0-.711-.055A1.9,1.9,0,0,0,70.551-6V0H69.105V-8.453h1.406l.023.977a2.251,2.251,0,0,1,2.016-1.133,1.477,1.477,0,0,1,.641.109ZM79.426,0a3.036,3.036,0,0,1-.2-.891A3.225,3.225,0,0,1,76.816.156a2.984,2.984,0,0,1-2.051-.707,2.288,2.288,0,0,1-.8-1.793,2.39,2.39,0,0,1,1-2.051,4.733,4.733,0,0,1,2.824-.73H79.2v-.664A1.623,1.623,0,0,0,78.746-7a1.821,1.821,0,0,0-1.336-.449,2.108,2.108,0,0,0-1.3.391,1.151,1.151,0,0,0-.523.945H74.137a2,2,0,0,1,.449-1.223A3.066,3.066,0,0,1,75.8-8.266,4.1,4.1,0,0,1,77.5-8.609a3.342,3.342,0,0,1,2.289.73,2.635,2.635,0,0,1,.859,2.012v3.891a4.757,4.757,0,0,0,.3,1.852V0Zm-2.4-1.1a2.54,2.54,0,0,0,1.289-.352,2.127,2.127,0,0,0,.883-.914V-4.1H78.066q-2.656,0-2.656,1.555a1.316,1.316,0,0,0,.453,1.063A1.742,1.742,0,0,0,77.027-1.1Z" transform="translate(741 4294)" fill="#12263f"/>
      </g>
      <g id="Grupo_879082" data-name="Grupo 879082" transform="translate(59 62)">
        <rect id="Rectángulo_75124-2" data-name="Rectángulo 75124" width="230" height="41" transform="translate(626 4268)" fill="#faf8ff"/>
        <path id="Trazado_272545" data-name="Trazado 272545" d="M-61.641-5.07a7.053,7.053,0,0,1-2.809-1.363,2.6,2.6,0,0,1-.879-2,2.751,2.751,0,0,1,1.074-2.223,4.269,4.269,0,0,1,2.793-.879,4.66,4.66,0,0,1,2.09.453,3.436,3.436,0,0,1,1.422,1.25,3.2,3.2,0,0,1,.5,1.742h-1.508a2.069,2.069,0,0,0-.656-1.621,2.675,2.675,0,0,0-1.852-.59,2.736,2.736,0,0,0-1.73.488,1.628,1.628,0,0,0-.621,1.355,1.465,1.465,0,0,0,.59,1.176,5.79,5.79,0,0,0,2.008.879A9.3,9.3,0,0,1-59-5.52,3.367,3.367,0,0,1-57.809-4.4a2.861,2.861,0,0,1,.387,1.508A2.658,2.658,0,0,1-58.5-.676a4.6,4.6,0,0,1-2.883.832A5.347,5.347,0,0,1-63.57-.293a3.681,3.681,0,0,1-1.566-1.23A3,3,0,0,1-65.687-3.3h1.508a1.959,1.959,0,0,0,.762,1.629,3.207,3.207,0,0,0,2.035.6,2.948,2.948,0,0,0,1.82-.484,1.573,1.573,0,0,0,.633-1.32,1.545,1.545,0,0,0-.586-1.293A6.755,6.755,0,0,0-61.641-5.07ZM-52.219.156a3.693,3.693,0,0,1-2.8-1.129,4.19,4.19,0,0,1-1.078-3.02v-.266a5.073,5.073,0,0,1,.48-2.246A3.748,3.748,0,0,1-54.27-8.051,3.378,3.378,0,0,1-52.4-8.609a3.166,3.166,0,0,1,2.563,1.086,4.7,4.7,0,0,1,.914,3.109v.6h-5.727a3,3,0,0,0,.73,2.02,2.3,2.3,0,0,0,1.777.77,2.517,2.517,0,0,0,1.3-.312,3.259,3.259,0,0,0,.93-.828l.883.688A3.55,3.55,0,0,1-52.219.156Zm-.18-7.578a1.928,1.928,0,0,0-1.469.637A3.1,3.1,0,0,0-54.6-5h4.234v-.109a2.753,2.753,0,0,0-.594-1.707A1.815,1.815,0,0,0-52.4-7.422ZM-43.641-4.3a4.952,4.952,0,0,1,.922-3.129A2.915,2.915,0,0,1-40.3-8.609a2.932,2.932,0,0,1,2.352,1.016V-12h1.445V0h-1.328l-.07-.906A2.943,2.943,0,0,1-40.32.156a2.887,2.887,0,0,1-2.395-1.2,5.008,5.008,0,0,1-.926-3.141Zm1.445.164a3.749,3.749,0,0,0,.594,2.25,1.92,1.92,0,0,0,1.641.813A2.108,2.108,0,0,0-37.953-2.3V-6.187a2.125,2.125,0,0,0-1.992-1.2,1.929,1.929,0,0,0-1.656.82A4.128,4.128,0,0,0-42.2-4.133Zm7.547-.172a4.993,4.993,0,0,1,.488-2.234A3.643,3.643,0,0,1-32.8-8.07a3.7,3.7,0,0,1,1.988-.539,3.565,3.565,0,0,1,2.793,1.2,4.6,4.6,0,0,1,1.066,3.18v.1a5.036,5.036,0,0,1-.473,2.215A3.589,3.589,0,0,1-28.777-.391,3.743,3.743,0,0,1-30.8.156a3.556,3.556,0,0,1-2.785-1.2A4.575,4.575,0,0,1-34.648-4.2Zm1.453.172a3.616,3.616,0,0,0,.652,2.258,2.088,2.088,0,0,0,1.746.852,2.075,2.075,0,0,0,1.75-.863A3.955,3.955,0,0,0-28.4-4.3a3.61,3.61,0,0,0-.66-2.254,2.1,2.1,0,0,0-1.754-.863,2.075,2.075,0,0,0-1.727.852A3.925,3.925,0,0,0-33.2-4.133ZM-21.75-1.023A2.082,2.082,0,0,0-20.4-1.492a1.649,1.649,0,0,0,.641-1.172h1.367a2.621,2.621,0,0,1-.5,1.383,3.293,3.293,0,0,1-1.23,1.047A3.55,3.55,0,0,1-21.75.156,3.482,3.482,0,0,1-24.5-1a4.59,4.59,0,0,1-1.02-3.152v-.242a5.089,5.089,0,0,1,.453-2.2,3.451,3.451,0,0,1,1.3-1.492,3.7,3.7,0,0,1,2-.531,3.39,3.39,0,0,1,2.363.852,3.043,3.043,0,0,1,1,2.211h-1.367a1.992,1.992,0,0,0-.621-1.348,1.932,1.932,0,0,0-1.379-.527,2.023,2.023,0,0,0-1.707.793,3.724,3.724,0,0,0-.605,2.293v.273a3.65,3.65,0,0,0,.6,2.25A2.033,2.033,0,0,0-21.75-1.023Zm10.2.188a3.07,3.07,0,0,1-2.477.992,2.628,2.628,0,0,1-2.059-.785A3.4,3.4,0,0,1-16.8-2.953v-5.5h1.445v5.461q0,1.922,1.563,1.922a2.163,2.163,0,0,0,2.2-1.234V-8.453h1.445V0h-1.375Zm4.961-7.617.039.938A3.122,3.122,0,0,1-4.039-8.609,2.417,2.417,0,0,1-1.625-7.25a3.2,3.2,0,0,1,1.1-.984,3.242,3.242,0,0,1,1.6-.375q2.781,0,2.828,2.945V0H2.453V-5.578a1.941,1.941,0,0,0-.414-1.355A1.823,1.823,0,0,0,.648-7.383,1.916,1.916,0,0,0-.687-6.9,1.949,1.949,0,0,0-1.3-5.609V0H-2.758V-5.539a1.613,1.613,0,0,0-1.8-1.844A1.934,1.934,0,0,0-6.508-6.172V0H-7.953V-8.453ZM9.586.156a3.693,3.693,0,0,1-2.8-1.129,4.19,4.19,0,0,1-1.078-3.02v-.266A5.073,5.073,0,0,1,6.191-6.5,3.748,3.748,0,0,1,7.535-8.051a3.378,3.378,0,0,1,1.871-.559,3.166,3.166,0,0,1,2.563,1.086,4.7,4.7,0,0,1,.914,3.109v.6H7.156a3,3,0,0,0,.73,2.02,2.3,2.3,0,0,0,1.777.77,2.517,2.517,0,0,0,1.3-.312,3.259,3.259,0,0,0,.93-.828l.883.688A3.55,3.55,0,0,1,9.586.156Zm-.18-7.578a1.928,1.928,0,0,0-1.469.637A3.1,3.1,0,0,0,7.2-5h4.234v-.109a2.753,2.753,0,0,0-.594-1.707A1.815,1.815,0,0,0,9.406-7.422Zm6.516-1.031.047,1.063A3.08,3.08,0,0,1,18.5-8.609q2.68,0,2.7,3.023V0H19.758V-5.594a1.946,1.946,0,0,0-.418-1.352,1.675,1.675,0,0,0-1.277-.437,2.086,2.086,0,0,0-1.234.375A2.546,2.546,0,0,0,16-6.023V0H14.555V-8.453ZM25.344-10.5v2.047h1.578v1.117H25.344v5.242a1.171,1.171,0,0,0,.211.762.888.888,0,0,0,.719.254,3.5,3.5,0,0,0,.688-.094V0a4.19,4.19,0,0,1-1.109.156A1.8,1.8,0,0,1,24.391-.43,2.517,2.517,0,0,1,23.9-2.094V-7.336H22.359V-8.453H23.9V-10.5ZM33.828,0a3.036,3.036,0,0,1-.2-.891A3.225,3.225,0,0,1,31.219.156a2.984,2.984,0,0,1-2.051-.707,2.287,2.287,0,0,1-.8-1.793,2.39,2.39,0,0,1,1-2.051,4.733,4.733,0,0,1,2.824-.73H33.6v-.664A1.623,1.623,0,0,0,33.148-7a1.821,1.821,0,0,0-1.336-.449,2.108,2.108,0,0,0-1.3.391,1.151,1.151,0,0,0-.523.945H28.539a2,2,0,0,1,.449-1.223,3.066,3.066,0,0,1,1.219-.934A4.1,4.1,0,0,1,31.9-8.609a3.342,3.342,0,0,1,2.289.73,2.635,2.635,0,0,1,.859,2.012v3.891a4.757,4.757,0,0,0,.3,1.852V0Zm-2.4-1.1a2.54,2.54,0,0,0,1.289-.352,2.127,2.127,0,0,0,.883-.914V-4.1H32.469q-2.656,0-2.656,1.555a1.316,1.316,0,0,0,.453,1.063A1.742,1.742,0,0,0,31.43-1.1Zm7.25-7.352.047,1.063a3.08,3.08,0,0,1,2.531-1.219q2.68,0,2.7,3.023V0H42.516V-5.594A1.946,1.946,0,0,0,42.1-6.945a1.675,1.675,0,0,0-1.277-.437,2.086,2.086,0,0,0-1.234.375,2.546,2.546,0,0,0-.828.984V0H37.313V-8.453ZM53.609.156a3.693,3.693,0,0,1-2.8-1.129,4.19,4.19,0,0,1-1.078-3.02v-.266a5.073,5.073,0,0,1,.48-2.246,3.748,3.748,0,0,1,1.344-1.547,3.378,3.378,0,0,1,1.871-.559,3.166,3.166,0,0,1,2.563,1.086,4.7,4.7,0,0,1,.914,3.109v.6H51.18a3,3,0,0,0,.73,2.02,2.3,2.3,0,0,0,1.777.77,2.517,2.517,0,0,0,1.3-.312,3.259,3.259,0,0,0,.93-.828l.883.688A3.55,3.55,0,0,1,53.609.156Zm-.18-7.578a1.928,1.928,0,0,0-1.469.637A3.1,3.1,0,0,0,51.227-5h4.234v-.109a2.753,2.753,0,0,0-.594-1.707A1.815,1.815,0,0,0,53.43-7.422Zm6.516-1.031.047,1.063a3.08,3.08,0,0,1,2.531-1.219q2.68,0,2.7,3.023V0H63.781V-5.594a1.946,1.946,0,0,0-.418-1.352,1.675,1.675,0,0,0-1.277-.437,2.086,2.086,0,0,0-1.234.375,2.546,2.546,0,0,0-.828.984V0H58.578V-8.453Z" transform="translate(741 4294)" fill="#12263f"/>
      </g>
      <path id="Trazado_266925" data-name="Trazado 266925" d="M-4514-7248.083v-37.25h525v37.25" transform="translate(5051.5 11689.333)" fill="none" stroke="#005ca8" stroke-width="3"/>
      <path id="Trazado_266926" data-name="Trazado 266926" d="M-4514-7247.332v-38h379v38" transform="translate(5393 11907.332)" fill="none" stroke="#005ca8" stroke-width="3"/>
      <line id="Línea_177" data-name="Línea 177" x2="287" transform="translate(653.5 4487.5)" fill="none" stroke="#005ca8" stroke-width="3"/>
      <g id="Grupo_879083" data-name="Grupo 879083" transform="translate(59 199)">
        <rect id="Rectángulo_75124-3" data-name="Rectángulo 75124" width="132" height="41" transform="translate(675 4268)" fill="#faf8ff"/>
        <path id="Trazado_272547" data-name="Trazado 272547" d="M-40.875-5.07a7.053,7.053,0,0,1-2.809-1.363,2.6,2.6,0,0,1-.879-2,2.752,2.752,0,0,1,1.074-2.223,4.269,4.269,0,0,1,2.793-.879,4.66,4.66,0,0,1,2.09.453,3.436,3.436,0,0,1,1.422,1.25,3.2,3.2,0,0,1,.5,1.742h-1.508a2.069,2.069,0,0,0-.656-1.621A2.675,2.675,0,0,0-40.7-10.3a2.736,2.736,0,0,0-1.73.488,1.628,1.628,0,0,0-.621,1.355,1.465,1.465,0,0,0,.59,1.176,5.79,5.79,0,0,0,2.008.879,9.3,9.3,0,0,1,2.219.879A3.367,3.367,0,0,1-37.043-4.4a2.861,2.861,0,0,1,.387,1.508A2.658,2.658,0,0,1-37.734-.676a4.6,4.6,0,0,1-2.883.832A5.347,5.347,0,0,1-42.8-.293a3.681,3.681,0,0,1-1.566-1.23A3,3,0,0,1-44.922-3.3h1.508a1.959,1.959,0,0,0,.762,1.629,3.207,3.207,0,0,0,2.035.6,2.948,2.948,0,0,0,1.82-.484,1.573,1.573,0,0,0,.633-1.32,1.545,1.545,0,0,0-.586-1.293A6.755,6.755,0,0,0-40.875-5.07ZM-31.453.156a3.693,3.693,0,0,1-2.8-1.129,4.19,4.19,0,0,1-1.078-3.02v-.266a5.073,5.073,0,0,1,.48-2.246A3.748,3.748,0,0,1-33.5-8.051a3.378,3.378,0,0,1,1.871-.559A3.166,3.166,0,0,1-29.07-7.523a4.7,4.7,0,0,1,.914,3.109v.6h-5.727a3,3,0,0,0,.73,2.02,2.3,2.3,0,0,0,1.777.77,2.517,2.517,0,0,0,1.3-.312,3.259,3.259,0,0,0,.93-.828l.883.688A3.55,3.55,0,0,1-31.453.156Zm-.18-7.578a1.928,1.928,0,0,0-1.469.637A3.1,3.1,0,0,0-33.836-5H-29.6v-.109A2.753,2.753,0,0,0-30.2-6.816,1.815,1.815,0,0,0-31.633-7.422ZM-22.875-4.3a4.952,4.952,0,0,1,.922-3.129,2.915,2.915,0,0,1,2.414-1.184,2.932,2.932,0,0,1,2.352,1.016V-12h1.445V0H-17.07l-.07-.906A2.943,2.943,0,0,1-19.555.156a2.887,2.887,0,0,1-2.395-1.2,5.008,5.008,0,0,1-.926-3.141Zm1.445.164a3.749,3.749,0,0,0,.594,2.25A1.92,1.92,0,0,0-19.2-1.07,2.108,2.108,0,0,0-17.187-2.3V-6.187a2.125,2.125,0,0,0-1.992-1.2,1.929,1.929,0,0,0-1.656.82A4.128,4.128,0,0,0-21.43-4.133ZM-9.992.156a3.693,3.693,0,0,1-2.8-1.129,4.19,4.19,0,0,1-1.078-3.02v-.266a5.073,5.073,0,0,1,.48-2.246,3.748,3.748,0,0,1,1.344-1.547,3.378,3.378,0,0,1,1.871-.559A3.166,3.166,0,0,1-7.609-7.523,4.7,4.7,0,0,1-6.7-4.414v.6h-5.727a3,3,0,0,0,.73,2.02,2.3,2.3,0,0,0,1.777.77,2.517,2.517,0,0,0,1.3-.312,3.259,3.259,0,0,0,.93-.828l.883.688A3.55,3.55,0,0,1-9.992.156Zm-.18-7.578a1.928,1.928,0,0,0-1.469.637A3.1,3.1,0,0,0-12.375-5h4.234v-.109a2.753,2.753,0,0,0-.594-1.707A1.815,1.815,0,0,0-10.172-7.422ZM-3.062-10.5v2.047h1.578v1.117H-3.062v5.242a1.171,1.171,0,0,0,.211.762.888.888,0,0,0,.719.254,3.5,3.5,0,0,0,.688-.094V0A4.19,4.19,0,0,1-2.555.156,1.8,1.8,0,0,1-4.016-.43a2.517,2.517,0,0,1-.492-1.664V-7.336H-6.047V-8.453h1.539V-10.5ZM5.422,0a3.036,3.036,0,0,1-.2-.891A3.225,3.225,0,0,1,2.813.156,2.984,2.984,0,0,1,.762-.551a2.287,2.287,0,0,1-.8-1.793,2.39,2.39,0,0,1,1-2.051,4.733,4.733,0,0,1,2.824-.73H5.2v-.664A1.623,1.623,0,0,0,4.742-7a1.821,1.821,0,0,0-1.336-.449,2.107,2.107,0,0,0-1.3.391,1.151,1.151,0,0,0-.523.945H.133A2,2,0,0,1,.582-7.332,3.066,3.066,0,0,1,1.8-8.266a4.1,4.1,0,0,1,1.691-.344,3.342,3.342,0,0,1,2.289.73,2.635,2.635,0,0,1,.859,2.012v3.891a4.757,4.757,0,0,0,.3,1.852V0Zm-2.4-1.1a2.54,2.54,0,0,0,1.289-.352A2.127,2.127,0,0,0,5.2-2.367V-4.1H4.063q-2.656,0-2.656,1.555a1.316,1.316,0,0,0,.453,1.063A1.742,1.742,0,0,0,3.023-1.1ZM10.477,0H9.031V-12h1.445Zm3.883,0H12.914V-12h1.445Zm7.531,0a3.036,3.036,0,0,1-.2-.891A3.225,3.225,0,0,1,19.281.156,2.984,2.984,0,0,1,17.23-.551a2.287,2.287,0,0,1-.8-1.793,2.39,2.39,0,0,1,1-2.051,4.733,4.733,0,0,1,2.824-.73h1.406v-.664A1.623,1.623,0,0,0,21.211-7a1.821,1.821,0,0,0-1.336-.449,2.108,2.108,0,0,0-1.3.391,1.151,1.151,0,0,0-.523.945H16.6a2,2,0,0,1,.449-1.223,3.066,3.066,0,0,1,1.219-.934,4.1,4.1,0,0,1,1.691-.344,3.342,3.342,0,0,1,2.289.73,2.635,2.635,0,0,1,.859,2.012v3.891a4.757,4.757,0,0,0,.3,1.852V0Zm-2.4-1.1a2.54,2.54,0,0,0,1.289-.352,2.127,2.127,0,0,0,.883-.914V-4.1H20.531q-2.656,0-2.656,1.555a1.316,1.316,0,0,0,.453,1.063A1.742,1.742,0,0,0,19.492-1.1ZM32.844.156a3.693,3.693,0,0,1-2.8-1.129,4.19,4.19,0,0,1-1.078-3.02v-.266a5.073,5.073,0,0,1,.48-2.246,3.748,3.748,0,0,1,1.344-1.547,3.378,3.378,0,0,1,1.871-.559,3.166,3.166,0,0,1,2.563,1.086,4.7,4.7,0,0,1,.914,3.109v.6H30.414a3,3,0,0,0,.73,2.02,2.3,2.3,0,0,0,1.777.77,2.517,2.517,0,0,0,1.3-.312,3.259,3.259,0,0,0,.93-.828l.883.688A3.55,3.55,0,0,1,32.844.156Zm-.18-7.578a1.928,1.928,0,0,0-1.469.637A3.1,3.1,0,0,0,30.461-5H34.7v-.109A2.753,2.753,0,0,0,34.1-6.816,1.815,1.815,0,0,0,32.664-7.422ZM39.18-8.453l.047,1.063a3.08,3.08,0,0,1,2.531-1.219q2.68,0,2.7,3.023V0H43.016V-5.594A1.946,1.946,0,0,0,42.6-6.945a1.675,1.675,0,0,0-1.277-.437,2.086,2.086,0,0,0-1.234.375,2.546,2.546,0,0,0-.828.984V0H37.813V-8.453Z" transform="translate(741 4294)" fill="#12263f"/>
      </g>
      <g id="Grupo_879084" data-name="Grupo 879084" transform="translate(322 282)">
        <rect id="Rectángulo_75124-4" data-name="Rectángulo 75124" width="230" height="41" transform="translate(626 4268)" fill="#faf8ff"/>
        <path id="Trazado_272549" data-name="Trazado 272549" d="M-63.687-5.07A7.053,7.053,0,0,1-66.5-6.434a2.6,2.6,0,0,1-.879-2A2.751,2.751,0,0,1-66.3-10.652a4.269,4.269,0,0,1,2.793-.879,4.66,4.66,0,0,1,2.09.453A3.436,3.436,0,0,1-60-9.828a3.2,3.2,0,0,1,.5,1.742H-61a2.069,2.069,0,0,0-.656-1.621,2.675,2.675,0,0,0-1.852-.59,2.736,2.736,0,0,0-1.73.488,1.628,1.628,0,0,0-.621,1.355,1.465,1.465,0,0,0,.59,1.176,5.79,5.79,0,0,0,2.008.879,9.3,9.3,0,0,1,2.219.879A3.367,3.367,0,0,1-59.855-4.4a2.861,2.861,0,0,1,.387,1.508A2.658,2.658,0,0,1-60.547-.676,4.6,4.6,0,0,1-63.43.156a5.347,5.347,0,0,1-2.187-.449,3.681,3.681,0,0,1-1.566-1.23A3,3,0,0,1-67.734-3.3h1.508a1.959,1.959,0,0,0,.762,1.629,3.207,3.207,0,0,0,2.035.6,2.948,2.948,0,0,0,1.82-.484,1.573,1.573,0,0,0,.633-1.32,1.545,1.545,0,0,0-.586-1.293A6.755,6.755,0,0,0-63.687-5.07ZM-54.266.156a3.693,3.693,0,0,1-2.8-1.129,4.19,4.19,0,0,1-1.078-3.02v-.266A5.073,5.073,0,0,1-57.66-6.5a3.748,3.748,0,0,1,1.344-1.547,3.378,3.378,0,0,1,1.871-.559,3.166,3.166,0,0,1,2.563,1.086,4.7,4.7,0,0,1,.914,3.109v.6H-56.7a3,3,0,0,0,.73,2.02,2.3,2.3,0,0,0,1.777.77,2.517,2.517,0,0,0,1.3-.312,3.259,3.259,0,0,0,.93-.828l.883.688A3.55,3.55,0,0,1-54.266.156Zm-.18-7.578a1.928,1.928,0,0,0-1.469.637A3.1,3.1,0,0,0-56.648-5h4.234v-.109a2.753,2.753,0,0,0-.594-1.707A1.815,1.815,0,0,0-54.445-7.422ZM-43.766,0h-1.445V-8.453h1.445Zm-1.562-10.7a.863.863,0,0,1,.215-.594.807.807,0,0,1,.637-.242.819.819,0,0,1,.641.242.854.854,0,0,1,.219.594.826.826,0,0,1-.219.586.834.834,0,0,1-.641.234.821.821,0,0,1-.637-.234A.834.834,0,0,1-45.328-10.7Zm5.234,2.242.039.938a3.122,3.122,0,0,1,2.508-1.094A2.417,2.417,0,0,1-35.133-7.25a3.2,3.2,0,0,1,1.1-.984,3.242,3.242,0,0,1,1.6-.375q2.781,0,2.828,2.945V0h-1.445V-5.578a1.941,1.941,0,0,0-.414-1.355,1.823,1.823,0,0,0-1.391-.449A1.916,1.916,0,0,0-34.2-6.9a1.949,1.949,0,0,0-.617,1.293V0h-1.453V-5.539a1.613,1.613,0,0,0-1.8-1.844,1.934,1.934,0,0,0-1.945,1.211V0h-1.445V-8.453Zm19.8,4.32a5.062,5.062,0,0,1-.883,3.109A2.829,2.829,0,0,1-23.562.156,3.1,3.1,0,0,1-25.984-.82V3.25H-27.43v-11.7h1.32l.07.938a2.977,2.977,0,0,1,2.453-1.094,2.882,2.882,0,0,1,2.41,1.148,5.117,5.117,0,0,1,.887,3.2ZM-21.734-4.3a3.735,3.735,0,0,0-.609-2.258,1.963,1.963,0,0,0-1.672-.828,2.125,2.125,0,0,0-1.969,1.164V-2.18A2.129,2.129,0,0,0-24-1.023a1.954,1.954,0,0,0,1.652-.824A4.077,4.077,0,0,0-21.734-4.3ZM-16.883,0h-1.445V-12h1.445Zm5.82.156a3.693,3.693,0,0,1-2.8-1.129,4.19,4.19,0,0,1-1.078-3.02v-.266a5.073,5.073,0,0,1,.48-2.246,3.748,3.748,0,0,1,1.344-1.547,3.378,3.378,0,0,1,1.871-.559A3.166,3.166,0,0,1-8.68-7.523a4.7,4.7,0,0,1,.914,3.109v.6h-5.727a3,3,0,0,0,.73,2.02,2.3,2.3,0,0,0,1.777.77,2.517,2.517,0,0,0,1.3-.312,3.259,3.259,0,0,0,.93-.828l.883.688A3.55,3.55,0,0,1-11.062.156Zm-.18-7.578a1.928,1.928,0,0,0-1.469.637A3.1,3.1,0,0,0-13.445-5h4.234v-.109A2.753,2.753,0,0,0-9.8-6.816,1.815,1.815,0,0,0-11.242-7.422Zm6.508-1.031.039.938A3.122,3.122,0,0,1-2.187-8.609,2.417,2.417,0,0,1,.227-7.25a3.2,3.2,0,0,1,1.1-.984,3.242,3.242,0,0,1,1.6-.375q2.781,0,2.828,2.945V0H4.3V-5.578a1.941,1.941,0,0,0-.414-1.355A1.823,1.823,0,0,0,2.5-7.383a1.916,1.916,0,0,0-1.336.48A1.949,1.949,0,0,0,.547-5.609V0H-.906V-5.539a1.613,1.613,0,0,0-1.8-1.844A1.934,1.934,0,0,0-4.656-6.172V0H-6.1V-8.453ZM11.438.156a3.693,3.693,0,0,1-2.8-1.129,4.19,4.19,0,0,1-1.078-3.02v-.266A5.073,5.073,0,0,1,8.043-6.5,3.748,3.748,0,0,1,9.387-8.051a3.378,3.378,0,0,1,1.871-.559A3.166,3.166,0,0,1,13.82-7.523a4.7,4.7,0,0,1,.914,3.109v.6H9.008a3,3,0,0,0,.73,2.02,2.3,2.3,0,0,0,1.777.77,2.517,2.517,0,0,0,1.3-.312,3.259,3.259,0,0,0,.93-.828l.883.688A3.55,3.55,0,0,1,11.438.156Zm-.18-7.578a1.928,1.928,0,0,0-1.469.637A3.1,3.1,0,0,0,9.055-5h4.234v-.109A2.753,2.753,0,0,0,12.7-6.816,1.815,1.815,0,0,0,11.258-7.422Zm6.516-1.031.047,1.063a3.08,3.08,0,0,1,2.531-1.219q2.68,0,2.7,3.023V0H21.609V-5.594a1.946,1.946,0,0,0-.418-1.352,1.675,1.675,0,0,0-1.277-.437,2.086,2.086,0,0,0-1.234.375,2.546,2.546,0,0,0-.828.984V0H16.406V-8.453ZM27.2-10.5v2.047h1.578v1.117H27.2v5.242a1.171,1.171,0,0,0,.211.762.888.888,0,0,0,.719.254,3.5,3.5,0,0,0,.688-.094V0A4.19,4.19,0,0,1,27.7.156,1.8,1.8,0,0,1,26.242-.43a2.517,2.517,0,0,1-.492-1.664V-7.336H24.211V-8.453H25.75V-10.5ZM35.68,0a3.036,3.036,0,0,1-.2-.891A3.225,3.225,0,0,1,33.07.156,2.984,2.984,0,0,1,31.02-.551a2.287,2.287,0,0,1-.8-1.793,2.39,2.39,0,0,1,1-2.051,4.733,4.733,0,0,1,2.824-.73h1.406v-.664A1.623,1.623,0,0,0,35-7a1.821,1.821,0,0,0-1.336-.449,2.107,2.107,0,0,0-1.3.391,1.151,1.151,0,0,0-.523.945H30.391a2,2,0,0,1,.449-1.223,3.066,3.066,0,0,1,1.219-.934,4.1,4.1,0,0,1,1.691-.344,3.342,3.342,0,0,1,2.289.73A2.635,2.635,0,0,1,36.9-5.867v3.891a4.757,4.757,0,0,0,.3,1.852V0Zm-2.4-1.1a2.54,2.54,0,0,0,1.289-.352,2.127,2.127,0,0,0,.883-.914V-4.1H34.32q-2.656,0-2.656,1.555a1.316,1.316,0,0,0,.453,1.063A1.742,1.742,0,0,0,33.281-1.1Zm13.234.078a2.082,2.082,0,0,0,1.352-.469,1.649,1.649,0,0,0,.641-1.172h1.367a2.621,2.621,0,0,1-.5,1.383,3.293,3.293,0,0,1-1.23,1.047,3.55,3.55,0,0,1-1.629.391A3.482,3.482,0,0,1,43.77-1a4.59,4.59,0,0,1-1.02-3.152v-.242a5.089,5.089,0,0,1,.453-2.2,3.451,3.451,0,0,1,1.3-1.492,3.7,3.7,0,0,1,2-.531,3.39,3.39,0,0,1,2.363.852,3.043,3.043,0,0,1,1,2.211H48.508a1.992,1.992,0,0,0-.621-1.348,1.932,1.932,0,0,0-1.379-.527,2.023,2.023,0,0,0-1.707.793A3.724,3.724,0,0,0,44.2-4.336v.273a3.65,3.65,0,0,0,.6,2.25A2.033,2.033,0,0,0,46.516-1.023Zm4.6-3.281a4.993,4.993,0,0,1,.488-2.234A3.643,3.643,0,0,1,52.965-8.07a3.7,3.7,0,0,1,1.988-.539,3.565,3.565,0,0,1,2.793,1.2,4.6,4.6,0,0,1,1.066,3.18v.1a5.036,5.036,0,0,1-.473,2.215A3.589,3.589,0,0,1,56.988-.391a3.743,3.743,0,0,1-2.02.547,3.556,3.556,0,0,1-2.785-1.2A4.575,4.575,0,0,1,51.117-4.2Zm1.453.172a3.616,3.616,0,0,0,.652,2.258,2.088,2.088,0,0,0,1.746.852,2.075,2.075,0,0,0,1.75-.863A3.955,3.955,0,0,0,57.367-4.3a3.61,3.61,0,0,0-.66-2.254,2.1,2.1,0,0,0-1.754-.863,2.075,2.075,0,0,0-1.727.852A3.925,3.925,0,0,0,52.57-4.133Zm9.422-4.32.047,1.063A3.08,3.08,0,0,1,64.57-8.609q2.68,0,2.7,3.023V0H65.828V-5.594a1.946,1.946,0,0,0-.418-1.352,1.675,1.675,0,0,0-1.277-.437,2.086,2.086,0,0,0-1.234.375,2.546,2.546,0,0,0-.828.984V0H60.625V-8.453Z" transform="translate(741 4294)" fill="#12263f"/>
      </g>
      <path id="Polígono_21" data-name="Polígono 21" d="M6.5,0,13,10H0Z" transform="translate(571 4262) rotate(90)" fill="#005ca8"/>
      <path id="Polígono_22" data-name="Polígono 22" d="M6.5,0,13,10H0Z" transform="translate(807 4240) rotate(180)" fill="#005ca8"/>
      <path id="Polígono_24" data-name="Polígono 24" d="M6.5,0,13,10H0Z" transform="translate(544 4450) rotate(180)" fill="#005ca8"/>
      <path id="Polígono_25" data-name="Polígono 25" d="M6.5,0,13,10H0Z" transform="translate(1069 4450) rotate(180)" fill="#005ca8"/>
      <path id="Polígono_27" data-name="Polígono 27" d="M6.5,0,13,10H0Z" transform="translate(1070 4668) rotate(180)" fill="#005ca8"/>
      <path id="Polígono_28" data-name="Polígono 28" d="M6.5,0,13,10H0Z" transform="translate(886 4668) rotate(180)" fill="#005ca8"/>
      <path id="Polígono_29" data-name="Polígono 29" d="M6.5,0,13,10H0Z" transform="translate(1264 4668) rotate(180)" fill="#005ca8"/>
      <path id="Polígono_26" data-name="Polígono 26" d="M6.5,0,13,10H0Z" transform="translate(948 4481) rotate(90)" fill="#005ca8"/>
      <path id="Polígono_23" data-name="Polígono 23" d="M6.5,0,13,10H0Z" transform="translate(1029 4275) rotate(-90)" fill="#005ca8"/>
    </g>
  </g>
</svg>
