<svg xmlns="http://www.w3.org/2000/svg" xmlns:xlink="http://www.w3.org/1999/xlink" width="69" height="69" viewBox="0 0 69 69">
  <defs>
    <clipPath id="clip-path">
      <rect id="Rectángulo_75120" data-name="Rectángulo 75120" width="69" height="69" transform="translate(1271 3642)" fill="#fff" stroke="#707070" stroke-width="1"/>
    </clipPath>
  </defs>
  <g id="Enmascarar_grupo_90" data-name="Enmascarar grupo 90" transform="translate(-1271 -3642)" clip-path="url(#clip-path)">
    <g id="transparencia" transform="translate(1271 3642)">
      <g id="Grupo_879078" data-name="Grupo 879078">
        <g id="Grupo_879068" data-name="Grupo 879068">
          <g id="Grupo_879067" data-name="Grupo 879067">
            <path id="Trazado_266883" data-name="Trazado 266883" d="M43.029,2.378V64.2a1.368,1.368,0,0,1-1.368,1.368H2.555A1.368,1.368,0,0,1,1.186,64.2V2.378A1.369,1.369,0,0,1,2.555,1.01H41.661a1.369,1.369,0,0,1,1.368,1.368Z" fill="#eef4f5"/>
            <g id="Grupo_879066" data-name="Grupo 879066">
              <path id="Trazado_266884" data-name="Trazado 266884" d="M43.029,22.621V51.747a17.6,17.6,0,1,1,0-29.126Z" fill="#cbe5e7"/>
              <path id="Trazado_266885" data-name="Trazado 266885" d="M43.029,2.378V64.2a1.367,1.367,0,0,1-1.368,1.367h-5.4A1.367,1.367,0,0,0,37.627,64.2V2.378A1.367,1.367,0,0,0,36.259,1.01h5.4a1.367,1.367,0,0,1,1.368,1.367Z" fill="#cbe5e7"/>
            </g>
          </g>
          <path id="Trazado_266886" data-name="Trazado 266886" d="M35.279,25.608H8.938A1.368,1.368,0,0,1,7.57,24.24V20.953a1.368,1.368,0,0,1,1.367-1.367H35.279a1.368,1.368,0,0,1,1.367,1.367V24.24A1.367,1.367,0,0,1,35.279,25.608Z" fill="#fb4a59"/>
          <path id="Trazado_266887" data-name="Trazado 266887" d="M36.646,20.953v3.288a1.368,1.368,0,0,1-1.367,1.368h-4.23a1.367,1.367,0,0,0,1.367-1.368V20.953a1.366,1.366,0,0,0-1.367-1.368h4.23A1.367,1.367,0,0,1,36.646,20.953Z" fill="#f82f40"/>
        </g>
        <g id="Grupo_879077" data-name="Grupo 879077">
          <g id="Grupo_879069" data-name="Grupo 879069">
            <path id="Trazado_266888" data-name="Trazado 266888" d="M46.075,43.808h4.876v9.767H46.075Z" transform="translate(-20.224 48.573) rotate(-45)" fill="#eaf6ff"/>
          </g>
          <g id="Grupo_879076" data-name="Grupo 879076">
            <circle id="Elipse_5002" data-name="Elipse 5002" cx="17.598" cy="17.598" r="17.598" transform="translate(15.549 15.727)" fill="#64b9fc"/>
            <path id="Trazado_266889" data-name="Trazado 266889" d="M50.745,33.325A17.609,17.609,0,0,1,30.93,50.784a17.6,17.6,0,0,0,0-34.918A17.609,17.609,0,0,1,50.745,33.325Z" fill="#31a7fb"/>
            <g id="Grupo_879075" data-name="Grupo 879075">
              <g id="Grupo_879070" data-name="Grupo 879070">
                <path id="Trazado_266890" data-name="Trazado 266890" d="M30.021,20.538v3.408H23.915a13.121,13.121,0,0,1,6.105-3.408Z" fill="#cbe5e7"/>
                <path id="Trazado_266891" data-name="Trazado 266891" d="M36.274,20.538v3.408H30.021V20.538a13.234,13.234,0,0,1,6.253,0Z" fill="#557983"/>
                <path id="Trazado_266892" data-name="Trazado 266892" d="M42.379,23.946H36.274V20.538A13.121,13.121,0,0,1,42.379,23.946Z" fill="#cbe5e7"/>
              </g>
              <g id="Grupo_879071" data-name="Grupo 879071">
                <path id="Trazado_266893" data-name="Trazado 266893" d="M23.768,24.093V30.2H20.36A13.122,13.122,0,0,1,23.768,24.093Z" fill="#cbe5e7"/>
                <path id="Trazado_266894" data-name="Trazado 266894" d="M30.021,23.946V30.2H23.768V24.093c.047-.05.1-.1.147-.147Z" fill="#557983"/>
                <path id="Trazado_266895" data-name="Trazado 266895" d="M30.021,23.947h6.252V30.2H30.021Z" fill="#cbe5e7"/>
                <path id="Trazado_266896" data-name="Trazado 266896" d="M42.526,24.093V30.2H36.274V23.946h6.105C42.429,23.994,42.479,24.043,42.526,24.093Z" fill="#557983"/>
                <path id="Trazado_266897" data-name="Trazado 266897" d="M45.934,30.2H42.526V24.093A13.12,13.12,0,0,1,45.934,30.2Z" fill="#cbe5e7"/>
              </g>
              <g id="Grupo_879072" data-name="Grupo 879072">
                <path id="Trazado_266898" data-name="Trazado 266898" d="M23.768,30.2v6.253H20.36a13.234,13.234,0,0,1,0-6.253h3.408Z" fill="#557983"/>
                <path id="Trazado_266899" data-name="Trazado 266899" d="M23.769,30.2h6.252v6.252H23.769Z" fill="#cbe5e7"/>
                <path id="Trazado_266900" data-name="Trazado 266900" d="M30.021,30.2h6.252v6.252H30.021Z" fill="#557983"/>
                <path id="Trazado_266901" data-name="Trazado 266901" d="M36.273,30.2h6.252v6.252H36.273Z" fill="#cbe5e7"/>
                <path id="Trazado_266902" data-name="Trazado 266902" d="M46.309,33.325a13.136,13.136,0,0,1-.375,3.127H42.526V30.2h3.408A13.137,13.137,0,0,1,46.309,33.325Z" fill="#557983"/>
              </g>
              <g id="Grupo_879073" data-name="Grupo 879073">
                <path id="Trazado_266903" data-name="Trazado 266903" d="M23.768,36.452v6.105a13.121,13.121,0,0,1-3.408-6.105Z" fill="#cbe5e7"/>
                <path id="Trazado_266904" data-name="Trazado 266904" d="M30.021,36.452V42.7H23.915c-.05-.047-.1-.1-.147-.147V36.452Z" fill="#557983"/>
                <path id="Trazado_266905" data-name="Trazado 266905" d="M30.021,36.451h6.252V42.7H30.021Z" fill="#cbe5e7"/>
                <path id="Trazado_266906" data-name="Trazado 266906" d="M42.526,36.452v6.105c-.047.05-.1.1-.147.147H36.274V36.452Z" fill="#557983"/>
                <path id="Trazado_266907" data-name="Trazado 266907" d="M45.934,36.452a13.119,13.119,0,0,1-3.408,6.105V36.452Z" fill="#cbe5e7"/>
              </g>
              <g id="Grupo_879074" data-name="Grupo 879074">
                <path id="Trazado_266908" data-name="Trazado 266908" d="M30.021,42.7v3.408A13.119,13.119,0,0,1,23.915,42.7Z" fill="#cbe5e7"/>
                <path id="Trazado_266909" data-name="Trazado 266909" d="M36.274,42.7v3.408a13.235,13.235,0,0,1-6.254,0V42.7Z" fill="#557983"/>
                <path id="Trazado_266910" data-name="Trazado 266910" d="M42.379,42.7a13.121,13.121,0,0,1-6.105,3.408V42.7Z" fill="#cbe5e7"/>
              </g>
            </g>
          </g>
          <path id="Trazado_266911" data-name="Trazado 266911" d="M67.067,65.361l-1.883,1.883a2.546,2.546,0,0,1-3.6,0l-13.7-13.7a2.546,2.546,0,0,1,0-3.6l1.883-1.883a2.546,2.546,0,0,1,3.6,0l13.7,13.7A2.546,2.546,0,0,1,67.067,65.361Z" fill="#64b9fc"/>
          <path id="Trazado_266912" data-name="Trazado 266912" d="M67.067,65.361l-1.883,1.884a2.328,2.328,0,0,1-.24.21,2.543,2.543,0,0,0-.208-3.364l-13.7-13.7a2.543,2.543,0,0,0-3.364-.208,2.33,2.33,0,0,1,.21-.24l1.883-1.884a2.548,2.548,0,0,1,3.6,0l13.7,13.7A2.546,2.546,0,0,1,67.067,65.361Z" fill="#31a7fb"/>
          <path id="Trazado_266913" data-name="Trazado 266913" d="M50.662,56.324l5.484-5.484-2.779-2.779a2.546,2.546,0,0,0-3.6,0l-1.883,1.883a2.546,2.546,0,0,0,0,3.6Z" fill="#fb4a59"/>
          <path id="Trazado_266914" data-name="Trazado 266914" d="M56.146,50.84l-2.33,2.331-2.779-2.779a2.543,2.543,0,0,0-3.364-.208,2.33,2.33,0,0,1,.21-.24l1.883-1.884a2.548,2.548,0,0,1,3.6,0Z" fill="#f82f40"/>
        </g>
      </g>
      <g id="Grupo_879079" data-name="Grupo 879079">
        <path id="Trazado_266915" data-name="Trazado 266915" d="M1.187,49.008A1.011,1.011,0,0,0,2.2,48V2.378a.357.357,0,0,1,.357-.357H41.662a.357.357,0,0,1,.357.357v4.4a1.011,1.011,0,0,0,2.022,0v-4.4A2.381,2.381,0,0,0,41.662,0H2.555A2.381,2.381,0,0,0,.176,2.378V48a1.011,1.011,0,0,0,1.011,1.011Z"/>
        <path id="Trazado_266916" data-name="Trazado 266916" d="M19.765,8.388V7.912a1.011,1.011,0,1,0-2.022,0v.476a1.011,1.011,0,0,0,2.022,0Z"/>
        <path id="Trazado_266917" data-name="Trazado 266917" d="M26.473,7.912a1.011,1.011,0,1,0-2.022,0v.476a1.011,1.011,0,0,0,2.022,0Z"/>
        <path id="Trazado_266918" data-name="Trazado 266918" d="M22.108,15.651a4.148,4.148,0,0,0,4.143-4.143,1.011,1.011,0,1,0-2.022,0,2.122,2.122,0,0,1-4.243,0,1.011,1.011,0,1,0-2.022,0,4.148,4.148,0,0,0,4.143,4.143Z"/>
        <path id="Trazado_266919" data-name="Trazado 266919" d="M8.571,60.9a2.619,2.619,0,0,0,2.3.5,5.572,5.572,0,0,0,3.011-2.711A1.506,1.506,0,0,0,16,58.852l.411-.349.308.855a1.505,1.505,0,0,0,2.56.469l1.032-1.206h3.6a1.011,1.011,0,1,0,0-2.022H20.075a1.5,1.5,0,0,0-1.143.526l-.609.712-.259-.721a1.505,1.505,0,0,0-2.391-.637l-.5.424v0a1.5,1.5,0,0,0-2.688.111,4.429,4.429,0,0,1-2.107,2.427.62.62,0,0,1-.584-.147.7.7,0,0,1-.342-.582c-.014-.921,1.338-2.436,2.3-3.218a1.011,1.011,0,0,0-1.269-1.574,12.965,12.965,0,0,0-1.478,1.445,5.294,5.294,0,0,0-1.577,3.375A2.705,2.705,0,0,0,8.571,60.9Z"/>
        <path id="Trazado_266920" data-name="Trazado 266920" d="M9.948,52.619V52.6a1.011,1.011,0,1,0-2.022,0v.014a1.011,1.011,0,0,0,2.022,0Z"/>
        <path id="Trazado_266921" data-name="Trazado 266921" d="M33.147,19.153A14.172,14.172,0,1,0,47.319,33.325,14.188,14.188,0,0,0,33.147,19.153Zm8.368,5.8v4.231H37.285V24.957Zm-4.23-2.022V21.9a12.11,12.11,0,0,1,2.157,1.035Zm6.252,4.095a12.108,12.108,0,0,1,1.035,2.158H43.537Zm-12.5,4.179h4.231v4.231H31.032ZM29.01,35.441H24.78V31.21H29.01Zm8.274-4.231h4.231v4.231H37.285Zm-2.022-2.022H31.032V24.957h4.231Zm-6.253,0H24.78V24.957H29.01Zm-2.158-6.252A12.113,12.113,0,0,1,29.01,21.9v1.036Zm-4.094,6.252H21.723a12.116,12.116,0,0,1,1.036-2.158Zm0,2.022v4.231H21.182a12.2,12.2,0,0,1,0-4.231Zm0,6.253v2.158a12.115,12.115,0,0,1-1.036-2.158Zm2.022,4.23V37.462H29.01v4.231Zm4.231,2.022V44.75a12.1,12.1,0,0,1-2.158-1.036Zm2.022-6.252h4.231v4.231H31.032Zm6.253,0h4.231v4.231H37.285Zm2.158,6.252a12.109,12.109,0,0,1-2.158,1.035V43.714Zm4.094-6.252h1.035a12.119,12.119,0,0,1-1.035,2.157Zm0-2.022V31.21h1.576a12.2,12.2,0,0,1,0,4.231ZM35.263,21.36v1.576H31.032V21.36a12.213,12.213,0,0,1,4.231,0ZM31.032,45.291V43.714h4.231v1.576a12.209,12.209,0,0,1-4.231,0Z"/>
        <path id="Trazado_266922" data-name="Trazado 266922" d="M67.782,61.046l-13.7-13.7a3.554,3.554,0,0,0-3.037-1l-2.533-2.533A18.582,18.582,0,0,0,44.04,18.247V11.265a1.011,1.011,0,1,0-2.022,0V16.97a18.575,18.575,0,0,0-20.2,1.6H8.938a2.381,2.381,0,0,0-2.378,2.378v3.288a2.381,2.381,0,0,0,2.378,2.378h6.852a18.447,18.447,0,0,0-.9,3.109h-.63a1.011,1.011,0,1,0,0,2.022h.347c-.044.52-.067,1.045-.067,1.576,0,.106,0,.212,0,.317H12.082a1.011,1.011,0,1,0,0,2.022h2.6a18.447,18.447,0,0,0,.774,3.443H8.441a1.011,1.011,0,1,0,0,2.022h7.815A18.587,18.587,0,0,0,17.2,42.9H8.441a1.011,1.011,0,1,0,0,2.022H18.607A18.767,18.767,0,0,0,20.222,46.7H8.441a1.011,1.011,0,1,0,0,2.022H22.7a18.578,18.578,0,0,0,19.314.96V64.2a.357.357,0,0,1-.357.357H2.555A.357.357,0,0,1,2.2,64.2V52.488a1.011,1.011,0,0,0-2.022,0V64.2a2.381,2.381,0,0,0,2.378,2.378H41.662A2.381,2.381,0,0,0,44.04,64.2V49.1l2.125,2.125a3.616,3.616,0,0,0-.038.524,3.534,3.534,0,0,0,1.042,2.515L52.3,59.39a1.011,1.011,0,0,0,1.429-1.429l-1.635-1.635,4.054-4.055L66.352,62.475a1.536,1.536,0,0,1,0,2.172L64.469,66.53a1.537,1.537,0,0,1-2.172,0L56.9,61.136a1.011,1.011,0,0,0-1.429,1.429l5.395,5.395a3.561,3.561,0,0,0,5.03,0l1.883-1.883a3.558,3.558,0,0,0,0-5.031ZM8.938,24.6a.357.357,0,0,1-.357-.357V20.953a.357.357,0,0,1,.357-.357H19.586a18.706,18.706,0,0,0-2.87,4Zm7.622,8.728A16.587,16.587,0,1,1,33.147,49.912,16.606,16.606,0,0,1,16.56,33.325ZM45.251,47.448a18.761,18.761,0,0,0,2.019-2.019l1.852,1.852c-.023.022-.047.043-.07.066L47.169,49.23c-.023.023-.044.046-.066.069ZM50.663,54.9,48.6,52.831a1.536,1.536,0,0,1,0-2.172l1.883-1.883a1.537,1.537,0,0,1,2.172,0l2.064,2.064Z"/>
      </g>
    </g>
  </g>
</svg>
