<svg xmlns="http://www.w3.org/2000/svg" xmlns:xlink="http://www.w3.org/1999/xlink" width="112" height="112" viewBox="0 0 112 112">
  <defs>
    <clipPath id="clip-path">
      <rect id="Rectángulo_75097" data-name="Rectángulo 75097" width="112" height="112" transform="translate(221 2254)" fill="#fff"/>
    </clipPath>
  </defs>
  <g id="Enmascarar_grupo_91" data-name="Enmascarar grupo 91" transform="translate(-221 -2254)" clip-path="url(#clip-path)">
    <g id="Filled_outline" data-name="Filled outline" transform="translate(217.267 2250.267)">
      <path id="Trazado_272163" data-name="Trazado 272163" d="M28,16.8h74.667a7.467,7.467,0,0,1,7.467,7.467V82.133a5.6,5.6,0,0,1-5.6,5.6h-78.4a5.6,5.6,0,0,1-5.6-5.6V24.267A7.467,7.467,0,0,1,28,16.8Z" fill="#4db7e5"/>
      <path id="Trazado_272164" data-name="Trazado 272164" d="M102.667,16.8H100.8V87.733h3.733v-70.7a7.482,7.482,0,0,0-1.867-.235Z" fill="#48add9"/>
      <path id="Trazado_272165" data-name="Trazado 272165" d="M93.333,5.6h-56a7.467,7.467,0,0,0-7.467,7.467v78.4H100.8v-78.4A7.467,7.467,0,0,0,93.333,5.6Z" fill="#348fd9"/>
      <path id="Trazado_272166" data-name="Trazado 272166" d="M100.8,23.333,32.667,91.467H100.8Z" fill="#3086cd"/>
      <path id="Trazado_272167" data-name="Trazado 272167" d="M89.6,52.267q0,.941-.07,1.867A24.235,24.235,0,0,1,68.712,76.3c-.5.072-1,.126-1.512.166q-.924.07-1.867.07t-1.867-.07c-.509-.04-1.013-.093-1.512-.166A23.958,23.958,0,0,1,56.3,74.8,24.265,24.265,0,0,1,41.137,54.133q-.07-.924-.07-1.867t.07-1.867A24.238,24.238,0,0,1,61.691,28.273q.878-.133,1.776-.2.924-.07,1.867-.07t1.867.07c.509.04,1.013.093,1.512.166a23.946,23.946,0,0,1,5.647,1.5A24.349,24.349,0,0,1,86.865,41.067,24.072,24.072,0,0,1,89.53,50.4Q89.6,51.324,89.6,52.267Z" fill="#4db7e5"/>
      <path id="Trazado_272168" data-name="Trazado 272168" d="M89.53,54.133q.07-.924.07-1.867T89.53,50.4h-9.3a47.478,47.478,0,0,0-1.279-9.333h7.912a24.123,24.123,0,0,0-2.4-3.733H77.873a38.388,38.388,0,0,0-3.514-7.6,23.946,23.946,0,0,0-5.647-1.5l1.3,1.68a32.7,32.7,0,0,1,3.894,7.418H67.2V28.07Q66.276,28,65.333,28t-1.867.07v9.263H56.758a32.578,32.578,0,0,1,3.915-7.446c.023-.03.042-.063.063-.093l.954-1.521a24.031,24.031,0,0,0-5.383,1.461,38.266,38.266,0,0,0-3.514,7.6H46.2a24.125,24.125,0,0,0-2.4,3.733h7.912A47.43,47.43,0,0,0,50.435,50.4h-9.3q-.07.924-.07,1.867t.07,1.867h9.3a46.777,46.777,0,0,0,1.783,11.2H44.879a24.362,24.362,0,0,0,2.945,3.733h5.661A36.317,36.317,0,0,0,56.3,74.8a23.958,23.958,0,0,0,5.651,1.5l-1.3-1.682a30.912,30.912,0,0,1-3.129-5.549h5.943v7.4q.924.07,1.867.07t1.867-.07v-7.4h5.943a30.79,30.79,0,0,1-3.129,5.549l-1.3,1.682a23.957,23.957,0,0,0,5.651-1.5,36.112,36.112,0,0,0,2.819-5.731h5.661a24.362,24.362,0,0,0,2.945-3.733H78.447a46.851,46.851,0,0,0,1.783-11.2Zm-26.063,11.2H56.124a42.677,42.677,0,0,1-1.951-11.2h9.294Zm0-14.933h-9.3a43.378,43.378,0,0,1,1.393-9.333h7.9ZM74.543,65.333H67.2v-11.2h9.294a42.761,42.761,0,0,1-1.951,11.2ZM67.2,50.4V41.067h7.9A43.443,43.443,0,0,1,76.5,50.4Z" fill="#60d1e0"/>
      <path id="Trazado_272169" data-name="Trazado 272169" d="M77.627,85.867a6.373,6.373,0,0,1-4.506,1.867H57.867a6.374,6.374,0,0,1-4.506-1.866A6.373,6.373,0,0,0,48.854,84H16.8v5.6a5.6,5.6,0,0,0,5.6,5.6h85.867a5.6,5.6,0,0,0,5.6-5.6V84H82.133a6.374,6.374,0,0,0-4.506,1.866Z" fill="#e0e0de"/>
      <path id="Trazado_272170" data-name="Trazado 272170" d="M106.4,84v5.6a5.6,5.6,0,0,1-5.6,5.6h7.467a5.6,5.6,0,0,0,5.6-5.6V84Z" fill="#d6d6d4"/>
      <path id="Trazado_272171" data-name="Trazado 272171" d="M57.867,86.333v23.333a4.148,4.148,0,0,1-.574,2.116,4.192,4.192,0,0,1-3.626,2.084H9.8a4.192,4.192,0,0,1-3.626-2.084,4.148,4.148,0,0,1-.574-2.116V86.333a4.148,4.148,0,0,1,.574-2.116A4.192,4.192,0,0,1,9.8,82.133H53.667a4.192,4.192,0,0,1,3.626,2.084,4.148,4.148,0,0,1,.574,2.116Z" fill="#ffb531"/>
      <path id="Trazado_272172" data-name="Trazado 272172" d="M57.293,84.217c-5.78,3.218-15.076,5.306-25.559,5.306s-19.78-2.088-25.559-5.306A4.192,4.192,0,0,1,9.8,82.133H53.667a4.192,4.192,0,0,1,3.626,2.084Z" fill="#ffcb73"/>
      <path id="Trazado_272173" data-name="Trazado 272173" d="M57.293,111.783a4.192,4.192,0,0,1-3.626,2.084H9.8a4.192,4.192,0,0,1-3.626-2.084c5.78-3.218,15.076-5.306,25.559-5.306s19.78,2.088,25.559,5.306Z" fill="#ffa912"/>
      <path id="Trazado_272174" data-name="Trazado 272174" d="M31.733,50.4A20.533,20.533,0,0,0,11.2,70.933v11.2h7.467v-11.2a13.067,13.067,0,0,1,26.133,0v11.2h7.467v-11.2A20.533,20.533,0,0,0,31.733,50.4Z" fill="#e0e0de"/>
      <path id="Trazado_272175" data-name="Trazado 272175" d="M37.333,97.067a5.6,5.6,0,1,0-7.467,5.256V106.4H33.6v-4.077A5.591,5.591,0,0,0,37.333,97.067Z" fill="#95573a"/>
      <path id="Trazado_272176" data-name="Trazado 272176" d="M113.867,82.133H112V24.267a9.344,9.344,0,0,0-9.333-9.333V13.067a9.344,9.344,0,0,0-9.333-9.333h-56A9.344,9.344,0,0,0,28,13.067v1.867a9.344,9.344,0,0,0-9.333,9.333v22.4H22.4v-22.4a5.606,5.606,0,0,1,5.6-5.6V44.8h3.733V13.067a5.606,5.606,0,0,1,5.6-5.6h56a5.606,5.606,0,0,1,5.6,5.6V76.533h3.733V18.667a5.606,5.606,0,0,1,5.6,5.6V82.133H82.133a8.176,8.176,0,0,0-5.819,2.413,4.489,4.489,0,0,1-3.2,1.32H63.467V89.6h9.651a8.2,8.2,0,0,0,5.837-2.413,4.468,4.468,0,0,1,3.179-1.32H112V89.6a3.738,3.738,0,0,1-3.733,3.733h-44.8v3.733h44.8a7.475,7.475,0,0,0,7.467-7.467V84a1.867,1.867,0,0,0-1.867-1.867Z"/>
      <path id="Trazado_272177" data-name="Trazado 272177" d="M28,63.467h3.733V76.533H28Z"/>
      <path id="Trazado_272178" data-name="Trazado 272178" d="M37.332,11.2h3.733v3.733H37.332Z"/>
      <path id="Trazado_272179" data-name="Trazado 272179" d="M44.8,11.2h3.733v3.733H44.8Z"/>
      <path id="Trazado_272180" data-name="Trazado 272180" d="M52.266,11.2H56v3.733H52.266Z"/>
      <path id="Trazado_272181" data-name="Trazado 272181" d="M37.333,18.667h56V22.4h-56Z"/>
      <path id="Trazado_272182" data-name="Trazado 272182" d="M59.621,73.923c-.395-.1-.793-.217-1.183-.342L57.3,77.135c.459.147.928.283,1.382.4A26.131,26.131,0,1,0,43.324,38.19,25.8,25.8,0,0,0,39.9,46.237l3.633.859a22.062,22.062,0,0,1,2.407-6.03h5.774a47.689,47.689,0,0,0-1.314,11.2c0,1.293.052,2.6.155,3.882l3.721-.3c-.046-.569-.08-1.143-.1-1.718h9.294v11.2h-5.6v3.733h5.6v5.516a22.352,22.352,0,0,1-3.846-.66Zm20.511-4.856a22.488,22.488,0,0,1-4.249,2.951c.469-.955.906-1.937,1.3-2.951Zm3.386-3.733H78.444a46.946,46.946,0,0,0,1.785-11.2h7.429a22.006,22.006,0,0,1-4.14,11.2ZM60.3,30.443a22.3,22.3,0,0,1,3.171-.493v7.383h-6.7a33.009,33.009,0,0,1,3.532-6.89Zm6.9-.493a22.339,22.339,0,0,1,3.171.493,33,33,0,0,1,3.532,6.89H67.2Zm7.9,11.116A43.416,43.416,0,0,1,76.494,50.4H67.2V41.067ZM87.654,50.4H80.232a47.366,47.366,0,0,0-1.278-9.333h5.772A22.187,22.187,0,0,1,87.653,50.4ZM82.021,37.333H77.87a40.109,40.109,0,0,0-2-4.845,22.192,22.192,0,0,1,6.153,4.845ZM54.8,32.489a40.108,40.108,0,0,0-2,4.844h-4.15A22.19,22.19,0,0,1,54.8,32.489ZM54.173,50.4a43.4,43.4,0,0,1,1.393-9.333h7.9V50.4ZM67.2,54.133h9.294a42.757,42.757,0,0,1-1.954,11.2H67.2Zm5.939,14.933a31.13,31.13,0,0,1-2.763,5.022,22.265,22.265,0,0,1-3.176.495V69.067Z"/>
      <path id="Trazado_272183" data-name="Trazado 272183" d="M54.133,80.3v-9.37a22.4,22.4,0,0,0-44.8,0V80.3a6.286,6.286,0,0,0-5.6,6.24v22.913a6.284,6.284,0,0,0,6.277,6.277H53.457a6.284,6.284,0,0,0,6.277-6.277V86.543a6.286,6.286,0,0,0-5.6-6.24Zm-22.4-28.037A18.688,18.688,0,0,1,50.4,70.933v9.333H46.667V70.933a14.933,14.933,0,0,0-29.867,0v9.333H13.067V70.933A18.688,18.688,0,0,1,31.733,52.267Zm11.2,28h-22.4V70.933a11.2,11.2,0,0,1,22.4,0ZM56,109.457A2.546,2.546,0,0,1,53.457,112H10.01a2.546,2.546,0,0,1-2.543-2.543V86.543A2.546,2.546,0,0,1,10.01,84H53.457A2.546,2.546,0,0,1,56,86.543Z"/>
      <path id="Trazado_272184" data-name="Trazado 272184" d="M31.733,91.467a5.6,5.6,0,0,0-1.867,10.879V106.4H33.6v-4.054a5.6,5.6,0,0,0-1.867-10.879Zm0,7.467A1.867,1.867,0,1,1,33.6,97.067,1.867,1.867,0,0,1,31.733,98.933Z"/>
    </g>
  </g>
</svg>
