<svg xmlns="http://www.w3.org/2000/svg" width="107.235" height="110.334" viewBox="0 0 107.235 110.334">
  <g id="analisis" transform="translate(-7.191 -0.01)">
    <g id="Grupo_883448" data-name="Grupo 883448" transform="translate(8.914 1.734)">
      <g id="Grupo_883444" data-name="Grupo 883444" transform="translate(0)">
        <path id="Trazado_271943" data-name="Trazado 271943" d="M19.7,8.01h94.759a4.528,4.528,0,0,1,4.515,4.515V86.137a4.528,4.528,0,0,1-4.515,4.515H19.7a4.528,4.528,0,0,1-4.515-4.515V12.525A4.528,4.528,0,0,1,19.7,8.01Z" transform="translate(-15.185 -8.01)" fill="#eceff1" fill-rule="evenodd"/>
        <path id="Trazado_271944" data-name="Trazado 271944" d="M455.861,8.01h4.31a4.528,4.528,0,0,1,4.515,4.515V86.137a4.528,4.528,0,0,1-4.515,4.515h-4.31a4.528,4.528,0,0,0,4.515-4.515V12.525a4.528,4.528,0,0,0-4.515-4.515Z" transform="translate(-360.897 -8.01)" fill="#d1d1d6" fill-rule="evenodd"/>
        <path id="Trazado_271945" data-name="Trazado 271945" d="M19.7,8.01h94.759a4.528,4.528,0,0,1,4.515,4.515v11.61H15.185V12.525A4.528,4.528,0,0,1,19.7,8.01Z" transform="translate(-15.185 -8.01)" fill="#a79ba7" fill-rule="evenodd"/>
        <path id="Trazado_271946" data-name="Trazado 271946" d="M455.861,8.01h4.31a4.528,4.528,0,0,1,4.515,4.515v11.61h-4.31V12.525a4.528,4.528,0,0,0-4.515-4.515Z" transform="translate(-360.897 -8.01)" fill="#837683" fill-rule="evenodd"/>
        <path id="Trazado_271947" data-name="Trazado 271947" d="M62.572,38.456a2.639,2.639,0,1,0-2.639-2.639A2.644,2.644,0,0,0,62.572,38.456Z" transform="translate(-50.29 -27.754)" fill="#fe646f" fill-rule="evenodd"/>
        <path id="Trazado_271948" data-name="Trazado 271948" d="M109.576,38.456a2.639,2.639,0,1,0-2.639-2.639A2.644,2.644,0,0,0,109.576,38.456Z" transform="translate(-87.165 -27.754)" fill="#ffe177" fill-rule="evenodd"/>
        <path id="Trazado_271949" data-name="Trazado 271949" d="M156.579,38.456a2.639,2.639,0,1,0-2.639-2.639A2.644,2.644,0,0,0,156.579,38.456Z" transform="translate(-124.039 -27.754)" fill="#6cf5c2" fill-rule="evenodd"/>
      </g>
      <g id="Grupo_883445" data-name="Grupo 883445" transform="translate(8.505 20.319)">
        <circle id="Elipse_5003" data-name="Elipse 5003" cx="14.665" cy="14.665" r="14.665" transform="matrix(0.94, -0.34, 0.34, 0.94, 0, 9.972)" fill="#60b7ff"/>
        <circle id="Elipse_5004" data-name="Elipse 5004" cx="12.843" cy="12.843" r="12.843" transform="matrix(0.94, -0.34, 0.34, 0.94, 2.332, 11.065)" fill="#8ac9fe"/>
        <path id="Trazado_271950" data-name="Trazado 271950" d="M141.877,189.393h14.665a14.658,14.658,0,0,1-7.331,12.7Z" transform="translate(-123.081 -170.624)" fill="#fd4755" fill-rule="evenodd"/>
        <path id="Trazado_271951" data-name="Trazado 271951" d="M141.877,189.393H154.72a12.837,12.837,0,0,1-6.42,11.124Z" transform="translate(-123.081 -170.624)" fill="#fe646f" fill-rule="evenodd"/>
        <path id="Trazado_271952" data-name="Trazado 271952" d="M156.541,136.008H141.876V121.343A14.665,14.665,0,0,1,156.541,136.008Z" transform="translate(-123.08 -117.239)" fill="#ffd064" fill-rule="evenodd"/>
        <path id="Trazado_271953" data-name="Trazado 271953" d="M154.719,142.641H141.876V129.8A12.843,12.843,0,0,1,154.719,142.641Z" transform="translate(-123.08 -123.872)" fill="#ffe177" fill-rule="evenodd"/>
      </g>
      <g id="Grupo_883446" data-name="Grupo 883446" transform="translate(65.674 40.671)">
        <path id="Trazado_271954" data-name="Trazado 271954" d="M321.018,246.969h2.888a1.08,1.08,0,0,1,1.077,1.077v17.064a1.08,1.08,0,0,1-1.077,1.077h-2.888a1.08,1.08,0,0,1-1.077-1.077V248.046A1.08,1.08,0,0,1,321.018,246.969Z" transform="translate(-319.941 -236.145)" fill="#ffe177" fill-rule="evenodd"/>
        <path id="Trazado_271955" data-name="Trazado 271955" d="M328.341,246.969H330.5a1.08,1.08,0,0,1,1.077,1.077v17.064a1.08,1.08,0,0,1-1.077,1.077h-2.155a1.08,1.08,0,0,0,1.077-1.077V248.046A1.08,1.08,0,0,0,328.341,246.969Z" transform="translate(-326.531 -236.145)" fill="#ffd064" fill-rule="evenodd"/>
        <path id="Trazado_271956" data-name="Trazado 271956" d="M371.357,221.854h2.888a1.08,1.08,0,0,1,1.077,1.077v22.476a1.08,1.08,0,0,1-1.077,1.077h-2.888a1.08,1.08,0,0,1-1.077-1.077V222.931A1.08,1.08,0,0,1,371.357,221.854Z" transform="translate(-359.432 -216.442)" fill="#6cf5c2" fill-rule="evenodd"/>
        <path id="Trazado_271957" data-name="Trazado 271957" d="M378.68,221.854h2.155a1.08,1.08,0,0,1,1.077,1.077v22.476a1.08,1.08,0,0,1-1.077,1.077H378.68a1.08,1.08,0,0,0,1.077-1.077V222.931A1.08,1.08,0,0,0,378.68,221.854Z" transform="translate(-366.022 -216.442)" fill="#00e499" fill-rule="evenodd"/>
        <path id="Trazado_271958" data-name="Trazado 271958" d="M421.7,196.74h2.888a1.08,1.08,0,0,1,1.077,1.077v27.888a1.08,1.08,0,0,1-1.077,1.077H421.7a1.08,1.08,0,0,1-1.077-1.077V197.818A1.08,1.08,0,0,1,421.7,196.74Z" transform="translate(-398.923 -196.74)" fill="#8ac9fe" fill-rule="evenodd"/>
        <path id="Trazado_271959" data-name="Trazado 271959" d="M429.019,196.74h2.155a1.08,1.08,0,0,1,1.077,1.077v27.888a1.08,1.08,0,0,1-1.077,1.077h-2.155a1.08,1.08,0,0,0,1.077-1.077V197.818A1.08,1.08,0,0,0,429.019,196.74Z" transform="translate(-405.513 -196.74)" fill="#60b7ff" fill-rule="evenodd"/>
      </g>
      <g id="Grupo_883447" data-name="Grupo 883447" transform="translate(21.552 46.292)">
        <path id="Trazado_271960" data-name="Trazado 271960" d="M295.267,392.841a19.225,19.225,0,0,1-3.243,3.57l8.817,8.643,3.357-3.459Z" transform="translate(-253.918 -356.203)" fill="#a79ba7" fill-rule="evenodd"/>
        <path id="Trazado_271961" data-name="Trazado 271961" d="M303.854,392.565a2.215,2.215,0,0,1-.96,1.287l8.759,8.7,1.073-1.175Z" transform="translate(-262.446 -355.987)" fill="#837683" fill-rule="evenodd"/>
        <path id="Trazado_271962" data-name="Trazado 271962" d="M335.7,439.575l3.788-3.9a1.742,1.742,0,0,0-.037-2.456l-10.493-10.182a1.742,1.742,0,0,0-2.456.037l-3.788,3.9a1.742,1.742,0,0,0,.037,2.456l10.493,10.182A1.742,1.742,0,0,0,335.7,439.575Z" transform="translate(-277.61 -379.506)" fill="#f1ba84" fill-rule="evenodd"/>
        <path id="Trazado_271963" data-name="Trazado 271963" d="M344.687,423.034l10.493,10.182a1.742,1.742,0,0,1,.037,2.456l-3.788,3.9a1.721,1.721,0,0,1-.47.344,1.744,1.744,0,0,0,2.023-.344l3.788-3.9a1.742,1.742,0,0,0-.037-2.456L346.24,423.035a1.744,1.744,0,0,0-1.986-.307,1.717,1.717,0,0,1,.433.307Z" transform="translate(-294.893 -379.507)" fill="#e3a76f" fill-rule="evenodd"/>
        <ellipse id="Elipse_5005" data-name="Elipse 5005" cx="19.107" cy="19.107" rx="19.107" ry="19.107" transform="translate(0 27.017) rotate(-45)" fill="#8ac9fe"/>
        <path id="Trazado_271964" data-name="Trazado 271964" d="M237.252,259.543a19.107,19.107,0,0,1,0,38.213q-.466,0-.928-.023a19.106,19.106,0,0,0,0-38.168q.461-.022.927-.023Z" transform="translate(-210.222 -251.63)" fill="#60b7ff" fill-rule="evenodd"/>
        <circle id="Elipse_5006" data-name="Elipse 5006" cx="13.72" cy="13.72" r="13.72" transform="translate(9.129 19.589) rotate(-22.514)" fill="#eceff1"/>
        <path id="Trazado_271965" data-name="Trazado 271965" d="M190.683,284.541c.312,0,.621.011.927.032a13.719,13.719,0,0,0,0,27.376c-.307.02-.616.032-.927.032a13.72,13.72,0,1,1,0-27.44Z" transform="translate(-163.652 -271.241)" fill="#d1d1d6" fill-rule="evenodd"/>
      </g>
    </g>
    <path id="Trazado_271966" data-name="Trazado 271966" d="M57.5,87.04A12,12,0,1,1,69.492,75.047,12.011,12.011,0,0,1,57.5,87.04Zm0-27.439A15.444,15.444,0,1,0,72.939,75.047,15.462,15.462,0,0,0,57.5,59.6ZM82.811,35.642a1.724,1.724,0,0,1-1.724,1.724H64.252a1.723,1.723,0,1,1,0-3.447H81.087A1.724,1.724,0,0,1,82.811,35.642ZM62.528,28.357a1.724,1.724,0,0,1,1.724-1.724H97.922a1.724,1.724,0,1,1,0,3.448H64.252A1.723,1.723,0,0,1,62.528,28.357ZM99.6,70.723H98.008V44.129H99.6Zm1.723-30.042H96.284a1.723,1.723,0,0,0-1.724,1.724V72.447a1.724,1.724,0,0,0,1.724,1.724h5.042a1.723,1.723,0,0,0,1.724-1.724V42.405A1.723,1.723,0,0,0,101.326,40.681ZM88.755,70.723H87.16V49.54h1.595Zm1.724-24.631H85.436a1.725,1.725,0,0,0-1.724,1.724V72.447a1.723,1.723,0,0,0,1.724,1.724h5.043A1.723,1.723,0,0,0,92.2,72.447V47.816A1.724,1.724,0,0,0,90.479,46.092ZM28.882,72.3a1.723,1.723,0,0,1-1.723,1.723H21.551a1.724,1.724,0,1,1,0-3.447h5.608A1.723,1.723,0,0,1,28.882,72.3Zm0-7.532a1.723,1.723,0,0,1-1.723,1.724H21.551a1.723,1.723,0,1,1,0-3.447h5.608A1.722,1.722,0,0,1,28.882,64.768ZM44.2,51l-4.968-8.45,9.809,0A12.939,12.939,0,0,1,44.2,51ZM23.275,40.82A12.939,12.939,0,0,0,41.229,52.75L34.73,41.7a1.726,1.726,0,0,1-.237-.875V28A12.96,12.96,0,0,0,23.275,40.82ZM49.038,39.1l-11.1,0V28A12.963,12.963,0,0,1,49.038,39.1ZM36.216,24.433A16.388,16.388,0,1,0,52.605,40.82,16.406,16.406,0,0,0,36.216,24.433ZM38.815,9.8a2.639,2.639,0,1,1,2.64,2.64A2.644,2.644,0,0,1,38.815,9.8Zm-10.129,0a2.639,2.639,0,1,1,2.638,2.64A2.643,2.643,0,0,1,28.686,9.8Zm-10.13,0a2.638,2.638,0,1,1,2.639,2.64A2.644,2.644,0,0,1,18.557,9.8Zm89.631,72.855a2.8,2.8,0,0,0,2.791-2.791V19.584H10.639V79.86a2.8,2.8,0,0,0,2.79,2.791H38.1a20.709,20.709,0,0,1-1.436-7.6q0-.515.023-1.023H33.756a1.724,1.724,0,1,1,0-3.447h3.393A20.837,20.837,0,0,1,38.5,66.493H33.756a1.723,1.723,0,1,1,0-3.447h6.723A20.8,20.8,0,0,1,72.864,61v-7.77a1.723,1.723,0,0,1,1.724-1.724H79.63a1.723,1.723,0,0,1,1.724,1.724V72.447a1.723,1.723,0,0,1-1.724,1.724H78.307c.013.291.019.581.019.875a20.693,20.693,0,0,1-1.437,7.6ZM80.612,92.79l10.494,10.2-3.789,3.9H87.3l-10.491-10.2Zm-4.865.044L72.4,89.584c.319-.328.629-.664.927-1.013L76.7,91.848Zm2.159-22.11h-.03a20.635,20.635,0,0,0-1.564-4.61V54.953h1.595v15.77ZM40.114,75.047A17.382,17.382,0,1,0,57.5,57.662,17.4,17.4,0,0,0,40.114,75.047ZM13.429,3.458a2.794,2.794,0,0,0-2.79,2.79v9.887h100.34V6.248a2.794,2.794,0,0,0-2.791-2.79H13.429ZM108.187.01H13.429A6.245,6.245,0,0,0,7.191,6.248V79.86a6.244,6.244,0,0,0,6.238,6.24H39.849a20.8,20.8,0,0,0,29.938,5.754l3.779,3.668a3.466,3.466,0,0,0,.839,3.668L84.9,109.37a3.467,3.467,0,0,0,4.894-.075l3.789-3.9a3.466,3.466,0,0,0-.073-4.895L83.014,90.316a3.459,3.459,0,0,0-3.689-.728L75.73,86.1h32.457a6.244,6.244,0,0,0,6.238-6.239V6.248A6.245,6.245,0,0,0,108.187.01Z" transform="translate(0)" fill-rule="evenodd"/>
  </g>
</svg>
