<svg xmlns="http://www.w3.org/2000/svg" xmlns:xlink="http://www.w3.org/1999/xlink" width="37" height="37" viewBox="0 0 37 37">
  <defs>
    <clipPath id="clip-path">
      <rect id="Rectángulo_66804" data-name="Rectángulo 66804" width="37" height="37" transform="translate(1210 2756)" fill="#005ca8"/>
    </clipPath>
  </defs>
  <g id="Enmascarar_grupo_58" data-name="Enmascarar grupo 58" transform="translate(-1210 -2756)" clip-path="url(#clip-path)">
    <g id="interrupcion" transform="translate(1210 2756)">
      <path id="Trazado_200363" data-name="Trazado 200363" d="M22.5,13.874a3.655,3.655,0,0,0-4.642.832V5.777A2.513,2.513,0,0,0,13.914,3.71V3.423a2.514,2.514,0,0,0-5.028,0v.286a2.5,2.5,0,0,0-1.5-.444A2.552,2.552,0,0,0,4.942,5.818v.527A2.513,2.513,0,0,0,1,8.412v14a8.348,8.348,0,0,0,1.77,5.169,4.211,4.211,0,0,1,.874,2.573V32.6a.542.542,0,1,0,1.084,0V30.15a5.3,5.3,0,0,0-1.1-3.238,7.274,7.274,0,0,1-1.542-4.5v-14a1.43,1.43,0,0,1,2.86,0v6.205a.542.542,0,1,0,1.084,0v-8.8a1.461,1.461,0,0,1,1.39-1.471,1.43,1.43,0,0,1,1.471,1.43V7.1a.542.542,0,0,0,1.084,0V3.423a1.43,1.43,0,0,1,2.86,0V14.617a.542.542,0,0,0,1.084,0V5.777a1.43,1.43,0,1,1,2.86,0V16.483l-.756,1.31a.713.713,0,0,1-.847.319,4.533,4.533,0,0,0-4.671,7.5.542.542,0,1,0,.767-.767,3.419,3.419,0,0,1-1.008-2.552,3.452,3.452,0,0,1,4.563-3.151,1.8,1.8,0,0,0,2.136-.8l1.491-2.582a2.569,2.569,0,0,1,3.51-.939.291.291,0,0,1,.105.4L15.9,25.884a7.37,7.37,0,0,1-.679,1.04,5.261,5.261,0,0,0-1.093,3.225v5.767h-9.4v-.782a.542.542,0,0,0-1.084,0v1.235A.632.632,0,0,0,4.274,37H14.582a.632.632,0,0,0,.631-.631v-6.22a4.172,4.172,0,0,1,.863-2.559,8.47,8.47,0,0,0,.775-1.186L23,15.752a1.377,1.377,0,0,0-.5-1.878Z" fill="#005ca8"/>
      <path id="Trazado_200364" data-name="Trazado 200364" d="M9.97,14.617V9.634a.542.542,0,0,0-1.084,0v4.983a.542.542,0,0,0,1.084,0Z" fill="#005ca8"/>
      <path id="Trazado_200365" data-name="Trazado 200365" d="M6.984,30.383a.542.542,0,0,0,.542.542h3.991a.542.542,0,0,0,0-1.084H7.526a.542.542,0,0,0-.542.542Z" fill="#005ca8"/>
      <path id="Trazado_200366" data-name="Trazado 200366" d="M35.359,0H20.6a.645.645,0,0,0-.644.644V11.414a.645.645,0,0,0,.644.644h1.355a.542.542,0,0,0,0-1.084h-.915V1.084H34.918v9.89h-4.4a.648.648,0,0,0-.455.189L28.021,13.2V11.618a.645.645,0,0,0-.644-.644h-2.9a.542.542,0,0,0,0,1.084h2.455v2.205a.644.644,0,0,0,1.1.455l2.66-2.66h4.662A.645.645,0,0,0,36,11.415V.644A.645.645,0,0,0,35.359,0Z" fill="#005ca8"/>
      <path id="Trazado_200367" data-name="Trazado 200367" d="M24.985,9.065h2a.542.542,0,0,0,.542-.542V3.535a.542.542,0,0,0-.542-.542h-2a.542.542,0,0,0-.542.542V8.523A.542.542,0,0,0,24.985,9.065Zm.542-4.988h.911v3.9h-.911Z" fill="#005ca8"/>
      <path id="Trazado_200368" data-name="Trazado 200368" d="M30.971,9.065a.542.542,0,0,0,.542-.542V3.535a.542.542,0,0,0-.542-.542h-2a.542.542,0,0,0-.542.542V8.523a.542.542,0,0,0,.542.542ZM29.517,4.077h.911v3.9h-.911Z" fill="#005ca8"/>
    </g>
  </g>
</svg>
