<svg xmlns="http://www.w3.org/2000/svg" width="131.05" height="142.913" viewBox="0 0 131.05 142.913">
  <g id="Grupo_878718" data-name="Grupo 878718" transform="translate(-323.154 -42.762)">
    <path id="Trazado_200429" data-name="Trazado 200429" d="M454.2,110.579a65.525,65.525,0,1,1-65.524-65.525A65.524,65.524,0,0,1,454.2,110.579Z" transform="translate(0 0.666)" fill="#299ae6"/>
    <path id="Trazado_200430" data-name="Trazado 200430" d="M390.126,109c.786.408,3.924,3.774,3.44,5.129s-3.4-2.516-3.44-1.742,2.693,4.355,2.244,6.388-3.062,4.258-3.062,4.258-5.644-7.936-5.1-10.84S390.126,109,390.126,109Z" transform="translate(17.721 19.236)" fill="#ffb18f"/>
    <path id="Trazado_200431" data-name="Trazado 200431" d="M394.416,67.035c2.538.484,3.787,2.3,6.855,7.528,2.823,4.809-6.759,19.907-11.167,23.488-2.658,2.159-.261,19.356.76,22.163s-7.869,4.258-7.869,4.258L385.51,90.6Z" transform="translate(17.379 7.05)"/>
    <path id="Trazado_200432" data-name="Trazado 200432" d="M405.625,57.01c.137,3.1-.2,9.714-1.7,12.516s-5.358,9.439-8.642,9.438-18.807-21.9-12.531-27.274S405.4,51.847,405.625,57.01Z" transform="translate(16.88 1.955)" fill="#161515"/>
    <path id="Trazado_200433" data-name="Trazado 200433" d="M332.664,134.529c-1.352-.506-7.292.671-7.651,1.388s7.892,19.333,9.149,20.089,1.792-16.323,1.792-16.323Z" transform="translate(0.537 26.616)" fill="#161515"/>
    <path id="Trazado_200434" data-name="Trazado 200434" d="M380.177,146.457c-.008.525-1.676,7,0,7.715s23.739,2.511,24.275,1.076-16.681-7-17.4-8.792S380.177,146.457,380.177,146.457Z" transform="translate(16.344 29.885)" fill="#161515"/>
    <path id="Trazado_200435" data-name="Trazado 200435" d="M382.793,104.5s-8.678,35.871-9.31,36.409c-3.9,3.318-38.571,13.8-39.568,13.3s-3.658-9.144-2.826-10.308,29.886-9.119,30.053-10.615,2-30.64,2.331-32.165S382.793,104.5,382.793,104.5Z" transform="translate(2.258 16.865)" fill="#353535"/>
    <path id="Trazado_200436" data-name="Trazado 200436" d="M378.594,104.936c4.385,2.694,26.22,17.49,26.552,21.479s-8.762,35.381-8.6,35.879-10.082-.55-11.681-1.714,6.082-30.179,5.584-32.008-34.136-16.819-26.869-26.464C366.211,98.625,378.594,104.936,378.594,104.936Z" transform="translate(11.443 16.931)" fill="#353535"/>
    <path id="Trazado_200437" data-name="Trazado 200437" d="M368.575,110.957l-5.933-1.9c-.634,9.06-1.4,20.9-1.5,21.846-.166,1.5-29.222,9.451-30.053,10.615-.514.717.3,4.276,1.236,7.02a2.305,2.305,0,0,0,.7-.2c3.555-1.67,18.727-8.494,25.26-10.671s12.022-2.585,12.34-3.049-1.889-4.137-2.4-7.549S368.575,110.957,368.575,110.957Z" transform="translate(2.258 19.254)" fill="#444343"/>
    <path id="Trazado_200438" data-name="Trazado 200438" d="M394.274,124.07c-3.125-1.118-15.9-12.992-18.438-15.679l-7.112,1.307.61,4.3c8.095,6.131,19.042,11.407,19.325,12.445.5,1.829-7.184,30.845-5.584,32.008.708.516,3.113,1.008,5.557,1.354,0-2.679.086-6.981.486-11.347.654-7.113,6.539-20.59,6.751-21.412S397.4,125.188,394.274,124.07Z" transform="translate(13.235 19.06)" fill="#3d3d3d"/>
    <path id="Trazado_200439" data-name="Trazado 200439" d="M358.157,104.381c1.019-2.447,17.494-31.445,19.658-36.212s8.939-7.554,15.151-6.064,13.712,2.257,14.575,11.5S397.376,102,394.548,109.375s1.583,15.795,1.352,17.457c-.4,2.847-39.659,3.053-40.651.7S355.23,111.41,358.157,104.381Z" transform="translate(9.212 5.501)" fill="#161515"/>
    <path id="Trazado_200440" data-name="Trazado 200440" d="M385.239,47.57c-.957,1.858-3.5,9.93-3.027,14.058s2.041,8.181,4.669,9.387,9.509-.93,13.4-5.483,6.066-12.054,6.066-12.054Z" transform="translate(17.135 1.396)" fill="#ffb18f"/>
    <path id="Trazado_200441" data-name="Trazado 200441" d="M380.725,129.018a40.933,40.933,0,0,0-1.257-5.328c-2.354-7.984,3.658-21.92,10.886-34.928,5.3-9.529,4.9-21.027,1.88-26.8-6-1.115-12.338,1.627-14.419,6.207-2.164,4.767-18.639,33.765-19.658,36.212-2.927,7.029-3.9,20.794-2.907,23.149C355.828,128.9,369.416,129.4,380.725,129.018Z" transform="translate(9.212 5.504)" fill="#232121"/>
    <path id="Trazado_200442" data-name="Trazado 200442" d="M382.469,54.362c2.149.546,17.859,9.2,17.859,9.2-1.773,1.987-4.189,6.252-8.521,7.363-3.052.783-6.179-3.439-7.715-5.927A13,13,0,0,1,382.469,54.362Z" transform="translate(17.086 3.369)"/>
    <path id="Trazado_200443" data-name="Trazado 200443" d="M371.265,75.588s3.74,14.654,4.349,18.854c1.04,7.2-4.493,15.48-4.493,15.48s2.032-10.04,1.016-14.862S371.265,75.588,371.265,75.588Z" transform="translate(13.93 9.534)" fill="#161515"/>
    <path id="Trazado_200444" data-name="Trazado 200444" d="M371.2,66.281c.7-1.794,6.908-5.376,11.629-1.56s1.114,26.878,1.711,27.009,1.9-19.984,3.058-19.962,7.678.19,7.89,1.858-.994,19.661-2.26,22.891c-4.58,11.7-8.565,10.625-10.2,10.46C380.413,106.715,363.533,85.9,371.2,66.281Z" transform="translate(13.379 5.886)" fill="#353535"/>
    <path id="Trazado_200445" data-name="Trazado 200445" d="M388.517,92.472s-5.348,8.221-6.243,5.9-2.435-11.445-3.911-22.661c-1.256-9.54-2.342-10.787-5.812-11.294a3.893,3.893,0,0,0-1.35,1.462c-7.668,19.623,9.212,40.434,11.824,40.7,1.19.12,3.612.711,6.6-3.425a19.094,19.094,0,0,0,.649-2.311C391.707,94.016,388.517,92.472,388.517,92.472Z" transform="translate(13.379 6.289)" fill="#3f3f3f"/>
    <path id="Trazado_200446" data-name="Trazado 200446" d="M382,51.884l.543,3.131a23.819,23.819,0,0,1,3.673.366c1.4.243,2.038-.834,3.115-.745s.741,2.359,1.727,2.987,9.288,6.319,9.861,6.355c.279.019,3.038-4.479,3.038-4.479s-7.426-6-11.1-8.245S382,51.884,382,51.884Z" transform="translate(17.091 2.218)" fill="#db826a"/>
    <path id="Trazado_200447" data-name="Trazado 200447" d="M383.525,62.668a10.875,10.875,0,0,0-5.71,5.221c-2.164,4.767-18.639,33.765-19.658,36.212-2.927,7.029-3.9,20.794-2.907,23.149.306.728,4.271,1.21,9.608,1.445-.405-6.806-.692-17.061.557-24.5C367.029,94.6,378.316,72.141,383.525,62.668Z" transform="translate(9.212 5.781)" fill="#2d2a2a"/>
    <path id="Trazado_200448" data-name="Trazado 200448" d="M385.843,76.2c-1.391.714,10.126,8.361,10.525,7.695s1.252-10.369,1.518-11.844c.577-3.2.568-7.168-3.507-12.086-6.324-7.634-40.365-8.807-49.661.538C328.5,76.809,336.63,95,355.563,105c13.258,7,21.2-15.2,23.856-23.292s11.5-14.2,13.45-12.765S391.511,73.3,385.843,76.2Z" transform="translate(3.739 3.226)" fill="#aaa"/>
    <path id="Trazado_200449" data-name="Trazado 200449" d="M394.377,59.969c-6.324-7.634-40.365-8.807-49.661.538-10.909,10.965-10.791,22.784-3.789,32.391a16.858,16.858,0,0,0,4.119,2.638c14.663,6.624,28.344-8.1,31.211-19.217,2.483-9.621,9.054-15.081,18.487-15.883C394.622,60.281,394.507,60.126,394.377,59.969Z" transform="translate(3.741 3.226)" fill="#bababa"/>
    <path id="Trazado_200450" data-name="Trazado 200450" d="M400.774,43.034c-11.557-2.174-19.115,9.291-19.44,12.189a16.148,16.148,0,0,0,1.627,13.357c4.3,6.955,11.705,12.338,11.705,12.338s-9.43-12.491-10.218-16.515a44.991,44.991,0,0,1-.415-9.248,37.082,37.082,0,0,1,5.279.781c3.191.657,7.851,4.1,11.668,7.341a65.057,65.057,0,0,1-.832,6.886,23.688,23.688,0,0,1-5.482,10.756s10.517-5.046,12.934-11.554C407.6,69.364,409.715,44.716,400.774,43.034Z" transform="translate(16.675 0)" fill="#353535"/>
    <g id="Grupo_878714" data-name="Grupo 878714" transform="translate(347.054 63.62)">
      <path id="Trazado_200451" data-name="Trazado 200451" d="M350.393,72.349c-2.183-2.218-3.247-5.292-1.569-8.1,1.567-2.626,5-3.27,7.719-2.208l1.857-3.111,2.625,1.567L359.169,63.6a9.105,9.105,0,0,1,3.3,6.391l-2.8.519c-.568-2.883-1.029-3.817-1.912-4.547l-3.669,6.149c2.768,2.261,4.335,5.686,2.343,9.024-1.856,3.111-5.927,3.633-8.874,1.924l-1.854,3.113-2.627-1.565,1.857-3.114c-2.256-1.5-3.2-4.349-3.261-6.976l2.958-.27c.1,1.79.2,3.676,1.711,4.884Zm4.74-7.949a3.271,3.271,0,0,0-3.242,5.437ZM348.97,80.7a3.581,3.581,0,0,0,4.865-1.165c.983-1.65.176-3.707-1.263-4.871Z" transform="translate(-341.675 -58.926)" fill="#8e8e8e"/>
    </g>
    <path id="Trazado_200452" data-name="Trazado 200452" d="M374.647,80.113c1.136-.379,8.217,5.662,7.955,6.532s-4.636-4.065-6.8-4.209S373.34,80.548,374.647,80.113Z" transform="translate(14.727 10.843)" fill="#2b2b2b"/>
    <path id="Trazado_200453" data-name="Trazado 200453" d="M382.5,86.42c-1.53-.548-7.229-3.194-8.1-2.323s-.436,1.452.581,2.323S382.5,86.42,382.5,86.42Z" transform="translate(14.747 11.954)" fill="#2b2b2b"/>
    <path id="Trazado_200454" data-name="Trazado 200454" d="M387.154,68.68s-2.14-8.483-7.41-10.225-11.024-2.754-11.074,0c-.07,3.68,6.7,1.1,11.074,3.541A20.2,20.2,0,0,1,387.154,68.68Z" transform="translate(13.219 4.062)" fill="#969696"/>
    <path id="Trazado_200455" data-name="Trazado 200455" d="M384.908,66.092s-3.638-3.593-11.187-4.119-5,6.151-1.919,5.861S378.292,63.414,384.908,66.092Z" transform="translate(13.249 5.571)" fill="#969696"/>
    <path id="Trazado_200456" data-name="Trazado 200456" d="M355.394,125.571s.727,1.6,3.63,3.048a19.087,19.087,0,0,0,4.5,1.742,11.684,11.684,0,0,1-5.573.179C355.482,129.814,355.394,125.571,355.394,125.571Z" transform="translate(9.363 24.05)" fill="#282828"/>
    <path id="Trazado_200457" data-name="Trazado 200457" d="M392.5,119.871s-2.058,2.62-3.194,3c-3.323,1.114-4.209,0-4.209,0s3.18,3.551,5.809,1.663A4.088,4.088,0,0,0,392.5,119.871Z" transform="translate(17.989 22.394)" fill="#282828"/>
    <path id="Trazado_200458" data-name="Trazado 200458" d="M361.811,133.56s-4.042.13-6.075-2.338-.672-3.617-.672-3.617a4.373,4.373,0,0,0-.445,4.344C355.736,134.271,361.811,133.56,361.811,133.56Z" transform="translate(9.021 24.641)" fill="#282828"/>
    <g id="Grupo_878715" data-name="Grupo 878715" transform="translate(400.609 48.332)">
      <path id="Trazado_200459" data-name="Trazado 200459" d="M388.945,70.93c2.16,1.959,3.781,3.142,3.781,3.142s-2.8-3.71-5.475-7.737C387.856,68,388.437,69.568,388.945,70.93Z" transform="translate(-381.993 -41.486)" fill="#3f3f3f"/>
      <path id="Trazado_200460" data-name="Trazado 200460" d="M398.064,75.581c2.409-3.115,3.194-7.259,4.289-13.214s-1.581-13.5-7.773-15.045c-5.883-1.471-9.634,4.1-11.161,6.594a38.417,38.417,0,0,1,5.066.767c3.191.657,7.851,4.1,11.668,7.341a65.057,65.057,0,0,1-.832,6.886,23.688,23.688,0,0,1-5.482,10.756l.378-.19A26.723,26.723,0,0,0,398.064,75.581Z" transform="translate(-383.106 -47.078)" fill="#3f3f3f"/>
      <path id="Trazado_200461" data-name="Trazado 200461" d="M383.262,52.666h0a2.069,2.069,0,0,0-.031,1.119C383.239,53.368,383.249,53,383.262,52.666Z" transform="translate(-383.177 -45.456)" fill="#3f3f3f"/>
    </g>
    <g id="Grupo_878716" data-name="Grupo 878716" transform="translate(397.247 42.762)">
      <path id="Trazado_200462" data-name="Trazado 200462" d="M404.62,69.364s2.115-24.648-6.826-26.33a15.074,15.074,0,0,0-6.961.3c3.732.088,7.461,1.955,8.672,5,2.018,5.082,4.985,11.213,2.536,20.584a22.019,22.019,0,0,1-4.168,8.207C400.627,75.089,403.5,72.389,404.62,69.364Z" transform="translate(-377.591 -42.762)" fill="#2d2d2d"/>
      <path id="Trazado_200463" data-name="Trazado 200463" d="M381.965,59.145c.454-3.647.647-7.318,2.089-10.649a12.679,12.679,0,0,0-2.72,5.062,16.148,16.148,0,0,0,1.627,13.357,34.016,34.016,0,0,0,2.25,3.18C383.437,66.525,381.607,62.02,381.965,59.145Z" transform="translate(-380.571 -41.096)" fill="#2d2d2d"/>
    </g>
    <g id="Grupo_878717" data-name="Grupo 878717" transform="translate(400.708 55.149)">
      <path id="Trazado_200464" data-name="Trazado 200464" d="M388.533,53.148c3.181.656,7.817,4.082,11.627,7.308-.791-1.745-3.537-4.6-7.268-6.15-7.555-3.147-9.663-1.39-9.638-1.938A37.081,37.081,0,0,1,388.533,53.148Z" transform="translate(-383.254 -52.361)" fill="#6d6d6d"/>
    </g>
    <path id="Trazado_200465" data-name="Trazado 200465" d="M386.273,99.139a40.742,40.742,0,0,0,2.114-4.629c1.266-3.23,2.472-21.222,2.26-22.891-.129-1.013-2.585-1.471-4.753-1.68a34.235,34.235,0,0,1,.854,7.665c.145,9.145,1.306,11.758,0,19.163C386.6,97.594,386.441,98.383,386.273,99.139Z" transform="translate(18.221 7.893)" fill="#2d2d2d"/>
    <path id="Trazado_200466" data-name="Trazado 200466" d="M391.121,72.361c.37-1.627-1.622-5.253-5.542-7.859-3.74-2.484-6.939,1.23-6.111,2.59.894,1.467,2.942.154,3.284,1.225.218.676-3.02-.837-3.284.614s4.465,1.182,6.111,2.856Z" transform="translate(16.317 6.071)" fill="#ffb18f"/>
  </g>
</svg>
