<svg xmlns="http://www.w3.org/2000/svg" width="141.348" height="142.913" viewBox="0 0 141.348 142.913">
  <g id="Grupo_878721" data-name="Grupo 878721" transform="translate(-182.223 -46.396)">
    <path id="Trazado_200467" data-name="Trazado 200467" d="M323.571,117.071A70.674,70.674,0,1,1,252.9,46.4,70.675,70.675,0,0,1,323.571,117.071Z" transform="translate(0 0)" fill="#fb394b"/>
    <path id="Trazado_200468" data-name="Trazado 200468" d="M198.187,117.4c1.676-12.035,31.514-27.872,51.889-25.586S289.493,107.5,294.368,117.4s-2.284,45.55-2.284,45.55h-85.92S195.283,138.252,198.187,117.4Z" transform="translate(6.062 17.711)" fill="#161515"/>
    <path id="Trazado_200469" data-name="Trazado 200469" d="M210.385,96.886s-2.439-4.418,3.2-11.274,32.752-12.948,46.768-2.59,15.774,10.586,14.929,13.864-21.937,17.365-23.46,23.536-8.685,16.67-9.163,16.68-6.376-12.187-11.1-18.584S210.385,96.886,210.385,96.886Z" transform="translate(10.83 12.18)" fill="#161515"/>
    <path id="Trazado_200470" data-name="Trazado 200470" d="M217.574,79.815c-.3,4.113,3.81,18.281,8.226,24.374s10.962,9.9,14.833,10.208,9.946-4.22,14.059-12.294,7.364-23.049,7.364-23.049Z" transform="translate(13.846 12.797)" fill="#ffb18f"/>
    <path id="Trazado_200471" data-name="Trazado 200471" d="M261.732,80.474a8.741,8.741,0,0,0-1.318-1.4l-42.84.734c-.234,3.161,2.142,12.255,5.258,19.064,4.877-1.626,9.825-3.356,12.717-4.654,2.742-1.233,1.1-3.9,3.6-4.355s2.04,4.113,4.173,4.723c1.519.433,8.248,2.952,12.688,4.642A134.355,134.355,0,0,0,261.732,80.474Z" transform="translate(13.846 12.805)" fill="#db826a"/>
    <path id="Trazado_200472" data-name="Trazado 200472" d="M210.582,92.677s7.594-8.685,29.606-8.533,32.8,8.965,32.8,8.965-19.39-7.366-34.251-6.833C226.083,86.731,210.582,92.677,210.582,92.677Z" transform="translate(11.112 14.791)" fill="#90ced6"/>
    <path id="Trazado_200473" data-name="Trazado 200473" d="M208.382,104.368c-.529-.145,9.446-33.363,22.608-42.553,7.54-5.265,21.571-5.129,28.426.66,8.982,7.584,18.89,41.588,18.434,42.655s-11.8-8.847-35.1-9.445C218.986,95.076,210.057,104.826,208.382,104.368Z" transform="translate(10.242 4.545)" fill="#353535"/>
    <path id="Trazado_200474" data-name="Trazado 200474" d="M208.376,91.827s1.126-2.273,2.38-1.752c8.8,3.656,28.018,21.472,30.964,31.134,3.808,12.493,2.15,19.824,2.15,19.824s-5.94-16.148-14.776-27.421C222.045,104.618,208.376,91.827,208.376,91.827Z" transform="translate(10.248 17.085)" fill="#353535"/>
    <path id="Trazado_200475" data-name="Trazado 200475" d="M268.167,92.606s-1.6-3.125-2.589-2.59c-8.209,4.446-27.644,21.65-30.58,31.287-3.808,12.49-.8,19.748-.8,19.748s4.447-15.568,13.282-26.84C254.526,105.216,268.167,92.606,268.167,92.606Z" transform="translate(19.924 17.068)" fill="#353535"/>
    <path id="Trazado_200476" data-name="Trazado 200476" d="M230.819,92.836a15.26,15.26,0,0,1,2.963-1.446c.711-.171,3.665,1.744,3.285,1.976S230.516,93.371,230.819,92.836Z" transform="translate(19.038 17.627)" fill="#db826a"/>
    <path id="Trazado_200477" data-name="Trazado 200477" d="M229.144,97.928c-.166-.413,2.786-1.287,6.073-1.39s5.4.245,4.862.537c-.334.184-2.912.029-4.807.177S229.617,99.112,229.144,97.928Z" transform="translate(18.383 19.641)" fill="#7c4639"/>
    <path id="Trazado_200478" data-name="Trazado 200478" d="M229.265,96.4c.686.4-1.292,1.527-.458,2.514,1.026,1.214,2.134.534,2.134.838s-1.555,1.013-2.894-.838C227.246,97.808,228.35,95.866,229.265,96.4Z" transform="translate(17.848 19.558)" fill="#db826a"/>
    <path id="Trazado_200479" data-name="Trazado 200479" d="M239.236,60.256c-8.236,0-15.373,26.861-17.085,35.713a69.515,69.515,0,0,1,15.2-1.172,76.341,76.341,0,0,1,16.226,2.114C252.143,87.492,250.287,60.256,239.236,60.256Z" transform="translate(15.646 5.431)" fill="#444"/>
    <path id="Trazado_200480" data-name="Trazado 200480" d="M240.769,136.462a48.132,48.132,0,0,0-12.312-27.149,66.169,66.169,0,0,0-13.788-11.84,171.183,171.183,0,0,1,11.96,13.211C233.768,119.79,239.014,132.076,240.769,136.462Z" transform="translate(12.714 20.014)" fill="#90ced6"/>
    <path id="Trazado_200481" data-name="Trazado 200481" d="M208.929,103.705c-10.321,8.14-22.456,39.227-24.284,49.281s32.484,13.658,38.73,10.307-3.539-45.345-7.2-50.221S211.058,102.025,208.929,103.705Z" transform="translate(0.922 22.346)" fill="#353535"/>
    <path id="Trazado_200482" data-name="Trazado 200482" d="M246.95,110.789a156.164,156.164,0,0,1,10.933-12.1,71.563,71.563,0,0,0-11.243,10.154,48.075,48.075,0,0,0-12.225,26.44C236.016,130.506,240.2,119.4,246.95,110.789Z" transform="translate(20.451 20.489)" fill="#474747"/>
    <path id="Trazado_200483" data-name="Trazado 200483" d="M209.578,116.595s-3.81,10.816-6.245,13.1-6.855.61-9.6,2.59-3.2,7.921-3.2,7.921,6.114-4.571,12.122-2.285a10.21,10.21,0,0,0,10.425-2.132Z" transform="translate(3.257 27.507)" fill="#232323"/>
    <path id="Trazado_200484" data-name="Trazado 200484" d="M208.8,134.082s-8.7-2.252-12.264.948a7.068,7.068,0,0,0-2.475,5.032,12.8,12.8,0,0,1,4.748-3.375c3.953-1.361,12.8,4.089,9.229-.438Z" transform="translate(4.641 34.058)" fill="#2b2b2b"/>
    <path id="Trazado_200485" data-name="Trazado 200485" d="M266.647,103.705c10.319,8.14,22.455,39.227,24.282,49.281s-32.484,13.658-38.73,10.307,3.539-45.345,7.2-50.221S264.518,102.025,266.647,103.705Z" transform="translate(26.623 22.346)" fill="#353535"/>
    <path id="Trazado_200486" data-name="Trazado 200486" d="M260.848,116.595s3.808,10.816,6.247,13.1,6.853.61,9.6,2.59,3.2,7.921,3.2,7.921-6.114-4.571-12.122-2.285a10.207,10.207,0,0,1-10.424-2.132Z" transform="translate(29.437 27.507)" fill="#232323"/>
    <path id="Trazado_200487" data-name="Trazado 200487" d="M259.444,134.082s8.7-2.252,12.262.948a7.066,7.066,0,0,1,2.476,5.032,12.8,12.8,0,0,0-4.748-3.375c-3.953-1.361-12.8,4.089-9.229-.438Z" transform="translate(30.231 34.058)" fill="#2b2b2b"/>
    <path id="Trazado_200488" data-name="Trazado 200488" d="M273.546,127.982s-1.432-3.918-4.174-4.986a39.734,39.734,0,0,1-6.664-3.885s1.454,7.093,2.959,7.618A27.772,27.772,0,0,0,273.546,127.982Z" transform="translate(31.538 28.494)" fill="#2b2b2b"/>
    <rect id="Rectángulo_66893" data-name="Rectángulo 66893" width="85.919" height="49.816" transform="translate(211.921 137.095)" fill="#aaa"/>
    <rect id="Rectángulo_66894" data-name="Rectángulo 66894" width="85.919" height="2.452" transform="translate(211.921 186.857)" fill="#8c8c8c"/>
    <g id="Grupo_878719" data-name="Grupo 878719" transform="translate(227.339 186.191)">
      <rect id="Rectángulo_66895" data-name="Rectángulo 66895" width="9.139" height="0.85" transform="translate(0 0)" fill="#cecece"/>
      <rect id="Rectángulo_66896" data-name="Rectángulo 66896" width="9.141" height="0.85" transform="translate(45.944 0)" fill="#cecece"/>
    </g>
    <rect id="Rectángulo_66897" data-name="Rectángulo 66897" width="85.919" height="1.157" transform="translate(211.921 137.213)" fill="#cecece"/>
    <path id="Trazado_200489" data-name="Trazado 200489" d="M193.583,127.982s1.434-3.918,4.174-4.986a39.808,39.808,0,0,0,6.667-3.885s-1.456,7.093-2.96,7.618A27.779,27.779,0,0,1,193.583,127.982Z" transform="translate(4.451 28.494)" fill="#2b2b2b"/>
    <g id="Grupo_878720" data-name="Grupo 878720" transform="translate(249.511 155.305)">
      <path id="Trazado_200490" data-name="Trazado 200490" d="M234.275,124.644h-3.708v3.54h1.091v-2.56h2.616Z" transform="translate(-230.567 -124.644)" fill="#474747"/>
      <path id="Trazado_200491" data-name="Trazado 200491" d="M235.62,124.644h3.708v3.54h-1.09v-2.56H235.62Z" transform="translate(-228.588 -124.644)" fill="#474747"/>
      <path id="Trazado_200492" data-name="Trazado 200492" d="M235.62,132.879h3.708v-3.538h-1.09V131.9H235.62Z" transform="translate(-228.588 -122.804)" fill="#474747"/>
      <path id="Trazado_200493" data-name="Trazado 200493" d="M234.275,132.879h-3.708v-3.538h1.091V131.9h2.616Z" transform="translate(-230.567 -122.804)" fill="#474747"/>
    </g>
  </g>
</svg>
