<svg xmlns="http://www.w3.org/2000/svg" xmlns:xlink="http://www.w3.org/1999/xlink" width="85" height="85" viewBox="0 0 85 85">
  <defs>
    <clipPath id="clip-path">
      <rect id="Rect치ngulo_66930" data-name="Rect치ngulo 66930" width="85" height="85" transform="translate(200 7789)" fill="#fff" stroke="#707070" stroke-width="1"/>
    </clipPath>
  </defs>
  <g id="Enmascarar_grupo_68" data-name="Enmascarar grupo 68" transform="translate(-200 -7789)" clip-path="url(#clip-path)">
    <g id="iniciar-sesion" transform="translate(200 7789)">
      <g id="Grupo_878757" data-name="Grupo 878757">
        <path id="Trazado_200699" data-name="Trazado 200699" d="M1.162,23.49H83.838V71.072a2.972,2.972,0,0,1-2.972,2.972H4.134a2.972,2.972,0,0,1-2.972-2.972V23.49Z" fill="#f4d844"/>
        <path id="Trazado_200700" data-name="Trazado 200700" d="M4.482,10.957H80.518a3.32,3.32,0,0,1,3.32,3.32V23.49H1.162V14.277a3.32,3.32,0,0,1,3.32-3.32Z" fill="#607880"/>
        <g id="Grupo_878756" data-name="Grupo 878756">
          <path id="Trazado_200701" data-name="Trazado 200701" d="M78.525,18.385H33a1.162,1.162,0,0,1,0-2.324h45.53a1.162,1.162,0,1,1,0,2.324Z" fill="#94e0da"/>
          <path id="Trazado_200702" data-name="Trazado 200702" d="M9.547,18.385H6.475a1.162,1.162,0,1,1,0-2.324H9.547a1.162,1.162,0,0,1,0,2.324Z" fill="#94e0da"/>
          <path id="Trazado_200703" data-name="Trazado 200703" d="M18.388,18.385H15.315a1.162,1.162,0,1,1,0-2.324h3.073a1.162,1.162,0,0,1,0,2.324Z" fill="#94e0da"/>
          <path id="Trazado_200704" data-name="Trazado 200704" d="M27.227,18.385H24.155a1.162,1.162,0,1,1,0-2.324h3.071a1.162,1.162,0,0,1,0,2.324Z" fill="#94e0da"/>
        </g>
        <circle id="Elipse_4928" data-name="Elipse 4928" cx="11.492" cy="11.492" r="11.492" transform="translate(31.008 30.131)" fill="#607880"/>
        <rect id="Rect치ngulo_66931" data-name="Rect치ngulo 66931" width="36.689" height="8.053" rx="2.656" transform="translate(24.155 59.351)" fill="#eaeaf0"/>
        <path id="Trazado_200705" data-name="Trazado 200705" d="M42.5,53.116a11.448,11.448,0,0,0,8.031-3.28l-.39-1.293a5.313,5.313,0,0,0-5.085-3.776H44.8a3.9,3.9,0,1,0-4.6,0h-.254a5.313,5.313,0,0,0-5.085,3.776l-.39,1.291A11.448,11.448,0,0,0,42.5,53.116Z" fill="#94e0da"/>
        <path id="Trazado_200706" data-name="Trazado 200706" d="M51.465,59.351h6.724a2.656,2.656,0,0,1,2.656,2.656v2.739A2.656,2.656,0,0,1,58.188,67.4H51.465Z" fill="#607880"/>
      </g>
      <g id="Grupo_878758" data-name="Grupo 878758">
        <path id="Trazado_200707" data-name="Trazado 200707" d="M24.155,72.882H21.291a1.162,1.162,0,0,0,0,2.324h2.864a1.162,1.162,0,1,0,0-2.324Z"/>
        <path id="Trazado_200708" data-name="Trazado 200708" d="M80.518,9.794H4.482A4.488,4.488,0,0,0,0,14.277v56.8a4.139,4.139,0,0,0,4.134,4.134h9.479a1.162,1.162,0,1,0,0-2.324H4.134a1.812,1.812,0,0,1-1.81-1.812V24.654H82.676V71.072a1.812,1.812,0,0,1-1.81,1.81H31.833a1.162,1.162,0,0,0,0,2.324H80.866A4.139,4.139,0,0,0,85,71.072V14.277A4.488,4.488,0,0,0,80.518,9.794ZM2.324,22.328v-8.05a2.161,2.161,0,0,1,2.158-2.158H80.518a2.161,2.161,0,0,1,2.158,2.158v8.05Z"/>
        <path id="Trazado_200709" data-name="Trazado 200709" d="M78.525,16.061H33a1.162,1.162,0,0,0,0,2.324h45.53a1.162,1.162,0,1,0,0-2.324Z"/>
        <path id="Trazado_200710" data-name="Trazado 200710" d="M9.547,16.061H6.475a1.162,1.162,0,0,0,0,2.324H9.547a1.162,1.162,0,1,0,0-2.324Z"/>
        <path id="Trazado_200711" data-name="Trazado 200711" d="M18.388,16.061H15.315a1.162,1.162,0,0,0,0,2.324h3.073a1.162,1.162,0,1,0,0-2.324Z"/>
        <path id="Trazado_200712" data-name="Trazado 200712" d="M27.227,16.061H24.155a1.162,1.162,0,0,0,0,2.324h3.071a1.162,1.162,0,1,0,0-2.324Z"/>
        <path id="Trazado_200713" data-name="Trazado 200713" d="M42.5,31.293a1.162,1.162,0,1,0,0-2.324,12.654,12.654,0,1,0,8.13,2.956,1.162,1.162,0,0,0-1.494,1.781A10.311,10.311,0,0,1,50.989,47.5a6.418,6.418,0,0,0-3.974-3.59,5.063,5.063,0,1,0-9.031,0A6.418,6.418,0,0,0,34.01,47.5a10.319,10.319,0,0,1,8.49-16.2ZM39.945,45.931H40.2a1.162,1.162,0,0,0,.687-2.1,2.739,2.739,0,1,1,3.228,0,1.162,1.162,0,0,0,.687,2.1h.255a4.126,4.126,0,0,1,3.972,2.948l.177.587a10.283,10.283,0,0,1-13.411,0l.177-.586a4.127,4.127,0,0,1,3.973-2.949Z"/>
        <path id="Trazado_200714" data-name="Trazado 200714" d="M58.188,68.566a3.822,3.822,0,0,0,3.818-3.818V62.007a3.822,3.822,0,0,0-3.818-3.818H26.812a3.823,3.823,0,0,0-3.818,3.818v2.739a3.823,3.823,0,0,0,3.818,3.818H58.188Zm0-8.053a1.5,1.5,0,0,1,1.494,1.494v2.739a1.5,1.5,0,0,1-1.494,1.494H52.627V60.513ZM25.317,64.746V62.007a1.5,1.5,0,0,1,1.494-1.494H50.3v5.729H26.812A1.5,1.5,0,0,1,25.317,64.746Z"/>
      </g>
    </g>
  </g>
</svg>
