<svg xmlns="http://www.w3.org/2000/svg" xmlns:xlink="http://www.w3.org/1999/xlink" width="85" height="85" viewBox="0 0 85 85">
  <defs>
    <clipPath id="clip-path">
      <rect id="Rectángulo_66934" data-name="Rectángulo 66934" width="85" height="85" transform="translate(953 7789)" fill="#fff" stroke="#707070" stroke-width="1"/>
    </clipPath>
  </defs>
  <g id="Enmascarar_grupo_71" data-name="Enmascarar grupo 71" transform="translate(-953 -7789)" clip-path="url(#clip-path)">
    <g id="crimen" transform="translate(953 7789)">
      <g id="Grupo_878767" data-name="Grupo 878767">
        <path id="Trazado_200749" data-name="Trazado 200749" d="M4.482,12.889H80.518a3.32,3.32,0,0,1,3.32,3.32V53.175H1.162V16.209a3.32,3.32,0,0,1,3.32-3.32Z" fill="#f4d844"/>
        <path id="Trazado_200750" data-name="Trazado 200750" d="M30.618,22.237a10.656,10.656,0,0,1-.244-2.266v-.633a3.3,3.3,0,1,0,.974,6.24Z" fill="#edc1b2"/>
        <path id="Trazado_200751" data-name="Trazado 200751" d="M54.954,19.3a2.989,2.989,0,0,0-.332.025v.644a10.758,10.758,0,0,1-.242,2.265l-.73,3.339-.01.046a3.264,3.264,0,0,0,1.312.28,3.3,3.3,0,0,0,0-6.6Z" fill="#edc1b2"/>
        <path id="Trazado_200752" data-name="Trazado 200752" d="M30.375,16.851v3.121a10.758,10.758,0,0,0,.242,2.265l.638,2.913h6.162a2.428,2.428,0,0,0,2.137-1.274A2.43,2.43,0,0,1,41.692,22.6h1.616a2.43,2.43,0,0,1,2.138,1.274,2.428,2.428,0,0,0,2.137,1.274h6.162l.638-2.913a10.758,10.758,0,0,0,.242-2.265V16.851Z" fill="#f4d5c8"/>
        <path id="Trazado_200753" data-name="Trazado 200753" d="M1.162,53.175H83.838v8.19a3.32,3.32,0,0,1-3.32,3.32H4.482a3.32,3.32,0,0,1-3.32-3.32Z" fill="#607880"/>
        <path id="Trazado_200754" data-name="Trazado 200754" d="M56.258,78.911H28.742a11.569,11.569,0,0,0,6.646-10.469V64.686H49.612v3.756A11.569,11.569,0,0,0,56.258,78.91Z" fill="#4a6268"/>
        <rect id="Rectángulo_66936" data-name="Rectángulo 66936" width="42.583" height="4.927" rx="2.464" transform="translate(21.208 78.911)" fill="#607880"/>
        <path id="Trazado_200755" data-name="Trazado 200755" d="M46.4,60.093H38.6a1.162,1.162,0,0,1,0-2.324h7.8a1.162,1.162,0,0,1,0,2.324Z" fill="#94e0da"/>
        <g id="Grupo_878766" data-name="Grupo 878766">
          <path id="Trazado_200756" data-name="Trazado 200756" d="M37.17,17.566A2.333,2.333,0,1,0,39.5,19.9,2.333,2.333,0,0,0,37.17,17.566Z" fill="#607880"/>
          <path id="Trazado_200757" data-name="Trazado 200757" d="M47.83,17.566A2.333,2.333,0,1,0,50.164,19.9a2.333,2.333,0,0,0-2.334-2.333Z" fill="#607880"/>
        </g>
        <path id="Trazado_200758" data-name="Trazado 200758" d="M47.583,25.151a2.428,2.428,0,0,1-2.137-1.274A2.43,2.43,0,0,0,43.308,22.6H41.692a2.431,2.431,0,0,0-2.138,1.274,2.428,2.428,0,0,1-2.137,1.274H31.255l.093.426a32.511,32.511,0,0,0,1.313,5.283,10.625,10.625,0,0,0,19.677,0,32.512,32.512,0,0,0,1.313-5.283l.093-.426Z" fill="#607880"/>
        <rect id="Rectángulo_66937" data-name="Rectángulo 66937" width="30.957" height="4.018" rx="2.009" transform="translate(27.296 12.832)" fill="#4a6268"/>
        <path id="Trazado_200759" data-name="Trazado 200759" d="M38.658,1.162h7.683a8.284,8.284,0,0,1,8.284,8.284v3.387H30.375V9.446a8.284,8.284,0,0,1,8.284-8.284Z" fill="#607880"/>
        <path id="Trazado_200760" data-name="Trazado 200760" d="M49.793,40.833a3.248,3.248,0,0,1-.465-1.284L48.8,35.394a10.593,10.593,0,0,1-12.6,0l-.531,4.156a3.27,3.27,0,0,1-.465,1.283,15.074,15.074,0,0,0,14.588,0Z" fill="#4a6268"/>
        <path id="Trazado_200761" data-name="Trazado 200761" d="M53.931,42.691c-.128-.013-.256-.022-.384-.037a5.528,5.528,0,0,1-2.872-.842,3.652,3.652,0,0,1-.882-.979,15.074,15.074,0,0,1-14.588,0,3.52,3.52,0,0,1-.8.909,4.864,4.864,0,0,1-2.641.863c-.24.027-.481.049-.723.071a18.7,18.7,0,0,0,22.884.017Z" fill="#94e0da"/>
        <path id="Trazado_200762" data-name="Trazado 200762" d="M69.359,53.175a10.867,10.867,0,0,0-7.96-9.629,44.469,44.469,0,0,0-7.467-.856,18.7,18.7,0,0,1-22.884-.017,43.022,43.022,0,0,0-7.446.873,10.867,10.867,0,0,0-7.96,9.629Z" fill="#4a6268"/>
      </g>
      <g id="Grupo_878768" data-name="Grupo 878768">
        <path id="Trazado_200763" data-name="Trazado 200763" d="M1.162,35.8a1.162,1.162,0,0,0,1.162-1.162V31.8A1.162,1.162,0,0,0,0,31.8v2.838A1.162,1.162,0,0,0,1.162,35.8Z"/>
        <path id="Trazado_200764" data-name="Trazado 200764" d="M80.518,11.727H56.8a3.158,3.158,0,0,0-.558-.056h-.458V9.446A9.457,9.457,0,0,0,46.342,0H38.658a9.457,9.457,0,0,0-9.446,9.446V11.68a3.149,3.149,0,0,0-.465.047H4.482A4.488,4.488,0,0,0,0,16.209V23.72a1.162,1.162,0,1,0,2.324,0V16.209a2.161,2.161,0,0,1,2.158-2.158H26.246A3.121,3.121,0,0,0,29.213,18v.2a4.458,4.458,0,1,0,1.246,8.828c0,.023.01.046.015.07a22.875,22.875,0,0,0,1.111,4.2,11.766,11.766,0,0,0,3.378,4.615L34.517,39.4c-.308,2.419-3.785,2.146-5.548,2.258a28.342,28.342,0,0,0-5.674.764,12.045,12.045,0,0,0-8.675,9.592H2.324v-9.3a1.162,1.162,0,1,0-2.324,0V61.365a4.488,4.488,0,0,0,4.482,4.482H34.226v2.594a10.445,10.445,0,0,1-5.765,9.307H23.672a3.626,3.626,0,1,0,0,7.252H61.328a3.626,3.626,0,0,0,0-7.252H56.539a10.445,10.445,0,0,1-5.765-9.307V65.848H80.518A4.488,4.488,0,0,0,85,61.365V16.209A4.488,4.488,0,0,0,80.518,11.727ZM31.537,9.446a7.13,7.13,0,0,1,7.121-7.122h7.683a7.13,7.13,0,0,1,7.121,7.122V11.67H31.537Zm-3.079,5.4a.841.841,0,0,1,.568-.791h27.5a.841.841,0,0,1-.278,1.638H29.305a.848.848,0,0,1-.847-.847Zm27.061,7.637a11.936,11.936,0,0,0,.234-1.859,2.132,2.132,0,0,1-.727,4.11ZM53.46,19.969a18.9,18.9,0,0,1-.653,4.017H47.583a1.267,1.267,0,0,1-1.115-.664,3.589,3.589,0,0,0-3.16-1.883H41.692a3.589,3.589,0,0,0-3.16,1.883,1.267,1.267,0,0,1-1.115.664H32.19c-.209-.952-.465-1.909-.584-2.877a25.937,25.937,0,0,1-.066-3.1h4.272a2.333,2.333,0,1,0,2.723,0H46.47a2.334,2.334,0,1,0,2.723,0h4.272ZM27.788,22.6a2.133,2.133,0,0,1,1.458-2.018,12.1,12.1,0,0,0,.236,1.9l.493,2.25c-.017,0-.033.006-.05.006A2.14,2.14,0,0,1,27.788,22.6Zm5.951,7.819a21.1,21.1,0,0,1-.984-3.771c-.023-.114-.046-.225-.066-.339H37.42a3.589,3.589,0,0,0,3.154-1.883,1.266,1.266,0,0,1,1.115-.664h1.616a1.267,1.267,0,0,1,1.115.664,3.589,3.589,0,0,0,3.16,1.883h4.735c-.023.114-.046.224-.066.339a21.117,21.117,0,0,1-.983,3.77,9.464,9.464,0,0,1-17.524,0Zm1.4,12.224A4.714,4.714,0,0,0,35.5,42.3a16.306,16.306,0,0,0,14,0,4.77,4.77,0,0,0,.47.436,4.274,4.274,0,0,0,.973.558,17.742,17.742,0,0,1-16.894-.006A4.4,4.4,0,0,0,35.14,42.647Zm7.36-4.014a11.794,11.794,0,0,0,5.379-1.295A20.84,20.84,0,0,0,48.3,40.3a14.012,14.012,0,0,1-11.6,0,20.635,20.635,0,0,0,.424-2.957A11.8,11.8,0,0,0,42.5,38.633ZM23.906,44.668a26.156,26.156,0,0,1,5.214-.686c.531-.035,1.059-.075,1.587-.118a19.816,19.816,0,0,0,23.56.017q.874.074,1.754.133a25.182,25.182,0,0,1,5.069.657,1.162,1.162,0,1,0,.613-2.243,27.387,27.387,0,0,0-5.536-.734c-.7-.044-1.424-.157-2.125-.157-1.441-.14-3.328-.327-3.56-2.132l-.446-3.49A11.763,11.763,0,0,0,53.416,31.3a22.865,22.865,0,0,0,1.11-4.194l.012-.058c.138.013.276.022.416.022a4.461,4.461,0,0,0,.833-8.843v-.211h.459a3.175,3.175,0,0,0,3.171-3.171,3.141,3.141,0,0,0-.112-.791H80.518a2.161,2.161,0,0,1,2.158,2.158v35.8h-12.3a12,12,0,0,0-1.938-4.8,1.162,1.162,0,1,0-1.915,1.316,9.691,9.691,0,0,1,1.494,3.48H16.98a9.718,9.718,0,0,1,6.926-7.345ZM62.628,81.374a1.3,1.3,0,0,1-1.3,1.3H23.672a1.3,1.3,0,0,1,0-2.6H61.328a1.3,1.3,0,0,1,1.3,1.3ZM52.5,77.748h-20a12.784,12.784,0,0,0,4.051-9.307V65.848h11.9v2.594A12.786,12.786,0,0,0,52.5,77.748ZM82.676,61.365a2.161,2.161,0,0,1-2.158,2.158H4.482a2.161,2.161,0,0,1-2.158-2.158V54.338H82.676Z"/>
        <path id="Trazado_200765" data-name="Trazado 200765" d="M46.4,57.769H38.6a1.162,1.162,0,0,0,0,2.324h7.8a1.162,1.162,0,0,0,0-2.324Z"/>
      </g>
    </g>
  </g>
</svg>
