<svg xmlns="http://www.w3.org/2000/svg" width="175.473" height="142.913" viewBox="0 0 175.473 142.913">
  <g id="Grupo_878713" data-name="Grupo 878713" transform="translate(-404.527 -5462.087)">
    <path id="Trazado_200428" data-name="Trazado 200428" d="M318.738,384.435a69.26,69.26,0,1,1-69.26-69.261A69.261,69.261,0,0,1,318.738,384.435Z" transform="translate(242.31 5146.914)" fill="#8b55f1"/>
    <g id="Grupo_878722" data-name="Grupo 878722" transform="translate(378.767 5297.855)">
      <path id="Trazado_200494" data-name="Trazado 200494" d="M105.021,283.237l49.988,1.406L170.486,240.3l.9-.288L155.6,285.766l-50.575-1.609Z" transform="translate(29.846 14.922)" fill="#7f7f7f"/>
      <path id="Trazado_200495" data-name="Trazado 200495" d="M112.984,259.136l-7.963,16.9,49.988,1.406-10.561-18.305Z" transform="translate(29.846 22.124)" fill="#aaa"/>
      <path id="Trazado_200496" data-name="Trazado 200496" d="M159.7,242.605l-15.477,44.348-10.561-18.305,10.561-34.774Z" transform="translate(40.631 12.612)" fill="#969696"/>
      <path id="Trazado_200497" data-name="Trazado 200497" d="M105.574,256.962c.94-2.085,12.01-8.188,12.812-8.188s15.442-.9,15.821,1.878c.224,1.644-11.7.548-11.7,1.617s6.753.456,9.387,2.255c3.861,2.639,5.865,4.468,3.977,5.181-1.616.61-4.671-2.357-5.464-2.776-2.007-1.061-4.4-.856-4.789-.339-.6.809,10.634,4.958,9.226,6.836s-23.874,2.01-23.874,2.01Z" transform="translate(30.054 18.17)" fill="#db826a"/>
      <path id="Trazado_200498" data-name="Trazado 200498" d="M79.813,240.287c1.3,1.824,17.391,25.242,18.33,25.713s16.194-8.917,18.071-7.98,6.335,7.509,4.459,10.56-35.665,10.6-35.665,10.6Z" transform="translate(20.354 15.027)" fill="#161515"/>
      <path id="Trazado_200499" data-name="Trazado 200499" d="M108.984,261.585c.714-1.86,11.109-7.1,13.69-6.4s12.6,4.989,14.238,7.8a7.718,7.718,0,0,1,.78,6.248c-.107.559-2.383.988-2.383-3.056,0-2.675-4.763-4.7-4.912-3.863-.081.464,1.089,1.165,2.576,3.594,1.352,2.212,1.6,6.236,1.356,6.23-3.128-.063-2.237-3.044-3.663-5.052-1.053-1.48-3.268-3.189-4.076-2.573-.266.2,1.8,2.183,2.574,3.539.4.71-.134,4.738-.374,4.934-.686.557-1.678-.31-1.931-1.178-.284-.969.178-2.039-.646-3.165a7.107,7.107,0,0,0-3.754-2.467c-.937-.235-6.06,1.233-9.005,1.032C112.75,267.169,108.984,261.585,108.984,261.585Z" transform="translate(31.338 20.614)" fill="#ffb18f"/>
      <path id="Trazado_200500" data-name="Trazado 200500" d="M115.773,220.265c.929,3.1-3.052,9.622-5.162,11.5s-2.507,8.964-3.444,10.137-3.487-2.319-4.426-1.85-1.525,2.523-2.319,3.11c-.569.414-2.248-.42-2.248-.42s.944,1.109.546,1.736c-.9,1.405-3.6,1.134-4.069,2.072s.436,3.843-3.286,3.287c-3.023-.452-4.687-3.71-6.565-10.751S115.773,220.265,115.773,220.265Z" transform="translate(22.203 7.487)" fill="#ffb18f"/>
      <path id="Trazado_200501" data-name="Trazado 200501" d="M82.122,227.752c1.728-3.649,14.264-27.329,29.1-27.371,25.627-.072,34.477,28.894,33.57,30.891-1.079,2.373-8.694,3.286-21.924,13.613-8.766,6.84-19.027,14.324-18.5,16.9,2.581,12.672-2.274,31.122-3.47,35.906-.469,1.879-72.062,1.392-74.254-3.483-3.223-7.17,1.655-38.146,26.9-57.851C68.048,225.031,80.675,230.8,82.122,227.752Z" transform="translate(0)" fill="#161515"/>
      <path id="Trazado_200502" data-name="Trazado 200502" d="M84.18,259.289c-.524-2.571,9.736-10.056,18.5-16.9,13.23-10.327,20.845-11.24,21.924-13.613.57-1.253-2.709-13.13-11.563-21.784-9.568.9-22.175,4.518-29.519,19.32-8.087,16.3-1.886,45.441-1.886,45.441l3.267-2.684A44.533,44.533,0,0,0,84.18,259.289Z" transform="translate(20.186 2.491)" fill="#232222"/>
      <path id="Trazado_200503" data-name="Trazado 200503" d="M54.091,243.382s-1.94,13.252,4.383,25.187,23.048,7.99,23.048,7.99Z" transform="translate(10.563 16.192)" fill="#111010"/>
      <path id="Trazado_200504" data-name="Trazado 200504" d="M58.535,232.729c2.138-2.593,13.863-4.208,19.5.017s26.885,34.534,27.437,42.7c.069.991,15.672-5.174,19.01-6.572,8.683-3.629,12.875,3.857,13.507,8.314s-27,20.794-38.04,18.53c-6.358-1.306-44.463-35.533-45.872-42.1S53.7,238.6,58.535,232.729Z" transform="translate(10.444 11.208)" fill="#262626"/>
      <path id="Trazado_200505" data-name="Trazado 200505" d="M115.365,263.432c-3.338,1.4-18.941,7.563-19.01,6.572-.3-4.47-6.8-15.566-13.551-25.395-5.108,2.852-6.991,11.183-2.808,19.5,6.243,12.418,18.694,21.873,26.8,17.945a58.935,58.935,0,0,0,19.938-15.669C124.6,263.326,120.9,261.119,115.365,263.432Z" transform="translate(19.558 16.654)" fill="#2b2b2b"/>
      <path id="Trazado_200506" data-name="Trazado 200506" d="M72.877,245.977c2.037,1.393,15.552,11.048,17.8,16.626s1.074,8.9,1.074,8.9-1.174-6.6-4.505-10.833C83.71,256.168,72.877,245.977,72.877,245.977Z" transform="translate(17.742 17.169)" fill="#353535"/>
      <path id="Trazado_200507" data-name="Trazado 200507" d="M91.8,281.51s4.037-.033,5.9-1.287a8,8,0,0,0,3.09-4.806c-.552-8.17-21.8-38.48-27.437-42.7a14.818,14.818,0,0,0-7.42-2.482c5.592,2.364,8.917,2.687,19.985,20.4,12.97,20.756,12.1,25.411,11.675,27.235S91.8,281.51,91.8,281.51Z" transform="translate(15.126 11.24)" fill="#90ced6"/>
      <path id="Trazado_200508" data-name="Trazado 200508" d="M92.174,264.017a7.993,7.993,0,0,1,2.142,4.208c.483,2.693-1.489,5.336-1.489,5.336s.055-4.013-.132-6A33.658,33.658,0,0,0,92.174,264.017Z" transform="translate(25.008 23.962)" fill="#191919"/>
      <path id="Trazado_200509" data-name="Trazado 200509" d="M99.786,236.887c13.23-10.327,20.845-11.24,21.924-13.613a3.716,3.716,0,0,0-.085-1.655,58.648,58.648,0,0,0-7.1,3.922,233.287,233.287,0,0,0-21.689,15.339,36.884,36.884,0,0,0-5.773,6.051C90.652,243.884,95.405,240.305,99.786,236.887Z" transform="translate(23.082 7.998)" fill="#90ced6"/>
      <path id="Trazado_200510" data-name="Trazado 200510" d="M156.812,242.67l.9-.288-15.428-8.68-.949.237Z" transform="translate(43.52 12.547)" fill="#d1d1d1"/>
      <path id="Trazado_200511" data-name="Trazado 200511" d="M144.4,235.573l13.195,7.482-13.782,40.306-9.067-15.353Z" transform="translate(41.04 13.252)" fill="#55dbff"/>
      <path id="Trazado_200512" data-name="Trazado 200512" d="M78.924,216.193s1.338,13.293.095,15.808a7.018,7.018,0,0,1-7.077,3.915s3.6-3.044,4.282-7.281C77.244,222.313,78.924,216.193,78.924,216.193Z" transform="translate(17.39 5.954)" fill="#111010"/>
      <path id="Trazado_200513" data-name="Trazado 200513" d="M73.226,217.823s2.855,4.793,1.834,8.466-6.526,4.894-6.526,4.894,3.468-6.119,3.977-9.076S73.226,217.823,73.226,217.823Z" transform="translate(16.106 6.568)" fill="#111010"/>
      <path id="Trazado_200514" data-name="Trazado 200514" d="M93.711,263.387s2.314,7.058,0,10.411-8.988,4.475-8.988,4.475,7.289-7.073,7.9-9.248A52.935,52.935,0,0,0,93.711,263.387Z" transform="translate(22.203 23.725)" fill="#111010"/>
      <path id="Trazado_200515" data-name="Trazado 200515" d="M53.542,228.559c-25.246,19.705-30.123,50.68-26.9,57.851.686,1.527,8.182,2.624,18.168,3.352-2.37-10.492-.915-25.806,3.832-39.2,6.044-17.062,15.3-26.324,25.578-29.477A33.978,33.978,0,0,0,53.542,228.559Z" transform="translate(0 7.794)" fill="#111010"/>
      <path id="Trazado_200516" data-name="Trazado 200516" d="M94.285,290.333c-6.974-5.563-27.329-31.972-28.349-42.838-.731-7.779.841-14.094,2.609-17.346-4.514-.041-8.8,1.111-10.01,2.58-4.836,5.868-5.867,14.318-4.46,20.888s39.514,40.8,45.872,42.1a15.68,15.68,0,0,0,5.443-.062A34.713,34.713,0,0,1,94.285,290.333Z" transform="translate(10.444 11.209)" fill="#1c1b1b"/>
    </g>
  </g>
</svg>
