<svg xmlns="http://www.w3.org/2000/svg" xmlns:xlink="http://www.w3.org/1999/xlink" width="85" height="85" viewBox="0 0 85 85">
  <defs>
    <clipPath id="clip-path">
      <rect id="Rect치ngulo_66908" data-name="Rect치ngulo 66908" width="85" height="85" transform="translate(451 7789)" fill="#fff" stroke="#707070" stroke-width="1"/>
    </clipPath>
  </defs>
  <g id="Enmascarar_grupo_60" data-name="Enmascarar grupo 60" transform="translate(-451 -7789)" clip-path="url(#clip-path)">
    <g id="hackear" transform="translate(451 7789)">
      <g id="Grupo_878738" data-name="Grupo 878738">
        <path id="Trazado_200534" data-name="Trazado 200534" d="M1.162,19.5V67.082a2.972,2.972,0,0,0,2.972,2.972H29.086V57.883a2.656,2.656,0,0,1,2.656-2.656H53.258a2.656,2.656,0,0,1,2.656,2.656V70.054h24.95a2.972,2.972,0,0,0,2.972-2.972V19.5Z" fill="#f4d844"/>
        <path id="Trazado_200535" data-name="Trazado 200535" d="M4.482,6.965H80.518a3.32,3.32,0,0,1,3.32,3.32V19.5H1.162V10.286a3.32,3.32,0,0,1,3.32-3.32Z" fill="#607880"/>
        <g id="Grupo_878736" data-name="Grupo 878736">
          <path id="Trazado_200536" data-name="Trazado 200536" d="M78.525,14.394H33a1.162,1.162,0,1,1,0-2.324h45.53a1.162,1.162,0,1,1,0,2.324Z" fill="#94e0da"/>
          <path id="Trazado_200537" data-name="Trazado 200537" d="M9.547,14.394H6.475a1.162,1.162,0,1,1,0-2.324H9.547a1.162,1.162,0,1,1,0,2.324Z" fill="#94e0da"/>
          <path id="Trazado_200538" data-name="Trazado 200538" d="M18.388,14.394H15.315a1.162,1.162,0,0,1,0-2.324h3.073a1.162,1.162,0,1,1,0,2.324Z" fill="#94e0da"/>
          <path id="Trazado_200539" data-name="Trazado 200539" d="M27.227,14.394H24.155a1.162,1.162,0,1,1,0-2.324h3.071a1.162,1.162,0,0,1,0,2.324Z" fill="#94e0da"/>
        </g>
        <g id="Grupo_878737" data-name="Grupo 878737">
          <path id="Trazado_200540" data-name="Trazado 200540" d="M22.664,24.978H19.772a2.493,2.493,0,0,0-2.49,2.49V33a2.493,2.493,0,0,0,2.49,2.49h2.893A2.493,2.493,0,0,0,25.155,33v-5.53a2.493,2.493,0,0,0-2.49-2.49ZM22.83,33a.166.166,0,0,1-.166.166H19.772A.166.166,0,0,1,19.606,33v-5.53a.166.166,0,0,1,.166-.166h2.893a.166.166,0,0,1,.166.166Z" fill="#607880"/>
          <path id="Trazado_200541" data-name="Trazado 200541" d="M33.305,24.978H30.414a2.493,2.493,0,0,0-2.49,2.49V33a2.493,2.493,0,0,0,2.49,2.49h2.893A2.493,2.493,0,0,0,35.8,33v-5.53a2.493,2.493,0,0,0-2.492-2.49ZM33.471,33a.166.166,0,0,1-.166.166H30.414A.166.166,0,0,1,30.248,33v-5.53a.166.166,0,0,1,.166-.166h2.893a.166.166,0,0,1,.166.166Z" fill="#607880"/>
          <path id="Trazado_200542" data-name="Trazado 200542" d="M54.586,24.978H51.695a2.493,2.493,0,0,0-2.49,2.49V33a2.493,2.493,0,0,0,2.49,2.49h2.891A2.493,2.493,0,0,0,57.076,33v-5.53a2.493,2.493,0,0,0-2.49-2.49ZM54.752,33a.166.166,0,0,1-.166.166H51.695A.166.166,0,0,1,51.529,33v-5.53a.166.166,0,0,1,.166-.166h2.891a.166.166,0,0,1,.166.166Z" fill="#607880"/>
          <path id="Trazado_200543" data-name="Trazado 200543" d="M75.869,24.978H72.976a2.493,2.493,0,0,0-2.49,2.49V33a2.493,2.493,0,0,0,2.49,2.49h2.893A2.494,2.494,0,0,0,78.359,33v-5.53A2.494,2.494,0,0,0,75.869,24.978ZM76.035,33a.166.166,0,0,1-.166.166H72.976A.166.166,0,0,1,72.81,33v-5.53a.166.166,0,0,1,.166-.166h2.893a.166.166,0,0,1,.166.166Z" fill="#607880"/>
          <path id="Trazado_200544" data-name="Trazado 200544" d="M12.024,39.522H9.131a2.493,2.493,0,0,0-2.49,2.49v5.53a2.493,2.493,0,0,0,2.49,2.49h2.893a2.493,2.493,0,0,0,2.49-2.49v-5.53a2.493,2.493,0,0,0-2.49-2.49Zm.166,8.02a.167.167,0,0,1-.166.166H9.131a.167.167,0,0,1-.166-.166v-5.53a.166.166,0,0,1,.166-.166h2.893a.166.166,0,0,1,.166.166Z" fill="#607880"/>
          <path id="Trazado_200545" data-name="Trazado 200545" d="M22.664,39.522H19.772a2.493,2.493,0,0,0-2.49,2.49v5.53a2.493,2.493,0,0,0,2.49,2.49h2.893a2.493,2.493,0,0,0,2.49-2.49v-5.53a2.493,2.493,0,0,0-2.49-2.49Zm.166,8.02a.167.167,0,0,1-.166.166H19.772a.167.167,0,0,1-.166-.166v-5.53a.166.166,0,0,1,.166-.166h2.893a.166.166,0,0,1,.166.166Z" fill="#607880"/>
          <path id="Trazado_200546" data-name="Trazado 200546" d="M65.229,39.522H62.335a2.494,2.494,0,0,0-2.49,2.49v5.53a2.494,2.494,0,0,0,2.49,2.49h2.894a2.494,2.494,0,0,0,2.49-2.49v-5.53a2.494,2.494,0,0,0-2.49-2.49Zm.166,8.02a.167.167,0,0,1-.166.166H62.335a.167.167,0,0,1-.166-.166v-5.53a.166.166,0,0,1,.166-.166h2.894a.167.167,0,0,1,.166.166Z" fill="#607880"/>
          <path id="Trazado_200547" data-name="Trazado 200547" d="M12.024,54.065H9.131a2.493,2.493,0,0,0-2.49,2.49v5.53a2.493,2.493,0,0,0,2.49,2.49h2.893a2.493,2.493,0,0,0,2.49-2.49v-5.53A2.493,2.493,0,0,0,12.024,54.065Zm.166,8.021a.167.167,0,0,1-.166.166H9.131a.167.167,0,0,1-.166-.166v-5.53a.166.166,0,0,1,.166-.166h2.893a.166.166,0,0,1,.166.166Z" fill="#607880"/>
          <path id="Trazado_200548" data-name="Trazado 200548" d="M22.664,54.065H19.772a2.493,2.493,0,0,0-2.49,2.49v5.53a2.493,2.493,0,0,0,2.49,2.49h2.893a2.493,2.493,0,0,0,2.49-2.49v-5.53a2.493,2.493,0,0,0-2.49-2.49Zm.166,8.021a.167.167,0,0,1-.166.166H19.772a.167.167,0,0,1-.166-.166v-5.53a.166.166,0,0,1,.166-.166h2.893a.166.166,0,0,1,.166.166Z" fill="#607880"/>
          <path id="Trazado_200549" data-name="Trazado 200549" d="M65.229,54.065H62.335a2.494,2.494,0,0,0-2.49,2.49v5.53a2.494,2.494,0,0,0,2.49,2.49h2.894a2.494,2.494,0,0,0,2.49-2.49v-5.53A2.494,2.494,0,0,0,65.229,54.065Zm.166,8.021a.167.167,0,0,1-.166.166H62.335a.167.167,0,0,1-.166-.166v-5.53a.166.166,0,0,1,.166-.166h2.894a.167.167,0,0,1,.166.166Z" fill="#607880"/>
          <path id="Trazado_200550" data-name="Trazado 200550" d="M75.869,54.065H72.976a2.493,2.493,0,0,0-2.49,2.49v5.53a2.493,2.493,0,0,0,2.49,2.49h2.893a2.494,2.494,0,0,0,2.49-2.49v-5.53A2.494,2.494,0,0,0,75.869,54.065Zm.166,8.021a.167.167,0,0,1-.166.166H72.976a.167.167,0,0,1-.166-.166v-5.53a.166.166,0,0,1,.166-.166h2.893a.166.166,0,0,1,.166.166Z" fill="#607880"/>
          <path id="Trazado_200551" data-name="Trazado 200551" d="M13.352,33.164H11.739V26.14a1.162,1.162,0,0,0-1.881-.913L7.084,27.414A1.162,1.162,0,1,0,8.522,29.24l.893-.7v4.628H7.8a1.162,1.162,0,0,0,0,2.324h5.549a1.162,1.162,0,1,0,0-2.324Z" fill="#607880"/>
          <path id="Trazado_200552" data-name="Trazado 200552" d="M77.2,47.708H75.584V40.684a1.162,1.162,0,0,0-1.881-.913l-2.774,2.187a1.162,1.162,0,1,0,1.438,1.826l.892-.7v4.628H71.648a1.162,1.162,0,0,0,0,2.324H77.2a1.162,1.162,0,0,0,0-2.324Z" fill="#607880"/>
          <path id="Trazado_200553" data-name="Trazado 200553" d="M45.275,33.164H43.662V26.14a1.162,1.162,0,0,0-1.881-.913l-2.775,2.187a1.162,1.162,0,1,0,1.439,1.826l.893-.7v4.628H39.726a1.162,1.162,0,0,0,0,2.324h5.55a1.162,1.162,0,0,0,0-2.324Z" fill="#607880"/>
          <path id="Trazado_200554" data-name="Trazado 200554" d="M66.557,33.164H64.945V26.14a1.162,1.162,0,0,0-1.881-.913l-2.775,2.187a1.162,1.162,0,1,0,1.438,1.826l.894-.7v4.629H61.007a1.162,1.162,0,0,0,0,2.324h5.55a1.162,1.162,0,0,0,0-2.324Z" fill="#607880"/>
        </g>
        <rect id="Rect치ngulo_66926" data-name="Rect치ngulo 66926" width="26.831" height="22.808" rx="2.656" transform="translate(29.085 55.227)" fill="#de6246"/>
        <path id="Trazado_200555" data-name="Trazado 200555" d="M52.242,55.227H46.93V48.653A2.656,2.656,0,0,0,44.274,46H40.726a2.656,2.656,0,0,0-2.656,2.656v1.294H32.758V48.655a7.977,7.977,0,0,1,7.969-7.969h3.547a7.977,7.977,0,0,1,7.969,7.969Z" fill="#607880"/>
        <path id="Trazado_200556" data-name="Trazado 200556" d="M45.682,64.32a3.182,3.182,0,1,0-4.344,2.956v4.848a1.162,1.162,0,0,0,2.324,0V67.276A3.177,3.177,0,0,0,45.682,64.32Z" fill="#f4d844"/>
      </g>
      <g id="Grupo_878739" data-name="Grupo 878739">
        <path id="Trazado_200557" data-name="Trazado 200557" d="M80.518,5.8H29.551a1.162,1.162,0,0,0,0,2.324H80.518a2.161,2.161,0,0,1,2.158,2.158v8.052H2.324V10.286A2.161,2.161,0,0,1,4.482,8.127h7.637a1.162,1.162,0,1,0,0-2.324H4.482A4.488,4.488,0,0,0,0,10.286v56.8a4.139,4.139,0,0,0,4.134,4.134H27.923v4.162A3.822,3.822,0,0,0,31.741,79.2h19.79a1.162,1.162,0,0,0,0-2.324H31.742a1.5,1.5,0,0,1-1.494-1.494V57.884a1.5,1.5,0,0,1,1.494-1.494H53.258a1.5,1.5,0,0,1,1.494,1.494V75.378a1.162,1.162,0,0,0,2.324,0V71.216H80.864A4.139,4.139,0,0,0,85,67.082v-56.8A4.488,4.488,0,0,0,80.518,5.8ZM44.274,44.836H40.726a3.822,3.822,0,0,0-3.818,3.818v.133H33.92v-.133a6.814,6.814,0,0,1,6.807-6.807h3.547a6.814,6.814,0,0,1,6.807,6.807v5.41H48.092v-5.41a3.822,3.822,0,0,0-3.818-3.818Zm38.4,22.246a1.812,1.812,0,0,1-1.81,1.81H57.078V57.884A3.82,3.82,0,0,0,53.4,54.073V48.655a9.141,9.141,0,0,0-9.131-9.131H40.726A9.141,9.141,0,0,0,31.6,48.655v1.294a1.161,1.161,0,0,0,1.162,1.162H38.07a1.162,1.162,0,0,0,1.162-1.162V48.655a1.5,1.5,0,0,1,1.494-1.494h3.547a1.5,1.5,0,0,1,1.494,1.494v5.41H31.742a3.823,3.823,0,0,0-3.818,3.818V68.891H4.134a1.812,1.812,0,0,1-1.81-1.81V20.664H82.676Z"/>
        <path id="Trazado_200558" data-name="Trazado 200558" d="M18.839,8.127H22.83a1.162,1.162,0,1,0,0-2.324H18.839a1.162,1.162,0,0,0,0,2.324Z"/>
        <path id="Trazado_200559" data-name="Trazado 200559" d="M78.525,14.394a1.162,1.162,0,1,0,0-2.324H33a1.162,1.162,0,0,0,0,2.324Z"/>
        <path id="Trazado_200560" data-name="Trazado 200560" d="M6.475,12.07a1.162,1.162,0,0,0,0,2.324H9.547a1.162,1.162,0,1,0,0-2.324Z"/>
        <path id="Trazado_200561" data-name="Trazado 200561" d="M15.315,14.394h3.073a1.162,1.162,0,1,0,0-2.324H15.315a1.162,1.162,0,0,0,0,2.324Z"/>
        <path id="Trazado_200562" data-name="Trazado 200562" d="M22.993,13.232a1.162,1.162,0,0,0,1.162,1.162h3.071a1.162,1.162,0,1,0,0-2.324H24.155a1.163,1.163,0,0,0-1.162,1.162Z"/>
        <path id="Trazado_200563" data-name="Trazado 200563" d="M19.772,35.488h2.893A2.493,2.493,0,0,0,25.155,33v-5.53a2.493,2.493,0,0,0-2.49-2.49H19.772a2.493,2.493,0,0,0-2.49,2.49V33A2.493,2.493,0,0,0,19.772,35.488Zm-.166-8.02a.166.166,0,0,1,.166-.166h2.893a.166.166,0,0,1,.166.166V33a.166.166,0,0,1-.166.166H19.772A.166.166,0,0,1,19.606,33Z"/>
        <path id="Trazado_200564" data-name="Trazado 200564" d="M30.414,35.488h2.893A2.493,2.493,0,0,0,35.8,33v-5.53a2.493,2.493,0,0,0-2.49-2.49H30.414a2.493,2.493,0,0,0-2.49,2.49V33A2.493,2.493,0,0,0,30.414,35.488Zm-.166-8.02a.166.166,0,0,1,.166-.166h2.893a.166.166,0,0,1,.166.166V33a.166.166,0,0,1-.166.166H30.414A.166.166,0,0,1,30.248,33Z"/>
        <path id="Trazado_200565" data-name="Trazado 200565" d="M51.695,35.488h2.891A2.493,2.493,0,0,0,57.076,33v-5.53a2.493,2.493,0,0,0-2.49-2.49H51.695a2.493,2.493,0,0,0-2.49,2.49V33a2.493,2.493,0,0,0,2.49,2.49Zm-.163-8.02A.166.166,0,0,1,51.7,27.3h2.889a.166.166,0,0,1,.166.166V33a.166.166,0,0,1-.166.166H51.695A.166.166,0,0,1,51.529,33Z"/>
        <path id="Trazado_200566" data-name="Trazado 200566" d="M72.976,35.488h2.893A2.494,2.494,0,0,0,78.359,33v-5.53a2.494,2.494,0,0,0-2.49-2.49H72.976a2.493,2.493,0,0,0-2.49,2.49V33A2.493,2.493,0,0,0,72.976,35.488Zm-.166-8.02a.166.166,0,0,1,.166-.166h2.893a.166.166,0,0,1,.166.166V33a.166.166,0,0,1-.166.166H72.976A.166.166,0,0,1,72.81,33Z"/>
        <path id="Trazado_200567" data-name="Trazado 200567" d="M9.131,50.032h2.893a2.493,2.493,0,0,0,2.49-2.49v-5.53a2.493,2.493,0,0,0-2.49-2.49H9.131a2.493,2.493,0,0,0-2.49,2.49v5.53a2.493,2.493,0,0,0,2.49,2.49Zm-.166-8.02a.166.166,0,0,1,.166-.166h2.893a.166.166,0,0,1,.166.166v5.53a.167.167,0,0,1-.166.166H9.131a.167.167,0,0,1-.166-.166Z"/>
        <path id="Trazado_200568" data-name="Trazado 200568" d="M19.772,50.032h2.893a2.493,2.493,0,0,0,2.49-2.49v-5.53a2.493,2.493,0,0,0-2.49-2.49H19.772a2.493,2.493,0,0,0-2.49,2.49v5.53a2.493,2.493,0,0,0,2.49,2.49Zm-.166-8.02a.166.166,0,0,1,.166-.166h2.893a.166.166,0,0,1,.166.166v5.53a.167.167,0,0,1-.166.166H19.772a.167.167,0,0,1-.166-.166Z"/>
        <path id="Trazado_200569" data-name="Trazado 200569" d="M62.335,50.032h2.894a2.494,2.494,0,0,0,2.49-2.49v-5.53a2.494,2.494,0,0,0-2.49-2.49H62.335a2.494,2.494,0,0,0-2.49,2.49v5.53a2.494,2.494,0,0,0,2.49,2.49Zm-.166-8.02a.166.166,0,0,1,.166-.166h2.894a.167.167,0,0,1,.166.166v5.53a.167.167,0,0,1-.166.166H62.335a.167.167,0,0,1-.166-.166Z"/>
        <path id="Trazado_200570" data-name="Trazado 200570" d="M9.131,64.575h2.893a2.493,2.493,0,0,0,2.49-2.49v-5.53a2.493,2.493,0,0,0-2.49-2.49H9.131a2.493,2.493,0,0,0-2.49,2.49v5.53a2.493,2.493,0,0,0,2.49,2.49Zm-.166-8.021a.166.166,0,0,1,.166-.166h2.893a.166.166,0,0,1,.166.166v5.53a.167.167,0,0,1-.166.166H9.131a.167.167,0,0,1-.166-.166Z"/>
        <path id="Trazado_200571" data-name="Trazado 200571" d="M19.772,64.575h2.893a2.493,2.493,0,0,0,2.49-2.49v-5.53a2.493,2.493,0,0,0-2.49-2.49H19.772a2.493,2.493,0,0,0-2.49,2.49v5.53a2.493,2.493,0,0,0,2.49,2.49Zm-.166-8.021a.166.166,0,0,1,.166-.166h2.893a.166.166,0,0,1,.166.166v5.53a.167.167,0,0,1-.166.166H19.772a.167.167,0,0,1-.166-.166Z"/>
        <path id="Trazado_200572" data-name="Trazado 200572" d="M62.335,64.575h2.894a2.494,2.494,0,0,0,2.49-2.49v-5.53a2.494,2.494,0,0,0-2.49-2.49H62.335a2.494,2.494,0,0,0-2.49,2.49v5.53a2.494,2.494,0,0,0,2.49,2.49Zm-.166-8.021a.166.166,0,0,1,.166-.166h2.894a.167.167,0,0,1,.166.166v5.53a.167.167,0,0,1-.166.166H62.335a.167.167,0,0,1-.166-.166Z"/>
        <path id="Trazado_200573" data-name="Trazado 200573" d="M72.976,64.575h2.893a2.494,2.494,0,0,0,2.49-2.49v-5.53a2.494,2.494,0,0,0-2.49-2.49H72.976a2.493,2.493,0,0,0-2.49,2.49v5.53a2.493,2.493,0,0,0,2.49,2.49Zm-.166-8.021a.166.166,0,0,1,.166-.166h2.893a.166.166,0,0,1,.166.166v5.53a.167.167,0,0,1-.166.166H72.976a.167.167,0,0,1-.166-.166Z"/>
        <path id="Trazado_200574" data-name="Trazado 200574" d="M7.8,33.164a1.162,1.162,0,0,0,0,2.324h5.549a1.162,1.162,0,1,0,0-2.324H11.739V26.14a1.162,1.162,0,0,0-1.881-.913L7.084,27.414A1.162,1.162,0,1,0,8.522,29.24l.893-.7v4.628Z"/>
        <path id="Trazado_200575" data-name="Trazado 200575" d="M71.648,50.032H77.2a1.162,1.162,0,0,0,0-2.324H75.584V40.684a1.162,1.162,0,0,0-1.881-.913l-2.774,2.187a1.162,1.162,0,1,0,1.438,1.826l.892-.7v4.628H71.648a1.162,1.162,0,0,0,0,2.324Z"/>
        <path id="Trazado_200576" data-name="Trazado 200576" d="M39.726,33.164a1.162,1.162,0,0,0,0,2.324h5.55a1.162,1.162,0,0,0,0-2.324H43.662V26.14a1.162,1.162,0,0,0-1.881-.913l-2.775,2.187a1.162,1.162,0,1,0,1.439,1.826l.893-.7v4.628Z"/>
        <path id="Trazado_200577" data-name="Trazado 200577" d="M61.007,33.164a1.162,1.162,0,0,0,0,2.324h5.55a1.162,1.162,0,0,0,0-2.324H64.945V26.14a1.162,1.162,0,0,0-1.881-.913l-2.775,2.187a1.162,1.162,0,1,0,1.438,1.826l.894-.7v4.629Z"/>
        <path id="Trazado_200578" data-name="Trazado 200578" d="M42.5,73.285a1.163,1.163,0,0,0,1.162-1.162V68.5a4.344,4.344,0,1,0-2.324,0v3.621A1.163,1.163,0,0,0,42.5,73.285ZM40.48,64.32A2.02,2.02,0,1,1,42.5,66.34,2.02,2.02,0,0,1,40.48,64.32Z"/>
      </g>
    </g>
  </g>
</svg>
