<svg id="tarea" xmlns="http://www.w3.org/2000/svg" xmlns:xlink="http://www.w3.org/1999/xlink" width="195" height="195" viewBox="0 0 195 195">
  <defs>
    <linearGradient id="linear-gradient" x1="-0.022" y1="0.91" x2="0.24" y2="1.182" gradientUnits="objectBoundingBox">
      <stop offset="0" stop-color="#dbeefb"/>
      <stop offset="1" stop-color="#299ae6"/>
    </linearGradient>
    <linearGradient id="linear-gradient-2" x1="-0.521" y1="1.101" x2="-0.018" y2="1.421" gradientUnits="objectBoundingBox">
      <stop offset="0" stop-color="#299ae6"/>
      <stop offset="1" stop-color="#94ccf3"/>
    </linearGradient>
    <linearGradient id="linear-gradient-3" x1="-0.413" y1="1.253" x2="-0.093" y2="1.528" xlink:href="#linear-gradient-2"/>
  </defs>
  <g id="Icon_44">
    <path id="Contour_42_" d="M106.063,184.925a2.738,2.738,0,0,0-2.882-1.412c-5.668.961-21.988,1.46-23.256-23.947-1.576-30.806,35.811-83.418,90.641-72.957,44.053,8.405,11.162,50.306,38.145,60.882,15.792,6.186,30.067,37.914-5,65.474-18.962,14.9-67.645,28.068-97.644-28.04Z" transform="translate(-54.335 -57.992)" fill="url(#linear-gradient)"/>
    <path id="Contour-2_39_" d="M2.882,433.291a2.882,2.882,0,1,1,2.882-2.882A2.882,2.882,0,0,1,2.882,433.291Zm0-3.842a.951.951,0,1,1,0,.019Z" transform="translate(0 -290.816)" fill="#12263f"/>
    <path id="Contour-3_39_" d="M347.409,5.764a2.882,2.882,0,1,1,2.882-2.882A2.882,2.882,0,0,1,347.409,5.764Zm0-3.842a.961.961,0,1,0,.961.961A.961.961,0,0,0,347.409,1.921Z" transform="translate(-234.357)" fill="#12263f"/>
    <path id="Contour-4_39_" d="M594.667,479.312a2.882,2.882,0,1,1,2.882-2.882A2.882,2.882,0,0,1,594.667,479.312Zm0-3.842a.961.961,0,1,0,.961.961A.961.961,0,0,0,594.667,475.469Z" transform="translate(-402.549 -322.12)" fill="#12263f"/>
    <g id="Group_39_" transform="translate(16.33 41.709)">
      <path id="Contour-5_39_" d="M53.95,139.144a.961.961,0,0,0-.961-.961h-.961a.961.961,0,1,0,0,1.921h.961A.961.961,0,0,0,53.95,139.144Z" transform="translate(-51.068 -135.705)" fill="#12263f"/>
      <path id="Contour-6_39_" d="M60.019,133.315a.961.961,0,0,0,.961-.961v-1.028a.963.963,0,0,0-1.921,0v1.028A.961.961,0,0,0,60.019,133.315Z" transform="translate(-56.503 -130.433)" fill="#12263f"/>
      <path id="Contour-7_39_" d="M65.893,138.183H64.856a.961.961,0,1,0,0,1.921h1.037a.961.961,0,1,0,0-1.921Z" transform="translate(-59.793 -135.705)" fill="#12263f"/>
      <path id="Contour-8_39_" d="M60.019,143.17a.961.961,0,0,0-.961.961v1.037a.964.964,0,0,0,1.921,0v-1.037A.961.961,0,0,0,60.019,143.17Z" transform="translate(-56.503 -139.097)" fill="#12263f"/>
    </g>
    <g id="Group-2_39_" transform="translate(170.726 54.965)">
      <path id="Contour-9_39_" d="M536.857,180.719a.961.961,0,0,0-.961-.961H534.86a.961.961,0,1,0,0,1.921H535.9A.96.96,0,0,0,536.857,180.719Z" transform="translate(-533.899 -177.241)" fill="#12263f"/>
      <path id="Contour-10_39_" d="M542.97,174.77a.961.961,0,0,0,.961-.961v-1.028a.963.963,0,0,0-1.921,0v1.028A.961.961,0,0,0,542.97,174.77Z" transform="translate(-539.416 -171.888)" fill="#12263f"/>
      <path id="Contour-11_39_" d="M548.926,179.758H547.85a.964.964,0,0,0,0,1.921h1.037a.961.961,0,0,0,0-1.921Z" transform="translate(-542.788 -177.241)" fill="#12263f"/>
      <path id="Contour-12_39_" d="M542.97,184.625a.961.961,0,0,0-.961.961v1.037a.964.964,0,0,0,1.921,0v-1.037A.961.961,0,0,0,542.97,184.625Z" transform="translate(-539.416 -180.552)" fill="#12263f"/>
    </g>
    <g id="Group-3_39_" transform="translate(86.732 188.045)">
      <path id="Contour-13_39_" d="M274.189,596.892a.961.961,0,0,0-.961-.961h-1.037a.961.961,0,1,0,0,1.921h1.037A.961.961,0,0,0,274.189,596.892Z" transform="translate(-271.23 -593.414)" fill="#12263f"/>
      <path id="Contour-14_39_" d="M280.332,590.942a.961.961,0,0,0,.961-.961v-1.028a.963.963,0,0,0-1.921,0v1.028A.961.961,0,0,0,280.332,590.942Z" transform="translate(-276.768 -588.06)" fill="#12263f"/>
      <path id="Contour-15_39_" d="M286.175,595.931h-1.037a.961.961,0,1,0,0,1.921h1.037a.961.961,0,1,0,0-1.921Z" transform="translate(-280.037 -593.414)" fill="#12263f"/>
      <path id="Contour-16_39_" d="M280.332,600.8a.961.961,0,0,0-.961.961v1.037a.964.964,0,0,0,1.921,0v-1.037A.961.961,0,0,0,280.332,600.8Z" transform="translate(-276.768 -596.724)" fill="#12263f"/>
    </g>
    <path id="Contour-17_39_" d="M148.271,78.374h84.465a2.728,2.728,0,0,1,2.728,2.728V198.121a2.728,2.728,0,0,1-2.728,2.728H148.271a2.728,2.728,0,0,1-2.728-2.728V81.1A2.728,2.728,0,0,1,148.271,78.374Z" transform="translate(-99.002 -53.312)" fill="#fff"/>
    <path id="Contour-18_39_" d="M187.563,78.374h72.256a2.517,2.517,0,0,1,2.517,2.517V197.583a2.517,2.517,0,0,1-2.517,2.517H187.563a2.517,2.517,0,0,1-2.517-2.517V80.891a2.516,2.516,0,0,1,2.517-2.517Z" transform="translate(-125.873 -53.312)" fill="url(#linear-gradient-2)"/>
    <path id="Contour-19_39_" d="M165.564,93.184h73.889a2.718,2.718,0,0,1,2.718,2.718V197.091a2.718,2.718,0,0,1-2.718,2.718H165.564a2.718,2.718,0,0,1-2.718-2.718V95.9A2.718,2.718,0,0,1,165.564,93.184Z" transform="translate(-110.772 -63.386)" fill="#fff"/>
    <path id="Contour-20_39_" d="M163.707,139.085s-1.124,50.681,23.678,71.756a30.076,30.076,0,0,0,28.923,5.6c10.662-3.506,23.794-12.641,25.8-36.31v48.731l-2.68,2.69H165.465l-2.709-2.718Z" transform="translate(-110.711 -94.609)" fill="url(#linear-gradient-3)"/>
    <path id="Contour-21_39_" d="M214.955,130.884a.643.643,0,0,1-.2.48l-16.119,16.109a.691.691,0,0,1-.961,0l-9.423-9.423a.664.664,0,0,1-.2-.48.643.643,0,0,1,.2-.48l2.738-2.747a.711.711,0,0,1,.48-.192.681.681,0,0,1,.48.2l5.888,5.86a.452.452,0,0,0,.639.005l.005-.005,12.574-12.564a.691.691,0,0,1,.961,0l2.738,2.747A.622.622,0,0,1,214.955,130.884Z" transform="translate(-127.916 -86.697)" fill="#299ae6"/>
    <path id="Contour-22_39_" d="M214.955,229.559a.643.643,0,0,1-.2.48l-16.119,16.119a.692.692,0,0,1-.961,0l-9.423-9.423a.664.664,0,0,1-.2-.48.643.643,0,0,1,.2-.48l2.738-2.747a.691.691,0,0,1,.961,0l5.888,5.869a.461.461,0,0,0,.644,0l12.574-12.555a.672.672,0,0,1,.951-.01l.01.01,2.738,2.747A.624.624,0,0,1,214.955,229.559Z" transform="translate(-127.916 -153.827)" fill="#299ae6"/>
    <g id="Grupo_883800" data-name="Grupo 883800" transform="translate(61.833 107.24)">
      <path id="Contour-23_39_" d="M194.827,335.365h15.149a1.46,1.46,0,0,1,1.46,1.46v14.659a1.46,1.46,0,0,1-1.46,1.46H194.827a1.46,1.46,0,0,1-1.46-1.46V336.825A1.46,1.46,0,0,1,194.827,335.365Z" transform="translate(-193.367 -335.365)" fill="#fff"/>
      <circle id="Contour-24_39_" cx="2.68" cy="2.68" r="2.68" transform="translate(27.713 31.709)" fill="#fff"/>
      <path id="Contour-25_39_" d="M293.9,457.921s-1.268-1.431-1.988-1.556c0,0-10.192-1.431-16.714-5.322l-5.764-3.842-4.534-2.987a4.7,4.7,0,0,1-1.921-2.67,3.918,3.918,0,0,1,.452-2.757c1.614-2.642,13.746-1.287,14.966-.682l17.444,15.485Z" transform="translate(-240.665 -404.646)" fill="#fff"/>
      <path id="Contour-26_38_" d="M243.822,385.2l-14.966-15.168s-7.464-6.426-10.653-11.258c-2.085-3.151-.961-5.034.471-6.033,0,0,3.112-1.182,5.226.375,4.121,3.036,9,10.048,11.642,11.585a5.448,5.448,0,0,1,1.767-5c2.421-2.181,5.764.394,5.764.394s.3-3.5,2.747-4.976,6.206,1.153,6.206,1.153-.183-2.987,1.374-4.083a4.107,4.107,0,0,1,4.563-.576c2.728,1.441,16.436,16.416,16.436,16.416l4.986,9.98,1.816,4.121,2.469-1.018,1.287.836,17.06,17.55a30.316,30.316,0,0,1-12.1,8.732,26.242,26.242,0,0,1-9.3,12.027l-.845-.836-16.935-16.945a3.844,3.844,0,0,1,.807-2.161c.9-1.46.307-.317.307-.317l-2.651-3.074Z" transform="translate(-209.481 -346.101)" fill="#fff"/>
    </g>
    <path id="Contour-27_38_" d="M373.467,479.258s21.45-16.33,10.442-31.959l-2.536-2.469-2,1.412-17.723,17.473s-1.451,1.921-.73,2.882,12.546,12.661,12.546,12.661Z" transform="translate(-245.372 -302.586)" fill="#299ae6"/>
    <path id="Contour-28_37_" d="M449.822,468.744s-.7,8.5-7.445,13.89c0,0,5.5-8.857-1.153-22.094Z" transform="translate(-300.133 -313.273)" fill="#299ae6"/>
    <g id="Group-4_31_" transform="translate(45.58 23.487)">
      <path id="Contour-29_35_" d="M210.653,124.915a1.6,1.6,0,0,0-1.162-.49,1.633,1.633,0,0,0-1.162.48l-3.842,3.842H189.165a2.421,2.421,0,0,0-2.421,2.421v2.008l-1.22,1.162a1.651,1.651,0,0,0-.48,1.21,1.624,1.624,0,0,0,.48,1.162l1.22,1.21v7.9a2.421,2.421,0,0,0,2.421,2.421H204.3a2.421,2.421,0,0,0,2.43-2.411v-9.2l6.657-6.657a1.633,1.633,0,0,0,.006-2.309l-.006-.006Zm-21.988,6.2a.509.509,0,0,1,.5-.5h13.448l-6.5,6.494-5.543-5.5a1.681,1.681,0,0,0-1.921-.279Zm.5,15.158a.509.509,0,0,1-.5-.5v-5.975l6.292,6.321a.956.956,0,0,0,.221.183Zm15.648-.5a.509.509,0,0,1-.509.5h-7.262a1.012,1.012,0,0,0,.231-.183l7.541-7.541Zm1.921-11.864-1.921,1.921-8.7,8.7-7.445-7.445-1.585-1.537,1.585-1.585.759-.759,5.7,5.668a1.422,1.422,0,0,0,2,0l7.685-7.685,1.45-1.45,3.227-3.218,2.354,2.306Z" transform="translate(-171.452 -108.124)" fill="#12263f"/>
      <path id="Contour-30_34_" d="M210.654,223.626a1.6,1.6,0,0,0-1.162-.49,1.633,1.633,0,0,0-1.162.48l-3.842,3.842H189.166a2.421,2.421,0,0,0-2.421,2.421v2.008l-1.23,1.162a1.643,1.643,0,0,0-.471,1.162,1.6,1.6,0,0,0,.48,1.153l1.22,1.22v7.9a2.421,2.421,0,0,0,2.421,2.4H204.3a2.421,2.421,0,0,0,2.43-2.411v-9.116l6.657-6.657a1.633,1.633,0,0,0,.006-2.309l-.006-.006Zm-21.988,6.2a.509.509,0,0,1,.5-.5h13.448l-6.5,6.494-5.543-5.514a1.681,1.681,0,0,0-1.921-.269Zm.5,15.139a.509.509,0,0,1-.5-.5v-5.956l6.292,6.292a1.328,1.328,0,0,0,.221.183Zm15.648-.5a.509.509,0,0,1-.509.5h-7.262a1.365,1.365,0,0,0,.231-.183l7.541-7.5Zm1.921-11.863-1.921,1.921-8.7,8.7-7.445-7.445-1.585-1.585,1.585-1.585.759-.759,5.7,5.668a1.422,1.422,0,0,0,2,0l7.685-7.685,1.451-1.45,3.227-3.218,2.344,2.334Z" transform="translate(-171.453 -175.27)" fill="#12263f"/>
      <path id="Contour-31_31_" d="M266.784,84.711h11.527a.961.961,0,1,0,0-1.921H266.784a.961.961,0,0,0,0,1.921Z" transform="translate(-226.401 -79.803)" fill="#12263f"/>
      <path id="Contour-32_31_" d="M292.348,149.837h29.01a.961.961,0,1,0,0-1.921h-29.01a.961.961,0,1,0,0,1.921Z" transform="translate(-243.79 -124.103)" fill="#12263f"/>
      <path id="Contour-33_30_" d="M292.348,166.75h29.01a.961.961,0,1,0,0-1.921h-29.01a.961.961,0,1,0,0,1.921Z" transform="translate(-243.79 -135.608)" fill="#12263f"/>
      <path id="Contour-34_26_" d="M292.348,183.662h29.01a.961.961,0,1,0,0-1.921h-29.01a.961.961,0,1,0,0,1.921Z" transform="translate(-243.79 -147.112)" fill="#12263f"/>
      <path id="Contour-35_23_" d="M292.348,248.518h29.01a.961.961,0,1,0,0-1.921h-29.01a.961.961,0,1,0,0,1.921Z" transform="translate(-243.79 -191.229)" fill="#12263f"/>
      <path id="Contour-36_22_" d="M292.348,265.461h29.01a.961.961,0,1,0,0-1.921h-29.01a.961.961,0,1,0,0,1.921Z" transform="translate(-243.79 -202.754)" fill="#12263f"/>
      <path id="Contour-37_21_" d="M321.319,280.452H292.348a.961.961,0,1,0,0,1.921h29.01a.961.961,0,1,0,0-1.921Z" transform="translate(-243.79 -214.258)" fill="#12263f"/>
      <path id="Contour-38_20_" d="M251.951,209.42l-17.435-17.463a.759.759,0,0,0-.135-.115V77.137a3.689,3.689,0,0,0-3.689-3.689H146.238a3.7,3.7,0,0,0-3.7,3.689V194.761a3.707,3.707,0,0,0,3.7,3.7h37.693l3.132,2.065,5.764,3.9c6.4,3.842,15.994,5.293,17,5.437a10.916,10.916,0,0,1,1.777,1.556,2.4,2.4,0,0,0-.509,1.479,2.468,2.468,0,0,0,.73,1.748l17.387,17.387a1.364,1.364,0,0,0,1.921,0,41.619,41.619,0,0,0,8.645-11.69,30.307,30.307,0,0,0,12.286-9.164,1.355,1.355,0,0,0-.115-1.758ZM146.286,196.567a1.777,1.777,0,0,1-1.777-1.777V77.137a1.767,1.767,0,0,1,1.767-1.767h84.465a1.767,1.767,0,0,1,1.767,1.767V191.255a2.526,2.526,0,0,0-1.441.7l-.173.173-.183-.288-2.19-6.158a3.63,3.63,0,0,0,.845-2.306V82.977a3.669,3.669,0,0,0-3.679-3.66H151.713a3.669,3.669,0,0,0-3.66,3.66v100.4a3.669,3.669,0,0,0,3.66,3.66h30.893l.615.615.961.961a4.284,4.284,0,0,0-3.5,2.2,4.927,4.927,0,0,0-.547,3.477,5.762,5.762,0,0,0,1.2,2.228Zm73.831-29.721a.961.961,0,1,0,0-1.921h-9.25l-2.056-2.056-.077-.067a8.536,8.536,0,0,0-2.267-1.412h13.65a.961.961,0,1,0,0-1.921H191.1a.961.961,0,0,0,0,1.921h12.055a4.807,4.807,0,0,0-1.374.961,5.877,5.877,0,0,0-1.47,2.526h-1.921a4.622,4.622,0,0,0-2.555,0H191.1a.961.961,0,0,0,0,1.921h1.921a5.429,5.429,0,0,0-1.134,2.834.406.406,0,0,0,0,.048,5,5,0,0,0-6.3.768,5.7,5.7,0,0,0-1.576,3.055l-6.186-6.128v-8.732a2.421,2.421,0,0,0-2.421-2.421H160.253a2.421,2.421,0,0,0-2.421,2.421V173.3a2.421,2.421,0,0,0,2.421,2.421h11.056l9.375,9.375H151.713a1.739,1.739,0,0,1-1.739-1.739V82.977a1.739,1.739,0,0,1,1.739-1.739h73.966a1.748,1.748,0,0,1,1.748,1.739v99.767a17.923,17.923,0,0,0-4.044-5.312l-10.615-10.567Zm-54.754.615a7.846,7.846,0,0,0,2.19,4.457l1.921,1.921h-9.222a.509.509,0,0,1-.5-.5V158.662a.509.509,0,0,1,.5-.5h15.139a.509.509,0,0,1,.509.5v6.82l-.845-.836c-3.208-2.718-6.186-3.074-8.405-.961a5,5,0,0,0-1.383,3.746ZM210.271,208c-.1,0-10.077-1.45-16.33-5.158l-5.764-3.89-.711-.461-2.882-1.921-.961-.615a3.785,3.785,0,0,1-1.537-2.094,3,3,0,0,1,.336-2.017c.326-.538,1.316-2.161,4.294-.692v-.077l5.639,5.495,1.412,1.374a.958.958,0,1,0,1.354-1.355l-.086-.058-9.7-9.491-.768-.749-1.153-1.172-9.375-9.375-1.921-1.921-3.285-3.285a5.85,5.85,0,0,1-1.633-3.285A2.988,2.988,0,0,1,168,165.04c1.787-1.681,4.15-.346,5.764,1.018l2.142,2.133,1.921,1.921,7.416,7.358a5.889,5.889,0,0,0,.778.768l5.571,5.514.077.086a.941.941,0,0,0,1.345-1.316l-6.4-6.34a3.44,3.44,0,0,1-.73-2.161,3.621,3.621,0,0,1,1.037-2.113c1.422-1.355,3.036-1.335,4.8.058l1.633,1.633,6.465,6.465a.961.961,0,1,0,1.364-1.354l-6.465-6.465a3.449,3.449,0,0,1-.961-2.44,3.631,3.631,0,0,1,2.3-2.882,2.88,2.88,0,0,1,2.008,0,5.162,5.162,0,0,1,1.527.865l7.685,7.685a.961.961,0,0,0,1.364-1.354l-5.7-5.7a3.383,3.383,0,0,1-.788-1.479,3.041,3.041,0,0,1-.125-.961,2.709,2.709,0,0,1,.269-.961,3.778,3.778,0,0,1,.788-1.162c1.134-1.143,2.478-.961,4.342.5l.653.663,1.921,1.921,11.642,11.633.326.336a15.075,15.075,0,0,1,3.842,5.158l.384,1.076.644,1.806,2.046,5.764.567.961-3.007,3.016-1.921,1.921L212.96,210.14a6.829,6.829,0,0,0-2.786-2.171Zm20.019,22.314-17.1-17.051a.539.539,0,0,1-.163-.384.548.548,0,0,1,.163-.394l14.044-14.044,1.921-1.921,3.227-3.227h.077a.554.554,0,0,1,.317-.115.529.529,0,0,1,.384.163c.346.346.759.8,1.22,1.335a23.542,23.542,0,0,1,5.975,15.216c-.038,6.782-3.458,13.65-10.163,20.393Zm10.643-12.488a24.166,24.166,0,0,0,1.441-7.925,23.162,23.162,0,0,0-2-9.443l9.865,9.923a29.356,29.356,0,0,1-9.4,7.416Z" transform="translate(-142.54 -73.448)" fill="#12263f"/>
    </g>
  </g>
</svg>
