<svg xmlns="http://www.w3.org/2000/svg" xmlns:xlink="http://www.w3.org/1999/xlink" width="85" height="85" viewBox="0 0 85 85">
  <defs>
    <clipPath id="clip-path">
      <rect id="Rect치ngulo_66923" data-name="Rect치ngulo 66923" width="85" height="85" transform="translate(954 8021)" fill="#fff" stroke="#707070" stroke-width="1"/>
    </clipPath>
  </defs>
  <g id="Enmascarar_grupo_69" data-name="Enmascarar grupo 69" transform="translate(-954 -8021)" clip-path="url(#clip-path)">
    <g id="obstruido" transform="translate(954 8021)">
      <g id="Grupo_878759" data-name="Grupo 878759">
        <path id="Trazado_200715" data-name="Trazado 200715" d="M4.482,7.026H80.518a3.32,3.32,0,0,1,3.32,3.32V47.312H1.162V10.346a3.32,3.32,0,0,1,3.32-3.32Z" fill="#f4d844"/>
        <path id="Trazado_200716" data-name="Trazado 200716" d="M1.162,47.312H83.838V55.5a3.32,3.32,0,0,1-3.32,3.32H4.482a3.32,3.32,0,0,1-3.32-3.32Z" fill="#607880"/>
        <path id="Trazado_200717" data-name="Trazado 200717" d="M56.258,73.047H28.742a11.568,11.568,0,0,0,6.646-10.468V58.823H49.612v3.756a11.568,11.568,0,0,0,6.646,10.468Z" fill="#4a6268"/>
        <rect id="Rect치ngulo_66932" data-name="Rect치ngulo 66932" width="42.583" height="4.927" rx="2.464" transform="translate(21.208 73.047)" fill="#607880"/>
        <path id="Trazado_200718" data-name="Trazado 200718" d="M46.4,54.229H38.6a1.162,1.162,0,0,1,0-2.324h7.8a1.162,1.162,0,0,1,0,2.324Z" fill="#94e0da"/>
        <path id="Trazado_200719" data-name="Trazado 200719" d="M42.5,11.729A15.439,15.439,0,1,0,57.939,27.169,15.439,15.439,0,0,0,42.5,11.729Zm0,5.313a10.056,10.056,0,0,1,5.022,1.345l-13.8,13.806A10.111,10.111,0,0,1,42.5,17.042Zm0,20.254a10.048,10.048,0,0,1-5.024-1.346l13.8-13.806A10.11,10.11,0,0,1,42.5,37.3Z" fill="#de6246"/>
      </g>
      <g id="Grupo_878760" data-name="Grupo 878760">
        <path id="Trazado_200720" data-name="Trazado 200720" d="M80.518,5.864H33.369a1.162,1.162,0,0,0,0,2.324H80.518a2.161,2.161,0,0,1,2.158,2.158V46.152H2.324V10.346A2.161,2.161,0,0,1,4.482,8.188h6.807a1.162,1.162,0,0,0,0-2.324H4.482A4.488,4.488,0,0,0,0,10.346V55.5a4.488,4.488,0,0,0,4.482,4.482H34.226v2.593a1.162,1.162,0,0,0,2.324,0V59.985h11.9v2.593A12.783,12.783,0,0,0,52.5,71.885h-20a12.568,12.568,0,0,0,1.379-1.509,1.162,1.162,0,1,0-1.838-1.423,10.448,10.448,0,0,1-3.6,2.932H23.672a3.626,3.626,0,0,0,0,7.252H61.328a3.626,3.626,0,0,0,0-7.252h-4.79a10.446,10.446,0,0,1-5.764-9.307V59.985H80.518A4.488,4.488,0,0,0,85,55.5V10.346A4.488,4.488,0,0,0,80.518,5.864ZM62.629,75.511a1.3,1.3,0,0,1-1.3,1.3H23.672a1.3,1.3,0,0,1,0-2.6H61.328a1.3,1.3,0,0,1,1.3,1.3ZM82.676,55.5a2.161,2.161,0,0,1-2.158,2.158H4.482A2.161,2.161,0,0,1,2.324,55.5V48.477H82.676Z"/>
        <path id="Trazado_200721" data-name="Trazado 200721" d="M19.922,8.188h4.814a1.162,1.162,0,0,0,0-2.324H19.922a1.162,1.162,0,0,0,0,2.324Z"/>
        <path id="Trazado_200722" data-name="Trazado 200722" d="M38.6,54.229h7.8a1.162,1.162,0,0,0,0-2.324H38.6a1.162,1.162,0,0,0,0,2.324Z"/>
        <path id="Trazado_200723" data-name="Trazado 200723" d="M42.5,43.77a16.6,16.6,0,1,0-16.6-16.6,16.6,16.6,0,0,0,16.6,16.6Zm0-30.879A14.277,14.277,0,1,1,28.223,27.169,14.277,14.277,0,0,1,42.5,12.891Z"/>
        <path id="Trazado_200724" data-name="Trazado 200724" d="M36.324,36.1a1.163,1.163,0,0,0,.573.855A11.272,11.272,0,0,0,52.288,21.565a1.162,1.162,0,0,0-1.829-.243l-13.8,13.807a1.162,1.162,0,0,0-.332.974ZM50.934,24.139A8.947,8.947,0,0,1,39.47,35.6Z"/>
        <path id="Trazado_200725" data-name="Trazado 200725" d="M32.712,32.772a1.161,1.161,0,0,0,.855.573,1.079,1.079,0,0,0,.153.01,1.164,1.164,0,0,0,.822-.34l13.8-13.805a1.162,1.162,0,0,0-.243-1.829A11.272,11.272,0,0,0,32.712,32.772ZM42.5,18.2a8.879,8.879,0,0,1,3.029.535L34.07,30.2a8.948,8.948,0,0,1,8.43-12Z"/>
      </g>
    </g>
  </g>
</svg>
