<svg xmlns="http://www.w3.org/2000/svg" width="136" height="136" viewBox="0 0 136 136">
  <g id="Grupo_883807" data-name="Grupo 883807" transform="translate(-381 -1202)">
    <g id="Elipse_4916" data-name="Elipse 4916" transform="translate(381 1202)" fill="#fff" stroke="#6b3fe5" stroke-width="3">
      <circle cx="68" cy="68" r="68" stroke="none"/>
      <circle cx="68" cy="68" r="66.5" fill="none"/>
    </g>
    <g id="Grupo_883559" data-name="Grupo 883559" transform="translate(-23.104 644.845)">
      <g id="Grupo_883558" data-name="Grupo 883558" transform="translate(425.104 575.155)">
        <g id="Grupo_883508" data-name="Grupo 883508" transform="translate(0 4.384)">
          <g id="Grupo_883505" data-name="Grupo 883505" transform="translate(1.322 48.231)">
            <path id="Trazado_272201" data-name="Trazado 272201" d="M446.282,855.256a.443.443,0,0,1-.3-.118,46.131,46.131,0,0,1-3.649-3.785.444.444,0,1,1,.674-.579,45.314,45.314,0,0,0,3.579,3.712.444.444,0,0,1-.3.77Zm-6.776-7.885a.444.444,0,0,1-.368-.2,45.937,45.937,0,0,1-2.694-4.515.444.444,0,0,1,.788-.411,44.979,44.979,0,0,0,2.641,4.427.444.444,0,0,1-.367.693Zm-4.8-9.219a.444.444,0,0,1-.415-.286,45.5,45.5,0,0,1-1.588-5.011.444.444,0,0,1,.861-.219,44.676,44.676,0,0,0,1.556,4.913.444.444,0,0,1-.415.6Zm-2.561-10.072a.444.444,0,0,1-.44-.385c-.2-1.477-.326-2.985-.379-4.482a.444.444,0,1,1,.888-.032c.052,1.468.177,2.947.372,4.4a.444.444,0,0,1-.381.5A.431.431,0,0,1,432.143,828.081Z" transform="translate(-431.324 -822.754)" fill="#003887"/>
          </g>
          <g id="Grupo_883506" data-name="Grupo 883506" transform="translate(85.357 45.17)">
            <path id="Trazado_272202" data-name="Trazado 272202" d="M827.228,834.091a.444.444,0,0,1-.379-.674,44.933,44.933,0,0,0,2.413-4.556.444.444,0,1,1,.808.37,45.827,45.827,0,0,1-2.461,4.646A.444.444,0,0,1,827.228,834.091Zm4.328-9.453a.445.445,0,0,1-.423-.581,44.673,44.673,0,0,0,1.3-4.988.444.444,0,0,1,.871.174,45.573,45.573,0,0,1-1.329,5.088A.444.444,0,0,1,831.555,824.638Zm2.043-10.195h-.037a.444.444,0,0,1-.406-.479c.1-1.239.155-2.5.155-3.751,0-.467-.007-.94-.021-1.4a.444.444,0,0,1,.888-.027c.014.474.022.956.022,1.432,0,1.274-.053,2.561-.158,3.824A.444.444,0,0,1,833.6,814.443Z" transform="translate(-826.784 -808.35)" fill="#003887"/>
          </g>
          <g id="Grupo_883507" data-name="Grupo 883507" transform="translate(31.293 1.293)">
            <path id="Trazado_272203" data-name="Trazado 272203" d="M572.809,605.4a.444.444,0,0,1-.15-.862,45.616,45.616,0,0,1,5.044-1.486.444.444,0,0,1,.2.865,44.752,44.752,0,0,0-4.945,1.456A.441.441,0,0,1,572.809,605.4Zm10.125-2.356a.444.444,0,0,1-.049-.885,46.4,46.4,0,0,1,5.219-.295.444.444,0,1,1,0,.888,45.537,45.537,0,0,0-5.119.289Z" transform="translate(-572.365 -601.868)" fill="#003887"/>
          </g>
          <circle id="Elipse_5023" data-name="Elipse 5023" cx="33.257" cy="33.257" r="33.257" transform="translate(0 47.032) rotate(-45)" fill="#fff"/>
        </g>
        <g id="Grupo_883540" data-name="Grupo 883540" transform="translate(18.419 53.624)">
          <g id="Grupo_883526" data-name="Grupo 883526">
            <g id="Grupo_883522" data-name="Grupo 883522">
              <g id="Grupo_883513" data-name="Grupo 883513">
                <g id="Grupo_883511" data-name="Grupo 883511" transform="translate(5.008)">
                  <g id="Grupo_883509" data-name="Grupo 883509">
                    <path id="Trazado_272204" data-name="Trazado 272204" d="M584.268,864.647V833.315a3.722,3.722,0,0,0-3.723-3.722H541.161a3.722,3.722,0,0,0-3.723,3.722v31.331Z" transform="translate(-536.994 -829.149)" fill="#5d9af0"/>
                    <path id="Trazado_272205" data-name="Trazado 272205" d="M582.622,863.445a.444.444,0,0,1-.444-.444V831.67a3.282,3.282,0,0,0-3.278-3.278H539.515a3.282,3.282,0,0,0-3.279,3.278V863a.444.444,0,0,1-.888,0V831.67a4.171,4.171,0,0,1,4.167-4.167H578.9a4.171,4.171,0,0,1,4.167,4.167V863A.444.444,0,0,1,582.622,863.445Z" transform="translate(-535.348 -827.503)" fill="#003887"/>
                  </g>
                  <g id="Grupo_883510" data-name="Grupo 883510" transform="translate(5.299 5.249)">
                    <path id="Trazado_272206" data-name="Trazado 272206" d="M591.856,878.85H565.307a2.934,2.934,0,0,1-2.934-2.934V857.228a2.934,2.934,0,0,1,2.934-2.934h30.364a2.934,2.934,0,0,1,2.934,2.934v4.485Z" transform="translate(-561.929 -853.85)" fill="#fff"/>
                    <path id="Trazado_272207" data-name="Trazado 272207" d="M590.21,877.648H563.661a3.382,3.382,0,0,1-3.378-3.378V855.582a3.382,3.382,0,0,1,3.378-3.378h30.364a3.382,3.382,0,0,1,3.378,3.378v4.485a.444.444,0,1,1-.888,0v-4.485a2.493,2.493,0,0,0-2.49-2.49H563.661a2.493,2.493,0,0,0-2.49,2.49V874.27a2.493,2.493,0,0,0,2.49,2.49H590.21a.444.444,0,0,1,0,.888Z" transform="translate(-560.283 -852.204)" fill="#003887"/>
                  </g>
                </g>
                <g id="Grupo_883512" data-name="Grupo 883512" transform="translate(0 35.054)">
                  <path id="Trazado_272208" data-name="Trazado 272208" d="M565.647,1000.279H516.734a2.864,2.864,0,0,1-2.864-2.864h0a2.864,2.864,0,0,1,2.864-2.864h39.223Z" transform="translate(-513.426 -994.107)" fill="#5d9af0"/>
                  <path id="Trazado_272209" data-name="Trazado 272209" d="M564,999.077H515.088a3.308,3.308,0,1,1,0-6.616h39.223a.444.444,0,0,1,0,.888H515.088a2.42,2.42,0,1,0,0,4.84H564a.444.444,0,1,1,0,.888Z" transform="translate(-511.78 -992.461)" fill="#003887"/>
                </g>
              </g>
              <g id="Grupo_883521" data-name="Grupo 883521" transform="translate(15.605 10.62)">
                <g id="Grupo_883516" data-name="Grupo 883516">
                  <g id="Grupo_883514" data-name="Grupo 883514" transform="translate(6.849)">
                    <path id="Trazado_272210" data-name="Trazado 272210" d="M637.215,878.367H617.89a.444.444,0,0,1,0-.888h19.325a.444.444,0,0,1,0,.888Z" transform="translate(-617.446 -877.479)" fill="#003887"/>
                  </g>
                  <g id="Grupo_883515" data-name="Grupo 883515">
                    <path id="Trazado_272211" data-name="Trazado 272211" d="M589.2,878.367H585.66a.444.444,0,0,1,0-.888H589.2a.444.444,0,0,1,0,.888Z" transform="translate(-585.216 -877.479)" fill="#003887"/>
                  </g>
                </g>
                <g id="Grupo_883517" data-name="Grupo 883517" transform="translate(0 6.907)">
                  <path id="Trazado_272212" data-name="Trazado 272212" d="M605.713,910.87H585.66a.444.444,0,0,1,0-.888h20.052a.444.444,0,1,1,0,.888Z" transform="translate(-585.216 -909.982)" fill="#003887"/>
                </g>
                <g id="Grupo_883520" data-name="Grupo 883520" transform="translate(0 13.814)">
                  <g id="Grupo_883518" data-name="Grupo 883518">
                    <path id="Trazado_272213" data-name="Trazado 272213" d="M598.819,943.373H585.66a.444.444,0,1,1,0-.888h13.158a.444.444,0,1,1,0,.888Z" transform="translate(-585.216 -942.485)" fill="#003887"/>
                  </g>
                  <g id="Grupo_883519" data-name="Grupo 883519" transform="translate(16.195)">
                    <path id="Trazado_272214" data-name="Trazado 272214" d="M665.731,943.373h-3.857a.444.444,0,0,1,0-.888h3.857a.444.444,0,1,1,0,.888Z" transform="translate(-661.43 -942.485)" fill="#003887"/>
                  </g>
                </g>
              </g>
            </g>
            <g id="Grupo_883525" data-name="Grupo 883525" transform="translate(39.79 10.14)">
              <g id="Grupo_883524" data-name="Grupo 883524">
                <g id="Grupo_883523" data-name="Grupo 883523">
                  <g id="shield">
                    <path id="Trazado_272215" data-name="Trazado 272215" d="M713.1,907.952c10.669-3.745,11.988-9.3,11.988-9.3V883.1L713.1,877.311,701.117,883.1V898.65S702.435,904.208,713.1,907.952Z" transform="translate(-700.673 -876.867)" fill="#ffce3b"/>
                    <path id="Trazado_272216" data-name="Trazado 272216" d="M711.459,906.751a.442.442,0,0,1-.147-.025c-10.775-3.782-12.216-9.383-12.273-9.619a.438.438,0,0,1-.012-.1V881.45a.444.444,0,0,1,.251-.4l11.988-5.784a.444.444,0,0,1,.386,0l11.987,5.784a.444.444,0,0,1,.251.4V897a.448.448,0,0,1-.012.1c-.056.237-1.5,5.838-12.273,9.619A.443.443,0,0,1,711.459,906.751Zm-11.543-9.807a8.62,8.62,0,0,0,1.933,3.07c1.471,1.623,4.329,3.944,9.611,5.822,5.281-1.878,8.14-4.2,9.61-5.822A8.612,8.612,0,0,0,723,896.944V881.729l-11.543-5.57-11.543,5.57Z" transform="translate(-699.028 -875.221)" fill="#003887"/>
                  </g>
                </g>
              </g>
            </g>
          </g>
          <g id="Grupo_883539" data-name="Grupo 883539" transform="translate(43.157 16.24)">
            <g id="Grupo_883528" data-name="Grupo 883528" transform="translate(0.421)">
              <g id="Grupo_883527" data-name="Grupo 883527">
                <path id="Trazado_272217" data-name="Trazado 272217" d="M717.3,925a.444.444,0,0,1-.314-.758l20.187-20.187a.444.444,0,0,1,.628.628L717.612,924.87A.443.443,0,0,1,717.3,925Z" transform="translate(-716.854 -903.925)" fill="#003887"/>
              </g>
            </g>
            <g id="Grupo_883538" data-name="Grupo 883538" transform="translate(0 1.149)">
              <g id="Grupo_883535" data-name="Grupo 883535" transform="translate(0 1.979)">
                <g id="Grupo_883529" data-name="Grupo 883529" transform="translate(2.525 9.633)">
                  <path id="Trazado_272218" data-name="Trazado 272218" d="M727.2,967.421a.444.444,0,0,1-.314-.758l2.558-2.558a.444.444,0,0,1,.628.628l-2.558,2.558A.443.443,0,0,1,727.2,967.421Z" transform="translate(-726.754 -963.975)" fill="#003887"/>
                </g>
                <g id="Grupo_883530" data-name="Grupo 883530" transform="translate(2.525 0)">
                  <path id="Trazado_272219" data-name="Trazado 272219" d="M729.756,922.088a.443.443,0,0,1-.314-.13l-2.558-2.558a.444.444,0,1,1,.628-.628l2.557,2.557a.444.444,0,0,1-.314.758Z" transform="translate(-726.754 -918.642)" fill="#003887"/>
                </g>
                <g id="Grupo_883531" data-name="Grupo 883531" transform="translate(12.159 9.634)">
                  <path id="Trazado_272220" data-name="Trazado 272220" d="M775.091,967.423a.443.443,0,0,1-.314-.13l-2.558-2.558a.444.444,0,0,1,.628-.628l2.558,2.558a.444.444,0,0,1-.314.758Z" transform="translate(-772.089 -963.977)" fill="#003887"/>
                </g>
                <g id="Grupo_883532" data-name="Grupo 883532" transform="translate(0 6.096)">
                  <path id="Trazado_272221" data-name="Trazado 272221" d="M719.059,948.215h-3.742a.444.444,0,1,1,0-.888h3.742a.444.444,0,1,1,0,.888Z" transform="translate(-714.872 -947.327)" fill="#003887"/>
                </g>
                <g id="Grupo_883533" data-name="Grupo 883533" transform="translate(13.499 6.096)">
                  <path id="Trazado_272222" data-name="Trazado 272222" d="M782.582,948.215h-3.743a.444.444,0,0,1,0-.888h3.743a.444.444,0,1,1,0,.888Z" transform="translate(-778.395 -947.327)" fill="#003887"/>
                </g>
                <g id="Grupo_883534" data-name="Grupo 883534" transform="translate(12.159)">
                  <path id="Trazado_272223" data-name="Trazado 272223" d="M772.533,922.087a.444.444,0,0,1-.314-.758l2.557-2.557a.444.444,0,0,1,.628.628l-2.558,2.558A.443.443,0,0,1,772.533,922.087Z" transform="translate(-772.089 -918.642)" fill="#003887"/>
                </g>
              </g>
              <g id="Grupo_883536" data-name="Grupo 883536" transform="translate(5.907)">
                <path id="Trazado_272224" data-name="Trazado 272224" d="M745,915.063a2.458,2.458,0,0,1-.243-1.067,2.718,2.718,0,0,1,5.428,0,2.456,2.456,0,0,1-.243,1.067Z" transform="translate(-744.314 -910.976)" fill="#5d9af0"/>
                <path id="Trazado_272225" data-name="Trazado 272225" d="M743.356,913.861a.444.444,0,0,1-.4-.252,2.887,2.887,0,0,1-.287-1.26,3.161,3.161,0,0,1,6.316,0,2.888,2.888,0,0,1-.287,1.259.444.444,0,1,1-.8-.384,2,2,0,0,0,.2-.875,2.274,2.274,0,0,0-4.54,0,2.007,2.007,0,0,0,.2.875.444.444,0,0,1-.4.636Z" transform="translate(-742.668 -909.33)" fill="#003887"/>
              </g>
              <g id="Grupo_883537" data-name="Grupo 883537" transform="translate(3.743 2.935)">
                <ellipse id="Elipse_5024" data-name="Elipse 5024" cx="4.878" cy="5.14" rx="4.878" ry="5.14" transform="translate(0.444 0.444)" fill="#5d9af0"/>
                <path id="Trazado_272226" data-name="Trazado 272226" d="M737.806,934.308a5.59,5.59,0,1,1,5.322-5.584A5.464,5.464,0,0,1,737.806,934.308Zm0-10.279a4.7,4.7,0,1,0,4.434,4.7A4.575,4.575,0,0,0,737.806,924.029Z" transform="translate(-732.484 -923.141)" fill="#003887"/>
              </g>
            </g>
          </g>
        </g>
        <g id="Grupo_883546" data-name="Grupo 883546" transform="translate(0.476 12.192)">
          <g id="Grupo_883541" data-name="Grupo 883541">
            <path id="Trazado_272227" data-name="Trazado 272227" d="M430.436,662.021l16.67-24.87a5.716,5.716,0,0,1,9.5,0l16.67,24.87a5.716,5.716,0,0,1-4.748,8.9H435.184A5.716,5.716,0,0,1,430.436,662.021Z" transform="translate(-429.009 -634.174)" fill="#ffce3b"/>
            <path id="Trazado_272228" data-name="Trazado 272228" d="M466.858,669.718H433.519a6.16,6.16,0,0,1-5.117-9.59l16.67-24.87a6.15,6.15,0,0,1,5.117-2.73h0a6.149,6.149,0,0,1,5.117,2.73l16.67,24.87a6.16,6.16,0,0,1-5.117,9.59Zm-37.718-9.1a5.272,5.272,0,0,0,4.379,8.207h33.339a5.272,5.272,0,0,0,4.379-8.207l-16.67-24.87a5.272,5.272,0,0,0-8.758,0l-16.67,24.87Z" transform="translate(-427.344 -632.528)" fill="#003887"/>
          </g>
          <g id="Grupo_883545" data-name="Grupo 883545" transform="translate(19.063 6.693)">
            <g id="Grupo_883544" data-name="Grupo 883544">
              <g id="Grupo_883542" data-name="Grupo 883542">
                <path id="Trazado_272229" data-name="Trazado 272229" d="M524.2,683.741a1.787,1.787,0,0,1-3.553-.014l-1.5-14.275a3.337,3.337,0,1,1,6.675,0Z" transform="translate(-518.699 -665.67)" fill="#fff"/>
                <path id="Trazado_272230" data-name="Trazado 272230" d="M520.778,684.126h-.009a2.179,2.179,0,0,1-2.21-2l-1.5-14.275c0-.016,0-.031,0-.047a3.782,3.782,0,0,1,7.563,0,.487.487,0,0,1,0,.05L523,682.146A2.179,2.179,0,0,1,520.778,684.126Zm-2.837-16.342,1.5,14.251a1.284,1.284,0,0,0,1.33,1.2h.006a1.283,1.283,0,0,0,1.334-1.192l1.615-14.263a2.893,2.893,0,0,0-5.787,0Zm4.613,14.312h0Z" transform="translate(-517.053 -664.025)" fill="#003887"/>
              </g>
              <g id="Grupo_883543" data-name="Grupo 883543" transform="translate(1.162 22.526)">
                <circle id="Elipse_5025" data-name="Elipse 5025" cx="2.176" cy="2.176" r="2.176" transform="translate(0.444 0.444)" fill="#fff"/>
                <path id="Trazado_272231" data-name="Trazado 272231" d="M525.14,775.268a2.62,2.62,0,1,1,2.62-2.62A2.623,2.623,0,0,1,525.14,775.268Zm0-4.351a1.732,1.732,0,1,0,1.732,1.732A1.734,1.734,0,0,0,525.14,770.916Z" transform="translate(-522.52 -770.028)" fill="#003887"/>
              </g>
            </g>
          </g>
        </g>
        <g id="Grupo_883557" data-name="Grupo 883557" transform="translate(45.419 0)">
          <g id="Grupo_883552" data-name="Grupo 883552">
            <g id="Grupo_883547" data-name="Grupo 883547" transform="translate(24.347)">
              <path id="Trazado_272232" data-name="Trazado 272232" d="M753.855,582.13a.444.444,0,0,1-.444-.444V575.6a.444.444,0,1,1,.888,0v6.087A.444.444,0,0,1,753.855,582.13Z" transform="translate(-753.411 -575.155)" fill="#003887"/>
            </g>
            <g id="Grupo_883548" data-name="Grupo 883548" transform="translate(0 24.347)">
              <path id="Trazado_272233" data-name="Trazado 272233" d="M645.37,690.616h-6.087a.444.444,0,0,1,0-.888h6.087a.444.444,0,0,1,0,.888Z" transform="translate(-638.839 -689.728)" fill="#003887"/>
            </g>
            <g id="Grupo_883549" data-name="Grupo 883549" transform="translate(7.131 7.131)">
              <path id="Trazado_272234" data-name="Trazado 272234" d="M677.145,613.905a.443.443,0,0,1-.314-.13l-4.3-4.3a.444.444,0,0,1,.628-.628l4.3,4.3a.444.444,0,0,1-.314.758Z" transform="translate(-672.397 -608.713)" fill="#003887"/>
            </g>
            <g id="Grupo_883550" data-name="Grupo 883550" transform="translate(42.606 24.347)">
              <path id="Trazado_272235" data-name="Trazado 272235" d="M845.871,690.616h-6.087a.444.444,0,0,1,0-.888h6.087a.444.444,0,1,1,0,.888Z" transform="translate(-839.34 -689.728)" fill="#003887"/>
            </g>
            <g id="Grupo_883551" data-name="Grupo 883551" transform="translate(37.258 7.131)">
              <path id="Trazado_272236" data-name="Trazado 272236" d="M814.616,613.905a.444.444,0,0,1-.314-.758l4.3-4.3a.444.444,0,0,1,.628.628l-4.3,4.3A.443.443,0,0,1,814.616,613.905Z" transform="translate(-814.172 -608.713)" fill="#003887"/>
            </g>
          </g>
          <g id="Grupo_883556" data-name="Grupo 883556" transform="translate(5.747 10.938)">
            <g id="Grupo_883555" data-name="Grupo 883555">
              <g id="Grupo_883553" data-name="Grupo 883553" transform="translate(5.781)">
                <path id="Trazado_272237" data-name="Trazado 272237" d="M695.182,659.394V641.906a13.187,13.187,0,0,1,13.187-13.187h0a13.187,13.187,0,0,1,13.187,13.187v17.487Z" transform="translate(-694.738 -628.275)" fill="#fff"/>
                <path id="Trazado_272238" data-name="Trazado 272238" d="M719.911,658.192a.444.444,0,0,1-.444-.444V640.26a12.743,12.743,0,1,0-25.486,0v17.487a.444.444,0,0,1-.888,0V640.26a13.631,13.631,0,0,1,27.263,0v17.487A.444.444,0,0,1,719.911,658.192Z" transform="translate(-693.092 -626.629)" fill="#003887"/>
              </g>
              <g id="Grupo_883554" data-name="Grupo 883554" transform="translate(0 30.675)">
                <rect id="Rectángulo_75191" data-name="Rectángulo 75191" width="37.937" height="6.88" rx="3.44" transform="translate(0.444 0.444)" fill="#fff"/>
                <path id="Trazado_272239" data-name="Trazado 272239" d="M700.827,778.75H669.77a3.884,3.884,0,0,1,0-7.769h31.057a3.884,3.884,0,0,1,0,7.769Zm-31.057-6.88a3,3,0,1,0,0,5.992h31.057a3,3,0,1,0,0-5.992Z" transform="translate(-665.886 -770.981)" fill="#003887"/>
              </g>
            </g>
            <g id="wrench" transform="translate(11.5 7.167)">
              <path id="Trazado_272240" data-name="Trazado 272240" d="M732.953,685.954V676.24a7.469,7.469,0,0,0-1.195-13.794v5.99a2.2,2.2,0,0,1-4.39,0v-5.99a7.469,7.469,0,0,0-1.195,13.794v9.714Z" transform="translate(-721.65 -662.002)" fill="#5d9af0"/>
              <path id="Trazado_272241" data-name="Trazado 272241" d="M731.307,684.752h-6.78a.444.444,0,0,1-.444-.444v-9.447a7.913,7.913,0,0,1,1.509-14.485.444.444,0,0,1,.575.424v5.99a1.751,1.751,0,0,0,3.5,0V660.8a.444.444,0,0,1,.575-.424,7.913,7.913,0,0,1,1.509,14.485v9.447A.444.444,0,0,1,731.307,684.752Zm-6.336-.888h5.892v-9.269a.444.444,0,0,1,.242-.4,7.026,7.026,0,0,0-.549-12.771v5.362a2.639,2.639,0,0,1-5.279,0v-5.362a7.026,7.026,0,0,0-.549,12.771.444.444,0,0,1,.242.4Z" transform="translate(-720.004 -660.356)" fill="#003887"/>
            </g>
          </g>
        </g>
      </g>
    </g>
  </g>
</svg>
