<svg xmlns="http://www.w3.org/2000/svg" width="136" height="136" viewBox="0 0 136 136">
  <g id="Grupo_883808" data-name="Grupo 883808" transform="translate(-732 -1207)">
    <g id="Elipse_4917" data-name="Elipse 4917" transform="translate(732 1207)" fill="#fff" stroke="#6b3fe5" stroke-width="3">
      <circle cx="68" cy="68" r="68" stroke="none"/>
      <circle cx="68" cy="68" r="66.5" fill="none"/>
    </g>
    <g id="Grupo_883592" data-name="Grupo 883592" transform="translate(-296.614 633.768)">
      <g id="Grupo_883591" data-name="Grupo 883591" transform="translate(1048.615 593.232)">
        <g id="Grupo_883564" data-name="Grupo 883564" transform="translate(0 0)">
          <g id="Grupo_883560" data-name="Grupo 883560" transform="translate(1.305 15.707)">
            <path id="Trazado_272242" data-name="Trazado 272242" d="M1055.2,700.956a.448.448,0,0,1-.448-.426c-.038-.767-.057-1.548-.057-2.32,0-.994.032-2,.1-2.99a.449.449,0,0,1,.9.057c-.062.971-.093,1.957-.093,2.932,0,.757.019,1.523.056,2.275a.448.448,0,0,1-.426.47Zm.674-10.48a.449.449,0,0,1-.442-.528,46.066,46.066,0,0,1,1.245-5.164.449.449,0,0,1,.858.26,45.125,45.125,0,0,0-1.22,5.063A.449.449,0,0,1,1055.876,690.476Zm3.047-10.05a.449.449,0,0,1-.411-.628,46.217,46.217,0,0,1,2.4-4.74.449.449,0,0,1,.776.45,45.292,45.292,0,0,0-2.35,4.648A.449.449,0,0,1,1058.923,680.427Zm5.269-9.083a.449.449,0,0,1-.359-.717,46.563,46.563,0,0,1,3.412-4.069.449.449,0,0,1,.653.615,45.7,45.7,0,0,0-3.346,3.99A.448.448,0,0,1,1064.192,671.344Z" transform="translate(-1054.697 -666.417)" fill="#003887"/>
          </g>
          <g id="Grupo_883561" data-name="Grupo 883561" transform="translate(33.169 87.276)">
            <path id="Trazado_272243" data-name="Trazado 272243" d="M1217.5,1006.315c-1.2,0-2.417-.047-3.609-.139a.449.449,0,0,1,.069-.895,46.189,46.189,0,0,0,5.208.106h.016a.448.448,0,0,1,.016.9C1218.635,1006.3,1218.063,1006.315,1217.5,1006.315Zm6.918-.52a.449.449,0,0,1-.067-.892,45.172,45.172,0,0,0,5.094-1.077.449.449,0,0,1,.236.866,46.146,46.146,0,0,1-5.2,1.1A.458.458,0,0,1,1224.417,1005.8Zm-15.7-.323a.449.449,0,0,1-.086-.008,46.06,46.06,0,0,1-5.146-1.314.449.449,0,0,1,.272-.855,45.123,45.123,0,0,0,5.045,1.288.449.449,0,0,1-.085.889Zm25.833-2.439a.449.449,0,0,1-.167-.865,45.239,45.239,0,0,0,4.711-2.217.448.448,0,1,1,.428.788,46.167,46.167,0,0,1-4.8,2.262A.449.449,0,0,1,1234.546,1003.033Z" transform="translate(-1203.168 -999.897)" fill="#003887"/>
          </g>
          <g id="Grupo_883562" data-name="Grupo 883562" transform="translate(83.58 19.509)">
            <path id="Trazado_272244" data-name="Trazado 272244" d="M1447.61,709.323a.449.449,0,0,1-.447-.417,45.547,45.547,0,0,0-.661-5.164.448.448,0,1,1,.882-.165,46.472,46.472,0,0,1,.675,5.266.449.449,0,0,1-.416.479ZM1445.678,699a.449.449,0,0,1-.428-.316,45.246,45.246,0,0,0-1.828-4.875.449.449,0,0,1,.82-.363,46.1,46.1,0,0,1,1.864,4.972.449.449,0,0,1-.428.582Zm-4.247-9.6a.449.449,0,0,1-.387-.221,45.532,45.532,0,0,0-2.894-4.329.449.449,0,0,1,.716-.541,46.473,46.473,0,0,1,2.952,4.414.449.449,0,0,1-.386.676Z" transform="translate(-1438.058 -684.135)" fill="#003887"/>
          </g>
          <g id="Grupo_883563" data-name="Grupo 883563" transform="translate(47.052 1.305)">
            <path id="Trazado_272245" data-name="Trazado 272245" d="M1293.182,607.563a.446.446,0,0,1-.244-.073,45.519,45.519,0,0,0-4.523-2.58.448.448,0,1,1,.4-.8,46.3,46.3,0,0,1,4.613,2.631.449.449,0,0,1-.245.825Zm-9.405-4.668a.448.448,0,0,1-.152-.027,45.159,45.159,0,0,0-4.994-1.474.448.448,0,1,1,.2-.873,46.013,46.013,0,0,1,5.093,1.5.449.449,0,0,1-.151.871Zm-10.225-2.386a.409.409,0,0,1-.052,0,46.019,46.019,0,0,0-5.2-.3.449.449,0,0,1,0-.9,46.852,46.852,0,0,1,5.3.3.448.448,0,0,1-.05.894Z" transform="translate(-1267.852 -599.314)" fill="#003887"/>
          </g>
          <circle id="Elipse_5026" data-name="Elipse 5026" cx="33.588" cy="33.588" r="33.588" transform="translate(0 47.5) rotate(-45)" fill="#a3d4ff"/>
        </g>
        <g id="Grupo_883569" data-name="Grupo 883569" transform="translate(2.554 38.908)">
          <path id="Trazado_272246" data-name="Trazado 272246" d="M1086.29,827.517a17.925,17.925,0,1,0,17.925-17.925,17.925,17.925,0,0,0-17.925,17.925Z" transform="translate(-1080.758 -802.066)" fill="#fff"/>
          <g id="Grupo_883565" data-name="Grupo 883565" transform="translate(5.083 7.077)">
            <path id="Trazado_272247" data-name="Trazado 272247" d="M1102.574,844.249a18.374,18.374,0,1,1,18.374-18.374A18.395,18.395,0,0,1,1102.574,844.249Zm0-35.85a17.477,17.477,0,1,0,17.477,17.477A17.5,17.5,0,0,0,1102.574,808.4Z" transform="translate(-1084.2 -807.502)" fill="#003887"/>
          </g>
          <path id="Trazado_272248" data-name="Trazado 272248" d="M1156.2,893.114a17.947,17.947,0,0,1-17.946,17.946c-.12,0-.156,0-.275,0v-2.17l-8.377,4.836,8.377,4.837V916.2h.274a23.071,23.071,0,0,0,23.03-21.416l-5.083-1.674Z" transform="translate(-1114.772 -867.663)" fill="#ffce3b"/>
          <g id="Grupo_883566" data-name="Grupo 883566" transform="translate(14.378 25.003)">
            <path id="Trazado_272249" data-name="Trazado 272249" d="M1136.334,917.37a.448.448,0,0,1-.224-.06l-8.377-4.836a.448.448,0,0,1,0-.777l8.377-4.836a.448.448,0,0,1,.673.388v1.721a17.5,17.5,0,0,0,17.323-17.5.449.449,0,0,1,.9,0,18.4,18.4,0,0,1-18.394,18.395h-.1c-.055,0-.1,0-.181,0a.448.448,0,0,1-.44-.448v-1.393l-7.031,4.059,7.031,4.06v-1.583a.449.449,0,0,1,.448-.448h.274a22.622,22.622,0,0,0,22.582-21,.448.448,0,1,1,.895.064,23.519,23.519,0,0,1-23.3,21.832v1.911a.449.449,0,0,1-.448.448Z" transform="translate(-1127.508 -891.024)" fill="#003887"/>
          </g>
          <path id="Trazado_272250" data-name="Trazado 272250" d="M1067.688,801.617a17.946,17.946,0,0,1,17.946-17.946v2.616l8.377-4.837-8.377-4.836v1.914h0a23.07,23.07,0,0,0-23.029,21.415l5.083,1.674Z" transform="translate(-1062.156 -776.166)" fill="#ffce3b"/>
          <g id="Grupo_883567" data-name="Grupo 883567">
            <path id="Trazado_272251" data-name="Trazado 272251" d="M1066.046,800.424a.448.448,0,0,1-.448-.448,18.395,18.395,0,0,1,18.395-18.394.448.448,0,0,1,.449.448v1.839l7.031-4.06-7.031-4.059v1.137a.448.448,0,0,1-.449.448,22.621,22.621,0,0,0-22.582,21,.449.449,0,0,1-.895-.064,23.517,23.517,0,0,1,23.028-21.827v-1.47a.449.449,0,0,1,.673-.388l8.377,4.836a.449.449,0,0,1,0,.777l-8.377,4.837a.449.449,0,0,1-.673-.389v-2.162a17.5,17.5,0,0,0-17.049,17.492A.449.449,0,0,1,1066.046,800.424Z" transform="translate(-1060.514 -774.525)" fill="#003887"/>
          </g>
          <g id="Grupo_883568" data-name="Grupo 883568" transform="translate(12.169 14.164)">
            <path id="Trazado_272252" data-name="Trazado 272252" d="M1126.756,864.129a1.266,1.266,0,0,0,1.663-.668l.463-1.085a.427.427,0,0,1,.438-.255,8.625,8.625,0,0,0,1.475.015.426.426,0,0,1,.432.264l.44,1.094a1.266,1.266,0,0,0,1.648.7l1.984-.8a1.267,1.267,0,0,0,.7-1.648l-.44-1.095a.427.427,0,0,1,.129-.49,8.635,8.635,0,0,0,1.054-1.032.427.427,0,0,1,.492-.119l1.085.463a1.267,1.267,0,0,0,1.663-.668l.839-1.967a1.267,1.267,0,0,0-.668-1.663l-1.085-.463a.428.428,0,0,1-.255-.438,8.711,8.711,0,0,0,.016-1.475.426.426,0,0,1,.263-.432l1.095-.44a1.267,1.267,0,0,0,.7-1.648l-.8-1.984a1.267,1.267,0,0,0-1.648-.7l-1.095.44a.427.427,0,0,1-.489-.129,8.635,8.635,0,0,0-1.031-1.054.427.427,0,0,1-.12-.492l.463-1.085a1.267,1.267,0,0,0-.668-1.663l-1.967-.84a1.268,1.268,0,0,0-1.663.668l-.462,1.085a.428.428,0,0,1-.438.255,8.661,8.661,0,0,0-1.475-.016.427.427,0,0,1-.432-.263l-.44-1.095a1.267,1.267,0,0,0-1.648-.7l-1.985.8a1.267,1.267,0,0,0-.7,1.648l.44,1.095a.427.427,0,0,1-.129.49,8.674,8.674,0,0,0-1.054,1.032.427.427,0,0,1-.492.119l-1.085-.463a1.267,1.267,0,0,0-1.663.668l-.839,1.967a1.268,1.268,0,0,0,.668,1.663l1.085.463a.427.427,0,0,1,.254.438,8.642,8.642,0,0,0-.016,1.475.426.426,0,0,1-.264.432l-1.095.44a1.267,1.267,0,0,0-.7,1.648l.8,1.985a1.268,1.268,0,0,0,1.648.7l1.095-.44a.427.427,0,0,1,.49.129,8.654,8.654,0,0,0,1.031,1.054.427.427,0,0,1,.119.492l-.463,1.085a1.267,1.267,0,0,0,.669,1.663l1.967.839Zm7.053-8.314a4.357,4.357,0,1,1-2.653-6.6,4.351,4.351,0,0,1,2.653,6.6Z" transform="translate(-1118.861 -842.164)" fill="#5d9af0"/>
            <path id="Trazado_272253" data-name="Trazado 272253" d="M1131.2,863.1a1.718,1.718,0,0,1-1.591-1.077l-.433-1.077a9.111,9.111,0,0,1-1.53-.016l-.456,1.068a1.715,1.715,0,0,1-2.251.9l-1.967-.839a1.718,1.718,0,0,1-.906-2.251l.456-1.068a9.155,9.155,0,0,1-1.07-1.094l-1.078.433a1.716,1.716,0,0,1-2.232-.952l-.8-1.984a1.715,1.715,0,0,1,.952-2.232l1.077-.433a9.129,9.129,0,0,1,.016-1.53l-1.068-.455a1.716,1.716,0,0,1-.9-2.252l.839-1.967a1.716,1.716,0,0,1,2.252-.905l1.068.456a9.116,9.116,0,0,1,1.094-1.07l-.433-1.078a1.718,1.718,0,0,1,.952-2.232l1.985-.8a1.716,1.716,0,0,1,2.232.953l.433,1.077a9.19,9.19,0,0,1,1.531.016l.455-1.068a1.719,1.719,0,0,1,2.251-.905l1.968.84a1.718,1.718,0,0,1,.9,2.251l-.456,1.068a9.128,9.128,0,0,1,1.07,1.094l1.078-.433a1.715,1.715,0,0,1,2.232.952l.8,1.984a1.716,1.716,0,0,1-.953,2.232l-1.077.433a9.128,9.128,0,0,1-.016,1.531l1.068.456a1.715,1.715,0,0,1,.9,2.251l-.839,1.967a1.719,1.719,0,0,1-2.251.9l-1.068-.456a9.064,9.064,0,0,1-1.094,1.07l.433,1.078a1.716,1.716,0,0,1-.953,2.232l-1.984.8A1.717,1.717,0,0,1,1131.2,863.1Zm-2.013-3.052a.873.873,0,0,1,.814.547l.44,1.094a.818.818,0,0,0,1.065.455l1.985-.8a.818.818,0,0,0,.454-1.065l-.44-1.095a.875.875,0,0,1,.261-1,8.215,8.215,0,0,0,1-.978.874.874,0,0,1,1.009-.239l1.084.463a.82.82,0,0,0,1.074-.432l.839-1.967a.818.818,0,0,0-.431-1.074l-1.085-.463a.875.875,0,0,1-.525-.893,8.262,8.262,0,0,0,.015-1.4.873.873,0,0,1,.543-.882l1.095-.44a.819.819,0,0,0,.455-1.065l-.8-1.984a.818.818,0,0,0-1.065-.455l-1.1.44a.873.873,0,0,1-1-.259,8.192,8.192,0,0,0-.978-1,.874.874,0,0,1-.239-1.009l.463-1.084a.82.82,0,0,0-.432-1.074l-1.968-.84a.82.82,0,0,0-1.074.432l-.463,1.085a.877.877,0,0,1-.893.525,8.26,8.26,0,0,0-1.4-.015.872.872,0,0,1-.882-.543l-.44-1.095a.819.819,0,0,0-1.065-.454l-1.985.8a.82.82,0,0,0-.454,1.065l.44,1.094a.875.875,0,0,1-.26,1,8.276,8.276,0,0,0-1,.979.874.874,0,0,1-1.009.239l-1.084-.463a.819.819,0,0,0-1.074.432l-.839,1.967a.818.818,0,0,0,.432,1.075l1.085.463a.874.874,0,0,1,.525.894,8.206,8.206,0,0,0-.015,1.4.873.873,0,0,1-.544.882l-1.094.44a.818.818,0,0,0-.455,1.065l.8,1.985a.819.819,0,0,0,1.065.454l1.094-.44a.875.875,0,0,1,1,.26,8.194,8.194,0,0,0,.978,1,.874.874,0,0,1,.239,1.008l-.463,1.085a.82.82,0,0,0,.432,1.074l1.967.839h0a.818.818,0,0,0,1.074-.431l.464-1.085a.873.873,0,0,1,.892-.525,8.2,8.2,0,0,0,1.4.015Zm-.691-3.428a4.628,4.628,0,0,1-1.1-.133,4.792,4.792,0,1,1,1.1.133Zm.015-8.718a3.91,3.91,0,1,0,3.277,6.034h0A3.911,3.911,0,0,0,1129.4,848,3.755,3.755,0,0,0,1128.51,847.9Z" transform="translate(-1117.217 -840.52)" fill="#003887"/>
          </g>
        </g>
        <g id="Grupo_883580" data-name="Grupo 883580" transform="translate(20.714 1.753)">
          <g id="Grupo_883579" data-name="Grupo 883579">
            <g id="Grupo_883578" data-name="Grupo 883578">
              <g id="Grupo_883570" data-name="Grupo 883570">
                <path id="Trazado_272254" data-name="Trazado 272254" d="M1185.547,632.543V610.6a2.733,2.733,0,0,0-2.733-2.733h-16.176l-2.911-2.911a5,5,0,0,0-3.534-1.464h-10.24a2.731,2.731,0,0,0-2.731,2.731v26.326a2.731,2.731,0,0,0,2.731,2.731h32.862A2.733,2.733,0,0,0,1185.547,632.543Z" transform="translate(-1146.771 -603.039)" fill="#fff"/>
                <path id="Trazado_272255" data-name="Trazado 272255" d="M1181.172,634.083H1148.31a3.184,3.184,0,0,1-3.18-3.18V604.578a3.184,3.184,0,0,1,3.18-3.18h10.24a5.412,5.412,0,0,1,3.852,1.6l2.78,2.78h15.99a3.185,3.185,0,0,1,3.182,3.182V630.9A3.185,3.185,0,0,1,1181.172,634.083ZM1148.31,602.3a2.286,2.286,0,0,0-2.283,2.283V630.9a2.286,2.286,0,0,0,2.283,2.283h32.862a2.287,2.287,0,0,0,2.285-2.285V608.955a2.287,2.287,0,0,0-2.285-2.285H1165a.448.448,0,0,1-.317-.131l-2.912-2.911a4.519,4.519,0,0,0-3.217-1.333Z" transform="translate(-1145.13 -601.398)" fill="#003887"/>
              </g>
              <g id="Grupo_883571" data-name="Grupo 883571" transform="translate(19.163 7.886)">
                <path id="Trazado_272256" data-name="Trazado 272256" d="M1274.839,669.286V647.34a2.733,2.733,0,0,0-2.733-2.733H1255.93l-2.912-2.911a5,5,0,0,0-3.534-1.464h-10.24a2.731,2.731,0,0,0-2.731,2.731v26.325a2.732,2.732,0,0,0,2.731,2.732h32.862A2.733,2.733,0,0,0,1274.839,669.286Z" transform="translate(-1236.063 -639.782)" fill="#5d9af0"/>
                <path id="Trazado_272257" data-name="Trazado 272257" d="M1270.463,670.826H1237.6a3.184,3.184,0,0,1-3.18-3.18V641.321a3.184,3.184,0,0,1,3.18-3.18h10.24a5.412,5.412,0,0,1,3.852,1.6l2.78,2.78h15.99a3.185,3.185,0,0,1,3.182,3.182v21.947A3.185,3.185,0,0,1,1270.463,670.826ZM1237.6,639.038a2.285,2.285,0,0,0-2.283,2.283v26.325a2.285,2.285,0,0,0,2.283,2.283h32.862a2.287,2.287,0,0,0,2.285-2.285V645.7a2.287,2.287,0,0,0-2.285-2.285h-16.176a.449.449,0,0,1-.317-.131l-2.912-2.911a4.52,4.52,0,0,0-3.217-1.333Z" transform="translate(-1234.421 -638.141)" fill="#003887"/>
              </g>
              <g id="Grupo_883572" data-name="Grupo 883572" transform="translate(10.313 7.633)">
                <path id="Trazado_272258" data-name="Trazado 272258" d="M1195.272,639.054l6.794,6.794Z" transform="translate(-1194.823 -638.605)" fill="#fff"/>
                <path id="Trazado_272259" data-name="Trazado 272259" d="M1200.424,644.655a.447.447,0,0,1-.317-.131l-6.794-6.794a.449.449,0,0,1,.635-.634l6.794,6.794a.449.449,0,0,1-.317.766Z" transform="translate(-1193.182 -636.964)" fill="#003887"/>
              </g>
              <g id="Grupo_883573" data-name="Grupo 883573" transform="translate(6.828 4.149)">
                <path id="Trazado_272260" data-name="Trazado 272260" d="M1183.4,625a2.182,2.182,0,1,1-2.182-2.182A2.182,2.182,0,0,1,1183.4,625Z" transform="translate(-1178.587 -622.37)" fill="#fff"/>
                <path id="Trazado_272261" data-name="Trazado 272261" d="M1179.575,625.988a2.63,2.63,0,1,1,2.63-2.63A2.633,2.633,0,0,1,1179.575,625.988Zm0-4.363a1.733,1.733,0,1,0,1.733,1.733A1.735,1.735,0,0,0,1179.575,621.625Z" transform="translate(-1176.945 -620.728)" fill="#003887"/>
              </g>
              <g id="Grupo_883574" data-name="Grupo 883574" transform="translate(12.885 17.759)">
                <path id="Trazado_272262" data-name="Trazado 272262" d="M1207.26,686.234v0Z" transform="translate(-1206.812 -685.785)" fill="#fff"/>
                <path id="Trazado_272263" data-name="Trazado 272263" d="M1205.619,691.4a.449.449,0,0,1-.449-.449v-6.36a.449.449,0,0,1,.9,0v6.36A.449.449,0,0,1,1205.619,691.4Z" transform="translate(-1205.17 -684.144)" fill="#003887"/>
              </g>
              <g id="Grupo_883575" data-name="Grupo 883575" transform="translate(10.704 23.78)">
                <path id="Trazado_272264" data-name="Trazado 272264" d="M1201.458,716.471a2.182,2.182,0,1,1-2.182-2.181A2.182,2.182,0,0,1,1201.458,716.471Z" transform="translate(-1196.646 -713.842)" fill="#fff"/>
                <path id="Trazado_272265" data-name="Trazado 272265" d="M1197.635,717.46a2.63,2.63,0,1,1,2.63-2.63A2.633,2.633,0,0,1,1197.635,717.46Zm0-4.363a1.733,1.733,0,1,0,1.733,1.733A1.735,1.735,0,0,0,1197.635,713.1Z" transform="translate(-1195.005 -712.2)" fill="#003887"/>
              </g>
              <g id="Grupo_883576" data-name="Grupo 883576" transform="translate(9.048 17.759)">
                <path id="Trazado_272266" data-name="Trazado 272266" d="M1189.379,686.234h0Z" transform="translate(-1188.93 -685.785)" fill="#fff"/>
                <path id="Trazado_272267" data-name="Trazado 272267" d="M1195.8,685.041h-8.058a.449.449,0,1,1,0-.9h8.058a.449.449,0,1,1,0,.9Z" transform="translate(-1187.288 -684.144)" fill="#003887"/>
              </g>
              <g id="Grupo_883577" data-name="Grupo 883577" transform="translate(4.803 15.357)">
                <circle id="Elipse_5027" data-name="Elipse 5027" cx="2.182" cy="2.182" r="2.182" transform="translate(0 1.67) rotate(-22.5)" fill="#fff"/>
                <path id="Trazado_272268" data-name="Trazado 272268" d="M1171.167,679.239a2.63,2.63,0,1,1,2.63-2.63A2.633,2.633,0,0,1,1171.167,679.239Zm0-4.363a1.733,1.733,0,1,0,1.733,1.733A1.735,1.735,0,0,0,1171.167,674.876Z" transform="translate(-1168.317 -673.759)" fill="#003887"/>
              </g>
            </g>
          </g>
        </g>
        <g id="Grupo_883590" data-name="Grupo 883590" transform="translate(53.851 47.171)">
          <g id="Grupo_883581" data-name="Grupo 883581">
            <path id="Rectángulo_75192" data-name="Rectángulo 75192" d="M9.847,0H26.761a9.846,9.846,0,0,1,9.846,9.846v1.894a0,0,0,0,1,0,0H0a0,0,0,0,1,0,0V9.847A9.847,9.847,0,0,1,9.847,0Z" transform="translate(0.449 0.448)" fill="#5d9af0"/>
            <path id="Trazado_272269" data-name="Trazado 272269" d="M1336.589,825.666h-36.608a.449.449,0,0,1-.449-.449V815.59a2.565,2.565,0,0,1,2.562-2.562h32.381a2.565,2.565,0,0,1,2.562,2.562v9.627A.449.449,0,0,1,1336.589,825.666Zm-36.159-.9h35.71V815.59a1.666,1.666,0,0,0-1.664-1.665h-32.381a1.667,1.667,0,0,0-1.665,1.665Z" transform="translate(-1299.533 -813.028)" fill="#003887"/>
          </g>
          <g id="Grupo_883582" data-name="Grupo 883582" transform="translate(5.252 5.87)">
            <path id="Trazado_272270" data-name="Trazado 272270" d="M1330.64,841.277h-6.186a.449.449,0,1,1,0-.9h6.186a.449.449,0,1,1,0,.9Z" transform="translate(-1324.006 -840.38)" fill="#003887"/>
          </g>
          <g id="Grupo_883583" data-name="Grupo 883583" transform="translate(16.415 5.87)">
            <path id="Trazado_272271" data-name="Trazado 272271" d="M1378.356,841.277h-1.889a.449.449,0,1,1,0-.9h1.889a.449.449,0,1,1,0,.9Z" transform="translate(-1376.019 -840.38)" fill="#003887"/>
          </g>
          <g id="Grupo_883584" data-name="Grupo 883584" transform="translate(0 11.74)">
            <rect id="Rectángulo_75193" data-name="Rectángulo 75193" width="36.607" height="11.741" transform="translate(0.449 0.449)" fill="#fff"/>
            <path id="Trazado_272272" data-name="Trazado 272272" d="M1336.589,880.371h-36.608a.448.448,0,0,1-.449-.448V868.182a.449.449,0,0,1,.449-.449h36.608a.449.449,0,0,1,.448.449v11.741A.448.448,0,0,1,1336.589,880.371Zm-36.159-.9h35.71V868.63h-35.71Z" transform="translate(-1299.533 -867.733)" fill="#003887"/>
          </g>
          <g id="Grupo_883585" data-name="Grupo 883585" transform="translate(5.252 17.611)">
            <path id="Trazado_272273" data-name="Trazado 272273" d="M1330.64,895.983h-6.186a.449.449,0,1,1,0-.9h6.186a.449.449,0,1,1,0,.9Z" transform="translate(-1324.006 -895.086)" fill="#003887"/>
          </g>
          <g id="Grupo_883586" data-name="Grupo 883586" transform="translate(16.415 17.611)">
            <path id="Trazado_272274" data-name="Trazado 272274" d="M1378.356,895.983h-1.889a.449.449,0,1,1,0-.9h1.889a.449.449,0,1,1,0,.9Z" transform="translate(-1376.019 -895.086)" fill="#003887"/>
          </g>
          <g id="Grupo_883587" data-name="Grupo 883587" transform="translate(0 23.481)">
            <path id="Rectángulo_75194" data-name="Rectángulo 75194" d="M0,0H36.607a0,0,0,0,1,0,0V1.894a9.846,9.846,0,0,1-9.846,9.846H9.847A9.847,9.847,0,0,1,0,1.894V0A0,0,0,0,1,0,0Z" transform="translate(0.449 0.448)" fill="#ffce3b"/>
            <path id="Trazado_272275" data-name="Trazado 272275" d="M1334.476,935.077h-32.381a2.565,2.565,0,0,1-2.562-2.562v-9.627a.449.449,0,0,1,.449-.449h36.608a.448.448,0,0,1,.448.449v9.627A2.565,2.565,0,0,1,1334.476,935.077Zm-34.046-11.741v9.179a1.666,1.666,0,0,0,1.665,1.665h32.381a1.666,1.666,0,0,0,1.664-1.665v-9.179Z" transform="translate(-1299.533 -922.439)" fill="#003887"/>
          </g>
          <g id="Grupo_883588" data-name="Grupo 883588" transform="translate(5.252 29.351)">
            <path id="Trazado_272276" data-name="Trazado 272276" d="M1330.64,950.688h-6.186a.449.449,0,1,1,0-.9h6.186a.449.449,0,1,1,0,.9Z" transform="translate(-1324.006 -949.791)" fill="#003887"/>
          </g>
          <g id="Grupo_883589" data-name="Grupo 883589" transform="translate(16.415 29.351)">
            <path id="Trazado_272277" data-name="Trazado 272277" d="M1378.356,950.688h-1.889a.449.449,0,1,1,0-.9h1.889a.449.449,0,1,1,0,.9Z" transform="translate(-1376.019 -949.791)" fill="#003887"/>
          </g>
        </g>
      </g>
    </g>
  </g>
</svg>
