<svg xmlns="http://www.w3.org/2000/svg" width="136" height="136" viewBox="0 0 136 136">
  <g id="Grupo_883809" data-name="Grupo 883809" transform="translate(-1087 -1183)">
    <g id="Elipse_4918" data-name="Elipse 4918" transform="translate(1087 1183)" fill="#fff" stroke="#6b3fe5" stroke-width="3">
      <circle cx="68" cy="68" r="68" stroke="none"/>
      <circle cx="68" cy="68" r="66.5" fill="none"/>
    </g>
    <g id="Grupo_883674" data-name="Grupo 883674" transform="translate(-1188.154 610.836)">
      <g id="Grupo_883673" data-name="Grupo 883673" transform="translate(2296.154 594.164)">
        <g id="Grupo_883639" data-name="Grupo 883639" transform="translate(2.5)">
          <g id="Grupo_883636" data-name="Grupo 883636" transform="translate(27.92 1.322)">
            <path id="Trazado_272317" data-name="Trazado 272317" d="M2443.518,605.111a.433.433,0,0,1-.174-.829,44.873,44.873,0,0,1,4.846-1.8.433.433,0,0,1,.254.827,43.934,43.934,0,0,0-4.752,1.767A.432.432,0,0,1,2443.518,605.111Zm34.9-.38a.433.433,0,0,1-.165-.033,43.952,43.952,0,0,0-4.79-1.662.433.433,0,1,1,.236-.833,44.807,44.807,0,0,1,4.885,1.7.433.433,0,0,1-.166.832Zm-25.132-2.622a.433.433,0,0,1-.078-.858,45.2,45.2,0,0,1,5.129-.643.433.433,0,1,1,.058.863,44.339,44.339,0,0,0-5.031.631A.444.444,0,0,1,2453.29,602.109Zm15.3-.165a.441.441,0,0,1-.07-.006,44.473,44.473,0,0,0-5.045-.521.433.433,0,1,1,.04-.864,45.334,45.334,0,0,1,5.143.531.433.433,0,0,1-.068.86Z" transform="translate(-2443.085 -600.551)" fill="#003887"/>
          </g>
          <g id="Grupo_883637" data-name="Grupo 883637" transform="translate(1.601 51.232)">
            <path id="Trazado_272318" data-name="Trazado 272318" d="M2333.863,872.7a.432.432,0,0,1-.26-.087,45.388,45.388,0,0,1-3.947-3.339.433.433,0,0,1,.6-.628,44.423,44.423,0,0,0,3.872,3.275.433.433,0,0,1-.26.778Zm-7.416-7.037a.431.431,0,0,1-.332-.155,45.29,45.29,0,0,1-3.087-4.146.433.433,0,0,1,.723-.476,44.412,44.412,0,0,0,3.028,4.067.433.433,0,0,1-.332.711Zm-5.624-8.537a.433.433,0,0,1-.387-.238,44.915,44.915,0,0,1-2.059-4.741.433.433,0,0,1,.812-.3,43.987,43.987,0,0,0,2.02,4.65.433.433,0,0,1-.191.581A.428.428,0,0,1,2320.823,857.122Zm-3.523-9.595a.433.433,0,0,1-.42-.332,45.022,45.022,0,0,1-.917-5.087.433.433,0,0,1,.859-.1,44.085,44.085,0,0,0,.9,4.989.433.433,0,0,1-.32.522A.439.439,0,0,1,2317.3,847.527Z" transform="translate(-2315.96 -841.623)" fill="#003887"/>
          </g>
          <g id="Grupo_883638" data-name="Grupo 883638" transform="translate(68.556 45.817)">
            <path id="Trazado_272319" data-name="Trazado 272319" d="M2639.8,854.644a.433.433,0,0,1-.221-.8,44.392,44.392,0,0,0,4.2-2.837.433.433,0,0,1,.524.688,45.209,45.209,0,0,1-4.283,2.893A.43.43,0,0,1,2639.8,854.644Zm8.129-6.2a.433.433,0,0,1-.3-.745,44.585,44.585,0,0,0,3.449-3.718.433.433,0,0,1,.667.551,45.523,45.523,0,0,1-3.516,3.79A.432.432,0,0,1,2647.926,848.447Zm6.513-7.881a.433.433,0,0,1-.362-.669,44.2,44.2,0,0,0,2.513-4.4.433.433,0,0,1,.775.385,45.1,45.1,0,0,1-2.563,4.491A.432.432,0,0,1,2654.438,840.566Zm4.547-9.159a.433.433,0,0,1-.407-.579,43.919,43.919,0,0,0,1.437-4.865.433.433,0,0,1,.843.2,44.751,44.751,0,0,1-1.465,4.961A.433.433,0,0,1,2658.985,831.407Zm2.325-9.961-.05,0a.433.433,0,0,1-.381-.479,44.693,44.693,0,0,0,.287-5.062.433.433,0,0,1,.866,0,45.634,45.634,0,0,1-.293,5.16A.433.433,0,0,1,2661.311,821.446Z" transform="translate(-2639.363 -815.469)" fill="#003887"/>
          </g>
          <circle id="Elipse_5036" data-name="Elipse 5036" cx="32.704" cy="32.704" r="32.704" transform="translate(0 46.25) rotate(-45)" fill="#a3d4ff"/>
        </g>
        <g id="print" transform="translate(54.432 9.345)">
          <g id="Grupo_883640" data-name="Grupo 883640" transform="translate(6.186)">
            <path id="Trazado_272320" data-name="Trazado 272320" d="M2591.04,648.817V642.63a1.237,1.237,0,0,1,1.237-1.237h24.746a1.237,1.237,0,0,1,1.237,1.237v6.187Z" transform="translate(-2590.607 -640.96)" fill="#ffce3b"/>
            <path id="Trazado_272321" data-name="Trazado 272321" d="M2616.6,647.592a.432.432,0,0,1-.433-.433v-6.187a.806.806,0,0,0-.8-.8H2590.62a.806.806,0,0,0-.8.8v6.187a.433.433,0,0,1-.866,0v-6.187a1.672,1.672,0,0,1,1.67-1.67h24.746a1.672,1.672,0,0,1,1.67,1.67v6.187A.433.433,0,0,1,2616.6,647.592Z" transform="translate(-2588.95 -639.303)" fill="#003887"/>
          </g>
          <g id="Grupo_883643" data-name="Grupo 883643" transform="translate(0 7.424)">
            <g id="Grupo_883641" data-name="Grupo 883641">
              <path id="Trazado_272322" data-name="Trazado 272322" d="M2567.345,700.141h-1.856a4.331,4.331,0,0,1-4.331-4.331V681.581a4.331,4.331,0,0,1,4.331-4.331h30.932a4.33,4.33,0,0,1,4.33,4.331V695.81a4.33,4.33,0,0,1-4.33,4.331h-29.076Z" transform="translate(-2560.726 -676.818)" fill="#5d9af0"/>
              <path id="Trazado_272323" data-name="Trazado 272323" d="M2594.765,698.916h-1.83a.433.433,0,1,1,0-.865h1.83a3.9,3.9,0,0,0,3.9-3.9V679.924a3.9,3.9,0,0,0-3.9-3.9h-30.932a3.9,3.9,0,0,0-3.9,3.9v14.229a3.9,3.9,0,0,0,3.9,3.9h1.856a.433.433,0,1,1,0,.865h-1.856a4.769,4.769,0,0,1-4.763-4.763V679.924a4.769,4.769,0,0,1,4.763-4.763h30.932a4.769,4.769,0,0,1,4.763,4.763v14.229A4.769,4.769,0,0,1,2594.765,698.916Z" transform="translate(-2559.069 -675.161)" fill="#003887"/>
            </g>
            <g id="Grupo_883642" data-name="Grupo 883642" transform="translate(5.981 4.125)">
              <circle id="Elipse_5037" data-name="Elipse 5037" cx="4.331" cy="4.331" r="4.331" transform="translate(0 8.549) rotate(-80.783)" fill="#fff"/>
              <path id="Trazado_272324" data-name="Trazado 272324" d="M2593.713,705.6a4.763,4.763,0,1,1,4.763-4.763A4.769,4.769,0,0,1,2593.713,705.6Zm0-8.661a3.9,3.9,0,1,0,3.9,3.9A3.9,3.9,0,0,0,2593.713,696.943Z" transform="translate(-2588.745 -695.873)" fill="#003887"/>
            </g>
          </g>
          <g id="Grupo_883644" data-name="Grupo 883644" transform="translate(6.186 24.746)">
            <path id="Trazado_272325" data-name="Trazado 272325" d="M2618.26,760.921v13.61a1.237,1.237,0,0,1-1.237,1.237h-24.746a1.237,1.237,0,0,1-1.237-1.237v-13.61Z" transform="translate(-2590.607 -760.488)" fill="#ffce3b"/>
            <path id="Trazado_272326" data-name="Trazado 272326" d="M2615.366,774.544H2590.62a1.672,1.672,0,0,1-1.67-1.67v-13.61a.433.433,0,0,1,.866,0v13.61a.805.805,0,0,0,.8.8h24.746a.805.805,0,0,0,.8-.8v-13.61a.433.433,0,1,1,.865,0v13.61A1.672,1.672,0,0,1,2615.366,774.544Z" transform="translate(-2588.95 -758.831)" fill="#003887"/>
          </g>
          <g id="Grupo_883645" data-name="Grupo 883645" transform="translate(6.186 24.746)">
            <path id="Trazado_272327" data-name="Trazado 272327" d="M2591.04,760.919h0Z" transform="translate(-2590.607 -760.486)" fill="#fff"/>
            <path id="Trazado_272328" data-name="Trazado 272328" d="M2616.606,759.694h-27.223a.433.433,0,1,1,0-.865h27.223a.433.433,0,1,1,0,.865Z" transform="translate(-2588.95 -758.829)" fill="#003887"/>
          </g>
          <g id="Grupo_883646" data-name="Grupo 883646" transform="translate(22.402 29.143)">
            <path id="Trazado_272329" data-name="Trazado 272329" d="M2669.362,782.16h0Z" transform="translate(-2668.929 -781.727)" fill="#fff"/>
            <path id="Trazado_272330" data-name="Trazado 272330" d="M2674.34,780.935H2667.7a.433.433,0,0,1,0-.865h6.635a.433.433,0,1,1,0,.865Z" transform="translate(-2667.272 -780.07)" fill="#003887"/>
          </g>
          <g id="Grupo_883647" data-name="Grupo 883647" transform="translate(10.56 29.143)">
            <path id="Trazado_272331" data-name="Trazado 272331" d="M2612.164,782.16h0Z" transform="translate(-2611.731 -781.727)" fill="#fff"/>
            <path id="Trazado_272332" data-name="Trazado 272332" d="M2617.729,780.935h-7.223a.433.433,0,0,1,0-.865h7.223a.433.433,0,0,1,0,.865Z" transform="translate(-2610.074 -780.07)" fill="#003887"/>
          </g>
          <g id="Grupo_883648" data-name="Grupo 883648" transform="translate(10.56 32.555)">
            <path id="Trazado_272333" data-name="Trazado 272333" d="M2612.164,798.64h0Z" transform="translate(-2611.731 -798.207)" fill="#fff"/>
            <path id="Trazado_272334" data-name="Trazado 272334" d="M2628.983,797.415h-18.477a.433.433,0,0,1,0-.865h18.477a.433.433,0,1,1,0,.865Z" transform="translate(-2610.074 -796.55)" fill="#003887"/>
          </g>
          <g id="Grupo_883649" data-name="Grupo 883649" transform="translate(19.798 16.085)">
            <path id="Trazado_272335" data-name="Trazado 272335" d="M2674.925,717.86H2655.13a.433.433,0,0,1,0-.865h19.795a.433.433,0,1,1,0,.865Z" transform="translate(-2654.697 -716.995)" fill="#003887"/>
          </g>
        </g>
        <g id="Grupo_883658" data-name="Grupo 883658" transform="translate(0 7.544)">
          <g id="Grupo_883650" data-name="Grupo 883650" transform="translate(38.181 23.863)">
            <path id="Trazado_272336" data-name="Trazado 272336" d="M2482.666,757.845a2.717,2.717,0,0,0,2.48,1.6h8.354a1.04,1.04,0,0,0,.736-1.776l-3.966-3.966,3.966-3.966a1.04,1.04,0,0,0-.736-1.776h-6.094Z" transform="translate(-2482.233 -747.524)" fill="#ffce3b"/>
            <path id="Trazado_272337" data-name="Trazado 272337" d="M2491.843,758.216h-8.354a3.16,3.16,0,0,1-2.875-1.85.433.433,0,0,1,.788-.357,2.293,2.293,0,0,0,2.086,1.342h8.354a.608.608,0,0,0,.429-1.037l-3.966-3.966a.433.433,0,0,1,0-.612l3.966-3.966a.608.608,0,0,0-.429-1.037h-6.094a.433.433,0,0,1,0-.865h6.094a1.473,1.473,0,0,1,1.042,2.515l-3.66,3.66,3.66,3.66a1.473,1.473,0,0,1-1.042,2.515Z" transform="translate(-2480.576 -745.867)" fill="#003887"/>
          </g>
          <g id="Grupo_883651" data-name="Grupo 883651" transform="translate(0 23.863)">
            <path id="Trazado_272338" data-name="Trazado 272338" d="M2305.143,747.957h-5.848a1.04,1.04,0,0,0-.736,1.776l3.966,3.966-3.966,3.966a1.04,1.04,0,0,0,.736,1.776h8.354a2.719,2.719,0,0,0,2.368-1.377Z" transform="translate(-2297.818 -747.524)" fill="#ffce3b"/>
            <path id="Trazado_272339" data-name="Trazado 272339" d="M2305.985,758.216h-8.354a1.473,1.473,0,0,1-1.042-2.515l3.66-3.66-3.66-3.66a1.473,1.473,0,0,1,1.042-2.515h5.848a.433.433,0,1,1,0,.865h-5.848a.607.607,0,0,0-.43,1.037l3.966,3.966a.433.433,0,0,1,0,.612l-3.966,3.966a.608.608,0,0,0,.43,1.037h8.354a2.3,2.3,0,0,0,1.992-1.158.433.433,0,1,1,.752.428A3.163,3.163,0,0,1,2305.985,758.216Z" transform="translate(-2296.154 -745.867)" fill="#003887"/>
          </g>
          <g id="Grupo_883653" data-name="Grupo 883653" transform="translate(8.565)">
            <g id="Grupo_883652" data-name="Grupo 883652">
              <path id="Trazado_272340" data-name="Trazado 272340" d="M2371.351,663.65c-1.513,2.579-5.482,7.228-15.434,10.721-9.957-3.495-13.926-8.147-15.437-10.726l-.868-11.253v-11.83l16.3-7.868,16.3,7.868v11.8Z" transform="translate(-2339.179 -632.261)" fill="#fff"/>
              <path id="Trazado_272341" data-name="Trazado 272341" d="M2354.26,673.146a.43.43,0,0,1-.143-.024c-10.155-3.564-14.174-8.368-15.667-10.915a.437.437,0,0,1-.058-.185l-.868-11.253c0-.011,0-.022,0-.033V638.9a.433.433,0,0,1,.245-.39l16.3-7.868a.434.434,0,0,1,.376,0l16.3,7.868a.433.433,0,0,1,.245.39v11.8c0,.011,0,.022,0,.033l-.871,11.29a.434.434,0,0,1-.058.185c-1.493,2.545-5.512,7.347-15.664,10.91A.431.431,0,0,1,2354.26,673.146Zm-15.013-11.292c1.465,2.453,5.337,6.974,15.013,10.4,9.673-3.426,13.545-7.944,15.01-10.4l.862-11.172V639.176l-15.872-7.659-15.872,7.659v11.542Zm30.447.138h0Z" transform="translate(-2337.522 -630.604)" fill="#003887"/>
            </g>
          </g>
          <g id="Grupo_883656" data-name="Grupo 883656" transform="translate(19.319 5.253)">
            <g id="Grupo_883654" data-name="Grupo 883654">
              <path id="Trazado_272342" data-name="Trazado 272342" d="M2399.627,672.29v-3.972a5.551,5.551,0,0,0-.888-10.252v4.451a1.632,1.632,0,1,1-3.263,0v-4.451a5.551,5.551,0,0,0-.888,10.252v3.972Z" transform="translate(-2391.124 -657.633)" fill="#5d9af0"/>
              <path id="Trazado_272343" data-name="Trazado 272343" d="M2397.97,671.065a.433.433,0,0,1-.433-.433V666.66a.433.433,0,0,1,.236-.385,5.119,5.119,0,0,0-.258-9.245v3.831a2.064,2.064,0,1,1-4.128,0v-3.831a5.119,5.119,0,0,0-.259,9.245.433.433,0,0,1,.236.385v3.972a.433.433,0,1,1-.865,0v-3.714a5.984,5.984,0,0,1,1.193-10.924.433.433,0,0,1,.56.414v4.451a1.2,1.2,0,1,0,2.4,0v-4.451a.433.433,0,0,1,.56-.414,5.984,5.984,0,0,1,1.194,10.924v3.714A.433.433,0,0,1,2397.97,671.065Z" transform="translate(-2389.467 -655.976)" fill="#003887"/>
            </g>
            <g id="Grupo_883655" data-name="Grupo 883655" transform="translate(3.031 25.707)">
              <path id="Trazado_272344" data-name="Trazado 272344" d="M2406.2,782.233v3.683a2.52,2.52,0,1,0,5.039,0v-3.683Z" transform="translate(-2405.765 -781.8)" fill="#5d9af0"/>
              <path id="Trazado_272345" data-name="Trazado 272345" d="M2407.06,787.211a2.956,2.956,0,0,1-2.952-2.952v-3.683a.433.433,0,0,1,.865,0v3.683a2.087,2.087,0,1,0,4.173,0v-3.683a.433.433,0,0,1,.865,0v3.683A2.955,2.955,0,0,1,2407.06,787.211Z" transform="translate(-2404.108 -780.143)" fill="#003887"/>
            </g>
          </g>
          <g id="Grupo_883657" data-name="Grupo 883657" transform="translate(6.892 19.477)">
            <rect id="Rectángulo_75197" data-name="Rectángulo 75197" width="36.03" height="11.483" rx="5.741" transform="translate(0.433 0.433)" fill="#ffce3b"/>
            <path id="Trazado_272346" data-name="Trazado 272346" d="M2363.152,737.028h-30.52a3.192,3.192,0,0,1-3.188-3.188v-5.971a3.192,3.192,0,0,1,3.188-3.188h30.52a3.192,3.192,0,0,1,3.188,3.188v5.971A3.192,3.192,0,0,1,2363.152,737.028Zm-30.52-11.483a2.325,2.325,0,0,0-2.323,2.323v5.971a2.325,2.325,0,0,0,2.323,2.323h30.52a2.325,2.325,0,0,0,2.323-2.323v-5.971a2.325,2.325,0,0,0-2.323-2.323Z" transform="translate(-2329.444 -724.68)" fill="#003887"/>
          </g>
        </g>
        <g id="Grupo_883672" data-name="Grupo 883672" transform="translate(27.374 47.488)">
          <path id="Trazado_272347" data-name="Trazado 272347" d="M2478.608,862.922a15.358,15.358,0,0,0-30.679-.163l-1.716,5.209.158,2.412,4.785,13.249h0a5.268,5.268,0,0,0,3.777,1.6h18.712a3.069,3.069,0,0,0,2.947-2.212l3.627-12.472.194-2.323Z" transform="translate(-2442.52 -843.114)" fill="#fff"/>
          <g id="Grupo_883671" data-name="Grupo 883671">
            <g id="Grupo_883659" data-name="Grupo 883659" transform="translate(0.989 24.165)">
              <path id="Trazado_272348" data-name="Trazado 272348" d="M2437.671,945.019l-.158-2.412-2.271-.255.352,5.323v0Z" transform="translate(-2434.809 -941.919)" fill="#fff"/>
              <path id="Trazado_272349" data-name="Trazado 272349" d="M2433.936,946.453a.433.433,0,0,1-.432-.416l-.351-5.314a.433.433,0,0,1,.48-.459l2.271.255a.433.433,0,0,1,.384.4l.158,2.412a.433.433,0,0,1-.091.295l-2.078,2.659A.433.433,0,0,1,2433.936,946.453Zm.114-5.271.243,3.678,1.278-1.636-.124-1.886Z" transform="translate(-2433.151 -940.262)" fill="#003887"/>
            </g>
            <g id="Grupo_883660" data-name="Grupo 883660" transform="translate(37.305 24.413)">
              <path id="Trazado_272350" data-name="Trazado 272350" d="M2610.652,946.162l.156-2.358,2.271-.258-.347,5.275Z" transform="translate(-2610.219 -943.114)" fill="#fff"/>
              <path id="Trazado_272351" data-name="Trazado 272351" d="M2611.075,947.6a.433.433,0,0,1-.341-.166l-2.08-2.659a.432.432,0,0,1-.091-.3l.156-2.358a.432.432,0,0,1,.383-.4l2.271-.258a.433.433,0,0,1,.48.458l-.347,5.275a.433.433,0,0,1-.432.4Zm-1.638-3.228,1.28,1.636.238-3.627-1.4.159Z" transform="translate(-2608.562 -941.457)" fill="#003887"/>
            </g>
            <g id="Grupo_883661" data-name="Grupo 883661" transform="translate(19.1 14.147)">
              <path id="Trazado_272352" data-name="Trazado 272352" d="M2522.722,901.809V895.15a1.188,1.188,0,0,1,2.376,0v6.631Z" transform="translate(-2522.289 -893.529)" fill="#fff"/>
              <path id="Trazado_272353" data-name="Trazado 272353" d="M2521.065,900.584a.433.433,0,0,1-.433-.433v-6.659a1.621,1.621,0,0,1,3.242,0v6.631a.433.433,0,1,1-.865,0v-6.631a.755.755,0,1,0-1.511,0v6.659A.433.433,0,0,1,2521.065,900.584Z" transform="translate(-2520.632 -891.871)" fill="#003887"/>
            </g>
            <g id="Grupo_883662" data-name="Grupo 883662" transform="translate(20.303 30.952)">
              <path id="Trazado_272354" data-name="Trazado 272354" d="M2537.408,984.632h-8.156a2.815,2.815,0,0,1-2.811-2.811v-8.346a.433.433,0,0,1,.865,0v8.346a1.948,1.948,0,0,0,1.946,1.946h8.156a1.949,1.949,0,0,0,1.766-1.132.433.433,0,0,1,.787.361A2.817,2.817,0,0,1,2537.408,984.632Z" transform="translate(-2526.441 -973.042)" fill="#003887"/>
            </g>
            <g id="Grupo_883663" data-name="Grupo 883663" transform="translate(0.262)">
              <path id="Trazado_272355" data-name="Trazado 272355" d="M2436.446,844.844s0,0,0,0a15.358,15.358,0,0,1,30.679.163l4.691-.2a20.061,20.061,0,0,0-40.083.033v0Z" transform="translate(-2431.299 -825.196)" fill="#5d9af0"/>
              <path id="Trazado_272356" data-name="Trazado 272356" d="M2465.467,843.78a.433.433,0,0,1-.432-.413,15.1,15.1,0,0,0-14.912-14.284h-.005a14.953,14.953,0,0,0-14.9,14.116.432.432,0,0,1-.432.42h0l-4.714-.008a.433.433,0,0,1-.432-.433c0-.006,0-.015,0-.021a20.585,20.585,0,0,1,20.475-19.619h0a20.585,20.585,0,0,1,20.473,19.585.433.433,0,0,1-.413.452l-4.691.2Zm-15.343-15.563a15.884,15.884,0,0,1,15.75,14.679l3.828-.166a19.628,19.628,0,0,0-39.17.017l3.853.006a15.882,15.882,0,0,1,15.733-14.536Z" transform="translate(-2429.642 -823.539)" fill="#003887"/>
            </g>
            <g id="Grupo_883664" data-name="Grupo 883664" transform="translate(4.261 25.093)">
              <path id="Trazado_272357" data-name="Trazado 272357" d="M2451.055,948.859a1.844,1.844,0,0,1,3.635-.579l1.84,11.541a1.843,1.843,0,0,1-3.633.579Z" transform="translate(-2450.614 -946.402)" fill="#ffce3b"/>
              <path id="Trazado_272358" data-name="Trazado 272358" d="M2453.039,960.62a2.278,2.278,0,0,1-2.221-1.785.433.433,0,1,1,.845-.187,1.41,1.41,0,0,0,2.781-.431l-1.836-11.514a1.411,1.411,0,0,0-2.78.455.433.433,0,1,1-.861.085,2.277,2.277,0,0,1,4.489-.714l0,.025,1.841,11.541c0,.008,0,.017,0,.025a2.277,2.277,0,0,1-2.265,2.5Z" transform="translate(-2448.956 -944.743)" fill="#003887"/>
            </g>
            <g id="Grupo_883665" data-name="Grupo 883665" transform="translate(0 18.173)">
              <rect id="Rectángulo_75198" data-name="Rectángulo 75198" width="5.17" height="6.229" rx="2.585" transform="translate(0.293 0.701) rotate(-4.535)" fill="#fff"/>
              <path id="Trazado_272359" data-name="Trazado 272359" d="M2430.851,918.521a2.28,2.28,0,0,1-2.268-2.1l-.2-2.528a2.279,2.279,0,0,1,2.092-2.452l1.472-.117a2.283,2.283,0,0,1,2.452,2.092l.2,2.528a2.279,2.279,0,0,1-2.092,2.452l-1.472.117C2430.973,918.518,2430.912,918.521,2430.851,918.521Zm1.276-6.338c-.037,0-.075,0-.113,0l-1.472.117a1.415,1.415,0,0,0-1.3,1.521l.2,2.528a1.414,1.414,0,0,0,1.521,1.3l1.472-.117h0a1.414,1.414,0,0,0,1.3-1.521l-.2-2.528A1.416,1.416,0,0,0,2432.127,912.182Z" transform="translate(-2428.375 -911.317)" fill="#003887"/>
            </g>
            <g id="Grupo_883666" data-name="Grupo 883666" transform="translate(30.968 25.287)">
              <path id="Trazado_272360" data-name="Trazado 272360" d="M2585.531,949.795a1.844,1.844,0,0,0-3.635-.579l-1.841,11.541a1.843,1.843,0,0,0,3.633.579Z" transform="translate(-2579.613 -947.338)" fill="#ffce3b"/>
              <path id="Trazado_272361" data-name="Trazado 272361" d="M2580.231,961.556a2.277,2.277,0,0,1-2.265-2.5c0-.008,0-.017,0-.025l1.841-11.541c0-.009,0-.017,0-.026a2.277,2.277,0,0,1,4.489.715.433.433,0,1,1-.861-.085,1.411,1.411,0,0,0-2.78-.455l-1.836,11.514a1.41,1.41,0,0,0,2.781.431.433.433,0,0,1,.845.187A2.279,2.279,0,0,1,2580.231,961.556Z" transform="translate(-2577.955 -945.68)" fill="#003887"/>
            </g>
            <g id="Grupo_883667" data-name="Grupo 883667" transform="translate(35.266 18.31)">
              <rect id="Rectángulo_75199" data-name="Rectángulo 75199" width="5.257" height="6.334" rx="2.628" transform="translate(5.533 7.022) rotate(-175.464)" fill="#fff"/>
              <path id="Trazado_272362" data-name="Trazado 272362" d="M2602.555,919.293q-.09,0-.182-.007l-1.559-.124h0a2.282,2.282,0,0,1-2.092-2.452l.209-2.633a2.28,2.28,0,0,1,2.452-2.092l1.559.124a2.279,2.279,0,0,1,2.092,2.452l-.208,2.633A2.283,2.283,0,0,1,2602.555,919.293Zm-1.672-.994,1.559.124a1.413,1.413,0,0,0,1.521-1.3l.209-2.632a1.414,1.414,0,0,0-1.3-1.521l-1.559-.124a1.417,1.417,0,0,0-1.521,1.3l-.209,2.632a1.415,1.415,0,0,0,1.3,1.521Z" transform="translate(-2598.715 -911.978)" fill="#003887"/>
            </g>
            <g id="Grupo_883668" data-name="Grupo 883668" transform="translate(17.886 21.939)">
              <rect id="Rectángulo_75200" data-name="Rectángulo 75200" width="4.947" height="10.9" rx="2.473" transform="translate(0.433 0.433)" fill="#5d9af0"/>
              <path id="Trazado_272363" data-name="Trazado 272363" d="M2518.534,941.272h-1.718a2.05,2.05,0,0,1-2.047-2.047v-7.671a2.05,2.05,0,0,1,2.047-2.048h1.718a2.05,2.05,0,0,1,2.047,2.048v7.671A2.05,2.05,0,0,1,2518.534,941.272Zm-1.718-10.9a1.184,1.184,0,0,0-1.182,1.182v7.671a1.183,1.183,0,0,0,1.182,1.182h1.718a1.183,1.183,0,0,0,1.182-1.182v-7.671a1.183,1.183,0,0,0-1.182-1.182Z" transform="translate(-2514.769 -929.507)" fill="#003887"/>
            </g>
            <g id="Grupo_883669" data-name="Grupo 883669" transform="translate(0.55 26.668)">
              <path id="Trazado_272364" data-name="Trazado 272364" d="M2438.038,967.233a8.837,8.837,0,0,1-4.444-4.5,6.724,6.724,0,0,1-.471-2.356,6.61,6.61,0,0,1,.79-3.115v0a9.9,9.9,0,0,1,2.078-2.656.511.511,0,0,1,.038-.036.484.484,0,0,1,.8.25l.008.043a.1.1,0,0,0,0,.028l1.843,11.541.051.321A.483.483,0,0,1,2438.038,967.233Z" transform="translate(-2432.69 -954.007)" fill="#5d9af0"/>
              <path id="Trazado_272365" data-name="Trazado 272365" d="M2436.6,966.058a.926.926,0,0,1-.4-.093h0a9.2,9.2,0,0,1-4.656-4.73,7.152,7.152,0,0,1-.5-2.509,7.027,7.027,0,0,1,.826-3.293c0-.01.009-.019.013-.028a10.353,10.353,0,0,1,2.163-2.77c.019-.018.036-.035.054-.05a.931.931,0,0,1,.926-.181.885.885,0,0,1,.587.689l.007.037a.447.447,0,0,1,.006.048l1.892,11.85a.882.882,0,0,1-.352.847A.936.936,0,0,1,2436.6,966.058Zm-.026-.871a.067.067,0,0,0,.082-.024l-1.893-11.853a.535.535,0,0,1-.008-.059l0-.015c0-.01-.016-.019-.037-.021a.064.064,0,0,0-.049.016l-.014.012-.009.009-.014.014a9.5,9.5,0,0,0-1.973,2.512l-.013.028a6.18,6.18,0,0,0-.741,2.912,6.4,6.4,0,0,0,.442,2.2A8.35,8.35,0,0,0,2436.571,965.187Zm-.965-12.06h0Z" transform="translate(-2431.033 -952.349)" fill="#003887"/>
            </g>
            <g id="Grupo_883670" data-name="Grupo 883670" transform="translate(34.554 26.863)">
              <path id="Trazado_272366" data-name="Trazado 272366" d="M2602.982,961.323a6.69,6.69,0,0,1-.474,2.356,8.807,8.807,0,0,1-4.441,4.5.482.482,0,0,1-.7-.479l.051-.321,1.864-11.651a.483.483,0,0,1,.793-.212.5.5,0,0,1,.038.036,9.922,9.922,0,0,1,2.08,2.659A6.613,6.613,0,0,1,2602.982,961.323Z" transform="translate(-2596.93 -954.95)" fill="#5d9af0"/>
              <path id="Trazado_272367" data-name="Trazado 272367" d="M2596.193,967a.931.931,0,0,1-.554-.183.88.88,0,0,1-.354-.848l.051-.321L2597.2,954c0-.012,0-.023.007-.035a.877.877,0,0,1,.608-.63.921.921,0,0,1,.889.195c.018.015.036.032.053.05a10.363,10.363,0,0,1,2.166,2.772,7.036,7.036,0,0,1,.836,3.318h0a7.252,7.252,0,0,1-.5,2.509,9.16,9.16,0,0,1-4.654,4.728A.92.92,0,0,1,2596.193,967Zm1.855-12.832L2596.14,966.1a.051.051,0,0,0,.03.025.059.059,0,0,0,.05,0,8.316,8.316,0,0,0,4.229-4.266,6.363,6.363,0,0,0,.445-2.2,6.18,6.18,0,0,0-.739-2.912,9.51,9.51,0,0,0-1.989-2.54l-.013-.012-.011-.011-.014-.013a.06.06,0,0,0-.047-.016A.063.063,0,0,0,2598.049,954.168Zm3.278,5.5h0Z" transform="translate(-2595.274 -953.291)" fill="#003887"/>
            </g>
          </g>
        </g>
      </g>
    </g>
  </g>
</svg>
