<svg xmlns="http://www.w3.org/2000/svg" xmlns:xlink="http://www.w3.org/1999/xlink" width="37" height="37" viewBox="0 0 37 37">
  <defs>
    <clipPath id="clip-path">
      <rect id="Rectángulo_66801" data-name="Rectángulo 66801" width="37" height="37" transform="translate(265 2756)" fill="#fb394b"/>
    </clipPath>
  </defs>
  <g id="Enmascarar_grupo_55" data-name="Enmascarar grupo 55" transform="translate(-265 -2756)" clip-path="url(#clip-path)">
    <g id="alerta" transform="translate(265 2756)">
      <g id="Page-1_44_">
        <g id="_x30_45---Phishing-Mail-Alert">
          <path id="Shape_105_" d="M10.6,14.288h1.228a1.228,1.228,0,0,0,1.228-1.228V3.853a1.228,1.228,0,0,0-1.228-1.228H10.6A1.228,1.228,0,0,0,9.368,3.853V13.06A1.228,1.228,0,0,0,10.6,14.288Zm0-10.435h1.228V13.06H10.6Z" fill="#fb394b"/>
          <path id="Shape_104_" d="M13.051,17.971V16.743a1.228,1.228,0,0,0-1.228-1.228H10.6a1.228,1.228,0,0,0-1.228,1.228v1.228A1.228,1.228,0,0,0,10.6,19.2h1.228A1.228,1.228,0,0,0,13.051,17.971ZM10.6,16.743h1.228v1.228H10.6Z" fill="#fb394b"/>
          <path id="Shape_103_" d="M36.255,19.913s-.007,0-.01-.008c-.019-.018-.033-.04-.052-.057a2.428,2.428,0,0,0-1.657-.649h-4.3V10.359a1.908,1.908,0,0,0-1.228-1.78V.783a.614.614,0,1,0-1.228,0V8.575a1.907,1.907,0,0,0-1.228,1.78V19.2H22.873v-.614h.362a1.228,1.228,0,0,0,.866-2.1l-2.093-2.093a1.69,1.69,0,0,0-.178-.134,11.134,11.134,0,1,0-9.392,7.933V34.545a2.437,2.437,0,0,0,.737,1.735l0,.006.008.006c.019.019.033.042.053.061A2.431,2.431,0,0,0,14.893,37H34.536a2.422,2.422,0,0,0,1.65-.643c.021-.018.036-.042.056-.061,0,0,.009-.006.012-.01s0-.007,0-.01a2.434,2.434,0,0,0,.732-1.732V21.654a2.431,2.431,0,0,0-.737-1.735Zm-9.2,8.187,8.613-6.925a1.223,1.223,0,0,1,.1.479V34.545a1.215,1.215,0,0,1-.1.479Zm7.574-7.664-8.939,7.186-.967.785L14.8,20.435c.03,0,.061-.009.09-.009h4.3A5.531,5.531,0,0,0,24.1,25.915v.65a.614.614,0,1,0,1.228,0V21.654a.614.614,0,0,0-1.228,0v.5a1.919,1.919,0,0,1-1.219-1.727H34.536C34.566,20.426,34.6,20.432,34.625,20.435ZM13.765,35.024a1.223,1.223,0,0,1-.1-.479V21.654a1.215,1.215,0,0,1,.1-.479L22.377,28.1ZM27.784,10.359a.655.655,0,0,1,.568-.67.406.406,0,0,1,.095,0,.655.655,0,0,1,.565.67V19.2H27.784V10.359Zm-4.549,7h-.976a.614.614,0,0,0-.614.614v1.751a.233.233,0,0,0,0,.184v.419a1.21,1.21,0,0,0,.008.158A3.124,3.124,0,0,0,24.1,23.419v1.255a4.3,4.3,0,0,1-3.683-4.248V15.516a.505.505,0,0,1,.01-.1.325.325,0,0,1,.238-.258.522.522,0,0,1,.228-.016l.007,0h.015a.421.421,0,0,1,.22.114ZM1.388,11.219a9.821,9.821,0,1,1,19.259,2.707,1.688,1.688,0,0,0-.359.064A1.528,1.528,0,0,0,19.22,15.2a1.651,1.651,0,0,0-.03.317V19.2h-4.3a2.426,2.426,0,0,0-1.651.643c-.02.018-.034.041-.053.061,0,0-.01.007-.014.012l0,.01a2.418,2.418,0,0,0-.614,1.016A9.76,9.76,0,0,1,1.388,11.219Zm13.5,24.554c-.03,0-.061-.006-.09-.009l8.554-6.875.592.476a1.231,1.231,0,0,0,1.532,0l.592-.476,8.553,6.875c-.029,0-.061.008-.089.008Z" fill="#fb394b"/>
        </g>
      </g>
    </g>
  </g>
</svg>
