<svg id="Grupo_882109" data-name="Grupo 882109" xmlns="http://www.w3.org/2000/svg" xmlns:xlink="http://www.w3.org/1999/xlink" width="69.566" height="78.836" viewBox="0 0 69.566 78.836">
  <defs>
    <clipPath id="clip-path">
      <rect id="Rectángulo_66780" data-name="Rectángulo 66780" width="69.566" height="78.836" fill="none"/>
    </clipPath>
  </defs>
  <g id="Grupo_873024" data-name="Grupo 873024" transform="translate(0 0)" clip-path="url(#clip-path)">
    <path id="Trazado_199631" data-name="Trazado 199631" d="M4.114,21.726l18.527-11.1a5.634,5.634,0,0,1,1.571-.654,6.523,6.523,0,0,1,4.637-.93L46.48,11.468c3.392-1.67,8.071-1.046,7.969,3.416a143.455,143.455,0,0,1-4.063,30.942,4.157,4.157,0,0,1-.242,2.15q-.7,1.788-1.46,3.539c-.573,7.2-4.027,10.892-9.45,18.344-.287.394-.859.45-1.3.646q-2.82,3.922-6.034,7.6c-1.138,1.3-3.542,3.066-5.18,2.434A34.728,34.728,0,0,1,6.5,60.639C2.512,50.423,3.124,37.381,1.667,27.74a5.962,5.962,0,0,1,2.447-6.013" transform="translate(14.183 -3.704)" fill="#29abe2"/>
    <path id="Trazado_199632" data-name="Trazado 199632" d="M8.625,16.253a2.644,2.644,0,0,1,1.921-2.643c2.889-.682,4.508-2.583,6.769-4.341,1.909-1.485,4-2.118,6.193-3.128,2.308-1.063,4.677-2.531,7.026-3.5,2.034-.84,4.328-2.171,6.54-1.134a3.784,3.784,0,0,1,.843.559,2.524,2.524,0,0,1,1.343-.272c9.465.5,13.6,1,23.069,1.5,3.409.18,11.95,4.973,8.52,4.792-3.656-.193-7.989-.273-12.374-.345a2.93,2.93,0,0,0-1.251-.5c-2.259-.322-4.8-.407-6.922-.71a4.89,4.89,0,0,0-3.9.942c-.891-.033-1.762-.07-2.591-.114A2.726,2.726,0,0,1,43,8.074L25.618,18.261a22.354,22.354,0,0,1-5.12,2.478,3.533,3.533,0,0,1,.339,1.226q.9,9.616,1.16,19.27c.484,1,.918,2.022,1.341,3.021,2.239,5.288,2.491,10.711,3.966,16.26.381,1.434,2.3,2.511,1.259,3,4.683,3.6,9.071,9.68,14.765,11.093,3.324.825,1.383,3.3-1.948,2.472C32.9,74.979,26.116,69,19.3,63.85c-.9-.682-2.27-1.652-2.174-2.565-3.778-3.91-5.344-9.484-6.36-14.937-1.548-8.31-2.25-15.988-3.016-24.4a2.279,2.279,0,0,1,.079-.835l-.116-.052c-2.477-1.156-1.253-4.313.913-4.806" transform="translate(-5.799 -0.466)" fill="#49bfe8"/>
    <path id="Trazado_199633" data-name="Trazado 199633" d="M35.256,56.533,36.5,53.216a11.7,11.7,0,0,1,.413-1.718,5.459,5.459,0,0,1,4.178-3.879,2.512,2.512,0,0,1,2.582-.721,4.914,4.914,0,0,1,2.45,1.69,5.082,5.082,0,0,1,1.04,2.821,2.094,2.094,0,0,1-.163.911,6.286,6.286,0,0,1-.226,2.782,10.924,10.924,0,0,1-1.826,5.31c.379,2.271-.262,4.954-.463,7.225-.3,3.386-5.627,3.418-5.324,0a43.466,43.466,0,0,0,.467-5.284c-.045-1.2.555-.029-.228-1.056-.366-.481-1-.75-1.392-1.251-.032-.04-.055-.083-.083-.124a2.313,2.313,0,0,1-.807-.114,2.693,2.693,0,0,1-1.859-3.275" transform="translate(1.788 -19.327)" fill="gray"/>
    <path id="Trazado_199634" data-name="Trazado 199634" d="M48.894,49.052C45.812,52,43.77,55.83,46.815,59.571c2.133,2.62,1.413,6.786,1.517,10.02.066,2.056-3.129,2.054-3.194,0-.1-2.942.295-6.1-1.375-8.6a8.994,8.994,0,0,1-1.705-4.407c-.339-3.893,1.884-7.209,4.579-9.788,1.485-1.422,3.748.835,2.259,2.259" transform="translate(-4.477 -19.144)" fill="#666"/>
    <path id="Trazado_199635" data-name="Trazado 199635" d="M41.222,53.423c.16,2.795.022,5.753-2.509,7.47-.853.579-1.653-.8-.806-1.379,1.993-1.352,1.839-3.967,1.718-6.091-.059-1.027,1.539-1.024,1.6,0" transform="translate(6.264 -21.752)" fill="#b2b2b2"/>
    <path id="Trazado_199636" data-name="Trazado 199636" d="M40.562,45.412a.785.785,0,0,1,.241-.082.823.823,0,0,1,.254-.033c5.019-.637,7.218,4.558,6.271,8.922a9.823,9.823,0,0,1-1.905,4.146c-.764.909-.838.606-.913,1.736-.115,1.749.146,3.52.012,5.27-.141,1.846-1.073,4.522-2.956,5.3-1.651.687-2.885-.377-3.432-1.9-.588-1.634-.4-3.55-.411-5.256a10.938,10.938,0,0,0-.018-2.771c-.215-.68-.072,0-.147-.074-.409-.418-.926-.677-1.325-1.134-3.865-4.424-.922-12.353,4.328-14.131M38.9,59.566a.792.792,0,0,1,.4.69c.012,1.921-.046,3.855.038,5.774a5.287,5.287,0,0,0,.174,1.759c.96,2.295,2.554.63,3.1-.982a8.822,8.822,0,0,0,.321-3c-.01-1.609-.419-3.829.2-5.315.322-.768,1.319-1.428,1.758-2.235a8.912,8.912,0,0,0,1.083-4.3c-.029-2.74-1.632-5.591-4.753-5.081-4.817,1.438-7.57,10.076-2.323,12.7" transform="translate(1.796 -18.691)"/>
    <path id="Trazado_199637" data-name="Trazado 199637" d="M92.986,7.186q-10.73,4.621-21.052,10.1c-1.815.963-3.432-1.794-1.612-2.758q10.32-5.475,21.052-10.1c1.868-.8,3.5,1.947,1.612,2.758" transform="translate(-65.06 -1.769)" fill="#79dcf7"/>
    <path id="Trazado_199638" data-name="Trazado 199638" d="M91.524,99.461,84.88,96.242a2.687,2.687,0,0,1-.955-3.643,2.718,2.718,0,0,1,3.642-.955l6.644,3.218a2.687,2.687,0,0,1,.955,3.643,2.718,2.718,0,0,1-3.642.955" transform="translate(-74.997 -37.725)" fill="#79dcf7"/>
    <path id="Trazado_199639" data-name="Trazado 199639" d="M28.8,18.816A199.679,199.679,0,0,0,5.924,17.173c-2.054-.03-2.06-3.224,0-3.2A199.811,199.811,0,0,1,28.8,15.621c2.01.261,2.036,3.459,0,3.2" transform="translate(36.674 -5.774)" fill="#79dcf7"/>
    <path id="Trazado_199640" data-name="Trazado 199640" d="M68.037,17.562A266.44,266.44,0,0,0,43.366,29.99a1.6,1.6,0,0,1-1.612-2.758A266.219,266.219,0,0,1,66.425,14.8c1.864-.821,3.492,1.931,1.612,2.758" transform="translate(-23.353 -6.053)" fill="#79dcf7"/>
    <path id="Trazado_199641" data-name="Trazado 199641" d="M68.221,39.929q.973,10.766,1.946,21.531c.58,6.408,1.117,14.078,7.207,17.793,1.752,1.069.149,3.834-1.613,2.758-5.905-3.6-7.708-10.234-8.425-16.719-.932-8.434-1.546-16.913-2.31-25.363-.185-2.047,3.011-2.035,3.2,0" transform="translate(-46.723 -15.863)" fill="#79dcf7"/>
    <path id="Trazado_199642" data-name="Trazado 199642" d="M58.927,116.827a1.6,1.6,0,0,1,0-3.195,1.6,1.6,0,0,1,0,3.195" transform="translate(-24.581 -46.943)" fill="#79dcf7"/>
    <path id="Trazado_199643" data-name="Trazado 199643" d="M70.624,100.4a137.15,137.15,0,0,0,13.592,9.657c2.9,1.812.23,6.42-2.687,4.6a148.234,148.234,0,0,1-14.67-10.49c-2.665-2.155,1.123-5.9,3.765-3.765" transform="translate(-54.605 -41.214)" fill="#29abe2"/>
    <path id="Trazado_199644" data-name="Trazado 199644" d="M108,32.892q.629,10.691,2.046,21.306c.452,3.386-4.876,3.352-5.324,0q-1.418-10.614-2.046-21.306c-.2-3.423,5.124-3.412,5.325,0" transform="translate(-100.763 -12.529)" fill="#29abe2"/>
    <path id="Trazado_199645" data-name="Trazado 199645" d="M32.091,22c-.939,11.1-1.93,22.639-4.625,33.471C24.989,65.429,16.735,72.883,9.5,79.67,7,82.012,3.226,78.255,5.732,75.9,12.559,69.5,20.4,62.612,22.545,53.151c2.3-10.172,3.343-20.779,4.221-31.155.287-3.389,5.614-3.42,5.325,0" transform="translate(34.584 -8.032)" fill="#2691bf"/>
    <path id="Trazado_199646" data-name="Trazado 199646" d="M21.345,8.9l-3.12-1.731c-1.8-1-.188-3.758,1.613-2.759l3.12,1.732c1.8,1,.189,3.758-1.612,2.758" transform="translate(35.588 -1.731)" fill="#29abe2"/>
    <path id="Trazado_199647" data-name="Trazado 199647" d="M.255,14.7A.725.725,0,0,1,.6,14.328L27.2.183A.7.7,0,0,1,27.737,0l29,1.706a.773.773,0,0,1,.641.38q5.513,2.369,11.164,4.385a.784.784,0,0,1,.5.518.75.75,0,0,1,.516.731Q68.873,18.667,67.6,29.564a137.05,137.05,0,0,1-3.1,18.919C61.354,60.451,50.755,69.148,42.828,78.012a.746.746,0,0,1-.467.225.733.733,0,0,1-.953.56Q34.69,76.76,28.117,74.3a.818.818,0,0,1-.373-.275C19,68.625,9.864,64.172,6.419,53.744,2.393,41.56.885,28.06,0,15.311A.669.669,0,0,1,.255,14.7m14.8,4.54,10.381-5.6L36.67,7.574c.994-.537,2.027-1.226,3.079-1.8q-5.91-1.656-11.742-3.568a.768.768,0,0,1-.469-.4L2.385,15.19l12.667,4.054M56.379,3.385a.823.823,0,0,1-.184-.112L32.147,1.859q4.662,1.46,9.373,2.757a.755.755,0,0,1,.42.276,10.078,10.078,0,0,1,2.612.141C51.112,5.711,57.712,6.13,64.3,6.6q-3.992-1.522-7.919-3.211M63.187,47.15C66.2,34.6,67.106,21.319,67.92,8.457,60.71,7.907,53.5,7.4,46.291,6.8c-1.226-.1-3.045-.632-4.213-.325C40.25,6.951,38.2,8.563,36.54,9.459l-10.3,5.56c-2.874,1.552-6.3,2.868-8.914,4.811-1.672,1.242-1.228,2.331-1.048,4.346q.227,2.537.492,5.07c.715,6.868,1.547,13.743,2.813,20.533,1.18,6.327,2.423,12.048,7.481,16.432,4.649,4.031,9.918,6.926,15.057,10.2C50.066,67.637,60.317,59.1,63.187,47.15M7.454,51.664a24.561,24.561,0,0,0,8.081,12.649c3.988,3.3,8.715,5.673,13.1,8.385a.821.821,0,0,1,.193.167q5.078,1.891,10.239,3.528C31.044,71.506,22.2,66.723,19.547,57.13c-3.236-11.7-4.211-24.348-5.156-36.422L1.7,16.646A174.458,174.458,0,0,0,7.454,51.664" transform="translate(0 0)"/>
  </g>
</svg>
