<svg id="Grupo_882112" data-name="Grupo 882112" xmlns="http://www.w3.org/2000/svg" xmlns:xlink="http://www.w3.org/1999/xlink" width="42.396" height="76.554" viewBox="0 0 42.396 76.554">
  <defs>
    <clipPath id="clip-path">
      <rect id="Rectángulo_66786" data-name="Rectángulo 66786" width="42.396" height="76.554" fill="none"/>
    </clipPath>
  </defs>
  <g id="Grupo_873037" data-name="Grupo 873037" transform="translate(0 0)" clip-path="url(#clip-path)">
    <path id="Trazado_199705" data-name="Trazado 199705" d="M26.981,67.816a21.971,21.971,0,0,0-4.47-1.381l-3.3-.9c-.017-.858-.032-1.715-.039-2.571.118,0,.237,0,.356-.01a8.638,8.638,0,0,0,1.525-.243,5.019,5.019,0,0,0,2.544.243c2-.389,2.405-2.662,1.857-4.47a4.745,4.745,0,0,0-4.211-3.3c-.078,0-.156,0-.234.008A3.563,3.563,0,0,0,19.2,54.5c-.034,0-.067,0-.1-.005q-.054-6.14-.108-12.279c7.838-.577,11.585-10.962,8.988-17.885a2.917,2.917,0,0,0-1.215-1.5,19.783,19.783,0,0,0-1.1-3.471c-.013-.1-.017-.2-.038-.3a9.054,9.054,0,0,0-3.982-5.612l-.03-.018c-2.958-2.768-6.943-4.735-11.6-3.907A8.076,8.076,0,0,0,4.074,13.4,14.561,14.561,0,0,0,2.021,24.331c-.563,3.175-.284,6.354,2.2,8.878a3.009,3.009,0,0,0,.816.6c.2.449.415.9.645,1.333a11.037,11.037,0,0,0,4.546,5.006q.13,1.666.191,3.33c-.185.35.175.757.136,1.223-.574,6.844-.888,13.708-.9,20.576,0,3.883-1.6,16.194,5.712,14.235,2.694-.722,3.7-3.169,3.866-5.7l6.343,1.819a2.885,2.885,0,0,0,2.805-.741c2.227-2.3,1.285-5.654-1.4-7.07m-16.41-46.69a2.8,2.8,0,0,0-.049-1.217,13.487,13.487,0,0,1,2.281-.337,12.174,12.174,0,0,1,3.6-.224,5.014,5.014,0,0,1,2.676,2.1,6.634,6.634,0,0,1,.939,5.852A41.746,41.746,0,0,1,18.64,32.31c-2.631.34-5.506-.028-7.3-2.165-2.064-2.461-1.3-6.146-.77-9.018" transform="translate(-0.779 -4.352)" fill="#29abe2"/>
    <path id="Trazado_199706" data-name="Trazado 199706" d="M52.73,63.415a3.106,3.106,0,0,0-.148-.623,4.129,4.129,0,0,0-1.411-1.965,3.922,3.922,0,0,0-3.463-.631c-.482-.193-.977-.374-1.49-.548-1.094-.371-3.921-1.223-4.343-2.666,3.982-.391,9.01-2.547,6.129-7a9.281,9.281,0,0,0-5.2-3.5c-.871-.273-.635-.088-.978-.847a7.564,7.564,0,0,1-.138-2.361c-.075-1.735-.083-3.467-.052-5.2a2.418,2.418,0,0,0-.121-.811c.054-.03.109-.055.163-.087a.739.739,0,0,0-.348-1.357,2.152,2.152,0,0,0,.437-.391c.31-.373.6-.751.884-1.133a1.909,1.909,0,0,0,.568-.124c3.769-1.505,6.089-3.877,6.222-7.506a17.175,17.175,0,0,0,.951-10c-.761-3.616-2.866-7.037-4.9-10.071s-4.571-5.325-8.381-5.5a2.367,2.367,0,0,0-1.063.182c-1.864-.314-3.95.579-5.66,1.089a2.258,2.258,0,0,0-1.07.705.575.575,0,0,0-.238-.112,1.754,1.754,0,0,0-1.319.191.657.657,0,0,0-.286.305A9.489,9.489,0,0,0,25.828,3.4a.712.712,0,0,0-.667.545c-.1,0-.2,0-.3,0-.932.034-.936,1.486,0,1.453a9.486,9.486,0,0,1,4.018.726.589.589,0,0,0,.146.031,2.031,2.031,0,0,0,1.36.877,4.142,4.142,0,0,1,1.4.58,2.505,2.505,0,0,0,.739.684l1.063.658a2.584,2.584,0,0,0,.651,1.736,17.854,17.854,0,0,1,2.946,5.028c.03.153.064.306.108.457a10.566,10.566,0,0,0,.547,1.443,45.424,45.424,0,0,1,1.426,11.327c-.034.056-.068.112-.1.172-1.128,2.228-3.41,5.3-3.728,8.145-.3.1-.6.212-.9.323a12.491,12.491,0,0,0-1.919.494,13.2,13.2,0,0,1-2.29,1.028c-.874.115-.921,1.447-.113,1.456a1.929,1.929,0,0,0-.06.583c.041.7.028,1.415.014,2.124a.745.745,0,0,0-.162.4c-.111,1.091-.184,2.182-.195,3.279a5.886,5.886,0,0,0,.153,2.372,1.232,1.232,0,0,0,1,.7c.461.085.875.13,1.269.189A5.061,5.061,0,0,0,34.808,51.5a4.2,4.2,0,0,0,.557.6l1.3,1.633a1.84,1.84,0,0,0,.329.313,28.718,28.718,0,0,0-.318,5.929,9.526,9.526,0,0,0-3.046-.093.629.629,0,0,0-.424-.256,12.345,12.345,0,0,0-2.538-.223.7.7,0,0,0-.7.735.764.764,0,0,0,.387,1.372c.506.039,1,.109,1.491.194a3.534,3.534,0,0,0,2.416.565l.011,0c.941.3,1.871.628,2.794.984a2.512,2.512,0,0,0,2.213,1.379c.1-.007.187-.006.28-.007a6.619,6.619,0,0,1,.832,3.543,3.49,3.49,0,0,0-.051.747c0,.02,0,.04-.005.06h.009a4.662,4.662,0,0,0,.077.645c.492,2.545,3.56,2.046,4.5.2a18.67,18.67,0,0,1,2.942-1.042l3.71-1.386a2.621,2.621,0,0,0,1.156-3.976" transform="translate(-11.266 -0.509)" fill="#49bfe8"/>
    <path id="Trazado_199707" data-name="Trazado 199707" d="M38.723,133.181c-1.122-.624-2.9-1.594-4.237-1.4a1.15,1.15,0,0,0-.976.835,12.767,12.767,0,0,1-.741,2.4c-.314.581.377,1.465.994.994.081-.062.247-.235.451-.444a.677.677,0,0,0,.608-.044,5.647,5.647,0,0,1,1.927-.649.679.679,0,0,0,.507-.807c.247.118.492.242.733.376.818.455,1.551-.8.733-1.254" transform="translate(-15.243 -61.434)" fill="#49bfe8"/>
    <path id="Trazado_199708" data-name="Trazado 199708" d="M23.993,29.993a3.8,3.8,0,0,0-1.06-.755A2.218,2.218,0,0,0,19.6,28.153a7.006,7.006,0,0,0-2.89,7.876,6.873,6.873,0,0,0,4.825,4.4c.048.032.092.068.14.1a2.575,2.575,0,0,0,2.428.031,2.605,2.605,0,0,0,1.8-3.333,8.219,8.219,0,0,0-1.916-7.232" transform="translate(-7.641 -12.936)" fill="#2691bf"/>
    <path id="Trazado_199709" data-name="Trazado 199709" d="M43.238,6.2c9.314,2.011,11.921,12.015,11.513,20.326-.092,1.869,2.814,1.864,2.906,0C58.127,16.942,54.578,5.681,44.011,3.4c-1.823-.394-2.6,2.407-.772,2.8" transform="translate(-19.675 -1.567)" fill="#79dcf7"/>
    <path id="Trazado_199710" data-name="Trazado 199710" d="M56.468,90.725a2.092,2.092,0,0,1,2.37,1.4c.554,1.779,3.36,1.02,2.8-.772A5.061,5.061,0,0,0,55.7,87.923c-1.825.4-1.053,3.2.772,2.8" transform="translate(-25.484 -40.94)" fill="#79dcf7"/>
    <path id="Trazado_199711" data-name="Trazado 199711" d="M57.36,112.781c1.14.38,6.226,1.571,5.708,3.385a1.454,1.454,0,0,0,2.8.772c1.258-4.411-4.707-5.949-7.738-6.959-1.778-.592-2.54,2.213-.772,2.8" transform="translate(-26.278 -51.243)" fill="#79dcf7"/>
    <path id="Trazado_199712" data-name="Trazado 199712" d="M64.614,53.677a1.454,1.454,0,0,0,0-2.906,1.454,1.454,0,0,0,0,2.906" transform="translate(-29.474 -23.674)" fill="#79dcf7"/>
    <path id="Trazado_199713" data-name="Trazado 199713" d="M46.788,70.049v5.084c0,3.116,4.842,3.121,4.842,0V70.049c0-3.116-4.842-3.121-4.842,0" transform="translate(-21.816 -31.572)" fill="#29abe2"/>
    <path id="Trazado_199714" data-name="Trazado 199714" d="M52.5,107.416a27.512,27.512,0,0,0-5.4,2.017,2.445,2.445,0,0,0-.869,3.312,2.471,2.471,0,0,0,3.313.869,21.446,21.446,0,0,1,4.245-1.529c3.019-.763,1.74-5.434-1.287-4.67" transform="translate(-21.408 -50.047)" fill="#29abe2"/>
    <path id="Trazado_199715" data-name="Trazado 199715" d="M11.967,10.3C-2.37,12.071.311,32.1,8.032,39.715c2.221,2.19,5.647-1.231,3.424-3.424A16.778,16.778,0,0,1,6.672,25.268c-.258-4.04.288-9.506,5.3-10.123,3.053-.377,3.09-5.224,0-4.842" transform="translate(-0.802 -4.794)" fill="#2691bf"/>
    <path id="Trazado_199716" data-name="Trazado 199716" d="M16.214,70.5q-.09,15.253-.18,30.506c-.018,3.116,4.824,3.12,4.843,0q.089-15.253.179-30.506c.019-3.116-4.824-3.12-4.842,0" transform="translate(-7.476 -31.783)" fill="#2691bf"/>
    <path id="Trazado_199717" data-name="Trazado 199717" d="M54.435,95.243l-3.4.927a1.454,1.454,0,0,0,.772,2.8l3.4-.927a1.454,1.454,0,0,0-.772-2.8" transform="translate(-23.317 -44.383)" fill="#79dcf7"/>
    <path id="Trazado_199718" data-name="Trazado 199718" d="M58.839,119.08a9.5,9.5,0,0,1-2.812.8,1.461,1.461,0,0,0-1.015,1.787,1.491,1.491,0,0,0,1.787,1.015,11.812,11.812,0,0,0,3.506-1.093,1.465,1.465,0,0,0,.521-1.988,1.484,1.484,0,0,0-1.988-.521" transform="translate(-25.631 -55.442)" fill="#79dcf7"/>
    <path id="Trazado_199719" data-name="Trazado 199719" d="M21.106,31.123a5.227,5.227,0,0,1,4.03,7.248c-.727,1.7,1.775,3.182,2.509,1.467,2.1-4.9-.377-10.426-5.767-11.516-1.825-.369-2.606,2.431-.772,2.8" transform="translate(-9.354 -13.19)" fill="#1c7391"/>
    <path id="Trazado_199720" data-name="Trazado 199720" d="M19.781,37a7.823,7.823,0,0,0,2.973,5.885c.727.571,1.762-.45,1.027-1.027A6.441,6.441,0,0,1,21.234,37c-.041-.931-1.494-.936-1.453,0" transform="translate(-9.223 -16.926)" fill="#44aed3"/>
    <path id="Trazado_199721" data-name="Trazado 199721" d="M36.857,58.26c-1.349-.312-2.805-.811-4.232-1.114,1.159-.377,2.307-.774,3.431-1.215a4.256,4.256,0,0,0,2.7-4.365A5.794,5.794,0,0,0,34.74,46.1a22.2,22.2,0,0,0-3.387-.88l.062-10.156a14.712,14.712,0,0,0,2.808-1.283c4.627-2.833,6.416-8.531,6.321-13.7C40.347,9.35,31.619-3.062,19.809.682L8.634,4.225a.793.793,0,0,0-.122.052C3.772,5.827.993,10.6.251,15.346A23.184,23.184,0,0,0,5.534,33.631c.882,1.027,2.524,1.867,2.826,3.1a14.965,14.965,0,0,1-.021,3.3q-.079,12.328-.159,24.657c-.021,3.215-.405,6.583,1.645,9.336,1.445,1.94,4.057,3.3,6.382,2.046a4.426,4.426,0,0,0,.419-.258.742.742,0,0,0,.618,0c3.7-1.633,7.695-2.323,11.465-3.75a.749.749,0,0,0,.3-.211c3.571-1.078,7.231-2.046,10.684-3.4a4.259,4.259,0,0,0,2.7-4.365c-.2-3.581-2.4-5.1-5.539-5.822m-17.977.877a25.892,25.892,0,0,0,2.569.534l-2.577.817q0-.676.009-1.351M37.3,51.565c.035,1.892-.847,2.716-2.59,3.269l-8.681,2.752a5.828,5.828,0,0,0,.271-1.178,6.023,6.023,0,0,0-3.089-6.088,10.206,10.206,0,0,0-2.094-.656l5.067-1.606h0l4.121-1.307c.093-.028.159-.049.21-.067l.13-.041a.186.186,0,0,0,.043.007,17.57,17.57,0,0,1,2.479.572c2.384.55,3.977,1.628,4.132,4.343m-7.4-6.282c-.88.2-1.821.651-2.622.905L18.946,48.83q.03-4.969.061-9.938c.1-.028.211-.055.313-.085a.776.776,0,0,0,.194-.035l7.333-2.325c1-.317,2.059-.6,3.112-.917q-.03,4.877-.06,9.754M24.8,1.291c5.112.32,9.207,4.385,11.5,8.52a22.137,22.137,0,0,1,2.794,10.268c.1,5.214-1.881,11.151-7.141,13.2-.366.143-.735.276-1.1.412a.641.641,0,0,0-.347.011l-5.933,1.881a12.953,12.953,0,0,0,2.85-5.428c3.017-9.97-3.1-24.334-13.086-26.213l3.329-1.056c2.307-.731,4.673-1.75,7.135-1.6M12.674,74.677c-2.166-1.146-3.013-3.7-3.068-5.99-.046-1.929.025-3.868.037-5.8Q9.71,52.7,9.775,42.508c.012-1.957.114-3.938.038-5.893a1.852,1.852,0,0,0-.342-1.281,19.914,19.914,0,0,0-1.948-1.687,18.892,18.892,0,0,1-1.747-2.025A21.55,21.55,0,0,1,3.51,27.8C.98,22.338.395,15.154,3.735,9.892,6.691,5.235,12.184,4.047,16.99,6.6c5.845,3.112,9.254,10.063,9.659,16.484C27,28.6,25.012,34.946,19.687,37.13l-1.6.506a.807.807,0,0,0-.162.073.651.651,0,0,0-.1.072l-.016.013a.666.666,0,0,0-.253.542q-.036,5.744-.071,11.487a.666.666,0,0,0,.036.208c0,.007,0,.015,0,.022a.656.656,0,0,0,.035.082l.006.014a.613.613,0,0,0,.318.317.739.739,0,0,0,.1.043c.012,0,.019.011.031.013l.02,0a.6.6,0,0,0,.061.014c2.305.522,4.983.727,6.185,2.82a5.8,5.8,0,0,1,.567,1.754c.261,2.174-1.134,3.617-3.336,3.131-1.057-.233-2.111-.487-3.166-.731a.735.735,0,0,0-.919.7q-.011,1.632-.021,3.265a.687.687,0,0,0,.04.23.635.635,0,0,0,.493.47L23,63.35h0l2.748.635c1.4.464,2.644,2.538,2.8,4.317a2.868,2.868,0,0,1-1.519,2.621,3.009,3.009,0,0,1-.595.1,9.6,9.6,0,0,1-2.446-.528l-5.71-1.318a.736.736,0,0,0-.919.7c-.017,2.642-1.246,6.622-4.684,4.8m6.113-3.895,3.707.856c.467.108.99.264,1.53.412-1.965.574-3.937,1.121-5.857,1.837a8.942,8.942,0,0,0,.62-3.105M38.351,67.35l-8.513,2.7a5.046,5.046,0,0,0,.132-1.991,6.528,6.528,0,0,0-1.68-4.173,4.556,4.556,0,0,0-1.66-1.092q-.147-.074-.3-.133a.748.748,0,0,0-.194-.076l-.972-.224h0l-1.245-.287-3.032-.7,6.5-2.061,2.391-.758c.121-.038.647-.181.809-.254.239.079,1.036.242,1.26.294l3.109.717c2.981.688,5.773,1.016,5.986,4.771.035,1.891-.85,2.716-2.592,3.268" transform="translate(0 0)"/>
    <path id="Trazado_199722" data-name="Trazado 199722" d="M21.385,26.519c-3.412-.779-5.854,2.1-6.167,5.269-.377,3.818,1.731,7.96,5.455,9.219a.7.7,0,0,0,.24.085.737.737,0,0,0,.262.029c8.266,1.057,7.217-13,.21-14.6M21.3,39.693c-2.723-.813-4.445-3.618-4.651-6.372-.194-2.6,1.158-6.034,4.35-5.4,5.32,1.055,6.808,12.835.3,11.773" transform="translate(-7.076 -12.305)"/>
  </g>
</svg>
