<svg id="Grupo_882110" data-name="Grupo 882110" xmlns="http://www.w3.org/2000/svg" xmlns:xlink="http://www.w3.org/1999/xlink" width="82.282" height="77.485" viewBox="0 0 82.282 77.485">
  <defs>
    <clipPath id="clip-path">
      <rect id="Rectángulo_66781" data-name="Rectángulo 66781" width="82.282" height="77.485" fill="none"/>
    </clipPath>
  </defs>
  <g id="Grupo_873026" data-name="Grupo 873026" transform="translate(0 0)" clip-path="url(#clip-path)">
    <path id="Trazado_199648" data-name="Trazado 199648" d="M1.958,39.565c.214-4.4.1-9.364,1.694-13.538C5.388,21.469,9.091,18.91,13.7,17.749c4.782-1.2,9.633-2.181,14.443-3.269,4.92-1.112,9.837-2.24,14.761-3.336a15.59,15.59,0,0,1,5.809-.305c1.518-3.382,6.235-5.578,9.818-2.265.372.344.715.7,1.045,1.068a5.547,5.547,0,0,1,3.8,5.394q.024,1.384.048,2.768a18.659,18.659,0,0,1-.029,5.605c.046,10.98.151,21.969-.052,32.94-.122,6.633-3.637,11.588-10.309,12.92-3.879.775-7.845,1.28-11.81,1.747a8.116,8.116,0,0,1-.818.358c-8.923,3.292-18.5,5.967-28.012,6.793-5.625.489-9-3.195-9.616-8.474C2.2,64.706,1.936,59.661,1.8,54.644s-.084-10.058.159-15.08m30.352-3.7c.182-.061.144-.063,0,0" transform="translate(17.522 -2.369)" fill="#29abe2"/>
    <path id="Trazado_199649" data-name="Trazado 199649" d="M17.881,57.771q-.036-5.591-.016-11.183.039-10.594.28-21.187c.106-4.6.408-10.518,5.309-12.641a3.423,3.423,0,0,1,.631-.2,3.158,3.158,0,0,1,2.771-2.174c10.3-1.067,20.008-3.766,29.8-7.022A45.376,45.376,0,0,1,78.115,1.382c2.968,1.391,5.891,2.882,8.963,4.007a3.361,3.361,0,0,1-.021,1.359,4.176,4.176,0,0,0-1.983.109c-4.146,1.286-8.34,1.631-12.263,3.655-.135.07-.259.145-.381.221-11.986,1.406-23.57,7.1-35.514,7.2a3,3,0,0,1,1.651,4.338c-2.032,2.968-1.347,8.5-1.564,11.989-.257,4.167-.554,8.333-.729,12.5a70.378,70.378,0,0,0,1.2,18.448,37.33,37.33,0,0,0,.542,5.916,3.7,3.7,0,0,0,1.144,2.053,3.565,3.565,0,0,1-4.3,1.282l-9.643-4.271c-2.262-1-5.225-1.837-6.535-4.153-1.331-2.35-.79-5.695-.807-8.265" transform="translate(-16.565 -0.298)" fill="#49bfe8"/>
    <path id="Trazado_199650" data-name="Trazado 199650" d="M87.9,36.472c.611,13.437.935,26.857.783,40.308-.026,2.3-3.61,2.31-3.584,0,.151-13.451-.172-26.871-.783-40.308-.1-2.306,3.479-2.3,3.584,0" transform="translate(-61.943 -11.871)" fill="#79dcf7"/>
    <path id="Trazado_199651" data-name="Trazado 199651" d="M54.373,14.814A416.359,416.359,0,0,0,11.7,26.2c-2.2.714-3.141-2.746-.953-3.456A416.313,416.313,0,0,1,53.42,11.359c2.25-.474,3.211,2.98.953,3.456" transform="translate(20.365 -3.866)" fill="#79dcf7"/>
    <path id="Trazado_199652" data-name="Trazado 199652" d="M64.463,51.7Q55.078,44.41,46.368,36.319c-1.694-1.573.845-4.1,2.534-2.534Q57.611,41.875,67,49.17c1.819,1.413-.734,3.933-2.534,2.534" transform="translate(-15.498 -11.374)" fill="#79dcf7"/>
    <path id="Trazado_199653" data-name="Trazado 199653" d="M109.243,33.093,97.914,29.742c-2.207-.653-1.267-4.113.953-3.456L110.2,29.638c2.207.652,1.267,4.113-.953,3.456" transform="translate(-92.803 -8.953)" fill="#79dcf7"/>
    <path id="Trazado_199654" data-name="Trazado 199654" d="M86.184,106.714a1.793,1.793,0,0,1,0-3.584,1.793,1.793,0,0,1,0,3.584" transform="translate(-61.23 -35.236)" fill="#79dcf7"/>
    <path id="Trazado_199655" data-name="Trazado 199655" d="M118.558,36.327a296.424,296.424,0,0,1-.435,37c-.283,3.81-6.258,3.841-5.972,0a296.427,296.427,0,0,0,.434-37c-.194-3.842,5.779-3.832,5.973,0" transform="translate(-110.482 -11.428)" fill="#29abe2"/>
    <path id="Trazado_199656" data-name="Trazado 199656" d="M11.091,25.436c-.731,13.226-.619,26.473-.754,39.713-.04,3.841-6.013,3.851-5.973,0,.136-13.24.023-26.487.754-39.713.211-3.822,6.186-3.847,5.973,0" transform="translate(68.313 -7.708)" fill="#2691bf"/>
    <path id="Trazado_199657" data-name="Trazado 199657" d="M51.33,91.765q-20.244,5.318-40.7,9.766c-3.747.815-5.348-4.941-1.588-5.76q20.453-4.448,40.7-9.766c3.721-.977,5.308,4.783,1.588,5.76" transform="translate(24.291 -29.347)" fill="#2691bf"/>
    <path id="Trazado_199658" data-name="Trazado 199658" d="M36.927,10.534l-3.915-1.4a1.837,1.837,0,0,1-1.251-2.2,1.807,1.807,0,0,1,2.2-1.251l3.915,1.4a1.837,1.837,0,0,1,1.251,2.2,1.808,1.808,0,0,1-2.2,1.251" transform="translate(22.22 -1.912)" fill="#29abe2"/>
    <path id="Trazado_199659" data-name="Trazado 199659" d="M0,61.3Q0,42.612,0,23.926a.865.865,0,0,1,.117-.446c0-.014,0-.025-.005-.04C-.046,17.479,2.58,11.91,8.574,10.092l.016,0a.94.94,0,0,1,.2-.068c13.345-2.9,26.61-6.2,39.841-9.574A.956.956,0,0,1,48.9.42a.8.8,0,0,1,.4-.169C58.04-1.012,65.913,2.809,74.19,4.827a7.872,7.872,0,0,1,2.306.508c.244.047.487.094.731.137a.72.72,0,0,1,.625.566,7.944,7.944,0,0,1,1.918,1.818c2.1,2.751,2.219,6.086,2.24,9.381q.085,13.128.169,26.256c.05,7.737,1.225,16.9-5.9,22.155C74.17,67.2,71.735,67.6,69.26,68.171L57.414,70.906,31.883,76.8c-2.553.589-5.051,1.215-7.556-.057-.176-.09-.34-.19-.506-.289q-8.665-2.479-17.123-5.6A8.9,8.9,0,0,1,.112,61.735.871.871,0,0,1,0,61.3M49.781,1.978a.978.978,0,0,1-.292,0,.867.867,0,0,1-.379.2c-13.232,3.377-26.5,6.674-39.841,9.574-.022.005-.043,0-.065.008a1.048,1.048,0,0,1-.154.064,9.931,9.931,0,0,0-2.205.976q8.408,2.213,16.623,5.063a.943.943,0,0,1,.1.048,11.6,11.6,0,0,1,5.159-3.065c13.631-3.147,27.241-6.406,40.9-9.448C63.117,3.407,56.664.984,49.781,1.978m1.643,40.729L78.271,8.856a5.186,5.186,0,0,0-1.957-1.738c-.861-.162-1.718-.354-2.573-.566a9.641,9.641,0,0,0-2.015.2C57.486,9.637,43.365,13.3,29.208,16.571a10.324,10.324,0,0,0-4.371,2.378L51.424,42.707M30.755,75.223l21.9-5.057c6.356-1.467,12.81-2.718,19.11-4.412,8.847-2.379,8.687-11.7,8.64-19.055q-.082-12.628-.163-25.256c-.02-3.151.136-7.628-1.08-10.85l-27,34.045a.715.715,0,0,1-1.045.146.935.935,0,0,1-.222-.146L23.655,20.291c-3.486,4.755-2.748,12.5-2.711,18.2l.16,24.829c.016,2.531-.208,5.31.668,7.716a6.444,6.444,0,0,0,3.366,3.925c.591.167,1.179.342,1.772.5a10.623,10.623,0,0,0,3.846-.246M6.444,68.889a.93.93,0,0,1,.227.053c.169.063.34.121.51.184.122.032.242.069.367.095a.854.854,0,0,1,.37.171q6.561,2.407,13.248,4.422a14.209,14.209,0,0,1-1.832-7.271c-.113-8.167-.105-16.337-.158-24.505-.047-7.282-1.517-16.443,3.123-22.651l.02-.025q-8.527-2.939-17.262-5.188C2.751,16.48,1.81,19.9,1.905,23.44a.853.853,0,0,1-.115.463c0,.008,0,.014,0,.023q0,18.4,0,36.8a.731.731,0,0,1,.144.575,7.15,7.15,0,0,0,4.508,7.587" transform="translate(0 0)"/>
    <path id="Trazado_199660" data-name="Trazado 199660" d="M35.123,54.931l1.394-3.721a13.117,13.117,0,0,1,.463-1.928,6.123,6.123,0,0,1,4.687-4.352,2.817,2.817,0,0,1,2.9-.808,5.513,5.513,0,0,1,2.748,1.9,5.7,5.7,0,0,1,1.167,3.165,2.349,2.349,0,0,1-.183,1.022,7.051,7.051,0,0,1-.253,3.121,12.254,12.254,0,0,1-2.049,5.957c.425,2.547-.294,5.557-.519,8.1-.336,3.8-6.312,3.834-5.972,0a48.757,48.757,0,0,0,.524-5.927c-.051-1.349.622-.032-.255-1.185-.411-.54-1.12-.841-1.562-1.4-.036-.045-.061-.094-.093-.14a2.594,2.594,0,0,1-.905-.128c-1.427-.461-2.673-2.107-2.086-3.674" transform="translate(10.775 -15.031)" fill="gray"/>
    <path id="Trazado_199661" data-name="Trazado 199661" d="M49.583,46.593c-3.457,3.309-5.748,7.6-2.332,11.8,2.392,2.939,1.585,7.612,1.7,11.239.074,2.307-3.51,2.3-3.583,0-.107-3.3.33-6.838-1.542-9.649a10.092,10.092,0,0,1-1.913-4.943c-.38-4.367,2.114-8.086,5.136-10.98,1.666-1.6,4.2.936,2.534,2.534" transform="translate(4.586 -14.88)" fill="#666"/>
    <path id="Trazado_199662" data-name="Trazado 199662" d="M41.52,50.726c.179,3.135.025,6.454-2.814,8.38-.957.649-1.855-.9-.9-1.547,2.236-1.517,2.063-4.45,1.927-6.833-.066-1.152,1.727-1.148,1.792,0" transform="translate(16.092 -17.037)" fill="#b2b2b2"/>
    <path id="Trazado_199663" data-name="Trazado 199663" d="M41.156,42.642a.881.881,0,0,1,.27-.092.923.923,0,0,1,.284-.037c5.63-.714,8.1,5.113,7.034,10.009a11.019,11.019,0,0,1-2.137,4.651c-.857,1.02-.94.68-1.024,1.947-.129,1.962.164,3.949.014,5.911-.159,2.071-1.2,5.072-3.316,5.951-1.852.77-3.236-.423-3.849-2.129-.66-1.833-.448-3.982-.461-5.9a12.27,12.27,0,0,0-.02-3.109c-.242-.762-.081,0-.165-.083-.459-.469-1.039-.759-1.487-1.272-4.336-4.962-1.034-13.857,4.855-15.851M39.3,58.52a.888.888,0,0,1,.444.774c.014,2.155-.052,4.324.041,6.477a5.931,5.931,0,0,0,.2,1.973c1.077,2.574,2.864.707,3.481-1.1a9.9,9.9,0,0,0,.36-3.367c-.011-1.8-.471-4.295.228-5.963.36-.861,1.479-1.6,1.972-2.507a10,10,0,0,0,1.215-4.828C47.2,46.9,45.4,43.706,41.9,44.278c-5.4,1.613-8.491,11.3-2.606,14.242" transform="translate(10.703 -14.505)"/>
  </g>
</svg>
