<svg xmlns="http://www.w3.org/2000/svg" xmlns:xlink="http://www.w3.org/1999/xlink" width="152.931" height="98.274" viewBox="0 0 152.931 98.274">
  <defs>
    <clipPath id="clip-path">
      <rect id="Rectángulo_66785" data-name="Rectángulo 66785" width="152.931" height="98.275" transform="translate(0 0)" fill="none"/>
    </clipPath>
  </defs>
  <g id="Grupo_882111" data-name="Grupo 882111" transform="translate(0.001)">
    <g id="Grupo_873035" data-name="Grupo 873035" transform="translate(-0.001 0)" clip-path="url(#clip-path)">
      <path id="Trazado_199688" data-name="Trazado 199688" d="M120.259,49.825c-3.087-6.086-8.042-12.5-14-16.021-5.781-3.413-12.039-3.3-18.12-1.66a24.458,24.458,0,0,0-6.151-7.28,33.3,33.3,0,0,0-6.81-8.234c-6.091-5.187-14.221-7.917-22.186-6.251C46.218,11.8,40.611,16.317,36.345,21.589a30.66,30.66,0,0,0-4.063,6.44,18.679,18.679,0,0,0-7.13-2.993A16.894,16.894,0,0,0,7.246,29.164a16.174,16.174,0,0,0-4.2,9.4A23.169,23.169,0,0,0,1.639,44.5c-.765,7.7.69,14.516,4.969,20.163C6.836,66,8.32,67.3,9.153,68.458c6.4,8.885,15.495,11.387,26.009,12.877,1.687.239,3.434,1.216,5.115.938,6.109.94,12.311,2.354,18.388,3.478a264.234,264.234,0,0,1,26.111,6.637c9.115,2.659,20.215,5.335,28.961.149a19.432,19.432,0,0,0,9.4-13.5,14.651,14.651,0,0,0,2.634-7.972c.285-7.224-2.288-14.887-5.51-21.239" transform="translate(0.031 0.215)" fill="#29abe2"/>
      <path id="Trazado_199689" data-name="Trazado 199689" d="M35.781,17.045c-.375.26-.729.534-1.069.817a1.423,1.423,0,0,0-.17.027A5.536,5.536,0,0,0,31.8,19.481a21.5,21.5,0,0,0-5.833.864c-.275-.016-.545-.015-.824-.044a1.5,1.5,0,0,0-.753,2.779l6.707,2.988a1.517,1.517,0,0,0,2.191-.891,10.362,10.362,0,0,1,1.938-3.664,25.357,25.357,0,0,0,2.365-2.125c1.146-1.17-.373-3.335-1.807-2.343" transform="translate(0.515 0.365)" fill="#49bfe8"/>
      <path id="Trazado_199690" data-name="Trazado 199690" d="M148.442,47.966a32.75,32.75,0,0,0-13.447-18.4A27.634,27.634,0,0,0,124.8,25.472c-4.493-.8-9.232.418-13.6-.8a5.519,5.519,0,0,0-1.635-5.731c-.751-2.4-2.9-3.11-4.455-4.805-2.014-2.191-2.848-4.665-5.41-6.5A43.045,43.045,0,0,0,82.4.972C79.746.6,77.267.724,75,2.279a5.159,5.159,0,0,0-1.769.194,6.375,6.375,0,0,1-2.2.451c-.441-.041-.884-.081-1.347-.085A4.467,4.467,0,0,0,65.536,5.1c-.691.1-1.378.221-2.062.37a1.527,1.527,0,0,0-1.093,1.28c-.229-.041-.456-.088-.685-.126-1.878-.31-2.685,2.564-.793,2.876q2.437.4,4.811,1.045A4.687,4.687,0,0,0,68.6,12.622a5.351,5.351,0,0,0,1.3.614c1.209.388,2.486.872,3.759,1.17A5.746,5.746,0,0,0,75.205,16.3a32.362,32.362,0,0,1,9.6,12.541c1.176,2.578,4.586,2.846,6.8,1.783a29.891,29.891,0,0,1,13.1-2.9A5.82,5.82,0,0,0,104.5,29.4a27.479,27.479,0,0,0-3.422-.212,1.492,1.492,0,0,0,0,2.982,13.556,13.556,0,0,1,4.738.577,5.007,5.007,0,0,0,1.792,1.2c.834.837,1.468,1.883,2.229,2.783a7,7,0,0,0,3.775,2.492c2.359,3.85,5.183,7.383,7.307,11.483a32.871,32.871,0,0,1,2.722,22.107,4.815,4.815,0,0,0,1.649,4.9,25.368,25.368,0,0,0-1.158,4.2,6.561,6.561,0,0,0-.094,1.282,1.708,1.708,0,0,0-1.625.669,22.064,22.064,0,0,0-3.2,6.572,1.473,1.473,0,0,0,1.909,1.776,1.181,1.181,0,0,0,.586-.086,42.708,42.708,0,0,0,7.214-3.794,1.655,1.655,0,0,0,.275-.228,6.787,6.787,0,0,0,1.051-.077c8.5-1.336,13.075-5.371,16.239-13.259,3.372-8.408,4.439-18.006,1.958-26.806m-16.01,4.749q-.225-.7-.477-1.4a28.773,28.773,0,0,0-1.478-3.335,17.354,17.354,0,0,1,1.956,4.736" transform="translate(1.301 0.017)" fill="#49bfe8"/>
      <path id="Trazado_199691" data-name="Trazado 199691" d="M118.286,31.354c19.255-1.1,25.281,23.465,21.157,38.175-1.038,3.7,4.716,5.282,5.752,1.586,5.15-18.371-3.667-47.06-26.91-45.726-3.816.22-3.842,6.187,0,5.966" transform="translate(2.51 0.551)" fill="#79dcf7"/>
      <path id="Trazado_199692" data-name="Trazado 199692" d="M78.857,8.031A24.837,24.837,0,0,1,99.212,19.694c2.049,3.235,7.214.245,5.152-3.011A31.088,31.088,0,0,0,78.857,2.065c-3.84-.132-3.835,5.834,0,5.966" transform="translate(1.652 0.045)" fill="#79dcf7"/>
      <path id="Trazado_199693" data-name="Trazado 199693" d="M84,40.6c9.583-1.951,18.969,3.444,23.42,11.913,4.037,7.679,5.7,20.9-.764,27.758-2.632,2.793,1.579,7.019,4.218,4.219,8.413-8.929,7.082-24.838,1.7-34.988A28.006,28.006,0,0,0,82.418,34.852C78.659,35.617,80.25,41.368,84,40.6" transform="translate(1.746 0.746)" fill="#79dcf7"/>
      <path id="Trazado_199694" data-name="Trazado 199694" d="M101.726,90.99c3.839,0,3.845-5.966,0-5.966s-3.845,5.966,0,5.966" transform="translate(2.149 1.849)" fill="#79dcf7"/>
      <path id="Trazado_199695" data-name="Trazado 199695" d="M128.15,47.039a41.232,41.232,0,0,1-1.518,31.444c-2.739,5.747,5.831,10.8,8.585,5.018A51.366,51.366,0,0,0,137.737,44.4c-2.063-6.018-11.67-3.433-9.587,2.643" transform="translate(2.742 0.891)" fill="#29abe2"/>
      <path id="Trazado_199696" data-name="Trazado 199696" d="M86.14,19.005c.527.428,1,.894,1.489,1.362.146.139.524.566.192.156a9.378,9.378,0,0,1,.7,1.048c.175.289.33.585.49.883.389.72-.186-.566.107.2a13.707,13.707,0,0,1,.607,2.187,5,5,0,0,0,6.115,3.472A5.1,5.1,0,0,0,99.316,22.2,18.026,18.026,0,0,0,93.17,11.975c-2.082-1.691-4.994-2.036-7.031,0-1.748,1.748-2.095,5.329,0,7.031" transform="translate(1.842 0.23)" fill="#29abe2"/>
      <path id="Trazado_199697" data-name="Trazado 199697" d="M32.409,29.536A63.867,63.867,0,0,0,41.745,25.1c3.316-1.932.316-7.09-3.011-5.151a54.388,54.388,0,0,1-7.91,3.834,3.069,3.069,0,0,0-2.083,3.669,3.005,3.005,0,0,0,3.669,2.083" transform="translate(0.623 0.425)" fill="#29abe2"/>
      <path id="Trazado_199698" data-name="Trazado 199698" d="M137.481,28.251a24.915,24.915,0,0,0-22.472-4.97C108.974,11.756,98.683,1.172,85.066.066,79.733-.366,74.891,1.4,69.9,2.987L50.479,9.143a1.479,1.479,0,0,0-.754.517,24.824,24.824,0,0,0-7.137,4.083,1.4,1.4,0,0,0-.81.027c-8.659,2.77-17.217,5.847-25.877,8.616a1.592,1.592,0,0,0-.432.221,16.883,16.883,0,0,0-8.115,4.407c-8.679,8.293-8.822,22.5-4.832,33.053C5.987,69.23,12.963,77.477,22.7,80.034c4.718,1.239,9.53,2.2,14.284,3.294l50.739,11.7c3.89.9,7.771,1.85,11.673,2.692a22.689,22.689,0,0,0,10.618-.157,1.37,1.37,0,0,0,.836-.045h0l15.057-4.775c4.633-1.468,9.881-2.54,14.165-4.927,9.4-5.233,13.04-16.614,12.854-26.782-.227-12.285-5.728-25.06-15.444-32.786M83.371,2.972c12.995.212,22.868,10.362,28.7,21.138L89.951,31.122a1.594,1.594,0,0,0-.373.177l-.073.024a55.544,55.544,0,0,0-4.724-7.585l-.144-.191q-.523-.7-1.068-1.373c-.109-.137-.223-.271-.334-.406-.319-.386-.64-.77-.97-1.146-.2-.224-.4-.44-.6-.66-.264-.288-.524-.578-.794-.859q-.671-.7-1.371-1.361c-.038-.036-.073-.074-.11-.108a40.407,40.407,0,0,0-3.442-2.9l-.034-.025q-.889-.668-1.819-1.282l-.007,0A36.007,36.007,0,0,0,67.38,9.9c-.386-.135-.771-.244-1.157-.365-.834-.286-1.68-.551-2.547-.773-.46-.094-.917-.175-1.369-.245l5.832-1.849c4.888-1.55,10.029-3.785,15.232-3.7M33.126,27.279a26.071,26.071,0,0,0-9.072-4.439c4.765-1.6,9.521-3.23,14.292-4.807a34.249,34.249,0,0,0-5.22,9.247M99.643,94.721c-3.595-.814-7.183-1.656-10.773-2.484L47.495,82.694c-8.45-1.948-17.35-3.3-25.611-5.977C8.066,72.239.945,54.356,3.482,40.938c1.1-5.835,4.165-11.735,9.7-14.446,6.832-3.343,14.237-.363,19.594,4.316a1.51,1.51,0,0,0,2.492-.658c3.407-10.744,11.536-18.844,22.441-19a25.932,25.932,0,0,1,7.43,1.174,35.822,35.822,0,0,1,16.6,12.33q.162.212.322.425c.255.335.506.675.753,1.018s.469.661.7,1q.149.219.3.439c.3.455.6.911.89,1.374l.017.029c1,1.611,1.924,3.273,2.767,4.96a1.292,1.292,0,0,0,.566.531,1.4,1.4,0,0,0,1.118.154l1.705-.541c12.751-3.523,23.985,6.556,29.318,17.5,5.179,10.633,6.493,24.925-.237,35.224-4.658,7.131-12.177,9.8-20.309,7.953m35.891-8.155c-5.025,1.806-10.149,3.387-15.276,4.944C136.4,74.585,124.209,35.6,101.406,30.7l13.239-4.2a1.583,1.583,0,0,0,.592-.336,22.032,22.032,0,0,1,7.159-1.021c9.92.494,17.841,8.419,22.206,16.283a42.276,42.276,0,0,1,5.34,19.609c.19,10.375-3.863,21.738-14.408,25.529" transform="translate(0 0)"/>
      <path id="Trazado_199699" data-name="Trazado 199699" d="M39.814,33.631A19.272,19.272,0,0,1,60.981,21.124C70.417,22.715,75.488,30.79,79.3,38.788c1.65,3.464,6.795.44,5.151-3.011-5.143-10.8-12.939-20.313-25.8-20.862C47.4,14.433,37.916,21.784,34.061,32.045c-1.352,3.6,4.413,5.153,5.752,1.586" transform="translate(0.736 0.324)" fill="#79dcf7"/>
      <path id="Trazado_199700" data-name="Trazado 199700" d="M9,31.13c-3.114,8.553-4.546,18.1-.733,26.685,3.4,7.659,10.587,13.264,18.277,16.221C31,75.748,35.7,76.388,40.34,77.392c5.348,1.158,10.665,2.451,16.018,3.59,11.178,2.381,22.389,4.6,33.511,7.229,6.222,1.471,8.877-8.113,2.643-9.587-17.775-4.2-35.743-8.118-53.663-11.642-7.381-1.452-14.6-3.625-19.445-9.808-5.438-6.945-3.594-15.775-.818-23.4C20.78,27.751,11.175,25.156,9,31.13" transform="translate(0.13 0.604)" fill="#2691bf"/>
      <path id="Trazado_199701" data-name="Trazado 199701" d="M69.31,50.421l-2.164-5.775a20.408,20.408,0,0,0-.718-2.993c-1.163-3.649-4.1-6.308-7.275-6.753a4.372,4.372,0,0,0-4.495-1.255,8.557,8.557,0,0,0-4.264,2.942A8.847,8.847,0,0,0,48.584,41.5a3.645,3.645,0,0,0,.284,1.586,10.928,10.928,0,0,0,.393,4.844c.4,3.353,1.285,6.788,3.18,9.244-.66,3.954.456,8.626.806,12.58.521,5.9,9.8,5.951,9.269,0-.264-2.984-.927-6.21-.813-9.2.079-2.094-.966-.05.4-1.839.638-.838,1.739-1.306,2.424-2.177.055-.068.1-.145.145-.217a4.031,4.031,0,0,0,1.4-.2c2.214-.716,4.147-3.271,3.237-5.7" transform="translate(1.056 0.728)" fill="gray"/>
      <path id="Trazado_199702" data-name="Trazado 199702" d="M56.323,37.725c5.365,5.136,8.921,11.8,3.62,18.313C56.23,60.6,57.484,67.852,57.3,73.483c-.115,3.58,5.447,3.576,5.561,0,.166-5.122-.513-10.613,2.394-14.977a15.662,15.662,0,0,0,2.969-7.672c.59-6.778-3.281-12.55-7.972-17.041-2.586-2.476-6.525,1.452-3.933,3.933" transform="translate(1.206 0.718)" fill="#666"/>
      <path id="Trazado_199703" data-name="Trazado 199703" d="M51.078,40.655c-.278,4.866-.039,10.016,4.368,13.006,1.486,1.007,2.878-1.4,1.4-2.4-3.47-2.354-3.2-6.907-2.991-10.6.1-1.788-2.679-1.782-2.781,0" transform="translate(1.109 0.855)" fill="#b2b2b2"/>
      <path id="Trazado_199704" data-name="Trazado 199704" d="M60.073,32.2a1.367,1.367,0,0,0-.419-.143A1.433,1.433,0,0,0,59.212,32c-8.737-1.109-12.565,7.935-10.917,15.534a17.1,17.1,0,0,0,3.317,7.219c1.331,1.583,1.459,1.055,1.589,3.021.2,3.046-.254,6.129-.021,9.175.247,3.214,1.869,7.873,5.147,9.236,2.874,1.2,5.022-.657,5.974-3.3,1.024-2.846.7-6.181.715-9.151.009-1.387-.387-3.5.031-4.825.375-1.183.126,0,.255-.129.713-.729,1.612-1.178,2.307-1.974,6.729-7.7,1.605-21.506-7.535-24.6m2.886,24.643a1.378,1.378,0,0,0-.689,1.2c-.021,3.344.081,6.711-.064,10.052a9.232,9.232,0,0,1-.3,3.062c-1.672,4-4.446,1.1-5.4-1.709a15.385,15.385,0,0,1-.559-5.225c.017-2.8.731-6.666-.355-9.254-.56-1.336-2.3-2.486-3.06-3.891a15.517,15.517,0,0,1-1.885-7.495c.05-4.769,2.841-9.732,8.274-8.844,8.387,2.5,13.178,17.542,4.045,22.1" transform="translate(1.042 0.694)"/>
    </g>
  </g>
</svg>
