<svg id="Grupo_882108" data-name="Grupo 882108" xmlns="http://www.w3.org/2000/svg" xmlns:xlink="http://www.w3.org/1999/xlink" width="57.956" height="76.817" viewBox="0 0 57.956 76.817">
  <defs>
    <clipPath id="clip-path">
      <rect id="Rectángulo_66779" data-name="Rectángulo 66779" width="57.956" height="76.817" fill="none"/>
    </clipPath>
  </defs>
  <g id="Grupo_873022" data-name="Grupo 873022" clip-path="url(#clip-path)">
    <path id="Trazado_199609" data-name="Trazado 199609" d="M6.725,105.982a14.565,14.565,0,0,0-1.973-.974,3.251,3.251,0,0,0-1.472-.436c-.017-.017-.034-.031-.051-.048-1.459-1.46-1.44-3.565-1.477-5.481C1.6,91.422,1.446,83.8,1.491,76.173c.019-3.257.017-7.24,1.768-10.118a7.764,7.764,0,0,1,4.351-3.1c1.739-.631,3.352-1.521,5.063-2.228,3.592-1.484,7.535-2.061,11.318-2.88l12.88-2.79a4.767,4.767,0,0,1,3.19.46c7.506.854,6.3,11,6.277,16.589a129.3,129.3,0,0,1-.591,15.178c2.317,4.605-1.283,9.588-5.965,10.766-.165.042-.332.076-.5.111a3.4,3.4,0,0,1-1.98,1.053L25.83,101.19c-.073.013-.144.018-.217.028a24.613,24.613,0,0,1-2.718,1.861c-.284.144-.574.278-.865.412a3.209,3.209,0,0,0-1.929-.076c-3.9.982-7.89.429-11.617,2.224a3.535,3.535,0,0,0-.631.385c-.379,0-.756-.011-1.129-.042m15.64-14.758c-.061-.091-.122-.118-.188-.015-.018.029.064.029.188.015M20.313,77.815a4.471,4.471,0,0,0,1.4,3.173c.166.142.341.291.526.426a13.468,13.468,0,0,1,.814,2.743,23.148,23.148,0,0,1,.389,4.055c0,.677.1,1.868.008,2.82a11.954,11.954,0,0,0,3.132-.9l.088-4.923a7.172,7.172,0,0,1,.014-.792,4.189,4.189,0,0,1,2.01-3.38,11.427,11.427,0,0,0,.221-1.351c.036-.087.07-.175.1-.256a5.151,5.151,0,0,0,.227-.568,2.085,2.085,0,0,0,.048-.22,9.483,9.483,0,0,0,.138-1.074,7.008,7.008,0,0,0-.141-1.375,4.356,4.356,0,0,0-.141-.624,10.936,10.936,0,0,0-1.03-2.3,3.158,3.158,0,0,0-.466-.6c-.05-.236-.095-.472-.127-.708-.23.033-.46.064-.69.095a4.048,4.048,0,0,0-.68-.292,3.312,3.312,0,0,0-2.53.331,2.478,2.478,0,0,0-.664.521l-.06.01c0,.024-.007.047-.009.071-.049.059-.1.119-.142.183a2.551,2.551,0,0,0-.42.36,7.852,7.852,0,0,0-1.388,1.961,5.461,5.461,0,0,0-.634,2.622" transform="translate(10.8 -29.471)" fill="#29abe2"/>
    <path id="Trazado_199610" data-name="Trazado 199610" d="M20.121,68.626a25.1,25.1,0,0,1,1.358-8.761c1.064-2.647,3.066-3.948,5.741-4.656,6.685-1.767,13.422-3.362,20.131-5.036,4.839-1.207,9.758-2.269,14.589-1.61a3.706,3.706,0,0,0,.452.311,30.913,30.913,0,0,0,5.8,2.6,2.21,2.21,0,0,1-.38,1.349,3.414,3.414,0,0,0-1.38.043c-2.723.622-5.406,1.335-8.167,1.774a38.435,38.435,0,0,0-7.925,1.8,3.663,3.663,0,0,0-1.7,1.269c-.683.062-1.367.116-2.038.21-2.633.368-6.2.861-8.13,2.932-.573.116-1.145.236-1.718.349a8.712,8.712,0,0,0-.655.893,21.6,21.6,0,0,0-1.82,3.676q-.157,6.543-.3,13.087C33.863,85.2,33.9,91.571,35.254,97.8a2.133,2.133,0,0,1-3.09,2.376c-2.97-1.38-6.016-2.238-8.928-3.734-2.849-1.463-3.015-4.218-3.03-7.148-.037-6.883-.23-13.787-.085-20.669" transform="translate(-19.549 -25.936)" fill="#49bfe8"/>
    <path id="Trazado_199611" data-name="Trazado 199611" d="M114.753,86.142q.026,11.043.051,22.087c.006,2.707-4.2,2.711-4.207,0q-.026-11.043-.051-22.087c-.006-2.707,4.2-2.711,4.207,0" transform="translate(-108.109 -45.108)" fill="#29abe2"/>
    <path id="Trazado_199612" data-name="Trazado 199612" d="M105.469,80.246a57.2,57.2,0,0,1-8.112-3.061c-2.454-1.137-.319-4.765,2.124-3.633a49.936,49.936,0,0,0,7.107,2.637c2.595.754,1.491,4.814-1.118,4.057" transform="translate(-94.75 -39.33)" fill="#79dcf7"/>
    <path id="Trazado_199613" data-name="Trazado 199613" d="M7.737,103.01q12.488-2.786,24.848-6.089.321-14.461.162-28.926c-.031-2.708,4.176-2.71,4.207,0q.176,15.357-.2,30.71a2.2,2.2,0,0,1-.151.763,1.7,1.7,0,0,1-1.239,1.454q-13.177,3.553-26.5,6.525c-2.345.523-3.483-3.911-1.13-4.437" transform="translate(17.96 -35.375)" fill="#2691bf"/>
    <path id="Trazado_199614" data-name="Trazado 199614" d="M39.656,65.938q-15.7,3.247-31.036,7.947c-2.594.8-3.7-3.264-1.118-4.057q15.327-4.7,31.036-7.947c2.642-.546,3.772,3.508,1.118,4.057" transform="translate(13.99 -33.159)" fill="#49bfe8"/>
    <path id="Trazado_199615" data-name="Trazado 199615" d="M34.282,20.666q.208-2.822.535-5.634a11.866,11.866,0,0,1,.972-4.521C37.265,7.931,41.1,6.668,43.752,5.8a30.012,30.012,0,0,1,7.991-1.423,7.681,7.681,0,0,1,2.036-.035h.011c.185.02.37.043.56.074A1.7,1.7,0,0,1,55.8,5.8a9.639,9.639,0,0,1,3.585,5.192A36.35,36.35,0,0,1,60.2,18.6q.131,2.274.262,4.547c-.166,1.306-.262,2.724-.43,3.686-.066.372-.141.745-.243,1.109a2.759,2.759,0,0,1-.256.681c-.008.016-.018.03-.026.045-.109,0-.248.028-.134.023a3.238,3.238,0,0,0-1.945.706,2.04,2.04,0,0,1-.908-1.638c-.23-4-.439-8.009-.693-12.011-.158-2.5-.921-8.262-4.846-6.685a1.671,1.671,0,0,1-1.739-.234,25.352,25.352,0,0,0-3.663.8A24.456,24.456,0,0,0,41.613,11.2c-1.51.759-2.248,1.269-2.482,2.961-1.794,2.26-2.062,5.607-2.082,8.361-.023,3.165.491,6.3.529,9.457a3.412,3.412,0,0,0,.219,1.187c-1,1.435-3.844,1.041-3.864-1.187-.032-3.774.072-7.546.348-11.31" transform="translate(-18.236 -2.301)" fill="#999"/>
    <path id="Trazado_199616" data-name="Trazado 199616" d="M57.028,10.633a3.213,3.213,0,0,0,1.054-1.158c1.7-3.062,3.4-6.155,6.982-7.2A58.641,58.641,0,0,1,75.631.428,1.792,1.792,0,0,1,74.3,3.077a33.455,33.455,0,0,0-8.179,2.337,11.916,11.916,0,0,0-3.32,1.87C61.74,8.272,61.534,9.7,61.3,11.066a91.532,91.532,0,0,0-1.179,18.21c.073,2.708-4.133,2.707-4.207,0a99.557,99.557,0,0,1,.325-11.457c.2-2.319.364-4.811.794-7.186" transform="translate(-43.771 -0.23)" fill="#b3b3b3"/>
    <path id="Trazado_199617" data-name="Trazado 199617" d="M43.493,12.533a3.066,3.066,0,0,0,1.525.522,3.061,3.061,0,0,0,1.154.4c2.547,5.3,1.707,11.756,1.7,17.469A1.969,1.969,0,0,1,45.9,32.941a3.454,3.454,0,0,0-1.131-1.006c-.005-.026,0-.051-.01-.077a2.438,2.438,0,0,0-.39-1.221c-.083-.115-.159-.235-.232-.357.012-.055.027-.107.037-.164.785-4.413,1.444-9.793-.126-14.123A3.168,3.168,0,0,0,42.5,13.519a2.417,2.417,0,0,1,1-.986" transform="translate(-9.761 -6.721)" fill="#b3b3b3"/>
    <path id="Trazado_199618" data-name="Trazado 199618" d="M38.708,97.845l.982-2.621a9.24,9.24,0,0,1,.326-1.358,4.313,4.313,0,0,1,3.3-3.065,1.985,1.985,0,0,1,2.04-.569,3.883,3.883,0,0,1,1.935,1.335,4.015,4.015,0,0,1,.822,2.229,1.654,1.654,0,0,1-.129.72,4.966,4.966,0,0,1-.179,2.2,8.632,8.632,0,0,1-1.443,4.2c.3,1.794-.207,3.914-.366,5.709-.237,2.676-4.446,2.7-4.207,0a34.341,34.341,0,0,0,.369-4.175c-.036-.95.438-.023-.18-.835-.289-.38-.789-.593-1.1-.988-.025-.032-.043-.066-.066-.1a1.828,1.828,0,0,1-.638-.09,2.127,2.127,0,0,1-1.469-2.587" transform="translate(-8.062 -48.342)" fill="gray"/>
    <path id="Trazado_199619" data-name="Trazado 199619" d="M50.933,91.841c-2.435,2.331-4.049,5.355-1.643,8.311,1.685,2.07,1.116,5.361,1.2,7.917.052,1.625-2.472,1.623-2.524,0-.075-2.325.233-4.817-1.086-6.8A7.108,7.108,0,0,1,45.53,97.79c-.268-3.076,1.489-5.7,3.618-7.734,1.174-1.124,2.961.659,1.785,1.785" transform="translate(-14.461 -48.105)" fill="#666"/>
    <path id="Trazado_199620" data-name="Trazado 199620" d="M43.868,63.179a270.136,270.136,0,0,0-30.846,7.716c-1.553.487-2.218-1.948-.671-2.434A270.136,270.136,0,0,1,43.2,60.745c1.588-.3,2.268,2.133.671,2.434" transform="translate(7.858 -32.563)" fill="#79dcf7"/>
    <path id="Trazado_199621" data-name="Trazado 199621" d="M83.124,80.147c-2.074,1.046-2.012,3.793-2.081,5.809-.094,2.776-.093,5.555-.074,8.333.038,5.556.162,11.11-.03,16.665-.057,1.62-2.581,1.627-2.524,0,.231-6.666,0-13.332.022-20,.014-3.939-.919-10.8,3.413-12.988,1.447-.73,2.726,1.447,1.273,2.179" transform="translate(-62.144 -41.734)" fill="#79dcf7"/>
    <path id="Trazado_199622" data-name="Trazado 199622" d="M89.982,15.475a9.741,9.741,0,0,0-2.236,6.762.631.631,0,0,1-1.262,0,11.081,11.081,0,0,1,2.605-7.654c.537-.612,1.426.284.893.893" transform="translate(-72.293 -7.71)" fill="#d9dbdb"/>
    <path id="Trazado_199623" data-name="Trazado 199623" d="M37.856,5.841A5.934,5.934,0,0,1,43.353,8c1.29,1.714,1.566,4.626,1.582,6.7a.631.631,0,0,1-1.261,0,13.758,13.758,0,0,0-.967-5.365A4.608,4.608,0,0,0,37.856,7.1c-.8.1-.8-1.166,0-1.262" transform="translate(-4.254 -3.107)" fill="#bfbfbf"/>
    <path id="Trazado_199624" data-name="Trazado 199624" d="M43.93,96.619c.126,2.208.018,4.546-1.982,5.9-.674.457-1.306-.636-.637-1.09,1.575-1.068,1.453-3.134,1.357-4.813-.046-.811,1.216-.809,1.262,0" transform="translate(-5.033 -51.491)" fill="#b2b2b2"/>
    <path id="Trazado_199625" data-name="Trazado 199625" d="M56.339,58.228c3.709-1.06,7.395-2.013,11.178-2.848,1.979-.436,2.824,2.6.839,3.042-4.432.977-8.729,2.109-13.089,3.4a1.447,1.447,0,0,1-1.062-.066,3.212,3.212,0,0,0,2.134-3.526" transform="translate(-36.666 -29.677)" fill="#29abe2"/>
    <path id="Trazado_199626" data-name="Trazado 199626" d="M32.244,53.769a1.578,1.578,0,0,1,0-3.155,1.578,1.578,0,0,1,0,3.155" transform="translate(9.943 -27.144)" fill="#2691bf"/>
    <path id="Trazado_199627" data-name="Trazado 199627" d="M50.39,57.4a1.579,1.579,0,0,1,0-3.156,1.579,1.579,0,0,1,0,3.156" transform="translate(-16.618 -29.09)" fill="#29abe2"/>
    <path id="Trazado_199628" data-name="Trazado 199628" d="M41.857,89.642a.62.62,0,0,1,.19-.065.636.636,0,0,1,.2-.026c3.965-.5,5.7,3.6,4.955,7.049A7.761,7.761,0,0,1,45.7,99.877c-.6.718-.662.479-.721,1.371-.091,1.382.115,2.782.01,4.164-.112,1.459-.848,3.573-2.336,4.191-1.3.543-2.279-.3-2.711-1.5a12.692,12.692,0,0,1-.325-4.153,8.642,8.642,0,0,0-.014-2.19c-.17-.537-.057,0-.116-.058-.323-.331-.732-.535-1.047-.9-3.054-3.495-.728-9.76,3.42-11.165m-1.31,11.184a.626.626,0,0,1,.313.545c.01,1.518-.037,3.046.029,4.562a4.177,4.177,0,0,0,.138,1.39c.759,1.813,2.018.5,2.452-.776a6.97,6.97,0,0,0,.254-2.371c-.008-1.271-.332-3.025.16-4.2.254-.607,1.042-1.128,1.389-1.766a7.042,7.042,0,0,0,.856-3.4c-.023-2.164-1.29-4.416-3.755-4.014-3.806,1.136-5.981,7.961-1.836,10.031" transform="translate(-6.591 -48.003)"/>
    <path id="Trazado_199629" data-name="Trazado 199629" d="M0,65.415Q0,52.254,0,39.093a.61.61,0,0,1,.083-.314.268.268,0,0,1,0-.028c-.112-4.2,1.737-8.121,5.96-9.4l.011,0a.689.689,0,0,1,.143-.048q3.1-.673,6.189-1.387c0-.121.006-.239,0-.354-.024-3.642-.125-7.293-.068-10.935.038-5.218,1.738-10.745,6.476-13.575C21.914,1.185,25.922.692,29.436.113c2.47-.406,4.492.363,6.823,1.1a.7.7,0,0,1,.121.052,6.474,6.474,0,0,1,.7.271c3.139,1.449,4.589,4.912,4.9,8.176.246,2.6.111,5.273.123,7.888q.01,2.279.019,4.558c0,.217.009.439.017.663,3.4.732,6.73,1.991,10.152,2.822a5.558,5.558,0,0,1,1.548.338c.185.036.369.08.556.113a.507.507,0,0,1,.441.4,5.6,5.6,0,0,1,1.351,1.28c1.479,1.938,1.563,4.286,1.578,6.607q.06,9.247.119,18.494c.035,5.449.863,11.906-4.159,15.605a12.6,12.6,0,0,1-4.941,1.777L40.44,72.183,22.458,76.335c-1.8.415-3.558.856-5.322-.04-.124-.063-.24-.134-.356-.2q-6.1-1.746-12.061-3.947a6.267,6.267,0,0,1-4.64-6.421A.613.613,0,0,1,0,65.415M29.553,1.372c-3.221.535-6.833.986-9.752,2.555-4.6,2.474-6.184,7.806-6.22,12.695-.047,2.974.035,5.954.055,8.929.008,1.218-.338,2.934.08,4.107.21.59.958.911,1.762,1.141q-.037-.157-.063-.324a36.615,36.615,0,0,1-.13-6.726c.025-1.06.049-2.117.045-3.16-.005-.622-.011-1.242-.01-1.859a24.213,24.213,0,0,1,.81-7.305c.124-.342.26-.674.4-1a13.254,13.254,0,0,1,.935-1.92A12.466,12.466,0,0,1,23.971,3c.2-.074.4-.14.6-.207l.047-.018.032-.01c.2-.065.4-.127.6-.187a46.056,46.056,0,0,1,5.862-1.306,7.669,7.669,0,0,0-1.56.1M39.821,6.188a6.691,6.691,0,0,0-3.945-3.767,11,11,0,0,0-5.051.219,44.953,44.953,0,0,0-5.74,1.316,11.256,11.256,0,0,0-5.525,3.73c-.057.073-.115.145-.17.219-.105.139-.206.284-.307.43a14.635,14.635,0,0,0-1.226,2.191,20.379,20.379,0,0,0-1.277,8.35q.02,3.611.047,7.222v0h0q.006.8.01,1.6c0,.217-.019.478-.043.758.006.286.021.57.053.848.047.4.153,1.839.8,1.975,1.106.234,1.44-1.323,1.532-2,.324-2.392-.033-5.109-.049-7.525-.024-3.688-.681-7.967,1.43-11.234,1.973-3.054,5.447-3.475,8.731-4.244,2.747-.643,5.881-1.676,7.985.857,2.287,2.753,1.4,7.391,1.423,10.668h0l.039,6.042c0,.107,0,.217-.006.328,0,.025.005.051.009.075l.006.806a1.76,1.76,0,0,0,.519,1.1c.017.011.036.021.053.032.228.111.5,0,.824-.335.912-.4.86-1.155.927-2.036.1-1.357-.013-2.782-.019-4.142-.018-4.245.763-9.511-1.03-13.485M34.256,22.555c.008,0,.015,0,.023,0,0-.018,0-.037,0-.055-.024-3.633-.074-7.266-.041-10.9-.013-1.81-.184-3.682-1.432-4.875a28.34,28.34,0,0,0-4.982,1.16c-3.184.779-5.927,1.454-7.167,4.862-.915,2.516-.487,5.6-.47,8.222.01,1.595.163,3.332.21,5.046q6.941-1.683,13.857-3.457m1.273-2.073c.007,1.221-.339,2.945.08,4.121.211.593.964.914,1.771,1.144a4.647,4.647,0,0,1-.087-.642c0-.016-.006-.031-.008-.047A78.454,78.454,0,0,1,37.232,17c0-.587.032-1.255.068-1.961-.008-1.2-.029-2.39-.081-3.581A7.091,7.091,0,0,0,36.435,8.4c-.051-.083-.1-.166-.16-.244a4.28,4.28,0,0,0-1.8-1.278A9.347,9.347,0,0,1,35.5,11.6c-.027,2.962.009,5.923.028,8.885M21.663,75.224l15.429-3.562c4.477-1.034,9.023-1.915,13.46-3.108,6.231-1.675,6.119-8.24,6.086-13.421q-.058-8.895-.115-17.79c-.021-3.282.227-8.6-2.774-10.091-.6-.114-1.206-.248-1.806-.4A6.822,6.822,0,0,0,50.521,27c-10.03,2.031-19.976,4.612-29.948,6.914-6.807,1.9-5.856,9.99-5.821,15.443q.057,8.744.113,17.488a16.365,16.365,0,0,0,.47,5.435,4.539,4.539,0,0,0,2.371,2.765c.416.117.83.241,1.248.355a7.482,7.482,0,0,0,2.709-.173M4.539,70.763a.655.655,0,0,1,.16.037c.119.045.24.085.359.129.086.023.17.049.258.067a.6.6,0,0,1,.261.12q4.621,1.7,9.331,3.115a10.008,10.008,0,0,1-1.29-5.121c-.08-5.753-.075-11.507-.112-17.26-.033-5.129-1.068-11.581,2.2-15.955a8.448,8.448,0,0,1,4.531-3.2c9.6-2.217,19.187-4.512,28.8-6.655-2.29-.7-4.571-1.472-6.884-1.986a4.445,4.445,0,0,1-.3,1.6,2.477,2.477,0,0,1-2.69,1.718.546.546,0,0,1-.415.03c-1.447-.459-3.755-.652-4.322-2.332a4.006,4.006,0,0,1-.173-1.217q-6.915,1.763-13.851,3.453a16.27,16.27,0,0,1-.213,2.563,2.867,2.867,0,0,1-2.9,2.549.546.546,0,0,1-.434.038c-1.447-.459-3.755-.652-4.322-2.332a3.569,3.569,0,0,1-.162-.921q-2.919.669-5.845,1.309c-.016,0-.03,0-.045.006a.723.723,0,0,1-.109.045c-3.689,1.119-5.129,4.565-5.033,8.185a.6.6,0,0,1-.081.326c0,.006,0,.01,0,.016q0,12.96,0,25.922a.515.515,0,0,1,.1.4,5.036,5.036,0,0,0,3.175,5.344" transform="translate(0 0)"/>
    <path id="Trazado_199630" data-name="Trazado 199630" d="M85.219,155.885a1.263,1.263,0,0,1,0-2.524,1.263,1.263,0,0,1,0,2.524" transform="translate(-67.433 -82.247)" fill="#79dcf7"/>
  </g>
</svg>
