<svg xmlns="http://www.w3.org/2000/svg" width="138.521" height="142.913" viewBox="0 0 138.521 142.913">
  <g id="Grupo_878709" data-name="Grupo 878709" transform="translate(-180.217 -315.174)">
    <path id="Trazado_200395" data-name="Trazado 200395" d="M318.738,384.435a69.26,69.26,0,1,1-69.26-69.261A69.261,69.261,0,0,1,318.738,384.435Z" fill="#8b55f1"/>
    <path id="Trazado_200396" data-name="Trazado 200396" d="M256.51,363.276h18.008L289.4,400.889l-21.549,5.235Z" transform="translate(23.817 15.017)" fill="#845425"/>
    <path id="Trazado_200397" data-name="Trazado 200397" d="M266.766,377.024l7.375,22.535-1.741.424L265.682,378.6Z" transform="translate(26.681 19.309)" fill="#6d4420"/>
    <path id="Trazado_200398" data-name="Trazado 200398" d="M256.866,365.774c.394,0,12.4,2.1,12.4,2.1l11.93,34.2-1.693.409-11.613-33.528-10.532-2.2Z" transform="translate(23.928 15.796)" fill="#6d4420"/>
    <path id="Trazado_200399" data-name="Trazado 200399" d="M189.451,336.518l-6.236,7.307.808,10.861,6.583,13.595,1.088,9.434H202.38v-23.8Z" transform="translate(0.936 6.663)" fill="#c48c49"/>
    <path id="Trazado_200400" data-name="Trazado 200400" d="M232.064,368.4a42.312,42.312,0,0,0-9.2-23.687c-12.5-15.725-34.892-7.71-34.892-7.71L200.9,354.4l2.77,34.354Z" transform="translate(2.42 6.177)" fill="#a57137"/>
    <path id="Trazado_200401" data-name="Trazado 200401" d="M191.054,341.49l-5.311-6.8,4.668-3.792,5.657,7.541Z" transform="translate(1.725 4.907)" fill="#a57137"/>
    <path id="Trazado_200402" data-name="Trazado 200402" d="M223.553,367.839c-2.559-9.8-5.431-23.693-16.419-29-8.566-4.136-14.341-1.275-17,1.425l10.081,13.567,2.77,34.354,21.441-15.366A33.7,33.7,0,0,0,223.553,367.839Z" transform="translate(3.097 6.74)" fill="#91602f"/>
    <path id="Trazado_200403" data-name="Trazado 200403" d="M196.074,338.62l-1.023-8.4,5.914-1.093,1.356,9.328Z" transform="translate(4.631 4.357)" fill="#a57137"/>
    <path id="Trazado_200404" data-name="Trazado 200404" d="M202.522,338.517l2.813-7.978,5.784,1.649-2.929,8.958Z" transform="translate(6.963 4.797)" fill="#a57137"/>
    <path id="Trazado_200405" data-name="Trazado 200405" d="M208.734,339.795l6.437-5.487,4.176,4.328-7.03,6.278Z" transform="translate(8.902 5.973)" fill="#a57137"/>
    <path id="Trazado_200406" data-name="Trazado 200406" d="M214.485,344.941l7.428-4.045,3.2,5.094-8.172,4.7Z" transform="translate(10.698 8.03)" fill="#a57137"/>
    <path id="Trazado_200407" data-name="Trazado 200407" d="M217.674,352.484l8.063-2.56,2.17,5.61-8.917,3.058Z" transform="translate(11.694 10.848)" fill="#a57137"/>
    <path id="Trazado_200408" data-name="Trazado 200408" d="M219.028,388.429l4.185,18.524L217.94,420.6v6.234H199.932l5.31-10.85,4.386-9.489-5.667-18.832Z" transform="translate(6.155 22.629)" fill="#845425"/>
    <path id="Trazado_200409" data-name="Trazado 200409" d="M224.709,389.609l4.186,18.524L223.622,420.6v6.234H205.614l5.31-10.85,4.386-9.489-5.666-18.832Z" transform="translate(7.928 22.629)" fill="#c48c49"/>
    <path id="Trazado_200410" data-name="Trazado 200410" d="M266.06,388.429l4.186,18.524L264.972,420.6v6.234H246.964l5.309-10.85,4.388-9.489-15.7-18.832Z" transform="translate(18.963 22.629)" fill="#845425"/>
    <path id="Trazado_200411" data-name="Trazado 200411" d="M274.3,391.662l3.684,15.291L272.712,420.6v6.234H254.705l5.31-10.85,4.386-9.489L248.7,387.66Z" transform="translate(21.38 22.629)" fill="#c48c49"/>
    <rect id="Rectángulo_66874" data-name="Rectángulo 66874" width="112.663" height="7.081" transform="translate(200.547 449.46)" fill="#a57137"/>
    <rect id="Rectángulo_66875" data-name="Rectángulo 66875" width="112.663" height="1.954" transform="translate(200.547 449.46)" fill="#e5a061"/>
    <rect id="Rectángulo_66876" data-name="Rectángulo 66876" width="112.663" height="1.545" transform="translate(200.547 456.541)" fill="#845425"/>
    <path id="Trazado_200412" data-name="Trazado 200412" d="M228.329,360.446h42.019l19.179,19.179-89.6,1.171Z" transform="translate(6.155 14.133)" fill="#c48c49"/>
    <path id="Trazado_200413" data-name="Trazado 200413" d="M289.528,395.595H205.011l-5.079-19.361,89.6-1.171Z" transform="translate(6.155 18.696)" fill="#a57137"/>
    <path id="Trazado_200414" data-name="Trazado 200414" d="M269,364.2l-3.752-3.754h-42.02l-6.956,4.985h0s13.533,5.646,26.011,6.116C254.273,372,267.95,364.763,269,364.2Z" transform="translate(11.256 14.133)" fill="#d69651"/>
    <path id="Trazado_200415" data-name="Trazado 200415" d="M263.608,405.54l-9.7,20.339h11.582l6.292-19.585L265.3,390.71H251.245Z" transform="translate(22.174 23.581)" fill="#d39653"/>
    <rect id="Rectángulo_66877" data-name="Rectángulo 66877" width="0.867" height="2.587" transform="translate(194.168 379.587)" fill="#6d4420"/>
    <rect id="Rectángulo_66878" data-name="Rectángulo 66878" width="28.048" height="1.416" transform="translate(210.23 398.3)" fill="#845425"/>
    <rect id="Rectángulo_66879" data-name="Rectángulo 66879" width="28.048" height="1.416" transform="translate(256.878 398.3)" fill="#845425"/>
    <rect id="Rectángulo_66880" data-name="Rectángulo 66880" width="21.824" height="1.416" transform="translate(243.888 388.903)" fill="#a57137"/>
    <rect id="Rectángulo_66881" data-name="Rectángulo 66881" width="21.825" height="1.416" transform="translate(223.572 382.961)" fill="#a57137"/>
    <rect id="Rectángulo_66882" data-name="Rectángulo 66882" width="15.887" height="1.416" transform="translate(253.539 376.877)" fill="#a57137"/>
    <path id="Trazado_200416" data-name="Trazado 200416" d="M208.565,344.284l-10.71,9.131-.919-1.078,12.089-10.31Z" transform="translate(5.219 8.383)" fill="#c48c49"/>
    <path id="Trazado_200417" data-name="Trazado 200417" d="M211.7,352l-13.021,11.1-.141-1.742,13.34-11.378Z" transform="translate(5.719 10.868)" fill="#c48c49"/>
    <path id="Trazado_200418" data-name="Trazado 200418" d="M211.745,359.219,199.23,369.89l-.14-1.743,13.04-11.12Z" transform="translate(5.892 13.066)" fill="#c48c49"/>
    <rect id="Rectángulo_66883" data-name="Rectángulo 66883" width="15.888" height="1.416" transform="translate(217.239 409.582)" fill="#845425"/>
    <rect id="Rectángulo_66884" data-name="Rectángulo 66884" width="15.887" height="1.417" transform="translate(278.072 443.238)" fill="#845425"/>
    <rect id="Rectángulo_66885" data-name="Rectángulo 66885" width="28.048" height="1.417" transform="translate(233.85 404.972)" fill="#845425"/>
    <rect id="Rectángulo_66886" data-name="Rectángulo 66886" width="19.784" height="1.417" transform="translate(270.902 410.289)" fill="#845425"/>
    <path id="Trazado_200419" data-name="Trazado 200419" d="M202.378,354.67a1.443,1.443,0,1,1-1.443-1.443A1.444,1.444,0,0,1,202.378,354.67Z" transform="translate(6.017 11.879)" fill="#845425"/>
    <path id="Trazado_200420" data-name="Trazado 200420" d="M268.686,392.994a1.444,1.444,0,1,1-1.445-1.441A1.443,1.443,0,0,1,268.686,392.994Z" transform="translate(26.717 23.844)" fill="#845425"/>
    <path id="Trazado_200421" data-name="Trazado 200421" d="M220.321,392.994a1.443,1.443,0,1,1-1.445-1.441A1.444,1.444,0,0,1,220.321,392.994Z" transform="translate(11.619 23.844)" fill="#845425"/>
    <path id="Trazado_200422" data-name="Trazado 200422" d="M202.82,361.71a1.444,1.444,0,1,1-1.445-1.443A1.446,1.446,0,0,1,202.82,361.71Z" transform="translate(6.155 14.077)" fill="#845425"/>
    <path id="Trazado_200423" data-name="Trazado 200423" d="M203.155,368.543a1.444,1.444,0,1,1-1.445-1.443A1.444,1.444,0,0,1,203.155,368.543Z" transform="translate(6.259 16.21)" fill="#845425"/>
    <path id="Trazado_200424" data-name="Trazado 200424" d="M189.452,336.518l-6.237,7.306.808,10.861,6.583,13.6,1.088,9.433h6.054c-2.165-6.112-5.12-13.868-6.948-20.6-2.132-7.851-.844-13.539,1.109-17.293Z" transform="translate(0.936 6.663)" fill="#dd9954"/>
    <rect id="Rectángulo_66887" data-name="Rectángulo 66887" width="4.152" height="4.152" transform="translate(190.387 358.719)" fill="#6d4420"/>
    <rect id="Rectángulo_66888" data-name="Rectángulo 66888" width="15.53" height="1.226" transform="translate(184.151 350.499)" fill="#91602f"/>
    <path id="Trazado_200425" data-name="Trazado 200425" d="M200.576,361.863l-11.58.55v-1.174l11.58-.515Z" transform="translate(2.741 14.22)" fill="#a57137"/>
    <path id="Trazado_200426" data-name="Trazado 200426" d="M248.312,389.336A103.456,103.456,0,0,1,201,380.026l3.678,14.019h84.516v-13.2C281.341,384.141,267.494,388.545,248.312,389.336Z" transform="translate(6.488 20.246)" fill="#936435"/>
    <path id="Trazado_200427" data-name="Trazado 200427" d="M210.847,390.71l4.462,14.83-9.7,20.339h9.7L221.439,406l-3.455-15.291Z" transform="translate(7.928 23.581)" fill="#d39653"/>
    <rect id="Rectángulo_66889" data-name="Rectángulo 66889" width="15.888" height="1.417" transform="translate(215.627 443.238)" fill="#845425"/>
  </g>
</svg>
