<svg xmlns="http://www.w3.org/2000/svg" width="152.691" height="142.913" viewBox="0 0 152.691 142.913">
  <g id="Grupo_878710" data-name="Grupo 878710" transform="translate(-408.655 -5462.087)">
    <path id="Trazado_200428" data-name="Trazado 200428" d="M318.738,384.435a69.26,69.26,0,1,1-69.26-69.261A69.261,69.261,0,0,1,318.738,384.435Z" transform="translate(235.523 5146.914)" fill="#fb394b"/>
    <g id="Grupo_878708" data-name="Grupo 878708" transform="translate(234.48 5298.898)">
      <rect id="Rectángulo_66842" data-name="Rectángulo 66842" width="79.536" height="2.01" transform="translate(174.175 267.468)" fill="#8c8c8c"/>
      <path id="Trazado_200369" data-name="Trazado 200369" d="M183.436,240.345h58.606l11.668,11.667H174.175Z" transform="translate(0 15.457)" fill="#aaa"/>
      <rect id="Rectángulo_66843" data-name="Rectángulo 66843" width="44.441" height="6.226" transform="translate(209.863 241.569)" fill="#8c8c8c"/>
      <rect id="Rectángulo_66844" data-name="Rectángulo 66844" width="68.16" height="4.745" transform="translate(198.004 246.312)" fill="#aaa"/>
      <path id="Trazado_200370" data-name="Trazado 200370" d="M228.817,231.9l3.723,34.38S221.662,289,216.621,288.749s-.513-59.144-1.391-61.659S223.288,226.279,228.817,231.9Z" transform="translate(11.92 11.171)" fill="#2b2b2b"/>
      <path id="Trazado_200371" data-name="Trazado 200371" d="M230.867,265.632l-3.723-34.38a20.633,20.633,0,0,0-3.971-3.108c-2.056.96-3.356,1.6-3.356,1.6s2.276,20.6,3.59,34.568a73.5,73.5,0,0,1-.823,16.2A151.156,151.156,0,0,0,230.867,265.632Z" transform="translate(13.594 11.823)" fill="#111010"/>
      <path id="Trazado_200372" data-name="Trazado 200372" d="M242.173,234.178c-3.614-.2-6.275,3-11.866,10.978-6.794,9.7-15.252,26.854-15.287,30.279-.144,13.533-1.694,16.555,12.724,12.021,5.032-1.583,18.006-17.731,30.563-41.4C262.606,237.942,244.839,234.322,242.173,234.178Z" transform="translate(12.131 13.617)" fill="#2b2b2b"/>
      <rect id="Rectángulo_66845" data-name="Rectángulo 66845" width="93.419" height="54.164" transform="translate(185.374 188.449)" fill="#aaa"/>
      <rect id="Rectángulo_66846" data-name="Rectángulo 66846" width="87.657" height="48.063" transform="translate(188.518 191.57)" fill="#8e8e8e"/>
      <rect id="Rectángulo_66847" data-name="Rectángulo 66847" width="85.776" height="46.909" transform="translate(189.195 192.076)" fill="#91ebf2"/>
      <rect id="Rectángulo_66848" data-name="Rectángulo 66848" width="66.788" height="40.738" transform="translate(208.13 195.631)" fill="#707070"/>
      <g id="Grupo_878705" data-name="Grupo 878705" transform="translate(227.15 201.8)">
        <path id="Trazado_200373" data-name="Trazado 200373" d="M242.455,212.467a13.731,13.731,0,1,1-13.731-13.731A13.731,13.731,0,0,1,242.455,212.467Z" transform="translate(-214.993 -198.736)" fill="#262626"/>
        <circle id="Elipse_4924" data-name="Elipse 4924" cx="8.863" cy="8.863" r="8.863" transform="translate(4.868 4.868)" fill="#515151"/>
        <circle id="Elipse_4925" data-name="Elipse 4925" cx="3.548" cy="3.548" r="3.548" transform="translate(10.184 10.183)" fill="#777"/>
        <circle id="Elipse_4926" data-name="Elipse 4926" cx="1.861" cy="1.861" r="1.861" transform="translate(11.871 11.87)" fill="#515151"/>
      </g>
      <path id="Trazado_200374" data-name="Trazado 200374" d="M243.148,202.61c-2.127,1.391-3.8,5.282-2.98,7.343,1.265,3.162-1.467,9.343-1.5,10.524s3.356-.5,3.683.253-1.1,2.359-.74,3.091c.244.5,2.04.657,2.04.657s-1.107.616-1.278,1.176c-.518,1.692,1.441,1.589,1.246,2.391s-1.69,2.034.446,4.075,6.083.226,10.776-3.054S243.148,202.61,243.148,202.61Z" transform="translate(19.21 4.218)" fill="#ffb18f"/>
      <path id="Trazado_200375" data-name="Trazado 200375" d="M297.448,252.485c-1.054-1.424-8.266-6.662-9.849-7.312-3.346-1.648-4.655-6.633-4.655-6.633s-2.291-13.486.575-20.868c4.213-10.845-2.588-24.114-13.165-24.482-12.824-.45-30.829,7.9-31.824,11.344-.909,3.145,12.751,19.712,12.267,30.25-.4,8.79-8.323,8.038-9.324,9.552-5.434.732-6.889,3.26-10.416,5.743-3.546,2.5,23.308,48.235,22.536,51.741-.3,1.351,28.648,3.2,31.652,2.828,23-2.828,24.663-6.4,24.663-7.189C309.906,296.179,312.079,272.251,297.448,252.485Z" transform="translate(16.845 1.407)" fill="#2b2b2b"/>
      <rect id="Rectángulo_66849" data-name="Rectángulo 66849" width="0.338" height="2.782" transform="translate(240.882 206.668)" fill="#707070"/>
      <rect id="Rectángulo_66850" data-name="Rectángulo 66850" width="0.338" height="1.39" transform="translate(240.882 201.8)" fill="#707070"/>
      <rect id="Rectángulo_66851" data-name="Rectángulo 66851" width="0.337" height="1.391" transform="matrix(0.865, -0.501, 0.501, 0.865, 234.016, 203.639)" fill="#707070"/>
      <rect id="Rectángulo_66852" data-name="Rectángulo 66852" width="0.337" height="1.391" transform="matrix(0.498, -0.867, 0.867, 0.498, 228.989, 208.667)" fill="#707070"/>
      <rect id="Rectángulo_66853" data-name="Rectángulo 66853" width="0.338" height="1.392" transform="translate(227.15 215.531) rotate(-90)" fill="#707070"/>
      <rect id="Rectángulo_66854" data-name="Rectángulo 66854" width="0.337" height="1.391" transform="matrix(-0.501, -0.865, 0.865, -0.501, 228.99, 222.397)" fill="#707070"/>
      <rect id="Rectángulo_66855" data-name="Rectángulo 66855" width="0.337" height="1.391" transform="translate(234.016 227.423) rotate(-150.012)" fill="#707070"/>
      <rect id="Rectángulo_66856" data-name="Rectángulo 66856" width="0.338" height="1.392" transform="translate(240.882 229.262) rotate(180)" fill="#707070"/>
      <path id="Trazado_200376" data-name="Trazado 200376" d="M230.1,217.72l.291-.169.695,1.2-.292.169Z" transform="translate(16.658 8.668)" fill="#707070"/>
      <rect id="Rectángulo_66857" data-name="Rectángulo 66857" width="0.337" height="1.391" transform="translate(252.775 222.394) rotate(119.797)" fill="#707070"/>
      <rect id="Rectángulo_66858" data-name="Rectángulo 66858" width="0.338" height="1.392" transform="translate(254.613 215.531) rotate(90)" fill="#707070"/>
      <rect id="Rectángulo_66859" data-name="Rectángulo 66859" width="0.338" height="1.392" transform="translate(252.774 208.665) rotate(60.012)" fill="#707070"/>
      <path id="Trazado_200377" data-name="Trazado 200377" d="M230.62,201.527l-.292-.169.695-1.206.292.169Z" transform="translate(16.725 3.486)" fill="#707070"/>
      <path id="Trazado_200378" data-name="Trazado 200378" d="M223.841,205.682l-.291.167-1.392-2.409.292-.169Z" transform="translate(14.291 4.415)" fill="#707070"/>
      <path id="Trazado_200379" data-name="Trazado 200379" d="M222.238,207.068l-.169.292-2.41-1.392.167-.292Z" transform="translate(13.547 5.131)" fill="#707070"/>
      <rect id="Rectángulo_66860" data-name="Rectángulo 66860" width="0.338" height="2.783" transform="translate(232.018 215.531) rotate(-90)" fill="#707070"/>
      <rect id="Rectángulo_66861" data-name="Rectángulo 66861" width="0.337" height="2.783" transform="translate(233.206 219.962) rotate(-119.988)" fill="#707070"/>
      <rect id="Rectángulo_66862" data-name="Rectángulo 66862" width="0.337" height="2.783" transform="translate(236.449 223.206) rotate(-149.936)" fill="#707070"/>
      <rect id="Rectángulo_66863" data-name="Rectángulo 66863" width="0.338" height="2.782" transform="translate(240.882 224.394) rotate(180)" fill="#707070"/>
      <rect id="Rectángulo_66864" data-name="Rectángulo 66864" width="0.337" height="2.783" transform="translate(245.315 223.206) rotate(149.957)" fill="#707070"/>
      <rect id="Rectángulo_66865" data-name="Rectángulo 66865" width="0.337" height="2.785" transform="matrix(-0.5, 0.866, -0.866, -0.5, 248.558, 219.963)" fill="#707070"/>
      <rect id="Rectángulo_66866" data-name="Rectángulo 66866" width="0.338" height="2.783" transform="translate(249.745 215.531) rotate(90)" fill="#707070"/>
      <path id="Trazado_200380" data-name="Trazado 200380" d="M229.8,207.585l-.17-.292,2.412-1.392.167.292Z" transform="translate(16.517 5.198)" fill="#707070"/>
      <rect id="Rectángulo_66867" data-name="Rectángulo 66867" width="0.337" height="2.782" transform="matrix(0.866, 0.5, -0.5, 0.866, 245.314, 207.856)" fill="#707070"/>
      <path id="Trazado_200381" data-name="Trazado 200381" d="M209.232,209.115c.936,0,2.122,8.176,3.62,8.426s-.282-11.311,1.966-12.309,1.168,12.268,2.2,12.233,1.559-13.265,3.851-13.713-1.391,12.961-.269,13.211,1.286-5.518,3.563-7.228c1.894-1.421,3.766-2.127,4.093-1.281s-1.779,2.135-3.151,4.382-1.481,9.536,1.23,9.447c.558-.017,2.193-6.827,5.058-8.013,1.059-.439,1.829-.275,1.217,2.147-.866,3.422-3.788,9.487-3.721,10.736s1.895,11.949,1.86,12.7-12.563.248-13.731,0c-.563-.122.148-4.175-1.93-8.808-2.353-5.242-4.533-11.6-5.311-12.637C208.278,216.409,207.4,209.115,209.232,209.115Z" transform="translate(10.134 4.555)" fill="#2b2b2b"/>
      <g id="Grupo_878706" data-name="Grupo 878706" transform="translate(192.849 194.595)">
        <rect id="Rectángulo_66868" data-name="Rectángulo 66868" width="7.231" height="4.641" transform="translate(0 1.035)" fill="#ffc931"/>
        <rect id="Rectángulo_66869" data-name="Rectángulo 66869" width="2.66" height="5.677" fill="#ffc931"/>
      </g>
      <g id="Grupo_878707" data-name="Grupo 878707" transform="translate(192.849 205.581)">
        <rect id="Rectángulo_66870" data-name="Rectángulo 66870" width="7.231" height="4.642" transform="translate(0 1.036)" fill="#ffc931"/>
        <rect id="Rectángulo_66871" data-name="Rectángulo 66871" width="2.66" height="5.678" fill="#ffc931"/>
      </g>
      <rect id="Rectángulo_66872" data-name="Rectángulo 66872" width="7.231" height="1.527" transform="translate(192.849 201.036)" fill="#69afb5"/>
      <rect id="Rectángulo_66873" data-name="Rectángulo 66873" width="7.231" height="1.527" transform="translate(192.849 211.99)" fill="#69afb5"/>
      <path id="Trazado_200382" data-name="Trazado 200382" d="M265.145,241.262s-2.67-6.288-7.456-7.267a72.553,72.553,0,0,0-11.224-1.055s9.954-3.826,13.773-1.125S265.145,241.262,265.145,241.262Z" transform="translate(21.531 12.629)" fill="#232222"/>
      <path id="Trazado_200383" data-name="Trazado 200383" d="M249.692,255.838s1.154,15.953,5.276,19.9a21.991,21.991,0,0,0,8.964,5.124s-8.6.793-12.547-5.661S249.692,255.838,249.692,255.838Z" transform="translate(22.301 20.071)" fill="#232222"/>
      <path id="Trazado_200384" data-name="Trazado 200384" d="M228.012,266.786s5.957-5.874,8.994-11.019,1.551-16.11,1.551-16.11,4.758,7.574,3.248,14.932S228.012,266.786,228.012,266.786Z" transform="translate(16.035 15.252)" fill="#232222"/>
      <path id="Trazado_200385" data-name="Trazado 200385" d="M227.175,271.7s1.407-2.969,2.559-5.88,9.812-7.871,9.812-7.871a36.714,36.714,0,0,0-4.837,8.984A6.908,6.908,0,0,1,227.175,271.7Z" transform="translate(15.785 20.699)" fill="#232222"/>
      <path id="Trazado_200386" data-name="Trazado 200386" d="M263.722,213.985c-.478-7.269-5.077-14.576-11.06-18.771-8.289,2.641-15.3,6.6-15.911,8.711-.909,3.145,12.751,19.712,12.267,30.25-.274,5.964-4,7.533-6.689,8.4a55.633,55.633,0,0,0,7.043-1.11C259.047,239.2,264.489,225.643,263.722,213.985Z" transform="translate(18.624 2.015)" fill="#232222"/>
      <path id="Trazado_200387" data-name="Trazado 200387" d="M269.554,239.286s-5.245-7.124-10.294-9.18a12.334,12.334,0,0,0-9.468.143s6.018-5.913,12.717-2.969S269.554,239.286,269.554,239.286Z" transform="translate(22.522 11.321)" fill="#232222"/>
      <path id="Trazado_200388" data-name="Trazado 200388" d="M237.79,235.48c-2.018,1.689-4.265,4.689-7.483,9.286-6.794,9.7-15.252,26.854-15.287,30.279-.061,5.661-.363,9.479.358,11.678.9.75,1.605,1.165,2,1.115,2.94-.374,16.994-25.5,21.582-34.377C242.587,246.445,240.009,238.836,237.79,235.48Z" transform="translate(12.131 14.008)" fill="#1e1e1e"/>
      <path id="Trazado_200389" data-name="Trazado 200389" d="M229.37,214.27c-2.864,1.186-4.5,8-5.058,8.013-2.711.09-2.6-7.2-1.23-9.447s3.477-3.534,3.151-4.382-2.2-.14-4.093,1.281c-2.276,1.709-2.439,7.478-3.563,7.228s2.562-13.658.269-13.211S216.025,217.43,215,217.465l-.01,0c.125,1.6,1.151,6.718,1.878,7.96,3.329,5.685,4.714,6.182,6.271,9.88a22.732,22.732,0,0,1,1.167,4.942c2.444,0,4.411-.1,4.426-.393.035-.75-1.794-11.451-1.86-12.7s2.855-7.313,3.721-10.736C231.2,214,230.429,213.832,229.37,214.27Z" transform="translate(12.155 4.555)" fill="#111010"/>
      <path id="Trazado_200390" data-name="Trazado 200390" d="M248.71,293.521c-.3,1.351,28.648,3.2,31.652,2.828,23-2.828,24.663-6.4,24.663-7.189,0-1.28,2.173-25.208-12.458-44.974-1.054-1.424-8.266-6.662-9.849-7.312-3.346-1.648-4.655-6.633-4.655-6.633a72.912,72.912,0,0,1-.846-9.207s-2.6,10.557,1.805,20.318,11.512,20.784,10.788,30.981-7.721,22.768-21.522,21.188a126.18,126.18,0,0,1-21.163-4.734C248.217,291.239,248.836,292.95,248.71,293.521Z" transform="translate(21.727 9.705)" fill="#232222"/>
      <path id="Trazado_200391" data-name="Trazado 200391" d="M269.854,242.419s6.614,11.032,8.914,19.247a119.226,119.226,0,0,1,3.163,18.852s3.451-15.029-1.726-25.2S269.854,242.419,269.854,242.419Z" transform="translate(28.497 16.074)" fill="#232222"/>
      <path id="Trazado_200392" data-name="Trazado 200392" d="M239.631,259.4s1.079-5.843,6.257-5.313c5.971.609,4,16.229,4,16.229s-2.258-7.884-4.48-10.254A4.126,4.126,0,0,0,239.631,259.4Z" transform="translate(19.495 19.54)" fill="#232222"/>
      <path id="Trazado_200393" data-name="Trazado 200393" d="M275.463,238.539s-2.291-13.486.575-20.868c4.213-10.845-2.588-24.114-13.165-24.482a37.2,37.2,0,0,0-7.023.492c4.139,1.274,13.261,5.346,13.561,16.562.389,14.522,1.935,30.14,8.365,32.94A14.486,14.486,0,0,1,275.463,238.539Z" transform="translate(24.326 1.407)" fill="#232222"/>
      <path id="Trazado_200394" data-name="Trazado 200394" d="M237.374,201.166a2.764,2.764,0,0,0-.624.986c-.909,3.145,12.751,19.712,12.267,30.25a8.531,8.531,0,0,1-2.418,6.069c.009-.008.021-.008.03-.014,6.934-3.5,2.981-14.711-1.886-24.321C241.9,208.526,239.167,203.985,237.374,201.166Z" transform="translate(18.624 3.788)" fill="#5c7e7f"/>
    </g>
  </g>
</svg>
