<svg xmlns="http://www.w3.org/2000/svg" xmlns:xlink="http://www.w3.org/1999/xlink" width="85" height="85" viewBox="0 0 85 85">
  <defs>
    <clipPath id="clip-path">
      <rect id="Rect치ngulo_66935" data-name="Rect치ngulo 66935" width="85" height="85" transform="translate(1205 7789)" fill="#fff" stroke="#707070" stroke-width="1"/>
    </clipPath>
  </defs>
  <g id="Enmascarar_grupo_72" data-name="Enmascarar grupo 72" transform="translate(-1205 -7789)" clip-path="url(#clip-path)">
    <g id="contrasena_2_" data-name="contrasena (2)" transform="translate(1205 7789)">
      <g id="Grupo_878770" data-name="Grupo 878770">
        <path id="Trazado_200766" data-name="Trazado 200766" d="M4.482,7.026H80.518a3.32,3.32,0,0,1,3.32,3.32V47.312H1.162V10.346a3.32,3.32,0,0,1,3.32-3.32Z" fill="#f4d844"/>
        <path id="Trazado_200767" data-name="Trazado 200767" d="M11.123,16.987H73.877V37.352H11.123Z" fill="#607880"/>
        <path id="Trazado_200768" data-name="Trazado 200768" d="M1.162,47.312H83.838V55.5a3.32,3.32,0,0,1-3.32,3.32H4.482a3.32,3.32,0,0,1-3.32-3.32Z" fill="#607880"/>
        <path id="Trazado_200769" data-name="Trazado 200769" d="M56.258,73.047H28.742a11.568,11.568,0,0,0,6.646-10.468V58.823H49.612v3.756a11.568,11.568,0,0,0,6.646,10.468Z" fill="#4a6268"/>
        <rect id="Rect치ngulo_66938" data-name="Rect치ngulo 66938" width="42.583" height="4.927" rx="2.464" transform="translate(21.208 73.047)" fill="#607880"/>
        <path id="Trazado_200770" data-name="Trazado 200770" d="M46.4,54.229H38.6a1.162,1.162,0,0,1,0-2.324h7.8a1.162,1.162,0,0,1,0,2.324Z" fill="#94e0da"/>
        <g id="Grupo_878769" data-name="Grupo 878769">
          <path id="Trazado_200771" data-name="Trazado 200771" d="M48.034,26.007H45.306l1.929-1.926a1.162,1.162,0,0,0-1.644-1.644l-1.929,1.926V21.635a1.162,1.162,0,0,0-2.324,0v2.728l-1.929-1.929a1.162,1.162,0,0,0-1.644,1.644L39.694,26H36.966a1.162,1.162,0,0,0,0,2.324h2.728L37.765,30.26A1.162,1.162,0,0,0,39.409,31.9l1.929-1.929V32.7a1.162,1.162,0,0,0,2.324,0V29.974L45.591,31.9a1.162,1.162,0,0,0,1.644-1.644l-1.929-1.929h2.728a1.162,1.162,0,1,0,0-2.324Z" fill="#afdb35"/>
          <path id="Trazado_200772" data-name="Trazado 200772" d="M66.627,26.007H63.9l1.929-1.926a1.162,1.162,0,0,0-1.644-1.644l-1.929,1.926V21.635a1.162,1.162,0,0,0-2.324,0v2.728L58,22.434a1.162,1.162,0,0,0-1.644,1.644L58.288,26H55.56a1.162,1.162,0,0,0,0,2.324h2.728L56.359,30.26A1.162,1.162,0,0,0,58,31.9l1.929-1.929V32.7a1.162,1.162,0,0,0,2.324,0V29.974L64.185,31.9a1.162,1.162,0,0,0,1.644-1.644L63.9,28.331h2.728a1.162,1.162,0,1,0,0-2.324Z" fill="#afdb35"/>
          <path id="Trazado_200773" data-name="Trazado 200773" d="M29.44,26.007H26.712l1.929-1.926A1.162,1.162,0,0,0,27,22.437l-1.929,1.926V21.635a1.162,1.162,0,0,0-2.324,0v2.728l-1.929-1.929a1.162,1.162,0,1,0-1.644,1.644L21.1,26H18.373a1.162,1.162,0,0,0,0,2.324H21.1l-1.926,1.929A1.162,1.162,0,0,0,20.818,31.9l1.929-1.929V32.7a1.162,1.162,0,1,0,2.324,0V29.974L27,31.9a1.162,1.162,0,0,0,1.644-1.644l-1.929-1.929h2.728a1.162,1.162,0,1,0,0-2.324Z" fill="#afdb35"/>
        </g>
      </g>
      <g id="Grupo_878771" data-name="Grupo 878771">
        <path id="Trazado_200774" data-name="Trazado 200774" d="M80.518,5.864H4.482A4.487,4.487,0,0,0,0,10.346V55.5a4.488,4.488,0,0,0,4.482,4.482H34.226v2.594a10.445,10.445,0,0,1-5.764,9.306h-4.79a3.626,3.626,0,0,0,0,7.252H61.328a3.626,3.626,0,0,0,0-7.252H56.551a10.426,10.426,0,0,1-3.77-3.164A1.162,1.162,0,0,0,50.9,70.093,12.718,12.718,0,0,0,52.5,71.886h-20a12.783,12.783,0,0,0,4.051-9.306v-2.6h11.9v2.594a1.162,1.162,0,0,0,2.324,0V59.985H80.518A4.488,4.488,0,0,0,85,55.5V10.346a4.487,4.487,0,0,0-4.482-4.482ZM56.258,74.209h5.07a1.3,1.3,0,1,1,0,2.6H23.672a1.3,1.3,0,1,1,0-2.6ZM2.324,10.346A2.161,2.161,0,0,1,4.482,8.188H80.518a2.161,2.161,0,0,1,2.158,2.158V46.152H2.324ZM82.676,55.5a2.161,2.161,0,0,1-2.158,2.158H4.482A2.161,2.161,0,0,1,2.324,55.5V48.477H82.676Z"/>
        <path id="Trazado_200775" data-name="Trazado 200775" d="M73.877,15.825H39.18a1.162,1.162,0,0,0,0,2.324H72.715V36.191H12.285V18.149h9.629a1.162,1.162,0,1,0,0-2.324H11.123a1.163,1.163,0,0,0-1.162,1.162V37.352a1.163,1.163,0,0,0,1.162,1.164H73.877a1.162,1.162,0,0,0,1.162-1.162V16.987a1.162,1.162,0,0,0-1.162-1.162Z"/>
        <path id="Trazado_200776" data-name="Trazado 200776" d="M29.219,18.149h2.656a1.162,1.162,0,1,0,0-2.324H29.219a1.162,1.162,0,0,0,0,2.324Z"/>
        <path id="Trazado_200777" data-name="Trazado 200777" d="M38.6,54.229h7.8a1.162,1.162,0,0,0,0-2.324H38.6a1.162,1.162,0,0,0,0,2.324Z"/>
        <path id="Trazado_200778" data-name="Trazado 200778" d="M36.966,28.331h2.728L37.765,30.26A1.162,1.162,0,0,0,39.409,31.9l1.929-1.929V32.7a1.162,1.162,0,1,0,2.324,0V29.974L45.591,31.9a1.162,1.162,0,0,0,1.644-1.644l-1.929-1.929h2.728a1.162,1.162,0,1,0,0-2.324H45.306l1.929-1.926a1.162,1.162,0,0,0-1.644-1.644l-1.929,1.926V21.635a1.162,1.162,0,0,0-2.324,0v2.728l-1.929-1.929a1.162,1.162,0,0,0-1.644,1.644L39.694,26H36.966a1.162,1.162,0,0,0,0,2.324Z"/>
        <path id="Trazado_200779" data-name="Trazado 200779" d="M54.4,27.169a1.162,1.162,0,0,0,1.162,1.162h2.728L56.359,30.26A1.162,1.162,0,0,0,58,31.9l1.929-1.929V32.7a1.162,1.162,0,1,0,2.324,0V29.974L64.185,31.9a1.162,1.162,0,0,0,1.644-1.644L63.9,28.331h2.728a1.162,1.162,0,1,0,0-2.324H63.9l1.929-1.926a1.162,1.162,0,0,0-1.644-1.644l-1.929,1.926V21.635a1.162,1.162,0,0,0-2.324,0v2.728L58,22.434a1.162,1.162,0,0,0-1.644,1.644L58.288,26H55.56A1.162,1.162,0,0,0,54.4,27.169Z"/>
        <path id="Trazado_200780" data-name="Trazado 200780" d="M22.744,24.363l-1.929-1.929a1.162,1.162,0,1,0-1.644,1.644L21.1,26H18.373a1.162,1.162,0,0,0,0,2.324H21.1l-1.926,1.929A1.162,1.162,0,0,0,20.818,31.9l1.929-1.929V32.7a1.162,1.162,0,0,0,2.324,0V29.974L27,31.9a1.162,1.162,0,0,0,1.644-1.644l-1.929-1.929h2.728a1.162,1.162,0,1,0,0-2.324H26.712l1.929-1.926A1.162,1.162,0,1,0,27,22.437l-1.929,1.926V21.635a1.162,1.162,0,0,0-2.324,0Z"/>
      </g>
    </g>
  </g>
</svg>
