<svg id="seguro" xmlns="http://www.w3.org/2000/svg" xmlns:xlink="http://www.w3.org/1999/xlink" width="195" height="195" viewBox="0 0 195 195">
  <defs>
    <linearGradient id="linear-gradient" x1="-0.023" y1="0.906" x2="0.239" y2="1.178" gradientUnits="objectBoundingBox">
      <stop offset="0" stop-color="#dbeefb"/>
      <stop offset="1" stop-color="#299ae6"/>
    </linearGradient>
    <linearGradient id="linear-gradient-2" x1="-0.41" y1="0.885" x2="0.081" y2="1.208" gradientUnits="objectBoundingBox">
      <stop offset="0" stop-color="#299ae6"/>
      <stop offset="1" stop-color="#94ccf3"/>
    </linearGradient>
    <linearGradient id="linear-gradient-3" x1="-1.015" y1="7.222" x2="-0.747" y2="7.632" gradientUnits="objectBoundingBox">
      <stop offset="0" stop-color="#299ae6"/>
      <stop offset="1" stop-color="#70bcee"/>
    </linearGradient>
    <linearGradient id="linear-gradient-4" x1="-0.327" y1="0.909" x2="-0.052" y2="1.157" gradientUnits="objectBoundingBox">
      <stop offset="0" stop-color="#4dabea"/>
      <stop offset="1" stop-color="#94ccf3"/>
    </linearGradient>
    <linearGradient id="linear-gradient-5" x1="-7.955" y1="27.375" x2="-7.675" y2="27.656" gradientUnits="objectBoundingBox">
      <stop offset="0" stop-color="#003f32"/>
      <stop offset="1" stop-color="#00616a"/>
    </linearGradient>
    <linearGradient id="linear-gradient-6" x1="-0.944" y1="65.015" x2="-0.742" y2="69.193" xlink:href="#linear-gradient-5"/>
    <linearGradient id="linear-gradient-7" x1="-0.405" y1="50.945" x2="-0.204" y2="57.888" xlink:href="#linear-gradient-5"/>
    <linearGradient id="linear-gradient-8" x1="-0.405" y1="45.462" x2="-0.204" y2="52.409" xlink:href="#linear-gradient-5"/>
    <linearGradient id="linear-gradient-9" x1="-1.492" y1="41.928" x2="-1.289" y2="44.939" xlink:href="#linear-gradient-5"/>
    <linearGradient id="linear-gradient-10" x1="-0.405" y1="56.501" x2="-0.204" y2="63.449" xlink:href="#linear-gradient-5"/>
  </defs>
  <g id="Icon_24" transform="translate(0 0)">
    <path id="Contour_19_" d="M107.148,184.925a2.738,2.738,0,0,0-2.882-1.412c-5.677.961-22,1.46-23.256-23.947-1.537-30.806,35.811-83.418,90.651-72.957,44.043,8.405,11.152,50.306,38.135,60.882,15.8,6.186,30.076,37.914-5,65.474C185.821,227.863,137.147,241.033,107.148,184.925Z" transform="translate(-55.075 -57.992)" fill="url(#linear-gradient)"/>
    <path id="Contour-2_19_" d="M2.882,270.415a2.882,2.882,0,1,1,2.882-2.882A2.882,2.882,0,0,1,2.882,270.415Zm0-3.842a.956.956,0,1,1,0,.01Z" transform="translate(0 -180.023)" fill="#12263f"/>
    <path id="Contour-3_19_" d="M497.248,68.547a2.882,2.882,0,1,1,2.882-2.882,2.882,2.882,0,0,1-2.882,2.882Zm0-3.842a.951.951,0,1,1,0,.019Z" transform="translate(-336.281 -42.707)" fill="#12263f"/>
    <path id="Contour-4_19_" d="M395.683,597.549a2.882,2.882,0,1,1,2.882-2.882A2.882,2.882,0,0,1,395.683,597.549Zm0-3.842a.961.961,0,1,0,.961.961A.961.961,0,0,0,395.683,593.706Z" transform="translate(-267.194 -402.549)" fill="#12263f"/>
    <g id="Group_19_" transform="translate(53.649)">
      <path id="Contour-5_19_" d="M170.732,8.831a.961.961,0,0,0-.961-.961h-1.037a.961.961,0,1,0,0,1.921h1.037A.961.961,0,0,0,170.732,8.831Z" transform="translate(-167.773 -5.353)" fill="#12263f"/>
      <path id="Contour-6_19_" d="M176.814,2.882a.961.961,0,0,0,.961-.961V.884a.964.964,0,0,0-1.921,0V1.921A.961.961,0,0,0,176.814,2.882Z" transform="translate(-173.269 0)" fill="#12263f"/>
      <path id="Contour-7_19_" d="M182.718,7.87h-1.037a.961.961,0,1,0,0,1.921h1.037a.961.961,0,0,0,0-1.921Z" transform="translate(-176.58 -5.353)" fill="#12263f"/>
      <path id="Contour-8_19_" d="M176.814,12.737a.961.961,0,0,0-.961.961v1.037a.964.964,0,0,0,1.921,0V13.7a.961.961,0,0,0-.961-.961Z" transform="translate(-173.269 -8.664)" fill="#12263f"/>
    </g>
    <g id="Group-2_19_" transform="translate(187.901 114.848)">
      <path id="Contour-9_19_" d="M590.569,367.988a.961.961,0,0,0-.961-.961H588.57a.961.961,0,0,0,0,1.921h1.037A.961.961,0,0,0,590.569,367.988Z" transform="translate(-587.61 -364.51)" fill="#12263f"/>
      <path id="Contour-10_19_" d="M596.651,362.038a.961.961,0,0,0,.961-.961V360.04a.964.964,0,0,0-1.921,0v1.037A.961.961,0,0,0,596.651,362.038Z" transform="translate(-593.106 -359.156)" fill="#12263f"/>
      <path id="Contour-11_19_" d="M602.555,367.027h-1.037a.961.961,0,0,0,0,1.921h1.037a.961.961,0,1,0,0-1.921Z" transform="translate(-596.417 -364.51)" fill="#12263f"/>
      <path id="Contour-12_19_" d="M596.651,371.893a.961.961,0,0,0-.961.961v1.037a.964.964,0,0,0,1.921,0v-1.037A.961.961,0,0,0,596.651,371.893Z" transform="translate(-593.106 -367.82)" fill="#12263f"/>
    </g>
    <g id="Group-3_19_" transform="translate(13.727 173.934)">
      <path id="Contour-13_19_" d="M45.886,552.853a.961.961,0,0,0-.961-.961H43.888a.961.961,0,0,0,0,1.921h1.037A.961.961,0,0,0,45.886,552.853Z" transform="translate(-42.927 -549.347)" fill="#12263f"/>
      <path id="Contour-14_19_" d="M52.028,546.843a.961.961,0,0,0,.961-.961v-1.057a.963.963,0,0,0-1.921,0v1.028a.961.961,0,0,0,.931.989h.029Z" transform="translate(-48.464 -543.932)" fill="#12263f"/>
      <path id="Contour-15_19_" d="M57.872,551.892H56.835a.961.961,0,0,0,0,1.921h1.037a.961.961,0,0,0,0-1.921Z" transform="translate(-51.734 -549.347)" fill="#12263f"/>
      <path id="Contour-16_19_" d="M52.029,556.759a.961.961,0,0,0-.961.961v1.037a.964.964,0,0,0,1.921,0V557.72A.961.961,0,0,0,52.029,556.759Z" transform="translate(-48.465 -552.657)" fill="#12263f"/>
    </g>
    <path id="Contour-17_19_" d="M191.345,109.856h24.591a1.249,1.249,0,0,1,1.249,1.249V239.43a1.249,1.249,0,0,1-1.249,1.249H119.666a1.249,1.249,0,0,1-1.249-1.249V111.1a1.249,1.249,0,0,1,1.249-1.249Z" transform="translate(-80.551 -74.727)" fill="#fff"/>
    <path id="Contour-18_19_" d="M223.771,109.161l20.316-.326c.605,0,1.652,1.412,1.652,2.085l.826,126.942c0,.682-.711,2.248-1.316,2.248H169.056l-7.733-.961a1.172,1.172,0,0,1-1.1-1.239V111.275a1.162,1.162,0,0,1,1.091-1.229h0l20.893-1.21Z" transform="translate(-108.99 -74.033)" fill="url(#linear-gradient-2)"/>
    <path id="Contour-19_19_" d="M206.2,131.725h18.943a.471.471,0,0,1,.471.471V248.571H140.736a.48.48,0,0,1-.48-.48V132.2a.471.471,0,0,1,.471-.471H206.2Z" transform="translate(-95.406 -89.603)" fill="#fff"/>
    <path id="Contour-20_19_" d="M231.422,78.6h13.151a2.882,2.882,0,0,1,2.882,2.882v7.858a2.882,2.882,0,0,1-2.882,2.882H203.728a2.882,2.882,0,0,1-2.882-2.882V81.435a2.882,2.882,0,0,1,2.882-2.882h13.448c3.766.1,1.316-2.085,1.316-2.085a4.014,4.014,0,0,1-1.316-2.882c0-2.738,3.18-4.947,7.1-4.947s7.1,2.209,7.1,4.947a4.045,4.045,0,0,1-1.4,2.949S227.8,78.631,231.422,78.6Z" transform="translate(-136.621 -46.691)" fill="#fff"/>
    <path id="Contour-21_19_" d="M229.691,78.785,234.9,80.14a2.334,2.334,0,0,1,2.209,2.43v6.724a2.334,2.334,0,0,1-2.209,2.44l-31.133,1.258c-1.21,0-2.766-2.354-2.766-3.7V82.57c0-1.335,1.21-3.257,2.43-3.257l10.2-.086a19.156,19.156,0,0,0,5.764-.893c-.644-.692-2.1-3.218-2.1-4.13a4.986,4.986,0,0,1,5.11-4.755c3.045,0,5.207,0,7.147,1.355,1.546,1.047,2.411,3.9,1.729,4.6C231.314,75.4,226.876,78.814,229.691,78.785Z" transform="translate(-136.724 -47.24)" fill="url(#linear-gradient-3)"/>
    <path id="Contour-22_19_" d="M141.169,195.77s1.306,82.966,44.629,86.885c0,0,33.621,2.363,41.305-24.745l-1.508,34.226-85.339-.471Z" transform="translate(-95.406 -133.168)" fill="url(#linear-gradient-4)"/>
    <path id="Contour-23_19_" d="M336.489,302.19a1.249,1.249,0,0,0-1.595,0,72.711,72.711,0,0,1-15.1,9.433,70.5,70.5,0,0,1-16.647,4.64,1.268,1.268,0,0,0-1.066,1.268c.1,7.416,2.008,49.951,33.621,61.276,31.6-11.316,33.515-53.86,33.621-61.276a1.268,1.268,0,0,0-1.066-1.268,70.5,70.5,0,0,1-16.647-4.64A72.709,72.709,0,0,1,336.489,302.19Z" transform="translate(-205.484 -205.363)" fill="#fff"/>
    <path id="Contour-24_19_" d="M381.513,364.173s-5.821,37.405-33.678,43.006a58.711,58.711,0,0,1-27.55-15.763s7.685,23.554,27.732,29.779C348.017,421.165,376.748,415.1,381.513,364.173Z" transform="translate(-217.867 -247.721)" fill="#299ae6"/>
    <path id="Contour-25_19_" d="M346.543,319.144a1.268,1.268,0,0,0-1.595,0,62.634,62.634,0,0,1-12.862,8.03,60.363,60.363,0,0,1-14.159,3.958,1.277,1.277,0,0,0-1.066,1.277c.106,6.724,1.921,42.448,28.424,52.343a1.383,1.383,0,0,0,.961,0c26.5-9.894,28.318-45.57,28.424-52.343a1.277,1.277,0,0,0-1.066-1.277,60.4,60.4,0,0,1-14.159-3.958,62.618,62.618,0,0,1-12.9-8.03Z" transform="translate(-215.537 -216.899)" fill="#fff"/>
    <path id="Contour-26_19_" d="M399.266,385.631a.74.74,0,0,1-.211.509l-17.175,17.175a.73.73,0,0,1-1.018,0l-10.048-10.038a.73.73,0,0,1,0-1.028l2.882-2.882a.74.74,0,0,1,1.018,0L381,395.621a.49.49,0,0,0,.682,0l13.391-13.371a.72.72,0,0,1,1.019-.009l.009.009,2.882,2.882a.7.7,0,0,1,.288.5Z" transform="translate(-252.093 -259.87)" fill="#299ae6"/>
    <circle id="Contour-27_19_" cx="2.257" cy="2.257" r="2.257" transform="translate(85.714 25.129)" fill="#fff"/>
    <g id="Group-4_16_" transform="translate(36.906 21.056)">
      <path id="Contour-28_18_" d="M371.591,328.26a60.372,60.372,0,0,1-13.909-3.842,55.868,55.868,0,0,1-6.676-3.631c-.682-.432-1.326-.855-1.921-1.258-1.844-1.258-3.257-2.354-4.063-3.006a2.132,2.132,0,0,0-.442-.279,2.21,2.21,0,0,0-1.921,0,1.761,1.761,0,0,0-.442.269,61.919,61.919,0,0,1-12.651,7.9,60.133,60.133,0,0,1-13.909,3.842,2.228,2.228,0,0,0-1.921,2.228c.086,5.447,1.239,27.761,13.832,42.487.557.653,1.143,1.3,1.758,1.921a37.3,37.3,0,0,0,6.09,5.062,34.381,34.381,0,0,0,3.276,1.921,36.048,36.048,0,0,0,4.092,1.844,2.278,2.278,0,0,0,1.595,0,35.236,35.236,0,0,0,4.092-1.844c.788-.4,1.556-.836,2.3-1.3,20.97-12.872,22.6-43.611,22.7-50.085A2.228,2.228,0,0,0,371.591,328.26Zm-20.585,49.9c-.624.423-1.268.826-1.921,1.21-.346.2-.682.4-1.037.586a33.639,33.639,0,0,1-4.207,1.921h-.1a.376.376,0,0,1-.25,0h-.1a33.594,33.594,0,0,1-4.207-1.921,34.425,34.425,0,0,1-7.079-5.062c-.672-.625-1.316-1.268-1.921-1.921-13.227-14.159-14.409-37.06-14.486-42.516a.307.307,0,0,1,.259-.307,61.466,61.466,0,0,0,14.409-4.035,63.044,63.044,0,0,0,12.305-7.541l.768-.615a.308.308,0,0,1,.384,0c.211.173.471.384.768.6,1.057.826,2.6,1.979,4.505,3.218.605.394,1.249.807,1.921,1.21a55.024,55.024,0,0,0,5.879,3.122,61.467,61.467,0,0,0,14.409,4.035.3.3,0,0,1,.259.307c-.126,6.187-1.586,34.879-20.567,47.7Z" transform="translate(-250.317 -236.025)" fill="#12263f"/>
      <path id="Contour-29_17_" d="M241.4,154.75a69.919,69.919,0,0,1-16.4-4.572,66.469,66.469,0,0,1-8.9-4.947V81.169a2.209,2.209,0,0,0-2.209-2.209H190.2a3.842,3.842,0,0,0-3.746-3.218H173.3a4.4,4.4,0,0,1-.961-.077,3.068,3.068,0,0,1,.24-.259,4.966,4.966,0,0,0,1.7-3.65c0-3.257-3.612-5.908-8.059-5.908s-8.059,2.651-8.059,5.908a4.947,4.947,0,0,0,1.633,3.573,2.738,2.738,0,0,1,.317.355,4.807,4.807,0,0,1-.961.058H145.7a3.785,3.785,0,0,0-3.794,3.218H117.622a2.209,2.209,0,0,0-2.209,2.209V209.494a2.209,2.209,0,0,0,2.209,2.209H195.43a42.109,42.109,0,0,0,12.488,7.272,2.278,2.278,0,0,0,1.595,0c31.555-11.719,33.669-53.707,33.774-62.006A2.21,2.21,0,0,0,241.4,154.75ZM214.181,81.169v62.765c-1.816-1.277-3.218-2.373-4.054-3.064a2.413,2.413,0,0,0-.452-.269V87.384a1.431,1.431,0,0,0-1.431-1.431H190.262V80.881h23.631A.288.288,0,0,1,214.181,81.169Zm-70.44-1.633a1.921,1.921,0,0,1,1.921-1.921h13.448c1.066,0,2.526-.067,2.978-1.2s-.653-2.257-.961-2.536a3.073,3.073,0,0,1-1.028-2.171c0-2.161,2.815-3.987,6.138-3.987s6.138,1.825,6.138,3.987a3.14,3.14,0,0,1-1.086,2.238c-.231.211-1.335,1.3-.884,2.44s1.921,1.23,2.939,1.23h13.141a1.921,1.921,0,0,1,1.921,1.921v7.858a1.921,1.921,0,0,1-1.921,1.921H145.614a1.921,1.921,0,0,1-1.921-1.921ZM145.662,91.2h40.844a3.842,3.842,0,0,0,3.756-3.324H207.8V140.6a2.092,2.092,0,0,0-.442.269,71.459,71.459,0,0,1-14.889,9.308,69.787,69.787,0,0,1-16.4,4.572,2.209,2.209,0,0,0-1.921,2.219c.077,5.908,1.182,28.818,13.16,45.83h-63V87.874h17.588a3.843,3.843,0,0,0,3.708,3.324Zm-28.04,118.585a.278.278,0,0,1-.288-.269c0-.006,0-.013,0-.02V81.169a.278.278,0,0,1,.269-.288h24.217v5.072H123.837a1.441,1.441,0,0,0-1.441,1.431v115.9a1.441,1.441,0,0,0,1.441,1.441h64.9a46.116,46.116,0,0,0,4.553,5.062Zm91.256,7.387a.376.376,0,0,1-.25,0,40.2,40.2,0,0,1-10.077-5.466c-.826-.615-1.614-1.258-2.373-1.921a43.132,43.132,0,0,1-4.947-5.062c-.519-.634-1.028-1.277-1.518-1.921C177.3,186.219,176.18,162.848,176.1,156.95a.307.307,0,0,1,.259-.307,71.62,71.62,0,0,0,16.9-4.707,73.111,73.111,0,0,0,14.534-8.962c.288-.221.547-.432.768-.615a.308.308,0,0,1,.384,0c.221.183.48.394.768.615,1.066.845,2.613,2.008,4.505,3.285.605.413,1.249.826,1.921,1.258a68.114,68.114,0,0,0,8.108,4.419,71.635,71.635,0,0,0,16.9,4.707.307.307,0,0,1,.259.307c-.144,8.079-2.181,48.942-32.564,60.219Z" transform="translate(-115.413 -65.848)" fill="#12263f"/>
      <path id="Contour-30_16_" d="M394.854,379.413a1.729,1.729,0,0,0-2.382,0l-13.064,13.035-5.937-5.917a1.738,1.738,0,0,0-2.382,0l-2.882,2.882a1.671,1.671,0,0,0-.49,1.191,1.7,1.7,0,0,0,.49,1.191l10.009,10.057a1.69,1.69,0,0,0,2.382,0l17.166-17.166a1.672,1.672,0,0,0,.019-2.364l-.019-.019Zm-15.446,20.941-9.711-9.7,2.584-2.584,6.119,6.08a1.45,1.45,0,0,0,2.036,0l13.227-13.208,2.574,2.584Z" transform="translate(-287.037 -278.82)" fill="#12263f"/>
      <path id="Contour-31_14_" d="M268.26,82.017a3.218,3.218,0,1,0-3.218-3.218A3.218,3.218,0,0,0,268.26,82.017Zm0-4.515a1.3,1.3,0,1,1-1.3,1.3A1.3,1.3,0,0,1,268.26,77.5Z" transform="translate(-217.195 -72.469)" fill="url(#linear-gradient-5)"/>
      <path id="Contour-32_14_" d="M212.862,187.357h37.771a.961.961,0,0,0,0-1.921H212.862a.961.961,0,1,0,0,1.921Z" transform="translate(-181.047 -147.195)" fill="url(#linear-gradient-6)"/>
      <path id="Contour-33_13_" d="M236.749,239.865H172.188a.961.961,0,1,0,0,1.921H236.8a.961.961,0,0,0,0-1.922Z" transform="translate(-153.379 -184.219)" fill="url(#linear-gradient-7)"/>
      <path id="Contour-34_10_" d="M197.961,434.346H171.5a.961.961,0,1,0,0,1.921h26.464a.961.961,0,0,0,0-1.921Z" transform="translate(-152.909 -316.511)" fill="#12263f"/>
      <path id="Contour-35_9_" d="M197.961,413.619H171.5a.961.961,0,1,0,0,1.921h26.464a.961.961,0,1,0,0-1.921Z" transform="translate(-152.909 -302.411)" fill="#12263f"/>
      <path id="Contour-36_8_" d="M236.749,263.6H172.188a.961.961,0,1,0,0,1.921H236.8a.961.961,0,1,0,0-1.921Z" transform="translate(-153.379 -200.364)" fill="url(#linear-gradient-8)"/>
      <path id="Contour-37_8_" d="M258.912,287.271H232.448a.961.961,0,0,0,0,1.921h26.464a.961.961,0,1,0,0-1.921Z" transform="translate(-194.37 -216.466)" fill="url(#linear-gradient-9)"/>
      <path id="Contour-38_7_" d="M172.188,216.107a.961.961,0,1,0,0,1.921H236.8a.961.961,0,1,0,0-1.921Z" transform="translate(-153.379 -168.058)" fill="url(#linear-gradient-10)"/>
    </g>
  </g>
</svg>
