<svg id="estrategia" xmlns="http://www.w3.org/2000/svg" xmlns:xlink="http://www.w3.org/1999/xlink" width="195" height="195" viewBox="0 0 195 195">
  <defs>
    <linearGradient id="linear-gradient" x1="-0.023" y1="0.91" x2="0.24" y2="1.181" gradientUnits="objectBoundingBox">
      <stop offset="0" stop-color="#dbeefb"/>
      <stop offset="1" stop-color="#70bcee"/>
    </linearGradient>
    <linearGradient id="linear-gradient-2" x1="-0.317" y1="1.455" x2="-0.032" y2="1.801" gradientUnits="objectBoundingBox">
      <stop offset="0" stop-color="#299ae6"/>
      <stop offset="1" stop-color="#94ccf3"/>
    </linearGradient>
  </defs>
  <g id="Icon_33">
    <path id="Contour_40_" d="M106.7,184.925a2.738,2.738,0,0,0-2.882-1.412c-5.668.961-21.988,1.46-23.256-23.947-1.537-30.806,35.811-83.418,90.651-72.957,44.043,8.405,11.162,50.306,38.145,60.882,15.792,6.186,30.067,37.914-5,65.474-18.943,14.9-67.654,28.068-97.654-28.04Z" transform="translate(-54.768 -57.992)" fill="url(#linear-gradient)"/>
    <path id="Contour-2_37_" d="M74.347,468.648a2.882,2.882,0,1,1,2.882-2.882A2.882,2.882,0,0,1,74.347,468.648Zm0-3.842a.961.961,0,1,0,.961.961A.961.961,0,0,0,74.347,464.805Z" transform="translate(-48.612 -314.867)" fill="#12263f"/>
    <path id="Contour-3_37_" d="M243.2,5.764a2.882,2.882,0,1,1,2.882-2.882A2.882,2.882,0,0,1,243.2,5.764Zm0-3.842a.961.961,0,1,0,.961.961A.961.961,0,0,0,243.2,1.921Z" transform="translate(-163.472)" fill="#12263f"/>
    <path id="Contour-4_37_" d="M594.667,372.971a2.882,2.882,0,1,1,2.882-2.882A2.882,2.882,0,0,1,594.667,372.971Zm0-3.842a.961.961,0,1,0,.961.961A.961.961,0,0,0,594.667,369.128Z" transform="translate(-402.549 -249.784)" fill="#12263f"/>
    <g id="Group_37_" transform="translate(0 59.633)">
      <path id="Contour-5_37_" d="M2.959,195.289A.961.961,0,0,0,2,194.328H.961a.961.961,0,1,0,0,1.921H2A.961.961,0,0,0,2.959,195.289Z" transform="translate(0 -191.821)" fill="#12263f"/>
      <path id="Contour-6_37_" d="M9.072,189.359a.961.961,0,0,0,.961-.961v-1.028a.964.964,0,0,0-1.921,0v1.037a.96.96,0,0,0,.961.951Z" transform="translate(-5.517 -186.487)" fill="#12263f"/>
      <path id="Contour-7_37_" d="M15.108,194.328H14.071a.964.964,0,0,0,0,1.921h1.037a.961.961,0,1,0,0-1.921Z" transform="translate(-8.97 -191.821)" fill="#12263f"/>
      <path id="Contour-8_37_" d="M9.072,199.164a.961.961,0,0,0-.961.961v1.037a.964.964,0,0,0,1.921,0v-1.037A.961.961,0,0,0,9.072,199.164Z" transform="translate(-5.517 -195.11)" fill="#12263f"/>
    </g>
    <g id="Group-2_37_" transform="translate(173.512 37.357)">
      <path id="Contour-9_37_" d="M545.568,125.867a.961.961,0,0,0-.961-.961h-1.037a.961.961,0,1,0,0,1.921h1.037A.961.961,0,0,0,545.568,125.867Z" transform="translate(-542.61 -122.322)" fill="#12263f"/>
      <path id="Contour-10_37_" d="M551.682,119.812a.961.961,0,0,0,.961-.961v-1.066a.961.961,0,0,0-1.921,0v1.066A.96.96,0,0,0,551.682,119.812Z" transform="translate(-548.127 -116.825)" fill="#12263f"/>
      <path id="Contour-11_37_" d="M557.821,124.906h-.961a.964.964,0,0,0,0,1.921h.961a.961.961,0,1,0,0-1.921Z" transform="translate(-551.703 -122.322)" fill="#12263f"/>
      <path id="Contour-12_37_" d="M551.682,129.772a.961.961,0,0,0-.961.961v1.037a.961.961,0,0,0,1.921,0v-1.037A.961.961,0,0,0,551.682,129.772Z" transform="translate(-548.127 -125.632)" fill="#12263f"/>
    </g>
    <g id="Group-3_37_" transform="translate(113.83 188.045)">
      <path id="Contour-13_37_" d="M358.932,596.892a.961.961,0,0,0-.961-.961h-1.037a.961.961,0,1,0,0,1.921h1.037A.961.961,0,0,0,358.932,596.892Z" transform="translate(-355.973 -593.414)" fill="#12263f"/>
      <path id="Contour-14_37_" d="M365.014,590.942a.961.961,0,0,0,.961-.961v-1.028a.963.963,0,0,0-1.921,0v1.028A.961.961,0,0,0,365.014,590.942Z" transform="translate(-361.469 -588.06)" fill="#12263f"/>
      <path id="Contour-15_37_" d="M370.918,595.931h-1.037a.961.961,0,1,0,0,1.921h1.037a.961.961,0,1,0,0-1.921Z" transform="translate(-364.78 -593.414)" fill="#12263f"/>
      <path id="Contour-16_37_" d="M365.014,600.8a.961.961,0,0,0-.961.961v1.037a.964.964,0,0,0,1.921,0v-1.037A.961.961,0,0,0,365.014,600.8Z" transform="translate(-361.469 -596.724)" fill="#12263f"/>
    </g>
    <path id="Contour-17_37_" d="M200.733,185.723l-19.462,102.7a2.392,2.392,0,0,1-2.8,1.9,1.681,1.681,0,0,1-1.339-1.965l19.594-103.4a2.037,2.037,0,0,1,4,.758Z" transform="translate(-120.473 -124.691)" fill="#fff"/>
    <path id="Contour-18_37_" d="M204.985,183.514,185,289a1.21,1.21,0,0,1-1.415.964.845.845,0,0,1-.673-.988l20.057-105.847a1.028,1.028,0,1,1,2.02.382Z" transform="translate(-124.409 -124.002)" fill="#299ae6"/>
    <path id="Contour-19_37_" d="M380.6,184.914l19.6,103.44a1.681,1.681,0,0,1-1.339,1.965,2.392,2.392,0,0,1-2.8-1.9L376.6,185.672a2.036,2.036,0,1,1,4-.758Z" transform="translate(-256.15 -124.656)" fill="#fff"/>
    <path id="Contour-20_37_" d="M377.716,183.177l20.057,105.847a.845.845,0,0,1-.673.988,1.211,1.211,0,0,1-1.415-.964L375.7,183.56a1.028,1.028,0,1,1,2.02-.382Z" transform="translate(-255.547 -124.033)" fill="#299ae6"/>
    <path id="Contour-21_37_" d="M311.606,179.549l.716,105.24a1.681,1.681,0,0,1-1.67,1.693,2.392,2.392,0,0,1-2.408-2.376l-.711-104.529a2.037,2.037,0,1,1,4.073-.028Z" transform="translate(-209.192 -120.759)" fill="#fff"/>
    <path id="Contour-22_37_" d="M309.508,176.83l.734,107.757a.845.845,0,0,1-.839.851,1.211,1.211,0,0,1-1.219-1.2l-.731-107.392a1.028,1.028,0,1,1,2.055-.014Z" transform="translate(-209.138 -119.59)" fill="#299ae6"/>
    <path id="Contour-23_37_" d="M151.94,93.694h99.1a2.882,2.882,0,0,1,2.882,2.882v94.7a2.882,2.882,0,0,1-2.882,2.882h-99.1a2.882,2.882,0,0,1-2.882-2.882v-94.7A2.882,2.882,0,0,1,151.94,93.694Z" transform="translate(-101.393 -63.733)" fill="#fff"/>
    <path id="Contour-24_37_" d="M159.593,393.522h-7.531v4.208h6.57Z" transform="translate(-103.437 -267.685)" fill="#299ae6"/>
    <path id="Contour-25_37_" d="M459.33,393.522H451.8v4.208h6.571Z" transform="translate(-307.326 -267.685)" fill="#299ae6"/>
    <path id="Contour-26_36_" d="M159.593,98.5h-7.531V94.3h6.57Z" transform="translate(-103.437 -64.142)" fill="#299ae6"/>
    <path id="Contour-27_36_" d="M459.33,98.5H451.8V94.3h6.571Z" transform="translate(-307.326 -64.142)" fill="#299ae6"/>
    <path id="Contour-28_35_" d="M165.542,147.2s4.169,64.1,47.328,67.088,46.108-33.919,46.108-33.919l1.393,42.717s-.961,2.882-3.237,2.882H167.329a4.572,4.572,0,0,1-2.478-4.256C164.851,218.529,165.542,147.2,165.542,147.2Z" transform="translate(-112.133 -100.126)" fill="url(#linear-gradient-2)"/>
    <g id="Grupo_883801" data-name="Grupo 883801" transform="translate(59.681 41.997)">
      <path id="Contour-29_33_" d="M263.126,245.636h31.008A1.268,1.268,0,0,1,295.4,246.9v38.174a1.268,1.268,0,0,1-1.268,1.268H263.126a1.268,1.268,0,0,1-1.268-1.268V246.9A1.268,1.268,0,0,1,263.126,245.636Z" transform="translate(-237.804 -209.085)" fill="#fff"/>
      <path id="Contour-30_32_" d="M369.793,132.469v27.118a1.1,1.1,0,0,1-1.1,1.1H335.3a1.1,1.1,0,0,1-1.1-1.1V132.469a1.1,1.1,0,0,1,1.1-1.1h33.39A1.1,1.1,0,0,1,369.793,132.469Z" transform="translate(-287.009 -131.354)" fill="#fff"/>
      <path id="Contour-31_29_" d="M187.55,131.334h22.228a.913.913,0,0,1,.913.913V159.6a.913.913,0,0,1-.913.913H187.55a.913.913,0,0,1-.913-.913V132.247A.913.913,0,0,1,187.55,131.334Z" transform="translate(-186.637 -131.334)" fill="#fff"/>
      <path id="Contour-32_29_" d="M213.09,242.079a.3.3,0,0,0-.269.279,31.239,31.239,0,0,0,27.694,32.036l-1.057-.125a34.072,34.072,0,0,1-30.21-31.93.278.278,0,0,0-.25-.259l-2.8-.24a.269.269,0,0,1-.173-.471l4.736-4.64a.289.289,0,0,1,.394,0l4.611,4.736a.278.278,0,0,1-.183.471Z" transform="translate(-199.767 -202.974)" fill="#fff"/>
    </g>
    <path id="Contour-33_28_" d="M222.995,256.671s-3.429-11.085-2.248-19.212a.279.279,0,0,1,.48-.153l4.467,4.592a.269.269,0,0,1-.154.461l-3.16.49a.269.269,0,0,0-.231.269,33.285,33.285,0,0,0,14.611,26.839S228.854,267.583,222.995,256.671Z" transform="translate(-149.99 -161.361)" fill="#299ae6"/>
    <path id="Contour-34_24_" d="M369.225,200.745a.2.2,0,0,1,.192.192,22.18,22.18,0,0,1-19.663,22.737l.749-.086a24.188,24.188,0,0,0,21.421-22.67.192.192,0,0,1,.183-.183l1.979-.163a.2.2,0,0,0,.125-.336l-3.362-3.295a.2.2,0,0,0-.279,0l-3.276,3.362a.192.192,0,0,0,.125.336Z" transform="translate(-237.912 -133.927)" fill="#fff"/>
    <path id="Contour-35_21_" d="M389.714,211.131s2.43-7.867,1.595-13.631a.2.2,0,0,0-.336-.106l-3.18,3.257a.192.192,0,0,0,.115.327l2.238.346a.212.212,0,0,1,.173.192,23.66,23.66,0,0,1-10.374,19.049S385.564,218.882,389.714,211.131Z" transform="translate(-258.449 -134.235)" fill="#299ae6"/>
    <path id="Contour-36_20_" d="M303.311,267.753v2.709s-4.524,2.046-2.968,6.08a5.668,5.668,0,0,0,5.821,3.545s.961,3.842-1.671,3.631-2.219-2.085-2.219-2.085H299.5s.855,3.66,3.41,4.524l.221,3.026,2.8-.086.442-3.026s3.141-1.585,3.064-4.313a5.859,5.859,0,0,0-4.044-5.312c-2.056-.73-3.093-2.6-.605-3.218,0,0,1.489.442,1.643,1.479l2.776-.105s-.259-3.112-1.921-3.689-1.239-3.227-1.239-3.227Z" transform="translate(-203.726 -182.087)" fill="#299ae6"/>
    <circle id="Contour-37_19_" cx="2.094" cy="2.094" r="2.094" transform="translate(117.874 51.718)" fill="#299ae6"/>
    <circle id="Contour-38_18_" cx="2.094" cy="2.094" r="2.094" transform="translate(128.441 55.234)" fill="#299ae6"/>
    <path id="Contour-39_16_" d="M211.624,144.581v5.543a.481.481,0,0,1-.478.483.448.448,0,0,1-.051,0c-1.479-.173-5.523-.625-5.533-.567a6.425,6.425,0,0,1,2.286-4.178A5.09,5.09,0,0,1,211.624,144.581Z" transform="translate(-139.83 -98.338)" fill="#299ae6"/>
    <g id="Group-4_29_" transform="translate(46.704 29)">
      <path id="Contour-40_12_" d="M209.607,157.469V130.1a1.921,1.921,0,0,0-1.921-1.921h-22.18a1.921,1.921,0,0,0-1.873,1.921v27.367a1.921,1.921,0,0,0,1.873,1.921h22.228A1.921,1.921,0,0,0,209.607,157.469Zm-1.921,0H185.593l-.048-27.319h22.18Z" transform="translate(-171.616 -116.192)" fill="#12263f"/>
      <path id="Contour-41_11_" d="M279.4,128.33H246.02a2.075,2.075,0,0,0-2.075,2.065v27.021a2.075,2.075,0,0,0,2.075,2.065h22.094a21.45,21.45,0,0,1-11.825,14.8v-7.176a2.228,2.228,0,0,0-2.228-2.228H223.043a2.228,2.228,0,0,0-2.228,2.228v24.159a30.249,30.249,0,0,1-9.135-21.94l1.921-.115a1.239,1.239,0,0,0,.816-2.1l-4.62-4.726a1.193,1.193,0,0,0-.865-.375,1.269,1.269,0,0,0-.884.346l-4.745,4.668a1.248,1.248,0,0,0-.3,1.306,1.22,1.22,0,0,0,1.057.816l2.209.183a34.87,34.87,0,0,0,14.543,25.936V205.3a2.228,2.228,0,0,0,2.229,2.228H254.05a2.228,2.228,0,0,0,2.228-2.228V176.628a25.041,25.041,0,0,0,15.927-17.194H279.4a2.065,2.065,0,0,0,2.065-2.017V130.395a2.065,2.065,0,0,0-2.065-2.065ZM208.163,168.6a1.23,1.23,0,0,0-1.124-1.162l-1.306-.106,3.18-3.122,3.093,3.17-1.047.067a1.23,1.23,0,0,0-1.172,1.191,31.88,31.88,0,0,0,4.534,17.454A33.061,33.061,0,0,1,208.163,168.6Zm46.214,36.685a.307.307,0,0,1-.307.307H223.043a.307.307,0,0,1-.307-.307v-8.76a34.953,34.953,0,0,0,13.064,4.8c.49.077.961.144,1.46.192l.471.058.547.067a.417.417,0,0,0,.106,0,.964.964,0,0,0,.106-1.921l-.8-.106c-.644-.1-1.287-.2-1.921-.336a29.922,29.922,0,0,1-13.035-6.321V167.109a.307.307,0,0,1,.307-.307h31.008a.307.307,0,0,1,.307.307v7.915a21.045,21.045,0,0,1-4.563,1.057A.962.962,0,0,0,249.9,178h.106l.749-.086a24.873,24.873,0,0,0,3.621-.682Zm15.369-44.466c.115-.452.221-.961.307-1.374.125-.634.231-1.277.3-1.921a22.933,22.933,0,0,0,.125-3.257,1.143,1.143,0,0,0-1.086-1.114h-.135l1.576-1.614,1.691,1.585H272.2a1.181,1.181,0,0,0-1.057,1.1,23.266,23.266,0,0,1-.413,3.285c-.135.653-.288,1.287-.471,1.921-.183.48-.327.941-.49,1.393Zm9.8-3.4a.144.144,0,0,1-.144.144h-6.782a24,24,0,0,0,.346-2.517l1.326-.115a1.153,1.153,0,0,0,.72-1.979l-3.362-3.285a1.172,1.172,0,0,0-.826-.336,1.153,1.153,0,0,0-.816.346L266.759,153a1.162,1.162,0,0,0,.768,1.921l1.1.058a19.6,19.6,0,0,1-.173,2.5H246.02a.154.154,0,0,1-.154-.144V130.4a.154.154,0,0,1,.154-.144H279.4a.144.144,0,0,1,.144.144Z" transform="translate(-184.744 -116.294)" fill="#12263f"/>
      <path id="Contour-42_11_" d="M304.245,274.574a4.1,4.1,0,0,1-1.393-.625.451.451,0,0,1-.115-.346.441.441,0,0,1,.125-.355.567.567,0,0,1,.423-.135c.231,0,.307.067.336.1a.608.608,0,0,1,.135.24,1.364,1.364,0,0,0,1.3.961h2.008a1.363,1.363,0,0,0,1.018-.471,1.315,1.315,0,0,0,.327-1.047,4.85,4.85,0,0,0-1.537-3.007,4.545,4.545,0,0,0-1.268-.855v-1.825a1.355,1.355,0,0,0-1.345-1.355h-1.979a1.393,1.393,0,0,0-1.351,1.434c0,.031,0,.062.006.094v1.6a5.386,5.386,0,0,0-1.508,1.028,5.11,5.11,0,0,0-1.489,3.756,4.8,4.8,0,0,0,1.143,3.295,7.684,7.684,0,0,0,3.41,1.921,4.729,4.729,0,0,1,1.489.653.413.413,0,0,1,.144.375.96.96,0,0,1-.279.768.893.893,0,0,1-.72.279.96.96,0,0,1-.749-.25.873.873,0,0,1-.24-.5,1.326,1.326,0,0,0-1.306-1.143h-2.113a1.354,1.354,0,0,0-1.372,1.336,1.393,1.393,0,0,0,.018.239,6.553,6.553,0,0,0,1.556,3.429,5.812,5.812,0,0,0,2.008,1.23v1.719a1.355,1.355,0,0,0,1.345,1.355h1.979a1.354,1.354,0,0,0,1.345-1.355v-1.835a5.148,5.148,0,0,0,1.671-1.1,5.418,5.418,0,0,0,1.652-4.054,5.158,5.158,0,0,0-1.162-3.487,7.691,7.691,0,0,0-3.507-2.075Zm1.691,8.213a3.474,3.474,0,0,1-1.326.807,1.335,1.335,0,0,0-.961,1.268V286.5h-.826v-1.576a1.364,1.364,0,0,0-.961-1.3,3.842,3.842,0,0,1-1.614-.961,4.03,4.03,0,0,1-.826-1.623h.961a2.68,2.68,0,0,0,.7,1.1,3.055,3.055,0,0,0,4.169-.067,2.881,2.881,0,0,0,.826-2.113,2.354,2.354,0,0,0-.816-1.844,6.849,6.849,0,0,0-2.142-.961,6.014,6.014,0,0,1-2.584-1.4,2.881,2.881,0,0,1-.644-2.008,3.2,3.2,0,0,1,.961-2.382,3.466,3.466,0,0,1,1.191-.749,1.345,1.345,0,0,0,.893-1.268v-1.566h.826v1.652a1.354,1.354,0,0,0,.9,1.258,2.987,2.987,0,0,1,1.767,1.806h-.9a2.289,2.289,0,0,0-.538-.73,2.372,2.372,0,0,0-1.624-.586,2.469,2.469,0,0,0-1.748.672,2.352,2.352,0,0,0-.72,1.739,2.228,2.228,0,0,0,.778,1.8,5.764,5.764,0,0,0,2.056.961,5.956,5.956,0,0,1,2.661,1.489,3.247,3.247,0,0,1,.692,2.229A3.506,3.506,0,0,1,305.935,282.787Z" transform="translate(-248.963 -209.84)" fill="#12263f"/>
      <path id="Contour-43_9_" d="M208.868,155.219a7.06,7.06,0,1,0-7.06-7.06v.01a7.051,7.051,0,0,0,7.051,7.051ZM214,148.168a5.12,5.12,0,0,1-10.211.528c.8.077,2.257.231,4.64.5h.163a1.431,1.431,0,0,0,.961-.365,1.46,1.46,0,0,0,.48-1.076v-4.582A5.14,5.14,0,0,1,214,148.168Zm-5.888-5.062v4.121c-1.988-.221-3.295-.365-4.169-.423A5.109,5.109,0,0,1,208.109,143.106Z" transform="translate(-183.979 -124.979)" fill="#12263f"/>
      <circle id="Contour-44_9_" cx="0.961" cy="0.961" r="0.961" transform="translate(77.001 16.109)" fill="#12263f"/>
      <circle id="Contour-45_9_" cx="0.961" cy="0.961" r="0.961" transform="translate(39.586 52.304)" fill="#12263f"/>
      <circle id="Contour-46_8_" cx="0.961" cy="0.961" r="0.961" transform="translate(15.158 15.149)" fill="#12263f"/>
      <path id="Contour-47_7_" d="M213.833,205.893H199.674a.961.961,0,1,0,0,1.921h14.159a.961.961,0,1,0,0-1.921Z" transform="translate(-181.874 -169.054)" fill="#12263f"/>
      <path id="Contour-48_6_" d="M199.675,195.8h14.159a.961.961,0,1,0,0-1.921H199.675a.961.961,0,0,0,0,1.921Z" transform="translate(-181.875 -160.881)" fill="#12263f"/>
      <path id="Contour-49_6_" d="M372.305,148.908a.96.96,0,0,0-.8.452l-4.14,6.407a3.007,3.007,0,0,0-3.564,1.1l-5.034-2.056a3.055,3.055,0,0,0-6.09.288,3,3,0,0,0,0,.423l-5.658,3.9a.946.946,0,1,0,1.076,1.556l5.427-3.746a3.017,3.017,0,0,0,2.152.9,3.055,3.055,0,0,0,2.594-1.45L363.2,158.7a3.055,3.055,0,1,0,6.109-.106,2.987,2.987,0,0,0-.5-1.652l4.323-6.551a.96.96,0,0,0-.788-1.47Zm-6.061,8.587h.058a.951.951,0,1,1-.058,0Zm-10.509-1.249a1.231,1.231,0,0,1-.49-.125,1.066,1.066,0,1,1,.49.125Z" transform="translate(-282.471 -130.292)" fill="#12263f"/>
      <path id="Contour-50_5_" d="M249,90.69H149.9a3.842,3.842,0,0,0-3.842,3.842v94.714a3.842,3.842,0,0,0,3.842,3.842h11.277l-6.013,31.7a3,3,0,0,0,.192,1.748h-6.369a.961.961,0,0,0,0,1.921H250.24a.961.961,0,1,0,0-1.921h-6.167a3,3,0,0,0,.192-1.748l-6.013-31.7H249a3.842,3.842,0,0,0,3.842-3.842V94.532A3.842,3.842,0,0,0,249,90.69Zm1.921,3.842v3.66H248.04a3.843,3.843,0,0,0-2.68-2.776V92.611h3.689A1.922,1.922,0,0,1,250.922,94.532Zm-2.68,5.581h2.728v83.572h-2.728ZM244.4,186.567h-89.45a1.921,1.921,0,0,1-1.921-1.921V99.153a1.921,1.921,0,0,1,1.921-1.921H244.4a1.921,1.921,0,0,1,1.921,1.921v85.493A1.921,1.921,0,0,1,244.4,186.567Zm-.961-91.256H155.919v-2.7h87.519Zm-93.542-2.7H154v2.8a3.843,3.843,0,0,0-2.776,2.786h-3.247v-3.66a1.921,1.921,0,0,1,1.921-1.922Zm1.21,91.074h-3.132V100.113h3.132Zm-3.132,5.562v-3.641h3.247a3.842,3.842,0,0,0,2.738,2.747v2.815H149.9A1.921,1.921,0,0,1,147.975,189.247Zm15.149,3.842h2.19l-6.158,32.5a1.076,1.076,0,0,1-2.113-.4Zm-2.3,33.486a2.892,2.892,0,0,0,.192-.634l6.225-32.852h29.97l.211,32.276a3.046,3.046,0,0,0,.269,1.21Zm40.672-1.239a1.056,1.056,0,0,1-1.028,1.076,1.067,1.067,0,0,1-1.124-1.057l-.211-32.266h2.142Zm1.652,1.239a3.036,3.036,0,0,0,.269-1.249l-.221-32.238h28.933l6.225,32.852a2.888,2.888,0,0,0,.2.634Zm39.2-1.393a1.069,1.069,0,0,1-1.642,1.095,1.019,1.019,0,0,1-.461-.692l-6.158-32.5h2.181Zm-4.486-34.014H155.91v-2.68h87.529v2.68Zm11.114,0H245.36v-2.815a3.842,3.842,0,0,0,2.69-2.747h2.882v3.641a1.921,1.921,0,0,1-1.921,1.921H249Z" transform="translate(-146.054 -90.69)" fill="#12263f"/>
      <circle id="Contour-51_4_" cx="0.961" cy="0.961" r="0.961" transform="translate(33.044 15.072)" fill="#12263f"/>
      <circle id="Contour-52_4_" cx="0.961" cy="0.961" r="0.961" transform="translate(66.483 52.304)" fill="#12263f"/>
    </g>
  </g>
</svg>
