<svg id="investigar" xmlns="http://www.w3.org/2000/svg" xmlns:xlink="http://www.w3.org/1999/xlink" width="195" height="195" viewBox="0 0 195 195">
  <defs>
    <linearGradient id="linear-gradient" x1="-0.022" y1="0.906" x2="0.24" y2="1.178" gradientUnits="objectBoundingBox">
      <stop offset="0" stop-color="#dbeefb"/>
      <stop offset="1" stop-color="#70bcee"/>
    </linearGradient>
    <linearGradient id="linear-gradient-2" x1="-0.134" y1="1.139" x2="0.151" y2="1.563" gradientUnits="objectBoundingBox">
      <stop offset="0" stop-color="#299ae6"/>
      <stop offset="1" stop-color="#94ccf3"/>
    </linearGradient>
    <linearGradient id="linear-gradient-3" x1="-0.666" y1="2.095" x2="-0.351" y2="2.495" gradientUnits="objectBoundingBox">
      <stop offset="0" stop-color="#4dabea"/>
      <stop offset="1" stop-color="#94ccf3"/>
    </linearGradient>
    <linearGradient id="linear-gradient-4" x1="-0.732" y1="7.986" x2="-0.526" y2="8.807" xlink:href="#linear-gradient-2"/>
  </defs>
  <g id="Icon_29" transform="translate(0 0)">
    <path id="Contour_33_" d="M106.063,184.925a2.738,2.738,0,0,0-2.882-1.412c-5.668.961-21.988,1.46-23.256-23.947-1.576-30.806,35.811-83.418,90.641-72.957,44.053,8.405,11.162,50.306,38.145,60.882,15.792,6.186,30.067,37.914-5,65.474-18.962,14.9-67.645,28.068-97.644-28.04Z" transform="translate(-54.335 -57.992)" fill="url(#linear-gradient)"/>
    <path id="Contour-2_33_" d="M2.882,338.425a2.882,2.882,0,1,1,2.882-2.882A2.882,2.882,0,0,1,2.882,338.425Zm0-3.842a.961.961,0,1,0,.961.961A.961.961,0,0,0,2.882,334.582Z" transform="translate(0 -226.285)" fill="#12263f"/>
    <path id="Contour-3_33_" d="M399.919,35.383A2.882,2.882,0,1,1,402.8,32.5,2.882,2.882,0,0,1,399.919,35.383Zm0-3.842a.956.956,0,1,1,0,.01Z" transform="translate(-270.076 -20.148)" fill="#12263f"/>
    <path id="Contour-4_33_" d="M467.268,544.828a2.882,2.882,0,1,1,2.882-2.882A2.882,2.882,0,0,1,467.268,544.828Zm0-3.842a.951.951,0,1,1,0,.019Z" transform="translate(-315.888 -366.687)" fill="#12263f"/>
    <g id="Group_33_" transform="translate(21.988 0)">
      <path id="Contour-5_33_" d="M71.749,8.831a.961.961,0,0,0-.961-.961H69.723a.961.961,0,0,0,0,1.921h1.066A.961.961,0,0,0,71.749,8.831Z" transform="translate(-68.762 -5.353)" fill="#12263f"/>
      <path id="Contour-6_33_" d="M77.8,2.882a.961.961,0,0,0,.961-.961V.884a.964.964,0,0,0-1.921,0V1.921A.961.961,0,0,0,77.8,2.882Z" transform="translate(-74.258 0)" fill="#12263f"/>
      <path id="Contour-7_33_" d="M83.707,7.87H82.67a.961.961,0,0,0,0,1.921h1.037a.961.961,0,0,0,0-1.921Z" transform="translate(-77.569 -5.353)" fill="#12263f"/>
      <path id="Contour-8_33_" d="M77.8,12.737a.961.961,0,0,0-.961.961v1.037a.964.964,0,0,0,1.921,0V13.7A.961.961,0,0,0,77.8,12.737Z" transform="translate(-74.258 -8.664)" fill="#12263f"/>
    </g>
    <g id="Group-2_33_" transform="translate(187.901 70.901)">
      <path id="Contour-9_33_" d="M590.568,230.526a.961.961,0,0,0-.961-.961h-1.037a.961.961,0,1,0,0,1.921h1.037A.961.961,0,0,0,590.568,230.526Z" transform="translate(-587.61 -227.058)" fill="#12263f"/>
      <path id="Contour-10_33_" d="M596.651,224.606a.961.961,0,0,0,.961-.961v-1.037a.964.964,0,0,0-1.921,0v1.037a.961.961,0,0,0,.961.961Z" transform="translate(-593.106 -221.724)" fill="#12263f"/>
      <path id="Contour-11_33_" d="M602.718,229.565h-1.037a.964.964,0,0,0,0,1.921h1.037a.961.961,0,1,0,0-1.921Z" transform="translate(-596.58 -227.058)" fill="#12263f"/>
      <path id="Contour-12_33_" d="M596.651,234.311a.961.961,0,0,0-.961.961v1.037a.964.964,0,0,0,1.921,0v-1.037a.961.961,0,0,0-.961-.961Z" transform="translate(-593.106 -230.286)" fill="#12263f"/>
    </g>
    <g id="Group-3_33_" transform="translate(30.057 188.045)">
      <path id="Contour-13_33_" d="M96.954,596.892a.961.961,0,0,0-.961-.961H94.956a.961.961,0,0,0,0,1.921h1.037A.961.961,0,0,0,96.954,596.892Z" transform="translate(-93.995 -593.414)" fill="#12263f"/>
      <path id="Contour-14_33_" d="M103.1,590.942a.961.961,0,0,0,.961-.961v-1.028a.963.963,0,0,0-1.921,0v1.028A.961.961,0,0,0,103.1,590.942Z" transform="translate(-99.532 -588.06)" fill="#12263f"/>
      <path id="Contour-15_33_" d="M108.94,595.931H107.9a.961.961,0,1,0,0,1.921h1.037a.961.961,0,0,0,0-1.921Z" transform="translate(-102.802 -593.414)" fill="#12263f"/>
      <path id="Contour-16_33_" d="M103.1,600.8a.961.961,0,0,0-.961.961v1.037a.964.964,0,0,0,1.921,0v-1.037A.96.96,0,0,0,103.1,600.8Z" transform="translate(-99.532 -596.724)" fill="#12263f"/>
    </g>
    <path id="Contour-17_33_" d="M108.832,124.395H228.666a2.19,2.19,0,0,1,2.19,2.19v97.567a2.19,2.19,0,0,1-2.19,2.19H108.832a2.19,2.19,0,0,1-2.19-2.19V126.585a2.19,2.19,0,0,1,2.19-2.19Z" transform="translate(-72.541 -84.617)" fill="#fff"/>
    <path id="Contour-18_33_" d="M108.323,180.69s-1.614,74.782,50.988,75.339,64.36-24.87,69.873-49.5l.961,55.926-1.489,1.479H108.832l-2.19-1.988Z" transform="translate(-72.541 -122.91)" fill="url(#linear-gradient-2)"/>
    <path id="Contour-19_33_" d="M252.393,238.106v34.14H198.119L196.851,271V228.423h36.368l9.865,9.308Z" transform="translate(-133.904 -155.38)" fill="url(#linear-gradient-3)"/>
    <path id="Contour-20_33_" d="M265.08,126.648v3.689s.288,2.747-2.411,2.747l-1.066,1.249-65.387-.307-6.033-7.368Z" transform="translate(-129.368 -86.149)" fill="#299ae6"/>
    <path id="Contour-21_33_" d="M224.788,205.558v-3.583a1.249,1.249,0,0,1,1.249-1.249h2.939a1.249,1.249,0,0,1,1.249,1.249v3.583Z" transform="translate(-152.907 -136.539)" fill="#299ae6"/>
    <path id="Contour-22_33_" d="M254.377,205.558v-3.583a1.249,1.249,0,0,1,1.249-1.249h2.9a1.249,1.249,0,0,1,1.239,1.249v3.583Z" transform="translate(-173.034 -136.539)" fill="#fff"/>
    <path id="Contour-23_33_" d="M325.362,205.558v-3.583a1.249,1.249,0,0,1,1.249-1.249h2.939a1.258,1.258,0,0,1,1.249,1.249v3.583Z" transform="translate(-221.32 -136.539)" fill="#fff"/>
    <path id="Contour-24_33_" d="M233.29,216.407v3.842H258.6l9.27,9.356,19.394.326-.586-11.642-1.249-1.883Z" transform="translate(-158.69 -147.206)" fill="url(#linear-gradient-4)"/>
    <circle id="Contour-25_33_" cx="2.766" cy="2.766" r="2.766" transform="translate(95.339 80.257)" fill="#fff"/>
    <path id="Contour-26_32_" d="M459.283,391.209,485.872,417.8a3.722,3.722,0,0,1-5.264,5.264l-26.436-26.436Z" transform="translate(-308.94 -266.111)" fill="#fff"/>
    <path id="Contour-27_32_" d="M462.968,390.518l26.186,26.176c1.422,1.422,1.873,3.295,1.009,4.169s-2.747.413-4.169-1.009l-26.022-26.022Z" transform="translate(-312.885 -265.641)" fill="#299ae6"/>
    <path id="Contour-28_31_" d="M443.948,373.275l2.824,2.882a1.594,1.594,0,0,1,0,2.255l0,0-6.455,6.455a1.594,1.594,0,0,1-2.255,0l0,0-3.112-3.084Z" transform="translate(-295.863 -253.912)" fill="#fff"/>
    <path id="Contour-29_29_" d="M444.845,385.441l1.546,1.546a1.239,1.239,0,0,1,0,2.046l-2.882,3.756s-1.345,1.566-3.276-.106-.893-2.488-.893-2.488Z" transform="translate(-298.662 -262.188)" fill="#4dabea"/>
    <circle id="Contour-30_28_" cx="20.268" cy="20.268" r="20.268" transform="translate(110.036 89.354)" fill="#299ae6"/>
    <path id="Contour-31_25_" d="M385.461,321.843a15.148,15.148,0,1,1,.154-22.353Z" transform="translate(-244.994 -200.972)" fill="#fff"/>
    <path id="Contour-32_25_" d="M379.64,297.221s.375,5.658-.336,7.579c-.9,2.449-3.1,3.227-4.918,5.034a17.771,17.771,0,0,1-30.278-12.612c0-9.808,9.327-17.761,17.771-17.761C371.686,279.431,379.736,285.886,379.64,297.221Z" transform="translate(-234.072 -190.096)" fill="#fff"/>
    <path id="Contour-33_24_" d="M366.556,303.913v22.18h-3.17s-3.036-5.168-3.343-9.74C359.592,309.7,366.556,303.913,366.556,303.913Z" transform="translate(-244.897 -206.73)" fill="#299ae6"/>
    <g id="Group-4_26_" transform="translate(33.851 39.538)">
      <path id="Contour-34_20_" d="M128.088,142.476a1.921,1.921,0,1,0-1.921-1.921A1.921,1.921,0,0,0,128.088,142.476Z" transform="translate(-119.674 -133.841)" fill="#12263f"/>
      <path id="Contour-35_17_" d="M148.636,142.476a1.921,1.921,0,1,0-1.921-1.921A1.921,1.921,0,0,0,148.636,142.476Z" transform="translate(-133.651 -133.841)" fill="#12263f"/>
      <path id="Contour-36_16_" d="M169.333,142.476a1.921,1.921,0,1,0-1.921-1.921A1.921,1.921,0,0,0,169.333,142.476Z" transform="translate(-147.73 -133.841)" fill="#12263f"/>
      <path id="Contour-37_15_" d="M298.871,255.543a3.727,3.727,0,0,0,2.632-6.369,3.842,3.842,0,0,0-5.274,0,3.737,3.737,0,0,0,2.642,6.369Zm-1.277-5.014a1.8,1.8,0,0,1,2.545,2.555,1.854,1.854,0,0,1-2.555,0,1.767,1.767,0,0,1-.538-1.277A1.8,1.8,0,0,1,297.594,250.529Z" transform="translate(-234.617 -208.321)" fill="#12263f"/>
      <path id="Contour-38_14_" d="M249.623,235.111l-19.039-19.039V126.084a2.44,2.44,0,0,0-2.44-2.44H108.3a2.44,2.44,0,0,0-2.44,2.44v97.567a2.44,2.44,0,0,0,2.44,2.44H227.347L243,241.739a4.688,4.688,0,0,0,6.628-6.628ZM216.223,125.6v3.573a1.921,1.921,0,0,1-1.873,1.873H139.587a.28.28,0,0,1-.2-.086l-5.37-5.36h82.207Zm-107.922,0h23l6.724,6.724a2.2,2.2,0,0,0,1.556.644H214.34a3.842,3.842,0,0,0,3.794-3.794v-3.612h10a.519.519,0,0,1,.519.519v10.125H107.782V126.084a.519.519,0,0,1,.519-.519Zm0,98.6a.519.519,0,0,1-.519-.519V138.2H228.663v76.021l-4.966-4.957a2.565,2.565,0,0,0-.086-3.5l-2.354-2.411a21.021,21.021,0,0,0,2.286-9.548,21.248,21.248,0,0,0-20.73-21.325v-4.4a2.209,2.209,0,0,0-1.854-2.171V154.489a2.181,2.181,0,0,0-2.209-2.142H182.477v-2.805a2.209,2.209,0,0,0-2.209-2.2h-2.939a2.209,2.209,0,0,0-2.209,2.2v2.766H159.75v-2.766a2.209,2.209,0,0,0-2.219-2.2h-2.911a2.209,2.209,0,0,0-2.209,2.2v2.766h-2.123v-2.766a2.209,2.209,0,0,0-2.209-2.2H145.14a2.209,2.209,0,0,0-2.209,2.2v2.766h-5.11a2.18,2.18,0,0,0-2.209,2.142v1.8A2.21,2.21,0,0,0,134,158.359v41.305a2.219,2.219,0,0,0,2.228,2.209h46.512a21.2,21.2,0,0,0,27.735,11.386q.206-.086.41-.177l2.642,2.622a2.536,2.536,0,0,0,3.554.048l8.348,8.357Zm107.48-9.759a.634.634,0,0,1-.9.006l-.006-.006-2.181-2.171a21.467,21.467,0,0,0,7.579-7.214l1.921,2.027a.625.625,0,0,1,.011.883l-.011.011Zm-31.7-14.409a19.212,19.212,0,0,1,16.81-25.513c.471,0,.961-.067,1.422-.067h.5a19.3,19.3,0,1,1-17.954,27.482,19.607,19.607,0,0,1-.778-1.931Zm-35.715-47.732h-3.516v-2.766a.288.288,0,0,1,.288-.279h2.939a.288.288,0,0,1,.288.279Zm50.383,1.921c.154,0,.288.106.288.221v11.421H182.093a.347.347,0,0,1-.221-.086l-9-8.943a2.248,2.248,0,0,0-1.576-.653H137.532v-1.7a.26.26,0,0,1,.288-.221Zm-40.931-1.921h-3.506v-2.766a.279.279,0,0,1,.279-.279H157.5a.279.279,0,0,1,.279.279Zm22.737,0H177.04v-2.766a.279.279,0,0,1,.279-.279h2.949a.288.288,0,0,1,.288.279Zm-44.61,6.052a.3.3,0,0,1,.307-.288h35.1a.317.317,0,0,1,.221.1l8.972,8.933a2.248,2.248,0,0,0,1.576.653h18.491a.3.3,0,0,1,.307.288h0v4.477a21.219,21.219,0,0,0-18.856,27.454H136.225a.3.3,0,0,1-.307-.288h0Zm112.389,81.977a2.882,2.882,0,0,1-3.9,0L229.546,225.6l-1.441-1.431-9.7-9.7,3.91-3.91,6.311,6.311,1.921,1.921,17.675,17.684a2.757,2.757,0,0,1,0,3.9h0Z" transform="translate(-105.861 -123.644)" fill="#12263f"/>
      <path id="Contour-39_12_" d="M373.2,324.707a16.109,16.109,0,0,0,.5-32.209h-.5a9.947,9.947,0,0,0-1.422.067,16.138,16.138,0,0,0-14.7,16.052,15.922,15.922,0,0,0,1.277,6.273,16.482,16.482,0,0,0,.961,1.921A16.129,16.129,0,0,0,373.2,324.707ZM387.4,308.6a14.178,14.178,0,0,1-23.467,10.691h11.095a2.411,2.411,0,0,0,2.4-2.4V295.024A14.188,14.188,0,0,1,387.4,308.6Zm-26.9,6.273a14.169,14.169,0,0,1,11.3-20.4,13.794,13.794,0,0,1,1.422-.067h.5a13.439,13.439,0,0,1,1.767.192v22.276a.48.48,0,0,1-.48.48H362.069q-.231-.288-.432-.576a14.334,14.334,0,0,1-1.153-1.9Z" transform="translate(-276.75 -238.503)" fill="#12263f"/>
    </g>
  </g>
</svg>
