<svg xmlns="http://www.w3.org/2000/svg" xmlns:xlink="http://www.w3.org/1999/xlink" width="85" height="85" viewBox="0 0 85 85">
  <defs>
    <clipPath id="clip-path">
      <rect id="Rectángulo_66933" data-name="Rectángulo 66933" width="85" height="85" transform="translate(702 7789)" fill="#fff" stroke="#707070" stroke-width="1"/>
    </clipPath>
  </defs>
  <g id="Enmascarar_grupo_70" data-name="Enmascarar grupo 70" transform="translate(-702 -7789)" clip-path="url(#clip-path)">
    <g id="gusano" transform="translate(702 7789)">
      <g id="Grupo_878764" data-name="Grupo 878764">
        <path id="Trazado_200726" data-name="Trazado 200726" d="M80.518,71.493H4.482a3.32,3.32,0,0,1-3.32-3.32V16.827a3.32,3.32,0,0,1,3.32-3.32H42.5L49.146,26.8H83.838V68.17a3.32,3.32,0,0,1-3.32,3.323Z" fill="#f4d844"/>
        <path id="Trazado_200727" data-name="Trazado 200727" d="M34.365,25.566a3.984,3.984,0,0,1-3.984,3.984h-7.6a5.429,5.429,0,0,0-4.542,2.444,4.8,4.8,0,0,0-.664,1.561,4.582,4.582,0,0,0-.126.81,5.2,5.2,0,0,0,.12,1.514,4.914,4.914,0,0,0,.657,1.574,5.093,5.093,0,0,0,1.64,1.64,4.914,4.914,0,0,0,1.574.657,5.153,5.153,0,0,0,1.162.133h7.57v7.969H22.917a12.147,12.147,0,0,1-1.481-.086,13.591,13.591,0,0,1-7.205-3.035,13.247,13.247,0,0,1-1.66-1.627,12.823,12.823,0,0,1-3.061-7.225q-.03-.329-.04-.657a12.61,12.61,0,0,1,.046-1.667A13.022,13.022,0,0,1,12.531,26.3a12.862,12.862,0,0,1,1.647-1.647,13.042,13.042,0,0,1,7.258-3.015c.385-.033.77-.053,1.162-.053h7.783A3.984,3.984,0,0,1,34.365,25.566Z" fill="#94e0da"/>
        <path id="Trazado_200728" data-name="Trazado 200728" d="M72.7,52.62c-.007.232-.027.465-.046.691a11.943,11.943,0,0,1-2.8,6.607A12.352,12.352,0,0,1,68.2,61.545a12.71,12.71,0,0,1-6.594,2.782,11.821,11.821,0,0,1-1.461.086H31.583a3.528,3.528,0,0,1-3.526-3.526v-.916a3.528,3.528,0,0,1,3.526-3.526H60.3a4.555,4.555,0,0,0,3.891-2.191,4.216,4.216,0,0,0,.392-.943,3.537,3.537,0,0,0,.126-.6,4.15,4.15,0,0,0-.133-1.727,3.862,3.862,0,0,0-.385-.936,4.387,4.387,0,0,0-1.64-1.647,3.909,3.909,0,0,0-.943-.385,3.966,3.966,0,0,0-1.162-.166h-7.57V39.884h7.57a11.254,11.254,0,0,1,1.162.06A12.24,12.24,0,0,1,68.259,42.7a13.2,13.2,0,0,1,1.64,1.64,12.191,12.191,0,0,1,2.749,6.647A11.136,11.136,0,0,1,72.7,52.62Z" fill="#94e0da"/>
        <path id="Trazado_200729" data-name="Trazado 200729" d="M45.488,19.48H80.518a3.32,3.32,0,0,1,3.32,3.32v4H49.146Z" fill="#de6246"/>
        <g id="Grupo_878763" data-name="Grupo 878763">
          <path id="Trazado_200730" data-name="Trazado 200730" d="M30.168,51.713a1.161,1.161,0,0,1-1.162-1.162V37.188a1.162,1.162,0,0,1,2.324,0V50.551a1.161,1.161,0,0,1-1.162,1.162Z" fill="#607880"/>
          <path id="Trazado_200731" data-name="Trazado 200731" d="M52.876,51.713a1.161,1.161,0,0,1-1.162-1.162V37.188a1.162,1.162,0,0,1,2.324,0V50.551a1.161,1.161,0,0,1-1.162,1.162Z" fill="#607880"/>
          <g id="Grupo_878761" data-name="Grupo 878761">
            <path id="Trazado_200732" data-name="Trazado 200732" d="M61.605,39.943v8.075a3.966,3.966,0,0,0-1.162-.166H59.281V39.884h1.162a11.255,11.255,0,0,1,1.162.06Z" fill="#607880"/>
            <path id="Trazado_200733" data-name="Trazado 200733" d="M61.605,56.253v8.075a11.819,11.819,0,0,1-1.461.086h-.863V56.445H60.3a4.519,4.519,0,0,0,1.308-.193Z" fill="#607880"/>
            <path id="Trazado_200734" data-name="Trazado 200734" d="M69.9,44.339,64.188,50.05a4.387,4.387,0,0,0-1.64-1.647l5.711-5.7a13.2,13.2,0,0,1,1.64,1.64Z" fill="#607880"/>
            <path id="Trazado_200735" data-name="Trazado 200735" d="M69.853,59.918A12.352,12.352,0,0,1,68.2,61.545l-5.678-5.678a4.42,4.42,0,0,0,1.667-1.614Z" fill="#607880"/>
            <path id="Trazado_200736" data-name="Trazado 200736" d="M72.7,52.62c-.007.232-.027.465-.046.691H64.58a3.537,3.537,0,0,0,.126-.6,4.15,4.15,0,0,0-.133-1.727h8.075A11.136,11.136,0,0,1,72.7,52.62Z" fill="#607880"/>
            <path id="Trazado_200737" data-name="Trazado 200737" d="M36.577,56.445H38.9v7.969H36.577Z" fill="#607880"/>
            <path id="Trazado_200738" data-name="Trazado 200738" d="M44.147,56.445h2.324v7.969H44.147Z" fill="#607880"/>
            <path id="Trazado_200739" data-name="Trazado 200739" d="M51.717,56.445h2.324v7.969H51.717Z" fill="#607880"/>
          </g>
          <g id="Grupo_878762" data-name="Grupo 878762">
            <path id="Trazado_200740" data-name="Trazado 200740" d="M19.9,30.374a5.3,5.3,0,0,0-1.66,1.62l-5.7-5.7a12.862,12.862,0,0,1,1.647-1.647Z" fill="#607880"/>
            <path id="Trazado_200741" data-name="Trazado 200741" d="M17.445,34.365a5.2,5.2,0,0,0,.12,1.514H9.509q-.03-.329-.04-.657a12.61,12.61,0,0,1,.046-1.667h8.055a4.582,4.582,0,0,0-.126.81Z" fill="#607880"/>
            <path id="Trazado_200742" data-name="Trazado 200742" d="M19.862,39.093l-5.631,5.638a13.247,13.247,0,0,1-1.66-1.627l5.651-5.651a5.093,5.093,0,0,0,1.64,1.64Z" fill="#607880"/>
            <path id="Trazado_200743" data-name="Trazado 200743" d="M23.76,21.582v7.969h-.983a5.3,5.3,0,0,0-1.34.172V21.635c.385-.033.77-.053,1.162-.053Z" fill="#607880"/>
            <path id="Trazado_200744" data-name="Trazado 200744" d="M23.76,39.884v7.969h-.843a12.147,12.147,0,0,1-1.481-.086V39.751a5.152,5.152,0,0,0,1.162.133Z" fill="#607880"/>
          </g>
        </g>
      </g>
      <g id="Grupo_878765" data-name="Grupo 878765">
        <path id="Trazado_200745" data-name="Trazado 200745" d="M80.518,18.318h-6.7a1.162,1.162,0,0,0,0,2.324h6.7A2.161,2.161,0,0,1,82.676,22.8v2.832H49.864l-2.5-4.994h7.2a1.162,1.162,0,1,0,0-2.324H46.2l-2.666-5.33a1.161,1.161,0,0,0-1.039-.639H4.482A4.488,4.488,0,0,0,0,16.827v48.03a1.162,1.162,0,1,0,2.324,0V16.827a2.161,2.161,0,0,1,2.158-2.158h37.3L44.446,20l3.659,7.319a1.163,1.163,0,0,0,1.04.642H82.676V68.173a2.161,2.161,0,0,1-2.158,2.158H7.748a1.162,1.162,0,0,0,0,2.324h72.77A4.488,4.488,0,0,0,85,68.173V22.8A4.488,4.488,0,0,0,80.518,18.318Z"/>
        <path id="Trazado_200746" data-name="Trazado 200746" d="M62.754,20.642h2.877a1.162,1.162,0,1,0,0-2.324H62.754a1.162,1.162,0,0,0,0,2.324Z"/>
        <path id="Trazado_200747" data-name="Trazado 200747" d="M30.384,20.42H22.6A14.313,14.313,0,0,0,8.311,35.266,14.593,14.593,0,0,0,22.921,49.016h6.085v1.535a1.162,1.162,0,1,0,2.324,0V37.188a1.162,1.162,0,0,0-2.324,0v1.536H22.6a4.011,4.011,0,0,1-3.995-4.28,4.111,4.111,0,0,1,4.174-3.731h7.606a5.146,5.146,0,0,0,0-10.293ZM13.362,27.127,17.4,31.162a6.143,6.143,0,0,0-1.017,2.391h-5.69a11.82,11.82,0,0,1,2.67-6.429Zm.058,15.128A11.688,11.688,0,0,1,10.7,35.88h5.685a6.21,6.21,0,0,0,1,2.41Zm15.586,4.44H23.759V41.05h5.246Zm-7.57-5.759V46.6a12.444,12.444,0,0,1-6.361-2.713l3.948-3.948a6.355,6.355,0,0,0,2.414,1Zm-2.377-11.4L15,25.477A11.816,11.816,0,0,1,21.436,22.8v5.726a6.585,6.585,0,0,0-2.377,1.006Zm11.325-1.146H23.76V22.744h6.623a2.822,2.822,0,1,1,0,5.645Z"/>
        <path id="Trazado_200748" data-name="Trazado 200748" d="M60.3,55.283H31.584a4.7,4.7,0,0,0-4.69,4.69v.913a4.7,4.7,0,0,0,4.69,4.69H60.143A13.7,13.7,0,0,0,73.862,52.667,13.44,13.44,0,0,0,60.448,38.721h-6.41V37.187a1.162,1.162,0,0,0-2.324,0V50.551a1.162,1.162,0,0,0,2.324,0V49.016h6.407a3.14,3.14,0,0,1,3.106,3.551A3.219,3.219,0,0,1,60.3,55.283Zm1.311-14.174a10.953,10.953,0,0,1,5.815,2.421l-4.034,4.034a5.466,5.466,0,0,0-1.782-.748Zm9.865,12.2a10.831,10.831,0,0,1-2.465,5.757l-3.984-3.98a5.261,5.261,0,0,0,.75-1.777Zm-8.107,3.4L67.351,60.7A11.549,11.549,0,0,1,61.6,63.144V57.451A5.67,5.67,0,0,0,63.366,56.715Zm-16.9.893h5.246v5.645H46.469Zm-2.324,5.645H38.9V57.607h5.246Zm9.895-5.645h5.246v5.645H54.039ZM29.219,60.887v-.913a2.368,2.368,0,0,1,2.365-2.366h4.99v5.645h-4.99A2.368,2.368,0,0,1,29.219,60.887Zm42.256-9.9h-5.7a5.467,5.467,0,0,0-.739-1.781l4.035-4.035A10.946,10.946,0,0,1,71.474,50.988Zm-17.436-9.94h5.246v5.645H54.038Z"/>
      </g>
    </g>
  </g>
</svg>
