<svg xmlns="http://www.w3.org/2000/svg" width="400" height="348.566" viewBox="0 0 400 348.566">
  <g id="Grupo_878921" data-name="Grupo 878921" transform="translate(-61.497 -76.032)">
    <g id="Grupo_878894" data-name="Grupo 878894" transform="translate(61.497 88.149)">
      <g id="Grupo_878893" data-name="Grupo 878893">
        <g id="Grupo_878892" data-name="Grupo 878892">
          <path id="Trazado_200781" data-name="Trazado 200781" d="M400.691,313.9l-.055,4.384c-.358,2.969-2.691,6.054-6.923,8.508l-113.6,65.366a26.972,26.972,0,0,1-6.567,2.69c-6.609,1.9-14.125,1.78-19.666-.435a20.118,20.118,0,0,1-2.295-1.068L66.484,286.431c-3.323-1.9-4.945-4.47-4.945-7.12H61.5l.12-7.12,3.759,2.772a21.782,21.782,0,0,1,3.125-2.216l113.6-65.365c8.467-4.868,21.247-5.421,28.568-1.189l123.215,71.144,61.883,35.729c.12.078.239.159.357.24Z" transform="translate(-61.497 -59.731)" fill="#b3b3b3"/>
          <path id="Trazado_200782" data-name="Trazado 200782" d="M362.019,298.455l-.078,6.327c-.358,2.969-2.691,6.054-6.923,8.508l-113.6,65.366a26.972,26.972,0,0,1-6.567,2.69V263.833h60.341l61.883,35.729c.12.078.239.159.357.24Z" transform="translate(-22.802 -46.228)" fill="#4d4d4d"/>
          <g id="Grupo_878772" data-name="Grupo 878772" transform="translate(238.74 310.011)">
            <path id="Trazado_200783" data-name="Trazado 200783" d="M265.766,344.763l-9.1,5.265v-5.387l9.1-5.266Z" transform="translate(-256.671 -339.376)" fill="#303030"/>
            <path id="Trazado_200784" data-name="Trazado 200784" d="M264.746,344.206v-4.24l1.02-.589v5.387l-9.1,5.265v-1.147Z" transform="translate(-256.671 -339.376)" fill="#f9f9f9"/>
            <path id="Trazado_200785" data-name="Trazado 200785" d="M263.273,344.206l1.02.558v-5.387l-1.02.589Z" transform="translate(-255.197 -339.376)" fill="#dcdedd"/>
            <path id="Trazado_200786" data-name="Trazado 200786" d="M264.746,343.594l-3.472-1.477-4.6,2.687v3.466Z" transform="translate(-256.671 -338.765)" fill="#666"/>
            <path id="Trazado_200787" data-name="Trazado 200787" d="M260.436,342.621l-.011-.752,3.483-2.011v4.24Z" transform="translate(-255.833 -339.269)" fill="#404040"/>
          </g>
          <path id="Trazado_200788" data-name="Trazado 200788" d="M218.77,343.978V363.02c5.53,2.226,13.054,2.318,19.684.435V343.978Z" transform="translate(-26.391 -28.338)" fill="#999"/>
          <path id="Trazado_200789" data-name="Trazado 200789" d="M66.466,282.122,251.578,389c7.318,4.221,20.1,3.694,28.54-1.191l81.876-47.122,31.728-18.261a15.628,15.628,0,0,0,5.9-5.484c2.249-3.944,1.032-8.165-3.852-10.988L210.65,199.076c-7.316-4.221-20.1-3.7-28.538,1.191L68.506,265.627c-.5.3-.985.6-1.445.917C59.974,271.385,59.583,278.152,66.466,282.122Z" transform="translate(-61.492 -61.319)" fill="#f2f2f2"/>
          <g id="Grupo_878773" data-name="Grupo 878773" transform="translate(60.221 214.143)">
            <path id="Trazado_200790" data-name="Trazado 200790" d="M190.4,335.56l-79.672-46L160.2,261l79.672,46Z" transform="translate(-110.728 -261.003)" fill="#f0f0f0"/>
            <path id="Trazado_200791" data-name="Trazado 200791" d="M160.2,263.727l77.314,44.636L239.868,307,160.2,261l-49.467,28.558,2.359,1.362Z" transform="translate(-110.729 -261.003)" fill="#dcdedd"/>
            <path id="Trazado_200792" data-name="Trazado 200792" d="M160.2,263.727V261l-49.467,28.558,2.359,1.362Z" transform="translate(-110.729 -261.003)" fill="gray"/>
          </g>
          <g id="Grupo_878887" data-name="Grupo 878887" transform="translate(69.686 142.862)">
            <g id="Grupo_878775" data-name="Grupo 878775" transform="translate(176.868 134.27)">
              <path id="Trazado_200793" data-name="Trazado 200793" d="M274.427,313.918l-9.531,5.471,9.574,5.508.771,1.532,2.247.2,9.531-5.472Z" transform="translate(-262.649 -312.18)" fill="#ccc"/>
              <g id="Grupo_878774" data-name="Grupo 878774">
                <path id="Trazado_200794" data-name="Trazado 200794" d="M275.651,325.214l-12.592-7.244,9.532-5.473,12.593,7.245Z" transform="translate(-263.059 -312.497)" fill="#999"/>
                <path id="Trazado_200795" data-name="Trazado 200795" d="M275.651,323.594l-12-6.9-.6.343,12.592,7.244,9.533-5.471-.6-.342Z" transform="translate(-263.059 -311.561)" fill="#fff"/>
                <path id="Trazado_200796" data-name="Trazado 200796" d="M282.886,318.42v1.532l-9.533,5.472v-1.532Z" transform="translate(-260.761 -311.175)" fill="#1a1a1a"/>
                <path id="Trazado_200797" data-name="Trazado 200797" d="M263.059,316.971V318.5l12.592,7.245v-1.532Z" transform="translate(-263.059 -311.498)" fill="#4d4d4d"/>
              </g>
            </g>
            <g id="Grupo_878777" data-name="Grupo 878777" transform="translate(160.168 124.541)">
              <path id="Trazado_200798" data-name="Trazado 200798" d="M260.773,305.963l-9.529,5.474,9.573,5.507.773,1.531,2.245.206,9.533-5.472Z" transform="translate(-248.996 -304.227)" fill="#ccc"/>
              <g id="Grupo_878776" data-name="Grupo 878776">
                <path id="Trazado_200799" data-name="Trazado 200799" d="M262,317.261l-12.593-7.244,9.532-5.473,12.592,7.246Z" transform="translate(-249.406 -304.543)" fill="#999"/>
                <path id="Trazado_200800" data-name="Trazado 200800" d="M262,315.639l-12-6.9-.6.342L262,316.324l9.531-5.471-.6-.343Z" transform="translate(-249.406 -303.607)" fill="#fff"/>
                <path id="Trazado_200801" data-name="Trazado 200801" d="M269.232,310.467V312L259.7,317.47v-1.532Z" transform="translate(-247.108 -303.221)" fill="#1a1a1a"/>
                <path id="Trazado_200802" data-name="Trazado 200802" d="M249.406,309.018v1.531L262,317.794v-1.532Z" transform="translate(-249.406 -303.545)" fill="#4d4d4d"/>
              </g>
            </g>
            <g id="Grupo_878779" data-name="Grupo 878779" transform="translate(143.467 114.813)">
              <path id="Trazado_200803" data-name="Trazado 200803" d="M247.121,298.009l-9.532,5.473,9.575,5.508.772,1.532,2.246.2,9.531-5.47Z" transform="translate(-235.343 -296.274)" fill="#ccc"/>
              <g id="Grupo_878778" data-name="Grupo 878778">
                <path id="Trazado_200804" data-name="Trazado 200804" d="M248.346,309.307l-12.593-7.244,9.532-5.472,12.593,7.245Z" transform="translate(-235.753 -296.591)" fill="#999"/>
                <path id="Trazado_200805" data-name="Trazado 200805" d="M248.346,307.685l-12-6.9-.6.342,12.593,7.244,9.532-5.47-.6-.344Z" transform="translate(-235.753 -295.655)" fill="#fff"/>
                <path id="Trazado_200806" data-name="Trazado 200806" d="M255.58,302.514v1.532l-9.532,5.47v-1.532Z" transform="translate(-233.455 -295.269)" fill="#1a1a1a"/>
                <path id="Trazado_200807" data-name="Trazado 200807" d="M235.753,301.064V302.6l12.593,7.245v-1.532Z" transform="translate(-235.753 -295.592)" fill="#4d4d4d"/>
              </g>
            </g>
            <g id="Grupo_878781" data-name="Grupo 878781" transform="translate(41.715 54.945)">
              <path id="Trazado_200808" data-name="Trazado 200808" d="M163.935,249.067l-9.532,5.472,9.575,5.508.773,1.532,2.245.2,9.533-5.47Z" transform="translate(-152.16 -247.331)" fill="#ccc"/>
              <g id="Grupo_878780" data-name="Grupo 878780">
                <path id="Trazado_200809" data-name="Trazado 200809" d="M165.161,260.364l-12.591-7.243,9.529-5.473,12.594,7.246Z" transform="translate(-152.57 -247.648)" fill="#999"/>
                <path id="Trazado_200810" data-name="Trazado 200810" d="M165.161,258.744l-12-6.9-.6.342,12.591,7.243,9.531-5.47-.595-.342Z" transform="translate(-152.57 -246.711)" fill="#fff"/>
                <path id="Trazado_200811" data-name="Trazado 200811" d="M172.394,253.571V255.1l-9.531,5.472v-1.534Z" transform="translate(-150.272 -246.326)" fill="#1a1a1a"/>
                <path id="Trazado_200812" data-name="Trazado 200812" d="M152.57,252.122v1.531l12.591,7.246v-1.534Z" transform="translate(-152.57 -246.649)" fill="#4d4d4d"/>
              </g>
            </g>
            <g id="Grupo_878783" data-name="Grupo 878783" transform="translate(25.013 45.218)">
              <path id="Trazado_200813" data-name="Trazado 200813" d="M150.282,241.114l-9.53,5.473,9.574,5.508.773,1.533,2.244.2,9.533-5.47Z" transform="translate(-138.505 -239.379)" fill="#ccc"/>
              <g id="Grupo_878782" data-name="Grupo 878782">
                <path id="Trazado_200814" data-name="Trazado 200814" d="M151.509,252.411l-12.594-7.244,9.532-5.471,12.592,7.244Z" transform="translate(-138.915 -239.696)" fill="#999"/>
                <path id="Trazado_200815" data-name="Trazado 200815" d="M151.509,250.791l-12-6.9-.6.343,12.594,7.244,9.53-5.472-.6-.343Z" transform="translate(-138.915 -238.76)" fill="#fff"/>
                <path id="Trazado_200816" data-name="Trazado 200816" d="M158.741,245.618v1.532l-9.53,5.473V251.09Z" transform="translate(-136.617 -238.374)" fill="#1a1a1a"/>
                <path id="Trazado_200817" data-name="Trazado 200817" d="M138.915,244.169V245.7l12.594,7.246v-1.533Z" transform="translate(-138.915 -238.697)" fill="#4d4d4d"/>
              </g>
            </g>
            <g id="Grupo_878785" data-name="Grupo 878785" transform="translate(0 30.742)">
              <path id="Trazado_200818" data-name="Trazado 200818" d="M129.833,229.28l-9.532,5.472,17.89,10.257.771,1.53,2.246.2,9.532-5.471Z" transform="translate(-118.057 -227.545)" fill="#ccc"/>
              <g id="Grupo_878784" data-name="Grupo 878784">
                <path id="Trazado_200819" data-name="Trazado 200819" d="M139.372,245.325l-20.906-11.992,9.53-5.471L148.9,239.854Z" transform="translate(-118.466 -227.862)" fill="#999"/>
                <path id="Trazado_200820" data-name="Trazado 200820" d="M139.372,243.7l-20.311-11.649-.6.344,20.906,11.992,9.532-5.472-.6-.344Z" transform="translate(-118.466 -226.926)" fill="#fff"/>
                <path id="Trazado_200821" data-name="Trazado 200821" d="M145.09,237.665V239.2l-9.532,5.471v-1.53Z" transform="translate(-114.652 -225.673)" fill="#1a1a1a"/>
                <path id="Trazado_200822" data-name="Trazado 200822" d="M118.466,232.335v1.531l20.906,11.992v-1.53Z" transform="translate(-118.466 -226.863)" fill="#4d4d4d"/>
              </g>
            </g>
            <g id="Grupo_878787" data-name="Grupo 878787" transform="translate(119.166 100.672)">
              <path id="Trazado_200823" data-name="Trazado 200823" d="M227.253,286.449l-9.53,5.472,17.175,9.921.773,1.532,2.246.2,9.53-5.471Z" transform="translate(-215.477 -284.714)" fill="#ccc"/>
              <g id="Grupo_878786" data-name="Grupo 878786">
                <path id="Trazado_200824" data-name="Trazado 200824" d="M236.079,302.159,215.887,290.5l9.53-5.471,20.194,11.657Z" transform="translate(-215.887 -285.03)" fill="#999"/>
                <path id="Trazado_200825" data-name="Trazado 200825" d="M236.081,300.538l-19.6-11.314-.6.341,20.194,11.657,9.53-5.471-.6-.343Z" transform="translate(-215.887 -284.094)" fill="#fff"/>
                <path id="Trazado_200826" data-name="Trazado 200826" d="M241.926,294.56v1.532l-9.532,5.471v-1.532Z" transform="translate(-212.202 -282.903)" fill="#1a1a1a"/>
                <path id="Trazado_200827" data-name="Trazado 200827" d="M215.887,289.5v1.532l20.193,11.657V301.16Z" transform="translate(-215.887 -284.032)" fill="#4d4d4d"/>
              </g>
            </g>
            <g id="Grupo_878811" data-name="Grupo 878811" transform="translate(14.644 22.352)">
              <g id="Grupo_878789" data-name="Grupo 878789" transform="translate(83.594 48.704)">
                <path id="Trazado_200828" data-name="Trazado 200828" d="M210.146,262.239l-9.53,5.471,9.574,5.509.773,1.531,2.246.2,9.531-5.472Z" transform="translate(-198.368 -260.503)" fill="#ccc"/>
                <g id="Grupo_878788" data-name="Grupo 878788">
                  <path id="Trazado_200829" data-name="Trazado 200829" d="M211.372,273.536l-12.595-7.246,9.532-5.471,12.593,7.244Z" transform="translate(-198.778 -260.819)" fill="#999"/>
                  <path id="Trazado_200830" data-name="Trazado 200830" d="M211.372,271.915l-12-6.9-.6.342,12.595,7.246,9.53-5.472-.6-.344Z" transform="translate(-198.778 -259.883)" fill="#fff"/>
                  <path id="Trazado_200831" data-name="Trazado 200831" d="M218.6,266.742v1.532l-9.53,5.471v-1.531Z" transform="translate(-196.48 -259.497)" fill="#1a1a1a"/>
                  <path id="Trazado_200832" data-name="Trazado 200832" d="M198.778,265.292v1.532l12.595,7.245v-1.531Z" transform="translate(-198.778 -259.821)" fill="#4d4d4d"/>
                </g>
              </g>
              <g id="Grupo_878810" data-name="Grupo 878810">
                <g id="Grupo_878791" data-name="Grupo 878791" transform="translate(150.423 87.483)">
                  <path id="Trazado_200833" data-name="Trazado 200833" d="M264.778,293.942l-9.531,5.47,9.573,5.508.773,1.532,2.247.2,9.53-5.471Z" transform="translate(-253.002 -292.204)" fill="#ccc"/>
                  <g id="Grupo_878790" data-name="Grupo 878790">
                    <path id="Trazado_200834" data-name="Trazado 200834" d="M266,305.237l-12.592-7.244,9.532-5.471,12.593,7.245Z" transform="translate(-253.412 -292.521)" fill="#999"/>
                    <path id="Trazado_200835" data-name="Trazado 200835" d="M266,303.618l-12-6.9-.6.341L266,304.3l9.533-5.47-.6-.344Z" transform="translate(-253.412 -291.585)" fill="#fff"/>
                    <path id="Trazado_200836" data-name="Trazado 200836" d="M273.239,298.444v1.531l-9.533,5.471v-1.532Z" transform="translate(-251.114 -291.199)" fill="#1a1a1a"/>
                    <path id="Trazado_200837" data-name="Trazado 200837" d="M253.412,296.994v1.532L266,305.77v-1.532Z" transform="translate(-253.412 -291.523)" fill="#4d4d4d"/>
                  </g>
                </g>
                <g id="Grupo_878793" data-name="Grupo 878793" transform="translate(133.724 77.753)">
                  <path id="Trazado_200838" data-name="Trazado 200838" d="M251.125,285.986l-9.529,5.472,9.572,5.509.773,1.532,2.246.205,9.53-5.473Z" transform="translate(-239.35 -284.251)" fill="#ccc"/>
                  <g id="Grupo_878792" data-name="Grupo 878792">
                    <path id="Trazado_200839" data-name="Trazado 200839" d="M252.352,297.285,239.76,290.04l9.531-5.473,12.593,7.245Z" transform="translate(-239.76 -284.567)" fill="#999"/>
                    <path id="Trazado_200840" data-name="Trazado 200840" d="M252.352,295.662l-12-6.9-.6.344,12.592,7.244,9.532-5.471-.6-.343Z" transform="translate(-239.76 -283.632)" fill="#fff"/>
                    <path id="Trazado_200841" data-name="Trazado 200841" d="M259.586,290.491v1.53l-9.532,5.473v-1.531Z" transform="translate(-237.462 -283.245)" fill="#1a1a1a"/>
                    <path id="Trazado_200842" data-name="Trazado 200842" d="M239.76,289.042v1.529l12.592,7.246v-1.531Z" transform="translate(-239.76 -283.569)" fill="#4d4d4d"/>
                  </g>
                </g>
                <g id="Grupo_878795" data-name="Grupo 878795" transform="translate(117.023 68.025)">
                  <path id="Trazado_200843" data-name="Trazado 200843" d="M237.472,278.033l-9.53,5.473,9.575,5.508.772,1.531,2.245.206,9.532-5.473Z" transform="translate(-225.697 -276.297)" fill="#ccc"/>
                  <g id="Grupo_878794" data-name="Grupo 878794">
                    <path id="Trazado_200844" data-name="Trazado 200844" d="M238.7,289.331l-12.593-7.245,9.531-5.471,12.593,7.244Z" transform="translate(-226.106 -276.614)" fill="#999"/>
                    <path id="Trazado_200845" data-name="Trazado 200845" d="M238.7,287.709l-12-6.9-.6.342,12.593,7.245,9.531-5.473-.6-.343Z" transform="translate(-226.106 -275.678)" fill="#fff"/>
                    <path id="Trazado_200846" data-name="Trazado 200846" d="M245.932,282.536v1.533l-9.531,5.47v-1.531Z" transform="translate(-223.808 -275.292)" fill="#1a1a1a"/>
                    <path id="Trazado_200847" data-name="Trazado 200847" d="M226.106,281.087v1.532l12.593,7.244v-1.531Z" transform="translate(-226.106 -275.616)" fill="#4d4d4d"/>
                  </g>
                </g>
                <g id="Grupo_878797" data-name="Grupo 878797" transform="translate(100.296 58.433)">
                  <path id="Trazado_200848" data-name="Trazado 200848" d="M223.8,270.191l-9.531,5.472,9.574,5.509.772,1.533,2.246.2,9.532-5.47Z" transform="translate(-212.022 -268.456)" fill="#ccc"/>
                  <g id="Grupo_878796" data-name="Grupo 878796">
                    <path id="Trazado_200849" data-name="Trazado 200849" d="M225.024,281.489l-12.592-7.244,9.532-5.473,12.592,7.243Z" transform="translate(-212.432 -268.773)" fill="#999"/>
                    <path id="Trazado_200850" data-name="Trazado 200850" d="M225.024,279.868l-12-6.9-.6.342,12.592,7.245,9.532-5.473-.6-.342Z" transform="translate(-212.432 -267.837)" fill="#fff"/>
                    <path id="Trazado_200851" data-name="Trazado 200851" d="M232.258,274.694v1.533l-9.532,5.472v-1.533Z" transform="translate(-210.134 -267.451)" fill="#1a1a1a"/>
                    <path id="Trazado_200852" data-name="Trazado 200852" d="M212.432,273.247v1.53l12.592,7.246V280.49Z" transform="translate(-212.432 -267.774)" fill="#4d4d4d"/>
                  </g>
                </g>
                <g id="Grupo_878799" data-name="Grupo 878799" transform="translate(66.895 38.974)">
                  <path id="Trazado_200853" data-name="Trazado 200853" d="M196.494,254.285l-9.532,5.471,9.574,5.51.773,1.532,2.247.2,9.53-5.473Z" transform="translate(-184.717 -252.548)" fill="#ccc"/>
                  <g id="Grupo_878798" data-name="Grupo 878798">
                    <path id="Trazado_200854" data-name="Trazado 200854" d="M197.718,265.583l-12.592-7.245,9.531-5.473,12.593,7.245Z" transform="translate(-185.126 -252.865)" fill="#999"/>
                    <path id="Trazado_200855" data-name="Trazado 200855" d="M197.718,263.961l-12-6.9-.6.343,12.592,7.245,9.532-5.473-.6-.342Z" transform="translate(-185.126 -251.929)" fill="#fff"/>
                    <path id="Trazado_200856" data-name="Trazado 200856" d="M204.953,258.788v1.532l-9.532,5.473v-1.532Z" transform="translate(-182.829 -251.543)" fill="#1a1a1a"/>
                    <path id="Trazado_200857" data-name="Trazado 200857" d="M185.126,257.339v1.531l12.592,7.246v-1.532Z" transform="translate(-185.126 -251.866)" fill="#4d4d4d"/>
                  </g>
                </g>
                <g id="Grupo_878801" data-name="Grupo 878801" transform="translate(49.085 29.114)">
                  <path id="Trazado_200858" data-name="Trazado 200858" d="M181.932,246.223,172.4,251.7l9.575,5.508.772,1.533,2.247.2,9.53-5.473Z" transform="translate(-170.157 -244.488)" fill="#ccc"/>
                  <g id="Grupo_878800" data-name="Grupo 878800">
                    <path id="Trazado_200859" data-name="Trazado 200859" d="M183.157,257.521l-12.59-7.244L180.1,244.8l12.594,7.244Z" transform="translate(-170.567 -244.804)" fill="#999"/>
                    <path id="Trazado_200860" data-name="Trazado 200860" d="M183.157,255.9l-12-6.9-.6.344,12.59,7.244,9.534-5.473-.6-.342Z" transform="translate(-170.567 -243.868)" fill="#fff"/>
                    <path id="Trazado_200861" data-name="Trazado 200861" d="M190.393,250.726v1.533l-9.534,5.473V256.2Z" transform="translate(-168.269 -243.482)" fill="#1a1a1a"/>
                    <path id="Trazado_200862" data-name="Trazado 200862" d="M170.567,249.278v1.531l12.59,7.247v-1.533Z" transform="translate(-170.567 -243.806)" fill="#4d4d4d"/>
                  </g>
                </g>
                <g id="Grupo_878803" data-name="Grupo 878803" transform="translate(32.384 19.385)">
                  <path id="Trazado_200863" data-name="Trazado 200863" d="M168.28,238.27l-9.531,5.473,9.574,5.508.773,1.531,2.246.206,9.531-5.473Z" transform="translate(-156.503 -236.534)" fill="#ccc"/>
                  <g id="Grupo_878802" data-name="Grupo 878802">
                    <path id="Trazado_200864" data-name="Trazado 200864" d="M169.505,249.568l-12.592-7.246,9.53-5.471,12.594,7.246Z" transform="translate(-156.913 -236.85)" fill="#999"/>
                    <path id="Trazado_200865" data-name="Trazado 200865" d="M169.505,247.946l-12-6.9-.6.342,12.592,7.246,9.532-5.471-.6-.344Z" transform="translate(-156.913 -235.914)" fill="#fff"/>
                    <path id="Trazado_200866" data-name="Trazado 200866" d="M176.739,242.774V244.3l-9.532,5.473v-1.531Z" transform="translate(-154.615 -235.528)" fill="#1a1a1a"/>
                    <path id="Trazado_200867" data-name="Trazado 200867" d="M156.913,241.323v1.533l12.592,7.244v-1.531Z" transform="translate(-156.913 -235.852)" fill="#4d4d4d"/>
                  </g>
                </g>
                <g id="Grupo_878805" data-name="Grupo 878805" transform="translate(16.091 9.831)">
                  <path id="Trazado_200868" data-name="Trazado 200868" d="M154.96,230.46l-9.532,5.471,9.575,5.51.773,1.53,2.244.208,9.533-5.474Z" transform="translate(-143.184 -228.723)" fill="#ccc"/>
                  <g id="Grupo_878804" data-name="Grupo 878804">
                    <path id="Trazado_200869" data-name="Trazado 200869" d="M156.187,241.758l-12.594-7.245,9.531-5.472,12.592,7.245Z" transform="translate(-143.593 -229.04)" fill="#999"/>
                    <path id="Trazado_200870" data-name="Trazado 200870" d="M156.187,240.137l-12-6.9-.6.342,12.594,7.245,9.529-5.472-.6-.344Z" transform="translate(-143.593 -228.104)" fill="#fff"/>
                    <path id="Trazado_200871" data-name="Trazado 200871" d="M163.418,234.963v1.532l-9.529,5.47v-1.53Z" transform="translate(-141.295 -227.718)" fill="#1a1a1a"/>
                    <path id="Trazado_200872" data-name="Trazado 200872" d="M143.593,233.514v1.532l12.594,7.243v-1.53Z" transform="translate(-143.593 -228.041)" fill="#4d4d4d"/>
                  </g>
                </g>
                <g id="Grupo_878807" data-name="Grupo 878807">
                  <path id="Trazado_200873" data-name="Trazado 200873" d="M141.8,222.422l-9.529,5.473,9.573,5.507.773,1.532,2.247.2,9.53-5.47Z" transform="translate(-130.029 -220.686)" fill="#ccc"/>
                  <g id="Grupo_878806" data-name="Grupo 878806">
                    <path id="Trazado_200874" data-name="Trazado 200874" d="M143.03,233.719l-12.592-7.244L139.97,221l12.593,7.245Z" transform="translate(-130.439 -221.003)" fill="#999"/>
                    <path id="Trazado_200875" data-name="Trazado 200875" d="M143.03,232.1l-12-6.9-.6.343,12.592,7.244,9.532-5.47-.6-.343Z" transform="translate(-130.439 -220.067)" fill="#fff"/>
                    <path id="Trazado_200876" data-name="Trazado 200876" d="M150.265,226.926v1.53l-9.532,5.473V232.4Z" transform="translate(-128.141 -219.681)" fill="#1a1a1a"/>
                    <path id="Trazado_200877" data-name="Trazado 200877" d="M130.439,225.476v1.532l12.592,7.244V232.72Z" transform="translate(-130.439 -220.004)" fill="#4d4d4d"/>
                  </g>
                </g>
                <g id="Grupo_878809" data-name="Grupo 878809" transform="translate(169.16 98.183)">
                  <path id="Trazado_200878" data-name="Trazado 200878" d="M280.1,302.688l-9.532,5.471,17.177,9.921.773,1.532,2.243.2,9.533-5.473Z" transform="translate(-268.32 -300.952)" fill="#ccc"/>
                  <g id="Grupo_878808" data-name="Grupo 878808">
                    <path id="Trazado_200879" data-name="Trazado 200879" d="M288.923,318.4l-20.194-11.658,9.53-5.471,20.194,11.656Z" transform="translate(-268.729 -301.269)" fill="#999"/>
                    <path id="Trazado_200880" data-name="Trazado 200880" d="M288.923,316.776l-19.6-11.315-.6.341,20.194,11.658,9.53-5.472-.6-.343Z" transform="translate(-268.729 -300.333)" fill="#fff"/>
                    <path id="Trazado_200881" data-name="Trazado 200881" d="M294.769,310.8v1.532l-9.53,5.471V316.27Z" transform="translate(-265.044 -299.142)" fill="#1a1a1a"/>
                    <path id="Trazado_200882" data-name="Trazado 200882" d="M268.729,305.741v1.532l20.194,11.657V317.4Z" transform="translate(-268.729 -300.27)" fill="#4d4d4d"/>
                  </g>
                </g>
              </g>
            </g>
            <g id="Grupo_878884" data-name="Grupo 878884" transform="translate(28.697)">
              <g id="Grupo_878813" data-name="Grupo 878813" transform="translate(83.596 62.254)">
                <path id="Trazado_200883" data-name="Trazado 200883" d="M221.635,255.042l-9.53,5.472,9.574,5.508.773,1.532,2.244.2,9.532-5.471Z" transform="translate(-209.858 -253.306)" fill="#ccc"/>
                <g id="Grupo_878812" data-name="Grupo 878812">
                  <path id="Trazado_200884" data-name="Trazado 200884" d="M222.862,266.339l-12.595-7.245,9.532-5.472,12.592,7.246Z" transform="translate(-210.268 -253.623)" fill="#999"/>
                  <path id="Trazado_200885" data-name="Trazado 200885" d="M222.862,264.718l-12-6.9-.6.343,12.595,7.245,9.529-5.47-.6-.344Z" transform="translate(-210.268 -252.687)" fill="#fff"/>
                  <path id="Trazado_200886" data-name="Trazado 200886" d="M230.093,259.547v1.531l-9.529,5.471v-1.532Z" transform="translate(-207.969 -252.301)" fill="#1a1a1a"/>
                  <path id="Trazado_200887" data-name="Trazado 200887" d="M210.268,258.1v1.532l12.595,7.245v-1.532Z" transform="translate(-210.268 -252.624)" fill="#4d4d4d"/>
                </g>
              </g>
              <g id="Grupo_878883" data-name="Grupo 878883">
                <g id="Grupo_878815" data-name="Grupo 878815" transform="translate(149.403 100.672)">
                  <path id="Trazado_200888" data-name="Trazado 200888" d="M275.432,286.449l-9.531,5.472,9.574,5.509.774,1.531,2.246.206,9.532-5.473Z" transform="translate(-263.657 -284.714)" fill="#ccc"/>
                  <g id="Grupo_878814" data-name="Grupo 878814">
                    <path id="Trazado_200889" data-name="Trazado 200889" d="M276.658,297.747,264.066,290.5l9.53-5.471,12.593,7.244Z" transform="translate(-264.066 -285.03)" fill="#999"/>
                    <path id="Trazado_200890" data-name="Trazado 200890" d="M276.658,296.125l-12-6.9-.6.341,12.592,7.245,9.53-5.472-.6-.343Z" transform="translate(-264.066 -284.094)" fill="#fff"/>
                    <path id="Trazado_200891" data-name="Trazado 200891" d="M283.891,290.953v1.533l-9.53,5.47v-1.531Z" transform="translate(-261.768 -283.708)" fill="#1a1a1a"/>
                    <path id="Trazado_200892" data-name="Trazado 200892" d="M264.066,289.5v1.532l12.592,7.244v-1.531Z" transform="translate(-264.066 -284.032)" fill="#4d4d4d"/>
                  </g>
                </g>
                <g id="Grupo_878817" data-name="Grupo 878817" transform="translate(165.21 109.853)">
                  <path id="Trazado_200893" data-name="Trazado 200893" d="M288.356,293.956l-9.531,5.471,9.575,5.509.772,1.531,2.245.2,9.533-5.47Z" transform="translate(-276.578 -292.22)" fill="#ccc"/>
                  <g id="Grupo_878816" data-name="Grupo 878816">
                    <path id="Trazado_200894" data-name="Trazado 200894" d="M289.582,305.253l-12.592-7.245,9.53-5.471,12.593,7.244Z" transform="translate(-276.988 -292.536)" fill="#999"/>
                    <path id="Trazado_200895" data-name="Trazado 200895" d="M289.582,303.632l-12-6.9-.6.342,12.594,7.245,9.531-5.472-.6-.342Z" transform="translate(-276.988 -291.6)" fill="#fff"/>
                    <path id="Trazado_200896" data-name="Trazado 200896" d="M296.815,298.459v1.532l-9.531,5.472v-1.531Z" transform="translate(-274.69 -291.214)" fill="#1a1a1a"/>
                    <path id="Trazado_200897" data-name="Trazado 200897" d="M276.99,297.009v1.531l12.592,7.245v-1.531Z" transform="translate(-276.988 -291.538)" fill="#4d4d4d"/>
                  </g>
                </g>
                <g id="Grupo_878819" data-name="Grupo 878819" transform="translate(133.284 91.322)">
                  <path id="Trazado_200898" data-name="Trazado 200898" d="M262.256,278.806l-9.533,5.472,9.575,5.509.773,1.532,2.245.2,9.532-5.473Z" transform="translate(-250.479 -277.07)" fill="#ccc"/>
                  <g id="Grupo_878818" data-name="Grupo 878818">
                    <path id="Trazado_200899" data-name="Trazado 200899" d="M263.48,290.1l-12.591-7.244,9.529-5.473,12.595,7.246Z" transform="translate(-250.888 -277.387)" fill="#999"/>
                    <path id="Trazado_200900" data-name="Trazado 200900" d="M263.48,288.482l-12-6.9-.594.343,12.591,7.244,9.532-5.471-.6-.344Z" transform="translate(-250.888 -276.451)" fill="#fff"/>
                    <path id="Trazado_200901" data-name="Trazado 200901" d="M270.714,283.31v1.531l-9.532,5.471v-1.532Z" transform="translate(-248.591 -276.064)" fill="#1a1a1a"/>
                    <path id="Trazado_200902" data-name="Trazado 200902" d="M250.888,281.861v1.529l12.591,7.246V289.1Z" transform="translate(-250.888 -276.388)" fill="#4d4d4d"/>
                  </g>
                </g>
                <g id="Grupo_878821" data-name="Grupo 878821" transform="translate(117.023 81.576)">
                  <path id="Trazado_200903" data-name="Trazado 200903" d="M248.961,270.837l-9.529,5.473,9.574,5.508.772,1.532,2.245.2,9.531-5.471Z" transform="translate(-237.184 -269.103)" fill="#ccc"/>
                  <g id="Grupo_878820" data-name="Grupo 878820">
                    <path id="Trazado_200904" data-name="Trazado 200904" d="M250.189,282.134l-12.594-7.244,9.532-5.47,12.592,7.244Z" transform="translate(-237.594 -269.419)" fill="#999"/>
                    <path id="Trazado_200905" data-name="Trazado 200905" d="M250.189,280.513l-12-6.9-.6.339,12.594,7.246,9.53-5.471-.594-.344Z" transform="translate(-237.594 -268.483)" fill="#fff"/>
                    <path id="Trazado_200906" data-name="Trazado 200906" d="M257.42,275.341v1.532l-9.53,5.471v-1.532Z" transform="translate(-235.296 -268.097)" fill="#1a1a1a"/>
                    <path id="Trazado_200907" data-name="Trazado 200907" d="M237.594,273.891v1.532l12.594,7.244v-1.532Z" transform="translate(-237.594 -268.421)" fill="#4d4d4d"/>
                  </g>
                </g>
                <g id="Grupo_878823" data-name="Grupo 878823" transform="translate(100.297 71.982)">
                  <path id="Trazado_200908" data-name="Trazado 200908" d="M235.288,263l-9.53,5.473,9.574,5.508.773,1.533,2.246.2,9.532-5.472Z" transform="translate(-223.511 -261.259)" fill="#ccc"/>
                  <g id="Grupo_878822" data-name="Grupo 878822">
                    <path id="Trazado_200909" data-name="Trazado 200909" d="M236.514,274.293l-12.593-7.246,9.532-5.471,12.592,7.244Z" transform="translate(-223.921 -261.576)" fill="#999"/>
                    <path id="Trazado_200910" data-name="Trazado 200910" d="M236.514,272.673l-12-6.9-.6.342,12.593,7.246,9.531-5.473-.6-.342Z" transform="translate(-223.921 -260.64)" fill="#fff"/>
                    <path id="Trazado_200911" data-name="Trazado 200911" d="M243.747,267.5v1.533l-9.531,5.473v-1.533Z" transform="translate(-221.623 -260.254)" fill="#1a1a1a"/>
                    <path id="Trazado_200912" data-name="Trazado 200912" d="M223.921,266.049v1.533l12.593,7.246v-1.533Z" transform="translate(-223.921 -260.578)" fill="#4d4d4d"/>
                  </g>
                </g>
                <g id="Grupo_878825" data-name="Grupo 878825" transform="translate(66.896 52.525)">
                  <path id="Trazado_200913" data-name="Trazado 200913" d="M207.981,247.089l-9.529,5.47,9.573,5.51.774,1.533,2.245.2,9.53-5.471Z" transform="translate(-196.206 -245.353)" fill="#ccc"/>
                  <g id="Grupo_878824" data-name="Grupo 878824">
                    <path id="Trazado_200914" data-name="Trazado 200914" d="M209.208,258.386l-12.593-7.244,9.531-5.473,12.594,7.244Z" transform="translate(-196.615 -245.67)" fill="#999"/>
                    <path id="Trazado_200915" data-name="Trazado 200915" d="M209.208,256.766l-12-6.9-.6.344,12.593,7.244,9.532-5.473-.6-.341Z" transform="translate(-196.615 -244.734)" fill="#fff"/>
                    <path id="Trazado_200916" data-name="Trazado 200916" d="M216.442,251.591v1.532L206.91,258.6v-1.533Z" transform="translate(-194.317 -244.348)" fill="#1a1a1a"/>
                    <path id="Trazado_200917" data-name="Trazado 200917" d="M196.615,250.144v1.531l12.593,7.245v-1.533Z" transform="translate(-196.615 -244.671)" fill="#4d4d4d"/>
                  </g>
                </g>
                <g id="Grupo_878827" data-name="Grupo 878827" transform="translate(49.085 42.665)">
                  <path id="Trazado_200918" data-name="Trazado 200918" d="M193.42,239.029l-9.529,5.47,9.574,5.511.773,1.53,2.245.2,9.53-5.472Z" transform="translate(-181.644 -237.291)" fill="#ccc"/>
                  <g id="Grupo_878826" data-name="Grupo 878826">
                    <path id="Trazado_200919" data-name="Trazado 200919" d="M194.648,250.326l-12.594-7.246,9.531-5.472,12.594,7.245Z" transform="translate(-182.054 -237.608)" fill="#999"/>
                    <path id="Trazado_200920" data-name="Trazado 200920" d="M194.648,248.7l-12-6.9-.6.342,12.594,7.246,9.531-5.473-.6-.342Z" transform="translate(-182.054 -236.672)" fill="#fff"/>
                    <path id="Trazado_200921" data-name="Trazado 200921" d="M201.881,243.531v1.531l-9.531,5.471V249Z" transform="translate(-179.756 -236.286)" fill="#1a1a1a"/>
                    <path id="Trazado_200922" data-name="Trazado 200922" d="M182.054,242.082v1.531l12.594,7.244v-1.53Z" transform="translate(-182.054 -236.61)" fill="#4d4d4d"/>
                  </g>
                </g>
                <g id="Grupo_878829" data-name="Grupo 878829" transform="translate(32.384 32.934)">
                  <path id="Trazado_200923" data-name="Trazado 200923" d="M179.768,231.073l-9.53,5.473,9.574,5.508.772,1.531,2.246.205,9.534-5.471Z" transform="translate(-167.991 -229.337)" fill="#ccc"/>
                  <g id="Grupo_878828" data-name="Grupo 878828">
                    <path id="Trazado_200924" data-name="Trazado 200924" d="M180.993,242.372,168.4,235.127l9.533-5.473,12.591,7.247Z" transform="translate(-168.401 -229.654)" fill="#999"/>
                    <path id="Trazado_200925" data-name="Trazado 200925" d="M180.993,240.75l-12-6.9-.6.343,12.592,7.245,9.532-5.47-.6-.344Z" transform="translate(-168.401 -228.718)" fill="#fff"/>
                    <path id="Trazado_200926" data-name="Trazado 200926" d="M188.228,235.579v1.531l-9.532,5.47v-1.531Z" transform="translate(-166.104 -228.331)" fill="#1a1a1a"/>
                    <path id="Trazado_200927" data-name="Trazado 200927" d="M168.4,234.128v1.532l12.592,7.244v-1.531Z" transform="translate(-168.401 -228.655)" fill="#4d4d4d"/>
                  </g>
                </g>
                <g id="Grupo_878831" data-name="Grupo 878831" transform="translate(16.092 23.381)">
                  <path id="Trazado_200928" data-name="Trazado 200928" d="M166.45,223.263l-9.531,5.472,9.574,5.511.771,1.531,2.246.2,9.533-5.471Z" transform="translate(-154.672 -221.528)" fill="#ccc"/>
                  <g id="Grupo_878830" data-name="Grupo 878830">
                    <path id="Trazado_200929" data-name="Trazado 200929" d="M167.674,234.562l-12.592-7.246,9.532-5.471,12.593,7.245Z" transform="translate(-155.082 -221.844)" fill="#999"/>
                    <path id="Trazado_200930" data-name="Trazado 200930" d="M167.674,232.939l-11.995-6.9-.6.342,12.592,7.246,9.533-5.473-.6-.342Z" transform="translate(-155.082 -220.908)" fill="#fff"/>
                    <path id="Trazado_200931" data-name="Trazado 200931" d="M174.909,227.767V229.3l-9.533,5.473V233.24Z" transform="translate(-152.784 -220.522)" fill="#1a1a1a"/>
                    <path id="Trazado_200932" data-name="Trazado 200932" d="M155.082,226.317v1.531l12.592,7.247v-1.531Z" transform="translate(-155.082 -220.846)" fill="#4d4d4d"/>
                  </g>
                </g>
                <g id="Grupo_878833" data-name="Grupo 878833" transform="translate(0 13.551)">
                  <path id="Trazado_200933" data-name="Trazado 200933" d="M153.293,215.226l-9.529,5.472,9.573,5.509.773,1.532,2.245.2,9.532-5.472Z" transform="translate(-141.517 -213.491)" fill="#ccc"/>
                  <g id="Grupo_878832" data-name="Grupo 878832">
                    <path id="Trazado_200934" data-name="Trazado 200934" d="M154.52,226.523l-12.593-7.244,9.532-5.471,12.592,7.244Z" transform="translate(-141.927 -213.808)" fill="#999"/>
                    <path id="Trazado_200935" data-name="Trazado 200935" d="M154.52,224.9l-12-6.9-.6.342,12.593,7.245,9.531-5.472-.6-.342Z" transform="translate(-141.927 -212.872)" fill="#fff"/>
                    <path id="Trazado_200936" data-name="Trazado 200936" d="M161.753,219.73v1.533l-9.531,5.471V225.2Z" transform="translate(-139.629 -212.486)" fill="#1a1a1a"/>
                    <path id="Trazado_200937" data-name="Trazado 200937" d="M141.927,218.281v1.531l12.593,7.245v-1.532Z" transform="translate(-141.927 -212.809)" fill="#4d4d4d"/>
                  </g>
                </g>
                <g id="Grupo_878835" data-name="Grupo 878835" transform="translate(162.189 92.133)">
                  <path id="Trazado_200938" data-name="Trazado 200938" d="M285.886,279.469l-9.531,5.471,9.574,5.51.773,1.531,2.246.205,9.531-5.473Z" transform="translate(-274.109 -277.733)" fill="#ccc"/>
                  <g id="Grupo_878834" data-name="Grupo 878834">
                    <path id="Trazado_200939" data-name="Trazado 200939" d="M287.111,290.767l-12.592-7.244,9.53-5.473,12.595,7.246Z" transform="translate(-274.519 -278.05)" fill="#999"/>
                    <path id="Trazado_200940" data-name="Trazado 200940" d="M287.111,289.145l-12-6.9-.6.344,12.592,7.244,9.532-5.471-.6-.344Z" transform="translate(-274.519 -277.114)" fill="#fff"/>
                    <path id="Trazado_200941" data-name="Trazado 200941" d="M294.345,283.974V285.5l-9.532,5.473v-1.531Z" transform="translate(-272.221 -276.727)" fill="#1a1a1a"/>
                    <path id="Trazado_200942" data-name="Trazado 200942" d="M274.519,282.524v1.532l12.592,7.243v-1.531Z" transform="translate(-274.519 -277.051)" fill="#4d4d4d"/>
                  </g>
                </g>
                <g id="Grupo_878837" data-name="Grupo 878837" transform="translate(177.997 101.315)">
                  <path id="Trazado_200943" data-name="Trazado 200943" d="M298.81,286.975l-9.531,5.474,9.575,5.507.773,1.532,2.244.2,9.531-5.472Z" transform="translate(-287.032 -285.24)" fill="#ccc"/>
                  <g id="Grupo_878836" data-name="Grupo 878836">
                    <path id="Trazado_200944" data-name="Trazado 200944" d="M300.034,298.272l-12.592-7.244,9.533-5.472,12.591,7.244Z" transform="translate(-287.442 -285.556)" fill="#999"/>
                    <path id="Trazado_200945" data-name="Trazado 200945" d="M300.036,296.651l-12-6.9-.6.344,12.595,7.244,9.529-5.472-.6-.343Z" transform="translate(-287.442 -284.621)" fill="#fff"/>
                    <path id="Trazado_200946" data-name="Trazado 200946" d="M307.268,291.478v1.533l-9.532,5.47V296.95Z" transform="translate(-285.144 -284.235)" fill="#1a1a1a"/>
                    <path id="Trazado_200947" data-name="Trazado 200947" d="M287.442,290.03v1.53l12.592,7.245v-1.532Z" transform="translate(-287.442 -284.558)" fill="#4d4d4d"/>
                  </g>
                </g>
                <g id="Grupo_878862" data-name="Grupo 878862" transform="translate(24.904)">
                  <g id="Grupo_878839" data-name="Grupo 878839">
                    <path id="Trazado_200948" data-name="Trazado 200948" d="M169.3,204.149l-5.173,2.838L173.7,212.5l.773,1.53,2.246.205,5.173-2.838Z" transform="translate(-161.876 -202.413)" fill="#ccc"/>
                    <g id="Grupo_878838" data-name="Grupo 878838">
                      <path id="Trazado_200949" data-name="Trazado 200949" d="M174.88,212.814l-12.594-7.246,5.174-2.838,12.594,7.245Z" transform="translate(-162.286 -202.73)" fill="#999"/>
                      <path id="Trazado_200950" data-name="Trazado 200950" d="M174.88,211.673l-12-6.9-.6.342,12.594,7.246,5.174-2.839-.6-.342Z" transform="translate(-162.286 -202.274)" fill="#fff"/>
                      <path id="Trazado_200951" data-name="Trazado 200951" d="M177.756,208.652v1.532l-5.174,2.838v-1.53Z" transform="translate(-159.988 -201.408)" fill="#1a1a1a"/>
                      <path id="Trazado_200952" data-name="Trazado 200952" d="M162.286,205.049v1.532l12.594,7.244V212.3Z" transform="translate(-162.286 -202.212)" fill="#4d4d4d"/>
                    </g>
                  </g>
                  <g id="Grupo_878841" data-name="Grupo 878841" transform="translate(16.221 9.512)">
                    <path id="Trazado_200953" data-name="Trazado 200953" d="M182.556,211.924l-5.174,2.838,9.575,5.509.773,1.534,2.244.2,5.175-2.838Z" transform="translate(-175.138 -210.189)" fill="#ccc"/>
                    <g id="Grupo_878840" data-name="Grupo 878840">
                      <path id="Trazado_200954" data-name="Trazado 200954" d="M188.139,220.588l-12.592-7.246,5.173-2.836,12.594,7.244Z" transform="translate(-175.547 -210.506)" fill="#999"/>
                      <path id="Trazado_200955" data-name="Trazado 200955" d="M188.139,219.447l-12-6.9-.6.34,12.592,7.246,5.174-2.838-.6-.343Z" transform="translate(-175.547 -210.05)" fill="#fff"/>
                      <path id="Trazado_200956" data-name="Trazado 200956" d="M191.016,216.428v1.532l-5.174,2.84v-1.534Z" transform="translate(-173.25 -209.184)" fill="#1a1a1a"/>
                      <path id="Trazado_200957" data-name="Trazado 200957" d="M175.547,212.824v1.532l12.592,7.247V220.07Z" transform="translate(-175.547 -209.988)" fill="#4d4d4d"/>
                    </g>
                  </g>
                  <g id="Grupo_878843" data-name="Grupo 878843" transform="translate(32.441 19.022)">
                    <path id="Trazado_200958" data-name="Trazado 200958" d="M195.815,219.7l-5.174,2.84,9.575,5.507.773,1.531,2.246.205,5.172-2.839Z" transform="translate(-188.398 -217.964)" fill="#ccc"/>
                    <g id="Grupo_878842" data-name="Grupo 878842">
                      <path id="Trazado_200959" data-name="Trazado 200959" d="M201.4,228.364l-12.591-7.246,5.173-2.837,12.592,7.244Z" transform="translate(-188.807 -218.281)" fill="#999"/>
                      <path id="Trazado_200960" data-name="Trazado 200960" d="M201.4,227.223l-12-6.9-.594.342,12.591,7.246,5.173-2.839-.6-.342Z" transform="translate(-188.807 -217.825)" fill="#fff"/>
                      <path id="Trazado_200961" data-name="Trazado 200961" d="M204.274,224.2v1.532l-5.173,2.838v-1.531Z" transform="translate(-186.509 -216.959)" fill="#1a1a1a"/>
                      <path id="Trazado_200962" data-name="Trazado 200962" d="M188.807,220.6v1.532l12.591,7.245v-1.531Z" transform="translate(-188.807 -217.763)" fill="#4d4d4d"/>
                    </g>
                  </g>
                  <g id="Grupo_878845" data-name="Grupo 878845" transform="translate(48.659 28.533)">
                    <path id="Trazado_200963" data-name="Trazado 200963" d="M209.076,227.476l-5.174,2.839,9.575,5.508.771,1.531,2.246.2,5.174-2.837Z" transform="translate(-201.656 -225.739)" fill="#ccc"/>
                    <g id="Grupo_878844" data-name="Grupo 878844">
                      <path id="Trazado_200964" data-name="Trazado 200964" d="M214.657,236.139l-12.591-7.245,5.174-2.838,12.591,7.244Z" transform="translate(-202.066 -226.056)" fill="#999"/>
                      <path id="Trazado_200965" data-name="Trazado 200965" d="M214.658,235l-12-6.9-.6.342,12.592,7.245,5.173-2.839-.6-.343Z" transform="translate(-202.066 -225.601)" fill="#fff"/>
                      <path id="Trazado_200966" data-name="Trazado 200966" d="M217.533,231.978v1.532l-5.174,2.839v-1.532Z" transform="translate(-199.768 -224.734)" fill="#1a1a1a"/>
                      <path id="Trazado_200967" data-name="Trazado 200967" d="M202.066,228.376v1.532l12.591,7.245v-1.532Z" transform="translate(-202.066 -225.538)" fill="#4d4d4d"/>
                    </g>
                  </g>
                  <g id="Grupo_878847" data-name="Grupo 878847" transform="translate(64.879 38.044)">
                    <path id="Trazado_200968" data-name="Trazado 200968" d="M222.334,235.252l-5.174,2.836,9.575,5.511.773,1.53,2.246.2,5.173-2.837Z" transform="translate(-214.916 -233.514)" fill="#ccc"/>
                    <g id="Grupo_878846" data-name="Grupo 878846">
                      <path id="Trazado_200969" data-name="Trazado 200969" d="M227.918,243.915l-12.593-7.245,5.173-2.839,12.593,7.245Z" transform="translate(-215.325 -233.831)" fill="#999"/>
                      <path id="Trazado_200970" data-name="Trazado 200970" d="M227.918,242.774l-12-6.9-.6.341,12.593,7.247,5.173-2.839-.6-.344Z" transform="translate(-215.325 -233.376)" fill="#fff"/>
                      <path id="Trazado_200971" data-name="Trazado 200971" d="M230.793,239.754v1.532l-5.173,2.837v-1.53Z" transform="translate(-213.027 -232.509)" fill="#1a1a1a"/>
                      <path id="Trazado_200972" data-name="Trazado 200972" d="M215.325,236.152v1.53l12.593,7.245V243.4Z" transform="translate(-215.325 -233.313)" fill="#4d4d4d"/>
                    </g>
                  </g>
                  <g id="Grupo_878849" data-name="Grupo 878849" transform="translate(81.098 47.555)">
                    <path id="Trazado_200973" data-name="Trazado 200973" d="M235.594,243.026l-5.173,2.838L240,251.373l.773,1.532,2.247.2,5.173-2.84Z" transform="translate(-228.176 -241.289)" fill="#ccc"/>
                    <g id="Grupo_878848" data-name="Grupo 878848">
                      <path id="Trazado_200974" data-name="Trazado 200974" d="M241.177,251.69l-12.592-7.245,5.174-2.838,12.593,7.244Z" transform="translate(-228.585 -241.606)" fill="#999"/>
                      <path id="Trazado_200975" data-name="Trazado 200975" d="M241.177,250.55l-12-6.9-.6.341,12.592,7.245,5.174-2.839-.6-.342Z" transform="translate(-228.585 -241.151)" fill="#fff"/>
                      <path id="Trazado_200976" data-name="Trazado 200976" d="M244.054,247.529v1.534L238.88,251.9v-1.532Z" transform="translate(-226.287 -240.284)" fill="#1a1a1a"/>
                      <path id="Trazado_200977" data-name="Trazado 200977" d="M228.585,243.927v1.532l12.592,7.245v-1.532Z" transform="translate(-228.585 -241.088)" fill="#4d4d4d"/>
                    </g>
                  </g>
                  <g id="Grupo_878851" data-name="Grupo 878851" transform="translate(97.318 57.067)">
                    <path id="Trazado_200978" data-name="Trazado 200978" d="M248.854,250.8l-5.173,2.838,9.575,5.508.772,1.531,2.245.2,5.175-2.838Z" transform="translate(-241.435 -249.066)" fill="#ccc"/>
                    <g id="Grupo_878850" data-name="Grupo 878850">
                      <path id="Trazado_200979" data-name="Trazado 200979" d="M254.437,259.465l-12.592-7.246,5.174-2.837,12.591,7.244Z" transform="translate(-241.845 -249.382)" fill="#999"/>
                      <path id="Trazado_200980" data-name="Trazado 200980" d="M254.437,258.324l-12-6.9-.6.342,12.592,7.246,5.173-2.838-.6-.344Z" transform="translate(-241.845 -248.927)" fill="#fff"/>
                      <path id="Trazado_200981" data-name="Trazado 200981" d="M257.313,255.3v1.532l-5.173,2.838v-1.532Z" transform="translate(-239.547 -248.061)" fill="#1a1a1a"/>
                      <path id="Trazado_200982" data-name="Trazado 200982" d="M241.845,251.7v1.533l12.592,7.244v-1.532Z" transform="translate(-241.845 -248.865)" fill="#4d4d4d"/>
                    </g>
                  </g>
                  <g id="Grupo_878853" data-name="Grupo 878853" transform="translate(113.538 66.578)">
                    <path id="Trazado_200983" data-name="Trazado 200983" d="M262.114,258.577l-5.174,2.839,9.575,5.509.774,1.53,2.245.2,5.173-2.838Z" transform="translate(-254.695 -256.841)" fill="#ccc"/>
                    <g id="Grupo_878852" data-name="Grupo 878852">
                      <path id="Trazado_200984" data-name="Trazado 200984" d="M267.7,267.242,255.105,260l5.172-2.838L272.87,264.4Z" transform="translate(-255.105 -257.158)" fill="#999"/>
                      <path id="Trazado_200985" data-name="Trazado 200985" d="M267.7,266.1l-12-6.9-.6.343,12.593,7.245,5.172-2.84-.6-.342Z" transform="translate(-255.105 -256.702)" fill="#fff"/>
                      <path id="Trazado_200986" data-name="Trazado 200986" d="M270.572,263.08v1.532L265.4,267.45v-1.53Z" transform="translate(-252.807 -255.836)" fill="#1a1a1a"/>
                      <path id="Trazado_200987" data-name="Trazado 200987" d="M255.105,259.478v1.532l12.593,7.244v-1.53Z" transform="translate(-255.105 -256.64)" fill="#4d4d4d"/>
                    </g>
                  </g>
                  <g id="Grupo_878855" data-name="Grupo 878855" transform="translate(129.757 76.089)">
                    <path id="Trazado_200988" data-name="Trazado 200988" d="M275.373,266.352l-5.173,2.838,9.575,5.508.772,1.533,2.246.2,5.174-2.84Z" transform="translate(-267.954 -264.616)" fill="#ccc"/>
                    <g id="Grupo_878854" data-name="Grupo 878854">
                      <path id="Trazado_200989" data-name="Trazado 200989" d="M280.957,275.017l-12.593-7.246,5.173-2.838,12.594,7.244Z" transform="translate(-268.364 -264.933)" fill="#999"/>
                      <path id="Trazado_200990" data-name="Trazado 200990" d="M280.957,273.876l-12-6.9-.6.342,12.593,7.244,5.174-2.838-.595-.342Z" transform="translate(-268.364 -264.478)" fill="#fff"/>
                      <path id="Trazado_200991" data-name="Trazado 200991" d="M283.833,270.855v1.533l-5.174,2.838V273.7Z" transform="translate(-266.066 -263.611)" fill="#1a1a1a"/>
                      <path id="Trazado_200992" data-name="Trazado 200992" d="M268.364,267.253v1.532l12.593,7.245V274.5Z" transform="translate(-268.364 -264.415)" fill="#4d4d4d"/>
                    </g>
                  </g>
                  <g id="Grupo_878857" data-name="Grupo 878857" transform="translate(145.976 85.599)">
                    <path id="Trazado_200993" data-name="Trazado 200993" d="M288.633,274.128l-5.173,2.838,9.572,5.509.773,1.531,2.246.206,5.174-2.838Z" transform="translate(-281.213 -272.391)" fill="#ccc"/>
                    <g id="Grupo_878856" data-name="Grupo 878856">
                      <path id="Trazado_200994" data-name="Trazado 200994" d="M294.216,282.792l-12.593-7.246,5.174-2.837,12.594,7.245Z" transform="translate(-281.623 -272.708)" fill="#999"/>
                      <path id="Trazado_200995" data-name="Trazado 200995" d="M294.216,281.65l-12-6.9-.6.34,12.593,7.246,5.175-2.839-.6-.342Z" transform="translate(-281.623 -272.252)" fill="#fff"/>
                      <path id="Trazado_200996" data-name="Trazado 200996" d="M297.093,278.631v1.532L291.918,283V281.47Z" transform="translate(-279.325 -271.386)" fill="#1a1a1a"/>
                      <path id="Trazado_200997" data-name="Trazado 200997" d="M281.623,275.028v1.533l12.593,7.244v-1.531Z" transform="translate(-281.623 -272.19)" fill="#4d4d4d"/>
                    </g>
                  </g>
                  <g id="Grupo_878859" data-name="Grupo 878859" transform="translate(162.196 95.112)">
                    <path id="Trazado_200998" data-name="Trazado 200998" d="M301.893,281.9l-5.173,2.838,9.574,5.51.774,1.531,2.244.2,5.173-2.838Z" transform="translate(-294.474 -280.168)" fill="#ccc"/>
                    <g id="Grupo_878858" data-name="Grupo 878858">
                      <path id="Trazado_200999" data-name="Trazado 200999" d="M307.477,290.567l-12.593-7.245,5.173-2.837,12.593,7.245Z" transform="translate(-294.884 -280.485)" fill="#999"/>
                      <path id="Trazado_201000" data-name="Trazado 201000" d="M307.477,289.427l-12-6.9-.6.342,12.593,7.245,5.173-2.838-.6-.343Z" transform="translate(-294.884 -280.03)" fill="#fff"/>
                      <path id="Trazado_201001" data-name="Trazado 201001" d="M310.352,286.407v1.532l-5.173,2.837v-1.531Z" transform="translate(-292.586 -279.163)" fill="#1a1a1a"/>
                      <path id="Trazado_201002" data-name="Trazado 201002" d="M294.884,282.8v1.533l12.593,7.244v-1.531Z" transform="translate(-294.884 -279.967)" fill="#4d4d4d"/>
                    </g>
                  </g>
                  <g id="Grupo_878861" data-name="Grupo 878861" transform="translate(178.416 104.622)">
                    <path id="Trazado_201003" data-name="Trazado 201003" d="M315.152,289.679l-5.173,2.838,9.574,5.508.773,1.532,2.245.2,5.174-2.838Z" transform="translate(-307.734 -287.943)" fill="#ccc"/>
                    <g id="Grupo_878860" data-name="Grupo 878860">
                      <path id="Trazado_201004" data-name="Trazado 201004" d="M320.737,298.342,308.144,291.1l5.173-2.838L325.91,295.5Z" transform="translate(-308.144 -288.26)" fill="#999"/>
                      <path id="Trazado_201005" data-name="Trazado 201005" d="M320.737,297.2l-12-6.9-.6.342,12.593,7.244,5.174-2.838-.6-.342Z" transform="translate(-308.144 -287.804)" fill="#fff"/>
                      <path id="Trazado_201006" data-name="Trazado 201006" d="M323.612,294.182v1.533l-5.173,2.838V297.02Z" transform="translate(-305.846 -286.938)" fill="#1a1a1a"/>
                      <path id="Trazado_201007" data-name="Trazado 201007" d="M308.144,290.58v1.533l12.593,7.245v-1.533Z" transform="translate(-308.144 -287.742)" fill="#4d4d4d"/>
                    </g>
                  </g>
                </g>
                <g id="Grupo_878864" data-name="Grupo 878864" transform="translate(146.069 82.783)">
                  <path id="Trazado_201008" data-name="Trazado 201008" d="M272.708,271.826l-9.533,5.47,9.576,5.51.772,1.531,2.245.2,9.531-5.471Z" transform="translate(-260.931 -270.089)" fill="#ccc"/>
                  <g id="Grupo_878863" data-name="Grupo 878863">
                    <path id="Trazado_201009" data-name="Trazado 201009" d="M273.933,283.124l-12.593-7.245,9.531-5.472,12.592,7.246Z" transform="translate(-261.34 -270.406)" fill="#999"/>
                    <path id="Trazado_201010" data-name="Trazado 201010" d="M273.933,281.5l-12-6.9-.595.343,12.593,7.245,9.53-5.471-.6-.344Z" transform="translate(-261.34 -269.47)" fill="#fff"/>
                    <path id="Trazado_201011" data-name="Trazado 201011" d="M281.166,276.33v1.531l-9.53,5.471V281.8Z" transform="translate(-259.042 -269.084)" fill="#1a1a1a"/>
                    <path id="Trazado_201012" data-name="Trazado 201012" d="M261.34,274.88v1.532l12.593,7.244v-1.531Z" transform="translate(-261.34 -269.408)" fill="#4d4d4d"/>
                  </g>
                </g>
                <g id="Grupo_878866" data-name="Grupo 878866" transform="translate(129.81 73.036)">
                  <path id="Trazado_201013" data-name="Trazado 201013" d="M259.415,263.857l-9.531,5.472,9.574,5.509.773,1.53,2.246.207,9.531-5.472Z" transform="translate(-247.639 -262.12)" fill="#ccc"/>
                  <g id="Grupo_878865" data-name="Grupo 878865">
                    <path id="Trazado_201014" data-name="Trazado 201014" d="M260.641,275.156l-12.592-7.246,9.531-5.472,12.593,7.246Z" transform="translate(-248.048 -262.437)" fill="#999"/>
                    <path id="Trazado_201015" data-name="Trazado 201015" d="M260.641,273.534l-12-6.9-.6.342,12.592,7.246,9.532-5.472-.6-.344Z" transform="translate(-248.048 -261.501)" fill="#fff"/>
                    <path id="Trazado_201016" data-name="Trazado 201016" d="M267.875,268.361v1.531l-9.532,5.473v-1.532Z" transform="translate(-245.751 -261.115)" fill="#1a1a1a"/>
                    <path id="Trazado_201017" data-name="Trazado 201017" d="M248.048,266.911v1.532l12.592,7.246v-1.532Z" transform="translate(-248.048 -261.439)" fill="#4d4d4d"/>
                  </g>
                </g>
                <g id="Grupo_878868" data-name="Grupo 878868" transform="translate(113.084 63.445)">
                  <path id="Trazado_201018" data-name="Trazado 201018" d="M245.74,256.015l-9.53,5.473L245.785,267l.772,1.534,2.246.2,9.531-5.473Z" transform="translate(-233.965 -254.28)" fill="#ccc"/>
                  <g id="Grupo_878867" data-name="Grupo 878867">
                    <path id="Trazado_201019" data-name="Trazado 201019" d="M246.966,267.312l-12.592-7.244,9.53-5.472L256.5,261.84Z" transform="translate(-234.374 -254.597)" fill="#999"/>
                    <path id="Trazado_201020" data-name="Trazado 201020" d="M246.966,265.692l-12-6.9-.6.343,12.592,7.244L256.5,260.9l-.6-.343Z" transform="translate(-234.374 -253.661)" fill="#fff"/>
                    <path id="Trazado_201021" data-name="Trazado 201021" d="M254.2,260.519v1.532l-9.532,5.474v-1.534Z" transform="translate(-232.077 -253.275)" fill="#1a1a1a"/>
                    <path id="Trazado_201022" data-name="Trazado 201022" d="M234.374,259.07V260.6l12.592,7.246v-1.534Z" transform="translate(-234.374 -253.598)" fill="#4d4d4d"/>
                  </g>
                </g>
                <g id="Grupo_878870" data-name="Grupo 878870" transform="translate(96.183 53.481)">
                  <path id="Trazado_201023" data-name="Trazado 201023" d="M231.925,247.869l-9.531,5.472,9.574,5.507.772,1.532,2.247.206,9.531-5.471Z" transform="translate(-220.148 -246.134)" fill="#ccc"/>
                  <g id="Grupo_878869" data-name="Grupo 878869">
                    <path id="Trazado_201024" data-name="Trazado 201024" d="M233.149,259.165l-12.591-7.244,9.53-5.47,12.594,7.244Z" transform="translate(-220.557 -246.451)" fill="#999"/>
                    <path id="Trazado_201025" data-name="Trazado 201025" d="M233.15,257.546l-12-6.9-.6.343,12.592,7.244,9.533-5.472-.6-.342Z" transform="translate(-220.558 -245.515)" fill="#fff"/>
                    <path id="Trazado_201026" data-name="Trazado 201026" d="M240.385,252.373V253.9l-9.533,5.47v-1.532Z" transform="translate(-218.26 -245.129)" fill="#1a1a1a"/>
                    <path id="Trazado_201027" data-name="Trazado 201027" d="M220.558,250.923v1.532l12.591,7.244v-1.532Z" transform="translate(-220.557 -245.453)" fill="#4d4d4d"/>
                  </g>
                </g>
                <g id="Grupo_878872" data-name="Grupo 878872" transform="translate(79.682 43.986)">
                  <path id="Trazado_201028" data-name="Trazado 201028" d="M218.436,240.109l-9.532,5.472,9.575,5.509.772,1.531,2.245.205,9.532-5.471Z" transform="translate(-206.658 -238.372)" fill="#ccc"/>
                  <g id="Grupo_878871" data-name="Grupo 878871">
                    <path id="Trazado_201029" data-name="Trazado 201029" d="M219.661,251.407l-12.592-7.245,9.53-5.472,12.593,7.245Z" transform="translate(-207.068 -238.689)" fill="#999"/>
                    <path id="Trazado_201030" data-name="Trazado 201030" d="M219.661,249.785l-12-6.9-.6.343,12.593,7.245L229.192,245l-.6-.343Z" transform="translate(-207.068 -237.753)" fill="#fff"/>
                    <path id="Trazado_201031" data-name="Trazado 201031" d="M226.894,244.612v1.532l-9.531,5.471v-1.531Z" transform="translate(-204.77 -237.367)" fill="#1a1a1a"/>
                    <path id="Trazado_201032" data-name="Trazado 201032" d="M207.069,243.163v1.532l12.592,7.244v-1.531Z" transform="translate(-207.068 -237.691)" fill="#4d4d4d"/>
                  </g>
                </g>
                <g id="Grupo_878874" data-name="Grupo 878874" transform="translate(61.871 34.127)">
                  <path id="Trazado_201033" data-name="Trazado 201033" d="M203.875,232.048l-9.531,5.472,9.575,5.508.771,1.532,2.247.2,9.53-5.472Z" transform="translate(-192.098 -230.312)" fill="#ccc"/>
                  <g id="Grupo_878873" data-name="Grupo 878873">
                    <path id="Trazado_201034" data-name="Trazado 201034" d="M205.1,243.345l-12.59-7.246,9.529-5.47,12.592,7.244Z" transform="translate(-192.507 -230.629)" fill="#999"/>
                    <path id="Trazado_201035" data-name="Trazado 201035" d="M205.1,241.724l-12-6.9-.6.341,12.592,7.246,9.531-5.473-.6-.342Z" transform="translate(-192.508 -229.693)" fill="#fff"/>
                    <path id="Trazado_201036" data-name="Trazado 201036" d="M212.333,236.55v1.532l-9.531,5.473v-1.532Z" transform="translate(-190.21 -229.307)" fill="#1a1a1a"/>
                    <path id="Trazado_201037" data-name="Trazado 201037" d="M192.509,235.1v1.532l12.59,7.246v-1.532Z" transform="translate(-192.507 -229.63)" fill="#4d4d4d"/>
                  </g>
                </g>
                <g id="Grupo_878876" data-name="Grupo 878876" transform="translate(45.172 24.397)">
                  <path id="Trazado_201038" data-name="Trazado 201038" d="M190.221,224.094l-9.53,5.471,9.574,5.509.772,1.53,2.247.2,9.531-5.471Z" transform="translate(-178.446 -222.358)" fill="#ccc"/>
                  <g id="Grupo_878875" data-name="Grupo 878875">
                    <path id="Trazado_201039" data-name="Trazado 201039" d="M191.447,235.392l-12.591-7.246,9.529-5.471,12.594,7.244Z" transform="translate(-178.855 -222.675)" fill="#999"/>
                    <path id="Trazado_201040" data-name="Trazado 201040" d="M191.447,233.771l-12-6.9-.6.342,12.591,7.246,9.532-5.473-.6-.343Z" transform="translate(-178.855 -221.739)" fill="#fff"/>
                    <path id="Trazado_201041" data-name="Trazado 201041" d="M198.681,228.6v1.531l-9.532,5.472v-1.53Z" transform="translate(-176.558 -221.353)" fill="#1a1a1a"/>
                    <path id="Trazado_201042" data-name="Trazado 201042" d="M178.855,227.147v1.533l12.591,7.244v-1.53Z" transform="translate(-178.855 -221.676)" fill="#4d4d4d"/>
                  </g>
                </g>
                <g id="Grupo_878878" data-name="Grupo 878878" transform="translate(28.878 14.844)">
                  <path id="Trazado_201043" data-name="Trazado 201043" d="M176.9,216.284l-9.532,5.47,9.575,5.511.773,1.53,2.244.206,9.532-5.471Z" transform="translate(-165.126 -214.547)" fill="#ccc"/>
                  <g id="Grupo_878877" data-name="Grupo 878877">
                    <path id="Trazado_201044" data-name="Trazado 201044" d="M178.128,227.582l-12.593-7.247,9.533-5.47,12.59,7.245Z" transform="translate(-165.535 -214.864)" fill="#999"/>
                    <path id="Trazado_201045" data-name="Trazado 201045" d="M178.128,225.96l-12-6.9-.6.342,12.593,7.247,9.53-5.473-.6-.343Z" transform="translate(-165.535 -213.928)" fill="#fff"/>
                    <path id="Trazado_201046" data-name="Trazado 201046" d="M185.361,220.787v1.532l-9.53,5.47v-1.53Z" transform="translate(-163.237 -213.542)" fill="#1a1a1a"/>
                    <path id="Trazado_201047" data-name="Trazado 201047" d="M165.535,219.337v1.533l12.593,7.244v-1.53Z" transform="translate(-165.535 -213.866)" fill="#4d4d4d"/>
                  </g>
                </g>
                <g id="Grupo_878880" data-name="Grupo 878880" transform="translate(12.786 5.012)">
                  <path id="Trazado_201048" data-name="Trazado 201048" d="M163.746,208.245l-9.53,5.472,9.573,5.508.774,1.533,2.245.2,9.53-5.47Z" transform="translate(-151.97 -206.511)" fill="#ccc"/>
                  <g id="Grupo_878879" data-name="Grupo 878879">
                    <path id="Trazado_201049" data-name="Trazado 201049" d="M164.973,219.542,152.38,212.3l9.533-5.471,12.592,7.244Z" transform="translate(-152.38 -206.827)" fill="#999"/>
                    <path id="Trazado_201050" data-name="Trazado 201050" d="M164.973,217.923l-12-6.9-.6.343,12.594,7.244,9.531-5.47-.6-.343Z" transform="translate(-152.38 -205.892)" fill="#fff"/>
                    <path id="Trazado_201051" data-name="Trazado 201051" d="M172.206,212.75v1.532l-9.531,5.472V218.22Z" transform="translate(-150.081 -205.505)" fill="#1a1a1a"/>
                    <path id="Trazado_201052" data-name="Trazado 201052" d="M152.38,211.3v1.532l12.594,7.245v-1.533Z" transform="translate(-152.38 -205.829)" fill="#4d4d4d"/>
                  </g>
                </g>
                <g id="Grupo_878882" data-name="Grupo 878882" transform="translate(181.009 111.052)">
                  <path id="Trazado_201053" data-name="Trazado 201053" d="M315.331,294.936,291.742,308.4l5.707,3.3.771,1.532,2.246.2,23.591-13.462Z" transform="translate(-289.494 -293.2)" fill="#ccc"/>
                  <g id="Grupo_878881" data-name="Grupo 878881">
                    <path id="Trazado_201054" data-name="Trazado 201054" d="M298.63,312.017l-8.725-5.038L313.5,293.516l8.726,5.04Z" transform="translate(-289.904 -293.516)" fill="#999"/>
                    <path id="Trazado_201055" data-name="Trazado 201055" d="M298.63,310.475,290.5,305.78l-.6.342,8.725,5.038L322.222,297.7l-.6-.344Z" transform="translate(-289.904 -292.659)" fill="#fff"/>
                    <path id="Trazado_201056" data-name="Trazado 201056" d="M320.63,297.637v1.531l-23.592,13.462V311.1Z" transform="translate(-288.312 -292.597)" fill="#1a1a1a"/>
                    <path id="Trazado_201057" data-name="Trazado 201057" d="M289.9,304.522v1.531l8.725,5.039V309.56Z" transform="translate(-289.904 -291.06)" fill="#4d4d4d"/>
                  </g>
                </g>
              </g>
            </g>
            <g id="Grupo_878886" data-name="Grupo 878886" transform="translate(58.966 65.248)">
              <path id="Trazado_201058" data-name="Trazado 201058" d="M178.037,257.492l-9.529,5.469,52.9,31.168.772,1.531,2.246.205,9.53-5.472Z" transform="translate(-166.262 -255.754)" fill="#ccc"/>
              <g id="Grupo_878885" data-name="Grupo 878885">
                <path id="Trazado_201059" data-name="Trazado 201059" d="M222.592,294.447l-55.919-32.9,9.53-5.473,55.921,32.9Z" transform="translate(-166.672 -256.071)" fill="#999"/>
                <path id="Trazado_201060" data-name="Trazado 201060" d="M222.592,292.825l-55.324-32.559-.6.342,55.919,32.9,9.532-5.472-.6-.343Z" transform="translate(-166.672 -255.135)" fill="#fff"/>
                <path id="Trazado_201061" data-name="Trazado 201061" d="M221.919,282.97V284.5l-9.532,5.472v-1.531Z" transform="translate(-156.468 -250.067)" fill="#1a1a1a"/>
                <path id="Trazado_201062" data-name="Trazado 201062" d="M166.672,260.545v1.532l55.919,32.9v-1.531Z" transform="translate(-166.672 -255.072)" fill="#4d4d4d"/>
              </g>
            </g>
          </g>
          <g id="Grupo_878890" data-name="Grupo 878890" transform="translate(146.668)">
            <g id="Grupo_878888" data-name="Grupo 878888">
              <path id="Trazado_201063" data-name="Trazado 201063" d="M194.061,88.475l1.458.27,3.051.579c-.09.309-.181.636-.272.963a18.57,18.57,0,0,0-.431,2.66L195.307,123.7l-6.643,79.4c-.7,8.2,3.733,17.682,9.9,21.19L373.033,325.311c.1.057.214.116.33.174l-2.012,5.245,3.84-2.062c2.349-1.234,4.1-3.875,4.733-7.655.083-.462.128-.945.174-1.426l9.162-109.918.022-.231a25.162,25.162,0,0,0-4.746-16.387,16.95,16.95,0,0,0-5.158-4.8L204.931,87.222c-2.7-1.522-5.27-1.637-7.371-.634l0-.021-2.626,1.445Z" transform="translate(-179.795 -85.938)" fill="#4d4d4d"/>
              <path id="Trazado_201064" data-name="Trazado 201064" d="M193.778,88.013l.583.733,2.779,1.541,182.408,104.4,3.829-1.637a16.95,16.95,0,0,0-5.158-4.8L203.773,87.222c-2.7-1.522-5.27-1.637-7.371-.634l0-.021Z" transform="translate(-178.637 -85.938)" fill="#f2f2f2"/>
              <path id="Trazado_201065" data-name="Trazado 201065" d="M338.246,178.918l5.783,17.257,11.824-6.054.022-.231a25.162,25.162,0,0,0-4.746-16.387Z" transform="translate(-146.389 -66.392)" fill="#999"/>
              <path id="Trazado_201066" data-name="Trazado 201066" d="M190.677,97.24l-2.559,30.75-6.645,79.4c-.7,8.2,3.732,17.682,9.923,21.191L320.7,302.31,365.844,329.6c5.051,2.872,9.685.848,11.6-4.454a13.359,13.359,0,0,0,.67-2.6c.084-.483.127-.946.174-1.447l9.2-110.147c.7-8.194-3.753-17.68-9.922-21.19l-63.824-36.6-60.333-35.911h-.021L203.122,88.737c-4.127-2.331-7.971-1.407-10.286,1.89A13.774,13.774,0,0,0,190.677,97.24Z" transform="translate(-181.4 -85.602)" fill="#b3b3b3"/>
            </g>
            <g id="Grupo_878889" data-name="Grupo 878889" transform="translate(6.104 10.847)">
              <path id="Trazado_201067" data-name="Trazado 201067" d="M380.412,202.528,369.255,322.316,186.4,214.6,197.561,94.814Z" transform="translate(-186.387 -94.804)" fill="#a9d6ff"/>
              <path id="Trazado_201068" data-name="Trazado 201068" d="M378.768,202.539l-1.982,21.392L193.738,118.248l2.187-23.442Z" transform="translate(-184.75 -94.806)" fill="#4367c7"/>
              <path id="Trazado_201069" data-name="Trazado 201069" d="M367.938,186.715,362.88,241.14l-67.273,24.376-55.29-32.577Z" transform="translate(-174.353 -74.29)" fill="#668c6d" style="mix-blend-mode: screen;isolation: isolate"/>
              <path id="Trazado_201070" data-name="Trazado 201070" d="M347.3,170.266l-132.041,48.57L186.4,201.84l.2-2.164,129.671-47.7Z" transform="translate(-186.389 -82.045)" fill="#668c6d" style="mix-blend-mode: screen;isolation: isolate"/>
              <path id="Trazado_201071" data-name="Trazado 201071" d="M264.877,130.983l-74.495,27.406,2.848-30.732,40.619-14.945Z" transform="translate(-185.499 -90.809)" fill="#668c6d" style="mix-blend-mode: screen;isolation: isolate"/>
              <path id="Trazado_201072" data-name="Trazado 201072" d="M200.358,96.451,189.495,213.08,369.551,319.162l-.293,3.152L186.39,214.606,197.548,94.825Z" transform="translate(-186.39 -94.801)" fill="#dcdedd"/>
              <path id="Trazado_201073" data-name="Trazado 201073" d="M369.259,300.734,186.39,193.026l3.1-1.526L369.551,297.582Z" transform="translate(-186.39 -73.222)" fill="#f9f9f9"/>
            </g>
          </g>
          <g id="Grupo_878891" data-name="Grupo 878891" transform="translate(254.189 56.866)">
            <path id="Trazado_201074" data-name="Trazado 201074" d="M269.319,135.056a5.083,5.083,0,0,0,2.148,4.6,2.529,2.529,0,0,0,1.262.347,2.172,2.172,0,0,0,.755-.132,2.707,2.707,0,0,0,1.676-2.487,5.08,5.08,0,0,0-2.148-4.6,2.522,2.522,0,0,0-1.26-.357,2.154,2.154,0,0,0-.79.153h-.021A2.743,2.743,0,0,0,269.319,135.056Z" transform="translate(-269.301 -132.427)" fill="#f2f2f2"/>
            <path id="Trazado_201075" data-name="Trazado 201075" d="M274.411,137.266a3.283,3.283,0,0,1-.122.623v.02a1.811,1.811,0,0,1-1.095,1.287,1.585,1.585,0,0,1-.517.1,1.86,1.86,0,0,1-.948-.283,4.545,4.545,0,0,1-1.887-4.061,2.1,2.1,0,0,1,1.107-1.889l.089-.042a1.746,1.746,0,0,1,.539-.1,1.721,1.721,0,0,1,.947.283.534.534,0,0,1,.138.1h.022A4.624,4.624,0,0,1,274.411,137.266Z" transform="translate(-269.184 -132.316)" fill="#518e90"/>
            <path id="Trazado_201076" data-name="Trazado 201076" d="M274.233,137.207a3.281,3.281,0,0,1-.122.623v.02a1.39,1.39,0,0,1-.69.564,1.32,1.32,0,0,1-1.212-.161,3.75,3.75,0,0,1-1.569-3.377,1.785,1.785,0,0,1,.93-1.568l.087-.021a1.072,1.072,0,0,1,.432-.1,1.226,1.226,0,0,1,.4.06h.022A4.624,4.624,0,0,1,274.233,137.207Z" transform="translate(-269.005 -132.258)" fill="#333"/>
          </g>
        </g>
      </g>
    </g>
    <g id="Grupo_878912" data-name="Grupo 878912" transform="translate(272.324 76.032)">
      <g id="Grupo_878903" data-name="Grupo 878903" transform="translate(0 17.085)">
        <g id="Grupo_878902" data-name="Grupo 878902" style="isolation: isolate">
          <g id="Grupo_878895" data-name="Grupo 878895" transform="translate(1.752)">
            <path id="Trazado_201077" data-name="Trazado 201077" d="M235.283,100.89l18.1-10.518a3.881,3.881,0,0,1,3.915.382l-18.1,10.518A3.879,3.879,0,0,0,235.283,100.89Z" transform="translate(-235.283 -90)" fill="#fff642"/>
          </g>
          <g id="Grupo_878896" data-name="Grupo 878896" transform="translate(66.466 93.066)">
            <path id="Trazado_201078" data-name="Trazado 201078" d="M306.289,169.623l-18.1,10.518a3.864,3.864,0,0,0,1.61-3.54l18.1-10.518A3.863,3.863,0,0,1,306.289,169.623Z" transform="translate(-288.188 -166.083)" fill="#fc912d"/>
          </g>
          <g id="Grupo_878897" data-name="Grupo 878897" transform="translate(68.076 43.214)">
            <path id="Trazado_201079" data-name="Trazado 201079" d="M289.645,135.847l18.1-10.519L307.6,175.18,289.5,185.7Z" transform="translate(-289.504 -125.328)" fill="#fc912d"/>
          </g>
          <g id="Grupo_878898" data-name="Grupo 878898" transform="translate(5.666 0.753)">
            <path id="Trazado_201080" data-name="Trazado 201080" d="M238.483,101.135l18.1-10.519,57.063,32.945-18.1,10.519Z" transform="translate(-238.483 -90.616)" fill="#fff642"/>
          </g>
          <path id="Trazado_201081" data-name="Trazado 201081" d="M275.253,102.23H248.2V92.485H258.37Z" transform="translate(-230.647 -89.445)" fill="#fcaa2d"/>
          <path id="Trazado_201082" data-name="Trazado 201082" d="M302.991,118.243l-10.219,5.934h-6.542v-9.746h10.152Z" transform="translate(-222.159 -84.546)" fill="#fcaa2d"/>
          <g id="Grupo_878899" data-name="Grupo 878899" transform="translate(62.729 33.699)">
            <path id="Trazado_201083" data-name="Trazado 201083" d="M285.133,128.069l18.1-10.52a12.111,12.111,0,0,1,5.487,9.515l-18.1,10.52A12.107,12.107,0,0,0,285.133,128.069Z" transform="translate(-285.133 -117.549)" fill="#ffe042"/>
          </g>
          <g id="Grupo_878900" data-name="Grupo 878900" transform="translate(0 10.519)">
            <path id="Trazado_201084" data-name="Trazado 201084" d="M296.58,132.3a12.108,12.108,0,0,1,5.489,9.515l-.142,49.851c-.01,3.5-2.486,4.912-5.524,3.158L239.34,161.879a12.113,12.113,0,0,1-5.489-9.517l.142-49.851c.01-3.5,2.487-4.912,5.524-3.158Z" transform="translate(-233.851 -98.599)" fill="#fcaa2d"/>
          </g>
          <g id="Grupo_878901" data-name="Grupo 878901" transform="translate(23.311 43.716)">
            <path id="Trazado_201085" data-name="Trazado 201085" d="M252.908,131.874c0-5.624,4.067-7.811,9.01-4.742,4.627,2.873,8.384,9.58,8.335,14.865-.031,3.281-1.465,5.36-3.644,5.886v17.483c0,1.074-.76,1.507-1.7.966l-6.667-3.849a3.735,3.735,0,0,1-1.7-2.923V142.076A18.464,18.464,0,0,1,252.908,131.874Z" transform="translate(-252.908 -125.738)" fill="#ff6d40"/>
            <path id="Trazado_201086" data-name="Trazado 201086" d="M257.358,125.758a7.5,7.5,0,0,0-1.059,4.15,18.46,18.46,0,0,0,3.644,10.2v17.482a3.734,3.734,0,0,0,1.7,2.925l4.971,2.87v1.974c0,1.074-.76,1.507-1.7.966l-6.667-3.849a3.735,3.735,0,0,1-1.7-2.923V142.072a18.464,18.464,0,0,1-3.644-10.2C252.908,128.136,254.706,125.929,257.358,125.758Z" transform="translate(-252.908 -125.734)" fill="#fff642"/>
          </g>
        </g>
      </g>
      <g id="Grupo_878911" data-name="Grupo 878911" transform="translate(12.759)">
        <g id="Grupo_878910" data-name="Grupo 878910" style="isolation: isolate">
          <g id="Grupo_878904" data-name="Grupo 878904" transform="translate(4.798 20.941)">
            <path id="Trazado_201087" data-name="Trazado 201087" d="M248.219,97.027l6.669-3.876-.014,5.048-6.669,3.876Z" transform="translate(-248.204 -93.152)" fill="#ffe042"/>
          </g>
          <g id="Grupo_878905" data-name="Grupo 878905" transform="translate(4.812 7.568)">
            <path id="Trazado_201088" data-name="Trazado 201088" d="M254.306,86.094l6.669-3.875c-3.747,2.177-6.072,6.8-6.09,13.373l-6.669,3.875C248.234,92.9,250.56,88.271,254.306,86.094Z" transform="translate(-248.216 -82.219)" fill="#fc912d"/>
          </g>
          <g id="Grupo_878906" data-name="Grupo 878906" transform="translate(51.306 47.792)">
            <path id="Trazado_201089" data-name="Trazado 201089" d="M286.24,118.979l6.669-3.876-.014,5.048-6.669,3.876Z" transform="translate(-286.226 -115.103)" fill="#fc912d"/>
          </g>
          <g id="Grupo_878907" data-name="Grupo 878907" transform="translate(7.504)">
            <path id="Trazado_201090" data-name="Trazado 201090" d="M250.417,81.644l6.669-3.876c4.668-2.712,11.128-2.336,18.242,1.771l-6.669,3.875C261.545,79.306,255.085,78.931,250.417,81.644Z" transform="translate(-250.417 -76.032)" fill="#fff642"/>
          </g>
          <g id="Grupo_878908" data-name="Grupo 878908" transform="translate(25.746 3.507)">
            <path id="Trazado_201091" data-name="Trazado 201091" d="M265.33,82.774,272,78.9c14.145,8.166,25.62,28.033,25.574,44.285l-6.668,3.876C290.95,110.807,279.475,90.94,265.33,82.774Z" transform="translate(-265.33 -78.899)" fill="#ffe042"/>
          </g>
          <g id="Grupo_878909" data-name="Grupo 878909" transform="translate(0 3.875)">
            <path id="Trazado_201092" data-name="Trazado 201092" d="M270.028,82.707c14.145,8.166,25.62,28.033,25.575,44.287l-.015,5.047-4.8-2.771.015-5.047c.037-13.219-9.288-29.369-20.792-36.013s-20.88-1.288-20.918,11.931l-.015,5.048-4.8-2.771.013-5.048C244.342,81.118,255.893,74.546,270.028,82.707Z" transform="translate(-244.282 -79.2)" fill="#fcaa2d"/>
          </g>
        </g>
      </g>
    </g>
    <path id="Trazado_201093" data-name="Trazado 201093" d="M202.2,274.515,138,237.507c-5.031-2.9-4.4-7.978,1.409-11.332l11.458-6.615c5.809-3.354,14.6-3.719,19.627-.813l64.2,37.006c5.03,2.905,4.4,7.978-1.409,11.332L221.823,273.7C216.014,277.054,207.227,277.419,202.2,274.515Z" transform="translate(16.319 31.419)" fill="#ababab" style="mix-blend-mode: multiply;isolation: isolate"/>
    <g id="Grupo_878915" data-name="Grupo 878915" transform="translate(157.101 113.048)">
      <g id="Grupo_878914" data-name="Grupo 878914">
        <path id="Trazado_201094" data-name="Trazado 201094" d="M200.6,115.07l-44.67-8.777,7.781,28.8c0,21.823,8.243,47.345,22.615,69.945L207.719,238.7l-16.2,9.352v3.135l11.235-4.7c.821-.345,1.626-.719,2.4-1.122l1.913-1.107,18.042-10.368,1.928-1.108a32.417,32.417,0,0,0,9.424-8.963c5.711-8.041,8.8-19.219,8.8-32.584V157.882Z" transform="translate(-136.022 -106.293)" fill="#ff6d40"/>
        <path id="Trazado_201095" data-name="Trazado 201095" d="M229,167.221l-44.671-42.813-44.673-8.769v33.342c0,21.825,8.251,47.341,22.615,69.94l22.058,34.7,22.056-9.234c14.364-6.013,22.615-22,22.615-43.828Z" transform="translate(-139.655 -104.207)" fill="#ffaf40"/>
        <path id="Trazado_201096" data-name="Trazado 201096" d="M220.222,168.618l-37.248-35.7-37.249-7.312v27.8c0,18.2,6.879,39.475,18.857,58.319l18.392,28.936,18.391-7.7c11.978-5.013,18.857-18.345,18.857-36.545Z" transform="translate(-138.3 -101.982)" fill="#ff6d40"/>
        <g id="Grupo_878913" data-name="Grupo 878913" transform="translate(24.986 67.312)">
          <path id="Trazado_201097" data-name="Trazado 201097" d="M175.856,197.8l-5.142-8.87c-1.153-1.99-1.153-4.136,0-4.794l32.677-18.631c1.153-.658,3.024.422,4.177,2.412l5.142,8.87c1.153,1.989,1.153,4.136,0,4.794l-32.677,18.631C178.88,200.873,177.01,199.795,175.856,197.8Z" transform="translate(-157.902 -160.43)" fill="#fff"/>
          <path id="Trazado_201098" data-name="Trazado 201098" d="M187.339,198.167,182.2,201.1c-1.155.657-3.024-.423-4.177-2.412L160.947,169.24c-1.154-1.99-1.154-4.136,0-4.794l5.142-2.932c1.154-.657,3.024.422,4.177,2.412l17.072,29.447C188.493,195.363,188.493,197.509,187.339,198.167Z" transform="translate(-160.082 -161.322)" fill="#fff"/>
        </g>
        <path id="Trazado_201099" data-name="Trazado 201099" d="M169.07,210.044c-11.977-18.844-18.856-40.119-18.856-58.318V126.488l-4.49-.882v27.8c0,18.2,6.879,39.475,18.857,58.319l18.392,28.936,4.391-1.84Z" transform="translate(-138.3 -101.982)" fill="#ffc640"/>
      </g>
      <path id="Trazado_201100" data-name="Trazado 201100" d="M139.655,117.724l44.671,8.769,19.907-11.425-44.672-8.775Z" transform="translate(-139.655 -106.293)" fill="#fff454"/>
      <path id="Trazado_201101" data-name="Trazado 201101" d="M220.847,167.706l19.906-11.424-44.672-42.815-19.907,11.425Z" transform="translate(-131.503 -104.692)" fill="#ffc640"/>
    </g>
    <g id="Grupo_878920" data-name="Grupo 878920" transform="translate(269.704 186.846)">
      <path id="Trazado_201102" data-name="Trazado 201102" d="M412.586,262.157l-163.5-94.4c-2.309-1.333-4.424-1.451-6.07-.569l-4.864,2.358,1.772,2.1.061-.018a13.636,13.636,0,0,0-.378,3.29v95.091c0,6.978,4.243,15.087,9.478,18.11l163.5,94.4a9.365,9.365,0,0,0,1.555.713l-.021,2.468,4.4-2.544c2.163-1.068,3.55-3.816,3.55-7.8V280.268C422.065,273.289,417.821,265.18,412.586,262.157Z" transform="translate(-230.272 -166.624)" fill="#a9d6ff"/>
      <path id="Trazado_201103" data-name="Trazado 201103" d="M408.559,384.692l-163.5-94.4c-5.234-3.021-9.479-11.13-9.479-18.11V177.094c0-6.98,4.245-10.188,9.479-7.166l163.5,94.4c5.234,3.021,9.479,11.13,9.479,18.11v95.089C418.038,384.506,413.794,387.714,408.559,384.692Z" transform="translate(-230.846 -166.14)" fill="#378fe9"/>
      <g id="Grupo_878917" data-name="Grupo 878917" transform="translate(0 39.491)">
        <ellipse id="Elipse_4929" data-name="Elipse 4929" cx="27.095" cy="46.933" rx="27.095" ry="46.933" transform="translate(0 27.349) rotate(-30.31)" fill="#fff"/>
        <g id="Grupo_878916" data-name="Grupo 878916" transform="translate(25.481 21.662)">
          <path id="Trazado_201104" data-name="Trazado 201104" d="M268.126,216.934s-13.864-4.93-11.662,24.145a6.26,6.26,0,0,0,2.8,4.538l13.715,7.919Z" transform="translate(-251.717 -216.618)" fill="#636363"/>
          <path id="Trazado_201105" data-name="Trazado 201105" d="M275.055,221.617s13.864,11.08,11.661,37.612c-.131,1.58-1.355,2.137-2.8,1.3L270.2,252.61Z" transform="translate(-248.599 -215.502)" fill="#636363"/>
          <path id="Trazado_201106" data-name="Trazado 201106" d="M285.863,245.575c0,10.209-5.988,15.028-13.375,10.763s-13.375-16-13.375-26.207,5.989-15.027,13.375-10.763S285.863,235.366,285.863,245.575Z" transform="translate(-251.073 -216.35)" fill="#fad3aa"/>
          <path id="Trazado_201107" data-name="Trazado 201107" d="M285.165,239.352l-1.914-1.1-1.145-3.558v2.9l-2.627-1.517L278.5,233.1l-.131,2.325-3.153-1.82-1.642-3.306v2.358l-3.511-2.027-.591-5.337-.544,4.681-.2-.114-.591-1.837-.4,1.264-2.816-1.626-.535-1.848-.751,1.106-.187-.108v-4.771l-1.483,3.914-2.374-1.371c0-3.531,1.248-6.01,3.266-7.148s4.8-.974,7.882.8l3.284,1.9C280.182,223.694,285.165,232.288,285.165,239.352Z" transform="translate(-250.965 -216.596)" fill="#636363"/>
          <path id="Trazado_201108" data-name="Trazado 201108" d="M274.966,260.053l-8.524-4.921V241.761l8.524,4.921Z" transform="translate(-249.437 -211.005)" fill="#fad3aa"/>
          <path id="Trazado_201109" data-name="Trazado 201109" d="M295.728,283.591c-5.805,2.375-13.358,1.44-21.593-3.315s-15.788-12.54-21.595-21.619c.62-9.506,7.8-13.129,16.538-8.082l10.112,5.838C287.948,261.471,295.109,273.371,295.728,283.591Z" transform="translate(-252.54 -209.546)" fill="#56aa39"/>
          <path id="Trazado_201110" data-name="Trazado 201110" d="M266.442,250.381l4.262,11.748,4.262-6.825Z" transform="translate(-249.437 -209.081)" fill="#fad3aa"/>
          <path id="Trazado_201111" data-name="Trazado 201111" d="M275.59,255.3l-4.262,6.825-4.262-11.746-3.419,4.574,7.68,24.645,7.68-15.777Z" transform="translate(-250.061 -209.08)" fill="#a0d859"/>
        </g>
      </g>
      <path id="Trazado_201112" data-name="Trazado 201112" d="M418.038,280.711v13.77L235.578,189.137v-13.77c0-6,4.247-8.424,9.479-5.4l163.5,94.4C413.791,267.383,418.038,274.707,418.038,280.711Z" transform="translate(-230.846 -166.169)" fill="#272262"/>
      <g id="Grupo_878918" data-name="Grupo 878918" transform="translate(89.406 84.974)">
        <path id="Trazado_201113" data-name="Trazado 201113" d="M390.027,294.112l-81.909-47.29a7.945,7.945,0,0,1-3.317-6.339V239c0-2.443,1.485-3.566,3.317-2.508l81.909,47.29a7.945,7.945,0,0,1,3.317,6.339V291.6C393.344,294.047,391.859,295.17,390.027,294.112Z" transform="translate(-304.8 -236.091)" fill="#fff"/>
        <path id="Trazado_201114" data-name="Trazado 201114" d="M390.027,309.895l-81.909-47.29a7.945,7.945,0,0,1-3.317-6.339V254.78c0-2.443,1.485-3.566,3.317-2.509l81.909,47.291a7.945,7.945,0,0,1,3.317,6.339v1.486C393.344,309.83,391.859,310.953,390.027,309.895Z" transform="translate(-304.8 -232.568)" fill="#fff"/>
        <path id="Trazado_201115" data-name="Trazado 201115" d="M390.027,325.678l-81.909-47.291a7.943,7.943,0,0,1-3.317-6.339v-1.486c0-2.443,1.485-3.564,3.317-2.508l81.909,47.291a7.943,7.943,0,0,1,3.317,6.339v1.486C393.344,325.613,391.859,326.736,390.027,325.678Z" transform="translate(-304.8 -229.045)" fill="#fff"/>
        <path id="Trazado_201116" data-name="Trazado 201116" d="M390.027,341.46l-81.909-47.29a7.945,7.945,0,0,1-3.317-6.339v-1.486c0-2.443,1.485-3.566,3.317-2.508l81.909,47.29a7.945,7.945,0,0,1,3.317,6.339v1.486C393.344,341.395,391.859,342.518,390.027,341.46Z" transform="translate(-304.8 -225.522)" fill="#fff"/>
      </g>
      <g id="Grupo_878919" data-name="Grupo 878919" transform="translate(10.096 10.336)">
        <ellipse id="Elipse_4930" data-name="Elipse 4930" cx="4.05" cy="7.016" rx="4.05" ry="7.016" transform="translate(0 4.088) rotate(-30.31)" fill="#fff"/>
        <ellipse id="Elipse_4931" data-name="Elipse 4931" cx="4.05" cy="7.016" rx="4.05" ry="7.016" transform="translate(11.69 10.837) rotate(-30.31)" fill="#fff"/>
        <path id="Trazado_201117" data-name="Trazado 201117" d="M270.714,196.771c0,3.153-2.229,4.424-4.976,2.837a10.963,10.963,0,0,1-4.976-8.583c0-3.153,2.228-4.423,4.976-2.837A10.968,10.968,0,0,1,270.714,196.771Z" transform="translate(-235.32 -172.299)" fill="#fff"/>
        <path id="Trazado_201118" data-name="Trazado 201118" d="M280.27,202.288c0,3.155-2.228,4.424-4.976,2.838a10.968,10.968,0,0,1-4.976-8.583c0-3.153,2.229-4.424,4.976-2.837A10.962,10.962,0,0,1,280.27,202.288Z" transform="translate(-233.187 -171.067)" fill="#fff"/>
      </g>
    </g>
  </g>
</svg>
