<svg xmlns="http://www.w3.org/2000/svg" xmlns:xlink="http://www.w3.org/1999/xlink" width="85" height="85" viewBox="0 0 85 85">
  <defs>
    <clipPath id="clip-path">
      <rect id="Rectángulo_66928" data-name="Rectángulo 66928" width="85" height="85" transform="translate(200 8021)" fill="#fff" stroke="#707070" stroke-width="1"/>
    </clipPath>
  </defs>
  <g id="Enmascarar_grupo_66" data-name="Enmascarar grupo 66" transform="translate(-200 -8021)" clip-path="url(#clip-path)">
    <g id="agrietamiento" transform="translate(200 8021)">
      <g id="Grupo_878750" data-name="Grupo 878750">
        <path id="Trazado_200671" data-name="Trazado 200671" d="M1.162,23.49H83.838V71.072a2.972,2.972,0,0,1-2.972,2.972H4.134a2.972,2.972,0,0,1-2.972-2.972V23.49Z" fill="#f4d844"/>
        <path id="Trazado_200672" data-name="Trazado 200672" d="M4.482,10.957H80.518a3.32,3.32,0,0,1,3.32,3.32V23.49H1.162V14.277a3.32,3.32,0,0,1,3.32-3.32Z" fill="#607880"/>
        <g id="Grupo_878748" data-name="Grupo 878748">
          <path id="Trazado_200673" data-name="Trazado 200673" d="M78.525,18.385H33a1.162,1.162,0,0,1,0-2.324H78.525a1.162,1.162,0,1,1,0,2.324Z" fill="#94e0da"/>
          <path id="Trazado_200674" data-name="Trazado 200674" d="M9.547,18.385H6.475a1.162,1.162,0,1,1,0-2.324H9.547a1.162,1.162,0,0,1,0,2.324Z" fill="#94e0da"/>
          <path id="Trazado_200675" data-name="Trazado 200675" d="M18.388,18.385H15.315a1.162,1.162,0,0,1,0-2.324h3.073a1.162,1.162,0,0,1,0,2.324Z" fill="#94e0da"/>
          <path id="Trazado_200676" data-name="Trazado 200676" d="M27.227,18.385H24.155a1.162,1.162,0,1,1,0-2.324h3.071a1.162,1.162,0,0,1,0,2.324Z" fill="#94e0da"/>
        </g>
        <path id="Trazado_200677" data-name="Trazado 200677" d="M52.242,43.823H46.93V37.249a2.656,2.656,0,0,0-2.656-2.656H40.726a2.656,2.656,0,0,0-2.656,2.656v1.295H32.758V37.249a7.978,7.978,0,0,1,7.969-7.969h3.547a7.978,7.978,0,0,1,7.969,7.969Z" fill="#607880"/>
        <g id="Grupo_878749" data-name="Grupo 878749">
          <path id="Trazado_200678" data-name="Trazado 200678" d="M53.258,43.823H44.841l-2,5.373h5.937L41.982,66.631H53.258a2.656,2.656,0,0,0,2.656-2.656v-17.5a2.656,2.656,0,0,0-2.656-2.656Z" fill="#de6246"/>
          <path id="Trazado_200679" data-name="Trazado 200679" d="M35.189,54.508l3.984-10.685H31.742a2.656,2.656,0,0,0-2.656,2.656v17.5a2.656,2.656,0,0,0,2.656,2.656h10.24l-.113-12.122Z" fill="#de6246"/>
        </g>
      </g>
      <g id="Grupo_878751" data-name="Grupo 878751">
        <path id="Trazado_200680" data-name="Trazado 200680" d="M80.518,9.794H6.475a1.162,1.162,0,1,0,0,2.324H80.518a2.161,2.161,0,0,1,2.158,2.158v8.052H2.324v-8.05a1.162,1.162,0,0,0-2.324,0v56.8a4.139,4.139,0,0,0,4.134,4.134H80.866A4.139,4.139,0,0,0,85,71.072V14.277a4.488,4.488,0,0,0-4.482-4.484Zm2.158,61.278a1.812,1.812,0,0,1-1.81,1.81H4.134a1.812,1.812,0,0,1-1.81-1.81V24.654H82.676Z"/>
        <path id="Trazado_200681" data-name="Trazado 200681" d="M78.525,18.385a1.162,1.162,0,1,0,0-2.324H33a1.162,1.162,0,0,0,0,2.324Z"/>
        <path id="Trazado_200682" data-name="Trazado 200682" d="M9.547,18.385a1.162,1.162,0,1,0,0-2.324H6.475a1.162,1.162,0,0,0,0,2.324Z"/>
        <path id="Trazado_200683" data-name="Trazado 200683" d="M18.388,18.385a1.162,1.162,0,1,0,0-2.324H15.315a1.162,1.162,0,0,0,0,2.324Z"/>
        <path id="Trazado_200684" data-name="Trazado 200684" d="M27.227,18.385a1.162,1.162,0,1,0,0-2.324H24.155a1.162,1.162,0,0,0,0,2.324Z"/>
        <path id="Trazado_200685" data-name="Trazado 200685" d="M55.914,52.736A1.162,1.162,0,0,0,54.752,53.9v2.656a1.162,1.162,0,0,0,2.324,0V53.9a1.162,1.162,0,0,0-1.162-1.162Z"/>
        <path id="Trazado_200686" data-name="Trazado 200686" d="M31.742,67.793H53.258a3.822,3.822,0,0,0,3.818-3.818,1.162,1.162,0,1,0-2.324,0,1.5,1.5,0,0,1-1.494,1.494H43.682l6.176-15.851a1.163,1.163,0,0,0-1.083-1.584H44.512l1.137-3.049h7.609a1.5,1.5,0,0,1,1.494,1.494,1.162,1.162,0,1,0,2.324,0A3.82,3.82,0,0,0,53.4,42.668V37.254a9.141,9.141,0,0,0-9.131-9.131H40.726A9.141,9.141,0,0,0,31.6,37.254v1.294a1.161,1.161,0,0,0,1.162,1.162H38.07a1.162,1.162,0,0,0,1.162-1.162V37.254a1.5,1.5,0,0,1,1.494-1.494h3.547a1.5,1.5,0,0,1,1.494,1.494v5.41h-.93a1.161,1.161,0,0,0-1.088.756l-2,5.373a1.162,1.162,0,0,0,1.088,1.568h4.237L43.088,60.6l-.056-6.1a1.162,1.162,0,0,0-1.162-1.151H36.862l3.4-9.12a1.162,1.162,0,0,0-1.089-1.569h-7.43a3.822,3.822,0,0,0-3.818,3.818v17.5a3.822,3.822,0,0,0,3.818,3.818ZM44.274,33.432H40.726a3.822,3.822,0,0,0-3.818,3.818v.133H33.92v-.133a6.814,6.814,0,0,1,6.807-6.807h3.547a6.814,6.814,0,0,1,6.807,6.81v5.41H48.092v-5.41a3.823,3.823,0,0,0-3.818-3.822ZM30.247,46.479a1.5,1.5,0,0,1,1.494-1.494H37.5L34.1,54.1a1.162,1.162,0,0,0,1.089,1.568h5.529l.091,9.8H31.742a1.5,1.5,0,0,1-1.494-1.494Z"/>
      </g>
    </g>
  </g>
</svg>
