<svg xmlns="http://www.w3.org/2000/svg" xmlns:xlink="http://www.w3.org/1999/xlink" width="85" height="85" viewBox="0 0 85 85">
  <defs>
    <clipPath id="clip-path">
      <rect id="Rectángulo_66929" data-name="Rectángulo 66929" width="85" height="85" transform="translate(200 8021)" fill="#fff" stroke="#707070" stroke-width="1"/>
    </clipPath>
  </defs>
  <g id="Enmascarar_grupo_67" data-name="Enmascarar grupo 67" transform="translate(-200 -8021)" clip-path="url(#clip-path)">
    <g id="usb" transform="translate(200.066 8021.033)">
      <g id="Grupo_878753" data-name="Grupo 878753">
        <path id="Trazado_200687" data-name="Trazado 200687" d="M5.772,79.145a15.7,15.7,0,0,1,0-22.158L46.837,15.922,69,38.08,27.93,79.145a15.577,15.577,0,0,1-22.158,0Z" fill="#f4d844"/>
        <path id="Trazado_200688" data-name="Trazado 200688" d="M51.216,9.752,75.165,33.7a3.753,3.753,0,1,1-5.307,5.307L45.975,15.059a3.764,3.764,0,0,1,0-5.307,3.684,3.684,0,0,1,5.241,0Z" fill="#afdb35"/>
        <path id="Trazado_200689" data-name="Trazado 200689" d="M68.531,1.725,83.192,16.386a1.963,1.963,0,0,1,0,2.72L71.914,30.384,54.466,13,65.744,1.725a2.047,2.047,0,0,1,2.786,0Z" fill="#607880"/>
        <g id="Grupo_878752" data-name="Grupo 878752">
          <path id="Trazado_200690" data-name="Trazado 200690" d="M62.759,12.074l3.45-3.45a1.283,1.283,0,0,1,1.858,0l1.46,1.46a1.283,1.283,0,0,1,0,1.858l-3.45,3.45a1.283,1.283,0,0,1-1.858,0l-1.46-1.46A1.283,1.283,0,0,1,62.759,12.074Z" fill="#eaeaf0"/>
          <path id="Trazado_200691" data-name="Trazado 200691" d="M69.526,18.841l3.45-3.45a1.283,1.283,0,0,1,1.858,0l1.46,1.46a1.283,1.283,0,0,1,0,1.858l-3.45,3.45a1.283,1.283,0,0,1-1.858,0l-1.46-1.46A1.283,1.283,0,0,1,69.526,18.841Z" fill="#eaeaf0"/>
          <path id="Trazado_200692" data-name="Trazado 200692" d="M10.814,61.1l-.464.464a9.194,9.194,0,0,0,13,13l.464-.464Z" fill="#eaeaf0"/>
        </g>
        <circle id="Elipse_4927" data-name="Elipse 4927" cx="2.587" cy="2.587" r="2.587" transform="translate(27.134 52.476)" fill="#607880"/>
      </g>
      <g id="Grupo_878755" data-name="Grupo 878755">
        <path id="Trazado_200693" data-name="Trazado 200693" d="M49.491,55.926,46.7,58.712a1.173,1.173,0,0,0,1.659,1.659l2.786-2.786a1.173,1.173,0,0,0-1.659-1.659Z"/>
        <path id="Trazado_200694" data-name="Trazado 200694" d="M84.917,17.779a3.122,3.122,0,0,0-.929-2.189l-4.71-4.71a1.173,1.173,0,0,0-1.659,1.659l4.71,4.71a.763.763,0,0,1,0,1.128L71.848,28.858,56.125,13,66.607,2.521a.9.9,0,0,1,1.128,0l4.445,4.445a1.173,1.173,0,0,0,1.659-1.659L69.393.862a3.124,3.124,0,0,0-4.379,0L54.466,11.344,52.012,8.89a4.879,4.879,0,0,0-6.9,6.9l.066.066L4.909,56.191a16.841,16.841,0,0,0,23.75,23.883l.066-.066,13.4-13.4a1.161,1.161,0,0,0,0-1.659,1.083,1.083,0,0,0-1.592,0l-13.4,13.4a14.5,14.5,0,0,1-20.5-20.5L46.9,17.58l20.5,20.5L55.793,49.69a1.161,1.161,0,0,0,0,1.659,1.083,1.083,0,0,0,1.592,0L69,39.738l.066.066a4.879,4.879,0,1,0,6.9-6.9l-2.455-2.455L83.988,19.969a3.008,3.008,0,0,0,.929-2.189ZM70.72,38.146,46.771,14.2a2.58,2.58,0,0,1,3.649-3.649L74.369,34.5a2.6,2.6,0,0,1,.066,3.649A2.685,2.685,0,0,1,70.72,38.146Z"/>
        <path id="Trazado_200695" data-name="Trazado 200695" d="M71.052,11.013a2.409,2.409,0,0,0-.73-1.725l-1.46-1.46a2.484,2.484,0,0,0-3.45,0L61.9,11.278a2.484,2.484,0,0,0,0,3.45l1.46,1.46a2.484,2.484,0,0,0,3.45,0l3.45-3.45a2.039,2.039,0,0,0,.8-1.725Zm-2.322.133L65.214,14.6a.124.124,0,0,1-.2,0l-1.46-1.46a.124.124,0,0,1,0-.2L67,9.487a.124.124,0,0,1,.2,0l1.46,1.46c.133.066.133.133.066.2Z"/>
        <path id="Trazado_200696" data-name="Trazado 200696" d="M72.179,14.529l-3.45,3.45a2.484,2.484,0,0,0,0,3.45l1.46,1.46a2.484,2.484,0,0,0,3.45,0l3.45-3.45a2.423,2.423,0,0,0,0-3.45l-1.46-1.46a2.484,2.484,0,0,0-3.45,0Zm1.791,1.659,1.46,1.46a.124.124,0,0,1,0,.2L71.98,21.3a.124.124,0,0,1-.2,0L70.322,19.9a.124.124,0,0,1,0-.2l3.45-3.45.066-.066Z"/>
        <g id="Grupo_878754" data-name="Grupo 878754">
          <path id="Trazado_200697" data-name="Trazado 200697" d="M43.52,36.753a1.135,1.135,0,0,0-1.128,1.194,1.224,1.224,0,0,0,.332.8l.929.929-7.5,7.43-1,1L33.7,44.449,34.9,43.255A1.173,1.173,0,1,0,36.554,41.6L34.9,39.937a1.161,1.161,0,0,0-1.659,0,1.083,1.083,0,0,0,0,1.592l-1.725,1.725a1.238,1.238,0,0,0-.265,1.26l2.123,5.307L31.512,51.68a3.748,3.748,0,0,0-5.042,1.659,3.836,3.836,0,0,0,.663,4.379,3.764,3.764,0,0,0,5.307,0,3.819,3.819,0,0,0,.663-4.379l4.18-4.18,5.307,2.123a1.137,1.137,0,0,0,1.26-.265l1.725-1.725a1.173,1.173,0,0,0,1.659-1.659l-1.659-1.659a1.173,1.173,0,0,0-1.659,1.659l-1.194,1.194-3.649-1.46,6.236-6.236.929.929a1.161,1.161,0,0,0,1.99-.8l.133-3.582a1.177,1.177,0,0,0-1.128-1.194ZM30.782,56.125a1.463,1.463,0,0,1-2.057-.066,1.443,1.443,0,0,1,0-1.99,1.527,1.527,0,0,1,2.057,0A1.4,1.4,0,0,1,30.782,56.125Z"/>
        </g>
        <path id="Trazado_200698" data-name="Trazado 200698" d="M10.018,60.238l-.464.464A10.367,10.367,0,0,0,24.215,75.364l.464-.464a1.161,1.161,0,0,0,0-1.659l-13-13A1.3,1.3,0,0,0,10.018,60.238Zm6.833,15.856a8.013,8.013,0,0,1-8.027-8.027,8.117,8.117,0,0,1,2.057-5.374L22.224,74.037a8.117,8.117,0,0,1-5.374,2.057Z"/>
      </g>
    </g>
  </g>
</svg>
