<svg xmlns="http://www.w3.org/2000/svg" xmlns:xlink="http://www.w3.org/1999/xlink" width="85" height="85" viewBox="0 0 85 85">
  <defs>
    <clipPath id="clip-path">
      <rect id="Rect치ngulo_66921" data-name="Rect치ngulo 66921" width="85" height="85" transform="translate(451 8021)" fill="#fff" stroke="#707070" stroke-width="1"/>
    </clipPath>
  </defs>
  <g id="Enmascarar_grupo_65" data-name="Enmascarar grupo 65" transform="translate(-451 -8021)" clip-path="url(#clip-path)">
    <g id="suplantacion-de-identidad" transform="translate(451 8021)">
      <g id="Grupo_878746" data-name="Grupo 878746">
        <path id="Trazado_200649" data-name="Trazado 200649" d="M1.162,23.49H83.838V71.072a2.972,2.972,0,0,1-2.972,2.972H4.134a2.972,2.972,0,0,1-2.972-2.972V23.49Z" fill="#f4d844"/>
        <path id="Trazado_200650" data-name="Trazado 200650" d="M4.482,10.957H80.518a3.32,3.32,0,0,1,3.32,3.32V23.49H1.162V14.277a3.32,3.32,0,0,1,3.32-3.32Z" fill="#607880"/>
        <g id="Grupo_878744" data-name="Grupo 878744">
          <path id="Trazado_200651" data-name="Trazado 200651" d="M78.525,18.385H33a1.162,1.162,0,0,1,0-2.324H78.525a1.162,1.162,0,1,1,0,2.324Z" fill="#94e0da"/>
          <path id="Trazado_200652" data-name="Trazado 200652" d="M9.547,18.385H6.475a1.162,1.162,0,1,1,0-2.324H9.547a1.162,1.162,0,0,1,0,2.324Z" fill="#94e0da"/>
          <path id="Trazado_200653" data-name="Trazado 200653" d="M18.388,18.385H15.315a1.162,1.162,0,0,1,0-2.324h3.073a1.162,1.162,0,0,1,0,2.324Z" fill="#94e0da"/>
          <path id="Trazado_200654" data-name="Trazado 200654" d="M27.227,18.385H24.155a1.162,1.162,0,1,1,0-2.324h3.071a1.162,1.162,0,0,1,0,2.324Z" fill="#94e0da"/>
        </g>
        <rect id="Rect치ngulo_66927" data-name="Rect치ngulo 66927" width="13.779" height="5.959" rx="2.979" transform="translate(63.413 39.116)" fill="#607880"/>
        <g id="Grupo_878745" data-name="Grupo 878745">
          <path id="Trazado_200655" data-name="Trazado 200655" d="M67.646,23.49h5.313V39.116H67.646Z" fill="#eaeaf0"/>
          <path id="Trazado_200656" data-name="Trazado 200656" d="M67.646,55.694a6.4,6.4,0,0,1-6.829,6.375,6.542,6.542,0,0,1-5.954-6.6V53.452h6.646l-2.274-1.569a17.047,17.047,0,0,0-9.685-3.018v6.518A11.962,11.962,0,0,0,61.452,67.4a11.718,11.718,0,0,0,11.506-11.7V45.075H67.645Z" fill="#eaeaf0"/>
        </g>
        <path id="Trazado_200657" data-name="Trazado 200657" d="M29.219,41.7c-4.113,0-7.8,2.076-10.315,3.975l-7.947-3.647,2.656,6.743-2.656,6.7,7.949-3.647c2.515,1.9,6.2,3.975,10.313,3.975,13.281,0,13.722-7.05,13.722-7.05S42.5,41.7,29.219,41.7Z" fill="#94e0da"/>
        <path id="Trazado_200658" data-name="Trazado 200658" d="M42.943,48.748s-.294-4.664-7.549-6.406a9.883,9.883,0,0,0,0,12.81c7.255-1.741,7.549-6.4,7.549-6.4Z" fill="#de6246"/>
        <path id="Trazado_200659" data-name="Trazado 200659" d="M28.695,52.877a1.162,1.162,0,0,1-1.136-.924,15.639,15.639,0,0,1,0-6.411,1.162,1.162,0,1,1,2.275.475,13.314,13.314,0,0,0,0,5.46,1.162,1.162,0,0,1-.9,1.375,1.134,1.134,0,0,1-.239.025Z" fill="#607880"/>
        <path id="Trazado_200660" data-name="Trazado 200660" d="M25.825,42.155a13.344,13.344,0,0,1,3.394-.458,30.655,30.655,0,0,1,3.714.214,5.519,5.519,0,0,0-5.417-4.474H23.159a5.512,5.512,0,0,0,2.666,4.718Z" fill="#607880"/>
        <path id="Trazado_200661" data-name="Trazado 200661" d="M37.478,48.56H36.9a1.162,1.162,0,1,1,0-2.324h.581a1.162,1.162,0,0,1,0,2.324Z" fill="#f4d844"/>
      </g>
      <g id="Grupo_878747" data-name="Grupo 878747">
        <path id="Trazado_200662" data-name="Trazado 200662" d="M80.518,9.794H33.037a1.162,1.162,0,0,0,0,2.324h47.48a2.161,2.161,0,0,1,2.158,2.158v8.052H2.324v-8.05a2.161,2.161,0,0,1,2.158-2.158h8.467a1.162,1.162,0,1,0,0-2.324H4.482A4.488,4.488,0,0,0,0,14.277v56.8a4.139,4.139,0,0,0,4.134,4.134H80.866A4.139,4.139,0,0,0,85,71.072V14.277a4.488,4.488,0,0,0-4.482-4.484ZM71.8,24.652v13.3H68.808v-13.3Zm-5.4,19.258a1.817,1.817,0,1,1,0-3.635h7.821a1.817,1.817,0,1,1,0,3.635ZM82.676,71.07a1.812,1.812,0,0,1-1.81,1.81H4.134a1.812,1.812,0,0,1-1.81-1.808V24.654h64.16v13.3h-.092a4.142,4.142,0,1,0,0,8.283h.092v9.458a5.236,5.236,0,0,1-5.589,5.218,5.364,5.364,0,0,1-4.87-5.445v-.852h5.484a1.162,1.162,0,0,0,.66-2.118l-2.27-1.57A18.134,18.134,0,0,0,49.554,47.7a1.163,1.163,0,0,0-1.162,1.162v6.518A13.362,13.362,0,0,0,53.77,66.052a1.162,1.162,0,0,0,1.387-1.865,11.023,11.023,0,0,1-4.445-8.8V50.07a15.8,15.8,0,0,1,7.011,2.221h-2.86A1.163,1.163,0,0,0,53.7,53.454V55.47a7.692,7.692,0,0,0,7.039,7.762,7.5,7.5,0,0,0,5.672-2.02,7.582,7.582,0,0,0,2.4-5.516V46.237H71.8v9.458A10.589,10.589,0,0,1,61.433,66.235a1.162,1.162,0,1,0,.019,2.324h.02A12.924,12.924,0,0,0,74.121,55.695V46.237h.092a4.142,4.142,0,1,0,0-8.283h-.092v-13.3h8.555Z"/>
        <path id="Trazado_200663" data-name="Trazado 200663" d="M21.084,12.118H24.9a1.162,1.162,0,1,0,0-2.324H21.084a1.162,1.162,0,0,0,0,2.324Z"/>
        <path id="Trazado_200664" data-name="Trazado 200664" d="M78.525,18.385a1.162,1.162,0,1,0,0-2.324H33a1.162,1.162,0,0,0,0,2.324Z"/>
        <path id="Trazado_200665" data-name="Trazado 200665" d="M6.475,16.061a1.162,1.162,0,0,0,0,2.324H9.547a1.162,1.162,0,1,0,0-2.324Z"/>
        <path id="Trazado_200666" data-name="Trazado 200666" d="M15.315,18.385h3.073a1.162,1.162,0,1,0,0-2.324H15.315a1.162,1.162,0,0,0,0,2.324Z"/>
        <path id="Trazado_200667" data-name="Trazado 200667" d="M22.993,17.223a1.163,1.163,0,0,0,1.162,1.162h3.071a1.162,1.162,0,1,0,0-2.324H24.155a1.162,1.162,0,0,0-1.162,1.162Z"/>
        <path id="Trazado_200668" data-name="Trazado 200668" d="M44.094,48.589a.662.662,0,0,0-.013-.108c-.147-1.084-1.319-6.269-10.227-7.623a6.684,6.684,0,0,0-6.336-4.582H23.159A1.163,1.163,0,0,0,22,37.439a6.614,6.614,0,0,0,1.544,4.25A22.7,22.7,0,0,0,18.77,44.33l-7.329-3.362a1.162,1.162,0,0,0-1.565,1.483l2.49,6.315-2.49,6.275a1.162,1.162,0,0,0,1.565,1.485l7.329-3.362a18.536,18.536,0,0,0,10.449,3.8,26.532,26.532,0,0,0,7.172-.863H36.4c6.6-1.853,7.554-6.109,7.686-7.08a1.61,1.61,0,0,0,.011-.427ZM35.838,43.66c5.14,1.478,5.844,4.516,5.935,5.087-.088.57-.8,3.609-5.935,5.087a8.715,8.715,0,0,1,0-10.175Zm-9.79-2.754a4.316,4.316,0,0,1-1.571-2.3h3.04a4.363,4.363,0,0,1,3.657,1.992A18.465,18.465,0,0,0,26.048,40.906ZM19.606,50.9a1.159,1.159,0,0,0-.7-.235,1.171,1.171,0,0,0-.485.106l-5.316,2.439L14.7,49.2a1.163,1.163,0,0,0,0-.855l-1.6-4.055,5.324,2.443a1.165,1.165,0,0,0,1.185-.133,19.279,19.279,0,0,1,6.57-3.333,18.438,18.438,0,0,1,7.23-.124,11.023,11.023,0,0,0,0,11.211,28.825,28.825,0,0,1-4.184.283c-3.856,0-7.356-2.033-9.616-3.739Z"/>
        <path id="Trazado_200669" data-name="Trazado 200669" d="M28.934,44.642a1.159,1.159,0,0,0-1.375.9,15.639,15.639,0,0,0,0,6.411,1.162,1.162,0,0,0,1.136.924,1.134,1.134,0,0,0,.239-.025,1.162,1.162,0,0,0,.9-1.375,13.314,13.314,0,0,1,0-5.46A1.161,1.161,0,0,0,28.934,44.642Z"/>
        <path id="Trazado_200670" data-name="Trazado 200670" d="M36.9,48.56h.581a1.162,1.162,0,1,0,0-2.324H36.9a1.162,1.162,0,0,0,0,2.324Z"/>
      </g>
    </g>
  </g>
</svg>
