<svg xmlns="http://www.w3.org/2000/svg" xmlns:xlink="http://www.w3.org/1999/xlink" width="641" height="340.824" viewBox="0 0 641 340.824">
  <defs>
    <linearGradient id="linear-gradient" x1="0.5" x2="0.5" y2="1" gradientUnits="objectBoundingBox">
      <stop offset="0" stop-color="#f1cd63"/>
      <stop offset="0.338" stop-color="#f3c75e"/>
      <stop offset="0.777" stop-color="#fab750"/>
      <stop offset="1" stop-color="#ffac47"/>
    </linearGradient>
    <linearGradient id="linear-gradient-3" x1="0.5" x2="0.5" y2="1" gradientUnits="objectBoundingBox">
      <stop offset="0" stop-color="#d0c6cb"/>
      <stop offset="0.084" stop-color="#ded7da"/>
      <stop offset="0.206" stop-color="#ece9eb"/>
      <stop offset="0.354" stop-color="#f7f5f6"/>
      <stop offset="0.551" stop-color="#fdfcfd"/>
      <stop offset="1" stop-color="#fff"/>
    </linearGradient>
    <linearGradient id="linear-gradient-4" x1="0.5" x2="0.5" y2="1" gradientUnits="objectBoundingBox">
      <stop offset="0" stop-color="#96ccff"/>
      <stop offset="0.931" stop-color="#5c96e5"/>
      <stop offset="1" stop-color="#5892e3"/>
    </linearGradient>
    <clipPath id="clip-path">
      <rect id="Rectángulo_75204" data-name="Rectángulo 75204" width="51" height="51" transform="translate(537 2084)" fill="#fb394b"/>
    </clipPath>
    <clipPath id="clip-path-2">
      <rect id="Rectángulo_75205" data-name="Rectángulo 75205" width="51" height="51" transform="translate(1024 2156)" fill="#fb394b"/>
    </clipPath>
    <clipPath id="clip-path-3">
      <rect id="Rectángulo_75206" data-name="Rectángulo 75206" width="51" height="51" transform="translate(537 2260)" fill="#fb394b"/>
    </clipPath>
  </defs>
  <g id="Grupo_883807" data-name="Grupo 883807" transform="translate(-495 -2077.588)">
    <g id="Grupo_883798" data-name="Grupo 883798" transform="translate(11 35.588)">
      <g id="Grupo_883797" data-name="Grupo 883797">
        <g id="Grupo_883763" data-name="Grupo 883763" transform="translate(-6.599 1882.017)">
          <circle id="Elipse_5042" data-name="Elipse 5042" cx="78.5" cy="78.5" r="78.5" transform="translate(974.598 246.483)" fill="url(#linear-gradient)"/>
          <circle id="Elipse_5043" data-name="Elipse 5043" cx="22.834" cy="22.834" r="22.834" transform="translate(1081.606 287.969) rotate(-90)" fill="url(#linear-gradient)"/>
          <g id="Grupo_883734" data-name="Grupo 883734" transform="translate(983.498 254.77)">
            <circle id="Elipse_5044" data-name="Elipse 5044" cx="69.786" cy="69.786" r="69.786" transform="translate(0 0.513)" fill="url(#linear-gradient-3)"/>
            <path id="Trazado_272443" data-name="Trazado 272443" d="M1192.94,395.522a69.783,69.783,0,0,1,69.769,68.47c.008-.438.017-.875.017-1.315a69.786,69.786,0,0,0-139.572,0c0,.44.009.878.017,1.315A69.783,69.783,0,0,1,1192.94,395.522Z" transform="translate(-1123.154 -392.891)" fill="#fff"/>
          </g>
        </g>
        <rect id="Rectángulo_66800" data-name="Rectángulo 66800" width="190" height="54" rx="20" transform="translate(744 2184)" fill="#7433ee"/>
        <line id="Línea_147" data-name="Línea 147" x2="100.5" y2="50" transform="translate(626 2129.5)" fill="none" stroke="#12263f" stroke-width="2"/>
        <line id="Línea_148" data-name="Línea 148" y1="51" x2="100.5" transform="translate(626 2244.5)" fill="none" stroke="#12263f" stroke-width="2"/>
        <text id="Riesgo" transform="translate(812 2217)" fill="#fff" font-size="18" font-family="Roboto-Black, Roboto" font-weight="800"><tspan x="0" y="0">Riesgo</tspan></text>
        <path id="Trazado_272509" data-name="Trazado 272509" d="M18.836,13.977a1.127,1.127,0,0,0-.426-.937,5.292,5.292,0,0,0-1.5-.7,14.353,14.353,0,0,1-1.75-.7,3.314,3.314,0,0,1-2.211-2.984A2.676,2.676,0,0,1,13.5,7a3.562,3.562,0,0,1,1.559-1.125,6.065,6.065,0,0,1,2.266-.4,5.305,5.305,0,0,1,2.2.438,3.482,3.482,0,0,1,1.512,1.246A3.254,3.254,0,0,1,21.578,9H18.844a1.375,1.375,0,0,0-.426-1.078,1.66,1.66,0,0,0-1.152-.383,1.872,1.872,0,0,0-1.16.324.955.955,0,0,0,.043,1.617,5.911,5.911,0,0,0,1.648.734,10.1,10.1,0,0,1,1.938.816,3.256,3.256,0,0,1,1.844,2.93A2.778,2.778,0,0,1,20.453,16.3a5,5,0,0,1-3.086.852,6.122,6.122,0,0,1-2.5-.5A3.775,3.775,0,0,1,13.176,15.3a3.542,3.542,0,0,1-.566-1.988h2.75a1.744,1.744,0,0,0,.473,1.348,2.234,2.234,0,0,0,1.535.434,1.765,1.765,0,0,0,1.074-.293A.967.967,0,0,0,18.836,13.977ZM25.641,17H23V8.547h2.641Zm-2.8-10.633a1.175,1.175,0,0,1,.406-.922,1.727,1.727,0,0,1,2.109,0,1.175,1.175,0,0,1,.406.922,1.175,1.175,0,0,1-.406.922,1.727,1.727,0,0,1-2.109,0A1.175,1.175,0,0,1,22.844,6.367Zm8.844,8.258a.608.608,0,0,0-.352-.539A5.348,5.348,0,0,0,30,13.664a6.092,6.092,0,0,1-1.625-.574,2.722,2.722,0,0,1-.977-.863,2.061,2.061,0,0,1-.336-1.164,2.336,2.336,0,0,1,.961-1.918,3.958,3.958,0,0,1,2.516-.754,4.386,4.386,0,0,1,2.688.758,2.37,2.37,0,0,1,1.016,1.992H31.6q0-1.016-1.07-1.016a1.061,1.061,0,0,0-.7.23.714.714,0,0,0-.281.574.655.655,0,0,0,.344.57,3.248,3.248,0,0,0,1.1.359,9.486,9.486,0,0,1,1.324.336,2.406,2.406,0,0,1,1.906,2.352A2.214,2.214,0,0,1,33.2,16.43a4.505,4.505,0,0,1-2.66.727,4.6,4.6,0,0,1-1.937-.391A3.24,3.24,0,0,1,27.273,15.7a2.406,2.406,0,0,1-.477-1.414h2.461a1.017,1.017,0,0,0,.391.855,1.607,1.607,0,0,0,.961.27,1.264,1.264,0,0,0,.809-.219A.7.7,0,0,0,31.688,14.625Zm6.836-8.18v2.1h1.391v1.828H38.523v3.867a.987.987,0,0,0,.172.664.922.922,0,0,0,.68.188,3.862,3.862,0,0,0,.656-.047V16.93a4.859,4.859,0,0,1-1.484.227,2.758,2.758,0,0,1-2.008-.641,2.626,2.626,0,0,1-.648-1.945v-4.2H34.813V8.547h1.078v-2.1Zm6.516,10.711A4.345,4.345,0,0,1,41.891,16a4.006,4.006,0,0,1-1.2-3.02v-.219a5.191,5.191,0,0,1,.48-2.289,3.516,3.516,0,0,1,1.4-1.535,4.233,4.233,0,0,1,2.188-.543A3.659,3.659,0,0,1,47.57,9.5,4.344,4.344,0,0,1,48.6,12.578V13.6H43.367a1.9,1.9,0,0,0,.617,1.117,1.836,1.836,0,0,0,1.234.406,2.366,2.366,0,0,0,1.953-.875l1.2,1.422a3.363,3.363,0,0,1-1.395,1.082A4.713,4.713,0,0,1,45.039,17.156Zm-.3-6.734q-1.156,0-1.375,1.531h2.656v-.2a1.3,1.3,0,0,0-.32-.98A1.275,1.275,0,0,0,44.742,10.422Zm7.406-1.875.086.992a2.906,2.906,0,0,1,2.414-1.148,2.14,2.14,0,0,1,2.164,1.273A2.813,2.813,0,0,1,59.3,8.391q2.57,0,2.641,3.109V17H59.3V11.664a1.611,1.611,0,0,0-.219-.945.931.931,0,0,0-.8-.3,1.247,1.247,0,0,0-1.164.7l.008.109V17H54.484V11.68a1.694,1.694,0,0,0-.211-.961.929.929,0,0,0-.8-.3,1.263,1.263,0,0,0-1.156.7V17H49.68V8.547ZM68.2,17a2.973,2.973,0,0,1-.25-.758,2.448,2.448,0,0,1-2.031.914,3,3,0,0,1-2.031-.723,2.3,2.3,0,0,1-.836-1.816,2.364,2.364,0,0,1,1.016-2.078,5.174,5.174,0,0,1,2.953-.7h.813v-.445q0-1.164-1.008-1.164a.822.822,0,0,0-.937.922H63.258A2.364,2.364,0,0,1,64.3,9.156a4.379,4.379,0,0,1,2.66-.766,3.843,3.843,0,0,1,2.555.789,2.743,2.743,0,0,1,.961,2.164v3.742a3.832,3.832,0,0,0,.359,1.781V17Zm-1.648-1.719a1.469,1.469,0,0,0,.816-.211,1.322,1.322,0,0,0,.465-.477V13.242H67.07q-1.375,0-1.375,1.234a.754.754,0,0,0,.242.582A.876.876,0,0,0,66.555,15.281Zm9.031-2.57a5.164,5.164,0,0,1,.867-3.164,2.854,2.854,0,0,1,2.422-1.156,2.428,2.428,0,0,1,1.906.891V5h2.641V17H81.055l-.133-.906a2.493,2.493,0,0,1-2.062,1.063A2.849,2.849,0,0,1,76.469,16,5.327,5.327,0,0,1,75.586,12.711Zm2.633.164q0,2.25,1.313,2.25a1.3,1.3,0,0,0,1.25-.734V11.172a1.261,1.261,0,0,0-1.234-.75q-1.219,0-1.32,1.969Zm10.789,4.281A4.345,4.345,0,0,1,85.859,16a4.006,4.006,0,0,1-1.2-3.02v-.219a5.191,5.191,0,0,1,.48-2.289,3.516,3.516,0,0,1,1.4-1.535,4.233,4.233,0,0,1,2.188-.543A3.659,3.659,0,0,1,91.539,9.5a4.344,4.344,0,0,1,1.031,3.082V13.6H87.336a1.9,1.9,0,0,0,.617,1.117,1.836,1.836,0,0,0,1.234.406,2.366,2.366,0,0,0,1.953-.875l1.2,1.422a3.363,3.363,0,0,1-1.395,1.082A4.713,4.713,0,0,1,89.008,17.156Zm-.3-6.734q-1.156,0-1.375,1.531h2.656v-.2a1.3,1.3,0,0,0-.32-.98A1.275,1.275,0,0,0,88.711,10.422ZM12.387,37H9.746V28.547h2.641ZM9.59,26.367A1.175,1.175,0,0,1,10,25.445a1.533,1.533,0,0,1,1.055-.359,1.533,1.533,0,0,1,1.055.359,1.249,1.249,0,0,1,0,1.844,1.533,1.533,0,0,1-1.055.359A1.533,1.533,0,0,1,10,27.289,1.175,1.175,0,0,1,9.59,26.367Zm6.836,2.18.086.992a2.867,2.867,0,0,1,2.414-1.148,2.412,2.412,0,0,1,1.973.789,3.757,3.757,0,0,1,.676,2.375V37H18.934V31.664a1.426,1.426,0,0,0-.258-.941,1.193,1.193,0,0,0-.937-.3,1.256,1.256,0,0,0-1.148.609V37H13.957V28.547ZM23.613,37V30.375H22.387V28.547h1.227v-.672a2.921,2.921,0,0,1,.852-2.242,3.364,3.364,0,0,1,2.391-.8A5.235,5.235,0,0,1,28.09,25l.008,1.938a2.4,2.4,0,0,0-.648-.07q-1.2,0-1.2,1.031v.648H27.9v1.828H26.254V37ZM28.5,32.7a4.989,4.989,0,0,1,.492-2.254,3.52,3.52,0,0,1,1.414-1.52,4.259,4.259,0,0,1,2.164-.531,3.887,3.887,0,0,1,2.992,1.176,4.512,4.512,0,0,1,1.094,3.2v.094A4.378,4.378,0,0,1,35.555,36a3.9,3.9,0,0,1-2.973,1.16,3.942,3.942,0,0,1-2.9-1.082,4.232,4.232,0,0,1-1.18-2.934Zm2.633.164a3.145,3.145,0,0,0,.367,1.719,1.223,1.223,0,0,0,1.086.547q1.406,0,1.438-2.164V32.7q0-2.273-1.453-2.273-1.32,0-1.43,1.961Zm11.8-1.93-.867-.062a1.558,1.558,0,0,0-1.594.781V37H37.832V28.547H40.3l.086,1.086a2.039,2.039,0,0,1,1.852-1.242,2.567,2.567,0,0,1,.734.094Zm3.438-2.383.086.992a2.906,2.906,0,0,1,2.414-1.148,2.14,2.14,0,0,1,2.164,1.273,2.813,2.813,0,0,1,2.484-1.273q2.57,0,2.641,3.109V37H53.512V31.664a1.611,1.611,0,0,0-.219-.945.931.931,0,0,0-.8-.3,1.247,1.247,0,0,0-1.164.7l.008.109V37H48.7V31.68a1.694,1.694,0,0,0-.211-.961.929.929,0,0,0-.8-.3,1.263,1.263,0,0,0-1.156.7V37H43.895V28.547ZM62.418,37a2.973,2.973,0,0,1-.25-.758,2.448,2.448,0,0,1-2.031.914,3,3,0,0,1-2.031-.723,2.3,2.3,0,0,1-.836-1.816,2.364,2.364,0,0,1,1.016-2.078,5.174,5.174,0,0,1,2.953-.7h.813v-.445q0-1.164-1.008-1.164a.822.822,0,0,0-.937.922H57.473a2.364,2.364,0,0,1,1.043-1.992,4.379,4.379,0,0,1,2.66-.766,3.843,3.843,0,0,1,2.555.789,2.743,2.743,0,0,1,.961,2.164v3.742a3.832,3.832,0,0,0,.359,1.781V37ZM60.77,35.281a1.469,1.469,0,0,0,.816-.211,1.322,1.322,0,0,0,.465-.477V33.242h-.766q-1.375,0-1.375,1.234a.754.754,0,0,0,.242.582A.876.876,0,0,0,60.77,35.281Zm8.953-.156a1.171,1.171,0,0,0,.859-.3,1.1,1.1,0,0,0,.3-.84h2.469a2.923,2.923,0,0,1-1,2.281,3.705,3.705,0,0,1-2.566.891A3.751,3.751,0,0,1,66.879,36a4.556,4.556,0,0,1-1.062-3.2v-.109a5.149,5.149,0,0,1,.473-2.262,3.441,3.441,0,0,1,1.363-1.508,4.065,4.065,0,0,1,2.109-.527,3.658,3.658,0,0,1,2.617.914,3.242,3.242,0,0,1,.969,2.477H70.879a1.445,1.445,0,0,0-.32-1.008,1.106,1.106,0,0,0-.859-.352q-1.023,0-1.2,1.3a9.206,9.206,0,0,0-.055,1.141,3.616,3.616,0,0,0,.3,1.766A1.055,1.055,0,0,0,69.723,35.125ZM77.238,37H74.6V28.547h2.641Zm-2.8-10.633a1.175,1.175,0,0,1,.406-.922,1.727,1.727,0,0,1,2.109,0,1.249,1.249,0,0,1,0,1.844,1.727,1.727,0,0,1-2.109,0A1.175,1.175,0,0,1,74.441,26.367ZM78.527,32.7a4.989,4.989,0,0,1,.492-2.254,3.52,3.52,0,0,1,1.414-1.52,4.259,4.259,0,0,1,2.164-.531,3.887,3.887,0,0,1,2.992,1.176,4.512,4.512,0,0,1,1.094,3.2v.094A4.378,4.378,0,0,1,85.586,36a3.9,3.9,0,0,1-2.973,1.16,3.942,3.942,0,0,1-2.9-1.082,4.232,4.232,0,0,1-1.18-2.934Zm2.633.164a3.145,3.145,0,0,0,.367,1.719,1.223,1.223,0,0,0,1.086.547q1.406,0,1.438-2.164V32.7q0-2.273-1.453-2.273-1.32,0-1.43,1.961ZM82.957,25h2.781l-2.172,2.453H81.418Zm7.3,3.547.086.992a2.867,2.867,0,0,1,2.414-1.148,2.412,2.412,0,0,1,1.973.789,3.757,3.757,0,0,1,.676,2.375V37H92.77V31.664a1.426,1.426,0,0,0-.258-.941,1.193,1.193,0,0,0-.937-.3,1.256,1.256,0,0,0-1.148.609V37H87.793V28.547Z" transform="translate(997 2217)" fill="#12263f"/>
        <path id="Polígono_5" data-name="Polígono 5" d="M4,0,8,7H0Z" transform="translate(726.61 2238) rotate(50)" fill="#12263f"/>
        <path id="Polígono_6" data-name="Polígono 6" d="M4,0,8,7H0Z" transform="matrix(-0.574, 0.819, -0.819, -0.574, 732.662, 2179.045)" fill="#12263f"/>
        <g id="Grupo_883732" data-name="Grupo 883732" transform="translate(350.502 1793.936)">
          <circle id="Elipse_5039" data-name="Elipse 5039" cx="78.326" cy="78.326" r="78.326" transform="translate(133.498 408.889) rotate(-90)" fill="url(#linear-gradient-4)"/>
          <circle id="Elipse_5040" data-name="Elipse 5040" cx="22.783" cy="22.783" r="22.783" transform="translate(237.47 293.631) rotate(-90)" fill="url(#linear-gradient-4)"/>
          <g id="Grupo_883730" data-name="Grupo 883730" transform="translate(142.378 260.506)">
            <circle id="Elipse_5041" data-name="Elipse 5041" cx="69.631" cy="69.631" r="69.631" transform="translate(0 0.512)" fill="url(#linear-gradient-3)"/>
            <path id="Trazado_272442" data-name="Trazado 272442" d="M345.071,395.516a69.628,69.628,0,0,1,69.614,68.318c.008-.437.017-.873.017-1.312a69.631,69.631,0,1,0-139.261,0c0,.439.009.876.017,1.312A69.628,69.628,0,0,1,345.071,395.516Z" transform="translate(-275.44 -392.891)" fill="#fff"/>
          </g>
        </g>
        <g id="Grupo_883764" data-name="Grupo 883764" transform="translate(350.502 1973.936)">
          <circle id="Elipse_5039-2" data-name="Elipse 5039" cx="78.326" cy="78.326" r="78.326" transform="translate(133.498 408.889) rotate(-90)" fill="url(#linear-gradient-4)"/>
          <circle id="Elipse_5040-2" data-name="Elipse 5040" cx="22.783" cy="22.783" r="22.783" transform="translate(237.47 293.631) rotate(-90)" fill="url(#linear-gradient-4)"/>
          <g id="Grupo_883730-2" data-name="Grupo 883730" transform="translate(142.378 260.506)">
            <circle id="Elipse_5041-2" data-name="Elipse 5041" cx="69.631" cy="69.631" r="69.631" transform="translate(0 0.512)" fill="url(#linear-gradient-3)"/>
            <path id="Trazado_272442-2" data-name="Trazado 272442" d="M345.071,395.516a69.628,69.628,0,0,1,69.614,68.318c.008-.437.017-.873.017-1.312a69.631,69.631,0,1,0-139.261,0c0,.439.009.876.017,1.312A69.628,69.628,0,0,1,345.071,395.516Z" transform="translate(-275.44 -392.891)" fill="#fff"/>
          </g>
        </g>
        <path id="Trazado_272510" data-name="Trazado 272510" d="M7.32-2.125H3.563L2.906,0H-.023L4.148-11.375H6.727L10.93,0H7.984Zm-3.1-2.117H6.664L5.438-8.187Zm9.906-4.211.086.992a2.906,2.906,0,0,1,2.414-1.148,2.14,2.14,0,0,1,2.164,1.273,2.813,2.813,0,0,1,2.484-1.273q2.57,0,2.641,3.109V0H21.273V-5.336a1.611,1.611,0,0,0-.219-.945.931.931,0,0,0-.8-.3,1.247,1.247,0,0,0-1.164.7l.008.109V0H16.461V-5.32a1.694,1.694,0,0,0-.211-.961.929.929,0,0,0-.8-.3,1.263,1.263,0,0,0-1.156.7V0H11.656V-8.453ZM29.508.156A4.345,4.345,0,0,1,26.359-1a4.006,4.006,0,0,1-1.2-3.02v-.219a5.191,5.191,0,0,1,.48-2.289,3.516,3.516,0,0,1,1.4-1.535,4.233,4.233,0,0,1,2.188-.543A3.659,3.659,0,0,1,32.039-7.5,4.344,4.344,0,0,1,33.07-4.422V-3.4H27.836a1.9,1.9,0,0,0,.617,1.117,1.836,1.836,0,0,0,1.234.406,2.366,2.366,0,0,0,1.953-.875l1.2,1.422A3.363,3.363,0,0,1,31.449-.246,4.713,4.713,0,0,1,29.508.156Zm-.3-6.734q-1.156,0-1.375,1.531h2.656v-.2a1.3,1.3,0,0,0-.32-.98A1.275,1.275,0,0,0,29.211-6.578Zm7.336-1.875.086.992a2.867,2.867,0,0,1,2.414-1.148,2.412,2.412,0,0,1,1.973.789A3.757,3.757,0,0,1,41.7-5.445V0H39.055V-5.336a1.426,1.426,0,0,0-.258-.941,1.193,1.193,0,0,0-.937-.3,1.256,1.256,0,0,0-1.148.609V0H34.078V-8.453ZM47.914,0a2.973,2.973,0,0,1-.25-.758,2.448,2.448,0,0,1-2.031.914A3,3,0,0,1,43.6-.566a2.3,2.3,0,0,1-.836-1.816,2.364,2.364,0,0,1,1.016-2.078,5.174,5.174,0,0,1,2.953-.7h.813v-.445q0-1.164-1.008-1.164a.822.822,0,0,0-.937.922H42.969a2.364,2.364,0,0,1,1.043-1.992,4.379,4.379,0,0,1,2.66-.766,3.843,3.843,0,0,1,2.555.789,2.743,2.743,0,0,1,.961,2.164v3.742a3.832,3.832,0,0,0,.359,1.781V0ZM46.266-1.719a1.469,1.469,0,0,0,.816-.211,1.322,1.322,0,0,0,.465-.477V-3.758h-.766q-1.375,0-1.375,1.234a.754.754,0,0,0,.242.582A.876.876,0,0,0,46.266-1.719Zm8.484-.312H58.6V0h-7.18V-1.469l3.75-4.953H51.586V-8.453h6.93v1.422ZM64.641,0a2.973,2.973,0,0,1-.25-.758,2.448,2.448,0,0,1-2.031.914,3,3,0,0,1-2.031-.723,2.3,2.3,0,0,1-.836-1.816,2.364,2.364,0,0,1,1.016-2.078,5.174,5.174,0,0,1,2.953-.7h.813v-.445q0-1.164-1.008-1.164a.822.822,0,0,0-.937.922H59.7a2.364,2.364,0,0,1,1.043-1.992,4.379,4.379,0,0,1,2.66-.766,3.843,3.843,0,0,1,2.555.789,2.743,2.743,0,0,1,.961,2.164v3.742a3.832,3.832,0,0,0,.359,1.781V0ZM62.992-1.719a1.469,1.469,0,0,0,.816-.211,1.322,1.322,0,0,0,.465-.477V-3.758h-.766q-1.375,0-1.375,1.234a.754.754,0,0,0,.242.582A.876.876,0,0,0,62.992-1.719Z" transform="translate(529 2160)" fill="#12263f"/>
        <path id="Trazado_272511" data-name="Trazado 272511" d="M5.273-3.094l2.266-8.281H10.6L6.773,0h-3l-3.8-11.375H3.016ZM16.125-.914A2.714,2.714,0,0,1,13.867.156a2.662,2.662,0,0,1-2.105-.809,3.4,3.4,0,0,1-.715-2.324V-8.453H13.68v5.492a.946.946,0,0,0,1.055,1.086,1.376,1.376,0,0,0,1.289-.648v-5.93h2.648V0H16.2ZM22.891,0H20.25V-12h2.641ZM26.93-8.453l.086.992A2.867,2.867,0,0,1,29.43-8.609,2.412,2.412,0,0,1,31.4-7.82a3.757,3.757,0,0,1,.676,2.375V0H29.438V-5.336a1.426,1.426,0,0,0-.258-.941,1.193,1.193,0,0,0-.937-.3,1.256,1.256,0,0,0-1.148.609V0H24.461V-8.453ZM37.625.156A4.345,4.345,0,0,1,34.477-1a4.006,4.006,0,0,1-1.2-3.02v-.219a5.191,5.191,0,0,1,.48-2.289,3.516,3.516,0,0,1,1.4-1.535,4.233,4.233,0,0,1,2.188-.543A3.659,3.659,0,0,1,40.156-7.5a4.344,4.344,0,0,1,1.031,3.082V-3.4H35.953a1.9,1.9,0,0,0,.617,1.117,1.836,1.836,0,0,0,1.234.406,2.366,2.366,0,0,0,1.953-.875l1.2,1.422A3.363,3.363,0,0,1,39.566-.246,4.713,4.713,0,0,1,37.625.156Zm-.3-6.734q-1.156,0-1.375,1.531h2.656v-.2a1.3,1.3,0,0,0-.32-.98A1.275,1.275,0,0,0,37.328-6.578Zm10.031.508-.867-.062a1.558,1.558,0,0,0-1.594.781V0H42.266V-8.453h2.469l.086,1.086a2.039,2.039,0,0,1,1.852-1.242,2.567,2.567,0,0,1,.734.094ZM52.836,0a2.973,2.973,0,0,1-.25-.758,2.448,2.448,0,0,1-2.031.914,3,3,0,0,1-2.031-.723,2.3,2.3,0,0,1-.836-1.816A2.364,2.364,0,0,1,48.7-4.461a5.174,5.174,0,0,1,2.953-.7h.813v-.445q0-1.164-1.008-1.164a.822.822,0,0,0-.937.922H47.891a2.364,2.364,0,0,1,1.043-1.992,4.379,4.379,0,0,1,2.66-.766,3.843,3.843,0,0,1,2.555.789,2.743,2.743,0,0,1,.961,2.164v3.742a3.832,3.832,0,0,0,.359,1.781V0ZM51.188-1.719A1.469,1.469,0,0,0,52-1.93a1.322,1.322,0,0,0,.465-.477V-3.758H51.7q-1.375,0-1.375,1.234a.754.754,0,0,0,.242.582A.876.876,0,0,0,51.188-1.719ZM64.414-4.156a5.152,5.152,0,0,1-.859,3.2A2.878,2.878,0,0,1,61.133.156,2.5,2.5,0,0,1,59.055-.867L58.945,0H56.586V-12h2.633v4.227a2.41,2.41,0,0,1,1.9-.836,2.879,2.879,0,0,1,2.438,1.133,5.179,5.179,0,0,1,.859,3.188ZM61.773-4.32a3.447,3.447,0,0,0-.324-1.738,1.092,1.092,0,0,0-1-.52,1.26,1.26,0,0,0-1.234.68v3.359a1.267,1.267,0,0,0,1.25.672,1.118,1.118,0,0,0,1.18-.906A6.518,6.518,0,0,0,61.773-4.32ZM68.352,0H65.711V-8.453h2.641Zm-2.8-10.633a1.175,1.175,0,0,1,.406-.922,1.533,1.533,0,0,1,1.055-.359,1.533,1.533,0,0,1,1.055.359,1.175,1.175,0,0,1,.406.922,1.175,1.175,0,0,1-.406.922,1.533,1.533,0,0,1-1.055.359,1.533,1.533,0,0,1-1.055-.359A1.175,1.175,0,0,1,65.555-10.633ZM72.75,0H70.109V-12H72.75Zm4.4,0H74.508V-8.453h2.641Zm-2.8-10.633a1.175,1.175,0,0,1,.406-.922,1.533,1.533,0,0,1,1.055-.359,1.533,1.533,0,0,1,1.055.359,1.175,1.175,0,0,1,.406.922,1.175,1.175,0,0,1-.406.922,1.533,1.533,0,0,1-1.055.359,1.533,1.533,0,0,1-1.055-.359A1.175,1.175,0,0,1,74.352-10.633Zm4.086,6.344A5.164,5.164,0,0,1,79.3-7.453a2.854,2.854,0,0,1,2.422-1.156,2.428,2.428,0,0,1,1.906.891V-12h2.641V0H83.906l-.133-.906A2.493,2.493,0,0,1,81.711.156,2.849,2.849,0,0,1,79.32-1,5.327,5.327,0,0,1,78.438-4.289Zm2.633.164q0,2.25,1.313,2.25a1.3,1.3,0,0,0,1.25-.734V-5.828a1.261,1.261,0,0,0-1.234-.75q-1.219,0-1.32,1.969ZM92.531,0a2.973,2.973,0,0,1-.25-.758A2.448,2.448,0,0,1,90.25.156a3,3,0,0,1-2.031-.723,2.3,2.3,0,0,1-.836-1.816A2.364,2.364,0,0,1,88.4-4.461a5.174,5.174,0,0,1,2.953-.7h.813v-.445q0-1.164-1.008-1.164a.822.822,0,0,0-.937.922H87.586a2.364,2.364,0,0,1,1.043-1.992,4.379,4.379,0,0,1,2.66-.766,3.843,3.843,0,0,1,2.555.789A2.743,2.743,0,0,1,94.8-5.656v3.742a3.832,3.832,0,0,0,.359,1.781V0ZM90.883-1.719A1.469,1.469,0,0,0,91.7-1.93a1.322,1.322,0,0,0,.465-.477V-3.758H91.4q-1.375,0-1.375,1.234a.754.754,0,0,0,.242.582A.876.876,0,0,0,90.883-1.719Zm5.047-2.57A5.164,5.164,0,0,1,96.8-7.453a2.854,2.854,0,0,1,2.422-1.156,2.428,2.428,0,0,1,1.906.891V-12h2.641V0H101.4l-.133-.906A2.493,2.493,0,0,1,99.2.156,2.849,2.849,0,0,1,96.813-1,5.327,5.327,0,0,1,95.93-4.289Zm2.633.164q0,2.25,1.313,2.25a1.3,1.3,0,0,0,1.25-.734V-5.828a1.261,1.261,0,0,0-1.234-.75q-1.219,0-1.32,1.969Z" transform="translate(509 2336)" fill="#12263f"/>
        <g id="Enmascarar_grupo_92" data-name="Enmascarar grupo 92" clip-path="url(#clip-path)">
          <g id="amenaza" transform="translate(537 2084)">
            <g id="Grupo_883737" data-name="Grupo 883737">
              <path id="Trazado_272444" data-name="Trazado 272444" d="M18.168,10.85h25.04a1.7,1.7,0,0,1,1.7,1.7V39.465a1.7,1.7,0,0,1-1.7,1.694H2.441A1.7,1.7,0,0,1,.747,39.465V12.547a1.7,1.7,0,0,1,1.694-1.7Z" fill="#bcd0df" fill-rule="evenodd"/>
            </g>
            <g id="Grupo_883738" data-name="Grupo 883738">
              <path id="Trazado_272445" data-name="Trazado 272445" d="M28.556,41.159l-5.732-1.717-5.116,1.717v3.916l5.424,1.567,5.424-1.567Z" fill="#c6d0da" fill-rule="evenodd"/>
            </g>
            <g id="Grupo_883739" data-name="Grupo 883739">
              <path id="Trazado_272446" data-name="Trazado 272446" d="M8.441,29.034A3.75,3.75,0,0,0,4.7,32.773v3.722L33.8,36.478V32.742A3.746,3.746,0,0,0,30.062,29c-3.826,0-17.54.031-21.621.031Z" fill="#918291" fill-rule="evenodd"/>
            </g>
            <g id="Grupo_883740" data-name="Grupo 883740">
              <path id="Trazado_272447" data-name="Trazado 272447" d="M4.7,36.495H.747v2.971a1.7,1.7,0,0,0,1.694,1.694H43.208a1.7,1.7,0,0,0,1.7-1.694V36.495H19.25L4.7,36.512Z" fill="#faf8f9" fill-rule="evenodd"/>
            </g>
            <g id="Grupo_883741" data-name="Grupo 883741">
              <path id="Trazado_272448" data-name="Trazado 272448" d="M28.556,45.076H13.137a1.964,1.964,0,0,0-1.96,1.957v1.44a.519.519,0,0,0,.517.517H34.568a.519.519,0,0,0,.52-.517v-1.44a1.964,1.964,0,0,0-1.96-1.957Z" fill="#faf8f9" fill-rule="evenodd"/>
            </g>
            <g id="Grupo_883742" data-name="Grupo 883742">
              <path id="Trazado_272449" data-name="Trazado 272449" d="M35.856,10.85,33.636,14.7a1.534,1.534,0,0,0,1.31,2.27h13.8a1.534,1.534,0,0,0,1.31-2.27l-3.45-5.975L43.158,2.749a1.534,1.534,0,0,0-2.623,0l-3.45,5.975Z" fill="#ffe07d" fill-rule="evenodd"/>
            </g>
            <g id="Grupo_883743" data-name="Grupo 883743">
              <path id="Trazado_272450" data-name="Trazado 272450" d="M30.061,29H28.836c-.61,0-1.324,0-2.112,0a3.7,3.7,0,0,1,2.025.6,3.742,3.742,0,0,1,1.711,3.137V36.48l3.338,0V32.742A3.746,3.746,0,0,0,30.061,29Z" fill="#685d68" fill-rule="evenodd"/>
            </g>
            <g id="Grupo_883744" data-name="Grupo 883744">
              <path id="Trazado_272451" data-name="Trazado 272451" d="M9.607,16.127c-2.169,0-1.968,4.4.491,4.4h.76c1.231-1.717.881-3.038-.342-4.4Z" fill="#f5a96c" fill-rule="evenodd"/>
            </g>
            <g id="Grupo_883745" data-name="Grupo 883745">
              <path id="Trazado_272452" data-name="Trazado 272452" d="M27.831,20.524h.853c2.459,0,2.66-4.4.491-4.4h-.983a3.387,3.387,0,0,0-.361,4.4Z" fill="#f5a96c" fill-rule="evenodd"/>
            </g>
            <g id="Grupo_883746" data-name="Grupo 883746">
              <path id="Trazado_272453" data-name="Trazado 272453" d="M12.984,24.127a5.069,5.069,0,0,0-3.236,4.5A4.869,4.869,0,0,0,14.6,33.479l4.027,0c1.324-3.51-1.906-10.931-5.644-9.349Z" fill="#c6d0da" fill-rule="evenodd"/>
            </g>
            <g id="Grupo_883747" data-name="Grupo 883747">
              <path id="Trazado_272454" data-name="Trazado 272454" d="M21.684,25.386c-2.425.251-1.389,5.159-1.652,8.09l3.964,0a4.87,4.87,0,0,0,4.854-4.854c0-.13-.006-.26-.017-.387a5.1,5.1,0,0,0-3.174-4.106c-1.508-.217-1.8,1.034-3.976,1.259Z" fill="#c6d0da" fill-rule="evenodd"/>
            </g>
            <g id="Grupo_883748" data-name="Grupo 883748">
              <path id="Trazado_272455" data-name="Trazado 272455" d="M15.091,28.953c0,2.448,1.581,4.456,3.538,4.524h1.4c1.948-.079,3.521-2.084,3.521-4.524V25.974c-3.12-2.05-5.577-1.889-8.462.023Z" fill="#ffbc85" fill-rule="evenodd"/>
            </g>
            <g id="Grupo_883749" data-name="Grupo 883749">
              <path id="Trazado_272456" data-name="Trazado 272456" d="M12.984,24.127A11.464,11.464,0,0,0,15.091,26a9.7,9.7,0,0,0,2.174,1.127,6.913,6.913,0,0,0,2.033.446,6.894,6.894,0,0,0,2.033-.446,10,10,0,0,0,2.222-1.149,11.851,11.851,0,0,0,2.106-1.847,10.434,10.434,0,0,0,2.171-3.6l-4.91-1.813c-1.211-.446-2.366-1.223-3.623-1.129-.94.071-1.81.833-2.745,1.129l-5.7,1.813a10.485,10.485,0,0,0,2.126,3.6Z" fill="#918291" fill-rule="evenodd"/>
            </g>
            <g id="Grupo_883750" data-name="Grupo 883750">
              <path id="Trazado_272457" data-name="Trazado 272457" d="M28.192,14.035c-.325-11.747-17.679-11.684-17.676.042v.531l9.264,1.519,8.412-1.519Z" fill="#918291" fill-rule="evenodd"/>
            </g>
            <g id="Grupo_883751" data-name="Grupo 883751">
              <path id="Trazado_272458" data-name="Trazado 272458" d="M19.3,19.394c1.256-.093,2.332,1.129,3.623,1.129h4.91c.073-.215.133-.429.184-.641a6.715,6.715,0,0,0,.178-1.511V14.608H10.516v3.948a5.763,5.763,0,0,0,.161,1.33c.051.212.11.426.181.638h5.7C17.533,20.524,18.358,19.465,19.3,19.394Z" fill="#fed1a3" fill-rule="evenodd"/>
            </g>
            <g id="Grupo_883752" data-name="Grupo 883752">
              <path id="Trazado_272459" data-name="Trazado 272459" d="M19.12,5.253a8.539,8.539,0,0,1,6.593,8.5v.856h2.479v-.573A8.66,8.66,0,0,0,19.12,5.253Z" fill="#685d68" fill-rule="evenodd"/>
            </g>
            <g id="Grupo_883753" data-name="Grupo 883753">
              <path id="Trazado_272460" data-name="Trazado 272460" d="M25.713,15.842v2.245a6.718,6.718,0,0,1-.175,1.513c-.006.023-.011.048-.017.071-.048.189-.1.378-.167.57-.031.093-.065.189-.1.282h2.575c.073-.215.133-.429.184-.641a6.715,6.715,0,0,0,.178-1.511V14.608H25.713v1.234Z" fill="#ffbc85" fill-rule="evenodd"/>
            </g>
            <g id="Grupo_883754" data-name="Grupo 883754">
              <path id="Trazado_272461" data-name="Trazado 272461" d="M25.256,20.524a10.685,10.685,0,0,1-2.073,3.321A12.219,12.219,0,0,1,21.9,25.07c-.15.121-.3.243-.46.359-.121.09-.243.178-.367.263s-.271.181-.412.265a9.582,9.582,0,0,1-1.81.884,8.348,8.348,0,0,1-1.019.305c-.11.023-.217.045-.325.065q.212.068.415.127a6.289,6.289,0,0,0,1.372.232,5.733,5.733,0,0,0,.836-.1,7.926,7.926,0,0,0,1.2-.342,10,10,0,0,0,2.222-1.149,11.851,11.851,0,0,0,2.106-1.847,10.434,10.434,0,0,0,2.171-3.6H25.256Z" fill="#685d68" fill-rule="evenodd"/>
            </g>
            <g id="Grupo_883755" data-name="Grupo 883755">
              <path id="Trazado_272462" data-name="Trazado 272462" d="M24.654,25.118a5,5,0,0,1,2,3.115c.02.116.037.237.045.356a3.508,3.508,0,0,1,.02.387,4.872,4.872,0,0,1-3.033,4.5H24a4.87,4.87,0,0,0,4.854-4.854c0-.13-.006-.26-.017-.387a5.1,5.1,0,0,0-3.174-4.106,11.909,11.909,0,0,1-1.005.991Z" fill="#a0aab7" fill-rule="evenodd"/>
            </g>
            <g id="Grupo_883756" data-name="Grupo 883756">
              <path id="Trazado_272463" data-name="Trazado 272463" d="M15.091,26v2.595c0,1.053,4.857,2.061,6.712.844.153-.1.3-.017.288.336V31.1a5.429,5.429,0,0,1-.271,1.708,4.86,4.86,0,0,0,1.734-3.851V25.973a10.009,10.009,0,0,1-2.222,1.149,7.926,7.926,0,0,1-1.2.342,5.733,5.733,0,0,1-.836.1,6.284,6.284,0,0,1-1.372-.232q-.2-.059-.415-.127c-.082-.028-.164-.056-.246-.088A9.7,9.7,0,0,1,15.091,26Z" fill="#f5a96c" fill-rule="evenodd"/>
            </g>
            <g id="Grupo_883757" data-name="Grupo 883757">
              <path id="Trazado_272464" data-name="Trazado 272464" d="M40.969,16.969V36.495h3.936V16.969H40.969Z" fill="#81a7c6" fill-rule="evenodd"/>
            </g>
            <g id="Grupo_883758" data-name="Grupo 883758">
              <path id="Trazado_272465" data-name="Trazado 272465" d="M44.905,36.495H40.969v2.971a1.7,1.7,0,0,1-1.694,1.694h3.933a1.7,1.7,0,0,0,1.7-1.694Z" fill="#e5e1e5" fill-rule="evenodd"/>
            </g>
            <g id="Grupo_883759" data-name="Grupo 883759">
              <path id="Trazado_272466" data-name="Trazado 272466" d="M40.873,2.348a12.535,12.535,0,0,1,3.041,8.446v.212a13.328,13.328,0,0,1-1.463,5.964h6.294a1.534,1.534,0,0,0,1.31-2.27l-3.45-5.975L43.158,2.749A1.546,1.546,0,0,0,40.873,2.348Z" fill="#ffc250" fill-rule="evenodd"/>
            </g>
            <g id="Grupo_883760" data-name="Grupo 883760">
              <path id="Trazado_272467" data-name="Trazado 272467" d="M17.708,41.159v2.033h7.929c.844.113.946.418.946.695v1.189h1.974V41.159Z" fill="#a0aab7" fill-rule="evenodd"/>
            </g>
            <g id="Grupo_883761" data-name="Grupo 883761">
              <path id="Trazado_272468" data-name="Trazado 272468" d="M35.088,47.033a1.964,1.964,0,0,0-1.96-1.957H29.539A1.961,1.961,0,0,1,31.5,47.033v1.44a.517.517,0,0,1-.517.517h3.589a.519.519,0,0,0,.52-.517Z" fill="#e5e1e5" fill-rule="evenodd"/>
            </g>
            <g id="Grupo_883762" data-name="Grupo 883762">
              <path id="Trazado_272469" data-name="Trazado 272469" d="M22.846,18.3a.753.753,0,0,0,.161-.017l1.663-.364a.747.747,0,0,0-.32-1.46l-1.663.364a.747.747,0,0,0,.159,1.477Z"/>
              <path id="Trazado_272470" data-name="Trazado 272470" d="M14.38,17.919l1.663.364a.747.747,0,1,0,.32-1.459L14.7,16.459a.747.747,0,0,0-.32,1.459Z"/>
              <path id="Trazado_272471" data-name="Trazado 272471" d="M50.7,14.325,47.252,8.35,43.8,2.376h0a2.266,2.266,0,0,0-1.965-1.111h0a2.223,2.223,0,0,0-1.95,1.112L36.437,8.35,35.425,10.1h-7.3A8.88,8.88,0,0,0,25.74,6.836a9.888,9.888,0,0,0-6.626-2.328,9.676,9.676,0,0,0-6.426,2.449A8.632,8.632,0,0,0,10.5,10.1H2.441A2.445,2.445,0,0,0,0,12.547V39.465a2.444,2.444,0,0,0,2.441,2.441h14.52v2.422H13.137a2.708,2.708,0,0,0-2.707,2.7v1.44a1.265,1.265,0,0,0,1.264,1.264H34.568a1.267,1.267,0,0,0,1.267-1.264v-1.44a2.708,2.708,0,0,0-2.707-2.7H29.3V41.906h13.9a2.445,2.445,0,0,0,2.444-2.441V17.716h3.093a2.263,2.263,0,0,0,1.944-1.146,2.223,2.223,0,0,0,.013-2.245Zm-39.438,1.03h6.47a.747.747,0,1,0,0-1.494H11.266A7.7,7.7,0,0,1,19.135,6h.124a7.923,7.923,0,0,1,7.641,5.07l.006.017a9.286,9.286,0,0,1,.532,2.774H20.944a.747.747,0,1,0,0,1.494h6.5v3.017a5.921,5.921,0,0,1-.158,1.34c-.005.022-.011.043-.017.065h-4.35a3.508,3.508,0,0,1-1.44-.5,4.281,4.281,0,0,0-2.238-.631,3.7,3.7,0,0,0-1.635.664,2.42,2.42,0,0,1-1.053.463H11.421c-.005-.021-.011-.042-.016-.064a5.028,5.028,0,0,1-.141-1.157v-3.2ZM21.077,26.42a6.209,6.209,0,0,1-1.779.4,6.213,6.213,0,0,1-1.779-.4,9.048,9.048,0,0,1-2.006-1.04l-.01-.007a10.765,10.765,0,0,1-1.9-1.658.743.743,0,0,0-.138-.155,10.079,10.079,0,0,1-1.513-2.289h4.6a3.52,3.52,0,0,0,1.835-.684,2.618,2.618,0,0,1,.964-.448,3.114,3.114,0,0,1,1.458.477,4.71,4.71,0,0,0,2.11.654h3.8A10.748,10.748,0,0,1,21.077,26.42Zm7.026,2.2A4.111,4.111,0,0,1,24,32.726H22.973A5.819,5.819,0,0,0,24.3,28.952V26.358a12.659,12.659,0,0,0,1.53-1.321A4.2,4.2,0,0,1,28.1,28.619Zm-5.3-1.331v1.665c0,2.007-1.272,3.708-2.8,3.776H18.657c-1.535-.051-2.819-1.759-2.819-3.777V27.308a9.733,9.733,0,0,0,1.173.517,7.594,7.594,0,0,0,2.251.49h.072a7.591,7.591,0,0,0,2.251-.49,10.143,10.143,0,0,0,1.221-.538Zm-7.132,5.443H14.6a4.113,4.113,0,0,1-4.107-4.11,4.268,4.268,0,0,1,2.318-3.588,12.455,12.455,0,0,0,1.53,1.34v2.579a5.82,5.82,0,0,0,1.33,3.779ZM1.494,12.547a.95.95,0,0,1,.947-.95h7.6a11.229,11.229,0,0,0-.267,2.48h0v1.3H9.607a2.064,2.064,0,0,0-1.741.92,3.157,3.157,0,0,0-.506,1.78A2.942,2.942,0,0,0,10.1,21.271h.234a11.077,11.077,0,0,0,1.489,2.61,5.725,5.725,0,0,0-2.808,4.407H8.441a4.491,4.491,0,0,0-4.485,4.486v2.975H1.494Zm8.393,7.21c-.752-.144-1.032-1.05-1.032-1.677a1.689,1.689,0,0,1,.241-.931.572.572,0,0,1,.511-.274h.162v1.681a6.415,6.415,0,0,0,.117,1.2ZM33.128,45.823a1.213,1.213,0,0,1,1.213,1.21v1.21H11.924v-1.21a1.213,1.213,0,0,1,1.213-1.21H33.128ZM18.455,44.328V41.906h9.354v2.422Zm25.7-4.864a.95.95,0,0,1-.95.947H2.441a.948.948,0,0,1-.947-.947V37.242H4.546a.74.74,0,0,0,.315,0H16.314a.747.747,0,1,0,0-1.494H5.45V32.773a3,3,0,0,1,2.991-2.991h.682a5.611,5.611,0,0,0,5.48,4.444l4.045,0,.08,0h1.186c.036,0,.071,0,.107,0l3.976,0a5.61,5.61,0,0,0,5.486-4.47h.579a2.993,2.993,0,0,1,2.988,2.991v3.007H19.687a.747.747,0,0,0,0,1.494l24.47,0Zm0-3.717H34.544V32.742a4.489,4.489,0,0,0-4.483-4.486h-.478a5.72,5.72,0,0,0-2.749-4.364,10.983,10.983,0,0,0,1.521-2.621h.329a2.942,2.942,0,0,0,2.738-3.191,3.157,3.157,0,0,0-.506-1.78,2.063,2.063,0,0,0-1.741-.92h-.236V14.035s0-.007,0-.01,0-.007,0-.01A11.379,11.379,0,0,0,28.62,11.6h5.944l-1.574,2.728a2.264,2.264,0,0,0,.02,2.257,2.222,2.222,0,0,0,1.937,1.134h9.212V35.747ZM28.8,19.77a7.339,7.339,0,0,0,.138-1.4v-1.5h.236a.572.572,0,0,1,.511.274,1.689,1.689,0,0,1,.241.931c0,.652-.3,1.607-1.126,1.69Zm20.593-3.947a.756.756,0,0,1-.65.4h-13.8a.743.743,0,0,1-.643-.387.756.756,0,0,1-.02-.763L37.731,9.1l3.45-5.975a.744.744,0,0,1,.657-.365h0a.759.759,0,0,1,.671.364L45.958,9.1l3.45,5.975a.744.744,0,0,1-.013.751Z"/>
              <path id="Trazado_272472" data-name="Trazado 272472" d="M41.847,6.144a.747.747,0,0,0-.747.747v4.351a.747.747,0,0,0,1.494,0V6.891A.747.747,0,0,0,41.847,6.144Z"/>
              <path id="Trazado_272473" data-name="Trazado 272473" d="M41.847,13.587a.747.747,0,0,0-.747.747v.037a.747.747,0,0,0,1.494,0v-.037A.747.747,0,0,0,41.847,13.587Z"/>
            </g>
          </g>
        </g>
        <g id="Enmascarar_grupo_94" data-name="Enmascarar grupo 94" clip-path="url(#clip-path-2)">
          <g id="descargar" transform="translate(1023.177 2155.178)">
            <g id="Grupo_883795" data-name="Grupo 883795">
              <g id="Grupo_883787" data-name="Grupo 883787">
                <path id="Trazado_272496" data-name="Trazado 272496" d="M23.032,14.806H8.226a3.289,3.289,0,0,0-3.29,3.29v4.384A5.761,5.761,0,0,1,7.4,11.516a6.017,6.017,0,0,1,.864.074A10.677,10.677,0,0,1,28.6,7.823,7.392,7.392,0,0,1,39.961,9.18a7.4,7.4,0,0,1,7.749,12.6V18.1a3.289,3.289,0,0,0-3.29-3.29H29.613v-3.29H23.032Z" fill="#e6e9ed"/>
              </g>
              <g id="Grupo_883788" data-name="Grupo 883788">
                <path id="Trazado_272497" data-name="Trazado 272497" d="M31.258,44.732c3.891.535,6.581,1.662,6.581,2.978,0,1.818-5.158,3.29-11.516,3.29s-11.516-1.472-11.516-3.29c0-1.316,2.69-2.443,6.581-2.978v2.155a11.94,11.94,0,0,0,4.935.823,11.94,11.94,0,0,0,4.935-.823Z" fill="#969faa"/>
              </g>
              <g id="Grupo_883789" data-name="Grupo 883789">
                <path id="Trazado_272498" data-name="Trazado 272498" d="M31.258,44.732v2.155a11.94,11.94,0,0,1-4.935.823,11.94,11.94,0,0,1-4.935-.823V42.774h9.871Z" fill="#aab2bd"/>
              </g>
              <g id="Grupo_883790" data-name="Grupo 883790">
                <path id="Trazado_272499" data-name="Trazado 272499" d="M47.71,36.194v3.29a3.289,3.289,0,0,1-3.29,3.29H8.226a3.289,3.289,0,0,1-3.29-3.29v-3.29H47.71Z" fill="#ccd1d9"/>
              </g>
              <g id="Grupo_883791" data-name="Grupo 883791">
                <path id="Trazado_272500" data-name="Trazado 272500" d="M44.419,14.806H8.226a3.289,3.289,0,0,0-3.29,3.29v18.1H47.71V18.1A3.289,3.289,0,0,0,44.419,14.806Z" fill="#69d6f4"/>
              </g>
              <g id="Grupo_883792" data-name="Grupo 883792">
                <path id="Trazado_272501" data-name="Trazado 272501" d="M22.621,25.294l1.917,2.871h-.008A8.224,8.224,0,0,0,18.1,36.194H13.161V33.726l2.089-.666a11.951,11.951,0,0,1,1.02-2.484l-1-1.941,3.5-3.5,1.941,1a12.111,12.111,0,0,1,1.917-.847Z" fill="#fcd770"/>
              </g>
              <g id="Grupo_883793" data-name="Grupo 883793">
                <path id="Trazado_272502" data-name="Trazado 272502" d="M39.484,33.726v2.468H34.548a8.224,8.224,0,0,0-6.433-8.028h-.008l1.917-2.871a12.111,12.111,0,0,1,1.917.847l1.941-1,3.5,3.5-1,1.941a11.951,11.951,0,0,1,1.02,2.484Z" fill="#fcd770"/>
              </g>
              <g id="Grupo_883794" data-name="Grupo 883794">
                <path id="Trazado_272503" data-name="Trazado 272503" d="M33.726,19.742l-3.7,5.552-1.917,2.871-.51.765a1.532,1.532,0,0,1-2.55,0l-.51-.765-1.917-2.871-3.7-5.552h4.113V11.516h6.581v8.226Z" fill="#b4dd7f"/>
              </g>
            </g>
            <g id="Grupo_883796" data-name="Grupo 883796">
              <path id="Trazado_272504" data-name="Trazado 272504" d="M51.823,15.629a8.22,8.22,0,0,0-11.6-7.5,8.209,8.209,0,0,0-11.37-1.592A11.5,11.5,0,0,0,7.532,10.7a6.569,6.569,0,0,0-3.419,12.26V39.484A4.118,4.118,0,0,0,8.226,43.6H20.565v.43c-2.738.438-6.581,1.449-6.581,3.683,0,2.826,6.4,4.113,12.339,4.113s12.339-1.287,12.339-4.113c0-2.234-3.842-3.245-6.581-3.683V43.6H44.419a4.118,4.118,0,0,0,4.113-4.113V22.191A8.205,8.205,0,0,0,51.823,15.629ZM32.188,20.565l-5.272,7.907a.741.741,0,0,1-1.189,0l-5.271-7.907h3.4V12.339H28.79v8.226Zm14.7,14.806H40.306V33.126l-2.249-.721a12.285,12.285,0,0,0-.756-1.834l1.079-2.1-4.338-4.338-2.1,1.079c-.219-.112-.444-.213-.671-.312l3.989-5.985H30.435v-3.29H44.419A2.471,2.471,0,0,1,46.887,18.1Zm-30.61-6.581,2.641-2.641,1.806.929.386-.216A10.421,10.421,0,0,1,22.3,26.3l.93,1.4a9.12,9.12,0,0,0-5.92,7.675h-3.33V34.325l1.938-.621.12-.425a10.665,10.665,0,0,1,.948-2.3l.216-.385Zm7.9.32.183.275a2.36,2.36,0,0,0,3.927,0l.183-.275a7.457,7.457,0,0,1,5.2,6.261h-14.7a7.457,7.457,0,0,1,5.2-6.262Zm11.156,6.261a9.12,9.12,0,0,0-5.92-7.675l.93-1.4a10.421,10.421,0,0,1,1.194.56l.386.216,1.806-.929,2.641,2.641L35.439,30.6l.216.385a10.623,10.623,0,0,1,.948,2.3l.12.425,1.938.62v1.046ZM22.21,18.919H17.382L21.371,24.9c-.227.1-.452.2-.671.312l-2.1-1.079-4.338,4.338,1.079,2.1a12.285,12.285,0,0,0-.756,1.834l-2.249.722v2.245H5.758V18.1a2.471,2.471,0,0,1,2.468-2.468H22.21ZM37.016,47.71c0,.738-3.638,2.468-10.694,2.468s-10.694-1.73-10.694-2.468c0-.336,1.2-1.38,4.935-2.015v1.7l.455.227a12.688,12.688,0,0,0,5.3.91,12.713,12.713,0,0,0,5.3-.909l.455-.228v-1.7C35.817,46.329,37.016,47.373,37.016,47.71Zm-6.581-1.387a13.29,13.29,0,0,1-4.113.564,13.331,13.331,0,0,1-4.113-.563V43.6h8.226Zm13.984-4.371H8.226a2.471,2.471,0,0,1-2.468-2.468V37.016H46.887v2.468A2.471,2.471,0,0,1,44.419,41.952Zm0-27.968H30.435v-3.29H22.21v3.29H8.226A4.118,4.118,0,0,0,4.113,18.1v2.852A4.919,4.919,0,0,1,8.141,12.4l.881.132.062-.888A9.857,9.857,0,0,1,27.858,8.173l.486,1.041.828-.8a6.565,6.565,0,0,1,10.1,1.208l.42.656.679-.383a6.576,6.576,0,0,1,8.165,10.076V18.1a4.118,4.118,0,0,0-4.113-4.113Z"/>
              <path id="Trazado_272505" data-name="Trazado 272505" d="M22.21,38.661h1.645v1.645H22.21Z"/>
              <path id="Trazado_272506" data-name="Trazado 272506" d="M25.5,38.661h1.645v1.645H25.5Z"/>
              <path id="Trazado_272507" data-name="Trazado 272507" d="M28.79,38.661h1.645v1.645H28.79Z"/>
              <path id="Trazado_272508" data-name="Trazado 272508" d="M10.694,12.339h1.645a6.588,6.588,0,0,1,6.581-6.581V4.113A8.235,8.235,0,0,0,10.694,12.339Z"/>
            </g>
          </g>
        </g>
        <g id="Enmascarar_grupo_93" data-name="Enmascarar grupo 93" clip-path="url(#clip-path-3)">
          <g id="hacker_1_" data-name="hacker (1)" transform="translate(536.177 2259.178)">
            <g id="Grupo_883785" data-name="Grupo 883785">
              <g id="Grupo_883765" data-name="Grupo 883765">
                <path id="Trazado_272474" data-name="Trazado 272474" d="M51,13.161v8.226a1.65,1.65,0,0,1-1.645,1.645H43.6l-2.953,2.953a1.163,1.163,0,0,1-1.982-.823v-2.13H36.194a1.65,1.65,0,0,1-1.645-1.645V13.161a1.65,1.65,0,0,1,1.645-1.645H49.355A1.65,1.65,0,0,1,51,13.161Z" fill="#fcd770"/>
              </g>
              <g id="Grupo_883766" data-name="Grupo 883766">
                <path id="Trazado_272475" data-name="Trazado 272475" d="M48.532,7.4v.823h-3.29V7.4a2.468,2.468,0,1,0-4.935,0v4.113h-3.29V7.4a5.758,5.758,0,0,1,11.516,0Z" fill="#969faa"/>
              </g>
              <g id="Grupo_883767" data-name="Grupo 883767">
                <circle id="Elipse_5045" data-name="Elipse 5045" cx="1.645" cy="1.645" r="1.645" transform="translate(41.129 14.806)" fill="#b4dd7f"/>
              </g>
              <g id="Grupo_883768" data-name="Grupo 883768">
                <path id="Trazado_272476" data-name="Trazado 272476" d="M32.9,47.71A3.286,3.286,0,0,1,29.613,51H19.742a3.289,3.289,0,0,1-3.29-3.29H32.9Z" fill="#969faa"/>
              </g>
              <g id="Grupo_883769" data-name="Grupo 883769">
                <path id="Trazado_272477" data-name="Trazado 272477" d="M32.9,47.71H51A3.289,3.289,0,0,1,47.71,51h-18.1a3.286,3.286,0,0,0,3.29-3.29Z" fill="#aab2bd"/>
              </g>
              <g id="Grupo_883770" data-name="Grupo 883770">
                <path id="Trazado_272478" data-name="Trazado 272478" d="M32.9,37.839V47.71h-3.29V32.9a1.584,1.584,0,0,1,.469-1.135,1.607,1.607,0,0,1,1.176-.51H32.9Z" fill="#aab2bd"/>
              </g>
              <g id="Grupo_883771" data-name="Grupo 883771">
                <path id="Trazado_272479" data-name="Trazado 272479" d="M51,32.9V47.71H32.9V31.258H49.355A1.65,1.65,0,0,1,51,32.9Z" fill="#ccd1d9"/>
              </g>
              <g id="Grupo_883772" data-name="Grupo 883772">
                <circle id="Elipse_5046" data-name="Elipse 5046" cx="2.468" cy="2.468" r="2.468" transform="translate(39.484 36.194)" fill="#69d6f4"/>
              </g>
              <g id="Grupo_883773" data-name="Grupo 883773">
                <path id="Trazado_272480" data-name="Trazado 272480" d="M15.053,34.121,9.863,45.16l-.041-.016L8.793,43.079,3.578,47.9a8.58,8.58,0,0,1-1.933-5.421v-.016a11.68,11.68,0,0,1,8.39-11.2,11.488,11.488,0,0,0,4.713,2.8Z" fill="#5b6570"/>
              </g>
              <g id="Grupo_883774" data-name="Grupo 883774">
                <path id="Trazado_272481" data-name="Trazado 272481" d="M30.074,31.76a13.2,13.2,0,0,0-3.068-1.423L27,30.329a11.467,11.467,0,0,1-7.255,4.1h-.173l-2.64,10.842a7.458,7.458,0,0,1-.954,2.311l.477.123H29.613V32.9a1.584,1.584,0,0,1,.469-1.135Z" fill="#5b6570"/>
              </g>
              <g id="Grupo_883775" data-name="Grupo 883775">
                <path id="Trazado_272482" data-name="Trazado 272482" d="M9.871,21.387a8.238,8.238,0,0,0,6.457,8.037,2.435,2.435,0,0,0-.7,1.711V32.9l-.568,1.217h-.008l-.3-.066A11.512,11.512,0,0,1,6.581,23.032a28.189,28.189,0,0,1,.263-3.825,2.473,2.473,0,0,0,2.2,1.357h.823Z" fill="#969faa"/>
              </g>
              <g id="Grupo_883776" data-name="Grupo 883776">
                <path id="Trazado_272483" data-name="Trazado 272483" d="M20.515,32.953a2.979,2.979,0,0,0,.337-3.809,8.241,8.241,0,0,0,5.47-7.757v-.823h.823a2.473,2.473,0,0,0,2.2-1.357,28.189,28.189,0,0,1,.263,3.825,11.545,11.545,0,0,1-9.871,11.4h-.173l.173-.707Z" fill="#969faa"/>
              </g>
              <g id="Grupo_883777" data-name="Grupo 883777">
                <path id="Trazado_272484" data-name="Trazado 272484" d="M27.5,12.4l1.53,4.993A15.788,15.788,0,0,0,26.323,15V15A14.062,14.062,0,0,0,9.871,15V15a15.788,15.788,0,0,0-2.706,2.385,27.725,27.725,0,0,1,7.56-14.017l.568-.568a3.972,3.972,0,0,1,5.61,0l.568.568A27.846,27.846,0,0,1,27.5,12.4Z" fill="#aab2bd"/>
              </g>
              <g id="Grupo_883778" data-name="Grupo 883778">
                <path id="Trazado_272485" data-name="Trazado 272485" d="M23.032,37.016h6.581v3.29H23.032Z" fill="#fcd770"/>
              </g>
              <g id="Grupo_883779" data-name="Grupo 883779">
                <path id="Trazado_272486" data-name="Trazado 272486" d="M9.871,15.818v4.746H9.048a2.473,2.473,0,0,1-2.2-1.357c.082-.609.189-1.217.321-1.818A15.788,15.788,0,0,1,9.871,15Z" fill="#f0d0b4"/>
              </g>
              <g id="Grupo_883780" data-name="Grupo 883780">
                <path id="Trazado_272487" data-name="Trazado 272487" d="M29.029,17.389l.321,1.818a2.473,2.473,0,0,1-2.2,1.357h-.823V15a15.788,15.788,0,0,1,2.706,2.385Z" fill="#f0d0b4"/>
              </g>
              <g id="Grupo_883781" data-name="Grupo 883781">
                <path id="Trazado_272488" data-name="Trazado 272488" d="M26.323,20.565v.823a8.241,8.241,0,0,1-5.47,7.757,3.128,3.128,0,0,0-.337-.4l-.773-.773V23.855A1.657,1.657,0,0,0,18.1,22.21a1.65,1.65,0,0,0-1.645,1.645V29.3a.872.872,0,0,0-.123.123,8.238,8.238,0,0,1-6.457-8.037V16.452a2.464,2.464,0,0,0,2.468,2.468h2.336a2.46,2.46,0,0,0,2.336-1.686l.263-.781h1.645l.263.781a2.46,2.46,0,0,0,2.336,1.686h2.336a2.464,2.464,0,0,0,2.468-2.468Z" fill="#f0d0b4"/>
              </g>
              <g id="Grupo_883782" data-name="Grupo 883782">
                <path id="Trazado_272489" data-name="Trazado 272489" d="M20.515,28.741a3.128,3.128,0,0,1,.337.4,2.979,2.979,0,0,1-.337,3.809l-.773.773-.173.707-2.64,10.842a7.458,7.458,0,0,1-.954,2.311A7.366,7.366,0,0,1,5.487,49.635l-.239-.165A8.425,8.425,0,0,1,3.578,47.9l5.215-4.82,1.028,2.065.041.016,5.19-11.039h.008l.568-1.217V31.135a2.435,2.435,0,0,1,.7-1.711.873.873,0,0,1,.123-.123,2.263,2.263,0,0,1,.543-.37l1.925-.962h.823Z" fill="#f0d0b4"/>
              </g>
              <g id="Grupo_883783" data-name="Grupo 883783">
                <path id="Trazado_272490" data-name="Trazado 272490" d="M16.452,29.3V23.855A1.65,1.65,0,0,1,18.1,22.21a1.657,1.657,0,0,1,1.645,1.645v4.113h-.823l-1.925.962A2.262,2.262,0,0,0,16.452,29.3Z" fill="#f0d0b4"/>
              </g>
              <g id="Grupo_883784" data-name="Grupo 883784">
                <path id="Trazado_272491" data-name="Trazado 272491" d="M26.323,15.818v.633a2.464,2.464,0,0,1-2.468,2.468H21.519a2.46,2.46,0,0,1-2.336-1.686l-.263-.781H17.274l-.263.781a2.46,2.46,0,0,1-2.336,1.686H12.339a2.464,2.464,0,0,1-2.468-2.468V15a14.062,14.062,0,0,1,16.452,0v.823Z" fill="#51565b"/>
              </g>
            </g>
            <g id="Grupo_883786" data-name="Grupo 883786">
              <path id="Trazado_272492" data-name="Trazado 272492" d="M41.952,41.952a3.29,3.29,0,1,0-3.29-3.29A3.294,3.294,0,0,0,41.952,41.952Zm0-4.935a1.645,1.645,0,1,1-1.645,1.645A1.647,1.647,0,0,1,41.952,37.016Z"/>
              <path id="Trazado_272493" data-name="Trazado 272493" d="M49.355,30.435h-18.1a2.436,2.436,0,0,0-1.236.345,14,14,0,0,0-1.728-.847,12.271,12.271,0,0,0,2.142-6.9,28.436,28.436,0,0,0-8.384-20.24l-.565-.565A4.827,4.827,0,0,0,18.1.823a4.764,4.764,0,0,0-3.391,1.4l-.564.564a28.436,28.436,0,0,0-8.384,20.24A12.26,12.26,0,0,0,8.589,30.9,12.569,12.569,0,0,0,.823,42.48a9.415,9.415,0,0,0,3.948,7.657l.239.17a8.2,8.2,0,0,0,10.87-1.227,4.108,4.108,0,0,0,3.861,2.743H47.71a4.118,4.118,0,0,0,4.113-4.113V32.9A2.471,2.471,0,0,0,49.355,30.435Zm.823,2.468V46.887H33.726V32.081H49.355A.823.823,0,0,1,50.177,32.9Zm-18.919-.823h.823V46.887H30.435V32.9A.823.823,0,0,1,31.258,32.081Zm-2.468,7.4H23.855V37.839H28.79Zm-7.426-6.275a3.685,3.685,0,0,0,.609-3.649,9.067,9.067,0,0,0,5.172-8.172,3.286,3.286,0,0,0,1.561-.4c.05.677.084,1.358.084,2.044A10.748,10.748,0,0,1,21.364,33.208ZM7.91,17.794a14.757,14.757,0,0,1,1.138-1.106v3.053a1.625,1.625,0,0,1-1.349-.73q.091-.612.211-1.217Zm20.374,0q.118.606.211,1.217a1.625,1.625,0,0,1-1.349.73V16.689A14.757,14.757,0,0,1,28.284,17.794ZM25.5,15.819v.633A1.647,1.647,0,0,1,23.855,18.1H21.52a1.642,1.642,0,0,1-1.56-1.125l-.447-1.342h-2.83l-.447,1.343A1.644,1.644,0,0,1,14.673,18.1H12.339a1.647,1.647,0,0,1-1.645-1.645V15.433a13.2,13.2,0,0,1,14.806,0ZM10.694,19.285a3.256,3.256,0,0,0,1.645.457h2.334a3.285,3.285,0,0,0,3.121-2.25l.073-.218h.46l.073.218a3.284,3.284,0,0,0,3.12,2.25h2.334a3.256,3.256,0,0,0,1.645-.457v2.1a7.405,7.405,0,0,1-4.421,6.754l-.514-.514V23.855a2.468,2.468,0,1,0-4.935,0v4.507a7.448,7.448,0,0,1-4.935-6.975Zm6.581,4.57a.823.823,0,0,1,1.645,0v3.29h-.194l-1.451.726ZM15.3,3.955l.564-.564A3.13,3.13,0,0,1,18.1,2.468a3.173,3.173,0,0,1,2.227.922l.565.565a26.85,26.85,0,0,1,6.647,10.921A15.207,15.207,0,0,0,18.1,11.516a15.208,15.208,0,0,0-9.438,3.359A26.841,26.841,0,0,1,15.3,3.955ZM7.487,20.988a3.286,3.286,0,0,0,1.561.4,9.1,9.1,0,0,0,6,8.513,3.292,3.292,0,0,0-.245,1.238v1.581l-.2.416A10.621,10.621,0,0,1,7.4,23.032c0-.686.034-1.367.084-2.044ZM9.835,32.193a12.507,12.507,0,0,0,4.074,2.433L9.823,43.308,8.139,39.94l-1.472.736L7.777,42.9,3.706,46.665a7.8,7.8,0,0,1-1.238-4.2A10.9,10.9,0,0,1,9.835,32.193Zm-.08,17.984a6.5,6.5,0,0,1-3.79-1.212L5.725,48.8a7.662,7.662,0,0,1-.983-.851l3.8-3.518.387.775L8.3,46.537l1.49.7,6.658-14.15v-1.95a1.638,1.638,0,0,1,.909-1.472l1.753-.876H19.4l.531.531a2.157,2.157,0,0,1,0,3.049L19,33.308,16.128,45.091a6.5,6.5,0,0,1-6.373,5.087Zm7.976-4.711,2.506-10.292a12.284,12.284,0,0,0,7-3.886,12.37,12.37,0,0,1,1.716.768,2.433,2.433,0,0,0-.16.846v3.29H22.21v4.935H28.79v5.758H17.267A8.3,8.3,0,0,0,17.731,45.466Zm2.011,4.711a2.473,2.473,0,0,1-2.327-1.645H31.94a2.472,2.472,0,0,1-2.327,1.645Zm27.968,0H32.882a4.073,4.073,0,0,0,.76-1.645H50.025A2.463,2.463,0,0,1,47.71,50.177Z"/>
              <path id="Trazado_272494" data-name="Trazado 272494" d="M49.355,10.694H41.129V7.4a1.645,1.645,0,1,1,3.29,0V9.048h4.935V7.4a6.581,6.581,0,0,0-13.161,0v3.29a2.471,2.471,0,0,0-2.468,2.468v8.226a2.471,2.471,0,0,0,2.468,2.468h1.645v1.3a1.986,1.986,0,0,0,3.39,1.4l2.709-2.709h5.418a2.471,2.471,0,0,0,2.468-2.468V13.161A2.471,2.471,0,0,0,49.355,10.694ZM37.839,7.4a4.935,4.935,0,0,1,9.871,0H46.065a3.29,3.29,0,0,0-6.581,0v3.29H37.839ZM50.177,21.387a.823.823,0,0,1-.823.823h-6.1L40.065,25.4a.354.354,0,0,1-.581-.241V22.21h-3.29a.823.823,0,0,1-.823-.823V13.161a.823.823,0,0,1,.823-.823H49.355a.823.823,0,0,1,.823.823Z"/>
              <path id="Trazado_272495" data-name="Trazado 272495" d="M42.774,13.984a2.462,2.462,0,0,0-.823,4.784v1.8H43.6v-1.8a2.462,2.462,0,0,0-.823-4.784Zm0,3.29a.823.823,0,1,1,.823-.823A.823.823,0,0,1,42.774,17.274Z"/>
            </g>
          </g>
        </g>
      </g>
    </g>
  </g>
</svg>
