<svg xmlns="http://www.w3.org/2000/svg" xmlns:xlink="http://www.w3.org/1999/xlink" width="69" height="69" viewBox="0 0 69 69">
  <defs>
    <clipPath id="clip-path">
      <rect id="Rectángulo_75116" data-name="Rectángulo 75116" width="69" height="69" transform="translate(260 3642)" fill="#fff" stroke="#707070" stroke-width="1"/>
    </clipPath>
  </defs>
  <g id="Enmascarar_grupo_86" data-name="Enmascarar grupo 86" transform="translate(-260 -3642)" clip-path="url(#clip-path)">
    <g id="integridad" transform="translate(260 3642)">
      <g id="Grupo_879040" data-name="Grupo 879040">
        <g id="Grupo_879033" data-name="Grupo 879033">
          <g id="Grupo_879024" data-name="Grupo 879024">
            <g id="Grupo_879023" data-name="Grupo 879023">
              <g id="Grupo_879022" data-name="Grupo 879022">
                <g id="Grupo_879021" data-name="Grupo 879021">
                  <g id="Grupo_879017" data-name="Grupo 879017">
                    <path id="Trazado_266814" data-name="Trazado 266814" d="M47.716,44.952q2.763-1.2,5.525-2.395l-1.227-9.663a2.41,2.41,0,0,0-4.8.407Z" fill="#873f30"/>
                  </g>
                  <g id="Grupo_879018" data-name="Grupo 879018">
                    <path id="Trazado_266815" data-name="Trazado 266815" d="M51.716,41.691q2.841-1,5.681-2l-.539-9.726a2.41,2.41,0,0,0-4.815.066Z" fill="#a34f41"/>
                  </g>
                  <g id="Grupo_879019" data-name="Grupo 879019">
                    <path id="Trazado_266816" data-name="Trazado 266816" d="M55.851,40.243q2.885-.863,5.768-1.73l-.085-9.74a2.41,2.41,0,0,0-4.813-.159Z" fill="#ba5d4f"/>
                  </g>
                  <g id="Grupo_879020" data-name="Grupo 879020">
                    <path id="Trazado_266817" data-name="Trazado 266817" d="M66.032,24.233a2.41,2.41,0,0,0-2.7,1.5L60.11,34.088a3.211,3.211,0,0,0-4.174.315l-4.9,4.9a12.637,12.637,0,0,1-3.3,2.374l-5.516,2.749a5.233,5.233,0,0,0-2.253,2.165l-1.9,3.464a5.233,5.233,0,0,0-.4,4.1,10.688,10.688,0,0,1,.26,5.456l-1.649,7.708H47.826l1.42-10.633,12.4-10.842a4.966,4.966,0,0,0,1.5-2.345l4.744-16.214A2.41,2.41,0,0,0,66.032,24.233Z" fill="#d5887a"/>
                    <path id="Trazado_266818" data-name="Trazado 266818" d="M67.892,27.276,63.148,43.49a4.97,4.97,0,0,1-1.5,2.345L49.245,56.678,47.826,67.311H44.185l1.482-11.1a.886.886,0,0,1,.3-.55L58.116,45.038a4.973,4.973,0,0,0,1.5-2.345l4.744-16.214a2.4,2.4,0,0,0-.2-1.827,2.409,2.409,0,0,1,3.729,2.625Z" fill="#c86f5c"/>
                  </g>
                </g>
              </g>
            </g>
          </g>
          <g id="Grupo_879032" data-name="Grupo 879032">
            <g id="Grupo_879031" data-name="Grupo 879031">
              <g id="Grupo_879030" data-name="Grupo 879030">
                <g id="Grupo_879029" data-name="Grupo 879029">
                  <g id="Grupo_879025" data-name="Grupo 879025">
                    <path id="Trazado_266819" data-name="Trazado 266819" d="M21.284,44.952q-2.763-1.2-5.525-2.395l1.227-9.663a2.41,2.41,0,0,1,4.8.407Z" fill="#873f30"/>
                  </g>
                  <g id="Grupo_879026" data-name="Grupo 879026">
                    <path id="Trazado_266820" data-name="Trazado 266820" d="M17.284,41.691q-2.841-1-5.681-2l.539-9.726a2.41,2.41,0,0,1,4.815.066Z" fill="#a34f41"/>
                  </g>
                  <g id="Grupo_879027" data-name="Grupo 879027">
                    <path id="Trazado_266821" data-name="Trazado 266821" d="M13.149,40.243q-2.885-.863-5.768-1.73l.085-9.74a2.41,2.41,0,0,1,4.813-.159Z" fill="#ba5d4f"/>
                  </g>
                  <g id="Grupo_879028" data-name="Grupo 879028">
                    <path id="Trazado_266822" data-name="Trazado 266822" d="M2.968,24.233a2.41,2.41,0,0,1,2.7,1.5L8.89,34.088a3.211,3.211,0,0,1,4.174.315l4.9,4.9a12.637,12.637,0,0,0,3.3,2.374l5.516,2.749a5.233,5.233,0,0,1,2.253,2.165l1.9,3.464a5.233,5.233,0,0,1,.4,4.1,10.688,10.688,0,0,0-.26,5.456l1.649,7.708H21.174l-1.42-10.633L7.349,45.836a4.966,4.966,0,0,1-1.5-2.345L1.107,27.277a2.41,2.41,0,0,1,1.861-3.044Z" fill="#d5887a"/>
                    <path id="Trazado_266823" data-name="Trazado 266823" d="M32.722,67.311H29.042L27.393,59.6a10.665,10.665,0,0,1,.26-5.456,5.24,5.24,0,0,0-.4-4.1L24.4,44.226a5.217,5.217,0,0,0-1.616-1.79l3.988,1.987a5.223,5.223,0,0,1,2.252,2.166l1.9,3.464a5.24,5.24,0,0,1,.4,4.1,10.706,10.706,0,0,0-.26,5.456Z" fill="#c86f5c"/>
                  </g>
                </g>
              </g>
            </g>
          </g>
        </g>
        <g id="Grupo_879039" data-name="Grupo 879039">
          <g id="Grupo_879034" data-name="Grupo 879034">
            <path id="Trazado_266824" data-name="Trazado 266824" d="M46.642,8.318A3.617,3.617,0,0,1,47.957,6.7a.292.292,0,0,0-.048-.514L45.149,5.048A1.944,1.944,0,0,0,42.611,6.1L41.163,9.616a3.637,3.637,0,1,0-1.879,4.558l-1.447,3.512a1.944,1.944,0,0,0,1.057,2.538L50.477,25a1.944,1.944,0,0,0,2.538-1.057L57.788,12.36a1.944,1.944,0,0,0-1.057-2.538l-2.76-1.137a.291.291,0,0,0-.4.327,3.637,3.637,0,1,1-6.933-.693Z" fill="#fddd45"/>
            <path id="Trazado_266825" data-name="Trazado 266825" d="M57.788,12.36,53.015,23.941A1.942,1.942,0,0,1,50.477,25l-2.528-1.042a1.97,1.97,0,0,0,2.143-1.191l4.83-11.721A1.967,1.967,0,0,0,54.486,8.9l2.245.926a1.944,1.944,0,0,1,1.057,2.539Z" fill="#f8c52d"/>
          </g>
          <g id="Grupo_879036" data-name="Grupo 879036">
            <path id="Trazado_266826" data-name="Trazado 266826" d="M32.163,37.54a3.616,3.616,0,0,1-1.019,1.82.292.292,0,0,0,.135.5l2.913.65a1.944,1.944,0,0,0,2.321-1.474l.827-3.707a3.637,3.637,0,1,0,1.074-4.812l.827-3.707a1.944,1.944,0,0,0-1.474-2.321L25.539,21.759a1.944,1.944,0,0,0-2.321,1.474L20.491,35.459a1.944,1.944,0,0,0,1.474,2.321l2.913.65a.291.291,0,0,0,.335-.39,3.637,3.637,0,1,1,6.95-.5Z" fill="#31a7fb"/>
            <g id="Grupo_879035" data-name="Grupo 879035">
              <path id="Trazado_266827" data-name="Trazado 266827" d="M34.662,23.794a1.943,1.943,0,0,1-1.294,1.03L22.276,27.457l.942-4.224a1.944,1.944,0,0,1,2.321-1.474Z" fill="#1c96f9"/>
              <path id="Trazado_266828" data-name="Trazado 266828" d="M44.036,34.3a3.636,3.636,0,0,1-5.613,2.2,3.7,3.7,0,0,0,1.268-6.543,3.6,3.6,0,0,1,1.586,0A3.639,3.639,0,0,1,44.036,34.3Z" fill="#1c96f9"/>
            </g>
          </g>
          <g id="Grupo_879038" data-name="Grupo 879038">
            <path id="Trazado_266829" data-name="Trazado 266829" d="M28.307,11.047a3.617,3.617,0,0,1,2.082.121.292.292,0,0,0,.389-.339l-.689-2.9a1.944,1.944,0,0,0-2.341-1.443l-3.7.877a3.637,3.637,0,1,0-4.8,1.139l-3.7.877a1.944,1.944,0,0,0-1.443,2.341L17.01,23.9a1.944,1.944,0,0,0,2.341,1.443l12.188-2.893a1.944,1.944,0,0,0,1.443-2.341l-.689-2.9a.291.291,0,0,0-.5-.13,3.637,3.637,0,1,1-3.488-6.032Z" fill="#fc9744"/>
            <g id="Grupo_879037" data-name="Grupo 879037">
              <path id="Trazado_266830" data-name="Trazado 266830" d="M31.539,22.455l-2.406.57A1.969,1.969,0,0,0,30,20.9l-.636-2.683a2.969,2.969,0,0,0,.307-.032A3.623,3.623,0,0,0,31.8,17.08a.292.292,0,0,1,.5.129l.689,2.9a1.944,1.944,0,0,1-1.442,2.341Z" fill="#fb8627"/>
              <path id="Trazado_266831" data-name="Trazado 266831" d="M30.388,11.167a3.64,3.64,0,0,0-2.677.077l-.64-2.7a1.97,1.97,0,0,0-1.693-1.5l2.369-.562a1.943,1.943,0,0,1,2.341,1.442l.689,2.9A.292.292,0,0,1,30.388,11.167Z" fill="#fb8627"/>
            </g>
          </g>
        </g>
      </g>
      <g id="Grupo_879041" data-name="Grupo 879041">
        <path id="Trazado_266832" data-name="Trazado 266832" d="M68.5,24.816a3.421,3.421,0,0,0-6.11.553l-.529,1.372a3.419,3.419,0,0,0-5.722.387A3.415,3.415,0,0,0,51.032,30l0,.068a3.43,3.43,0,0,0-4.824,3.271l.335,7.8-4.767,2.376A6.215,6.215,0,0,0,39.085,46.1l-1.9,3.464a6.272,6.272,0,0,0-.481,4.886,9.7,9.7,0,0,1,.235,4.94L35.289,67.1a1.011,1.011,0,1,0,1.977.423l1.649-7.707a11.72,11.72,0,0,0-.285-5.972,4.241,4.241,0,0,1,.325-3.3l1.9-3.465a4.2,4.2,0,0,1,1.818-1.747l5.516-2.749a13.624,13.624,0,0,0,3.562-2.564l4.9-4.9a2.2,2.2,0,1,1,3.111,3.111l-5.9,5.9a19.121,19.121,0,0,0-2.781,3.528A1.011,1.011,0,0,0,52.8,48.713a17.1,17.1,0,0,1,2.487-3.155l5.9-5.9A4.22,4.22,0,0,0,61.3,33.8L64.275,26.1a1.4,1.4,0,0,1,1.568-.871,1.4,1.4,0,0,1,1.08,1.767L62.179,43.207a3.949,3.949,0,0,1-1.193,1.868l-12.4,10.842a1.011,1.011,0,0,0-.337.627l-1.42,10.633a1.011,1.011,0,1,0,2,.268L50.2,57.188,62.316,46.6a5.967,5.967,0,0,0,1.8-2.822L68.863,27.56a3.428,3.428,0,0,0-.365-2.744ZM48.517,40.061l-.292-6.8a1.4,1.4,0,0,1,2.729-.486L50.8,38.1l-.482.482a11.616,11.616,0,0,1-1.806,1.475Zm4.368-4.038.167-5.962a1.4,1.4,0,0,1,2.6-.68l-.314,4.2c-.039.036-.078.072-.116.11Zm4.557-3.5.287-3.834A1.4,1.4,0,0,1,58.978,27.4a1.4,1.4,0,0,1,1.545,1.379l.012,1.392L59.57,32.68a4.25,4.25,0,0,0-2.127-.156Z"/>
        <path id="Trazado_266833" data-name="Trazado 266833" d="M32.839,63.02a1.011,1.011,0,1,0-1.977.423l.873,4.08a1.011,1.011,0,1,0,1.977-.423Z"/>
        <path id="Trazado_266834" data-name="Trazado 266834" d="M35.981,15.174a4.641,4.641,0,0,0,1.655.348L36.9,17.3a2.955,2.955,0,0,0,1.606,3.858l3.382,1.394a1.011,1.011,0,0,0,.77-1.869L39.28,19.29a.933.933,0,0,1-.507-1.219L40.22,14.56a1.011,1.011,0,0,0-1.36-1.3,2.626,2.626,0,0,1-3.535-3.382,2.629,2.629,0,0,1,3.429-1.427,2.6,2.6,0,0,1,1.463,1.518A1.011,1.011,0,0,0,42.1,10L43.545,6.49a.934.934,0,0,1,1.219-.507l1.706.7a4.648,4.648,0,1,0,8.172,3.368l1.7.7a.934.934,0,0,1,.507,1.219L52.081,23.557a.934.934,0,0,1-1.219.507L46.8,22.388a1.011,1.011,0,0,0-.77,1.869l4.066,1.676a2.955,2.955,0,0,0,3.858-1.606l4.773-11.582a2.955,2.955,0,0,0-1.606-3.858L54.357,7.75a1.3,1.3,0,0,0-1.773,1.456,2.627,2.627,0,1,1-4.059-1.67,1.3,1.3,0,0,0-.231-2.284L45.534,4.114A2.955,2.955,0,0,0,41.676,5.72L40.943,7.5a4.647,4.647,0,1,0-4.961,7.675Z"/>
        <path id="Trazado_266835" data-name="Trazado 266835" d="M37.5,39.254l.419-1.878a4.648,4.648,0,1,0,1.889-8.469l.419-1.878A2.958,2.958,0,0,0,37.986,23.5l-4.638-1.035a2.953,2.953,0,0,0,.616-2.585l-.689-2.9a1.3,1.3,0,0,0-2.217-.589,2.627,2.627,0,1,1-1.016-4.27A1.3,1.3,0,0,0,31.761,10.6l-.689-2.9A2.959,2.959,0,0,0,27.514,5.5l-1.873.444a4.648,4.648,0,1,0-8.443,2l-1.873.444a2.955,2.955,0,0,0-2.193,3.558l1.014,4.273a1.011,1.011,0,0,0,1.967-.467L15.1,11.482a.934.934,0,0,1,.693-1.124l3.7-.877a1.011,1.011,0,0,0,.262-1.865,2.626,2.626,0,1,1,3.463-.822,1.011,1.011,0,0,0,1.072,1.548l3.7-.877a.935.935,0,0,1,1.124.693l.426,1.8a4.648,4.648,0,1,0,2.041,8.6L32,20.347a.934.934,0,0,1-.693,1.124L19.117,24.364a.933.933,0,0,1-1.124-.693l-.843-3.553a1.011,1.011,0,0,0-1.967.467l.843,3.553a2.958,2.958,0,0,0,2.87,2.274,2.978,2.978,0,0,0,.688-.081l2.014-.478-.932,4.179a3.478,3.478,0,0,0-.535-.17,3.4,3.4,0,0,0-2.161.221l0-.078a3.419,3.419,0,0,0-5.106-2.878,3.417,3.417,0,0,0-5.721-.385l-.529-1.372A3.421,3.421,0,0,0,.137,27.561L4.881,43.775a5.967,5.967,0,0,0,1.8,2.822L18.8,57.189l1.369,10.256a1.011,1.011,0,1,0,2-.268l-1.42-10.633a1.011,1.011,0,0,0-.337-.627L8.014,45.075a3.948,3.948,0,0,1-1.193-1.868L2.077,26.993a1.4,1.4,0,0,1,1.08-1.767,1.4,1.4,0,0,1,1.568.871L7.7,33.805a4.22,4.22,0,0,0,.111,5.853l5.9,5.9A17.088,17.088,0,0,1,16.2,48.714a1.011,1.011,0,0,0,1.724-1.056,19.12,19.12,0,0,0-2.781-3.528l-5.9-5.9a2.2,2.2,0,1,1,3.111-3.111l4.9,4.9a13.622,13.622,0,0,0,3.562,2.564l5.516,2.749a4.2,4.2,0,0,1,1.818,1.746l1.9,3.465a4.242,4.242,0,0,1,.325,3.3,11.771,11.771,0,0,0-.436,5.1,1.011,1.011,0,0,0,2-.272,9.74,9.74,0,0,1,.361-4.216,6.273,6.273,0,0,0-.481-4.886l-1.9-3.465a6.214,6.214,0,0,0-2.688-2.583l-4.767-2.376.094-2.2,2.1.469a1.3,1.3,0,0,0,1.5-1.737,2.627,2.627,0,1,1,4.284.953,1.3,1.3,0,0,0,.617,2.211l2.913.65a2.953,2.953,0,0,0,3.528-2.24ZM9.43,32.677l-.965-2.5.012-1.392A1.4,1.4,0,0,1,10.022,27.4a1.4,1.4,0,0,1,1.249,1.287l.287,3.832a4.234,4.234,0,0,0-2.128.156Zm4.234.9-.314-4.2a1.4,1.4,0,0,1,2.6.68l.167,5.962-2.335-2.335c-.038-.038-.077-.074-.116-.11ZM18.195,38.1l-.149-5.333a1.4,1.4,0,0,1,1.638-.938,1.427,1.427,0,0,1,.451.188c.026.017.051.035.076.054L19.5,35.239A2.945,2.945,0,0,0,20.562,38.2l-.08,1.858a11.6,11.6,0,0,1-1.806-1.475Zm17.331.71a.934.934,0,0,1-1.114.708l-1.8-.4a4.648,4.648,0,1,0-8.627-1.925l-1.8-.4a.935.935,0,0,1-.708-1.114l2.308-10.346,6.364-1.511,7.4,1.65a.935.935,0,0,1,.708,1.114l-.827,3.707a1.011,1.011,0,0,0,1.562,1.051,2.626,2.626,0,1,1-.775,3.474,1.011,1.011,0,0,0-1.861.287Z"/>
      </g>
    </g>
  </g>
</svg>
