<svg xmlns="http://www.w3.org/2000/svg" width="62" height="62" viewBox="0 0 62 62">
  <g id="analisis-de-los-datos" transform="translate(-1 -1)">
    <path id="Trazado_271967" data-name="Trazado 271967" d="M49,30h2v2H49Z"/>
    <path id="Trazado_271968" data-name="Trazado 271968" d="M53,30h2v2H53Z"/>
    <path id="Trazado_271969" data-name="Trazado 271969" d="M45,30h2v2H45Z"/>
    <path id="Trazado_271970" data-name="Trazado 271970" d="M41,30h2v2H41Z"/>
    <path id="Trazado_271971" data-name="Trazado 271971" d="M37,30h2v2H37Z"/>
    <path id="Trazado_271972" data-name="Trazado 271972" d="M63,29a17.052,17.052,0,0,0-8-14.4V13a3,3,0,0,0-3-3H47V7a3,3,0,0,0-3-3H17.858A3.992,3.992,0,1,0,13,8.858V13H4a3,3,0,0,0-3,3V32a3,3,0,0,0,3,3h9v4H4a3,3,0,0,0-3,3V58a3,3,0,0,0,3,3H28a3,3,0,0,0,3-3V42a3,3,0,0,0-3-3H15V35h9a3,3,0,0,0,3-3V16a3,3,0,0,0-3-3H15V8.858A4,4,0,0,0,17.858,6H44a1,1,0,0,1,1,1v3H40a3,3,0,0,0-3,3v1.6a16.979,16.979,0,0,0,4,30.643V58a5,5,0,0,0,10,0V45.247A17.028,17.028,0,0,0,63,29ZM29,42V58a1,1,0,0,1-1,1H4a1,1,0,0,1-1-1V42a1,1,0,0,1,1-1H28A1,1,0,0,1,29,42ZM25,16V32a1,1,0,0,1-1,1H4a1,1,0,0,1-1-1V16a1,1,0,0,1,1-1H24A1,1,0,0,1,25,16ZM14,7a2,2,0,1,1,2-2A2,2,0,0,1,14,7ZM40,28H52a3,3,0,0,0,3-3V22.712a11,11,0,1,1-18,0V25A3,3,0,0,0,40,28Zm5-16h2v2H45Zm-6,1a1,1,0,0,1,1-1h3v4h6V12h3a1,1,0,0,1,1,1V25a1,1,0,0,1-1,1H40a1,1,0,0,1-1-1ZM49,58a3,3,0,0,1-6,0V45.719a16.155,16.155,0,0,0,6,0ZM46,44a14.984,14.984,0,0,1-9-26.976V19.66a13,13,0,1,0,18,0V17.024A14.984,14.984,0,0,1,46,44Z"/>
    <path id="Trazado_271973" data-name="Trazado 271973" d="M23,17H17v2H13v2H9v2H5v8H23Zm-6,4v8H15V21ZM7,25H9v4H7Zm4-2h2v6H11Zm10,6H19V19h2Z"/>
    <path id="Trazado_271974" data-name="Trazado 271974" d="M15,43H5V53H15Zm-2,8H7V45h6Z"/>
    <path id="Trazado_271975" data-name="Trazado 271975" d="M5,55H27v2H5Z"/>
    <path id="Trazado_271976" data-name="Trazado 271976" d="M17,51H27v2H17Z"/>
    <path id="Trazado_271977" data-name="Trazado 271977" d="M17,47H27v2H17Z"/>
    <path id="Trazado_271978" data-name="Trazado 271978" d="M17,43H27v2H17Z"/>
  </g>
</svg>
