<svg xmlns="http://www.w3.org/2000/svg" xmlns:xlink="http://www.w3.org/1999/xlink" width="69" height="69" viewBox="0 0 69 69">
  <defs>
    <clipPath id="clip-path">
      <rect id="Rectángulo_75117" data-name="Rectángulo 75117" width="69" height="69" transform="translate(513 3642)" fill="#fff" stroke="#707070" stroke-width="1"/>
    </clipPath>
  </defs>
  <g id="Enmascarar_grupo_87" data-name="Enmascarar grupo 87" transform="translate(-513 -3642)" clip-path="url(#clip-path)">
    <g id="calidad" transform="translate(513 3642)">
      <g id="Grupo_879046" data-name="Grupo 879046">
        <g id="Grupo_879045" data-name="Grupo 879045">
          <g id="Grupo_879043" data-name="Grupo 879043">
            <path id="Trazado_266836" data-name="Trazado 266836" d="M46.174,67.989H20.026A3.591,3.591,0,0,1,16.435,64.4V61.8a3.591,3.591,0,0,1,3.591-3.591H46.174A3.591,3.591,0,0,1,49.765,61.8v2.6a3.591,3.591,0,0,1-3.591,3.591Z" fill="#f8c52d"/>
            <g id="Grupo_879042" data-name="Grupo 879042">
              <path id="Trazado_266837" data-name="Trazado 266837" d="M48.885,59.443a13.889,13.889,0,0,1-10.966,5.349H28.084a13.841,13.841,0,0,1-10.877-5.218,3.581,3.581,0,0,1,2.819-1.368H46.175A3.579,3.579,0,0,1,48.885,59.443Z" fill="#e7b729"/>
              <path id="Trazado_266838" data-name="Trazado 266838" d="M49.765,61.8v2.6a3.591,3.591,0,0,1-3.591,3.591H41.481A3.592,3.592,0,0,0,45.072,64.4V61.8a3.591,3.591,0,0,0-3.591-3.591h4.693A3.59,3.59,0,0,1,49.765,61.8Z" fill="#e7b729"/>
            </g>
          </g>
          <g id="Grupo_879044" data-name="Grupo 879044">
            <path id="Trazado_266839" data-name="Trazado 266839" d="M28.084,61.6A13.806,13.806,0,0,1,15.8,54.218a17.247,17.247,0,0,1-2.059-7.575V29.712A8.476,8.476,0,0,1,24.1,21.318a8.473,8.473,0,0,1,6.413-1.376,8.441,8.441,0,0,1,3.4-1.568V9.61a8.471,8.471,0,1,1,16.942-.129V26.708a1.993,1.993,0,0,0,.827,1.621,8.54,8.54,0,0,1,3.562,7.378l-.317,6.135a8.5,8.5,0,0,1-.67,2.9l-3.221,7.569A13.9,13.9,0,0,1,37.918,61.6H28.084Z" fill="#fddd45"/>
            <path id="Trazado_266840" data-name="Trazado 266840" d="M55.244,35.706l-.317,6.135a8.489,8.489,0,0,1-.669,2.9l-3.222,7.569A13.9,13.9,0,0,1,37.918,61.6H33.474a13.9,13.9,0,0,0,13.119-9.284l3.22-7.569a8.492,8.492,0,0,0,.67-2.9l.317-6.135a8.535,8.535,0,0,0-3.562-7.376,2,2,0,0,1-.828-1.622V9.482A8.485,8.485,0,0,0,40.17,1.309a8.3,8.3,0,0,1,2.083-.3,8.479,8.479,0,0,1,8.6,8.47V26.708a2,2,0,0,0,.826,1.622,8.536,8.536,0,0,1,3.562,7.376Z" fill="#f8c52d"/>
            <path id="Trazado_266841" data-name="Trazado 266841" d="M47.116,31.869l-1.37-.157V9.482a3.362,3.362,0,0,0-6.723,0V26.664a3.362,3.362,0,1,0-6.723,0v1.6a3.362,3.362,0,1,0-6.723,0v1.311a3.362,3.362,0,0,0-6.723,0V46.643a12.348,12.348,0,0,0,1.474,5.2,8.744,8.744,0,0,0,7.757,4.641h9.834a8.8,8.8,0,0,0,8.347-6.009l3.291-7.736a3.417,3.417,0,0,0,.268-1.163l.317-6.135a3.42,3.42,0,0,0-3.026-3.574Z" fill="#f82f40"/>
            <path id="Trazado_266842" data-name="Trazado 266842" d="M50.142,35.443l-.317,6.135a3.391,3.391,0,0,1-.269,1.162l-3.292,7.737a8.8,8.8,0,0,1-8.347,6.009H33.686a8.8,8.8,0,0,0,8.347-6.009l3.292-7.737a3.426,3.426,0,0,0,.269-1.162l.317-6.135a3.423,3.423,0,0,0-3.026-3.575,1.546,1.546,0,0,1-1.371-1.536V9.482a3.354,3.354,0,0,0-1.245-2.612,3.362,3.362,0,0,1,5.479,2.611v22.23l1.369.156a3.423,3.423,0,0,1,3.026,3.575Z" fill="#e22334"/>
          </g>
        </g>
      </g>
      <g id="Grupo_879047" data-name="Grupo 879047">
        <path id="Trazado_266843" data-name="Trazado 266843" d="M52.271,27.508a.984.984,0,0,1-.405-.8V9.481A9.491,9.491,0,0,0,42.238,0,9.587,9.587,0,0,0,32.9,9.61v7.982a9.55,9.55,0,0,0-2.646,1.285,9.559,9.559,0,0,0-1.319-.092,9.411,9.411,0,0,0-5.05,1.459,9.68,9.68,0,0,0-1.705-.148,9.567,9.567,0,0,0-9.45,9.615V46.643a17.417,17.417,0,0,0,1.3,6.125,1.011,1.011,0,1,0,1.88-.743,15.516,15.516,0,0,1-1.154-5.381V29.712a7.542,7.542,0,0,1,7.435-7.594,7.459,7.459,0,0,1,1.684.186,1.01,1.01,0,0,0,.8-.157,7.4,7.4,0,0,1,4.261-1.34,7.5,7.5,0,0,1,1.386.129,1.012,1.012,0,0,0,.8-.192,7.477,7.477,0,0,1,3-1.381,1.011,1.011,0,0,0,.8-.989V9.61a7.557,7.557,0,0,1,7.344-7.588,7.469,7.469,0,0,1,7.576,7.459V26.708a3.01,3.01,0,0,0,1.248,2.443,7.5,7.5,0,0,1,3.142,6.5l-.317,6.135a7.489,7.489,0,0,1-.59,2.556l-3.221,7.569c-.008.02-.016.04-.023.06a12.917,12.917,0,0,1-12.166,8.609H28.085a12.773,12.773,0,0,1-10.13-4.895,1.011,1.011,0,1,0-1.591,1.247,14.894,14.894,0,0,0,.978,1.125A4.6,4.6,0,0,0,15.425,61.8v2.6a4.607,4.607,0,0,0,4.6,4.6H37.409a1.011,1.011,0,1,0,0-2.021H20.026a2.583,2.583,0,0,1-2.58-2.58V61.8A2.582,2.582,0,0,1,18.9,59.474a14.847,14.847,0,0,0,9.181,3.132h9.834a14.914,14.914,0,0,0,9.223-3.2A2.584,2.584,0,0,1,48.755,61.8v2.6a2.583,2.583,0,0,1-2.581,2.58H41.9A1.011,1.011,0,1,0,41.9,69h4.275a4.607,4.607,0,0,0,4.6-4.6V61.8a4.611,4.611,0,0,0-2.05-3.83,14.865,14.865,0,0,0,3.254-5.289l3.208-7.54a9.511,9.511,0,0,0,.749-3.244l.317-6.135a9.513,9.513,0,0,0-3.983-8.251Z"/>
        <path id="Trazado_266844" data-name="Trazado 266844" d="M45.746,16.573a1.011,1.011,0,0,0,1.011-1.011V9.482a4.372,4.372,0,1,0-8.745,0v13.5a4.37,4.37,0,0,0-6.334,1.883,4.369,4.369,0,0,0-6.622,1.4,4.37,4.37,0,0,0-7.213,3.321V46.643a13.326,13.326,0,0,0,1.59,5.671A9.719,9.719,0,0,0,28.084,57.5h9.834a9.8,9.8,0,0,0,9.292-6.66l3.276-7.7a4.418,4.418,0,0,0,.348-1.507l.317-6.135a4.441,4.441,0,0,0-3.928-4.632l-.466-.049V20.053a1.011,1.011,0,0,0-2.021,0V30.6l-4.7-.5V9.482a2.351,2.351,0,1,1,4.7,0v6.081a1.011,1.011,0,0,0,1.011,1.011ZM26.587,28.267a2.351,2.351,0,0,1,4.7,0v5.76a2.351,2.351,0,0,1-4.7,0v-5.76Zm-6.723,1.311a2.351,2.351,0,0,1,4.7,0h0v4.449a2.351,2.351,0,0,1-4.7,0Zm29.269,5.813-.317,6.135a2.4,2.4,0,0,1-.189.819l-3.291,7.736c-.011.025-.02.05-.028.075a7.783,7.783,0,0,1-7.388,5.319H28.084a7.7,7.7,0,0,1-6.861-4.1,11.533,11.533,0,0,1-1.359-4.732V37.711a4.363,4.363,0,0,0,5.712-.891,4.365,4.365,0,0,0,6.63.107,4.53,4.53,0,0,0,2.958,1.763l5.271.768a1.011,1.011,0,0,0,.291-2l-5.271-.768a2.521,2.521,0,0,1-2.146-2.481,2.507,2.507,0,0,1,2.772-2.493L47,32.873a2.414,2.414,0,0,1,2.132,2.518ZM36.3,29.7a4.536,4.536,0,0,0-2.985.734V26.664a2.351,2.351,0,1,1,4.7,0v3.223Z"/>
        <path id="Trazado_266845" data-name="Trazado 266845" d="M37.422,49.73H36.134V41.92a1.011,1.011,0,0,0-1.445-.913l-2.165,1.03a1.011,1.011,0,1,0,.868,1.825l.72-.342v6.21H32.824a1.011,1.011,0,0,0,0,2.021h4.6a1.011,1.011,0,0,0,0-2.021Z"/>
        <path id="Trazado_266846" data-name="Trazado 266846" d="M29.931,40.181a1.011,1.011,0,0,0-1.011,1.011v1.236a1.011,1.011,0,0,0,2.021,0V41.192A1.011,1.011,0,0,0,29.931,40.181Z"/>
      </g>
    </g>
  </g>
</svg>
