<svg xmlns="http://www.w3.org/2000/svg" xmlns:xlink="http://www.w3.org/1999/xlink" width="37" height="37" viewBox="0 0 37 37">
  <defs>
    <clipPath id="clip-path">
      <rect id="Rectángulo_66802" data-name="Rectángulo 66802" width="37" height="37" transform="translate(580 2756)" fill="#7433ee"/>
    </clipPath>
  </defs>
  <g id="Enmascarar_grupo_56" data-name="Enmascarar grupo 56" transform="translate(-580 -2756)" clip-path="url(#clip-path)">
    <g id="buscar" transform="translate(580 2756)">
      <path id="Trazado_200362" data-name="Trazado 200362" d="M32.913,4.087a.542.542,0,1,0-.766.766,12.858,12.858,0,1,1-1.909-1.576.542.542,0,1,0,.607-.9A13.959,13.959,0,0,0,11.523,21.835L9.858,23.5a2,2,0,0,0-2.031.487l-2.32,2.32a.542.542,0,1,0,.766.767l2.32-2.32a.916.916,0,0,1,1.294,0l2.36,2.36a.923.923,0,0,1,0,1.294L5.5,35.159A2.584,2.584,0,0,1,1.841,31.5l2.637-2.637a.542.542,0,1,0-.766-.766L1.075,30.738a3.668,3.668,0,0,0,5.187,5.187l6.752-6.752A2.024,2.024,0,0,0,13.5,27.14l1.666-1.665A13.955,13.955,0,0,0,32.913,4.087ZM12.888,26.221l-2.109-2.109,1.4-1.4a14.037,14.037,0,0,0,2.11,2.109ZM23.044,11.288a1.805,1.805,0,0,0-1.8,1.8v6.071a1.8,1.8,0,0,0,3.607,0V13.092A1.806,1.806,0,0,0,23.044,11.288Zm.72,7.875a.72.72,0,0,1-1.439,0V13.091a.72.72,0,0,1,1.439,0ZM15.675,6.586a10.422,10.422,0,1,0,14.739,0,10.353,10.353,0,0,0-14.739,0ZM29.647,20.558a9.337,9.337,0,1,1,2.735-6.6,9.349,9.349,0,0,1-2.735,6.6Zm-6.6-13.614a1.8,1.8,0,1,0,1.8,1.8,1.805,1.805,0,0,0-1.8-1.8Zm0,2.523a.719.719,0,1,1,.72-.719A.72.72,0,0,1,23.044,9.467Z" fill="#7433ee"/>
    </g>
  </g>
</svg>
