<svg xmlns="http://www.w3.org/2000/svg" width="1030" height="240" viewBox="0 0 1030 240">
  <g id="Grupo_883813" data-name="Grupo 883813" transform="translate(1319 9241)">
    <g id="Grupo_883460" data-name="Grupo 883460" transform="translate(0 -30)">
      <g id="Rectángulo_75153" data-name="Rectángulo 75153" transform="translate(-1319 -9211)" fill="#fff" stroke="#12263f" stroke-width="3">
        <rect width="1030" height="240" stroke="none"/>
        <rect x="1.5" y="1.5" width="1027" height="237" fill="none"/>
      </g>
      <rect id="Rectángulo_75148" data-name="Rectángulo 75148" width="442" height="99" transform="translate(-878 -9169)" fill="#fd9ca5"/>
      <rect id="Rectángulo_75150" data-name="Rectángulo 75150" width="589" height="33" transform="translate(-1025 -9070)" fill="#fffea9"/>
      <rect id="Rectángulo_75152" data-name="Rectángulo 75152" width="735" height="33" transform="translate(-1171 -9037)" fill="#d0eabf"/>
      <rect id="Rectángulo_75149" data-name="Rectángulo 75149" width="148" height="99" transform="translate(-1025 -9169)" fill="#fffea9"/>
      <rect id="Rectángulo_75151" data-name="Rectángulo 75151" width="148" height="132" transform="translate(-1172 -9169)" fill="#d0eabf"/>
      <rect id="Rectángulo_75154" data-name="Rectángulo 75154" width="148" height="41" transform="translate(-1318 -9210)" fill="#94ccf3"/>
      <rect id="Rectángulo_75155" data-name="Rectángulo 75155" width="145" height="32" transform="translate(-437 -9004)" fill="#94ccf3"/>
      <g id="Rectángulo_75147" data-name="Rectángulo 75147" transform="translate(-1319 -9211)" fill="none" stroke="#12263f" stroke-width="3">
        <rect width="1030" height="240" stroke="none"/>
        <rect x="1.5" y="1.5" width="1027" height="237" fill="none"/>
      </g>
      <line id="Línea_184" data-name="Línea 184" y2="240" transform="translate(-1171.5 -9211)" fill="none" stroke="#12263f" stroke-width="3"/>
      <line id="Línea_196" data-name="Línea 196" y2="198" transform="translate(-1024.5 -9169)" fill="none" stroke="#12263f" stroke-width="3"/>
      <line id="Línea_185" data-name="Línea 185" y2="198" transform="translate(-877.5 -9169)" fill="none" stroke="#12263f" stroke-width="3"/>
      <line id="Línea_197" data-name="Línea 197" y2="198" transform="translate(-730.5 -9169)" fill="none" stroke="#12263f" stroke-width="3"/>
      <line id="Línea_198" data-name="Línea 198" y2="240" transform="translate(-436.5 -9211)" fill="none" stroke="#12263f" stroke-width="3"/>
      <line id="Línea_186" data-name="Línea 186" y2="198" transform="translate(-583.5 -9169)" fill="none" stroke="#12263f" stroke-width="3"/>
      <line id="Línea_187" data-name="Línea 187" x2="883" transform="translate(-1319 -9169)" fill="none" stroke="#12263f" stroke-width="3"/>
      <line id="Línea_188" data-name="Línea 188" x2="883" transform="translate(-1319 -9136)" fill="none" stroke="#12263f" stroke-width="3"/>
      <line id="Línea_199" data-name="Línea 199" x2="883" transform="translate(-1319 -9103)" fill="none" stroke="#12263f" stroke-width="3"/>
      <line id="Línea_200" data-name="Línea 200" x2="883" transform="translate(-1319 -9070)" fill="none" stroke="#12263f" stroke-width="3"/>
      <line id="Línea_201" data-name="Línea 201" x2="883" transform="translate(-1319 -9037)" fill="none" stroke="#12263f" stroke-width="3"/>
      <line id="Línea_202" data-name="Línea 202" x2="1030" transform="translate(-1319 -9004)" fill="none" stroke="#12263f" stroke-width="3"/>
      <path id="Trazado_272536" data-name="Trazado 272536" d="M-42.086-3.859V0h-2.742V-11.375h4.539a5.287,5.287,0,0,1,2.309.48,3.621,3.621,0,0,1,1.555,1.367,3.734,3.734,0,0,1,.551,2.012,3.291,3.291,0,0,1-1.191,2.66,4.943,4.943,0,0,1-3.27,1Zm0-2.117h1.8a1.7,1.7,0,0,0,1.215-.4A1.48,1.48,0,0,0-38.656-7.5a1.83,1.83,0,0,0-.43-1.273,1.522,1.522,0,0,0-1.172-.484h-1.828Zm12.664-.094-.867-.062a1.558,1.558,0,0,0-1.594.781V0h-2.633V-8.453h2.469l.086,1.086a2.039,2.039,0,0,1,1.852-1.242,2.567,2.567,0,0,1,.734.094Zm.336,1.766a4.989,4.989,0,0,1,.492-2.254,3.52,3.52,0,0,1,1.414-1.52,4.259,4.259,0,0,1,2.164-.531,3.887,3.887,0,0,1,2.992,1.176,4.512,4.512,0,0,1,1.094,3.2v.094A4.378,4.378,0,0,1-22.027-1,3.9,3.9,0,0,1-25,.156,3.942,3.942,0,0,1-27.9-.926a4.232,4.232,0,0,1-1.18-2.934Zm2.633.164a3.145,3.145,0,0,0,.367,1.719A1.223,1.223,0,0,0-25-1.875q1.406,0,1.438-2.164V-4.3q0-2.273-1.453-2.273-1.32,0-1.43,1.961Zm14.531-.016a5.152,5.152,0,0,1-.859,3.2A2.878,2.878,0,0,1-15.2.156,2.5,2.5,0,0,1-17.281-.867L-17.391,0H-19.75V-12h2.633v4.227a2.41,2.41,0,0,1,1.9-.836,2.879,2.879,0,0,1,2.438,1.133,5.179,5.179,0,0,1,.859,3.188Zm-2.641-.164a3.447,3.447,0,0,0-.324-1.738,1.092,1.092,0,0,0-1-.52,1.26,1.26,0,0,0-1.234.68v3.359a1.267,1.267,0,0,0,1.25.672,1.118,1.118,0,0,0,1.18-.906A6.518,6.518,0,0,0-14.562-4.32ZM-6,0a2.973,2.973,0,0,1-.25-.758A2.448,2.448,0,0,1-8.281.156a3,3,0,0,1-2.031-.723,2.3,2.3,0,0,1-.836-1.816,2.364,2.364,0,0,1,1.016-2.078,5.174,5.174,0,0,1,2.953-.7h.813v-.445q0-1.164-1.008-1.164a.822.822,0,0,0-.937.922h-2.633A2.364,2.364,0,0,1-9.9-7.844a4.379,4.379,0,0,1,2.66-.766,3.843,3.843,0,0,1,2.555.789,2.743,2.743,0,0,1,.961,2.164v3.742A3.832,3.832,0,0,0-3.367-.133V0ZM-7.648-1.719a1.469,1.469,0,0,0,.816-.211,1.322,1.322,0,0,0,.465-.477V-3.758h-.766q-1.375,0-1.375,1.234a.754.754,0,0,0,.242.582A.876.876,0,0,0-7.648-1.719ZM5.578-4.156a5.152,5.152,0,0,1-.859,3.2A2.878,2.878,0,0,1,2.3.156,2.5,2.5,0,0,1,.219-.867L.109,0H-2.25V-12H.383v4.227a2.41,2.41,0,0,1,1.9-.836A2.879,2.879,0,0,1,4.719-7.477a5.179,5.179,0,0,1,.859,3.188ZM2.938-4.32a3.447,3.447,0,0,0-.324-1.738,1.092,1.092,0,0,0-1-.52A1.26,1.26,0,0,0,.383-5.9v3.359a1.267,1.267,0,0,0,1.25.672,1.118,1.118,0,0,0,1.18-.906A6.518,6.518,0,0,0,2.938-4.32ZM9.516,0H6.875V-8.453H9.516Zm-2.8-10.633a1.175,1.175,0,0,1,.406-.922,1.533,1.533,0,0,1,1.055-.359,1.533,1.533,0,0,1,1.055.359,1.175,1.175,0,0,1,.406.922,1.175,1.175,0,0,1-.406.922,1.533,1.533,0,0,1-1.055.359,1.533,1.533,0,0,1-1.055-.359A1.175,1.175,0,0,1,6.719-10.633ZM13.914,0H11.273V-12h2.641Zm4.4,0H15.672V-8.453h2.641Zm-2.8-10.633a1.175,1.175,0,0,1,.406-.922,1.533,1.533,0,0,1,1.055-.359,1.533,1.533,0,0,1,1.055.359,1.175,1.175,0,0,1,.406.922,1.175,1.175,0,0,1-.406.922,1.533,1.533,0,0,1-1.055.359,1.533,1.533,0,0,1-1.055-.359A1.175,1.175,0,0,1,15.516-10.633ZM19.6-4.289a5.164,5.164,0,0,1,.867-3.164,2.854,2.854,0,0,1,2.422-1.156,2.428,2.428,0,0,1,1.906.891V-12h2.641V0H25.07l-.133-.906A2.493,2.493,0,0,1,22.875.156,2.849,2.849,0,0,1,20.484-1,5.327,5.327,0,0,1,19.6-4.289Zm2.633.164q0,2.25,1.313,2.25a1.3,1.3,0,0,0,1.25-.734V-5.828a1.261,1.261,0,0,0-1.234-.75q-1.219,0-1.32,1.969ZM33.7,0a2.973,2.973,0,0,1-.25-.758,2.448,2.448,0,0,1-2.031.914,3,3,0,0,1-2.031-.723,2.3,2.3,0,0,1-.836-1.816,2.364,2.364,0,0,1,1.016-2.078,5.174,5.174,0,0,1,2.953-.7h.813v-.445q0-1.164-1.008-1.164a.822.822,0,0,0-.937.922H28.75a2.364,2.364,0,0,1,1.043-1.992,4.379,4.379,0,0,1,2.66-.766,3.843,3.843,0,0,1,2.555.789,2.743,2.743,0,0,1,.961,2.164v3.742a3.832,3.832,0,0,0,.359,1.781V0ZM32.047-1.719a1.469,1.469,0,0,0,.816-.211,1.322,1.322,0,0,0,.465-.477V-3.758h-.766q-1.375,0-1.375,1.234a.754.754,0,0,0,.242.582A.876.876,0,0,0,32.047-1.719Zm5.047-2.57a5.164,5.164,0,0,1,.867-3.164,2.854,2.854,0,0,1,2.422-1.156,2.428,2.428,0,0,1,1.906.891V-12H44.93V0H42.563L42.43-.906A2.493,2.493,0,0,1,40.367.156,2.849,2.849,0,0,1,37.977-1,5.327,5.327,0,0,1,37.094-4.289Zm2.633.164q0,2.25,1.313,2.25a1.3,1.3,0,0,0,1.25-.734V-5.828a1.261,1.261,0,0,0-1.234-.75q-1.219,0-1.32,1.969Z" transform="translate(-1246 -9184)" fill="#12263f"/>
      <path id="Trazado_272540" data-name="Trazado 272540" d="M-3.781-5.562l.7-5.812H3.563v2.047H-.945L-1.2-7.07a3.114,3.114,0,0,1,.738-.289A3.382,3.382,0,0,1,.43-7.484a3.337,3.337,0,0,1,2.605,1,4.044,4.044,0,0,1,.91,2.816,4.037,4.037,0,0,1-.488,1.98A3.356,3.356,0,0,1,2.086-.32,4.329,4.329,0,0,1,0,.156,4.654,4.654,0,0,1-2.008-.285,3.6,3.6,0,0,1-3.477-1.5,2.944,2.944,0,0,1-4-3.234h2.641a1.5,1.5,0,0,0,.4.992,1.263,1.263,0,0,0,.945.367q1.328,0,1.328-1.969,0-1.82-1.625-1.82a1.62,1.62,0,0,0-1.375.594Z" transform="translate(-1246 -9147)" fill="#12263f"/>
      <path id="Trazado_272541" data-name="Trazado 272541" d="M3.016-4.445H4.172v2.031H3.016V0H.383V-2.414h-4.4l-.156-1.609L.383-11.352v-.023H3.016Zm-4.68,0H.383v-3.5L.219-7.68Z" transform="translate(-1246 -9114)" fill="#12263f"/>
      <path id="Trazado_272542" data-name="Trazado 272542" d="M-1.531-6.789H-.289A1.291,1.291,0,0,0,1.188-8.234a1.25,1.25,0,0,0-.352-.918,1.333,1.333,0,0,0-.992-.355,1.427,1.427,0,0,0-.91.3.93.93,0,0,0-.387.758H-4.086a2.7,2.7,0,0,1,.5-1.6,3.3,3.3,0,0,1,1.387-1.1A4.741,4.741,0,0,1-.25-11.539a4.658,4.658,0,0,1,2.984.867A2.883,2.883,0,0,1,3.82-8.289,2.4,2.4,0,0,1,3.371-6.9,3.2,3.2,0,0,1,2.063-5.844a3.058,3.058,0,0,1,1.422,1A2.623,2.623,0,0,1,4-3.2,2.935,2.935,0,0,1,2.828-.758,4.864,4.864,0,0,1-.25.156,5.045,5.045,0,0,1-2.324-.27a3.25,3.25,0,0,1-1.449-1.18,3.067,3.067,0,0,1-.492-1.715h2.648a1.185,1.185,0,0,0,.422.906,1.489,1.489,0,0,0,1.039.383A1.56,1.56,0,0,0,.953-2.262a1.293,1.293,0,0,0,.414-.988,1.511,1.511,0,0,0-.43-1.219A1.8,1.8,0,0,0-.25-4.828H-1.531Z" transform="translate(-1246 -9081)" fill="#12263f"/>
      <path id="Trazado_272543" data-name="Trazado 272543" d="M4,0H-3.937V-1.719L-.281-5.562A4.364,4.364,0,0,0,1.07-8.008,1.7,1.7,0,0,0,.75-9.125a1.144,1.144,0,0,0-.93-.383A1.158,1.158,0,0,0-1.156-9a2.1,2.1,0,0,0-.375,1.277H-4.172a3.736,3.736,0,0,1,.523-1.934A3.671,3.671,0,0,1-2.2-11.039a4.317,4.317,0,0,1,2.078-.5,4.246,4.246,0,0,1,2.84.852,3.04,3.04,0,0,1,1,2.445,3.551,3.551,0,0,1-.25,1.309A5.739,5.739,0,0,1,2.691-5.6a19.581,19.581,0,0,1-1.7,1.871l-1.469,1.7H4Z" transform="translate(-1246 -9048)" fill="#12263f"/>
      <path id="Trazado_272544" data-name="Trazado 272544" d="M1.9,0H-.742V-8.406l-2.594.758v-2l4.992-1.727H1.9Z" transform="translate(-1246 -9015)" fill="#12263f"/>
      <path id="Trazado_272545" data-name="Trazado 272545" d="M1.9,0H-.742V-8.406l-2.594.758v-2l4.992-1.727H1.9Z" transform="translate(-1101 -8983)" fill="#12263f"/>
      <path id="Trazado_272546" data-name="Trazado 272546" d="M4,0H-3.937V-1.719L-.281-5.562A4.364,4.364,0,0,0,1.07-8.008,1.7,1.7,0,0,0,.75-9.125a1.144,1.144,0,0,0-.93-.383A1.158,1.158,0,0,0-1.156-9a2.1,2.1,0,0,0-.375,1.277H-4.172a3.736,3.736,0,0,1,.523-1.934A3.671,3.671,0,0,1-2.2-11.039a4.317,4.317,0,0,1,2.078-.5,4.246,4.246,0,0,1,2.84.852,3.04,3.04,0,0,1,1,2.445,3.551,3.551,0,0,1-.25,1.309A5.739,5.739,0,0,1,2.691-5.6a19.581,19.581,0,0,1-1.7,1.871l-1.469,1.7H4Z" transform="translate(-948 -8983)" fill="#12263f"/>
      <path id="Trazado_272550" data-name="Trazado 272550" d="M-2.734,0H-5.375V-8.406l-2.594.758v-2l4.992-1.727h.242ZM8.594-4.648A5.431,5.431,0,0,1,7.559-1.094,3.577,3.577,0,0,1,4.641.156,3.6,3.6,0,0,1,1.7-1.1,5.423,5.423,0,0,1,.664-4.648V-6.727A5.431,5.431,0,0,1,1.7-10.281a3.586,3.586,0,0,1,2.926-1.25,3.587,3.587,0,0,1,2.93,1.258A5.436,5.436,0,0,1,8.594-6.719ZM5.961-7.062a4.057,4.057,0,0,0-.32-1.832A1.071,1.071,0,0,0,4.625-9.5a1.045,1.045,0,0,0-.988.563,3.822,3.822,0,0,0-.332,1.7v2.906a4.088,4.088,0,0,0,.32,1.863,1.075,1.075,0,0,0,1.016.59,1.06,1.06,0,0,0,.992-.574,3.9,3.9,0,0,0,.328-1.8Z" transform="translate(-948 -9146)" fill="#12263f"/>
      <path id="Trazado_272554" data-name="Trazado 272554" d="M-2.734,0H-5.375V-8.406l-2.594.758v-2l4.992-1.727h.242ZM.852-5.562l.7-5.812H8.2v2.047H3.688L3.43-7.07a3.114,3.114,0,0,1,.738-.289,3.382,3.382,0,0,1,.895-.125,3.337,3.337,0,0,1,2.605,1,4.044,4.044,0,0,1,.91,2.816,4.037,4.037,0,0,1-.488,1.98A3.356,3.356,0,0,1,6.719-.32,4.329,4.329,0,0,1,4.633.156,4.654,4.654,0,0,1,2.625-.285,3.6,3.6,0,0,1,1.156-1.5,2.944,2.944,0,0,1,.633-3.234H3.273a1.5,1.5,0,0,0,.4.992,1.263,1.263,0,0,0,.945.367q1.328,0,1.328-1.969,0-1.82-1.625-1.82a1.62,1.62,0,0,0-1.375.594Z" transform="translate(-801 -9146)" fill="#12263f"/>
      <path id="Trazado_272558" data-name="Trazado 272558" d="M-.633,0H-8.57V-1.719l3.656-3.844A4.364,4.364,0,0,0-3.562-8.008a1.7,1.7,0,0,0-.32-1.117,1.144,1.144,0,0,0-.93-.383A1.158,1.158,0,0,0-5.789-9a2.1,2.1,0,0,0-.375,1.277H-8.8a3.736,3.736,0,0,1,.523-1.934,3.671,3.671,0,0,1,1.453-1.387,4.317,4.317,0,0,1,2.078-.5,4.246,4.246,0,0,1,2.84.852,3.04,3.04,0,0,1,1,2.445,3.551,3.551,0,0,1-.25,1.309A5.739,5.739,0,0,1-1.941-5.6a19.581,19.581,0,0,1-1.7,1.871l-1.469,1.7H-.633ZM8.594-4.648A5.431,5.431,0,0,1,7.559-1.094,3.577,3.577,0,0,1,4.641.156,3.6,3.6,0,0,1,1.7-1.1,5.423,5.423,0,0,1,.664-4.648V-6.727A5.431,5.431,0,0,1,1.7-10.281a3.586,3.586,0,0,1,2.926-1.25,3.587,3.587,0,0,1,2.93,1.258A5.436,5.436,0,0,1,8.594-6.719ZM5.961-7.062a4.057,4.057,0,0,0-.32-1.832A1.071,1.071,0,0,0,4.625-9.5a1.045,1.045,0,0,0-.988.563,3.822,3.822,0,0,0-.332,1.7v2.906a4.088,4.088,0,0,0,.32,1.863,1.075,1.075,0,0,0,1.016.59,1.06,1.06,0,0,0,.992-.574,3.9,3.9,0,0,0,.328-1.8Z" transform="translate(-660 -9146)" fill="#12263f"/>
      <path id="Trazado_272562" data-name="Trazado 272562" d="M-.633,0H-8.57V-1.719l3.656-3.844A4.364,4.364,0,0,0-3.562-8.008a1.7,1.7,0,0,0-.32-1.117,1.144,1.144,0,0,0-.93-.383A1.158,1.158,0,0,0-5.789-9a2.1,2.1,0,0,0-.375,1.277H-8.8a3.736,3.736,0,0,1,.523-1.934,3.671,3.671,0,0,1,1.453-1.387,4.317,4.317,0,0,1,2.078-.5,4.246,4.246,0,0,1,2.84.852,3.04,3.04,0,0,1,1,2.445,3.551,3.551,0,0,1-.25,1.309A5.739,5.739,0,0,1-1.941-5.6a19.581,19.581,0,0,1-1.7,1.871l-1.469,1.7H-.633ZM.852-5.562l.7-5.812H8.2v2.047H3.688L3.43-7.07a3.114,3.114,0,0,1,.738-.289,3.382,3.382,0,0,1,.895-.125,3.337,3.337,0,0,1,2.605,1,4.044,4.044,0,0,1,.91,2.816,4.037,4.037,0,0,1-.488,1.98A3.356,3.356,0,0,1,6.719-.32,4.329,4.329,0,0,1,4.633.156,4.654,4.654,0,0,1,2.625-.285,3.6,3.6,0,0,1,1.156-1.5,2.944,2.944,0,0,1,.633-3.234H3.273a1.5,1.5,0,0,0,.4.992,1.263,1.263,0,0,0,.945.367q1.328,0,1.328-1.969,0-1.82-1.625-1.82a1.62,1.62,0,0,0-1.375.594Z" transform="translate(-507 -9146)" fill="#12263f"/>
      <path id="Trazado_272551" data-name="Trazado 272551" d="M3.734-8.336a2.626,2.626,0,0,1-.41,1.461A2.987,2.987,0,0,1,2.2-5.859,3.287,3.287,0,0,1,3.484-4.77a2.812,2.812,0,0,1,.477,1.637A2.977,2.977,0,0,1,2.91-.727,4.364,4.364,0,0,1,.016.156,4.443,4.443,0,0,1-2.906-.73a2.956,2.956,0,0,1-1.07-2.4A2.848,2.848,0,0,1-3.508-4.75,3.187,3.187,0,0,1-2.18-5.859,3,3,0,0,1-3.32-6.875a2.608,2.608,0,0,1-.414-1.461A2.919,2.919,0,0,1-2.727-10.68a4.051,4.051,0,0,1,2.719-.859,4.076,4.076,0,0,1,2.734.859A2.919,2.919,0,0,1,3.734-8.336ZM1.32-3.344A1.5,1.5,0,0,0,.957-4.426,1.265,1.265,0,0,0,0-4.8a1.278,1.278,0,0,0-.961.379,1.492,1.492,0,0,0-.367,1.082A1.5,1.5,0,0,0-.957-2.27a1.274,1.274,0,0,0,.973.395,1.224,1.224,0,0,0,.945-.391A1.532,1.532,0,0,0,1.32-3.344ZM-.008-9.508a.973.973,0,0,0-.809.348,1.509,1.509,0,0,0-.277.965,1.6,1.6,0,0,0,.281.984.97.97,0,0,0,.828.375.931.931,0,0,0,.809-.375,1.65,1.65,0,0,0,.27-.984,1.512,1.512,0,0,0-.277-.961A.986.986,0,0,0-.008-9.508Z" transform="translate(-948 -9113)" fill="#12263f"/>
      <path id="Trazado_272555" data-name="Trazado 272555" d="M-2.734,0H-5.375V-8.406l-2.594.758v-2l4.992-1.727h.242ZM8.633,0H.7V-1.719L4.352-5.562A4.364,4.364,0,0,0,5.7-8.008a1.7,1.7,0,0,0-.32-1.117,1.144,1.144,0,0,0-.93-.383A1.158,1.158,0,0,0,3.477-9,2.1,2.1,0,0,0,3.1-7.719H.461A3.736,3.736,0,0,1,.984-9.652a3.671,3.671,0,0,1,1.453-1.387,4.317,4.317,0,0,1,2.078-.5,4.246,4.246,0,0,1,2.84.852,3.04,3.04,0,0,1,1,2.445A3.551,3.551,0,0,1,8.1-6.934,5.739,5.739,0,0,1,7.324-5.6a19.581,19.581,0,0,1-1.7,1.871l-1.469,1.7H8.633Z" transform="translate(-801 -9113)" fill="#12263f"/>
      <path id="Trazado_272559" data-name="Trazado 272559" d="M-2.734,0H-5.375V-8.406l-2.594.758v-2l4.992-1.727h.242ZM7.055-11.539v2.07H6.938a3.953,3.953,0,0,0-2.426.707A2.985,2.985,0,0,0,3.344-6.8a3.079,3.079,0,0,1,2.25-.875A2.872,2.872,0,0,1,7.945-6.594,4.348,4.348,0,0,1,8.82-3.766a3.982,3.982,0,0,1-.512,1.992A3.651,3.651,0,0,1,6.879-.355,4.108,4.108,0,0,1,4.844.156,4.246,4.246,0,0,1,2.68-.395,3.787,3.787,0,0,1,1.2-1.969,5.184,5.184,0,0,1,.648-4.328V-5.383A6.567,6.567,0,0,1,1.4-8.543a5.466,5.466,0,0,1,2.152-2.2,6.154,6.154,0,0,1,3.1-.8ZM4.68-5.656a1.506,1.506,0,0,0-.875.242,1.538,1.538,0,0,0-.523.594v.789q0,2.156,1.492,2.156a1.211,1.211,0,0,0,1-.539,2.2,2.2,0,0,0,.4-1.352,2.156,2.156,0,0,0-.41-1.363A1.312,1.312,0,0,0,4.68-5.656Z" transform="translate(-660 -9113)" fill="#12263f"/>
      <path id="Trazado_272563" data-name="Trazado 272563" d="M-.633,0H-8.57V-1.719l3.656-3.844A4.364,4.364,0,0,0-3.562-8.008a1.7,1.7,0,0,0-.32-1.117,1.144,1.144,0,0,0-.93-.383A1.158,1.158,0,0,0-5.789-9a2.1,2.1,0,0,0-.375,1.277H-8.8a3.736,3.736,0,0,1,.523-1.934,3.671,3.671,0,0,1,1.453-1.387,4.317,4.317,0,0,1,2.078-.5,4.246,4.246,0,0,1,2.84.852,3.04,3.04,0,0,1,1,2.445,3.551,3.551,0,0,1-.25,1.309A5.739,5.739,0,0,1-1.941-5.6a19.581,19.581,0,0,1-1.7,1.871l-1.469,1.7H-.633ZM8.594-4.648A5.431,5.431,0,0,1,7.559-1.094,3.577,3.577,0,0,1,4.641.156,3.6,3.6,0,0,1,1.7-1.1,5.423,5.423,0,0,1,.664-4.648V-6.727A5.431,5.431,0,0,1,1.7-10.281a3.586,3.586,0,0,1,2.926-1.25,3.587,3.587,0,0,1,2.93,1.258A5.436,5.436,0,0,1,8.594-6.719ZM5.961-7.062a4.057,4.057,0,0,0-.32-1.832A1.071,1.071,0,0,0,4.625-9.5a1.045,1.045,0,0,0-.988.563,3.822,3.822,0,0,0-.332,1.7v2.906a4.088,4.088,0,0,0,.32,1.863,1.075,1.075,0,0,0,1.016.59,1.06,1.06,0,0,0,.992-.574,3.9,3.9,0,0,0,.328-1.8Z" transform="translate(-507 -9113)" fill="#12263f"/>
      <path id="Trazado_272552" data-name="Trazado 272552" d="M2.422-11.539v2.07H2.3a3.953,3.953,0,0,0-2.426.707A2.985,2.985,0,0,0-1.289-6.8a3.079,3.079,0,0,1,2.25-.875A2.872,2.872,0,0,1,3.313-6.594a4.348,4.348,0,0,1,.875,2.828,3.982,3.982,0,0,1-.512,1.992A3.651,3.651,0,0,1,2.246-.355,4.108,4.108,0,0,1,.211.156,4.246,4.246,0,0,1-1.953-.395,3.787,3.787,0,0,1-3.437-1.969a5.184,5.184,0,0,1-.547-2.359V-5.383a6.567,6.567,0,0,1,.754-3.16,5.466,5.466,0,0,1,2.152-2.2,6.154,6.154,0,0,1,3.1-.8ZM.047-5.656a1.506,1.506,0,0,0-.875.242,1.538,1.538,0,0,0-.523.594v.789q0,2.156,1.492,2.156a1.211,1.211,0,0,0,1-.539,2.2,2.2,0,0,0,.4-1.352,2.156,2.156,0,0,0-.41-1.363A1.312,1.312,0,0,0,.047-5.656Z" transform="translate(-948 -9080)" fill="#12263f"/>
      <path id="Trazado_272556" data-name="Trazado 272556" d="M1.25-4.4a2.781,2.781,0,0,1-1.906.766A3.078,3.078,0,0,1-3.109-4.68a4.124,4.124,0,0,1-.906-2.8,4.2,4.2,0,0,1,.508-2.031,3.81,3.81,0,0,1,1.426-1.484,3.887,3.887,0,0,1,2.027-.547,3.774,3.774,0,0,1,2.035.566A3.814,3.814,0,0,1,3.4-9.371a5.5,5.5,0,0,1,.523,2.387v1.008a6.838,6.838,0,0,1-.738,3.266A5.1,5.1,0,0,1,1.078-.586,6.579,6.579,0,0,1-2.109.156h-.164V-1.953l.5-.008Q.945-2.094,1.25-4.4ZM.055-5.531a1.282,1.282,0,0,0,1.234-.742V-7.367A2.844,2.844,0,0,0,.922-8.984,1.152,1.152,0,0,0-.07-9.508,1.088,1.088,0,0,0-1-8.914a2.638,2.638,0,0,0-.375,1.438A2.365,2.365,0,0,0-.992-6.059,1.224,1.224,0,0,0,.055-5.531Z" transform="translate(-801 -9080)" fill="#12263f"/>
      <path id="Trazado_272560" data-name="Trazado 272560" d="M-2.734,0H-5.375V-8.406l-2.594.758v-2l4.992-1.727h.242ZM8.633,0H.7V-1.719L4.352-5.562A4.364,4.364,0,0,0,5.7-8.008a1.7,1.7,0,0,0-.32-1.117,1.144,1.144,0,0,0-.93-.383A1.158,1.158,0,0,0,3.477-9,2.1,2.1,0,0,0,3.1-7.719H.461A3.736,3.736,0,0,1,.984-9.652a3.671,3.671,0,0,1,1.453-1.387,4.317,4.317,0,0,1,2.078-.5,4.246,4.246,0,0,1,2.84.852,3.04,3.04,0,0,1,1,2.445A3.551,3.551,0,0,1,8.1-6.934,5.739,5.739,0,0,1,7.324-5.6a19.581,19.581,0,0,1-1.7,1.871l-1.469,1.7H8.633Z" transform="translate(-660 -9080)" fill="#12263f"/>
      <path id="Trazado_272564" data-name="Trazado 272564" d="M-2.734,0H-5.375V-8.406l-2.594.758v-2l4.992-1.727h.242ZM.852-5.562l.7-5.812H8.2v2.047H3.688L3.43-7.07a3.114,3.114,0,0,1,.738-.289,3.382,3.382,0,0,1,.895-.125,3.337,3.337,0,0,1,2.605,1,4.044,4.044,0,0,1,.91,2.816,4.037,4.037,0,0,1-.488,1.98A3.356,3.356,0,0,1,6.719-.32,4.329,4.329,0,0,1,4.633.156,4.654,4.654,0,0,1,2.625-.285,3.6,3.6,0,0,1,1.156-1.5,2.944,2.944,0,0,1,.633-3.234H3.273a1.5,1.5,0,0,0,.4.992,1.263,1.263,0,0,0,.945.367q1.328,0,1.328-1.969,0-1.82-1.625-1.82a1.62,1.62,0,0,0-1.375.594Z" transform="translate(-507 -9080)" fill="#12263f"/>
      <path id="Trazado_272553" data-name="Trazado 272553" d="M3.016-4.445H4.172v2.031H3.016V0H.383V-2.414h-4.4l-.156-1.609L.383-11.352v-.023H3.016Zm-4.68,0H.383v-3.5L.219-7.68Z" transform="translate(-948 -9047)" fill="#12263f"/>
      <path id="Trazado_272557" data-name="Trazado 272557" d="M2.422-11.539v2.07H2.3a3.953,3.953,0,0,0-2.426.707A2.985,2.985,0,0,0-1.289-6.8a3.079,3.079,0,0,1,2.25-.875A2.872,2.872,0,0,1,3.313-6.594a4.348,4.348,0,0,1,.875,2.828,3.982,3.982,0,0,1-.512,1.992A3.651,3.651,0,0,1,2.246-.355,4.108,4.108,0,0,1,.211.156,4.246,4.246,0,0,1-1.953-.395,3.787,3.787,0,0,1-3.437-1.969a5.184,5.184,0,0,1-.547-2.359V-5.383a6.567,6.567,0,0,1,.754-3.16,5.466,5.466,0,0,1,2.152-2.2,6.154,6.154,0,0,1,3.1-.8ZM.047-5.656a1.506,1.506,0,0,0-.875.242,1.538,1.538,0,0,0-.523.594v.789q0,2.156,1.492,2.156a1.211,1.211,0,0,0,1-.539,2.2,2.2,0,0,0,.4-1.352,2.156,2.156,0,0,0-.41-1.363A1.312,1.312,0,0,0,.047-5.656Z" transform="translate(-801 -9047)" fill="#12263f"/>
      <path id="Trazado_272561" data-name="Trazado 272561" d="M3.734-8.336a2.626,2.626,0,0,1-.41,1.461A2.987,2.987,0,0,1,2.2-5.859,3.287,3.287,0,0,1,3.484-4.77a2.812,2.812,0,0,1,.477,1.637A2.977,2.977,0,0,1,2.91-.727,4.364,4.364,0,0,1,.016.156,4.443,4.443,0,0,1-2.906-.73a2.956,2.956,0,0,1-1.07-2.4A2.848,2.848,0,0,1-3.508-4.75,3.187,3.187,0,0,1-2.18-5.859,3,3,0,0,1-3.32-6.875a2.608,2.608,0,0,1-.414-1.461A2.919,2.919,0,0,1-2.727-10.68a4.051,4.051,0,0,1,2.719-.859,4.076,4.076,0,0,1,2.734.859A2.919,2.919,0,0,1,3.734-8.336ZM1.32-3.344A1.5,1.5,0,0,0,.957-4.426,1.265,1.265,0,0,0,0-4.8a1.278,1.278,0,0,0-.961.379,1.492,1.492,0,0,0-.367,1.082A1.5,1.5,0,0,0-.957-2.27a1.274,1.274,0,0,0,.973.395,1.224,1.224,0,0,0,.945-.391A1.532,1.532,0,0,0,1.32-3.344ZM-.008-9.508a.973.973,0,0,0-.809.348,1.509,1.509,0,0,0-.277.965,1.6,1.6,0,0,0,.281.984.97.97,0,0,0,.828.375.931.931,0,0,0,.809-.375,1.65,1.65,0,0,0,.27-.984,1.512,1.512,0,0,0-.277-.961A.986.986,0,0,0-.008-9.508Z" transform="translate(-660 -9047)" fill="#12263f"/>
      <path id="Trazado_272565" data-name="Trazado 272565" d="M-2.734,0H-5.375V-8.406l-2.594.758v-2l4.992-1.727h.242ZM8.594-4.648A5.431,5.431,0,0,1,7.559-1.094,3.577,3.577,0,0,1,4.641.156,3.6,3.6,0,0,1,1.7-1.1,5.423,5.423,0,0,1,.664-4.648V-6.727A5.431,5.431,0,0,1,1.7-10.281a3.586,3.586,0,0,1,2.926-1.25,3.587,3.587,0,0,1,2.93,1.258A5.436,5.436,0,0,1,8.594-6.719ZM5.961-7.062a4.057,4.057,0,0,0-.32-1.832A1.071,1.071,0,0,0,4.625-9.5a1.045,1.045,0,0,0-.988.563,3.822,3.822,0,0,0-.332,1.7v2.906a4.088,4.088,0,0,0,.32,1.863,1.075,1.075,0,0,0,1.016.59,1.06,1.06,0,0,0,.992-.574,3.9,3.9,0,0,0,.328-1.8Z" transform="translate(-507 -9047)" fill="#12263f"/>
      <path id="Trazado_272547" data-name="Trazado 272547" d="M-1.531-6.789H-.289A1.291,1.291,0,0,0,1.188-8.234a1.25,1.25,0,0,0-.352-.918,1.333,1.333,0,0,0-.992-.355,1.427,1.427,0,0,0-.91.3.93.93,0,0,0-.387.758H-4.086a2.7,2.7,0,0,1,.5-1.6,3.3,3.3,0,0,1,1.387-1.1A4.741,4.741,0,0,1-.25-11.539a4.658,4.658,0,0,1,2.984.867A2.883,2.883,0,0,1,3.82-8.289,2.4,2.4,0,0,1,3.371-6.9,3.2,3.2,0,0,1,2.063-5.844a3.058,3.058,0,0,1,1.422,1A2.623,2.623,0,0,1,4-3.2,2.935,2.935,0,0,1,2.828-.758,4.864,4.864,0,0,1-.25.156,5.045,5.045,0,0,1-2.324-.27a3.25,3.25,0,0,1-1.449-1.18,3.067,3.067,0,0,1-.492-1.715h2.648a1.185,1.185,0,0,0,.422.906,1.489,1.489,0,0,0,1.039.383A1.56,1.56,0,0,0,.953-2.262a1.293,1.293,0,0,0,.414-.988,1.511,1.511,0,0,0-.43-1.219A1.8,1.8,0,0,0-.25-4.828H-1.531Z" transform="translate(-801 -8983)" fill="#12263f"/>
      <path id="Trazado_272548" data-name="Trazado 272548" d="M3.016-4.445H4.172v2.031H3.016V0H.383V-2.414h-4.4l-.156-1.609L.383-11.352v-.023H3.016Zm-4.68,0H.383v-3.5L.219-7.68Z" transform="translate(-660 -8983)" fill="#12263f"/>
      <path id="Trazado_272549" data-name="Trazado 272549" d="M-3.781-5.562l.7-5.812H3.563v2.047H-.945L-1.2-7.07a3.114,3.114,0,0,1,.738-.289A3.382,3.382,0,0,1,.43-7.484a3.337,3.337,0,0,1,2.605,1,4.044,4.044,0,0,1,.91,2.816,4.037,4.037,0,0,1-.488,1.98A3.356,3.356,0,0,1,2.086-.32,4.329,4.329,0,0,1,0,.156,4.654,4.654,0,0,1-2.008-.285,3.6,3.6,0,0,1-3.477-1.5,2.944,2.944,0,0,1-4-3.234h2.641a1.5,1.5,0,0,0,.4.992,1.263,1.263,0,0,0,.945.367q1.328,0,1.328-1.969,0-1.82-1.625-1.82a1.62,1.62,0,0,0-1.375.594Z" transform="translate(-507 -8983)" fill="#12263f"/>
      <path id="Trazado_272537" data-name="Trazado 272537" d="M-25.551,0h-2.734V-11.375h2.734Zm4.273-8.453.086.992a2.906,2.906,0,0,1,2.414-1.148,2.14,2.14,0,0,1,2.164,1.273,2.813,2.813,0,0,1,2.484-1.273q2.57,0,2.641,3.109V0h-2.641V-5.336a1.611,1.611,0,0,0-.219-.945.931.931,0,0,0-.8-.3,1.247,1.247,0,0,0-1.164.7l.008.109V0h-2.641V-5.32a1.694,1.694,0,0,0-.211-.961.929.929,0,0,0-.8-.3,1.263,1.263,0,0,0-1.156.7V0h-2.633V-8.453ZM-2.137-4.164A5.1,5.1,0,0,1-3.023-1.02,2.843,2.843,0,0,1-5.418.156,2.437,2.437,0,0,1-7.332-.7V3.25H-9.965v-11.7H-7.5l.078.781a2.437,2.437,0,0,1,1.992-.937A2.866,2.866,0,0,1-3-7.457a5.16,5.16,0,0,1,.867,3.168ZM-4.77-4.328q0-2.25-1.312-2.25a1.239,1.239,0,0,0-1.25.672v3.328a1.279,1.279,0,0,0,1.266.7q1.258,0,1.3-2.172ZM3.785,0a2.973,2.973,0,0,1-.25-.758A2.448,2.448,0,0,1,1.5.156,3,3,0,0,1-.527-.566a2.3,2.3,0,0,1-.836-1.816A2.364,2.364,0,0,1-.348-4.461a5.174,5.174,0,0,1,2.953-.7h.813v-.445q0-1.164-1.008-1.164a.822.822,0,0,0-.937.922H-1.16A2.364,2.364,0,0,1-.117-7.844a4.379,4.379,0,0,1,2.66-.766A3.843,3.843,0,0,1,5.1-7.82a2.743,2.743,0,0,1,.961,2.164v3.742A3.832,3.832,0,0,0,6.418-.133V0ZM2.137-1.719a1.469,1.469,0,0,0,.816-.211,1.322,1.322,0,0,0,.465-.477V-3.758H2.652q-1.375,0-1.375,1.234a.754.754,0,0,0,.242.582A.876.876,0,0,0,2.137-1.719Zm8.953-.156a1.171,1.171,0,0,0,.859-.3,1.1,1.1,0,0,0,.3-.84h2.469a2.922,2.922,0,0,1-1,2.281,3.705,3.705,0,0,1-2.566.891A3.751,3.751,0,0,1,8.246-1,4.556,4.556,0,0,1,7.184-4.2v-.109a5.149,5.149,0,0,1,.473-2.262A3.441,3.441,0,0,1,9.02-8.082a4.065,4.065,0,0,1,2.109-.527,3.658,3.658,0,0,1,2.617.914,3.242,3.242,0,0,1,.969,2.477H12.246a1.445,1.445,0,0,0-.32-1.008,1.106,1.106,0,0,0-.859-.352q-1.023,0-1.2,1.3a9.206,9.206,0,0,0-.055,1.141,3.616,3.616,0,0,0,.3,1.766A1.055,1.055,0,0,0,11.09-1.875Zm7.8-8.68v2.1h1.391v1.828H18.895v3.867a.987.987,0,0,0,.172.664.922.922,0,0,0,.68.188,3.862,3.862,0,0,0,.656-.047V-.07a4.859,4.859,0,0,1-1.484.227A2.758,2.758,0,0,1,16.91-.484a2.626,2.626,0,0,1-.648-1.945v-4.2H15.184V-8.453h1.078v-2.1ZM20.754-4.3a4.989,4.989,0,0,1,.492-2.254,3.52,3.52,0,0,1,1.414-1.52,4.259,4.259,0,0,1,2.164-.531,3.887,3.887,0,0,1,2.992,1.176,4.512,4.512,0,0,1,1.094,3.2v.094A4.378,4.378,0,0,1,27.813-1,3.9,3.9,0,0,1,24.84.156a3.942,3.942,0,0,1-2.9-1.082,4.232,4.232,0,0,1-1.18-2.934Zm2.633.164a3.145,3.145,0,0,0,.367,1.719,1.223,1.223,0,0,0,1.086.547q1.406,0,1.438-2.164V-4.3q0-2.273-1.453-2.273-1.32,0-1.43,1.961Z" transform="translate(-363 -8984)" fill="#12263f"/>
      <g id="Grupo_883455" data-name="Grupo 883455">
        <g id="Elipse_5007" data-name="Elipse 5007" transform="translate(-764 -9162)" fill="#fff" stroke="#005ca8" stroke-width="1">
          <circle cx="10" cy="10" r="10" stroke="none"/>
          <circle cx="10" cy="10" r="9.5" fill="none"/>
        </g>
        <path id="Trazado_272538" data-name="Trazado 272538" d="M-3.574-3.012H-4.687V0H-6.744V-8.531h3.357a3.744,3.744,0,0,1,2.373.674,2.284,2.284,0,0,1,.855,1.9,2.775,2.775,0,0,1-.36,1.477,2.558,2.558,0,0,1-1.128.949L.135-.088V0h-2.2ZM-4.687-4.6h1.3A1.169,1.169,0,0,0-2.5-4.907a1.187,1.187,0,0,0,.3-.858,1.2,1.2,0,0,0-.3-.864,1.158,1.158,0,0,0-.879-.313h-1.3ZM6.914,0H.961V-1.289L3.7-4.172A3.273,3.273,0,0,0,4.717-6.006a1.276,1.276,0,0,0-.24-.838.858.858,0,0,0-.7-.287.868.868,0,0,0-.732.384,1.577,1.577,0,0,0-.281.958H.785a2.8,2.8,0,0,1,.393-1.45,2.753,2.753,0,0,1,1.09-1.04,3.237,3.237,0,0,1,1.559-.375,3.185,3.185,0,0,1,2.13.639A2.28,2.28,0,0,1,6.7-6.182a2.663,2.663,0,0,1-.187.981,4.3,4.3,0,0,1-.583,1,14.686,14.686,0,0,1-1.274,1.4l-1.1,1.271H6.914Z" transform="translate(-754 -9148)" fill="#12263f"/>
      </g>
      <g id="Grupo_883456" data-name="Grupo 883456" transform="translate(145 33)">
        <g id="Elipse_5007-2" data-name="Elipse 5007" transform="translate(-764 -9162)" fill="#fff" stroke="#005ca8" stroke-width="1">
          <circle cx="10" cy="10" r="10" stroke="none"/>
          <circle cx="10" cy="10" r="9.5" fill="none"/>
        </g>
        <path id="Trazado_272539" data-name="Trazado 272539" d="M-3.574-3.012H-4.687V0H-6.744V-8.531h3.357a3.744,3.744,0,0,1,2.373.674,2.284,2.284,0,0,1,.855,1.9,2.775,2.775,0,0,1-.36,1.477,2.558,2.558,0,0,1-1.128.949L.135-.088V0h-2.2ZM-4.687-4.6h1.3A1.169,1.169,0,0,0-2.5-4.907a1.187,1.187,0,0,0,.3-.858,1.2,1.2,0,0,0-.3-.864,1.158,1.158,0,0,0-.879-.313h-1.3ZM5.338,0H3.357V-6.3l-1.945.568v-1.5L5.156-8.531h.182Z" transform="translate(-754 -9148)" fill="#12263f"/>
      </g>
    </g>
  </g>
</svg>
