<svg xmlns="http://www.w3.org/2000/svg" xmlns:xlink="http://www.w3.org/1999/xlink" width="69" height="69" viewBox="0 0 69 69">
  <defs>
    <clipPath id="clip-path">
      <rect id="Rectángulo_75118" data-name="Rectángulo 75118" width="69" height="69" transform="translate(766 3642)" fill="#fff" stroke="#707070" stroke-width="1"/>
    </clipPath>
  </defs>
  <g id="Enmascarar_grupo_88" data-name="Enmascarar grupo 88" transform="translate(-766 -3642)" clip-path="url(#clip-path)">
    <g id="autenticidad" transform="translate(766 3642)">
      <g id="Grupo_879052" data-name="Grupo 879052">
        <g id="Grupo_879051" data-name="Grupo 879051">
          <path id="Trazado_266847" data-name="Trazado 266847" d="M33.628,1.285C24.355,7.8,11.3,6.361,6.406,5.517A1.524,1.524,0,0,0,4.627,7.146L7.306,38.9A26.767,26.767,0,0,0,20.125,59.55l13.587,8.218a1.523,1.523,0,0,0,1.577,0L48.875,59.55A26.767,26.767,0,0,0,61.694,38.9L64.373,7.146a1.524,1.524,0,0,0-1.779-1.629C57.7,6.361,44.645,7.8,35.372,1.285a1.518,1.518,0,0,0-1.744,0Z" fill="#fddd45"/>
          <path id="Trazado_266848" data-name="Trazado 266848" d="M64.373,7.147,61.694,38.9A26.769,26.769,0,0,1,48.875,59.55L35.288,67.768a1.527,1.527,0,0,1-1.577,0l-3.954-2.392L34.5,62.732l11.934-7.218A22.112,22.112,0,0,0,56.994,38.5l2.345-27.79.294-4.775c1.167-.131,2.171-.283,2.962-.419a1.523,1.523,0,0,1,1.779,1.629Z" fill="#f8c52d"/>
          <path id="Trazado_266849" data-name="Trazado 266849" d="M22.566,55.514A22.114,22.114,0,0,1,12.006,38.5L9.661,10.711c1.636.161,3.506.274,5.521.274,7.6,0,14.089-1.564,19.318-4.654,5.229,3.09,11.715,4.654,19.318,4.654,2.015,0,3.884-.114,5.521-.274L56.994,38.5a22.115,22.115,0,0,1-10.56,17.013L34.5,62.732Z" fill="#31a7fb"/>
          <path id="Trazado_266850" data-name="Trazado 266850" d="M59.339,10.711,56.994,38.5a22.112,22.112,0,0,1-10.56,17.013L34.5,62.732,30.485,60.3,41.8,53.459A21.536,21.536,0,0,0,52.083,36.894l2.186-25.911C56.112,10.967,57.825,10.859,59.339,10.711Z" fill="#1c96f9"/>
          <path id="Trazado_266851" data-name="Trazado 266851" d="M34.5,62.732,22.566,55.514A22.114,22.114,0,0,1,12.006,38.5L9.661,10.711c1.636.161,3.506.274,5.521.274,7.6,0,14.089-1.564,19.318-4.654Z" fill="#1c96f9"/>
          <path id="Trazado_266852" data-name="Trazado 266852" d="M30.252,8.4V60.163l4.248,2.57V6.331A29.793,29.793,0,0,1,30.252,8.4Z" fill="#1785f8"/>
          <g id="Grupo_879050" data-name="Grupo 879050">
            <g id="Grupo_879049" data-name="Grupo 879049">
              <g id="Grupo_879048" data-name="Grupo 879048">
                <path id="Trazado_266853" data-name="Trazado 266853" d="M58.864,16.352l-.8,9.5-22.6,22.6a1.368,1.368,0,0,1-1.934,0L23.738,38.66a1.366,1.366,0,0,1,0-1.933l2.416-2.416a1.366,1.366,0,0,1,1.933,0L34.5,40.72Z" fill="#fb4a59"/>
              </g>
            </g>
            <path id="Trazado_266854" data-name="Trazado 266854" d="M58.864,16.352l-.8,9.5L52.55,31.364l.8-9.5Z" fill="#f82f40"/>
          </g>
        </g>
      </g>
      <g id="Grupo_879053" data-name="Grupo 879053">
        <path id="Trazado_266855" data-name="Trazado 266855" d="M46.421,54.33a1.011,1.011,0,1,0,1.1,1.7A23.214,23.214,0,0,0,58,38.586L60.346,10.8A1.011,1.011,0,0,0,59.24,9.705c-1.821.179-3.645.27-5.422.27-7.409,0-13.736-1.519-18.8-4.514a1.011,1.011,0,0,0-1.028,0c-5.068,3-11.395,4.514-18.8,4.514-1.776,0-3.6-.091-5.422-.27A1.011,1.011,0,0,0,8.654,10.8l.8,9.509a1.011,1.011,0,1,0,2.014-.17l-.7-8.312c1.484.115,2.963.173,4.412.173A39.712,39.712,0,0,0,33.489,8.043v3.046a1.011,1.011,0,1,0,2.021,0V8.043A39.71,39.71,0,0,0,53.819,12c1.449,0,2.928-.058,4.412-.173L57.887,15.9,35.511,38.276V32.253a1.011,1.011,0,0,0-2.021,0v6.031L28.8,33.6a2.377,2.377,0,0,0-3.362,0l-2.416,2.416a2.377,2.377,0,0,0,0,3.362l9.791,9.791a2.375,2.375,0,0,0,.675.471v11.3l-10.4-6.291A21.1,21.1,0,0,1,13.013,38.416l-1.165-13.8a1.011,1.011,0,1,0-2.014.17L11,38.586A23.129,23.129,0,0,0,22.043,56.379L33.977,63.6a1.011,1.011,0,0,0,1.046,0l8.628-5.219a1.011,1.011,0,0,0-1.046-1.73L35.511,60.94V49.633a2.373,2.373,0,0,0,.667-.467L56.822,28.521l-.835,9.894A21.179,21.179,0,0,1,46.421,54.33ZM34.748,47.736a.357.357,0,0,1-.5,0l-9.791-9.791a.356.356,0,0,1,0-.5l2.417-2.416a.356.356,0,0,1,.5,0l6.409,6.408a1.011,1.011,0,0,0,1.429,0L57.623,19.022,57.085,25.4Z"/>
        <path id="Trazado_266856" data-name="Trazado 266856" d="M64.568,5.151a2.519,2.519,0,0,0-2.146-.629,49.456,49.456,0,0,1-13.655.451,1.011,1.011,0,1,0-.236,2.008,51.535,51.535,0,0,0,14.235-.466.508.508,0,0,1,.436.128.5.5,0,0,1,.164.42L60.687,38.813A25.832,25.832,0,0,1,48.352,58.685L34.765,66.9a.512.512,0,0,1-.531,0L20.648,58.685A25.832,25.832,0,0,1,8.313,38.813L5.634,7.061a.513.513,0,0,1,.6-.548,52.818,52.818,0,0,0,12.209.655c6.308-.438,11.612-2.139,15.766-5.056a.508.508,0,0,1,.582,0,27.228,27.228,0,0,0,9.2,4.054A1.011,1.011,0,0,0,44.47,4.2,25.221,25.221,0,0,1,35.953.458a2.534,2.534,0,0,0-2.906,0C30.081,2.541,21.562,7.108,6.578,4.521A2.534,2.534,0,0,0,3.62,7.231L6.3,38.983A27.859,27.859,0,0,0,19.6,60.415l13.587,8.218a2.527,2.527,0,0,0,2.623,0L49.4,60.415A27.859,27.859,0,0,0,62.7,38.983L65.38,7.231a2.515,2.515,0,0,0-.812-2.08Z"/>
        <path id="Trazado_266857" data-name="Trazado 266857" d="M40.542,23.192V19.719a6.042,6.042,0,0,0-12.083,0v3.473a6.026,6.026,0,0,0,5.4,6.008,1.036,1.036,0,0,0,.108.006,1.011,1.011,0,0,0,.105-2.016,4.009,4.009,0,0,1-3.591-4V19.719a4.02,4.02,0,1,1,8.04,0v3.473a1.011,1.011,0,1,0,2.021,0Z"/>
        <path id="Trazado_266858" data-name="Trazado 266858" d="M36.8,26.726l.727.521A1.011,1.011,0,1,0,38.7,25.6l-.727-.521a1.816,1.816,0,0,1-.756-1.472V19.731a2.668,2.668,0,0,0-5.336,0V24.09a1.011,1.011,0,1,0,2.021,0V19.731a.647.647,0,0,1,1.293,0v3.879a3.841,3.841,0,0,0,1.6,3.115Z"/>
      </g>
    </g>
  </g>
</svg>
