<svg xmlns="http://www.w3.org/2000/svg" xmlns:xlink="http://www.w3.org/1999/xlink" width="37" height="37" viewBox="0 0 37 37">
  <defs>
    <clipPath id="clip-path">
      <rect id="Rectángulo_66803" data-name="Rectángulo 66803" width="37" height="37" transform="translate(895 2756)" fill="#299ae6"/>
    </clipPath>
  </defs>
  <g id="Enmascarar_grupo_57" data-name="Enmascarar grupo 57" transform="translate(-895 -2756)" clip-path="url(#clip-path)">
    <g id="el-robo-de-identidad" transform="translate(895 2756)">
      <g id="Page-1_40_">
        <g id="_x30_91---Identity-Theft">
          <path id="Shape_231_" d="M29.6,22.2H27.133a6.732,6.732,0,0,0-.566-2.7l0-.007a6.807,6.807,0,0,0-4.52-3.85,6.778,6.778,0,0,0,3.239-5.773V9.249a1.233,1.233,0,0,0,1.233-1.233V6.782a1.233,1.233,0,0,0-1.233-1.233H25.2a6.817,6.817,0,0,0-13.4,0h-.085a1.233,1.233,0,0,0-1.233,1.233V8.016a1.233,1.233,0,0,0,1.233,1.233v.617a6.778,6.778,0,0,0,3.239,5.773,6.807,6.807,0,0,0-4.52,3.85V19.5a6.731,6.731,0,0,0-.569,2.7H7.4a2.467,2.467,0,0,0-2.467,2.467v9.867A2.467,2.467,0,0,0,7.4,37H29.6a2.467,2.467,0,0,0,2.467-2.467V24.666A2.467,2.467,0,0,0,29.6,22.2ZM24.05,9.866a5.5,5.5,0,0,1-.036.617h-4.28a.617.617,0,0,1-.617-.617V9.249H24.05ZM18.5,1.232a5.547,5.547,0,0,1,5.438,4.317H13.061A5.547,5.547,0,0,1,18.5,1.232Zm-6.784,5.55H25.283V8.016H11.716Zm6.167,2.467v.617a.617.617,0,0,1-.617.617h-4.28a5.52,5.52,0,0,1-.036-.617V9.249Zm-4.61,2.467h3.993a1.838,1.838,0,0,0,1.233-.481,1.838,1.838,0,0,0,1.233.481h3.993a5.541,5.541,0,0,1-10.453,0Zm3.376,4.933h3.7a5.55,5.55,0,0,1,4.612,2.467H12.038A5.55,5.55,0,0,1,16.65,16.649Zm-5.226,3.7H25.576A5.512,5.512,0,0,1,25.9,22.2H11.1A5.51,5.51,0,0,1,11.424,20.349Zm19.41,14.184A1.233,1.233,0,0,1,29.6,35.767H7.4a1.233,1.233,0,0,1-1.233-1.233V24.666A1.233,1.233,0,0,1,7.4,23.433H29.6a1.233,1.233,0,0,1,1.233,1.233Z" fill="#299ae6"/>
          <path id="Shape_230_" d="M12.333,24.666A4.933,4.933,0,1,0,17.267,29.6a4.933,4.933,0,0,0-4.933-4.933Zm0,6.167A1.233,1.233,0,1,1,13.567,29.6,1.233,1.233,0,0,1,12.333,30.833ZM11.1,33.084v-.247a.772.772,0,0,1,.771-.771H12.8a.772.772,0,0,1,.771.771v.247A3.631,3.631,0,0,1,11.1,33.084Zm3.648-.687a1.994,1.994,0,0,0-.654-1.074,2.467,2.467,0,1,0-3.52,0A1.994,1.994,0,0,0,9.919,32.4a3.7,3.7,0,1,1,4.829,0Z" fill="#299ae6"/>
          <path id="Shape_229_" d="M19.733,25.9h3.7a.617.617,0,0,0,0-1.233h-3.7a.617.617,0,0,0,0,1.233Z" fill="#299ae6"/>
          <path id="Shape_228_" d="M28.367,27.75H19.733a.617.617,0,0,0,0,1.233h8.634a.617.617,0,1,0,0-1.233Z" fill="#299ae6"/>
          <path id="Shape_227_" d="M28.367,30.216H23.433a.617.617,0,1,0,0,1.233h4.933a.617.617,0,0,0,0-1.233Z" fill="#299ae6"/>
          <path id="Shape_226_" d="M19.733,31.45h1.233a.617.617,0,0,0,0-1.233H19.733a.617.617,0,0,0,0,1.233Z" fill="#299ae6"/>
          <path id="Shape_225_" d="M24.667,32.683H19.733a.617.617,0,1,0,0,1.233h4.933a.617.617,0,1,0,0-1.233Z" fill="#299ae6"/>
        </g>
      </g>
    </g>
  </g>
</svg>
